<svg width="192" height="183" viewBox="0 0 192 183" fill="none" xmlns="http://www.w3.org/2000/svg">
<mask id="mask0" mask-type="alpha" maskUnits="userSpaceOnUse" x="0" y="0" width="192" height="183">
<ellipse cx="95.9236" cy="91.3438" rx="95.9236" ry="91.1446" fill="#C4C4C4"/>
</mask>
<g mask="url(#mask0)">
<g style="mix-blend-mode:multiply">
<g style="mix-blend-mode:multiply">
<g style="mix-blend-mode:multiply">
<g style="mix-blend-mode:multiply">
<path d="M11.7781 5.94818C11.7781 7.02728 11.4413 8.08214 10.8104 8.97937C10.1794 9.87661 9.28259 10.5759 8.23337 10.9889C7.18415 11.4018 6.02966 11.5099 4.91581 11.2993C3.80196 11.0888 2.77878 10.5692 1.97574 9.80617C1.1727 9.04314 0.625847 8.07096 0.404289 7.0126C0.182731 5.95424 0.296407 4.85723 0.731009 3.86027C1.16561 2.86332 1.90157 2.01121 2.84585 1.41169C3.79012 0.812181 4.90032 0.492188 6.03599 0.492188C7.55888 0.492188 9.0194 1.067 10.0962 2.0902C11.1731 3.11339 11.7781 4.50116 11.7781 5.94818Z" fill="#00CED1"/>
</g>
</g>
<g style="mix-blend-mode:multiply">
<g style="mix-blend-mode:multiply">
<path d="M32.1836 5.94818C32.1836 7.02728 31.8468 8.08214 31.2159 8.97937C30.585 9.87661 29.6882 10.5759 28.639 10.9889C27.5898 11.4018 26.4353 11.5099 25.3214 11.2993C24.2076 11.0888 23.1845 10.5692 22.3815 9.80617C21.5784 9.04314 21.0316 8.07096 20.81 7.0126C20.5885 5.95424 20.7022 4.85723 21.1368 3.86027C21.5714 2.86332 22.3073 2.01121 23.2516 1.41169C24.1958 0.812181 25.306 0.492188 26.4417 0.492188C27.9645 0.492188 29.425 1.067 30.5018 2.0902C31.5786 3.11339 32.1836 4.50116 32.1836 5.94818Z" fill="#00CED1"/>
</g>
</g>
<g style="mix-blend-mode:multiply">
<g style="mix-blend-mode:multiply">
<path d="M52.5891 5.94818C52.5891 7.02728 52.2523 8.08214 51.6214 8.97937C50.9905 9.87661 50.0936 10.5759 49.0444 10.9889C47.9952 11.4018 46.8407 11.5099 45.7268 11.2993C44.613 11.0888 43.5899 10.5692 42.7868 9.80617C41.9838 9.04314 41.4369 8.07096 41.2153 7.0126C40.9937 5.95424 41.1075 4.85723 41.5421 3.86027C41.9767 2.86332 42.7127 2.01121 43.6569 1.41169C44.6012 0.812181 45.7113 0.492188 46.847 0.492188C48.3699 0.492188 49.8304 1.067 50.9073 2.0902C51.9841 3.11339 52.5891 4.50116 52.5891 5.94818Z" fill="#00CED1"/>
</g>
</g>
<g style="mix-blend-mode:multiply">
<g style="mix-blend-mode:multiply">
<path d="M73.0349 5.94819C73.0349 7.02729 72.6981 8.08214 72.0672 8.97938C71.4362 9.87661 70.5395 10.5759 69.4903 10.9889C68.441 11.4018 67.2865 11.5099 66.1726 11.2993C65.0588 11.0888 64.0357 10.5692 63.2326 9.80618C62.4296 9.04314 61.8827 8.07097 61.6611 7.01261C61.4395 5.95425 61.5533 4.85723 61.9879 3.86028C62.4225 2.86333 63.1585 2.01122 64.1027 1.41171C65.047 0.812195 66.1571 0.492202 67.2928 0.492202C68.0474 0.490521 68.7949 0.630511 69.4923 0.904104C70.1898 1.1777 70.8234 1.5795 71.357 2.08647C71.8905 2.59345 72.3135 3.19559 72.6014 3.8583C72.8893 4.52101 73.0367 5.23123 73.0349 5.94819Z" fill="#00CED1"/>
</g>
</g>
<g style="mix-blend-mode:multiply">
<g style="mix-blend-mode:multiply">
<path d="M93.4142 5.94818C93.4142 7.02728 93.0774 8.08214 92.4465 8.97937C91.8155 9.87661 90.9188 10.5759 89.8696 10.9889C88.8204 11.4018 87.6658 11.5099 86.552 11.2993C85.4381 11.0888 84.415 10.5692 83.612 9.80617C82.809 9.04314 82.2621 8.07096 82.0405 7.0126C81.8189 5.95424 81.9327 4.85723 82.3673 3.86027C82.8019 2.86332 83.5378 2.01121 84.4821 1.41169C85.4264 0.812181 86.5365 0.492188 87.6722 0.492188C89.195 0.492188 90.6555 1.067 91.7324 2.0902C92.8092 3.11339 93.4142 4.50116 93.4142 5.94818Z" fill="#00CED1"/>
</g>
</g>
<g style="mix-blend-mode:multiply">
<g style="mix-blend-mode:multiply">
<path d="M113.82 5.94818C113.82 7.02728 113.483 8.08214 112.852 8.97937C112.221 9.87661 111.324 10.5759 110.275 10.9889C109.226 11.4018 108.072 11.5099 106.958 11.2993C105.844 11.0888 104.821 10.5692 104.018 9.80617C103.215 9.04314 102.668 8.07096 102.446 7.0126C102.225 5.95424 102.338 4.85723 102.773 3.86027C103.208 2.86332 103.944 2.01121 104.888 1.41169C105.832 0.812181 106.942 0.492188 108.078 0.492188C109.601 0.492188 111.061 1.067 112.138 2.0902C113.215 3.11339 113.82 4.50116 113.82 5.94818Z" fill="#00CED1"/>
</g>
</g>
<g style="mix-blend-mode:multiply">
<g style="mix-blend-mode:multiply">
<path d="M134.225 5.94819C134.225 7.02729 133.888 8.08214 133.257 8.97938C132.627 9.87661 131.73 10.5759 130.681 10.9889C129.631 11.4018 128.477 11.5099 127.363 11.2993C126.249 11.0888 125.226 10.5692 124.423 9.80618C123.62 9.04314 123.073 8.07097 122.852 7.01261C122.63 5.95425 122.744 4.85723 123.178 3.86028C123.613 2.86333 124.349 2.01122 125.293 1.41171C126.237 0.812195 127.348 0.492202 128.483 0.492202C129.238 0.490521 129.985 0.630511 130.683 0.904104C131.38 1.1777 132.014 1.5795 132.547 2.08647C133.081 2.59345 133.504 3.19559 133.792 3.8583C134.08 4.52101 134.227 5.23123 134.225 5.94819Z" fill="#00CED1"/>
</g>
</g>
<g style="mix-blend-mode:multiply">
<g style="mix-blend-mode:multiply">
<path d="M154.631 5.94819C154.631 7.02783 154.293 8.08319 153.662 8.9807C153.03 9.87821 152.133 10.5775 151.083 10.9901C150.033 11.4026 148.878 11.51 147.763 11.2984C146.649 11.0869 145.626 10.5659 144.824 9.80163C144.021 9.03732 143.475 8.06395 143.255 7.00475C143.035 5.94556 143.151 4.84814 143.587 3.85141C144.024 2.85469 144.762 2.00346 145.708 1.40548C146.654 0.807506 147.766 0.48968 148.902 0.492202C149.655 0.4922 150.401 0.633416 151.097 0.907761C151.793 1.18211 152.425 1.58418 152.957 2.09099C153.49 2.59779 153.911 3.19938 154.198 3.86126C154.486 4.52313 154.632 5.2323 154.631 5.94819Z" fill="#00CED1"/>
</g>
</g>
<g style="mix-blend-mode:multiply">
<g style="mix-blend-mode:multiply">
<path d="M174.996 5.94818C174.996 7.02728 174.659 8.08214 174.028 8.97937C173.397 9.87661 172.5 10.5759 171.451 10.9889C170.402 11.4018 169.247 11.5099 168.134 11.2993C167.02 11.0888 165.997 10.5692 165.194 9.80617C164.391 9.04314 163.844 8.07096 163.622 7.0126C163.4 5.95424 163.514 4.85723 163.949 3.86027C164.383 2.86332 165.119 2.01121 166.064 1.41169C167.008 0.812181 168.118 0.492188 169.254 0.492188C170.777 0.492188 172.237 1.067 173.314 2.0902C174.391 3.11339 174.996 4.50116 174.996 5.94818Z" fill="#00CED1"/>
</g>
</g>
<g style="mix-blend-mode:multiply">
<g style="mix-blend-mode:multiply">
<path d="M195.455 5.94818C195.455 7.02728 195.118 8.08214 194.487 8.97937C193.857 9.87661 192.96 10.5759 191.911 10.9889C190.861 11.4018 189.707 11.5099 188.593 11.2993C187.479 11.0888 186.456 10.5692 185.653 9.80617C184.85 9.04314 184.303 8.07096 184.082 7.0126C183.86 5.95424 183.974 4.85723 184.408 3.86027C184.843 2.86332 185.579 2.01121 186.523 1.41169C187.467 0.812181 188.578 0.492188 189.713 0.492188C191.236 0.492188 192.697 1.067 193.773 2.0902C194.85 3.11339 195.455 4.50116 195.455 5.94818Z" fill="#00CED1"/>
</g>
</g>
<g style="mix-blend-mode:multiply">
<g style="mix-blend-mode:multiply">
<path d="M11.7781 29.1629C11.7781 30.242 11.4413 31.2968 10.8104 32.194C10.1794 33.0912 9.28259 33.7905 8.23337 34.2035C7.18415 34.6164 6.02966 34.7245 4.91581 34.5139C3.80196 34.3034 2.77878 33.7838 1.97574 33.0208C1.1727 32.2578 0.625847 31.2856 0.404289 30.2273C0.182731 29.1689 0.296407 28.072 0.731009 27.075C1.16561 26.0781 1.90157 25.226 2.84585 24.6265C3.79012 24.027 4.90032 23.707 6.03599 23.707C7.55888 23.707 9.0194 24.2819 10.0962 25.305C11.1731 26.3282 11.7781 27.7159 11.7781 29.1629Z" fill="#00CED1"/>
</g>
</g>
<g style="mix-blend-mode:multiply">
<g style="mix-blend-mode:multiply">
<path d="M32.1836 29.1629C32.1836 30.242 31.8468 31.2968 31.2159 32.194C30.585 33.0912 29.6882 33.7905 28.639 34.2035C27.5898 34.6164 26.4353 34.7245 25.3214 34.5139C24.2076 34.3034 23.1845 33.7838 22.3815 33.0208C21.5784 32.2578 21.0316 31.2856 20.81 30.2273C20.5885 29.1689 20.7022 28.072 21.1368 27.075C21.5714 26.0781 22.3073 25.226 23.2516 24.6265C24.1958 24.027 25.306 23.707 26.4417 23.707C27.9645 23.707 29.425 24.2819 30.5018 25.305C31.5786 26.3282 32.1836 27.7159 32.1836 29.1629Z" fill="#00CED1"/>
</g>
</g>
<g style="mix-blend-mode:multiply">
<g style="mix-blend-mode:multiply">
<path d="M52.5891 29.1629C52.5891 30.242 52.2523 31.2968 51.6214 32.194C50.9905 33.0912 50.0936 33.7905 49.0444 34.2035C47.9952 34.6164 46.8407 34.7245 45.7268 34.5139C44.613 34.3034 43.5899 33.7838 42.7868 33.0208C41.9838 32.2578 41.4369 31.2856 41.2153 30.2273C40.9937 29.1689 41.1075 28.072 41.5421 27.075C41.9767 26.0781 42.7127 25.226 43.6569 24.6265C44.6012 24.027 45.7113 23.707 46.847 23.707C48.3699 23.707 49.8304 24.2819 50.9073 25.305C51.9841 26.3282 52.5891 27.7159 52.5891 29.1629Z" fill="#00CED1"/>
</g>
</g>
<g style="mix-blend-mode:multiply">
<g style="mix-blend-mode:multiply">
<path d="M73.0348 29.1629C73.0348 30.242 72.698 31.2968 72.0671 32.194C71.4361 33.0912 70.5394 33.7905 69.4902 34.2035C68.441 34.6164 67.2864 34.7245 66.1726 34.5139C65.0587 34.3034 64.0357 33.7838 63.2326 33.0208C62.4296 32.2578 61.8827 31.2856 61.6611 30.2273C61.4395 29.1689 61.5533 28.072 61.9879 27.075C62.4225 26.0781 63.1585 25.226 64.1027 24.6265C65.047 24.027 66.1571 23.707 67.2928 23.707C68.8156 23.707 70.2761 24.2819 71.353 25.305C72.4298 26.3282 73.0348 27.7159 73.0348 29.1629Z" fill="#00CED1"/>
</g>
</g>
<g style="mix-blend-mode:multiply">
<g style="mix-blend-mode:multiply">
<path d="M93.4142 29.1629C93.4142 30.242 93.0774 31.2968 92.4465 32.194C91.8155 33.0912 90.9188 33.7905 89.8696 34.2035C88.8204 34.6164 87.6658 34.7245 86.552 34.5139C85.4381 34.3034 84.415 33.7838 83.612 33.0208C82.809 32.2578 82.2621 31.2856 82.0405 30.2273C81.8189 29.1689 81.9327 28.072 82.3673 27.075C82.8019 26.0781 83.5378 25.226 84.4821 24.6265C85.4264 24.027 86.5365 23.707 87.6722 23.707C89.195 23.707 90.6555 24.2819 91.7324 25.305C92.8092 26.3282 93.4142 27.7159 93.4142 29.1629Z" fill="#00CED1"/>
</g>
</g>
<g style="mix-blend-mode:multiply">
<g style="mix-blend-mode:multiply">
<path d="M113.82 29.1629C113.82 30.242 113.483 31.2968 112.852 32.194C112.221 33.0912 111.324 33.7905 110.275 34.2035C109.226 34.6164 108.072 34.7245 106.958 34.5139C105.844 34.3034 104.821 33.7838 104.018 33.0208C103.215 32.2578 102.668 31.2856 102.446 30.2273C102.225 29.1689 102.338 28.072 102.773 27.075C103.208 26.0781 103.944 25.226 104.888 24.6265C105.832 24.027 106.942 23.707 108.078 23.707C109.601 23.707 111.061 24.2819 112.138 25.305C113.215 26.3282 113.82 27.7159 113.82 29.1629Z" fill="#00CED1"/>
</g>
</g>
<g style="mix-blend-mode:multiply">
<g style="mix-blend-mode:multiply">
<path d="M134.225 29.1629C134.225 30.242 133.888 31.2968 133.258 32.194C132.627 33.0912 131.73 33.7905 130.681 34.2035C129.631 34.6164 128.477 34.7245 127.363 34.5139C126.249 34.3034 125.226 33.7838 124.423 33.0208C123.62 32.2578 123.073 31.2856 122.852 30.2273C122.63 29.1689 122.744 28.072 123.178 27.075C123.613 26.0781 124.349 25.226 125.293 24.6265C126.237 24.027 127.348 23.707 128.483 23.707C130.006 23.707 131.467 24.2819 132.543 25.305C133.62 26.3282 134.225 27.7159 134.225 29.1629Z" fill="#00CED1"/>
</g>
</g>
<g style="mix-blend-mode:multiply">
<g style="mix-blend-mode:multiply">
<path d="M154.631 29.1629C154.631 30.2425 154.293 31.2979 153.662 32.1953C153.03 33.0928 152.133 33.7921 151.083 34.2047C150.033 34.6173 148.878 34.7246 147.763 34.513C146.649 34.3014 145.626 33.7805 144.824 33.0163C144.021 32.252 143.475 31.2787 143.255 30.2195C143.035 29.1603 143.151 28.0629 143.587 27.0662C144.024 26.0695 144.762 25.2183 145.708 24.6203C146.654 24.0224 147.766 23.7045 148.902 23.707C150.423 23.7104 151.88 24.2867 152.954 25.3095C154.027 26.3323 154.631 27.7181 154.631 29.1629Z" fill="#00CED1"/>
</g>
</g>
<g style="mix-blend-mode:multiply">
<g style="mix-blend-mode:multiply">
<path d="M174.996 29.1629C174.996 30.242 174.659 31.2968 174.028 32.194C173.397 33.0912 172.5 33.7905 171.451 34.2035C170.402 34.6164 169.247 34.7245 168.134 34.5139C167.02 34.3034 165.997 33.7838 165.194 33.0208C164.391 32.2578 163.844 31.2856 163.622 30.2273C163.4 29.1689 163.514 28.072 163.949 27.075C164.383 26.0781 165.119 25.226 166.064 24.6265C167.008 24.027 168.118 23.707 169.254 23.707C170.777 23.707 172.237 24.2819 173.314 25.305C174.391 26.3282 174.996 27.7159 174.996 29.1629Z" fill="#00CED1"/>
</g>
</g>
<g style="mix-blend-mode:multiply">
<g style="mix-blend-mode:multiply">
<path d="M195.455 29.1629C195.455 30.242 195.118 31.2968 194.487 32.194C193.857 33.0912 192.96 33.7905 191.911 34.2035C190.861 34.6164 189.707 34.7245 188.593 34.5139C187.479 34.3034 186.456 33.7838 185.653 33.0208C184.85 32.2578 184.303 31.2856 184.082 30.2273C183.86 29.1689 183.974 28.072 184.408 27.075C184.843 26.0781 185.579 25.226 186.523 24.6265C187.467 24.027 188.578 23.707 189.713 23.707C191.236 23.707 192.697 24.2819 193.773 25.305C194.85 26.3282 195.455 27.7159 195.455 29.1629Z" fill="#00CED1"/>
</g>
</g>
<g style="mix-blend-mode:multiply">
<g style="mix-blend-mode:multiply">
<path d="M11.7781 52.3876C11.7781 53.4667 11.4413 54.5216 10.8104 55.4188C10.1794 56.3161 9.28259 57.0154 8.23337 57.4283C7.18415 57.8413 6.02966 57.9493 4.91581 57.7388C3.80196 57.5283 2.77878 57.0087 1.97574 56.2456C1.1727 55.4826 0.625847 54.5104 0.404289 53.4521C0.182731 52.3937 0.296407 51.2967 0.731009 50.2997C1.16561 49.3028 1.90157 48.4507 2.84585 47.8511C3.79012 47.2516 4.90032 46.9316 6.03599 46.9316C7.55888 46.9316 9.0194 47.5065 10.0962 48.5297C11.1731 49.5529 11.7781 50.9406 11.7781 52.3876Z" fill="#00CED1"/>
</g>
</g>
<g style="mix-blend-mode:multiply">
<g style="mix-blend-mode:multiply">
<path d="M32.1836 52.3876C32.1836 53.4667 31.8468 54.5216 31.2159 55.4188C30.585 56.3161 29.6882 57.0154 28.639 57.4283C27.5898 57.8413 26.4353 57.9493 25.3214 57.7388C24.2076 57.5283 23.1845 57.0087 22.3815 56.2456C21.5784 55.4826 21.0316 54.5104 20.81 53.4521C20.5885 52.3937 20.7022 51.2967 21.1368 50.2997C21.5714 49.3028 22.3073 48.4507 23.2516 47.8511C24.1958 47.2516 25.306 46.9316 26.4417 46.9316C27.9645 46.9316 29.425 47.5065 30.5018 48.5297C31.5786 49.5529 32.1836 50.9406 32.1836 52.3876Z" fill="#00CED1"/>
</g>
</g>
<g style="mix-blend-mode:multiply">
<g style="mix-blend-mode:multiply">
<path d="M52.5891 52.3876C52.5891 53.4667 52.2523 54.5216 51.6214 55.4188C50.9905 56.3161 50.0936 57.0154 49.0444 57.4283C47.9952 57.8413 46.8407 57.9493 45.7268 57.7388C44.613 57.5283 43.5899 57.0087 42.7868 56.2456C41.9838 55.4826 41.4369 54.5104 41.2153 53.4521C40.9937 52.3937 41.1075 51.2967 41.5421 50.2997C41.9767 49.3028 42.7127 48.4507 43.6569 47.8511C44.6012 47.2516 45.7113 46.9316 46.847 46.9316C48.3699 46.9316 49.8304 47.5065 50.9073 48.5297C51.9841 49.5529 52.5891 50.9406 52.5891 52.3876Z" fill="#00CED1"/>
</g>
</g>
<g style="mix-blend-mode:multiply">
<g style="mix-blend-mode:multiply">
<path d="M73.0348 52.3876C73.0348 53.4667 72.698 54.5216 72.0671 55.4188C71.4361 56.3161 70.5394 57.0154 69.4902 57.4283C68.441 57.8413 67.2864 57.9493 66.1726 57.7388C65.0587 57.5283 64.0357 57.0087 63.2326 56.2456C62.4296 55.4826 61.8827 54.5104 61.6611 53.4521C61.4395 52.3937 61.5533 51.2967 61.9879 50.2997C62.4225 49.3028 63.1585 48.4507 64.1027 47.8511C65.047 47.2516 66.1571 46.9316 67.2928 46.9316C68.8156 46.9316 70.2761 47.5065 71.353 48.5297C72.4298 49.5529 73.0348 50.9406 73.0348 52.3876Z" fill="#00CED1"/>
</g>
</g>
<g style="mix-blend-mode:multiply">
<g style="mix-blend-mode:multiply">
<path d="M93.4142 52.3876C93.4142 53.4667 93.0774 54.5216 92.4465 55.4188C91.8155 56.3161 90.9188 57.0154 89.8696 57.4283C88.8204 57.8413 87.6658 57.9493 86.552 57.7388C85.4381 57.5283 84.415 57.0087 83.612 56.2456C82.809 55.4826 82.2621 54.5104 82.0405 53.4521C81.8189 52.3937 81.9327 51.2967 82.3673 50.2997C82.8019 49.3028 83.5378 48.4507 84.4821 47.8511C85.4264 47.2516 86.5365 46.9316 87.6722 46.9316C89.195 46.9316 90.6555 47.5065 91.7324 48.5297C92.8092 49.5529 93.4142 50.9406 93.4142 52.3876Z" fill="#00CED1"/>
</g>
</g>
<g style="mix-blend-mode:multiply">
<g style="mix-blend-mode:multiply">
<path d="M113.82 52.3876C113.82 53.4667 113.483 54.5216 112.852 55.4188C112.221 56.3161 111.324 57.0154 110.275 57.4283C109.226 57.8413 108.072 57.9493 106.958 57.7388C105.844 57.5283 104.821 57.0087 104.018 56.2456C103.215 55.4826 102.668 54.5104 102.446 53.4521C102.225 52.3937 102.338 51.2967 102.773 50.2997C103.208 49.3028 103.944 48.4507 104.888 47.8511C105.832 47.2516 106.942 46.9316 108.078 46.9316C109.601 46.9316 111.061 47.5065 112.138 48.5297C113.215 49.5529 113.82 50.9406 113.82 52.3876Z" fill="#00CED1"/>
</g>
</g>
<g style="mix-blend-mode:multiply">
<g style="mix-blend-mode:multiply">
<path d="M134.225 52.3876C134.225 53.4667 133.888 54.5216 133.258 55.4188C132.627 56.3161 131.73 57.0154 130.681 57.4283C129.631 57.8413 128.477 57.9493 127.363 57.7388C126.249 57.5283 125.226 57.0087 124.423 56.2456C123.62 55.4826 123.073 54.5104 122.852 53.4521C122.63 52.3937 122.744 51.2967 123.178 50.2997C123.613 49.3028 124.349 48.4507 125.293 47.8511C126.237 47.2516 127.348 46.9316 128.483 46.9316C130.006 46.9316 131.467 47.5065 132.543 48.5297C133.62 49.5529 134.225 50.9406 134.225 52.3876Z" fill="#00CED1"/>
</g>
</g>
<g style="mix-blend-mode:multiply">
<g style="mix-blend-mode:multiply">
<path d="M154.631 52.3876C154.631 53.4673 154.293 54.5226 153.662 55.4201C153.03 56.3177 152.133 57.017 151.083 57.4295C150.033 57.8421 148.878 57.9494 147.763 57.7379C146.649 57.5263 145.626 57.0054 144.824 56.2411C144.021 55.4768 143.475 54.5034 143.255 53.4442C143.035 52.385 143.151 51.2876 143.587 50.2909C144.024 49.2942 144.762 48.443 145.708 47.845C146.654 47.247 147.766 46.9291 148.902 46.9317C150.423 46.935 151.88 47.5113 152.954 48.5342C154.027 49.557 154.631 50.9428 154.631 52.3876Z" fill="#00CED1"/>
</g>
</g>
<g style="mix-blend-mode:multiply">
<g style="mix-blend-mode:multiply">
<path d="M174.996 52.3876C174.996 53.4667 174.659 54.5216 174.028 55.4188C173.397 56.3161 172.5 57.0154 171.451 57.4283C170.402 57.8413 169.247 57.9493 168.134 57.7388C167.02 57.5283 165.997 57.0087 165.194 56.2456C164.391 55.4826 163.844 54.5104 163.622 53.4521C163.4 52.3937 163.514 51.2967 163.949 50.2997C164.383 49.3028 165.119 48.4507 166.064 47.8511C167.008 47.2516 168.118 46.9316 169.254 46.9316C170.777 46.9316 172.237 47.5065 173.314 48.5297C174.391 49.5529 174.996 50.9406 174.996 52.3876Z" fill="#00CED1"/>
</g>
</g>
<g style="mix-blend-mode:multiply">
<g style="mix-blend-mode:multiply">
<path d="M195.455 52.3876C195.455 53.4667 195.118 54.5216 194.487 55.4188C193.857 56.3161 192.96 57.0154 191.911 57.4283C190.861 57.8413 189.707 57.9493 188.593 57.7388C187.479 57.5283 186.456 57.0087 185.653 56.2456C184.85 55.4826 184.303 54.5104 184.082 53.4521C183.86 52.3937 183.974 51.2967 184.408 50.2997C184.843 49.3028 185.579 48.4507 186.523 47.8511C187.467 47.2516 188.578 46.9316 189.713 46.9316C191.236 46.9316 192.697 47.5065 193.773 48.5297C194.85 49.5529 195.455 50.9406 195.455 52.3876Z" fill="#00CED1"/>
</g>
</g>
<g style="mix-blend-mode:multiply">
<g style="mix-blend-mode:multiply">
<path d="M6.03601 81.0817C9.20726 81.0817 11.7781 78.639 11.7781 75.6258C11.7781 72.6126 9.20726 70.1699 6.03601 70.1699C2.86475 70.1699 0.293945 72.6126 0.293945 75.6258C0.293945 78.639 2.86475 81.0817 6.03601 81.0817Z" fill="#00CED1"/>
</g>
</g>
<g style="mix-blend-mode:multiply">
<g style="mix-blend-mode:multiply">
<path d="M32.1836 75.6121C32.1836 76.6911 31.8468 77.7459 31.2159 78.6431C30.585 79.5403 29.6882 80.2397 28.639 80.6526C27.5898 81.0655 26.4353 81.1735 25.3214 80.963C24.2076 80.7525 23.1845 80.2329 22.3815 79.4699C21.5784 78.7069 21.0316 77.7348 20.81 76.6764C20.5885 75.6181 20.7022 74.5211 21.1368 73.5242C21.5714 72.5273 22.3073 71.6752 23.2516 71.0757C24.1958 70.4762 25.306 70.1563 26.4417 70.1562C27.9645 70.1563 29.425 70.7311 30.5018 71.7542C31.5786 72.7774 32.1836 74.1651 32.1836 75.6121Z" fill="#00CED1"/>
</g>
</g>
<g style="mix-blend-mode:multiply">
<g style="mix-blend-mode:multiply">
<path d="M52.5891 75.6121C52.5891 76.6911 52.2523 77.7459 51.6214 78.6431C50.9905 79.5403 50.0936 80.2397 49.0444 80.6526C47.9952 81.0655 46.8407 81.1735 45.7268 80.963C44.613 80.7525 43.5899 80.2329 42.7868 79.4699C41.9838 78.7069 41.4369 77.7348 41.2153 76.6764C40.9937 75.6181 41.1075 74.5211 41.5421 73.5242C41.9767 72.5273 42.7127 71.6752 43.6569 71.0757C44.6012 70.4762 45.7113 70.1563 46.847 70.1562C48.3699 70.1563 49.8304 70.7311 50.9073 71.7542C51.9841 72.7774 52.5891 74.1651 52.5891 75.6121Z" fill="#00CED1"/>
</g>
</g>
<g style="mix-blend-mode:multiply">
<g style="mix-blend-mode:multiply">
<path d="M73.0348 75.6121C73.0348 76.6911 72.698 77.7459 72.0671 78.6431C71.4361 79.5403 70.5394 80.2397 69.4902 80.6526C68.441 81.0655 67.2864 81.1735 66.1726 80.963C65.0587 80.7525 64.0357 80.2329 63.2326 79.4699C62.4296 78.7069 61.8827 77.7348 61.6611 76.6764C61.4395 75.6181 61.5533 74.5211 61.9879 73.5242C62.4225 72.5273 63.1585 71.6752 64.1027 71.0757C65.047 70.4762 66.1571 70.1563 67.2928 70.1562C68.8156 70.1563 70.2761 70.7311 71.353 71.7542C72.4298 72.7774 73.0348 74.1651 73.0348 75.6121Z" fill="#00CED1"/>
</g>
</g>
<g style="mix-blend-mode:multiply">
<g style="mix-blend-mode:multiply">
<path d="M93.4142 75.6121C93.4142 76.6911 93.0774 77.7459 92.4465 78.6431C91.8155 79.5403 90.9188 80.2397 89.8696 80.6526C88.8204 81.0655 87.6658 81.1735 86.552 80.963C85.4381 80.7525 84.415 80.2329 83.612 79.4699C82.809 78.7069 82.2621 77.7348 82.0405 76.6764C81.8189 75.6181 81.9327 74.5211 82.3673 73.5242C82.8019 72.5273 83.5378 71.6752 84.4821 71.0757C85.4264 70.4762 86.5365 70.1563 87.6722 70.1562C89.195 70.1563 90.6555 70.7311 91.7324 71.7542C92.8092 72.7774 93.4142 74.1651 93.4142 75.6121Z" fill="#00CED1"/>
</g>
</g>
<g style="mix-blend-mode:multiply">
<g style="mix-blend-mode:multiply">
<path d="M108.078 81.0817C111.249 81.0817 113.82 78.639 113.82 75.6258C113.82 72.6126 111.249 70.1699 108.078 70.1699C104.907 70.1699 102.336 72.6126 102.336 75.6258C102.336 78.639 104.907 81.0817 108.078 81.0817Z" fill="#00CED1"/>
</g>
</g>
<g style="mix-blend-mode:multiply">
<g style="mix-blend-mode:multiply">
<path d="M128.496 81.0817C131.668 81.0817 134.238 78.639 134.238 75.6258C134.238 72.6126 131.668 70.1699 128.496 70.1699C125.325 70.1699 122.754 72.6126 122.754 75.6258C122.754 78.639 125.325 81.0817 128.496 81.0817Z" fill="#00CED1"/>
</g>
</g>
<g style="mix-blend-mode:multiply">
<g style="mix-blend-mode:multiply">
<path d="M154.631 75.6121C154.631 76.6917 154.293 77.747 153.662 78.6445C153.03 79.5419 152.133 80.2412 151.083 80.6538C150.033 81.0664 148.878 81.1736 147.763 80.9621C146.649 80.7505 145.626 80.2296 144.824 79.4654C144.021 78.7011 143.475 77.7278 143.255 76.6686C143.035 75.6095 143.151 74.5121 143.587 73.5154C144.024 72.5187 144.762 71.6675 145.708 71.0696C146.654 70.4716 147.766 70.1537 148.902 70.1563C150.423 70.1596 151.88 70.7359 152.954 71.7587C154.027 72.7815 154.631 74.1673 154.631 75.6121Z" fill="#00CED1"/>
</g>
</g>
<g style="mix-blend-mode:multiply">
<g style="mix-blend-mode:multiply">
<path d="M174.996 75.6121C174.996 76.6911 174.659 77.7459 174.028 78.6431C173.397 79.5403 172.5 80.2397 171.451 80.6526C170.402 81.0655 169.247 81.1735 168.134 80.963C167.02 80.7525 165.997 80.2329 165.194 79.4699C164.391 78.7069 163.844 77.7348 163.622 76.6764C163.4 75.6181 163.514 74.5211 163.949 73.5242C164.383 72.5273 165.119 71.6752 166.064 71.0757C167.008 70.4762 168.118 70.1563 169.254 70.1562C170.777 70.1563 172.237 70.7311 173.314 71.7542C174.391 72.7774 174.996 74.1651 174.996 75.6121Z" fill="#00CED1"/>
</g>
</g>
<g style="mix-blend-mode:multiply">
<g style="mix-blend-mode:multiply">
<path d="M195.455 75.6121C195.455 76.6911 195.118 77.7459 194.487 78.6431C193.857 79.5403 192.96 80.2397 191.911 80.6526C190.861 81.0655 189.707 81.1735 188.593 80.963C187.479 80.7525 186.456 80.2329 185.653 79.4699C184.85 78.7069 184.303 77.7348 184.082 76.6764C183.86 75.6181 183.974 74.5211 184.408 73.5242C184.843 72.5273 185.579 71.6752 186.523 71.0757C187.467 70.4762 188.578 70.1563 189.713 70.1562C191.236 70.1563 192.697 70.7311 193.773 71.7542C194.85 72.7774 195.455 74.1651 195.455 75.6121Z" fill="#00CED1"/>
</g>
</g>
<g style="mix-blend-mode:multiply">
<g style="mix-blend-mode:multiply">
<path d="M6.03601 104.306C9.20726 104.306 11.7781 101.864 11.7781 98.8503C11.7781 95.8372 9.20726 93.3945 6.03601 93.3945C2.86475 93.3945 0.293945 95.8372 0.293945 98.8503C0.293945 101.864 2.86475 104.306 6.03601 104.306Z" fill="#00CED1"/>
</g>
</g>
<g style="mix-blend-mode:multiply">
<g style="mix-blend-mode:multiply">
<path d="M32.1836 98.8376C32.1862 99.9172 31.8517 100.973 31.2224 101.872C30.5931 102.771 29.6973 103.472 28.6483 103.887C27.5994 104.302 26.4444 104.412 25.3297 104.203C24.215 103.994 23.1906 103.475 22.3862 102.713C21.5819 101.95 21.0337 100.978 20.811 99.9194C20.5884 98.8607 20.7013 97.7631 21.1355 96.7655C21.5697 95.7678 22.3056 94.915 23.2502 94.3149C24.1947 93.7148 25.3054 93.3945 26.4417 93.3945C27.9622 93.3945 29.4207 93.9676 30.4971 94.988C31.5735 96.0084 32.18 97.3928 32.1836 98.8376Z" fill="#00CED1"/>
</g>
</g>
<g style="mix-blend-mode:multiply">
<g style="mix-blend-mode:multiply">
<path d="M52.5891 98.8376C52.5918 99.9172 52.2573 100.973 51.6279 101.872C50.9986 102.771 50.1027 103.472 49.0537 103.887C48.0047 104.302 46.8498 104.412 45.7351 104.203C44.6204 103.994 43.596 103.475 42.7916 102.713C41.9872 101.95 41.4389 100.978 41.2163 99.9194C40.9936 98.8607 41.1066 97.7631 41.5408 96.7655C41.975 95.7678 42.711 94.915 43.6556 94.3149C44.6001 93.7148 45.7108 93.3945 46.847 93.3945C48.3676 93.3945 49.8261 93.9676 50.9025 94.988C51.979 96.0084 52.5855 97.3928 52.5891 98.8376Z" fill="#00CED1"/>
</g>
</g>
<g style="mix-blend-mode:multiply">
<g style="mix-blend-mode:multiply">
<path d="M73.0348 98.8376C73.0374 99.9172 72.7029 100.973 72.0736 101.872C71.4443 102.771 70.5484 103.472 69.4994 103.887C68.4504 104.302 67.2955 104.412 66.1808 104.203C65.0661 103.994 64.0417 103.475 63.2373 102.713C62.4329 101.95 61.8848 100.978 61.6621 99.9194C61.4395 98.8607 61.5523 97.7631 61.9865 96.7655C62.4207 95.7678 63.1567 94.915 64.1013 94.3149C65.0458 93.7149 66.1565 93.3945 67.2927 93.3945C68.0461 93.3929 68.7925 93.5324 69.4891 93.8052C70.1857 94.078 70.8188 94.4786 71.3521 94.9843C71.8855 95.4899 72.3087 96.0905 72.5974 96.7517C72.8862 97.4129 73.0348 98.1217 73.0348 98.8376Z" fill="#00CED1"/>
</g>
</g>
<g style="mix-blend-mode:multiply">
<g style="mix-blend-mode:multiply">
<path d="M93.4142 98.8376C93.4168 99.9172 93.0823 100.973 92.453 101.872C91.8237 102.771 90.9278 103.472 89.8788 103.887C88.8298 104.302 87.6749 104.412 86.5602 104.203C85.4455 103.994 84.4211 103.475 83.6167 102.713C82.8123 101.95 82.2642 100.978 82.0415 99.9194C81.8189 98.8607 81.9317 97.7631 82.3659 96.7655C82.8001 95.7678 83.5361 94.915 84.4807 94.3149C85.4252 93.7148 86.5359 93.3945 87.6721 93.3945C89.1927 93.3945 90.6511 93.9676 91.7276 94.988C92.8041 96.0084 93.4106 97.3928 93.4142 98.8376Z" fill="#00CED1"/>
</g>
</g>
<g style="mix-blend-mode:multiply">
<g style="mix-blend-mode:multiply">
<path d="M108.078 104.306C111.249 104.306 113.82 101.864 113.82 98.8503C113.82 95.8372 111.249 93.3945 108.078 93.3945C104.907 93.3945 102.336 95.8372 102.336 98.8503C102.336 101.864 104.907 104.306 108.078 104.306Z" fill="#00CED1"/>
</g>
</g>
<g style="mix-blend-mode:multiply">
<g style="mix-blend-mode:multiply">
<path d="M128.496 104.306C131.668 104.306 134.238 101.864 134.238 98.8503C134.238 95.8372 131.668 93.3945 128.496 93.3945C125.325 93.3945 122.754 95.8372 122.754 98.8503C122.754 101.864 125.325 104.306 128.496 104.306Z" fill="#00CED1"/>
</g>
</g>
<g style="mix-blend-mode:multiply">
<g style="mix-blend-mode:multiply">
<path d="M154.631 98.8376C154.633 99.9177 154.298 100.974 153.668 101.873C153.039 102.773 152.142 103.474 151.092 103.888C150.042 104.303 148.887 104.412 147.772 104.202C146.657 103.992 145.632 103.472 144.828 102.708C144.025 101.944 143.477 100.971 143.256 99.9116C143.035 98.8521 143.15 97.754 143.586 96.7566C144.022 95.7592 144.76 94.9072 145.707 94.3087C146.653 93.7102 147.765 93.392 148.902 93.3945C150.421 93.3945 151.878 93.968 152.953 94.9888C154.027 96.0095 154.631 97.394 154.631 98.8376Z" fill="#00CED1"/>
</g>
</g>
<g style="mix-blend-mode:multiply">
<g style="mix-blend-mode:multiply">
<path d="M174.996 98.8376C174.998 99.9172 174.664 100.973 174.035 101.872C173.405 102.771 172.509 103.472 171.46 103.887C170.411 104.302 169.256 104.412 168.142 104.203C167.027 103.994 166.003 103.475 165.198 102.713C164.394 101.95 163.846 100.978 163.623 99.9194C163.4 98.8607 163.513 97.7631 163.947 96.7655C164.382 95.7678 165.118 94.915 166.062 94.3149C167.007 93.7148 168.117 93.3945 169.254 93.3945C170.774 93.3945 172.233 93.9676 173.309 94.988C174.386 96.0084 174.992 97.3928 174.996 98.8376Z" fill="#00CED1"/>
</g>
</g>
<g style="mix-blend-mode:multiply">
<g style="mix-blend-mode:multiply">
<path d="M195.455 98.8377C195.458 99.9189 195.122 100.977 194.491 101.876C193.86 102.776 192.962 103.477 191.911 103.891C190.859 104.305 189.702 104.412 188.586 104.2C187.471 103.988 186.446 103.465 185.644 102.699C184.841 101.933 184.296 100.957 184.078 99.8959C183.86 98.8347 183.978 97.7359 184.419 96.7389C184.859 95.742 185.601 94.8918 186.551 94.2964C187.501 93.7009 188.616 93.3871 189.753 93.3947C191.267 93.4047 192.715 93.9822 193.783 95.0016C194.851 96.0209 195.452 97.3996 195.455 98.8377Z" fill="#00CED1"/>
</g>
</g>
<g style="mix-blend-mode:multiply">
<g style="mix-blend-mode:multiply">
<path d="M6.03601 127.535C9.20726 127.535 11.7781 125.092 11.7781 122.079C11.7781 119.066 9.20726 116.623 6.03601 116.623C2.86475 116.623 0.293945 119.066 0.293945 122.079C0.293945 125.092 2.86475 127.535 6.03601 127.535Z" fill="#00CED1"/>
</g>
</g>
<g style="mix-blend-mode:multiply">
<g style="mix-blend-mode:multiply">
<path d="M32.1836 122.079C32.1836 123.158 31.8468 124.213 31.2159 125.11C30.585 126.007 29.6882 126.706 28.639 127.119C27.5898 127.532 26.4353 127.64 25.3214 127.43C24.2076 127.219 23.1845 126.7 22.3815 125.937C21.5784 125.174 21.0316 124.202 20.81 123.143C20.5885 122.085 20.7022 120.988 21.1368 119.991C21.5714 118.994 22.3073 118.142 23.2516 117.543C24.1958 116.943 25.306 116.623 26.4417 116.623C27.9645 116.623 29.425 117.198 30.5018 118.221C31.5786 119.244 32.1836 120.632 32.1836 122.079Z" fill="#00CED1"/>
</g>
</g>
<g style="mix-blend-mode:multiply">
<g style="mix-blend-mode:multiply">
<path d="M52.5891 122.079C52.5891 123.158 52.2523 124.213 51.6214 125.11C50.9905 126.007 50.0936 126.706 49.0444 127.119C47.9952 127.532 46.8407 127.64 45.7268 127.43C44.613 127.219 43.5899 126.7 42.7868 125.937C41.9838 125.174 41.4369 124.202 41.2153 123.143C40.9937 122.085 41.1075 120.988 41.5421 119.991C41.9767 118.994 42.7127 118.142 43.6569 117.543C44.6012 116.943 45.7113 116.623 46.847 116.623C48.3699 116.623 49.8304 117.198 50.9073 118.221C51.9841 119.244 52.5891 120.632 52.5891 122.079Z" fill="#00CED1"/>
</g>
</g>
<g style="mix-blend-mode:multiply">
<g style="mix-blend-mode:multiply">
<path d="M73.0349 122.079C73.0349 123.158 72.6981 124.213 72.0672 125.11C71.4362 126.007 70.5395 126.706 69.4903 127.119C68.441 127.532 67.2865 127.64 66.1726 127.43C65.0588 127.219 64.0357 126.7 63.2326 125.937C62.4296 125.174 61.8827 124.202 61.6611 123.143C61.4395 122.085 61.5533 120.988 61.9879 119.991C62.4225 118.994 63.1585 118.142 64.1027 117.543C65.047 116.943 66.1571 116.623 67.2928 116.623C68.0474 116.621 68.7949 116.761 69.4923 117.035C70.1898 117.308 70.8234 117.71 71.357 118.217C71.8905 118.724 72.3135 119.326 72.6014 119.989C72.8893 120.652 73.0367 121.362 73.0349 122.079Z" fill="#00CED1"/>
</g>
</g>
<g style="mix-blend-mode:multiply">
<g style="mix-blend-mode:multiply">
<path d="M93.4142 122.079C93.4142 123.158 93.0774 124.213 92.4465 125.11C91.8155 126.007 90.9188 126.706 89.8696 127.119C88.8204 127.532 87.6658 127.64 86.552 127.43C85.4381 127.219 84.415 126.7 83.612 125.937C82.809 125.174 82.2621 124.202 82.0405 123.143C81.8189 122.085 81.9327 120.988 82.3673 119.991C82.8019 118.994 83.5378 118.142 84.4821 117.543C85.4264 116.943 86.5365 116.623 87.6722 116.623C89.195 116.623 90.6555 117.198 91.7324 118.221C92.8092 119.244 93.4142 120.632 93.4142 122.079Z" fill="#00CED1"/>
</g>
</g>
<g style="mix-blend-mode:multiply">
<g style="mix-blend-mode:multiply">
<path d="M108.078 127.535C111.249 127.535 113.82 125.092 113.82 122.079C113.82 119.066 111.249 116.623 108.078 116.623C104.907 116.623 102.336 119.066 102.336 122.079C102.336 125.092 104.907 127.535 108.078 127.535Z" fill="#00CED1"/>
</g>
</g>
<g style="mix-blend-mode:multiply">
<g style="mix-blend-mode:multiply">
<path d="M128.496 127.535C131.668 127.535 134.238 125.092 134.238 122.079C134.238 119.066 131.668 116.623 128.496 116.623C125.325 116.623 122.754 119.066 122.754 122.079C122.754 125.092 125.325 127.535 128.496 127.535Z" fill="#00CED1"/>
</g>
</g>
<g style="mix-blend-mode:multiply">
<g style="mix-blend-mode:multiply">
<path d="M154.631 122.079C154.631 123.158 154.293 124.214 153.662 125.111C153.03 126.009 152.133 126.708 151.083 127.121C150.033 127.533 148.878 127.64 147.763 127.429C146.649 127.217 145.626 126.696 144.824 125.932C144.021 125.168 143.475 124.195 143.255 123.135C143.035 122.076 143.151 120.979 143.587 119.982C144.024 118.985 144.762 118.134 145.708 117.536C146.654 116.938 147.766 116.621 148.902 116.623C149.655 116.623 150.401 116.764 151.097 117.039C151.793 117.313 152.425 117.715 152.957 118.222C153.49 118.729 153.911 119.33 154.198 119.992C154.486 120.654 154.632 121.363 154.631 122.079Z" fill="#00CED1"/>
</g>
</g>
<g style="mix-blend-mode:multiply">
<g style="mix-blend-mode:multiply">
<path d="M174.996 122.079C174.996 123.158 174.659 124.213 174.028 125.11C173.397 126.007 172.5 126.706 171.451 127.119C170.402 127.532 169.247 127.64 168.134 127.43C167.02 127.219 165.997 126.7 165.194 125.937C164.391 125.174 163.844 124.202 163.622 123.143C163.4 122.085 163.514 120.988 163.949 119.991C164.383 118.994 165.119 118.142 166.064 117.543C167.008 116.943 168.118 116.623 169.254 116.623C170.777 116.623 172.237 117.198 173.314 118.221C174.391 119.244 174.996 120.632 174.996 122.079Z" fill="#00CED1"/>
</g>
</g>
<g style="mix-blend-mode:multiply">
<g style="mix-blend-mode:multiply">
<path d="M195.455 122.079C195.455 123.158 195.118 124.213 194.487 125.11C193.857 126.007 192.96 126.706 191.911 127.119C190.861 127.532 189.707 127.64 188.593 127.43C187.479 127.219 186.456 126.7 185.653 125.937C184.85 125.174 184.303 124.202 184.082 123.143C183.86 122.085 183.974 120.988 184.408 119.991C184.843 118.994 185.579 118.142 186.523 117.543C187.467 116.943 188.578 116.623 189.713 116.623C191.236 116.623 192.697 117.198 193.773 118.221C194.85 119.244 195.455 120.632 195.455 122.079Z" fill="#00CED1"/>
</g>
</g>
<g style="mix-blend-mode:multiply">
<g style="mix-blend-mode:multiply">
<path d="M6.03601 150.76C9.20726 150.76 11.7781 148.317 11.7781 145.304C11.7781 142.29 9.20726 139.848 6.03601 139.848C2.86475 139.848 0.293945 142.29 0.293945 145.304C0.293945 148.317 2.86475 150.76 6.03601 150.76Z" fill="#00CED1"/>
</g>
</g>
<g style="mix-blend-mode:multiply">
<g style="mix-blend-mode:multiply">
<path d="M32.1836 145.304C32.1836 146.383 31.8468 147.438 31.2159 148.335C30.585 149.232 29.6882 149.931 28.639 150.344C27.5898 150.757 26.4353 150.865 25.3214 150.655C24.2076 150.444 23.1845 149.925 22.3815 149.161C21.5784 148.398 21.0316 147.426 20.81 146.368C20.5885 145.31 20.7022 144.213 21.1368 143.216C21.5714 142.219 22.3073 141.367 23.2516 140.767C24.1958 140.168 25.306 139.848 26.4417 139.848C27.9645 139.848 29.425 140.422 30.5018 141.446C31.5786 142.469 32.1836 143.857 32.1836 145.304Z" fill="#00CED1"/>
</g>
</g>
<g style="mix-blend-mode:multiply">
<g style="mix-blend-mode:multiply">
<path d="M52.5891 145.304C52.5891 146.383 52.2523 147.438 51.6214 148.335C50.9905 149.232 50.0936 149.931 49.0444 150.344C47.9952 150.757 46.8407 150.865 45.7268 150.655C44.613 150.444 43.5899 149.925 42.7868 149.161C41.9838 148.398 41.4369 147.426 41.2153 146.368C40.9937 145.31 41.1075 144.213 41.5421 143.216C41.9767 142.219 42.7127 141.367 43.6569 140.767C44.6012 140.168 45.7113 139.848 46.847 139.848C48.3699 139.848 49.8304 140.422 50.9073 141.446C51.9841 142.469 52.5891 143.857 52.5891 145.304Z" fill="#00CED1"/>
</g>
</g>
<g style="mix-blend-mode:multiply">
<g style="mix-blend-mode:multiply">
<path d="M73.0348 145.304C73.0348 146.383 72.698 147.438 72.0671 148.335C71.4361 149.232 70.5394 149.931 69.4902 150.344C68.441 150.757 67.2864 150.865 66.1726 150.655C65.0587 150.444 64.0357 149.925 63.2326 149.161C62.4296 148.398 61.8827 147.426 61.6611 146.368C61.4395 145.31 61.5533 144.213 61.9879 143.216C62.4225 142.219 63.1585 141.367 64.1027 140.767C65.047 140.168 66.1571 139.848 67.2928 139.848C68.8156 139.848 70.2761 140.422 71.353 141.446C72.4298 142.469 73.0348 143.857 73.0348 145.304Z" fill="#00CED1"/>
</g>
</g>
<g style="mix-blend-mode:multiply">
<g style="mix-blend-mode:multiply">
<path d="M93.4142 145.304C93.4142 146.383 93.0774 147.438 92.4465 148.335C91.8155 149.232 90.9188 149.931 89.8696 150.344C88.8204 150.757 87.6658 150.865 86.552 150.655C85.4381 150.444 84.415 149.925 83.612 149.161C82.809 148.398 82.2621 147.426 82.0405 146.368C81.8189 145.31 81.9327 144.213 82.3673 143.216C82.8019 142.219 83.5378 141.367 84.4821 140.767C85.4264 140.168 86.5365 139.848 87.6722 139.848C89.195 139.848 90.6555 140.422 91.7324 141.446C92.8092 142.469 93.4142 143.857 93.4142 145.304Z" fill="#00CED1"/>
</g>
</g>
<g style="mix-blend-mode:multiply">
<g style="mix-blend-mode:multiply">
<path d="M108.078 150.76C111.249 150.76 113.82 148.317 113.82 145.304C113.82 142.29 111.249 139.848 108.078 139.848C104.907 139.848 102.336 142.29 102.336 145.304C102.336 148.317 104.907 150.76 108.078 150.76Z" fill="#00CED1"/>
</g>
</g>
<g style="mix-blend-mode:multiply">
<g style="mix-blend-mode:multiply">
<path d="M128.496 150.76C131.668 150.76 134.238 148.317 134.238 145.304C134.238 142.29 131.668 139.848 128.496 139.848C125.325 139.848 122.754 142.29 122.754 145.304C122.754 148.317 125.325 150.76 128.496 150.76Z" fill="#00CED1"/>
</g>
</g>
<g style="mix-blend-mode:multiply">
<g style="mix-blend-mode:multiply">
<path d="M154.631 145.304C154.631 146.383 154.293 147.439 153.662 148.336C153.03 149.234 152.133 149.933 151.083 150.345C150.033 150.758 148.878 150.865 147.763 150.654C146.649 150.442 145.626 149.921 144.824 149.157C144.021 148.393 143.475 147.419 143.255 146.36C143.035 145.301 143.151 144.204 143.587 143.207C144.024 142.21 144.762 141.359 145.708 140.761C146.654 140.163 147.766 139.845 148.902 139.848C150.423 139.851 151.88 140.427 152.954 141.45C154.027 142.473 154.631 143.859 154.631 145.304Z" fill="#00CED1"/>
</g>
</g>
<g style="mix-blend-mode:multiply">
<g style="mix-blend-mode:multiply">
<path d="M174.996 145.304C174.996 146.383 174.659 147.438 174.028 148.335C173.397 149.232 172.5 149.931 171.451 150.344C170.402 150.757 169.247 150.865 168.134 150.655C167.02 150.444 165.997 149.925 165.194 149.161C164.391 148.398 163.844 147.426 163.622 146.368C163.4 145.31 163.514 144.213 163.949 143.216C164.383 142.219 165.119 141.367 166.064 140.767C167.008 140.168 168.118 139.848 169.254 139.848C170.777 139.848 172.237 140.422 173.314 141.446C174.391 142.469 174.996 143.857 174.996 145.304Z" fill="#00CED1"/>
</g>
</g>
<g style="mix-blend-mode:multiply">
<g style="mix-blend-mode:multiply">
<path d="M195.455 145.304C195.444 146.382 195.097 147.434 194.458 148.325C193.819 149.216 192.916 149.907 191.864 150.311C190.812 150.715 189.657 150.814 188.545 150.594C187.434 150.375 186.416 149.848 185.62 149.079C184.824 148.31 184.286 147.334 184.073 146.275C183.86 145.216 183.983 144.12 184.425 143.127C184.867 142.134 185.61 141.287 186.558 140.694C187.506 140.102 188.618 139.789 189.753 139.797C190.508 139.802 191.255 139.949 191.951 140.228C192.646 140.508 193.277 140.915 193.806 141.426C194.336 141.938 194.754 142.544 195.037 143.209C195.32 143.874 195.462 144.586 195.455 145.304Z" fill="#00CED1"/>
</g>
</g>
<g style="mix-blend-mode:multiply">
<g style="mix-blend-mode:multiply">
<path d="M11.7781 168.53C11.7781 169.609 11.4413 170.664 10.8104 171.561C10.1794 172.458 9.28259 173.158 8.23337 173.571C7.18415 173.984 6.02966 174.092 4.91581 173.881C3.80196 173.671 2.77878 173.151 1.97574 172.388C1.1727 171.625 0.625847 170.653 0.404289 169.595C0.182731 168.536 0.296407 167.439 0.731009 166.442C1.16561 165.445 1.90157 164.593 2.84585 163.994C3.79012 163.394 4.90032 163.074 6.03599 163.074C7.55888 163.074 9.0194 163.649 10.0962 164.672C11.1731 165.695 11.7781 167.083 11.7781 168.53Z" fill="#00CED1"/>
</g>
</g>
<g style="mix-blend-mode:multiply">
<g style="mix-blend-mode:multiply">
<path d="M32.1836 168.53C32.1836 169.609 31.8468 170.664 31.2159 171.561C30.585 172.458 29.6882 173.158 28.639 173.571C27.5898 173.984 26.4353 174.092 25.3214 173.881C24.2076 173.671 23.1845 173.151 22.3815 172.388C21.5784 171.625 21.0316 170.653 20.81 169.595C20.5885 168.536 20.7022 167.439 21.1368 166.442C21.5714 165.445 22.3073 164.593 23.2516 163.994C24.1958 163.394 25.306 163.074 26.4417 163.074C27.9645 163.074 29.425 163.649 30.5018 164.672C31.5786 165.695 32.1836 167.083 32.1836 168.53Z" fill="#00CED1"/>
</g>
</g>
<g style="mix-blend-mode:multiply">
<g style="mix-blend-mode:multiply">
<path d="M52.5891 168.53C52.5891 169.609 52.2523 170.664 51.6214 171.561C50.9905 172.458 50.0936 173.158 49.0444 173.571C47.9952 173.984 46.8407 174.092 45.7268 173.881C44.613 173.671 43.5899 173.151 42.7868 172.388C41.9838 171.625 41.4369 170.653 41.2153 169.595C40.9937 168.536 41.1075 167.439 41.5421 166.442C41.9767 165.445 42.7127 164.593 43.6569 163.994C44.6012 163.394 45.7113 163.074 46.847 163.074C48.3699 163.074 49.8304 163.649 50.9073 164.672C51.9841 165.695 52.5891 167.083 52.5891 168.53Z" fill="#00CED1"/>
</g>
</g>
<g style="mix-blend-mode:multiply">
<g style="mix-blend-mode:multiply">
<path d="M73.0348 168.53C73.0348 169.609 72.698 170.664 72.0671 171.561C71.4361 172.458 70.5394 173.158 69.4902 173.571C68.441 173.984 67.2864 174.092 66.1726 173.881C65.0587 173.671 64.0357 173.151 63.2326 172.388C62.4296 171.625 61.8827 170.653 61.6611 169.595C61.4395 168.536 61.5533 167.439 61.9879 166.442C62.4225 165.445 63.1585 164.593 64.1027 163.994C65.047 163.394 66.1571 163.074 67.2928 163.074C68.8156 163.074 70.2761 163.649 71.353 164.672C72.4298 165.695 73.0348 167.083 73.0348 168.53Z" fill="#00CED1"/>
</g>
</g>
<g style="mix-blend-mode:multiply">
<g style="mix-blend-mode:multiply">
<path d="M93.4142 168.53C93.4142 169.609 93.0774 170.664 92.4465 171.561C91.8155 172.458 90.9188 173.158 89.8696 173.571C88.8204 173.984 87.6658 174.092 86.552 173.881C85.4381 173.671 84.415 173.151 83.612 172.388C82.809 171.625 82.2621 170.653 82.0405 169.595C81.8189 168.536 81.9327 167.439 82.3673 166.442C82.8019 165.445 83.5378 164.593 84.4821 163.994C85.4264 163.394 86.5365 163.074 87.6722 163.074C89.195 163.074 90.6555 163.649 91.7324 164.672C92.8092 165.695 93.4142 167.083 93.4142 168.53Z" fill="#00CED1"/>
</g>
</g>
<g style="mix-blend-mode:multiply">
<g style="mix-blend-mode:multiply">
<path d="M113.82 168.53C113.82 169.609 113.483 170.664 112.852 171.561C112.221 172.458 111.324 173.158 110.275 173.571C109.226 173.984 108.072 174.092 106.958 173.881C105.844 173.671 104.821 173.151 104.018 172.388C103.215 171.625 102.668 170.653 102.446 169.595C102.225 168.536 102.338 167.439 102.773 166.442C103.208 165.445 103.944 164.593 104.888 163.994C105.832 163.394 106.942 163.074 108.078 163.074C109.601 163.074 111.061 163.649 112.138 164.672C113.215 165.695 113.82 167.083 113.82 168.53Z" fill="#00CED1"/>
</g>
</g>
<g style="mix-blend-mode:multiply">
<g style="mix-blend-mode:multiply">
<path d="M134.225 168.53C134.225 169.609 133.888 170.664 133.258 171.561C132.627 172.458 131.73 173.158 130.681 173.571C129.631 173.984 128.477 174.092 127.363 173.881C126.249 173.671 125.226 173.151 124.423 172.388C123.62 171.625 123.073 170.653 122.852 169.595C122.63 168.536 122.744 167.439 123.178 166.442C123.613 165.445 124.349 164.593 125.293 163.994C126.237 163.394 127.348 163.074 128.483 163.074C130.006 163.074 131.467 163.649 132.543 164.672C133.62 165.695 134.225 167.083 134.225 168.53Z" fill="#00CED1"/>
</g>
</g>
<g style="mix-blend-mode:multiply">
<g style="mix-blend-mode:multiply">
<path d="M154.631 168.53C154.631 169.61 154.293 170.665 153.662 171.563C153.03 172.46 152.133 173.159 151.083 173.572C150.033 173.984 148.878 174.092 147.763 173.88C146.649 173.669 145.626 173.148 144.824 172.383C144.021 171.619 143.475 170.646 143.255 169.587C143.035 168.527 143.151 167.43 143.587 166.433C144.024 165.437 144.762 164.585 145.708 163.987C146.654 163.39 147.766 163.072 148.902 163.074C150.423 163.078 151.88 163.654 152.954 164.677C154.027 165.699 154.631 167.085 154.631 168.53Z" fill="#00CED1"/>
</g>
</g>
<g style="mix-blend-mode:multiply">
<g style="mix-blend-mode:multiply">
<path d="M174.996 168.53C174.996 169.609 174.659 170.664 174.028 171.561C173.397 172.458 172.5 173.158 171.451 173.571C170.402 173.984 169.247 174.092 168.134 173.881C167.02 173.671 165.997 173.151 165.194 172.388C164.391 171.625 163.844 170.653 163.622 169.595C163.4 168.536 163.514 167.439 163.949 166.442C164.383 165.445 165.119 164.593 166.064 163.994C167.008 163.394 168.118 163.074 169.254 163.074C170.777 163.074 172.237 163.649 173.314 164.672C174.391 165.695 174.996 167.083 174.996 168.53Z" fill="#00CED1"/>
</g>
</g>
<g style="mix-blend-mode:multiply">
<g style="mix-blend-mode:multiply">
<path d="M195.455 168.53C195.455 169.609 195.118 170.664 194.487 171.561C193.857 172.458 192.96 173.158 191.911 173.571C190.861 173.984 189.707 174.092 188.593 173.881C187.479 173.671 186.456 173.151 185.653 172.388C184.85 171.625 184.303 170.653 184.082 169.595C183.86 168.536 183.974 167.439 184.408 166.442C184.843 165.445 185.579 164.593 186.523 163.994C187.467 163.394 188.578 163.074 189.713 163.074C191.236 163.074 192.697 163.649 193.773 164.672C194.85 165.695 195.455 167.083 195.455 168.53Z" fill="#00CED1"/>
</g>
</g>
</g>
</g>
</g>
</svg>
