<svg width="160" height="157" viewBox="0 0 160 157" fill="none" xmlns="http://www.w3.org/2000/svg">
<mask id="mask0" mask-type="alpha" maskUnits="userSpaceOnUse" x="0" y="0" width="160" height="157">
<ellipse cx="80" cy="78.5" rx="80" ry="78.5" fill="#C4C4C4"/>
</mask>
<g mask="url(#mask0)">
<g style="mix-blend-mode:multiply">
<g style="mix-blend-mode:multiply">
<g style="mix-blend-mode:multiply">
<g style="mix-blend-mode:multiply">
<path d="M9.82288 4.95188C9.82288 5.88125 9.54201 6.78974 9.0158 7.56248C8.4896 8.33522 7.74164 8.93749 6.86659 9.29314C5.99154 9.64879 5.0287 9.74185 4.09975 9.56054C3.1708 9.37923 2.31747 8.93172 1.64773 8.27456C0.977997 7.6174 0.521923 6.78012 0.337144 5.86861C0.152364 4.9571 0.24717 4.0123 0.609628 3.15368C0.972086 2.29506 1.58588 1.56118 2.3734 1.04485C3.16092 0.528522 4.08683 0.25293 5.03398 0.25293C6.30407 0.25293 7.52214 0.747983 8.42023 1.62921C9.31832 2.51043 9.82288 3.70564 9.82288 4.95188Z" fill="#008000"/>
</g>
</g>
<g style="mix-blend-mode:multiply">
<g style="mix-blend-mode:multiply">
<path d="M26.8413 4.95188C26.8413 5.88125 26.5604 6.78974 26.0342 7.56248C25.508 8.33522 24.7602 8.93749 23.8851 9.29314C23.0101 9.64879 22.0472 9.74185 21.1182 9.56054C20.1893 9.37923 19.336 8.93172 18.6663 8.27456C17.9965 7.6174 17.5405 6.78012 17.3557 5.86861C17.1709 4.9571 17.2657 4.0123 17.6282 3.15368C17.9906 2.29506 18.6044 1.56118 19.3919 1.04485C20.1795 0.528522 21.1054 0.25293 22.0525 0.25293C23.3226 0.25293 24.5406 0.747983 25.4387 1.62921C26.3368 2.51043 26.8413 3.70564 26.8413 4.95188Z" fill="#008000"/>
</g>
</g>
<g style="mix-blend-mode:multiply">
<g style="mix-blend-mode:multiply">
<path d="M43.8594 4.95188C43.8594 5.88125 43.5785 6.78974 43.0523 7.56248C42.5261 8.33522 41.7782 8.93749 40.9031 9.29314C40.0281 9.64879 39.0652 9.74185 38.1363 9.56054C37.2074 9.37923 36.3541 8.93172 35.6844 8.27456C35.0147 7.6174 34.5585 6.78012 34.3737 5.86861C34.189 4.9571 34.2838 4.0123 34.6463 3.15368C35.0087 2.29506 35.6225 1.56118 36.41 1.04485C37.1976 0.528522 38.1234 0.25293 39.0705 0.25293C40.3406 0.25293 41.5587 0.747983 42.4567 1.62921C43.3548 2.51043 43.8594 3.70564 43.8594 4.95188Z" fill="#008000"/>
</g>
</g>
<g style="mix-blend-mode:multiply">
<g style="mix-blend-mode:multiply">
<path d="M60.9114 4.95189C60.9114 5.88125 60.6305 6.78975 60.1043 7.56248C59.5781 8.33522 58.8302 8.93749 57.9552 9.29314C57.0801 9.64879 56.1172 9.74185 55.1883 9.56054C54.2594 9.37923 53.4061 8.93172 52.7364 8.27456C52.0667 7.6174 51.6105 6.78012 51.4257 5.86862C51.241 4.95711 51.3358 4.01231 51.6983 3.15369C52.0608 2.29507 52.6745 1.56119 53.462 1.04486C54.2496 0.528535 55.1754 0.252943 56.1225 0.252943C56.7518 0.251495 57.3752 0.37206 57.9569 0.607691C58.5386 0.843323 59.067 1.18938 59.512 1.626C59.957 2.06263 60.3097 2.58122 60.5498 3.15198C60.79 3.72274 60.9128 4.33441 60.9114 4.95189Z" fill="#008000"/>
</g>
</g>
<g style="mix-blend-mode:multiply">
<g style="mix-blend-mode:multiply">
<path d="M77.9077 4.95188C77.9077 5.88125 77.6269 6.78974 77.1007 7.56248C76.5745 8.33522 75.8266 8.93749 74.9515 9.29314C74.0765 9.64879 73.1136 9.74185 72.1847 9.56054C71.2557 9.37923 70.4025 8.93172 69.7327 8.27456C69.063 7.6174 68.6069 6.78012 68.4221 5.86861C68.2373 4.9571 68.3322 4.0123 68.6946 3.15368C69.0571 2.29506 69.6709 1.56118 70.4584 1.04485C71.2459 0.528522 72.1717 0.25293 73.1189 0.25293C74.3889 0.25293 75.607 0.747983 76.5051 1.62921C77.4032 2.51043 77.9077 3.70564 77.9077 4.95188Z" fill="#008000"/>
</g>
</g>
<g style="mix-blend-mode:multiply">
<g style="mix-blend-mode:multiply">
<path d="M94.9259 4.95188C94.9259 5.88125 94.645 6.78974 94.1188 7.56248C93.5926 8.33522 92.8447 8.93749 91.9696 9.29314C91.0946 9.64879 90.1317 9.74185 89.2028 9.56054C88.2738 9.37923 87.4205 8.93172 86.7508 8.27456C86.081 7.6174 85.625 6.78012 85.4402 5.86861C85.2554 4.9571 85.3502 4.0123 85.7127 3.15368C86.0751 2.29506 86.689 1.56118 87.4765 1.04485C88.264 0.528522 89.1899 0.25293 90.137 0.25293C91.4071 0.25293 92.6252 0.747983 93.5233 1.62921C94.4213 2.51043 94.9259 3.70564 94.9259 4.95188Z" fill="#008000"/>
</g>
</g>
<g style="mix-blend-mode:multiply">
<g style="mix-blend-mode:multiply">
<path d="M111.944 4.95189C111.944 5.88125 111.663 6.78975 111.137 7.56248C110.61 8.33522 109.863 8.93749 108.988 9.29314C108.113 9.64879 107.15 9.74185 106.221 9.56054C105.292 9.37923 104.439 8.93172 103.769 8.27456C103.099 7.6174 102.643 6.78012 102.458 5.86862C102.273 4.95711 102.368 4.01231 102.731 3.15369C103.093 2.29507 103.707 1.56119 104.494 1.04486C105.282 0.528535 106.208 0.252943 107.155 0.252943C107.784 0.251495 108.408 0.37206 108.989 0.607691C109.571 0.843323 110.099 1.18938 110.544 1.626C110.989 2.06263 111.342 2.58122 111.582 3.15198C111.822 3.72274 111.945 4.33441 111.944 4.95189Z" fill="#008000"/>
</g>
</g>
<g style="mix-blend-mode:multiply">
<g style="mix-blend-mode:multiply">
<path d="M128.962 4.95189C128.962 5.88172 128.681 6.79065 128.154 7.56362C127.627 8.3366 126.879 8.93885 126.003 9.29418C125.127 9.64951 124.164 9.74194 123.235 9.55974C122.306 9.37754 121.452 8.9289 120.783 8.27064C120.114 7.61238 119.658 6.77408 119.475 5.86185C119.291 4.94962 119.388 4.00448 119.752 3.14605C120.116 2.28762 120.732 1.55451 121.521 1.0395C122.31 0.524497 123.237 0.25077 124.184 0.252943C124.813 0.252941 125.435 0.374562 126.015 0.610841C126.596 0.84712 127.123 1.19341 127.567 1.62989C128.01 2.06637 128.362 2.58449 128.601 3.15453C128.841 3.72456 128.963 4.33534 128.962 4.95189Z" fill="#008000"/>
</g>
</g>
<g style="mix-blend-mode:multiply">
<g style="mix-blend-mode:multiply">
<path d="M145.946 4.95188C145.946 5.88125 145.665 6.78974 145.139 7.56248C144.613 8.33522 143.865 8.93749 142.99 9.29314C142.115 9.64879 141.152 9.74185 140.223 9.56054C139.294 9.37923 138.441 8.93172 137.771 8.27456C137.102 7.6174 136.645 6.78012 136.461 5.86861C136.276 4.9571 136.371 4.0123 136.733 3.15368C137.096 2.29506 137.709 1.56118 138.497 1.04485C139.284 0.528522 140.21 0.25293 141.157 0.25293C142.428 0.25293 143.646 0.747983 144.544 1.62921C145.442 2.51043 145.946 3.70564 145.946 4.95188Z" fill="#008000"/>
</g>
</g>
<g style="mix-blend-mode:multiply">
<g style="mix-blend-mode:multiply">
<path d="M163.009 4.95188C163.009 5.88125 162.728 6.78974 162.202 7.56248C161.676 8.33522 160.928 8.93749 160.053 9.29314C159.178 9.64879 158.215 9.74185 157.286 9.56054C156.357 9.37923 155.504 8.93172 154.834 8.27456C154.165 7.6174 153.708 6.78012 153.524 5.86861C153.339 4.9571 153.434 4.0123 153.796 3.15368C154.159 2.29506 154.772 1.56118 155.56 1.04485C156.347 0.528522 157.273 0.25293 158.22 0.25293C159.491 0.25293 160.709 0.747983 161.607 1.62921C162.505 2.51043 163.009 3.70564 163.009 4.95188Z" fill="#008000"/>
</g>
</g>
<g style="mix-blend-mode:multiply">
<g style="mix-blend-mode:multiply">
<path d="M9.82288 24.9451C9.82288 25.8745 9.54201 26.783 9.0158 27.5558C8.4896 28.3286 7.74164 28.9309 6.86659 29.2865C5.99154 29.6422 5.0287 29.7352 4.09975 29.5539C3.1708 29.3726 2.31747 28.9251 1.64773 28.2679C0.977997 27.6107 0.521923 26.7734 0.337144 25.8619C0.152364 24.9504 0.24717 24.0055 0.609628 23.1469C0.972086 22.2883 1.58588 21.5544 2.3734 21.038C3.16092 20.5217 4.08683 20.2461 5.03398 20.2461C6.30407 20.2461 7.52214 20.7412 8.42023 21.6224C9.31832 22.5037 9.82288 23.6989 9.82288 24.9451Z" fill="#008000"/>
</g>
</g>
<g style="mix-blend-mode:multiply">
<g style="mix-blend-mode:multiply">
<path d="M26.8413 24.9451C26.8413 25.8745 26.5604 26.783 26.0342 27.5558C25.508 28.3286 24.7602 28.9309 23.8851 29.2865C23.0101 29.6422 22.0472 29.7352 21.1182 29.5539C20.1893 29.3726 19.336 28.9251 18.6663 28.2679C17.9965 27.6107 17.5405 26.7734 17.3557 25.8619C17.1709 24.9504 17.2657 24.0055 17.6282 23.1469C17.9906 22.2883 18.6044 21.5544 19.3919 21.038C20.1795 20.5217 21.1054 20.2461 22.0525 20.2461C23.3226 20.2461 24.5406 20.7412 25.4387 21.6224C26.3368 22.5037 26.8413 23.6989 26.8413 24.9451Z" fill="#008000"/>
</g>
</g>
<g style="mix-blend-mode:multiply">
<g style="mix-blend-mode:multiply">
<path d="M43.8594 24.9451C43.8594 25.8745 43.5785 26.783 43.0523 27.5558C42.5261 28.3286 41.7782 28.9309 40.9031 29.2865C40.0281 29.6422 39.0652 29.7352 38.1363 29.5539C37.2074 29.3726 36.3541 28.9251 35.6844 28.2679C35.0147 27.6107 34.5585 26.7734 34.3737 25.8619C34.189 24.9504 34.2838 24.0055 34.6463 23.1469C35.0087 22.2883 35.6225 21.5544 36.41 21.038C37.1976 20.5217 38.1234 20.2461 39.0705 20.2461C40.3406 20.2461 41.5587 20.7412 42.4567 21.6224C43.3548 22.5037 43.8594 23.6989 43.8594 24.9451Z" fill="#008000"/>
</g>
</g>
<g style="mix-blend-mode:multiply">
<g style="mix-blend-mode:multiply">
<path d="M60.9114 24.9451C60.9114 25.8745 60.6305 26.783 60.1043 27.5558C59.5781 28.3286 58.8302 28.9309 57.9552 29.2865C57.0802 29.6422 56.1173 29.7352 55.1883 29.5539C54.2594 29.3726 53.4061 28.9251 52.7364 28.2679C52.0667 27.6107 51.6105 26.7734 51.4257 25.8619C51.241 24.9504 51.3358 24.0055 51.6983 23.1469C52.0608 22.2883 52.6745 21.5544 53.4621 21.038C54.2496 20.5217 55.1754 20.2461 56.1225 20.2461C57.3926 20.2461 58.6107 20.7412 59.5087 21.6224C60.4068 22.5037 60.9114 23.6989 60.9114 24.9451Z" fill="#008000"/>
</g>
</g>
<g style="mix-blend-mode:multiply">
<g style="mix-blend-mode:multiply">
<path d="M77.9077 24.9451C77.9077 25.8745 77.6269 26.783 77.1007 27.5558C76.5745 28.3286 75.8266 28.9309 74.9515 29.2865C74.0765 29.6422 73.1136 29.7352 72.1847 29.5539C71.2557 29.3726 70.4025 28.9251 69.7327 28.2679C69.063 27.6107 68.6069 26.7734 68.4221 25.8619C68.2373 24.9504 68.3322 24.0055 68.6946 23.1469C69.0571 22.2883 69.6709 21.5544 70.4584 21.038C71.2459 20.5217 72.1717 20.2461 73.1189 20.2461C74.3889 20.2461 75.607 20.7412 76.5051 21.6224C77.4032 22.5037 77.9077 23.6989 77.9077 24.9451Z" fill="#008000"/>
</g>
</g>
<g style="mix-blend-mode:multiply">
<g style="mix-blend-mode:multiply">
<path d="M94.9259 24.9451C94.9259 25.8745 94.645 26.783 94.1188 27.5558C93.5926 28.3286 92.8447 28.9309 91.9696 29.2865C91.0946 29.6422 90.1317 29.7352 89.2028 29.5539C88.2738 29.3726 87.4205 28.9251 86.7508 28.2679C86.081 27.6107 85.625 26.7734 85.4402 25.8619C85.2554 24.9504 85.3502 24.0055 85.7127 23.1469C86.0751 22.2883 86.689 21.5544 87.4765 21.038C88.264 20.5217 89.1899 20.2461 90.137 20.2461C91.4071 20.2461 92.6252 20.7412 93.5233 21.6224C94.4213 22.5037 94.9259 23.6989 94.9259 24.9451Z" fill="#008000"/>
</g>
</g>
<g style="mix-blend-mode:multiply">
<g style="mix-blend-mode:multiply">
<path d="M111.944 24.9451C111.944 25.8745 111.663 26.783 111.137 27.5558C110.61 28.3286 109.863 28.9309 108.988 29.2865C108.113 29.6422 107.15 29.7352 106.221 29.5539C105.292 29.3726 104.439 28.9251 103.769 28.2679C103.099 27.6107 102.643 26.7734 102.458 25.8619C102.273 24.9504 102.368 24.0055 102.731 23.1469C103.093 22.2883 103.707 21.5544 104.494 21.038C105.282 20.5217 106.208 20.2461 107.155 20.2461C108.425 20.2461 109.643 20.7412 110.541 21.6224C111.439 22.5037 111.944 23.6989 111.944 24.9451Z" fill="#008000"/>
</g>
</g>
<g style="mix-blend-mode:multiply">
<g style="mix-blend-mode:multiply">
<path d="M128.962 24.9452C128.962 25.875 128.681 26.784 128.154 27.557C127.627 28.33 126.879 28.9323 126.003 29.2876C125.127 29.6429 124.164 29.7353 123.235 29.5531C122.306 29.3709 121.452 28.9223 120.783 28.264C120.114 27.6057 119.658 26.7674 119.475 25.8552C119.291 24.9429 119.388 23.9978 119.752 23.1393C120.116 22.2809 120.732 21.5477 121.521 21.0327C122.31 20.5177 123.237 20.2439 124.184 20.2461C125.452 20.249 126.668 20.7454 127.563 21.6263C128.459 22.5072 128.962 23.7008 128.962 24.9452Z" fill="#008000"/>
</g>
</g>
<g style="mix-blend-mode:multiply">
<g style="mix-blend-mode:multiply">
<path d="M145.946 24.9451C145.946 25.8745 145.665 26.783 145.139 27.5558C144.613 28.3286 143.865 28.9309 142.99 29.2865C142.115 29.6422 141.152 29.7352 140.223 29.5539C139.294 29.3726 138.441 28.9251 137.771 28.2679C137.102 27.6107 136.645 26.7734 136.461 25.8619C136.276 24.9504 136.371 24.0055 136.733 23.1469C137.096 22.2883 137.709 21.5544 138.497 21.038C139.284 20.5217 140.21 20.2461 141.157 20.2461C142.428 20.2461 143.646 20.7412 144.544 21.6224C145.442 22.5037 145.946 23.6989 145.946 24.9451Z" fill="#008000"/>
</g>
</g>
<g style="mix-blend-mode:multiply">
<g style="mix-blend-mode:multiply">
<path d="M163.009 24.9451C163.009 25.8745 162.728 26.783 162.202 27.5558C161.676 28.3286 160.928 28.9309 160.053 29.2865C159.178 29.6422 158.215 29.7352 157.286 29.5539C156.357 29.3726 155.504 28.9251 154.834 28.2679C154.165 27.6107 153.708 26.7734 153.524 25.8619C153.339 24.9504 153.434 24.0055 153.796 23.1469C154.159 22.2883 154.772 21.5544 155.56 21.038C156.347 20.5217 157.273 20.2461 158.22 20.2461C159.491 20.2461 160.709 20.7412 161.607 21.6224C162.505 22.5037 163.009 23.6989 163.009 24.9451Z" fill="#008000"/>
</g>
</g>
<g style="mix-blend-mode:multiply">
<g style="mix-blend-mode:multiply">
<path d="M9.82288 44.9481C9.82288 45.8775 9.54201 46.786 9.0158 47.5587C8.4896 48.3315 7.74164 48.9338 6.86659 49.2895C5.99154 49.6451 5.0287 49.7382 4.09975 49.5569C3.1708 49.3755 2.31747 48.928 1.64773 48.2708C0.977997 47.6137 0.521923 46.7764 0.337144 45.8648C0.152364 44.9533 0.24717 44.0085 0.609628 43.1498C0.972086 42.2912 1.58588 41.5573 2.3734 41.041C3.16092 40.5246 4.08683 40.249 5.03398 40.249C6.30407 40.249 7.52214 40.7441 8.42023 41.6254C9.31832 42.5066 9.82288 43.7018 9.82288 44.9481Z" fill="#008000"/>
</g>
</g>
<g style="mix-blend-mode:multiply">
<g style="mix-blend-mode:multiply">
<path d="M26.8413 44.9481C26.8413 45.8775 26.5604 46.786 26.0342 47.5587C25.508 48.3315 24.7602 48.9338 23.8851 49.2895C23.0101 49.6451 22.0472 49.7382 21.1182 49.5569C20.1893 49.3755 19.336 48.928 18.6663 48.2708C17.9965 47.6137 17.5405 46.7764 17.3557 45.8648C17.1709 44.9533 17.2657 44.0085 17.6282 43.1498C17.9906 42.2912 18.6044 41.5573 19.3919 41.041C20.1795 40.5246 21.1054 40.249 22.0525 40.249C23.3226 40.249 24.5406 40.7441 25.4387 41.6254C26.3368 42.5066 26.8413 43.7018 26.8413 44.9481Z" fill="#008000"/>
</g>
</g>
<g style="mix-blend-mode:multiply">
<g style="mix-blend-mode:multiply">
<path d="M43.8594 44.9481C43.8594 45.8775 43.5785 46.786 43.0523 47.5587C42.5261 48.3315 41.7782 48.9338 40.9031 49.2895C40.0281 49.6451 39.0652 49.7382 38.1363 49.5569C37.2074 49.3755 36.3541 48.928 35.6844 48.2708C35.0147 47.6137 34.5585 46.7764 34.3737 45.8648C34.189 44.9533 34.2838 44.0085 34.6463 43.1498C35.0087 42.2912 35.6225 41.5573 36.41 41.041C37.1976 40.5246 38.1234 40.249 39.0705 40.249C40.3406 40.249 41.5587 40.7441 42.4567 41.6254C43.3548 42.5066 43.8594 43.7018 43.8594 44.9481Z" fill="#008000"/>
</g>
</g>
<g style="mix-blend-mode:multiply">
<g style="mix-blend-mode:multiply">
<path d="M60.9114 44.9481C60.9114 45.8775 60.6305 46.786 60.1043 47.5587C59.5781 48.3315 58.8302 48.9338 57.9552 49.2895C57.0802 49.6451 56.1173 49.7382 55.1883 49.5569C54.2594 49.3755 53.4061 48.928 52.7364 48.2708C52.0667 47.6137 51.6105 46.7764 51.4257 45.8648C51.241 44.9533 51.3358 44.0085 51.6983 43.1498C52.0608 42.2912 52.6745 41.5573 53.4621 41.041C54.2496 40.5246 55.1754 40.249 56.1225 40.249C57.3926 40.249 58.6107 40.7441 59.5087 41.6254C60.4068 42.5066 60.9114 43.7018 60.9114 44.9481Z" fill="#008000"/>
</g>
</g>
<g style="mix-blend-mode:multiply">
<g style="mix-blend-mode:multiply">
<path d="M77.9077 44.9481C77.9077 45.8775 77.6269 46.786 77.1007 47.5587C76.5745 48.3315 75.8266 48.9338 74.9515 49.2895C74.0765 49.6451 73.1136 49.7382 72.1847 49.5569C71.2557 49.3755 70.4025 48.928 69.7327 48.2708C69.063 47.6137 68.6069 46.7764 68.4221 45.8648C68.2373 44.9533 68.3322 44.0085 68.6946 43.1498C69.0571 42.2912 69.6709 41.5573 70.4584 41.041C71.2459 40.5246 72.1717 40.249 73.1189 40.249C74.3889 40.249 75.607 40.7441 76.5051 41.6254C77.4032 42.5066 77.9077 43.7018 77.9077 44.9481Z" fill="#008000"/>
</g>
</g>
<g style="mix-blend-mode:multiply">
<g style="mix-blend-mode:multiply">
<path d="M94.9259 44.9481C94.9259 45.8775 94.645 46.786 94.1188 47.5587C93.5926 48.3315 92.8447 48.9338 91.9696 49.2895C91.0946 49.6451 90.1317 49.7382 89.2028 49.5569C88.2738 49.3755 87.4205 48.928 86.7508 48.2708C86.081 47.6137 85.625 46.7764 85.4402 45.8648C85.2554 44.9533 85.3502 44.0085 85.7127 43.1498C86.0751 42.2912 86.689 41.5573 87.4765 41.041C88.264 40.5246 89.1899 40.249 90.137 40.249C91.4071 40.249 92.6252 40.7441 93.5233 41.6254C94.4213 42.5066 94.9259 43.7018 94.9259 44.9481Z" fill="#008000"/>
</g>
</g>
<g style="mix-blend-mode:multiply">
<g style="mix-blend-mode:multiply">
<path d="M111.944 44.9481C111.944 45.8775 111.663 46.786 111.137 47.5587C110.61 48.3315 109.863 48.9338 108.988 49.2895C108.113 49.6451 107.15 49.7382 106.221 49.5569C105.292 49.3755 104.439 48.928 103.769 48.2708C103.099 47.6137 102.643 46.7764 102.458 45.8648C102.273 44.9533 102.368 44.0085 102.731 43.1498C103.093 42.2912 103.707 41.5573 104.494 41.041C105.282 40.5246 106.208 40.249 107.155 40.249C108.425 40.249 109.643 40.7441 110.541 41.6254C111.439 42.5066 111.944 43.7018 111.944 44.9481Z" fill="#008000"/>
</g>
</g>
<g style="mix-blend-mode:multiply">
<g style="mix-blend-mode:multiply">
<path d="M128.962 44.9481C128.962 45.8779 128.681 46.7869 128.154 47.5599C127.627 48.3329 126.879 48.9352 126.003 49.2905C125.127 49.6459 124.164 49.7383 123.235 49.556C122.306 49.3738 121.452 48.9252 120.783 48.2669C120.114 47.6086 119.658 46.7704 119.475 45.8581C119.291 44.9459 119.388 44.0007 119.752 43.1422C120.116 42.2838 120.732 41.5507 121.521 41.0356C122.31 40.5206 123.237 40.2469 124.184 40.249C125.452 40.2519 126.668 40.7483 127.563 41.6292C128.459 42.5102 128.962 43.7037 128.962 44.9481Z" fill="#008000"/>
</g>
</g>
<g style="mix-blend-mode:multiply">
<g style="mix-blend-mode:multiply">
<path d="M145.946 44.9481C145.946 45.8775 145.665 46.786 145.139 47.5587C144.613 48.3315 143.865 48.9338 142.99 49.2895C142.115 49.6451 141.152 49.7382 140.223 49.5569C139.294 49.3755 138.441 48.928 137.771 48.2708C137.102 47.6137 136.645 46.7764 136.461 45.8648C136.276 44.9533 136.371 44.0085 136.733 43.1498C137.096 42.2912 137.709 41.5573 138.497 41.041C139.284 40.5246 140.21 40.249 141.157 40.249C142.428 40.249 143.646 40.7441 144.544 41.6254C145.442 42.5066 145.946 43.7018 145.946 44.9481Z" fill="#008000"/>
</g>
</g>
<g style="mix-blend-mode:multiply">
<g style="mix-blend-mode:multiply">
<path d="M163.009 44.9481C163.009 45.8775 162.728 46.786 162.202 47.5587C161.676 48.3315 160.928 48.9338 160.053 49.2895C159.178 49.6451 158.215 49.7382 157.286 49.5569C156.357 49.3755 155.504 48.928 154.834 48.2708C154.165 47.6137 153.708 46.7764 153.524 45.8648C153.339 44.9533 153.434 44.0085 153.796 43.1498C154.159 42.2912 154.772 41.5573 155.56 41.041C156.347 40.5246 157.273 40.249 158.22 40.249C159.491 40.249 160.709 40.7441 161.607 41.6254C162.505 42.5066 163.009 43.7018 163.009 44.9481Z" fill="#008000"/>
</g>
</g>
<g style="mix-blend-mode:multiply">
<g style="mix-blend-mode:multiply">
<path d="M5.03394 69.6618C7.67873 69.6618 9.82275 67.558 9.82275 64.9627C9.82275 62.3675 7.67873 60.2637 5.03394 60.2637C2.38914 60.2637 0.245117 62.3675 0.245117 64.9627C0.245117 67.558 2.38914 69.6618 5.03394 69.6618Z" fill="#008000"/>
</g>
</g>
<g style="mix-blend-mode:multiply">
<g style="mix-blend-mode:multiply">
<path d="M26.8413 64.952C26.8413 65.8814 26.5604 66.7899 26.0342 67.5627C25.508 68.3354 24.7602 68.9377 23.8851 69.2934C23.0101 69.649 22.0472 69.7421 21.1182 69.5608C20.1893 69.3794 19.336 68.9319 18.6663 68.2747C17.9965 67.6176 17.5405 66.7803 17.3557 65.8687C17.1709 64.9572 17.2657 64.0124 17.6282 63.1537C17.9906 62.2951 18.6044 61.5612 19.3919 61.0449C20.1795 60.5285 21.1054 60.2529 22.0525 60.2529C23.3226 60.2529 24.5406 60.748 25.4387 61.6293C26.3368 62.5105 26.8413 63.7057 26.8413 64.952Z" fill="#008000"/>
</g>
</g>
<g style="mix-blend-mode:multiply">
<g style="mix-blend-mode:multiply">
<path d="M43.8594 64.952C43.8594 65.8814 43.5785 66.7899 43.0523 67.5627C42.5261 68.3354 41.7782 68.9377 40.9031 69.2934C40.0281 69.649 39.0652 69.7421 38.1363 69.5608C37.2074 69.3794 36.3541 68.9319 35.6844 68.2747C35.0147 67.6176 34.5585 66.7803 34.3737 65.8687C34.189 64.9572 34.2838 64.0124 34.6463 63.1537C35.0087 62.2951 35.6225 61.5612 36.41 61.0449C37.1976 60.5285 38.1234 60.2529 39.0705 60.2529C40.3406 60.2529 41.5587 60.748 42.4567 61.6293C43.3548 62.5105 43.8594 63.7057 43.8594 64.952Z" fill="#008000"/>
</g>
</g>
<g style="mix-blend-mode:multiply">
<g style="mix-blend-mode:multiply">
<path d="M60.9114 64.952C60.9114 65.8814 60.6305 66.7899 60.1043 67.5627C59.5781 68.3354 58.8302 68.9377 57.9552 69.2934C57.0802 69.649 56.1173 69.7421 55.1883 69.5608C54.2594 69.3794 53.4061 68.9319 52.7364 68.2747C52.0667 67.6176 51.6105 66.7803 51.4257 65.8687C51.241 64.9572 51.3358 64.0124 51.6983 63.1537C52.0608 62.2951 52.6745 61.5612 53.4621 61.0449C54.2496 60.5285 55.1754 60.2529 56.1225 60.2529C57.3926 60.2529 58.6107 60.748 59.5087 61.6293C60.4068 62.5105 60.9114 63.7057 60.9114 64.952Z" fill="#008000"/>
</g>
</g>
<g style="mix-blend-mode:multiply">
<g style="mix-blend-mode:multiply">
<path d="M77.9077 64.952C77.9077 65.8814 77.6269 66.7899 77.1007 67.5627C76.5745 68.3354 75.8266 68.9377 74.9515 69.2934C74.0765 69.649 73.1136 69.7421 72.1847 69.5608C71.2557 69.3794 70.4025 68.9319 69.7327 68.2747C69.063 67.6176 68.6069 66.7803 68.4221 65.8687C68.2373 64.9572 68.3322 64.0124 68.6946 63.1537C69.0571 62.2951 69.6709 61.5612 70.4584 61.0449C71.2459 60.5285 72.1717 60.2529 73.1189 60.2529C74.3889 60.2529 75.607 60.748 76.5051 61.6293C77.4032 62.5105 77.9077 63.7057 77.9077 64.952Z" fill="#008000"/>
</g>
</g>
<g style="mix-blend-mode:multiply">
<g style="mix-blend-mode:multiply">
<path d="M90.137 69.6618C92.7818 69.6618 94.9258 67.558 94.9258 64.9627C94.9258 62.3675 92.7818 60.2637 90.137 60.2637C87.4922 60.2637 85.3481 62.3675 85.3481 64.9627C85.3481 67.558 87.4922 69.6618 90.137 69.6618Z" fill="#008000"/>
</g>
</g>
<g style="mix-blend-mode:multiply">
<g style="mix-blend-mode:multiply">
<path d="M107.166 69.6618C109.811 69.6618 111.955 67.558 111.955 64.9627C111.955 62.3675 109.811 60.2637 107.166 60.2637C104.521 60.2637 102.377 62.3675 102.377 64.9627C102.377 67.558 104.521 69.6618 107.166 69.6618Z" fill="#008000"/>
</g>
</g>
<g style="mix-blend-mode:multiply">
<g style="mix-blend-mode:multiply">
<path d="M128.962 64.952C128.962 65.8819 128.681 66.7908 128.154 67.5638C127.627 68.3368 126.879 68.9391 126.003 69.2944C125.127 69.6498 124.164 69.7422 123.235 69.56C122.306 69.3778 121.452 68.9291 120.783 68.2708C120.114 67.6126 119.658 66.7743 119.475 65.862C119.291 64.9498 119.388 64.0046 119.752 63.1461C120.116 62.2877 120.732 61.5546 121.521 61.0396C122.31 60.5245 123.237 60.2508 124.184 60.2529C125.452 60.2558 126.668 60.7522 127.563 61.6331C128.459 62.5141 128.962 63.7076 128.962 64.952Z" fill="#008000"/>
</g>
</g>
<g style="mix-blend-mode:multiply">
<g style="mix-blend-mode:multiply">
<path d="M145.946 64.952C145.946 65.8814 145.665 66.7899 145.139 67.5627C144.613 68.3354 143.865 68.9377 142.99 69.2934C142.115 69.649 141.152 69.7421 140.223 69.5608C139.294 69.3794 138.441 68.9319 137.771 68.2747C137.102 67.6176 136.645 66.7803 136.461 65.8687C136.276 64.9572 136.371 64.0124 136.733 63.1537C137.096 62.2951 137.709 61.5612 138.497 61.0449C139.284 60.5285 140.21 60.2529 141.157 60.2529C142.428 60.2529 143.646 60.748 144.544 61.6293C145.442 62.5105 145.946 63.7057 145.946 64.952Z" fill="#008000"/>
</g>
</g>
<g style="mix-blend-mode:multiply">
<g style="mix-blend-mode:multiply">
<path d="M163.009 64.952C163.009 65.8814 162.728 66.7899 162.202 67.5627C161.676 68.3354 160.928 68.9377 160.053 69.2934C159.178 69.649 158.215 69.7421 157.286 69.5608C156.357 69.3794 155.504 68.9319 154.834 68.2747C154.165 67.6176 153.708 66.7803 153.524 65.8687C153.339 64.9572 153.434 64.0124 153.796 63.1537C154.159 62.2951 154.772 61.5612 155.56 61.0449C156.347 60.5285 157.273 60.2529 158.22 60.2529C159.491 60.2529 160.709 60.748 161.607 61.6293C162.505 62.5105 163.009 63.7057 163.009 64.952Z" fill="#008000"/>
</g>
</g>
<g style="mix-blend-mode:multiply">
<g style="mix-blend-mode:multiply">
<path d="M5.03394 89.665C7.67873 89.665 9.82275 87.5611 9.82275 84.9658C9.82275 82.3705 7.67873 80.2666 5.03394 80.2666C2.38914 80.2666 0.245117 82.3705 0.245117 84.9658C0.245117 87.5611 2.38914 89.665 5.03394 89.665Z" fill="#008000"/>
</g>
</g>
<g style="mix-blend-mode:multiply">
<g style="mix-blend-mode:multiply">
<path d="M26.8413 84.9548C26.8435 85.8847 26.5645 86.7943 26.0397 87.5685C25.5148 88.3427 24.7677 88.9467 23.8929 89.3041C23.018 89.6614 22.0548 89.7561 21.1251 89.576C20.1954 89.3959 19.3411 88.9492 18.6702 88.2925C17.9994 87.6357 17.5422 86.7984 17.3565 85.8866C17.1708 84.9747 17.265 84.0293 17.6271 83.17C17.9892 82.3107 18.603 81.5762 19.3908 81.0593C20.1785 80.5425 21.1049 80.2666 22.0525 80.2666C23.3206 80.2666 24.537 80.7602 25.4348 81.6391C26.3325 82.518 26.8383 83.7104 26.8413 84.9548Z" fill="#008000"/>
</g>
</g>
<g style="mix-blend-mode:multiply">
<g style="mix-blend-mode:multiply">
<path d="M43.8594 84.9548C43.8616 85.8847 43.5826 86.7943 43.0578 87.5685C42.5329 88.3427 41.7857 88.9467 40.9109 89.3041C40.0361 89.6614 39.0729 89.7561 38.1432 89.576C37.2135 89.3959 36.3592 88.9492 35.6884 88.2925C35.0175 87.6357 34.5603 86.7984 34.3746 85.8866C34.1889 84.9747 34.2831 84.0293 34.6452 83.17C35.0073 82.3107 35.6211 81.5762 36.4089 81.0593C37.1966 80.5425 38.1229 80.2666 39.0705 80.2666C40.3387 80.2666 41.555 80.7602 42.4528 81.6391C43.3505 82.518 43.8564 83.7104 43.8594 84.9548Z" fill="#008000"/>
</g>
</g>
<g style="mix-blend-mode:multiply">
<g style="mix-blend-mode:multiply">
<path d="M60.9112 84.9548C60.9135 85.8847 60.6345 86.7943 60.1096 87.5685C59.5848 88.3427 58.8376 88.9467 57.9628 89.3041C57.088 89.6614 56.1248 89.7561 55.1951 89.576C54.2655 89.3959 53.4111 88.9492 52.7403 88.2925C52.0695 87.6357 51.6123 86.7984 51.4266 85.8866C51.2409 84.9747 51.335 84.0293 51.6972 83.17C52.0593 82.3107 52.6731 81.5762 53.4608 81.0593C54.2486 80.5425 55.1748 80.2666 56.1224 80.2666C56.7508 80.2652 57.3733 80.3854 57.9542 80.6203C58.5351 80.8553 59.0631 81.2004 59.5079 81.6359C59.9528 82.0713 60.3057 82.5887 60.5465 83.1582C60.7873 83.7277 60.9112 84.3382 60.9112 84.9548Z" fill="#008000"/>
</g>
</g>
<g style="mix-blend-mode:multiply">
<g style="mix-blend-mode:multiply">
<path d="M77.9077 84.9548C77.9099 85.8847 77.631 86.7943 77.1061 87.5685C76.5812 88.3427 75.8341 88.9467 74.9592 89.3041C74.0844 89.6614 73.1212 89.7561 72.1915 89.576C71.2618 89.3959 70.4075 88.9492 69.7366 88.2925C69.0658 87.6357 68.6086 86.7984 68.4229 85.8866C68.2372 84.9747 68.3314 84.0293 68.6935 83.17C69.0556 82.3107 69.6694 81.5762 70.4572 81.0593C71.2449 80.5425 72.1712 80.2666 73.1188 80.2666C74.387 80.2666 75.6033 80.7602 76.5011 81.6391C77.3989 82.518 77.9047 83.7104 77.9077 84.9548Z" fill="#008000"/>
</g>
</g>
<g style="mix-blend-mode:multiply">
<g style="mix-blend-mode:multiply">
<path d="M90.137 89.665C92.7818 89.665 94.9258 87.5611 94.9258 84.9658C94.9258 82.3705 92.7818 80.2666 90.137 80.2666C87.4922 80.2666 85.3481 82.3705 85.3481 84.9658C85.3481 87.5611 87.4922 89.665 90.137 89.665Z" fill="#008000"/>
</g>
</g>
<g style="mix-blend-mode:multiply">
<g style="mix-blend-mode:multiply">
<path d="M107.166 89.665C109.811 89.665 111.955 87.5611 111.955 84.9658C111.955 82.3705 109.811 80.2666 107.166 80.2666C104.521 80.2666 102.377 82.3705 102.377 84.9658C102.377 87.5611 104.521 89.665 107.166 89.665Z" fill="#008000"/>
</g>
</g>
<g style="mix-blend-mode:multiply">
<g style="mix-blend-mode:multiply">
<path d="M128.962 84.9548C128.964 85.8851 128.685 86.7952 128.159 87.5696C127.634 88.3441 126.886 88.9481 126.011 89.3051C125.135 89.6622 124.172 89.7562 123.242 89.5752C122.312 89.3942 121.457 88.9464 120.787 88.2886C120.117 87.6307 119.66 86.7924 119.476 85.8798C119.291 84.9673 119.387 84.0215 119.751 83.1624C120.115 82.3033 120.73 81.5695 121.52 81.054C122.309 80.5385 123.236 80.2644 124.184 80.2666C125.451 80.2666 126.667 80.7605 127.563 81.6397C128.459 82.5189 128.962 83.7114 128.962 84.9548Z" fill="#008000"/>
</g>
</g>
<g style="mix-blend-mode:multiply">
<g style="mix-blend-mode:multiply">
<path d="M145.946 84.9548C145.948 85.8847 145.67 86.7943 145.145 87.5685C144.62 88.3427 143.873 88.9467 142.998 89.3041C142.123 89.6614 141.16 89.7561 140.23 89.576C139.3 89.3959 138.446 88.9492 137.775 88.2925C137.104 87.6357 136.647 86.7984 136.462 85.8866C136.276 84.9747 136.37 84.0293 136.732 83.17C137.094 82.3107 137.708 81.5762 138.496 81.0593C139.284 80.5425 140.21 80.2666 141.157 80.2666C142.426 80.2666 143.642 80.7602 144.54 81.6391C145.437 82.518 145.943 83.7104 145.946 84.9548Z" fill="#008000"/>
</g>
</g>
<g style="mix-blend-mode:multiply">
<g style="mix-blend-mode:multiply">
<path d="M163.009 84.9549C163.011 85.8862 162.732 86.7971 162.205 87.572C161.679 88.3469 160.93 88.9509 160.053 89.3073C159.176 89.6637 158.211 89.7563 157.281 89.5736C156.35 89.3908 155.496 88.9408 154.826 88.2808C154.157 87.6207 153.702 86.7804 153.52 85.8663C153.339 84.9523 153.437 84.0059 153.805 83.1472C154.172 82.2885 154.791 81.5562 155.583 81.0434C156.375 80.5305 157.305 80.2602 158.254 80.2667C159.516 80.2754 160.724 80.7728 161.615 81.6508C162.505 82.5287 163.006 83.7162 163.009 84.9549Z" fill="#008000"/>
</g>
</g>
<g style="mix-blend-mode:multiply">
<g style="mix-blend-mode:multiply">
<path d="M5.03394 109.67C7.67873 109.67 9.82275 107.566 9.82275 104.971C9.82275 102.375 7.67873 100.271 5.03394 100.271C2.38914 100.271 0.245117 102.375 0.245117 104.971C0.245117 107.566 2.38914 109.67 5.03394 109.67Z" fill="#008000"/>
</g>
</g>
<g style="mix-blend-mode:multiply">
<g style="mix-blend-mode:multiply">
<path d="M26.8413 104.971C26.8413 105.9 26.5604 106.808 26.0342 107.581C25.508 108.354 24.7602 108.956 23.8851 109.312C23.0101 109.668 22.0472 109.761 21.1182 109.579C20.1893 109.398 19.336 108.95 18.6663 108.293C17.9965 107.636 17.5405 106.799 17.3557 105.887C17.1709 104.976 17.2657 104.031 17.6282 103.172C17.9906 102.314 18.6044 101.58 19.3919 101.063C20.1795 100.547 21.1054 100.271 22.0525 100.271C23.3226 100.271 24.5406 100.767 25.4387 101.648C26.3368 102.529 26.8413 103.724 26.8413 104.971Z" fill="#008000"/>
</g>
</g>
<g style="mix-blend-mode:multiply">
<g style="mix-blend-mode:multiply">
<path d="M43.8594 104.971C43.8594 105.9 43.5785 106.808 43.0523 107.581C42.5261 108.354 41.7782 108.956 40.9031 109.312C40.0281 109.668 39.0652 109.761 38.1363 109.579C37.2074 109.398 36.3541 108.95 35.6844 108.293C35.0147 107.636 34.5585 106.799 34.3737 105.887C34.189 104.976 34.2838 104.031 34.6463 103.172C35.0087 102.314 35.6225 101.58 36.41 101.063C37.1976 100.547 38.1234 100.271 39.0705 100.271C40.3406 100.271 41.5587 100.767 42.4567 101.648C43.3548 102.529 43.8594 103.724 43.8594 104.971Z" fill="#008000"/>
</g>
</g>
<g style="mix-blend-mode:multiply">
<g style="mix-blend-mode:multiply">
<path d="M60.9114 104.971C60.9114 105.9 60.6305 106.808 60.1043 107.581C59.5781 108.354 58.8302 108.956 57.9552 109.312C57.0801 109.668 56.1172 109.761 55.1883 109.579C54.2594 109.398 53.4061 108.95 52.7364 108.293C52.0667 107.636 51.6105 106.799 51.4257 105.887C51.241 104.976 51.3358 104.031 51.6983 103.172C52.0608 102.314 52.6745 101.58 53.462 101.063C54.2496 100.547 55.1754 100.271 56.1225 100.271C56.7518 100.27 57.3752 100.391 57.9569 100.626C58.5386 100.862 59.067 101.208 59.512 101.645C59.957 102.081 60.3097 102.6 60.5498 103.171C60.79 103.741 60.9128 104.353 60.9114 104.971Z" fill="#008000"/>
</g>
</g>
<g style="mix-blend-mode:multiply">
<g style="mix-blend-mode:multiply">
<path d="M77.9077 104.971C77.9077 105.9 77.6269 106.808 77.1007 107.581C76.5745 108.354 75.8266 108.956 74.9515 109.312C74.0765 109.668 73.1136 109.761 72.1847 109.579C71.2557 109.398 70.4025 108.95 69.7327 108.293C69.063 107.636 68.6069 106.799 68.4221 105.887C68.2373 104.976 68.3322 104.031 68.6946 103.172C69.0571 102.314 69.6709 101.58 70.4584 101.063C71.2459 100.547 72.1717 100.271 73.1189 100.271C74.3889 100.271 75.607 100.767 76.5051 101.648C77.4032 102.529 77.9077 103.724 77.9077 104.971Z" fill="#008000"/>
</g>
</g>
<g style="mix-blend-mode:multiply">
<g style="mix-blend-mode:multiply">
<path d="M90.137 109.67C92.7818 109.67 94.9258 107.566 94.9258 104.971C94.9258 102.375 92.7818 100.271 90.137 100.271C87.4922 100.271 85.3481 102.375 85.3481 104.971C85.3481 107.566 87.4922 109.67 90.137 109.67Z" fill="#008000"/>
</g>
</g>
<g style="mix-blend-mode:multiply">
<g style="mix-blend-mode:multiply">
<path d="M107.166 109.67C109.811 109.67 111.955 107.566 111.955 104.971C111.955 102.375 109.811 100.271 107.166 100.271C104.521 100.271 102.377 102.375 102.377 104.971C102.377 107.566 104.521 109.67 107.166 109.67Z" fill="#008000"/>
</g>
</g>
<g style="mix-blend-mode:multiply">
<g style="mix-blend-mode:multiply">
<path d="M128.962 104.971C128.962 105.9 128.681 106.809 128.154 107.582C127.627 108.355 126.879 108.958 126.003 109.313C125.127 109.668 124.164 109.761 123.235 109.579C122.306 109.396 121.452 108.948 120.783 108.289C120.114 107.631 119.658 106.793 119.475 105.881C119.291 104.968 119.388 104.023 119.752 103.165C120.116 102.306 120.732 101.573 121.521 101.058C122.31 100.543 123.237 100.269 124.184 100.271C124.813 100.271 125.435 100.393 126.015 100.629C126.596 100.866 127.123 101.212 127.567 101.648C128.01 102.085 128.362 102.603 128.601 103.173C128.841 103.743 128.963 104.354 128.962 104.971Z" fill="#008000"/>
</g>
</g>
<g style="mix-blend-mode:multiply">
<g style="mix-blend-mode:multiply">
<path d="M145.946 104.971C145.946 105.9 145.665 106.808 145.139 107.581C144.613 108.354 143.865 108.956 142.99 109.312C142.115 109.668 141.152 109.761 140.223 109.579C139.294 109.398 138.441 108.95 137.771 108.293C137.102 107.636 136.645 106.799 136.461 105.887C136.276 104.976 136.371 104.031 136.733 103.172C137.096 102.314 137.709 101.58 138.497 101.063C139.284 100.547 140.21 100.271 141.157 100.271C142.428 100.271 143.646 100.767 144.544 101.648C145.442 102.529 145.946 103.724 145.946 104.971Z" fill="#008000"/>
</g>
</g>
<g style="mix-blend-mode:multiply">
<g style="mix-blend-mode:multiply">
<path d="M163.009 104.971C163.009 105.9 162.728 106.808 162.202 107.581C161.676 108.354 160.928 108.956 160.053 109.312C159.178 109.668 158.215 109.761 157.286 109.579C156.357 109.398 155.504 108.95 154.834 108.293C154.165 107.636 153.708 106.799 153.524 105.887C153.339 104.976 153.434 104.031 153.796 103.172C154.159 102.314 154.772 101.58 155.56 101.063C156.347 100.547 157.273 100.271 158.22 100.271C159.491 100.271 160.709 100.767 161.607 101.648C162.505 102.529 163.009 103.724 163.009 104.971Z" fill="#008000"/>
</g>
</g>
<g style="mix-blend-mode:multiply">
<g style="mix-blend-mode:multiply">
<path d="M5.03394 129.673C7.67873 129.673 9.82275 127.569 9.82275 124.973C9.82275 122.378 7.67873 120.274 5.03394 120.274C2.38914 120.274 0.245117 122.378 0.245117 124.973C0.245117 127.569 2.38914 129.673 5.03394 129.673Z" fill="#008000"/>
</g>
</g>
<g style="mix-blend-mode:multiply">
<g style="mix-blend-mode:multiply">
<path d="M26.8413 124.973C26.8413 125.903 26.5604 126.811 26.0342 127.584C25.508 128.357 24.7602 128.959 23.8851 129.315C23.0101 129.671 22.0472 129.764 21.1182 129.582C20.1893 129.401 19.336 128.953 18.6663 128.296C17.9965 127.639 17.5405 126.802 17.3557 125.89C17.1709 124.979 17.2657 124.034 17.6282 123.175C17.9906 122.317 18.6044 121.583 19.3919 121.066C20.1795 120.55 21.1054 120.274 22.0525 120.274C23.3226 120.274 24.5406 120.769 25.4387 121.651C26.3368 122.532 26.8413 123.727 26.8413 124.973Z" fill="#008000"/>
</g>
</g>
<g style="mix-blend-mode:multiply">
<g style="mix-blend-mode:multiply">
<path d="M43.8594 124.973C43.8594 125.903 43.5785 126.811 43.0523 127.584C42.5261 128.357 41.7782 128.959 40.9031 129.315C40.0281 129.671 39.0652 129.764 38.1363 129.582C37.2074 129.401 36.3541 128.953 35.6844 128.296C35.0147 127.639 34.5585 126.802 34.3737 125.89C34.189 124.979 34.2838 124.034 34.6463 123.175C35.0087 122.317 35.6225 121.583 36.41 121.066C37.1976 120.55 38.1234 120.274 39.0705 120.274C40.3406 120.274 41.5587 120.769 42.4567 121.651C43.3548 122.532 43.8594 123.727 43.8594 124.973Z" fill="#008000"/>
</g>
</g>
<g style="mix-blend-mode:multiply">
<g style="mix-blend-mode:multiply">
<path d="M60.9114 124.973C60.9114 125.903 60.6305 126.811 60.1043 127.584C59.5781 128.357 58.8302 128.959 57.9552 129.315C57.0802 129.671 56.1173 129.764 55.1883 129.582C54.2594 129.401 53.4061 128.953 52.7364 128.296C52.0667 127.639 51.6105 126.802 51.4257 125.89C51.241 124.979 51.3358 124.034 51.6983 123.175C52.0608 122.317 52.6745 121.583 53.4621 121.066C54.2496 120.55 55.1754 120.274 56.1225 120.274C57.3926 120.274 58.6107 120.769 59.5087 121.651C60.4068 122.532 60.9114 123.727 60.9114 124.973Z" fill="#008000"/>
</g>
</g>
<g style="mix-blend-mode:multiply">
<g style="mix-blend-mode:multiply">
<path d="M77.9077 124.973C77.9077 125.903 77.6269 126.811 77.1007 127.584C76.5745 128.357 75.8266 128.959 74.9515 129.315C74.0765 129.671 73.1136 129.764 72.1847 129.582C71.2557 129.401 70.4025 128.953 69.7327 128.296C69.063 127.639 68.6069 126.802 68.4221 125.89C68.2373 124.979 68.3322 124.034 68.6946 123.175C69.0571 122.317 69.6709 121.583 70.4584 121.066C71.2459 120.55 72.1717 120.274 73.1189 120.274C74.3889 120.274 75.607 120.769 76.5051 121.651C77.4032 122.532 77.9077 123.727 77.9077 124.973Z" fill="#008000"/>
</g>
</g>
<g style="mix-blend-mode:multiply">
<g style="mix-blend-mode:multiply">
<path d="M90.137 129.673C92.7818 129.673 94.9258 127.569 94.9258 124.973C94.9258 122.378 92.7818 120.274 90.137 120.274C87.4922 120.274 85.3481 122.378 85.3481 124.973C85.3481 127.569 87.4922 129.673 90.137 129.673Z" fill="#008000"/>
</g>
</g>
<g style="mix-blend-mode:multiply">
<g style="mix-blend-mode:multiply">
<path d="M107.166 129.673C109.811 129.673 111.955 127.569 111.955 124.973C111.955 122.378 109.811 120.274 107.166 120.274C104.521 120.274 102.377 122.378 102.377 124.973C102.377 127.569 104.521 129.673 107.166 129.673Z" fill="#008000"/>
</g>
</g>
<g style="mix-blend-mode:multiply">
<g style="mix-blend-mode:multiply">
<path d="M128.962 124.973C128.962 125.903 128.681 126.812 128.154 127.585C127.627 128.358 126.879 128.961 126.003 129.316C125.127 129.671 124.164 129.764 123.235 129.581C122.306 129.399 121.452 128.951 120.783 128.292C120.114 127.634 119.658 126.796 119.475 125.883C119.291 124.971 119.388 124.026 119.752 123.168C120.116 122.309 120.732 121.576 121.521 121.061C122.31 120.546 123.237 120.272 124.184 120.274C125.452 120.277 126.668 120.774 127.563 121.655C128.459 122.536 128.962 123.729 128.962 124.973Z" fill="#008000"/>
</g>
</g>
<g style="mix-blend-mode:multiply">
<g style="mix-blend-mode:multiply">
<path d="M145.946 124.973C145.946 125.903 145.665 126.811 145.139 127.584C144.613 128.357 143.865 128.959 142.99 129.315C142.115 129.671 141.152 129.764 140.223 129.582C139.294 129.401 138.441 128.953 137.771 128.296C137.102 127.639 136.645 126.802 136.461 125.89C136.276 124.979 136.371 124.034 136.733 123.175C137.096 122.317 137.709 121.583 138.497 121.066C139.284 120.55 140.21 120.274 141.157 120.274C142.428 120.274 143.646 120.769 144.544 121.651C145.442 122.532 145.946 123.727 145.946 124.973Z" fill="#008000"/>
</g>
</g>
<g style="mix-blend-mode:multiply">
<g style="mix-blend-mode:multiply">
<path d="M163.009 124.974C163 125.903 162.711 126.809 162.178 127.576C161.645 128.344 160.892 128.939 160.014 129.287C159.136 129.635 158.173 129.72 157.246 129.531C156.32 129.342 155.471 128.888 154.807 128.226C154.143 127.564 153.694 126.723 153.516 125.811C153.339 124.898 153.441 123.955 153.81 123.099C154.179 122.244 154.798 121.515 155.589 121.004C156.38 120.494 157.307 120.225 158.254 120.232C158.884 120.236 159.506 120.362 160.086 120.603C160.667 120.844 161.193 121.194 161.634 121.635C162.076 122.076 162.425 122.597 162.661 123.17C162.897 123.743 163.015 124.356 163.009 124.974Z" fill="#008000"/>
</g>
</g>
<g style="mix-blend-mode:multiply">
<g style="mix-blend-mode:multiply">
<path d="M9.82288 144.978C9.82288 145.908 9.54201 146.816 9.0158 147.589C8.4896 148.362 7.74164 148.964 6.86659 149.32C5.99154 149.676 5.0287 149.769 4.09975 149.587C3.1708 149.406 2.31747 148.958 1.64773 148.301C0.977997 147.644 0.521923 146.807 0.337144 145.895C0.152364 144.984 0.24717 144.039 0.609628 143.18C0.972086 142.321 1.58588 141.588 2.3734 141.071C3.16092 140.555 4.08683 140.279 5.03398 140.279C6.30407 140.279 7.52214 140.774 8.42023 141.656C9.31832 142.537 9.82288 143.732 9.82288 144.978Z" fill="#008000"/>
</g>
</g>
<g style="mix-blend-mode:multiply">
<g style="mix-blend-mode:multiply">
<path d="M26.8413 144.978C26.8413 145.908 26.5604 146.816 26.0342 147.589C25.508 148.362 24.7602 148.964 23.8851 149.32C23.0101 149.676 22.0472 149.769 21.1182 149.587C20.1893 149.406 19.336 148.958 18.6663 148.301C17.9965 147.644 17.5405 146.807 17.3557 145.895C17.1709 144.984 17.2657 144.039 17.6282 143.18C17.9906 142.321 18.6044 141.588 19.3919 141.071C20.1795 140.555 21.1054 140.279 22.0525 140.279C23.3226 140.279 24.5406 140.774 25.4387 141.656C26.3368 142.537 26.8413 143.732 26.8413 144.978Z" fill="#008000"/>
</g>
</g>
<g style="mix-blend-mode:multiply">
<g style="mix-blend-mode:multiply">
<path d="M43.8594 144.978C43.8594 145.908 43.5785 146.816 43.0523 147.589C42.5261 148.362 41.7782 148.964 40.9031 149.32C40.0281 149.676 39.0652 149.769 38.1363 149.587C37.2074 149.406 36.3541 148.958 35.6844 148.301C35.0147 147.644 34.5585 146.807 34.3737 145.895C34.189 144.984 34.2838 144.039 34.6463 143.18C35.0087 142.321 35.6225 141.588 36.41 141.071C37.1976 140.555 38.1234 140.279 39.0705 140.279C40.3406 140.279 41.5587 140.774 42.4567 141.656C43.3548 142.537 43.8594 143.732 43.8594 144.978Z" fill="#008000"/>
</g>
</g>
<g style="mix-blend-mode:multiply">
<g style="mix-blend-mode:multiply">
<path d="M60.9114 144.978C60.9114 145.908 60.6305 146.816 60.1043 147.589C59.5781 148.362 58.8302 148.964 57.9552 149.32C57.0802 149.676 56.1173 149.769 55.1883 149.587C54.2594 149.406 53.4061 148.958 52.7364 148.301C52.0667 147.644 51.6105 146.807 51.4257 145.895C51.241 144.984 51.3358 144.039 51.6983 143.18C52.0608 142.321 52.6745 141.588 53.4621 141.071C54.2496 140.555 55.1754 140.279 56.1225 140.279C57.3926 140.279 58.6107 140.774 59.5087 141.656C60.4068 142.537 60.9114 143.732 60.9114 144.978Z" fill="#008000"/>
</g>
</g>
<g style="mix-blend-mode:multiply">
<g style="mix-blend-mode:multiply">
<path d="M77.9077 144.978C77.9077 145.908 77.6269 146.816 77.1007 147.589C76.5745 148.362 75.8266 148.964 74.9515 149.32C74.0765 149.676 73.1136 149.769 72.1847 149.587C71.2557 149.406 70.4025 148.958 69.7327 148.301C69.063 147.644 68.6069 146.807 68.4221 145.895C68.2373 144.984 68.3322 144.039 68.6946 143.18C69.0571 142.321 69.6709 141.588 70.4584 141.071C71.2459 140.555 72.1717 140.279 73.1189 140.279C74.3889 140.279 75.607 140.774 76.5051 141.656C77.4032 142.537 77.9077 143.732 77.9077 144.978Z" fill="#008000"/>
</g>
</g>
<g style="mix-blend-mode:multiply">
<g style="mix-blend-mode:multiply">
<path d="M94.9259 144.978C94.9259 145.908 94.645 146.816 94.1188 147.589C93.5926 148.362 92.8447 148.964 91.9696 149.32C91.0946 149.676 90.1317 149.769 89.2028 149.587C88.2738 149.406 87.4205 148.958 86.7508 148.301C86.081 147.644 85.625 146.807 85.4402 145.895C85.2554 144.984 85.3502 144.039 85.7127 143.18C86.0751 142.321 86.689 141.588 87.4765 141.071C88.264 140.555 89.1899 140.279 90.137 140.279C91.4071 140.279 92.6252 140.774 93.5233 141.656C94.4213 142.537 94.9259 143.732 94.9259 144.978Z" fill="#008000"/>
</g>
</g>
<g style="mix-blend-mode:multiply">
<g style="mix-blend-mode:multiply">
<path d="M111.944 144.978C111.944 145.908 111.663 146.816 111.137 147.589C110.61 148.362 109.863 148.964 108.988 149.32C108.113 149.676 107.15 149.769 106.221 149.587C105.292 149.406 104.439 148.958 103.769 148.301C103.099 147.644 102.643 146.807 102.458 145.895C102.273 144.984 102.368 144.039 102.731 143.18C103.093 142.321 103.707 141.588 104.494 141.071C105.282 140.555 106.208 140.279 107.155 140.279C108.425 140.279 109.643 140.774 110.541 141.656C111.439 142.537 111.944 143.732 111.944 144.978Z" fill="#008000"/>
</g>
</g>
<g style="mix-blend-mode:multiply">
<g style="mix-blend-mode:multiply">
<path d="M128.962 144.978C128.962 145.908 128.681 146.817 128.154 147.59C127.627 148.363 126.879 148.966 126.003 149.321C125.127 149.676 124.164 149.769 123.235 149.587C122.306 149.404 121.452 148.956 120.783 148.297C120.114 147.639 119.658 146.801 119.475 145.888C119.291 144.976 119.388 144.031 119.752 143.173C120.116 142.314 120.732 141.581 121.521 141.066C122.31 140.551 123.237 140.277 124.184 140.279C125.452 140.282 126.668 140.779 127.563 141.66C128.459 142.54 128.962 143.734 128.962 144.978Z" fill="#008000"/>
</g>
</g>
<g style="mix-blend-mode:multiply">
<g style="mix-blend-mode:multiply">
<path d="M145.946 144.978C145.946 145.908 145.665 146.816 145.139 147.589C144.613 148.362 143.865 148.964 142.99 149.32C142.115 149.676 141.152 149.769 140.223 149.587C139.294 149.406 138.441 148.958 137.771 148.301C137.102 147.644 136.645 146.807 136.461 145.895C136.276 144.984 136.371 144.039 136.733 143.18C137.096 142.321 137.709 141.588 138.497 141.071C139.284 140.555 140.21 140.279 141.157 140.279C142.428 140.279 143.646 140.774 144.544 141.656C145.442 142.537 145.946 143.732 145.946 144.978Z" fill="#008000"/>
</g>
</g>
<g style="mix-blend-mode:multiply">
<g style="mix-blend-mode:multiply">
<path d="M163.009 144.978C163.009 145.908 162.728 146.816 162.202 147.589C161.676 148.362 160.928 148.964 160.053 149.32C159.178 149.676 158.215 149.769 157.286 149.587C156.357 149.406 155.504 148.958 154.834 148.301C154.165 147.644 153.708 146.807 153.524 145.895C153.339 144.984 153.434 144.039 153.796 143.18C154.159 142.321 154.772 141.588 155.56 141.071C156.347 140.555 157.273 140.279 158.22 140.279C159.491 140.279 160.709 140.774 161.607 141.656C162.505 142.537 163.009 143.732 163.009 144.978Z" fill="#008000"/>
</g>
</g>
</g>
</g>
</g>
</svg>
