<svg width="160" height="161" viewBox="0 0 160 161" fill="none" xmlns="http://www.w3.org/2000/svg">
<mask id="mask0" mask-type="alpha" maskUnits="userSpaceOnUse" x="0" y="0" width="160" height="161">
<ellipse cx="80" cy="80.1382" rx="80" ry="80.1382" fill="#C4C4C4"/>
</mask>
<g mask="url(#mask0)">
<g style="mix-blend-mode:multiply">
<g style="mix-blend-mode:multiply">
<g style="mix-blend-mode:multiply">
<g style="mix-blend-mode:multiply">
<path d="M9.82288 5.05597C9.82288 6.00477 9.54201 6.93225 9.0158 7.72115C8.4896 8.51004 7.74164 9.1249 6.86659 9.48798C5.99154 9.85107 5.0287 9.94608 4.09975 9.76098C3.1708 9.57588 2.31747 9.11901 1.64773 8.44811C0.977997 7.77721 0.521923 6.92243 0.337144 5.99186C0.152364 5.0613 0.24717 4.09675 0.609628 3.22018C0.972086 2.34361 1.58588 1.59439 2.3734 1.06726C3.16092 0.540143 4.08683 0.258789 5.03398 0.258789C6.30407 0.258789 7.52214 0.764192 8.42023 1.66384C9.31832 2.56349 9.82288 3.78368 9.82288 5.05597Z" fill="#FFA500"/>
</g>
</g>
<g style="mix-blend-mode:multiply">
<g style="mix-blend-mode:multiply">
<path d="M26.8413 5.05597C26.8413 6.00477 26.5604 6.93225 26.0342 7.72115C25.508 8.51004 24.7602 9.1249 23.8851 9.48798C23.0101 9.85107 22.0472 9.94608 21.1182 9.76098C20.1893 9.57588 19.336 9.11901 18.6663 8.44811C17.9965 7.77721 17.5405 6.92243 17.3557 5.99186C17.1709 5.0613 17.2657 4.09675 17.6282 3.22018C17.9906 2.34361 18.6044 1.59439 19.3919 1.06726C20.1795 0.540143 21.1054 0.258789 22.0525 0.258789C23.3226 0.258789 24.5406 0.764192 25.4387 1.66384C26.3368 2.56349 26.8413 3.78368 26.8413 5.05597Z" fill="#FFA500"/>
</g>
</g>
<g style="mix-blend-mode:multiply">
<g style="mix-blend-mode:multiply">
<path d="M43.8594 5.05597C43.8594 6.00477 43.5785 6.93225 43.0523 7.72115C42.5261 8.51004 41.7782 9.1249 40.9031 9.48798C40.0281 9.85107 39.0652 9.94608 38.1363 9.76098C37.2074 9.57588 36.3541 9.11901 35.6844 8.44811C35.0147 7.77721 34.5585 6.92243 34.3737 5.99186C34.189 5.0613 34.2838 4.09675 34.6463 3.22018C35.0087 2.34361 35.6225 1.59439 36.41 1.06726C37.1976 0.540143 38.1234 0.258789 39.0705 0.258789C40.3406 0.258789 41.5587 0.764192 42.4567 1.66384C43.3548 2.56349 43.8594 3.78368 43.8594 5.05597Z" fill="#FFA500"/>
</g>
</g>
<g style="mix-blend-mode:multiply">
<g style="mix-blend-mode:multiply">
<path d="M60.9114 5.05598C60.9114 6.00477 60.6305 6.93226 60.1043 7.72115C59.5781 8.51004 58.8302 9.1249 57.9552 9.48798C57.0801 9.85107 56.1172 9.94608 55.1883 9.76098C54.2594 9.57588 53.4061 9.11901 52.7364 8.44811C52.0667 7.77721 51.6105 6.92243 51.4257 5.99187C51.241 5.06131 51.3358 4.09676 51.6983 3.22019C52.0608 2.34362 52.6745 1.5944 53.462 1.06728C54.2496 0.540156 55.1754 0.258802 56.1225 0.258802C56.7518 0.257324 57.3752 0.38041 57.9569 0.620967C58.5386 0.861524 59.067 1.21481 59.512 1.66057C59.957 2.10632 60.3097 2.63575 60.5498 3.21844C60.79 3.80113 60.9128 4.42559 60.9114 5.05598Z" fill="#FFA500"/>
</g>
</g>
<g style="mix-blend-mode:multiply">
<g style="mix-blend-mode:multiply">
<path d="M77.9077 5.05597C77.9077 6.00477 77.6269 6.93225 77.1007 7.72115C76.5745 8.51004 75.8266 9.1249 74.9515 9.48798C74.0765 9.85107 73.1136 9.94608 72.1847 9.76098C71.2557 9.57588 70.4025 9.11901 69.7327 8.44811C69.063 7.77721 68.6069 6.92243 68.4221 5.99186C68.2373 5.0613 68.3322 4.09675 68.6946 3.22018C69.0571 2.34361 69.6709 1.59439 70.4584 1.06726C71.2459 0.540143 72.1717 0.258789 73.1189 0.258789C74.3889 0.258789 75.607 0.764192 76.5051 1.66384C77.4032 2.56349 77.9077 3.78368 77.9077 5.05597Z" fill="#FFA500"/>
</g>
</g>
<g style="mix-blend-mode:multiply">
<g style="mix-blend-mode:multiply">
<path d="M94.9259 5.05597C94.9259 6.00477 94.645 6.93225 94.1188 7.72115C93.5926 8.51004 92.8447 9.1249 91.9696 9.48798C91.0946 9.85107 90.1317 9.94608 89.2028 9.76098C88.2738 9.57588 87.4205 9.11901 86.7508 8.44811C86.081 7.77721 85.625 6.92243 85.4402 5.99186C85.2554 5.0613 85.3502 4.09675 85.7127 3.22018C86.0751 2.34361 86.689 1.59439 87.4765 1.06726C88.264 0.540143 89.1899 0.258789 90.137 0.258789C91.4071 0.258789 92.6252 0.764192 93.5233 1.66384C94.4213 2.56349 94.9259 3.78368 94.9259 5.05597Z" fill="#FFA500"/>
</g>
</g>
<g style="mix-blend-mode:multiply">
<g style="mix-blend-mode:multiply">
<path d="M111.944 5.05598C111.944 6.00477 111.663 6.93226 111.137 7.72115C110.61 8.51004 109.863 9.1249 108.988 9.48798C108.113 9.85107 107.15 9.94608 106.221 9.76098C105.292 9.57588 104.439 9.11901 103.769 8.44811C103.099 7.77721 102.643 6.92243 102.458 5.99187C102.273 5.06131 102.368 4.09676 102.731 3.22019C103.093 2.34362 103.707 1.5944 104.494 1.06728C105.282 0.540156 106.208 0.258802 107.155 0.258802C107.784 0.257324 108.408 0.38041 108.989 0.620967C109.571 0.861524 110.099 1.21481 110.544 1.66057C110.989 2.10632 111.342 2.63575 111.582 3.21844C111.822 3.80113 111.945 4.42559 111.944 5.05598Z" fill="#FFA500"/>
</g>
</g>
<g style="mix-blend-mode:multiply">
<g style="mix-blend-mode:multiply">
<path d="M128.962 5.05598C128.962 6.00525 128.681 6.93318 128.154 7.72231C127.627 8.51145 126.879 9.12629 126.003 9.48905C125.127 9.8518 124.164 9.94617 123.235 9.76016C122.306 9.57415 121.452 9.11613 120.783 8.44411C120.114 7.77209 119.658 6.91626 119.475 5.98496C119.291 5.05366 119.388 4.08876 119.752 3.21239C120.116 2.33602 120.732 1.58757 121.521 1.0618C122.31 0.536033 123.237 0.256584 124.184 0.258802C124.813 0.2588 125.435 0.382964 126.015 0.624182C126.596 0.8654 127.123 1.21893 127.567 1.66453C128.01 2.11014 128.362 2.63909 128.601 3.22104C128.841 3.803 128.963 4.42654 128.962 5.05598Z" fill="#FFA500"/>
</g>
</g>
<g style="mix-blend-mode:multiply">
<g style="mix-blend-mode:multiply">
<path d="M145.946 5.05597C145.946 6.00477 145.665 6.93225 145.139 7.72115C144.613 8.51004 143.865 9.1249 142.99 9.48798C142.115 9.85107 141.152 9.94608 140.223 9.76098C139.294 9.57588 138.441 9.11901 137.771 8.44811C137.102 7.77721 136.645 6.92243 136.461 5.99186C136.276 5.0613 136.371 4.09675 136.733 3.22018C137.096 2.34361 137.709 1.59439 138.497 1.06726C139.284 0.540143 140.21 0.258789 141.157 0.258789C142.428 0.258789 143.646 0.764192 144.544 1.66384C145.442 2.56349 145.946 3.78368 145.946 5.05597Z" fill="#FFA500"/>
</g>
</g>
<g style="mix-blend-mode:multiply">
<g style="mix-blend-mode:multiply">
<path d="M163.009 5.05597C163.009 6.00477 162.728 6.93225 162.202 7.72115C161.676 8.51004 160.928 9.1249 160.053 9.48798C159.178 9.85107 158.215 9.94608 157.286 9.76098C156.357 9.57588 155.504 9.11901 154.834 8.44811C154.165 7.77721 153.708 6.92243 153.524 5.99186C153.339 5.0613 153.434 4.09675 153.796 3.22018C154.159 2.34361 154.772 1.59439 155.56 1.06726C156.347 0.540143 157.273 0.258789 158.22 0.258789C159.491 0.258789 160.709 0.764192 161.607 1.66384C162.505 2.56349 163.009 3.78368 163.009 5.05597Z" fill="#FFA500"/>
</g>
</g>
<g style="mix-blend-mode:multiply">
<g style="mix-blend-mode:multiply">
<path d="M9.82288 25.465C9.82288 26.4137 9.54201 27.3412 9.0158 28.13C8.4896 28.9189 7.74164 29.5338 6.86659 29.8968C5.99154 30.2599 5.0287 30.3549 4.09975 30.1698C3.1708 29.9847 2.31747 29.5278 1.64773 28.857C0.977997 28.1861 0.521923 27.3313 0.337144 26.4008C0.152364 25.4703 0.24717 24.5058 0.609628 23.6292C0.972086 22.7527 1.58588 22.0035 2.3734 21.4764C3.16092 20.9493 4.08683 20.668 5.03398 20.668C6.30407 20.668 7.52214 21.1734 8.42023 22.073C9.31832 22.9726 9.82288 24.1927 9.82288 25.465Z" fill="#FFA500"/>
</g>
</g>
<g style="mix-blend-mode:multiply">
<g style="mix-blend-mode:multiply">
<path d="M26.8413 25.465C26.8413 26.4137 26.5604 27.3412 26.0342 28.13C25.508 28.9189 24.7602 29.5338 23.8851 29.8968C23.0101 30.2599 22.0472 30.3549 21.1182 30.1698C20.1893 29.9847 19.336 29.5278 18.6663 28.857C17.9965 28.1861 17.5405 27.3313 17.3557 26.4008C17.1709 25.4703 17.2657 24.5058 17.6282 23.6292C17.9906 22.7527 18.6044 22.0035 19.3919 21.4764C20.1795 20.9493 21.1054 20.668 22.0525 20.668C23.3226 20.668 24.5406 21.1734 25.4387 22.073C26.3368 22.9726 26.8413 24.1927 26.8413 25.465Z" fill="#FFA500"/>
</g>
</g>
<g style="mix-blend-mode:multiply">
<g style="mix-blend-mode:multiply">
<path d="M43.8594 25.465C43.8594 26.4137 43.5785 27.3412 43.0523 28.13C42.5261 28.9189 41.7782 29.5338 40.9031 29.8968C40.0281 30.2599 39.0652 30.3549 38.1363 30.1698C37.2074 29.9847 36.3541 29.5278 35.6844 28.857C35.0147 28.1861 34.5585 27.3313 34.3737 26.4008C34.189 25.4703 34.2838 24.5058 34.6463 23.6292C35.0087 22.7527 35.6225 22.0035 36.41 21.4764C37.1976 20.9493 38.1234 20.668 39.0705 20.668C40.3406 20.668 41.5587 21.1734 42.4567 22.073C43.3548 22.9726 43.8594 24.1927 43.8594 25.465Z" fill="#FFA500"/>
</g>
</g>
<g style="mix-blend-mode:multiply">
<g style="mix-blend-mode:multiply">
<path d="M60.9114 25.465C60.9114 26.4137 60.6305 27.3412 60.1043 28.13C59.5781 28.9189 58.8302 29.5338 57.9552 29.8968C57.0802 30.2599 56.1173 30.3549 55.1883 30.1698C54.2594 29.9847 53.4061 29.5278 52.7364 28.857C52.0667 28.1861 51.6105 27.3313 51.4257 26.4008C51.241 25.4703 51.3358 24.5058 51.6983 23.6292C52.0608 22.7527 52.6745 22.0035 53.4621 21.4764C54.2496 20.9493 55.1754 20.668 56.1225 20.668C57.3926 20.668 58.6107 21.1734 59.5087 22.073C60.4068 22.9726 60.9114 24.1927 60.9114 25.465Z" fill="#FFA500"/>
</g>
</g>
<g style="mix-blend-mode:multiply">
<g style="mix-blend-mode:multiply">
<path d="M77.9077 25.465C77.9077 26.4137 77.6269 27.3412 77.1007 28.13C76.5745 28.9189 75.8266 29.5338 74.9515 29.8968C74.0765 30.2599 73.1136 30.3549 72.1847 30.1698C71.2557 29.9847 70.4025 29.5278 69.7327 28.857C69.063 28.1861 68.6069 27.3313 68.4221 26.4008C68.2373 25.4703 68.3322 24.5058 68.6946 23.6292C69.0571 22.7527 69.6709 22.0035 70.4584 21.4764C71.2459 20.9493 72.1717 20.668 73.1189 20.668C74.3889 20.668 75.607 21.1734 76.5051 22.073C77.4032 22.9726 77.9077 24.1927 77.9077 25.465Z" fill="#FFA500"/>
</g>
</g>
<g style="mix-blend-mode:multiply">
<g style="mix-blend-mode:multiply">
<path d="M94.9259 25.465C94.9259 26.4137 94.645 27.3412 94.1188 28.13C93.5926 28.9189 92.8447 29.5338 91.9696 29.8968C91.0946 30.2599 90.1317 30.3549 89.2028 30.1698C88.2738 29.9847 87.4205 29.5278 86.7508 28.857C86.081 28.1861 85.625 27.3313 85.4402 26.4008C85.2554 25.4703 85.3502 24.5058 85.7127 23.6292C86.0751 22.7527 86.689 22.0035 87.4765 21.4764C88.264 20.9493 89.1899 20.668 90.137 20.668C91.4071 20.668 92.6252 21.1734 93.5233 22.073C94.4213 22.9726 94.9259 24.1927 94.9259 25.465Z" fill="#FFA500"/>
</g>
</g>
<g style="mix-blend-mode:multiply">
<g style="mix-blend-mode:multiply">
<path d="M111.944 25.465C111.944 26.4137 111.663 27.3412 111.137 28.13C110.61 28.9189 109.863 29.5338 108.988 29.8968C108.113 30.2599 107.15 30.3549 106.221 30.1698C105.292 29.9847 104.439 29.5278 103.769 28.857C103.099 28.1861 102.643 27.3313 102.458 26.4008C102.273 25.4703 102.368 24.5058 102.731 23.6292C103.093 22.7527 103.707 22.0035 104.494 21.4764C105.282 20.9493 106.208 20.668 107.155 20.668C108.425 20.668 109.643 21.1734 110.541 22.073C111.439 22.9726 111.944 24.1927 111.944 25.465Z" fill="#FFA500"/>
</g>
</g>
<g style="mix-blend-mode:multiply">
<g style="mix-blend-mode:multiply">
<path d="M128.962 25.465C128.962 26.4142 128.681 27.3421 128.154 28.1312C127.627 28.9203 126.879 29.5352 126.003 29.8979C125.127 30.2607 124.164 30.355 123.235 30.169C122.306 29.983 121.452 29.525 120.783 28.853C120.114 28.181 119.658 27.3252 119.475 26.394C119.291 25.4627 119.388 24.4978 119.752 23.6215C120.116 22.7452 120.732 21.9967 121.521 21.471C122.31 20.9452 123.237 20.6658 124.184 20.668C125.452 20.6709 126.668 21.1777 127.563 22.0769C128.459 22.9762 128.962 24.1947 128.962 25.465Z" fill="#FFA500"/>
</g>
</g>
<g style="mix-blend-mode:multiply">
<g style="mix-blend-mode:multiply">
<path d="M145.946 25.465C145.946 26.4137 145.665 27.3412 145.139 28.13C144.613 28.9189 143.865 29.5338 142.99 29.8968C142.115 30.2599 141.152 30.3549 140.223 30.1698C139.294 29.9847 138.441 29.5278 137.771 28.857C137.102 28.1861 136.645 27.3313 136.461 26.4008C136.276 25.4703 136.371 24.5058 136.733 23.6292C137.096 22.7527 137.709 22.0035 138.497 21.4764C139.284 20.9493 140.21 20.668 141.157 20.668C142.428 20.668 143.646 21.1734 144.544 22.073C145.442 22.9726 145.946 24.1927 145.946 25.465Z" fill="#FFA500"/>
</g>
</g>
<g style="mix-blend-mode:multiply">
<g style="mix-blend-mode:multiply">
<path d="M163.009 25.465C163.009 26.4137 162.728 27.3412 162.202 28.13C161.676 28.9189 160.928 29.5338 160.053 29.8968C159.178 30.2599 158.215 30.3549 157.286 30.1698C156.357 29.9847 155.504 29.5278 154.834 28.857C154.165 28.1861 153.708 27.3313 153.524 26.4008C153.339 25.4703 153.434 24.5058 153.796 23.6292C154.159 22.7527 154.772 22.0035 155.56 21.4764C156.347 20.9493 157.273 20.668 158.22 20.668C159.491 20.668 160.709 21.1734 161.607 22.073C162.505 22.9726 163.009 24.1927 163.009 25.465Z" fill="#FFA500"/>
</g>
</g>
<g style="mix-blend-mode:multiply">
<g style="mix-blend-mode:multiply">
<path d="M9.82288 45.886C9.82288 46.8348 9.54201 47.7622 9.0158 48.5511C8.4896 49.34 7.74164 49.9549 6.86659 50.318C5.99154 50.6811 5.0287 50.776 4.09975 50.5909C3.1708 50.4058 2.31747 49.949 1.64773 49.2781C0.977997 48.6072 0.521923 47.7524 0.337144 46.8219C0.152364 45.8913 0.24717 44.9268 0.609628 44.0502C0.972086 43.1737 1.58588 42.4244 2.3734 41.8973C3.16092 41.3702 4.08683 41.0889 5.03398 41.0889C6.30407 41.0889 7.52214 41.5943 8.42023 42.4939C9.31832 43.3936 9.82288 44.6137 9.82288 45.886Z" fill="#FFA500"/>
</g>
</g>
<g style="mix-blend-mode:multiply">
<g style="mix-blend-mode:multiply">
<path d="M26.8413 45.886C26.8413 46.8348 26.5604 47.7622 26.0342 48.5511C25.508 49.34 24.7602 49.9549 23.8851 50.318C23.0101 50.6811 22.0472 50.776 21.1182 50.5909C20.1893 50.4058 19.336 49.949 18.6663 49.2781C17.9965 48.6072 17.5405 47.7524 17.3557 46.8219C17.1709 45.8913 17.2657 44.9268 17.6282 44.0502C17.9906 43.1737 18.6044 42.4244 19.3919 41.8973C20.1795 41.3702 21.1054 41.0889 22.0525 41.0889C23.3226 41.0889 24.5406 41.5943 25.4387 42.4939C26.3368 43.3936 26.8413 44.6137 26.8413 45.886Z" fill="#FFA500"/>
</g>
</g>
<g style="mix-blend-mode:multiply">
<g style="mix-blend-mode:multiply">
<path d="M43.8594 45.886C43.8594 46.8348 43.5785 47.7622 43.0523 48.5511C42.5261 49.34 41.7782 49.9549 40.9031 50.318C40.0281 50.6811 39.0652 50.776 38.1363 50.5909C37.2074 50.4058 36.3541 49.949 35.6844 49.2781C35.0147 48.6072 34.5585 47.7524 34.3737 46.8219C34.189 45.8913 34.2838 44.9268 34.6463 44.0502C35.0087 43.1737 35.6225 42.4244 36.41 41.8973C37.1976 41.3702 38.1234 41.0889 39.0705 41.0889C40.3406 41.0889 41.5587 41.5943 42.4567 42.4939C43.3548 43.3936 43.8594 44.6137 43.8594 45.886Z" fill="#FFA500"/>
</g>
</g>
<g style="mix-blend-mode:multiply">
<g style="mix-blend-mode:multiply">
<path d="M60.9114 45.886C60.9114 46.8348 60.6305 47.7622 60.1043 48.5511C59.5781 49.34 58.8302 49.9549 57.9552 50.318C57.0802 50.6811 56.1173 50.776 55.1883 50.5909C54.2594 50.4058 53.4061 49.949 52.7364 49.2781C52.0667 48.6072 51.6105 47.7524 51.4257 46.8219C51.241 45.8913 51.3358 44.9268 51.6983 44.0502C52.0608 43.1737 52.6745 42.4244 53.4621 41.8973C54.2496 41.3702 55.1754 41.0889 56.1225 41.0889C57.3926 41.0889 58.6107 41.5943 59.5087 42.4939C60.4068 43.3936 60.9114 44.6137 60.9114 45.886Z" fill="#FFA500"/>
</g>
</g>
<g style="mix-blend-mode:multiply">
<g style="mix-blend-mode:multiply">
<path d="M77.9077 45.886C77.9077 46.8348 77.6269 47.7622 77.1007 48.5511C76.5745 49.34 75.8266 49.9549 74.9515 50.318C74.0765 50.6811 73.1136 50.776 72.1847 50.5909C71.2557 50.4058 70.4025 49.949 69.7327 49.2781C69.063 48.6072 68.6069 47.7524 68.4221 46.8219C68.2373 45.8913 68.3322 44.9268 68.6946 44.0502C69.0571 43.1737 69.6709 42.4244 70.4584 41.8973C71.2459 41.3702 72.1717 41.0889 73.1189 41.0889C74.3889 41.0889 75.607 41.5943 76.5051 42.4939C77.4032 43.3936 77.9077 44.6137 77.9077 45.886Z" fill="#FFA500"/>
</g>
</g>
<g style="mix-blend-mode:multiply">
<g style="mix-blend-mode:multiply">
<path d="M94.9259 45.886C94.9259 46.8348 94.645 47.7622 94.1188 48.5511C93.5926 49.34 92.8447 49.9549 91.9696 50.318C91.0946 50.6811 90.1317 50.776 89.2028 50.5909C88.2738 50.4058 87.4205 49.949 86.7508 49.2781C86.081 48.6072 85.625 47.7524 85.4402 46.8219C85.2554 45.8913 85.3502 44.9268 85.7127 44.0502C86.0751 43.1737 86.689 42.4244 87.4765 41.8973C88.264 41.3702 89.1899 41.0889 90.137 41.0889C91.4071 41.0889 92.6252 41.5943 93.5233 42.4939C94.4213 43.3936 94.9259 44.6137 94.9259 45.886Z" fill="#FFA500"/>
</g>
</g>
<g style="mix-blend-mode:multiply">
<g style="mix-blend-mode:multiply">
<path d="M111.944 45.886C111.944 46.8348 111.663 47.7622 111.137 48.5511C110.61 49.34 109.863 49.9549 108.988 50.318C108.113 50.6811 107.15 50.776 106.221 50.5909C105.292 50.4058 104.439 49.949 103.769 49.2781C103.099 48.6072 102.643 47.7524 102.458 46.8219C102.273 45.8913 102.368 44.9268 102.731 44.0502C103.093 43.1737 103.707 42.4244 104.494 41.8973C105.282 41.3702 106.208 41.0889 107.155 41.0889C108.425 41.0889 109.643 41.5943 110.541 42.4939C111.439 43.3936 111.944 44.6137 111.944 45.886Z" fill="#FFA500"/>
</g>
</g>
<g style="mix-blend-mode:multiply">
<g style="mix-blend-mode:multiply">
<path d="M128.962 45.886C128.962 46.8353 128.681 47.7632 128.154 48.5523C127.627 49.3414 126.879 49.9563 126.003 50.319C125.127 50.6818 124.164 50.7761 123.235 50.5901C122.306 50.4041 121.452 49.9461 120.783 49.2741C120.114 48.6021 119.658 47.7463 119.475 46.815C119.291 45.8837 119.388 44.9188 119.752 44.0425C120.116 43.1661 120.732 42.4177 121.521 41.8919C122.31 41.3661 123.237 41.0867 124.184 41.0889C125.452 41.0918 126.668 41.5986 127.563 42.4979C128.459 43.3972 128.962 44.6157 128.962 45.886Z" fill="#FFA500"/>
</g>
</g>
<g style="mix-blend-mode:multiply">
<g style="mix-blend-mode:multiply">
<path d="M145.946 45.886C145.946 46.8348 145.665 47.7622 145.139 48.5511C144.613 49.34 143.865 49.9549 142.99 50.318C142.115 50.6811 141.152 50.776 140.223 50.5909C139.294 50.4058 138.441 49.949 137.771 49.2781C137.102 48.6072 136.645 47.7524 136.461 46.8219C136.276 45.8913 136.371 44.9268 136.733 44.0502C137.096 43.1737 137.709 42.4244 138.497 41.8973C139.284 41.3702 140.21 41.0889 141.157 41.0889C142.428 41.0889 143.646 41.5943 144.544 42.4939C145.442 43.3936 145.946 44.6137 145.946 45.886Z" fill="#FFA500"/>
</g>
</g>
<g style="mix-blend-mode:multiply">
<g style="mix-blend-mode:multiply">
<path d="M163.009 45.886C163.009 46.8348 162.728 47.7622 162.202 48.5511C161.676 49.34 160.928 49.9549 160.053 50.318C159.178 50.6811 158.215 50.776 157.286 50.5909C156.357 50.4058 155.504 49.949 154.834 49.2781C154.165 48.6072 153.708 47.7524 153.524 46.8219C153.339 45.8913 153.434 44.9268 153.796 44.0502C154.159 43.1737 154.772 42.4244 155.56 41.8973C156.347 41.3702 157.273 41.0889 158.22 41.0889C159.491 41.0889 160.709 41.5943 161.607 42.4939C162.505 43.3936 163.009 44.6137 163.009 45.886Z" fill="#FFA500"/>
</g>
</g>
<g style="mix-blend-mode:multiply">
<g style="mix-blend-mode:multiply">
<path d="M5.03394 71.1157C7.67873 71.1157 9.82275 68.968 9.82275 66.3186C9.82275 63.6692 7.67873 61.5215 5.03394 61.5215C2.38914 61.5215 0.245117 63.6692 0.245117 66.3186C0.245117 68.968 2.38914 71.1157 5.03394 71.1157Z" fill="#FFA500"/>
</g>
</g>
<g style="mix-blend-mode:multiply">
<g style="mix-blend-mode:multiply">
<path d="M26.8413 66.307C26.8413 67.2558 26.5604 68.1833 26.0342 68.9722C25.508 69.7611 24.7602 70.376 23.8851 70.7391C23.0101 71.1022 22.0472 71.1972 21.1182 71.0121C20.1893 70.827 19.336 70.3701 18.6663 69.6992C17.9965 69.0283 17.5405 68.1735 17.3557 67.2429C17.1709 66.3123 17.2657 65.3478 17.6282 64.4712C17.9906 63.5946 18.6044 62.8454 19.3919 62.3183C20.1795 61.7911 21.1054 61.5098 22.0525 61.5098C23.3226 61.5098 24.5406 62.0152 25.4387 62.9149C26.3368 63.8145 26.8413 65.0347 26.8413 66.307Z" fill="#FFA500"/>
</g>
</g>
<g style="mix-blend-mode:multiply">
<g style="mix-blend-mode:multiply">
<path d="M43.8594 66.307C43.8594 67.2558 43.5785 68.1833 43.0523 68.9722C42.5261 69.7611 41.7782 70.376 40.9031 70.7391C40.0281 71.1022 39.0652 71.1972 38.1363 71.0121C37.2074 70.827 36.3541 70.3701 35.6844 69.6992C35.0147 69.0283 34.5585 68.1735 34.3737 67.2429C34.189 66.3123 34.2838 65.3478 34.6463 64.4712C35.0087 63.5946 35.6225 62.8454 36.41 62.3183C37.1976 61.7911 38.1234 61.5098 39.0705 61.5098C40.3406 61.5098 41.5587 62.0152 42.4567 62.9149C43.3548 63.8145 43.8594 65.0347 43.8594 66.307Z" fill="#FFA500"/>
</g>
</g>
<g style="mix-blend-mode:multiply">
<g style="mix-blend-mode:multiply">
<path d="M60.9114 66.307C60.9114 67.2558 60.6305 68.1833 60.1043 68.9722C59.5781 69.7611 58.8302 70.376 57.9552 70.7391C57.0802 71.1022 56.1173 71.1972 55.1883 71.0121C54.2594 70.827 53.4061 70.3701 52.7364 69.6992C52.0667 69.0283 51.6105 68.1735 51.4257 67.2429C51.241 66.3123 51.3358 65.3478 51.6983 64.4712C52.0608 63.5946 52.6745 62.8454 53.4621 62.3183C54.2496 61.7911 55.1754 61.5098 56.1225 61.5098C57.3926 61.5098 58.6107 62.0152 59.5087 62.9149C60.4068 63.8145 60.9114 65.0347 60.9114 66.307Z" fill="#FFA500"/>
</g>
</g>
<g style="mix-blend-mode:multiply">
<g style="mix-blend-mode:multiply">
<path d="M77.9077 66.307C77.9077 67.2558 77.6269 68.1833 77.1007 68.9722C76.5745 69.7611 75.8266 70.376 74.9515 70.7391C74.0765 71.1022 73.1136 71.1972 72.1847 71.0121C71.2557 70.827 70.4025 70.3701 69.7327 69.6992C69.063 69.0283 68.6069 68.1735 68.4221 67.2429C68.2373 66.3123 68.3322 65.3478 68.6946 64.4712C69.0571 63.5946 69.6709 62.8454 70.4584 62.3183C71.2459 61.7911 72.1717 61.5098 73.1189 61.5098C74.3889 61.5098 75.607 62.0152 76.5051 62.9149C77.4032 63.8145 77.9077 65.0347 77.9077 66.307Z" fill="#FFA500"/>
</g>
</g>
<g style="mix-blend-mode:multiply">
<g style="mix-blend-mode:multiply">
<path d="M90.137 71.1157C92.7818 71.1157 94.9258 68.968 94.9258 66.3186C94.9258 63.6692 92.7818 61.5215 90.137 61.5215C87.4922 61.5215 85.3481 63.6692 85.3481 66.3186C85.3481 68.968 87.4922 71.1157 90.137 71.1157Z" fill="#FFA500"/>
</g>
</g>
<g style="mix-blend-mode:multiply">
<g style="mix-blend-mode:multiply">
<path d="M107.166 71.1157C109.811 71.1157 111.955 68.968 111.955 66.3186C111.955 63.6692 109.811 61.5215 107.166 61.5215C104.521 61.5215 102.377 63.6692 102.377 66.3186C102.377 68.968 104.521 71.1157 107.166 71.1157Z" fill="#FFA500"/>
</g>
</g>
<g style="mix-blend-mode:multiply">
<g style="mix-blend-mode:multiply">
<path d="M128.962 66.307C128.962 67.2563 128.681 68.1842 128.154 68.9734C127.627 69.7625 126.879 70.3774 126.003 70.7402C125.127 71.1029 124.164 71.1973 123.235 71.0112C122.306 70.8252 121.452 70.3672 120.783 69.6952C120.114 69.0232 119.658 68.1673 119.475 67.236C119.291 66.3047 119.388 65.3398 119.752 64.4634C120.116 63.5871 120.732 62.8386 121.521 62.3128C122.31 61.787 123.237 61.5076 124.184 61.5098C125.452 61.5127 126.668 62.0195 127.563 62.9188C128.459 63.8181 128.962 65.0366 128.962 66.307Z" fill="#FFA500"/>
</g>
</g>
<g style="mix-blend-mode:multiply">
<g style="mix-blend-mode:multiply">
<path d="M145.946 66.307C145.946 67.2558 145.665 68.1833 145.139 68.9722C144.613 69.7611 143.865 70.376 142.99 70.7391C142.115 71.1022 141.152 71.1972 140.223 71.0121C139.294 70.827 138.441 70.3701 137.771 69.6992C137.102 69.0283 136.645 68.1735 136.461 67.2429C136.276 66.3123 136.371 65.3478 136.733 64.4712C137.096 63.5946 137.709 62.8454 138.497 62.3183C139.284 61.7911 140.21 61.5098 141.157 61.5098C142.428 61.5098 143.646 62.0152 144.544 62.9149C145.442 63.8145 145.946 65.0347 145.946 66.307Z" fill="#FFA500"/>
</g>
</g>
<g style="mix-blend-mode:multiply">
<g style="mix-blend-mode:multiply">
<path d="M163.009 66.307C163.009 67.2558 162.728 68.1833 162.202 68.9722C161.676 69.7611 160.928 70.376 160.053 70.7391C159.178 71.1022 158.215 71.1972 157.286 71.0121C156.357 70.827 155.504 70.3701 154.834 69.6992C154.165 69.0283 153.708 68.1735 153.524 67.2429C153.339 66.3123 153.434 65.3478 153.796 64.4712C154.159 63.5946 154.772 62.8454 155.56 62.3183C156.347 61.7911 157.273 61.5098 158.22 61.5098C159.491 61.5098 160.709 62.0152 161.607 62.9149C162.505 63.8145 163.009 65.0347 163.009 66.307Z" fill="#FFA500"/>
</g>
</g>
<g style="mix-blend-mode:multiply">
<g style="mix-blend-mode:multiply">
<path d="M5.03394 91.5357C7.67873 91.5357 9.82275 89.3879 9.82275 86.7385C9.82275 84.0892 7.67873 81.9414 5.03394 81.9414C2.38914 81.9414 0.245117 84.0892 0.245117 86.7385C0.245117 89.3879 2.38914 91.5357 5.03394 91.5357Z" fill="#FFA500"/>
</g>
</g>
<g style="mix-blend-mode:multiply">
<g style="mix-blend-mode:multiply">
<path d="M26.8413 86.7273C26.8435 87.6766 26.5645 88.6051 26.0397 89.3955C25.5148 90.1858 24.7677 90.8025 23.8929 91.1673C23.018 91.5321 22.0548 91.6287 21.1251 91.4448C20.1954 91.261 19.3411 90.805 18.6702 90.1346C17.9994 89.4641 17.5422 88.6094 17.3565 87.6785C17.1708 86.7477 17.265 85.7826 17.6271 84.9054C17.9892 84.0281 18.603 83.2783 19.3908 82.7507C20.1785 82.223 21.1049 81.9414 22.0525 81.9414C23.3206 81.9414 24.537 82.4453 25.4348 83.3425C26.3325 84.2397 26.8383 85.457 26.8413 86.7273Z" fill="#FFA500"/>
</g>
</g>
<g style="mix-blend-mode:multiply">
<g style="mix-blend-mode:multiply">
<path d="M43.8594 86.7273C43.8616 87.6766 43.5826 88.6051 43.0578 89.3955C42.5329 90.1858 41.7857 90.8025 40.9109 91.1673C40.0361 91.5321 39.0729 91.6287 38.1432 91.4448C37.2135 91.261 36.3592 90.805 35.6884 90.1346C35.0175 89.4641 34.5603 88.6094 34.3746 87.6785C34.1889 86.7477 34.2831 85.7826 34.6452 84.9054C35.0073 84.0281 35.6211 83.2783 36.4089 82.7507C37.1966 82.223 38.1229 81.9414 39.0705 81.9414C40.3387 81.9414 41.555 82.4453 42.4528 83.3425C43.3505 84.2397 43.8564 85.457 43.8594 86.7273Z" fill="#FFA500"/>
</g>
</g>
<g style="mix-blend-mode:multiply">
<g style="mix-blend-mode:multiply">
<path d="M60.9112 86.7273C60.9135 87.6766 60.6345 88.6051 60.1096 89.3955C59.5848 90.1859 58.8376 90.8025 57.9628 91.1673C57.088 91.5321 56.1248 91.6287 55.1951 91.4448C54.2655 91.261 53.4111 90.805 52.7403 90.1346C52.0695 89.4641 51.6123 88.6094 51.4266 87.6785C51.2409 86.7477 51.335 85.7826 51.6972 84.9054C52.0593 84.0282 52.6731 83.2783 53.4608 82.7507C54.2486 82.2231 55.1748 81.9414 56.1224 81.9414C56.7508 81.9399 57.3733 82.0626 57.9542 82.3025C58.5351 82.5423 59.0631 82.8946 59.5079 83.3392C59.9528 83.7838 60.3057 84.3119 60.5465 84.8933C60.7873 85.4746 60.9112 86.0979 60.9112 86.7273Z" fill="#FFA500"/>
</g>
</g>
<g style="mix-blend-mode:multiply">
<g style="mix-blend-mode:multiply">
<path d="M77.9077 86.7273C77.9099 87.6766 77.631 88.6051 77.1061 89.3955C76.5812 90.1858 75.8341 90.8025 74.9592 91.1673C74.0844 91.5321 73.1212 91.6287 72.1915 91.4448C71.2618 91.261 70.4075 90.805 69.7366 90.1346C69.0658 89.4641 68.6086 88.6094 68.4229 87.6785C68.2372 86.7477 68.3314 85.7826 68.6935 84.9054C69.0556 84.0281 69.6694 83.2783 70.4572 82.7507C71.2449 82.223 72.1712 81.9414 73.1188 81.9414C74.387 81.9414 75.6033 82.4453 76.5011 83.3425C77.3989 84.2397 77.9047 85.457 77.9077 86.7273Z" fill="#FFA500"/>
</g>
</g>
<g style="mix-blend-mode:multiply">
<g style="mix-blend-mode:multiply">
<path d="M90.137 91.5357C92.7818 91.5357 94.9258 89.3879 94.9258 86.7385C94.9258 84.0892 92.7818 81.9414 90.137 81.9414C87.4922 81.9414 85.3481 84.0892 85.3481 86.7385C85.3481 89.3879 87.4922 91.5357 90.137 91.5357Z" fill="#FFA500"/>
</g>
</g>
<g style="mix-blend-mode:multiply">
<g style="mix-blend-mode:multiply">
<path d="M107.166 91.5357C109.811 91.5357 111.955 89.3879 111.955 86.7385C111.955 84.0892 109.811 81.9414 107.166 81.9414C104.521 81.9414 102.377 84.0892 102.377 86.7385C102.377 89.3879 104.521 91.5357 107.166 91.5357Z" fill="#FFA500"/>
</g>
</g>
<g style="mix-blend-mode:multiply">
<g style="mix-blend-mode:multiply">
<path d="M128.962 86.7273C128.964 87.6771 128.685 88.6061 128.159 89.3967C127.634 90.1873 126.886 90.8039 126.011 91.1683C125.135 91.5328 124.172 91.6288 123.242 91.444C122.312 91.2593 121.457 90.8022 120.787 90.1306C120.117 89.459 119.66 88.6032 119.476 87.6716C119.291 86.7401 119.387 85.7746 119.751 84.8976C120.115 84.0206 120.73 83.2715 121.52 82.7452C122.309 82.2189 123.236 81.9392 124.184 81.9414C125.451 81.9414 126.667 82.4456 127.563 83.3432C128.459 84.2407 128.962 85.458 128.962 86.7273Z" fill="#FFA500"/>
</g>
</g>
<g style="mix-blend-mode:multiply">
<g style="mix-blend-mode:multiply">
<path d="M145.946 86.7273C145.948 87.6766 145.67 88.6051 145.145 89.3955C144.62 90.1858 143.873 90.8025 142.998 91.1673C142.123 91.5321 141.16 91.6287 140.23 91.4448C139.3 91.261 138.446 90.805 137.775 90.1346C137.104 89.4641 136.647 88.6094 136.462 87.6785C136.276 86.7477 136.37 85.7826 136.732 84.9054C137.094 84.0281 137.708 83.2783 138.496 82.7507C139.284 82.223 140.21 81.9414 141.157 81.9414C142.426 81.9414 143.642 82.4453 144.54 83.3425C145.437 84.2397 145.943 85.457 145.946 86.7273Z" fill="#FFA500"/>
</g>
</g>
<g style="mix-blend-mode:multiply">
<g style="mix-blend-mode:multiply">
<path d="M163.009 86.7274C163.011 87.6781 162.732 88.608 162.205 89.3991C161.679 90.1902 160.93 90.8067 160.053 91.1705C159.176 91.5343 158.211 91.6289 157.281 91.4424C156.35 91.2558 155.496 90.7965 154.826 90.1226C154.157 89.4488 153.702 88.5909 153.52 87.6579C153.339 86.7248 153.437 85.7587 153.805 84.882C154.172 84.0054 154.791 83.2579 155.583 82.7344C156.375 82.2108 157.305 81.9349 158.254 81.9415C159.516 81.9504 160.724 82.4582 161.615 83.3544C162.505 84.2507 163.006 85.4629 163.009 86.7274Z" fill="#FFA500"/>
</g>
</g>
<g style="mix-blend-mode:multiply">
<g style="mix-blend-mode:multiply">
<path d="M5.03394 111.957C7.67873 111.957 9.82275 109.81 9.82275 107.16C9.82275 104.511 7.67873 102.363 5.03394 102.363C2.38914 102.363 0.245117 104.511 0.245117 107.16C0.245117 109.81 2.38914 111.957 5.03394 111.957Z" fill="#FFA500"/>
</g>
</g>
<g style="mix-blend-mode:multiply">
<g style="mix-blend-mode:multiply">
<path d="M26.8413 107.16C26.8413 108.109 26.5604 109.037 26.0342 109.825C25.508 110.614 24.7602 111.229 23.8851 111.592C23.0101 111.955 22.0472 112.05 21.1182 111.865C20.1893 111.68 19.336 111.223 18.6663 110.552C17.9965 109.881 17.5405 109.027 17.3557 108.096C17.1709 107.166 17.2657 106.201 17.6282 105.325C17.9906 104.448 18.6044 103.699 19.3919 103.172C20.1795 102.645 21.1054 102.363 22.0525 102.363C23.3226 102.363 24.5406 102.869 25.4387 103.768C26.3368 104.668 26.8413 105.888 26.8413 107.16Z" fill="#FFA500"/>
</g>
</g>
<g style="mix-blend-mode:multiply">
<g style="mix-blend-mode:multiply">
<path d="M43.8594 107.16C43.8594 108.109 43.5785 109.037 43.0523 109.825C42.5261 110.614 41.7782 111.229 40.9031 111.592C40.0281 111.955 39.0652 112.05 38.1363 111.865C37.2074 111.68 36.3541 111.223 35.6844 110.552C35.0147 109.881 34.5585 109.027 34.3737 108.096C34.189 107.166 34.2838 106.201 34.6463 105.325C35.0087 104.448 35.6225 103.699 36.41 103.172C37.1976 102.645 38.1234 102.363 39.0705 102.363C40.3406 102.363 41.5587 102.869 42.4567 103.768C43.3548 104.668 43.8594 105.888 43.8594 107.16Z" fill="#FFA500"/>
</g>
</g>
<g style="mix-blend-mode:multiply">
<g style="mix-blend-mode:multiply">
<path d="M60.9114 107.16C60.9114 108.109 60.6305 109.037 60.1043 109.825C59.5781 110.614 58.8302 111.229 57.9552 111.592C57.0801 111.955 56.1172 112.05 55.1883 111.865C54.2594 111.68 53.4061 111.223 52.7364 110.552C52.0667 109.881 51.6105 109.027 51.4257 108.096C51.241 107.166 51.3358 106.201 51.6983 105.325C52.0608 104.448 52.6745 103.699 53.462 103.172C54.2496 102.645 55.1754 102.363 56.1225 102.363C56.7518 102.362 57.3752 102.485 57.9569 102.725C58.5386 102.966 59.067 103.319 59.512 103.765C59.957 104.211 60.3097 104.74 60.5498 105.323C60.79 105.905 60.9128 106.53 60.9114 107.16Z" fill="#FFA500"/>
</g>
</g>
<g style="mix-blend-mode:multiply">
<g style="mix-blend-mode:multiply">
<path d="M77.9077 107.16C77.9077 108.109 77.6269 109.037 77.1007 109.825C76.5745 110.614 75.8266 111.229 74.9515 111.592C74.0765 111.955 73.1136 112.05 72.1847 111.865C71.2557 111.68 70.4025 111.223 69.7327 110.552C69.063 109.881 68.6069 109.027 68.4221 108.096C68.2373 107.166 68.3322 106.201 68.6946 105.325C69.0571 104.448 69.6709 103.699 70.4584 103.172C71.2459 102.645 72.1717 102.363 73.1189 102.363C74.3889 102.363 75.607 102.869 76.5051 103.768C77.4032 104.668 77.9077 105.888 77.9077 107.16Z" fill="#FFA500"/>
</g>
</g>
<g style="mix-blend-mode:multiply">
<g style="mix-blend-mode:multiply">
<path d="M90.137 111.957C92.7818 111.957 94.9258 109.81 94.9258 107.16C94.9258 104.511 92.7818 102.363 90.137 102.363C87.4922 102.363 85.3481 104.511 85.3481 107.16C85.3481 109.81 87.4922 111.957 90.137 111.957Z" fill="#FFA500"/>
</g>
</g>
<g style="mix-blend-mode:multiply">
<g style="mix-blend-mode:multiply">
<path d="M107.166 111.957C109.811 111.957 111.955 109.81 111.955 107.16C111.955 104.511 109.811 102.363 107.166 102.363C104.521 102.363 102.377 104.511 102.377 107.16C102.377 109.81 104.521 111.957 107.166 111.957Z" fill="#FFA500"/>
</g>
</g>
<g style="mix-blend-mode:multiply">
<g style="mix-blend-mode:multiply">
<path d="M128.962 107.16C128.962 108.11 128.681 109.037 128.154 109.827C127.627 110.616 126.879 111.23 126.003 111.593C125.127 111.956 124.164 112.05 123.235 111.864C122.306 111.678 121.452 111.22 120.783 110.548C120.114 109.876 119.658 109.021 119.475 108.089C119.291 107.158 119.388 106.193 119.752 105.317C120.116 104.44 120.732 103.692 121.521 103.166C122.31 102.641 123.237 102.361 124.184 102.363C124.813 102.363 125.435 102.487 126.015 102.729C126.596 102.97 127.123 103.323 127.567 103.769C128.01 104.215 128.362 104.743 128.601 105.325C128.841 105.907 128.963 106.531 128.962 107.16Z" fill="#FFA500"/>
</g>
</g>
<g style="mix-blend-mode:multiply">
<g style="mix-blend-mode:multiply">
<path d="M145.946 107.16C145.946 108.109 145.665 109.037 145.139 109.825C144.613 110.614 143.865 111.229 142.99 111.592C142.115 111.955 141.152 112.05 140.223 111.865C139.294 111.68 138.441 111.223 137.771 110.552C137.102 109.881 136.645 109.027 136.461 108.096C136.276 107.166 136.371 106.201 136.733 105.325C137.096 104.448 137.709 103.699 138.497 103.172C139.284 102.645 140.21 102.363 141.157 102.363C142.428 102.363 143.646 102.869 144.544 103.768C145.442 104.668 145.946 105.888 145.946 107.16Z" fill="#FFA500"/>
</g>
</g>
<g style="mix-blend-mode:multiply">
<g style="mix-blend-mode:multiply">
<path d="M163.009 107.16C163.009 108.109 162.728 109.037 162.202 109.825C161.676 110.614 160.928 111.229 160.053 111.592C159.178 111.955 158.215 112.05 157.286 111.865C156.357 111.68 155.504 111.223 154.834 110.552C154.165 109.881 153.708 109.027 153.524 108.096C153.339 107.166 153.434 106.201 153.796 105.325C154.159 104.448 154.772 103.699 155.56 103.172C156.347 102.645 157.273 102.363 158.22 102.363C159.491 102.363 160.709 102.869 161.607 103.768C162.505 104.668 163.009 105.888 163.009 107.16Z" fill="#FFA500"/>
</g>
</g>
<g style="mix-blend-mode:multiply">
<g style="mix-blend-mode:multiply">
<path d="M5.03394 132.378C7.67873 132.378 9.82275 130.231 9.82275 127.581C9.82275 124.932 7.67873 122.784 5.03394 122.784C2.38914 122.784 0.245117 124.932 0.245117 127.581C0.245117 130.231 2.38914 132.378 5.03394 132.378Z" fill="#FFA500"/>
</g>
</g>
<g style="mix-blend-mode:multiply">
<g style="mix-blend-mode:multiply">
<path d="M26.8413 127.581C26.8413 128.53 26.5604 129.458 26.0342 130.246C25.508 131.035 24.7602 131.65 23.8851 132.013C23.0101 132.376 22.0472 132.471 21.1182 132.286C20.1893 132.101 19.336 131.644 18.6663 130.973C17.9965 130.302 17.5405 129.448 17.3557 128.517C17.1709 127.587 17.2657 126.622 17.6282 125.746C17.9906 124.869 18.6044 124.12 19.3919 123.593C20.1795 123.066 21.1054 122.784 22.0525 122.784C23.3226 122.784 24.5406 123.29 25.4387 124.189C26.3368 125.089 26.8413 126.309 26.8413 127.581Z" fill="#FFA500"/>
</g>
</g>
<g style="mix-blend-mode:multiply">
<g style="mix-blend-mode:multiply">
<path d="M43.8594 127.581C43.8594 128.53 43.5785 129.458 43.0523 130.246C42.5261 131.035 41.7782 131.65 40.9031 132.013C40.0281 132.376 39.0652 132.471 38.1363 132.286C37.2074 132.101 36.3541 131.644 35.6844 130.973C35.0147 130.302 34.5585 129.448 34.3737 128.517C34.189 127.587 34.2838 126.622 34.6463 125.746C35.0087 124.869 35.6225 124.12 36.41 123.593C37.1976 123.066 38.1234 122.784 39.0705 122.784C40.3406 122.784 41.5587 123.29 42.4567 124.189C43.3548 125.089 43.8594 126.309 43.8594 127.581Z" fill="#FFA500"/>
</g>
</g>
<g style="mix-blend-mode:multiply">
<g style="mix-blend-mode:multiply">
<path d="M60.9114 127.581C60.9114 128.53 60.6305 129.458 60.1043 130.246C59.5781 131.035 58.8302 131.65 57.9552 132.013C57.0802 132.376 56.1173 132.471 55.1883 132.286C54.2594 132.101 53.4061 131.644 52.7364 130.973C52.0667 130.302 51.6105 129.448 51.4257 128.517C51.241 127.587 51.3358 126.622 51.6983 125.746C52.0608 124.869 52.6745 124.12 53.4621 123.593C54.2496 123.066 55.1754 122.784 56.1225 122.784C57.3926 122.784 58.6107 123.29 59.5087 124.189C60.4068 125.089 60.9114 126.309 60.9114 127.581Z" fill="#FFA500"/>
</g>
</g>
<g style="mix-blend-mode:multiply">
<g style="mix-blend-mode:multiply">
<path d="M77.9077 127.581C77.9077 128.53 77.6269 129.458 77.1007 130.246C76.5745 131.035 75.8266 131.65 74.9515 132.013C74.0765 132.376 73.1136 132.471 72.1847 132.286C71.2557 132.101 70.4025 131.644 69.7327 130.973C69.063 130.302 68.6069 129.448 68.4221 128.517C68.2373 127.587 68.3322 126.622 68.6946 125.746C69.0571 124.869 69.6709 124.12 70.4584 123.593C71.2459 123.066 72.1717 122.784 73.1189 122.784C74.3889 122.784 75.607 123.29 76.5051 124.189C77.4032 125.089 77.9077 126.309 77.9077 127.581Z" fill="#FFA500"/>
</g>
</g>
<g style="mix-blend-mode:multiply">
<g style="mix-blend-mode:multiply">
<path d="M90.137 132.378C92.7818 132.378 94.9258 130.231 94.9258 127.581C94.9258 124.932 92.7818 122.784 90.137 122.784C87.4922 122.784 85.3481 124.932 85.3481 127.581C85.3481 130.231 87.4922 132.378 90.137 132.378Z" fill="#FFA500"/>
</g>
</g>
<g style="mix-blend-mode:multiply">
<g style="mix-blend-mode:multiply">
<path d="M107.166 132.378C109.811 132.378 111.955 130.231 111.955 127.581C111.955 124.932 109.811 122.784 107.166 122.784C104.521 122.784 102.377 124.932 102.377 127.581C102.377 130.231 104.521 132.378 107.166 132.378Z" fill="#FFA500"/>
</g>
</g>
<g style="mix-blend-mode:multiply">
<g style="mix-blend-mode:multiply">
<path d="M128.962 127.581C128.962 128.531 128.681 129.458 128.154 130.248C127.627 131.037 126.879 131.652 126.003 132.014C125.127 132.377 124.164 132.471 123.235 132.285C122.306 132.099 121.452 131.641 120.783 130.969C120.114 130.297 119.658 129.442 119.475 128.51C119.291 127.579 119.388 126.614 119.752 125.738C120.116 124.861 120.732 124.113 121.521 123.587C122.31 123.061 123.237 122.782 124.184 122.784C125.452 122.787 126.668 123.294 127.563 124.193C128.459 125.093 128.962 126.311 128.962 127.581Z" fill="#FFA500"/>
</g>
</g>
<g style="mix-blend-mode:multiply">
<g style="mix-blend-mode:multiply">
<path d="M145.946 127.581C145.946 128.53 145.665 129.458 145.139 130.246C144.613 131.035 143.865 131.65 142.99 132.013C142.115 132.376 141.152 132.471 140.223 132.286C139.294 132.101 138.441 131.644 137.771 130.973C137.102 130.302 136.645 129.448 136.461 128.517C136.276 127.587 136.371 126.622 136.733 125.746C137.096 124.869 137.709 124.12 138.497 123.593C139.284 123.066 140.21 122.784 141.157 122.784C142.428 122.784 143.646 123.29 144.544 124.189C145.442 125.089 145.946 126.309 145.946 127.581Z" fill="#FFA500"/>
</g>
</g>
<g style="mix-blend-mode:multiply">
<g style="mix-blend-mode:multiply">
<path d="M163.009 127.582C163 128.531 162.711 129.455 162.178 130.239C161.645 131.022 160.892 131.63 160.014 131.985C159.136 132.341 158.173 132.427 157.246 132.234C156.32 132.042 155.471 131.578 154.807 130.902C154.143 130.226 153.694 129.368 153.516 128.436C153.339 127.505 153.441 126.542 153.81 125.668C154.179 124.795 154.798 124.051 155.589 123.529C156.38 123.008 157.307 122.734 158.254 122.74C158.884 122.745 159.506 122.874 160.086 123.119C160.667 123.365 161.193 123.723 161.634 124.173C162.076 124.623 162.425 125.156 162.661 125.741C162.897 126.326 163.015 126.952 163.009 127.582Z" fill="#FFA500"/>
</g>
</g>
<g style="mix-blend-mode:multiply">
<g style="mix-blend-mode:multiply">
<path d="M9.82288 148.003C9.82288 148.952 9.54201 149.879 9.0158 150.668C8.4896 151.457 7.74164 152.072 6.86659 152.435C5.99154 152.798 5.0287 152.893 4.09975 152.708C3.1708 152.523 2.31747 152.066 1.64773 151.395C0.977997 150.724 0.521923 149.87 0.337144 148.939C0.152364 148.009 0.24717 147.044 0.609628 146.167C0.972086 145.291 1.58588 144.542 2.3734 144.015C3.16092 143.487 4.08683 143.206 5.03398 143.206C6.30407 143.206 7.52214 143.711 8.42023 144.611C9.31832 145.511 9.82288 146.731 9.82288 148.003Z" fill="#FFA500"/>
</g>
</g>
<g style="mix-blend-mode:multiply">
<g style="mix-blend-mode:multiply">
<path d="M26.8413 148.003C26.8413 148.952 26.5604 149.879 26.0342 150.668C25.508 151.457 24.7602 152.072 23.8851 152.435C23.0101 152.798 22.0472 152.893 21.1182 152.708C20.1893 152.523 19.336 152.066 18.6663 151.395C17.9965 150.724 17.5405 149.87 17.3557 148.939C17.1709 148.009 17.2657 147.044 17.6282 146.167C17.9906 145.291 18.6044 144.542 19.3919 144.015C20.1795 143.487 21.1054 143.206 22.0525 143.206C23.3226 143.206 24.5406 143.711 25.4387 144.611C26.3368 145.511 26.8413 146.731 26.8413 148.003Z" fill="#FFA500"/>
</g>
</g>
<g style="mix-blend-mode:multiply">
<g style="mix-blend-mode:multiply">
<path d="M43.8594 148.003C43.8594 148.952 43.5785 149.879 43.0523 150.668C42.5261 151.457 41.7782 152.072 40.9031 152.435C40.0281 152.798 39.0652 152.893 38.1363 152.708C37.2074 152.523 36.3541 152.066 35.6844 151.395C35.0147 150.724 34.5585 149.87 34.3737 148.939C34.189 148.009 34.2838 147.044 34.6463 146.167C35.0087 145.291 35.6225 144.542 36.41 144.015C37.1976 143.487 38.1234 143.206 39.0705 143.206C40.3406 143.206 41.5587 143.711 42.4567 144.611C43.3548 145.511 43.8594 146.731 43.8594 148.003Z" fill="#FFA500"/>
</g>
</g>
<g style="mix-blend-mode:multiply">
<g style="mix-blend-mode:multiply">
<path d="M60.9114 148.003C60.9114 148.952 60.6305 149.879 60.1043 150.668C59.5781 151.457 58.8302 152.072 57.9552 152.435C57.0802 152.798 56.1173 152.893 55.1883 152.708C54.2594 152.523 53.4061 152.066 52.7364 151.395C52.0667 150.724 51.6105 149.87 51.4257 148.939C51.241 148.009 51.3358 147.044 51.6983 146.167C52.0608 145.291 52.6745 144.542 53.4621 144.015C54.2496 143.487 55.1754 143.206 56.1225 143.206C57.3926 143.206 58.6107 143.711 59.5087 144.611C60.4068 145.511 60.9114 146.731 60.9114 148.003Z" fill="#FFA500"/>
</g>
</g>
<g style="mix-blend-mode:multiply">
<g style="mix-blend-mode:multiply">
<path d="M77.9077 148.003C77.9077 148.952 77.6269 149.879 77.1007 150.668C76.5745 151.457 75.8266 152.072 74.9515 152.435C74.0765 152.798 73.1136 152.893 72.1847 152.708C71.2557 152.523 70.4025 152.066 69.7327 151.395C69.063 150.724 68.6069 149.87 68.4221 148.939C68.2373 148.009 68.3322 147.044 68.6946 146.167C69.0571 145.291 69.6709 144.542 70.4584 144.015C71.2459 143.487 72.1717 143.206 73.1189 143.206C74.3889 143.206 75.607 143.711 76.5051 144.611C77.4032 145.511 77.9077 146.731 77.9077 148.003Z" fill="#FFA500"/>
</g>
</g>
<g style="mix-blend-mode:multiply">
<g style="mix-blend-mode:multiply">
<path d="M94.9259 148.003C94.9259 148.952 94.645 149.879 94.1188 150.668C93.5926 151.457 92.8447 152.072 91.9696 152.435C91.0946 152.798 90.1317 152.893 89.2028 152.708C88.2738 152.523 87.4205 152.066 86.7508 151.395C86.081 150.724 85.625 149.87 85.4402 148.939C85.2554 148.009 85.3502 147.044 85.7127 146.167C86.0751 145.291 86.689 144.542 87.4765 144.015C88.264 143.487 89.1899 143.206 90.137 143.206C91.4071 143.206 92.6252 143.711 93.5233 144.611C94.4213 145.511 94.9259 146.731 94.9259 148.003Z" fill="#FFA500"/>
</g>
</g>
<g style="mix-blend-mode:multiply">
<g style="mix-blend-mode:multiply">
<path d="M111.944 148.003C111.944 148.952 111.663 149.879 111.137 150.668C110.61 151.457 109.863 152.072 108.988 152.435C108.113 152.798 107.15 152.893 106.221 152.708C105.292 152.523 104.439 152.066 103.769 151.395C103.099 150.724 102.643 149.87 102.458 148.939C102.273 148.009 102.368 147.044 102.731 146.167C103.093 145.291 103.707 144.542 104.494 144.015C105.282 143.487 106.208 143.206 107.155 143.206C108.425 143.206 109.643 143.711 110.541 144.611C111.439 145.511 111.944 146.731 111.944 148.003Z" fill="#FFA500"/>
</g>
</g>
<g style="mix-blend-mode:multiply">
<g style="mix-blend-mode:multiply">
<path d="M128.962 148.003C128.962 148.952 128.681 149.88 128.154 150.67C127.627 151.459 126.879 152.073 126.003 152.436C125.127 152.799 124.164 152.893 123.235 152.707C122.306 152.521 121.452 152.063 120.783 151.391C120.114 150.719 119.658 149.863 119.475 148.932C119.291 148.001 119.388 147.036 119.752 146.16C120.116 145.283 120.732 144.535 121.521 144.009C122.31 143.483 123.237 143.204 124.184 143.206C125.452 143.209 126.668 143.716 127.563 144.615C128.459 145.514 128.962 146.733 128.962 148.003Z" fill="#FFA500"/>
</g>
</g>
<g style="mix-blend-mode:multiply">
<g style="mix-blend-mode:multiply">
<path d="M145.946 148.003C145.946 148.952 145.665 149.879 145.139 150.668C144.613 151.457 143.865 152.072 142.99 152.435C142.115 152.798 141.152 152.893 140.223 152.708C139.294 152.523 138.441 152.066 137.771 151.395C137.102 150.724 136.645 149.87 136.461 148.939C136.276 148.009 136.371 147.044 136.733 146.167C137.096 145.291 137.709 144.542 138.497 144.015C139.284 143.487 140.21 143.206 141.157 143.206C142.428 143.206 143.646 143.711 144.544 144.611C145.442 145.511 145.946 146.731 145.946 148.003Z" fill="#FFA500"/>
</g>
</g>
<g style="mix-blend-mode:multiply">
<g style="mix-blend-mode:multiply">
<path d="M163.009 148.003C163.009 148.952 162.728 149.879 162.202 150.668C161.676 151.457 160.928 152.072 160.053 152.435C159.178 152.798 158.215 152.893 157.286 152.708C156.357 152.523 155.504 152.066 154.834 151.395C154.165 150.724 153.708 149.87 153.524 148.939C153.339 148.009 153.434 147.044 153.796 146.167C154.159 145.291 154.772 144.542 155.56 144.015C156.347 143.487 157.273 143.206 158.22 143.206C159.491 143.206 160.709 143.711 161.607 144.611C162.505 145.511 163.009 146.731 163.009 148.003Z" fill="#FFA500"/>
</g>
</g>
</g>
</g>
</g>
</svg>
