<svg width="160" height="159" viewBox="0 0 160 159" fill="none" xmlns="http://www.w3.org/2000/svg">
<mask id="mask0" mask-type="alpha" maskUnits="userSpaceOnUse" x="0" y="0" width="160" height="159">
<ellipse cx="80" cy="79.4839" rx="80" ry="79.4839" fill="#C4C4C4"/>
</mask>
<g mask="url(#mask0)">
<g style="mix-blend-mode:multiply">
<g style="mix-blend-mode:multiply">
<g style="mix-blend-mode:multiply">
<g style="mix-blend-mode:multiply">
<path d="M9.82327 5.01371C9.82327 5.95473 9.5424 6.87461 9.0162 7.65704C8.49 8.43946 7.74205 9.04928 6.86701 9.40939C5.99197 9.7695 5.02914 9.86373 4.1002 9.68014C3.17126 9.49656 2.31793 9.04344 1.64821 8.37804C0.978478 7.71264 0.522408 6.86487 0.337631 5.94193C0.152854 5.019 0.247659 4.06235 0.610112 3.19297C0.972566 2.32358 1.58635 1.58051 2.37387 1.05771C3.16138 0.534907 4.08728 0.255859 5.03442 0.255859C6.30449 0.255859 7.52256 0.757118 8.42063 1.64939C9.31871 2.54166 9.82327 3.75185 9.82327 5.01371Z" fill="#FFA500"/>
</g>
</g>
<g style="mix-blend-mode:multiply">
<g style="mix-blend-mode:multiply">
<path d="M26.8413 5.01371C26.8413 5.95473 26.5604 6.87461 26.0342 7.65704C25.508 8.43946 24.7601 9.04928 23.8851 9.40939C23.01 9.7695 22.0471 9.86373 21.1182 9.68014C20.1893 9.49656 19.336 9.04344 18.6663 8.37804C17.9965 7.71264 17.5405 6.86487 17.3557 5.94193C17.1709 5.019 17.2657 4.06235 17.6282 3.19297C17.9906 2.32358 18.6044 1.58051 19.3919 1.05771C20.1794 0.534907 21.1053 0.255859 22.0525 0.255859C23.3226 0.255859 24.5405 0.757118 25.4386 1.64939C26.3367 2.54166 26.8413 3.75185 26.8413 5.01371Z" fill="#FFA500"/>
</g>
</g>
<g style="mix-blend-mode:multiply">
<g style="mix-blend-mode:multiply">
<path d="M43.8594 5.01371C43.8594 5.95473 43.5785 6.87461 43.0523 7.65704C42.5261 8.43946 41.7782 9.04928 40.9031 9.40939C40.0281 9.7695 39.0652 9.86373 38.1363 9.68014C37.2074 9.49656 36.3541 9.04344 35.6844 8.37804C35.0147 7.71264 34.5585 6.86487 34.3737 5.94193C34.189 5.019 34.2838 4.06235 34.6463 3.19297C35.0087 2.32358 35.6225 1.58051 36.41 1.05771C37.1976 0.534907 38.1234 0.255859 39.0705 0.255859C40.3406 0.255859 41.5587 0.757118 42.4567 1.64939C43.3548 2.54166 43.8594 3.75185 43.8594 5.01371Z" fill="#FFA500"/>
</g>
</g>
<g style="mix-blend-mode:multiply">
<g style="mix-blend-mode:multiply">
<path d="M60.9111 5.01372C60.9111 5.95474 60.6303 6.87461 60.1041 7.65704C59.5779 8.43946 58.83 9.04928 57.955 9.40939C57.0799 9.7695 56.117 9.86373 55.1881 9.68014C54.2591 9.49656 53.4059 9.04344 52.7361 8.37804C52.0664 7.71265 51.6103 6.86487 51.4255 5.94194C51.2407 5.01901 51.3356 4.06236 51.6981 3.19298C52.0605 2.32359 52.6743 1.58052 53.4618 1.05772C54.2493 0.534919 55.1752 0.255872 56.1223 0.255872C56.7516 0.254406 57.375 0.376483 57.9567 0.615068C58.5383 0.853653 59.0668 1.20404 59.5118 1.64614C59.9568 2.08824 60.3095 2.61334 60.5496 3.19125C60.7897 3.76916 60.9126 4.3885 60.9111 5.01372Z" fill="#FFA500"/>
</g>
</g>
<g style="mix-blend-mode:multiply">
<g style="mix-blend-mode:multiply">
<path d="M77.9072 5.01371C77.9072 5.95473 77.6264 6.87461 77.1002 7.65704C76.574 8.43946 75.8261 9.04928 74.951 9.40939C74.076 9.7695 73.1131 9.86373 72.1842 9.68014C71.2552 9.49656 70.402 9.04344 69.7322 8.37804C69.0625 7.71264 68.6064 6.86487 68.4216 5.94193C68.2368 5.019 68.3317 4.06235 68.6941 3.19297C69.0566 2.32358 69.6704 1.58051 70.4579 1.05771C71.2454 0.534907 72.1712 0.255859 73.1184 0.255859C74.3885 0.255859 75.6065 0.757118 76.5046 1.64939C77.4027 2.54166 77.9072 3.75185 77.9072 5.01371Z" fill="#FFA500"/>
</g>
</g>
<g style="mix-blend-mode:multiply">
<g style="mix-blend-mode:multiply">
<path d="M94.9253 5.01371C94.9253 5.95473 94.6444 6.87461 94.1182 7.65704C93.592 8.43946 92.8441 9.04928 91.9691 9.40939C91.094 9.7695 90.1312 9.86373 89.2022 9.68014C88.2733 9.49656 87.42 9.04344 86.7503 8.37804C86.0805 7.71264 85.6245 6.86487 85.4397 5.94193C85.2549 5.019 85.3497 4.06235 85.7122 3.19297C86.0746 2.32358 86.6885 1.58051 87.476 1.05771C88.2635 0.534907 89.1893 0.255859 90.1365 0.255859C91.4065 0.255859 92.6246 0.757118 93.5227 1.64939C94.4208 2.54166 94.9253 3.75185 94.9253 5.01371Z" fill="#FFA500"/>
</g>
</g>
<g style="mix-blend-mode:multiply">
<g style="mix-blend-mode:multiply">
<path d="M111.944 5.01372C111.944 5.95474 111.663 6.87461 111.137 7.65704C110.611 8.43946 109.863 9.04928 108.988 9.40939C108.113 9.7695 107.15 9.86373 106.221 9.68014C105.292 9.49656 104.439 9.04344 103.769 8.37804C103.099 7.71265 102.643 6.86487 102.458 5.94194C102.273 5.01901 102.368 4.06236 102.731 3.19298C103.093 2.32359 103.707 1.58052 104.494 1.05772C105.282 0.534919 106.208 0.255872 107.155 0.255872C107.784 0.254406 108.408 0.376483 108.989 0.615068C109.571 0.853653 110.1 1.20404 110.545 1.64614C110.989 2.08824 111.342 2.61334 111.582 3.19125C111.822 3.76916 111.945 4.3885 111.944 5.01372Z" fill="#FFA500"/>
</g>
</g>
<g style="mix-blend-mode:multiply">
<g style="mix-blend-mode:multiply">
<path d="M128.962 5.01372C128.962 5.95521 128.681 6.87553 128.154 7.65819C127.627 8.44086 126.879 9.05066 126.003 9.41044C125.127 9.77022 124.164 9.86382 123.235 9.67933C122.306 9.49485 121.452 9.04059 120.783 8.37408C120.114 7.70757 119.658 6.85875 119.475 5.93509C119.291 5.01142 119.388 4.05443 119.752 3.18524C120.116 2.31606 120.732 1.57375 121.521 1.05229C122.31 0.53083 123.237 0.253673 124.184 0.255872C124.813 0.255871 125.435 0.379016 126.015 0.618257C126.596 0.857498 127.123 1.20813 127.567 1.65008C128.01 2.09203 128.362 2.61664 128.601 3.19383C128.841 3.77101 128.963 4.38944 128.962 5.01372Z" fill="#FFA500"/>
</g>
</g>
<g style="mix-blend-mode:multiply">
<g style="mix-blend-mode:multiply">
<path d="M145.946 5.01371C145.946 5.95473 145.665 6.87461 145.139 7.65704C144.613 8.43946 143.865 9.04928 142.99 9.40939C142.115 9.7695 141.152 9.86373 140.223 9.68014C139.294 9.49656 138.441 9.04344 137.771 8.37804C137.102 7.71264 136.645 6.86487 136.461 5.94193C136.276 5.019 136.371 4.06235 136.733 3.19297C137.096 2.32358 137.709 1.58051 138.497 1.05771C139.284 0.534907 140.21 0.255859 141.157 0.255859C142.428 0.255859 143.646 0.757118 144.544 1.64939C145.442 2.54166 145.946 3.75185 145.946 5.01371Z" fill="#FFA500"/>
</g>
</g>
<g style="mix-blend-mode:multiply">
<g style="mix-blend-mode:multiply">
<path d="M163.009 5.01371C163.009 5.95473 162.728 6.87461 162.202 7.65704C161.676 8.43946 160.928 9.04928 160.053 9.40939C159.178 9.7695 158.215 9.86373 157.286 9.68014C156.357 9.49656 155.504 9.04344 154.834 8.37804C154.165 7.71264 153.708 6.86487 153.524 5.94193C153.339 5.019 153.434 4.06235 153.796 3.19297C154.159 2.32358 154.772 1.58051 155.56 1.05771C156.347 0.534907 157.273 0.255859 158.22 0.255859C159.491 0.255859 160.709 0.757118 161.607 1.64939C162.505 2.54166 163.009 3.75185 163.009 5.01371Z" fill="#FFA500"/>
</g>
</g>
<g style="mix-blend-mode:multiply">
<g style="mix-blend-mode:multiply">
<path d="M9.82327 25.2569C9.82327 26.1979 9.5424 27.1178 9.0162 27.9002C8.49 28.6826 7.74205 29.2924 6.86701 29.6526C5.99197 30.0127 5.02914 30.1069 4.1002 29.9233C3.17126 29.7397 2.31793 29.2866 1.64821 28.6212C0.978478 27.9558 0.522408 27.108 0.337631 26.1851C0.152854 25.2621 0.247659 24.3055 0.610112 23.4361C0.972566 22.5667 1.58635 21.8237 2.37387 21.3009C3.16138 20.7781 4.08728 20.499 5.03442 20.499C6.30449 20.499 7.52256 21.0003 8.42063 21.8926C9.31871 22.7849 9.82327 23.995 9.82327 25.2569Z" fill="#FFA500"/>
</g>
</g>
<g style="mix-blend-mode:multiply">
<g style="mix-blend-mode:multiply">
<path d="M26.8413 25.2569C26.8413 26.1979 26.5604 27.1178 26.0342 27.9002C25.508 28.6826 24.7601 29.2924 23.8851 29.6526C23.01 30.0127 22.0471 30.1069 21.1182 29.9233C20.1893 29.7397 19.336 29.2866 18.6663 28.6212C17.9965 27.9558 17.5405 27.108 17.3557 26.1851C17.1709 25.2621 17.2657 24.3055 17.6282 23.4361C17.9906 22.5667 18.6044 21.8237 19.3919 21.3009C20.1794 20.7781 21.1053 20.499 22.0525 20.499C23.3226 20.499 24.5405 21.0003 25.4386 21.8926C26.3367 22.7849 26.8413 23.995 26.8413 25.2569Z" fill="#FFA500"/>
</g>
</g>
<g style="mix-blend-mode:multiply">
<g style="mix-blend-mode:multiply">
<path d="M43.8594 25.2569C43.8594 26.1979 43.5785 27.1178 43.0523 27.9002C42.5261 28.6826 41.7782 29.2924 40.9031 29.6526C40.0281 30.0127 39.0652 30.1069 38.1363 29.9233C37.2074 29.7397 36.3541 29.2866 35.6844 28.6212C35.0147 27.9558 34.5585 27.108 34.3737 26.1851C34.189 25.2621 34.2838 24.3055 34.6463 23.4361C35.0087 22.5667 35.6225 21.8237 36.41 21.3009C37.1976 20.7781 38.1234 20.499 39.0705 20.499C40.3406 20.499 41.5587 21.0003 42.4567 21.8926C43.3548 22.7849 43.8594 23.995 43.8594 25.2569Z" fill="#FFA500"/>
</g>
</g>
<g style="mix-blend-mode:multiply">
<g style="mix-blend-mode:multiply">
<path d="M60.9111 25.2569C60.9111 26.1979 60.6303 27.1178 60.1041 27.9002C59.5779 28.6826 58.83 29.2924 57.9549 29.6526C57.0799 30.0127 56.117 30.1069 55.1881 29.9233C54.2591 29.7397 53.4059 29.2866 52.7361 28.6212C52.0664 27.9558 51.6103 27.108 51.4255 26.1851C51.2407 25.2621 51.3356 24.3055 51.6981 23.4361C52.0605 22.5667 52.6743 21.8237 53.4618 21.3009C54.2493 20.7781 55.1752 20.499 56.1223 20.499C57.3924 20.499 58.6104 21.0003 59.5085 21.8926C60.4066 22.7849 60.9111 23.995 60.9111 25.2569Z" fill="#FFA500"/>
</g>
</g>
<g style="mix-blend-mode:multiply">
<g style="mix-blend-mode:multiply">
<path d="M77.9072 25.2569C77.9072 26.1979 77.6264 27.1178 77.1002 27.9002C76.574 28.6826 75.8261 29.2924 74.951 29.6526C74.076 30.0127 73.1131 30.1069 72.1842 29.9233C71.2552 29.7397 70.402 29.2866 69.7322 28.6212C69.0625 27.9558 68.6064 27.108 68.4216 26.1851C68.2368 25.2621 68.3317 24.3055 68.6941 23.4361C69.0566 22.5667 69.6704 21.8237 70.4579 21.3009C71.2454 20.7781 72.1712 20.499 73.1184 20.499C74.3885 20.499 75.6065 21.0003 76.5046 21.8926C77.4027 22.7849 77.9072 23.995 77.9072 25.2569Z" fill="#FFA500"/>
</g>
</g>
<g style="mix-blend-mode:multiply">
<g style="mix-blend-mode:multiply">
<path d="M94.9253 25.2569C94.9253 26.1979 94.6444 27.1178 94.1182 27.9002C93.592 28.6826 92.8441 29.2924 91.9691 29.6526C91.094 30.0127 90.1312 30.1069 89.2022 29.9233C88.2733 29.7397 87.42 29.2866 86.7503 28.6212C86.0805 27.9558 85.6245 27.108 85.4397 26.1851C85.2549 25.2621 85.3497 24.3055 85.7122 23.4361C86.0746 22.5667 86.6885 21.8237 87.476 21.3009C88.2635 20.7781 89.1893 20.499 90.1365 20.499C91.4065 20.499 92.6246 21.0003 93.5227 21.8926C94.4208 22.7849 94.9253 23.995 94.9253 25.2569Z" fill="#FFA500"/>
</g>
</g>
<g style="mix-blend-mode:multiply">
<g style="mix-blend-mode:multiply">
<path d="M111.944 25.2569C111.944 26.1979 111.663 27.1178 111.137 27.9002C110.611 28.6826 109.863 29.2924 108.988 29.6526C108.113 30.0127 107.15 30.1069 106.221 29.9233C105.292 29.7397 104.439 29.2866 103.769 28.6212C103.099 27.9558 102.643 27.108 102.458 26.1851C102.273 25.2621 102.368 24.3055 102.731 23.4361C103.093 22.5667 103.707 21.8237 104.494 21.3009C105.282 20.7781 106.208 20.499 107.155 20.499C108.425 20.499 109.643 21.0003 110.541 21.8926C111.439 22.7849 111.944 23.995 111.944 25.2569Z" fill="#FFA500"/>
</g>
</g>
<g style="mix-blend-mode:multiply">
<g style="mix-blend-mode:multiply">
<path d="M128.962 25.2569C128.962 26.1984 128.681 27.1187 128.154 27.9014C127.627 28.684 126.879 29.2939 126.003 29.6536C125.127 30.0134 124.164 30.107 123.235 29.9225C122.306 29.738 121.452 29.2837 120.783 28.6172C120.114 27.9507 119.658 27.1019 119.475 26.1783C119.291 25.2546 119.388 24.2976 119.752 23.4284C120.116 22.5593 120.732 21.8169 121.521 21.2955C122.31 20.774 123.237 20.4968 124.184 20.499C125.452 20.502 126.668 21.0045 127.563 21.8965C128.459 22.7885 128.962 23.9969 128.962 25.2569Z" fill="#FFA500"/>
</g>
</g>
<g style="mix-blend-mode:multiply">
<g style="mix-blend-mode:multiply">
<path d="M145.946 25.2569C145.946 26.1979 145.665 27.1178 145.139 27.9002C144.613 28.6826 143.865 29.2924 142.99 29.6526C142.115 30.0127 141.152 30.1069 140.223 29.9233C139.294 29.7397 138.441 29.2866 137.771 28.6212C137.102 27.9558 136.645 27.108 136.461 26.1851C136.276 25.2621 136.371 24.3055 136.733 23.4361C137.096 22.5667 137.709 21.8237 138.497 21.3009C139.284 20.7781 140.21 20.499 141.157 20.499C142.428 20.499 143.646 21.0003 144.544 21.8926C145.442 22.7849 145.946 23.995 145.946 25.2569Z" fill="#FFA500"/>
</g>
</g>
<g style="mix-blend-mode:multiply">
<g style="mix-blend-mode:multiply">
<path d="M163.009 25.2569C163.009 26.1979 162.728 27.1178 162.202 27.9002C161.676 28.6826 160.928 29.2924 160.053 29.6526C159.178 30.0127 158.215 30.1069 157.286 29.9233C156.357 29.7397 155.504 29.2866 154.834 28.6212C154.165 27.9558 153.708 27.108 153.524 26.1851C153.339 25.2621 153.434 24.3055 153.796 23.4361C154.159 22.5667 154.772 21.8237 155.56 21.3009C156.347 20.7781 157.273 20.499 158.22 20.499C159.491 20.499 160.709 21.0003 161.607 21.8926C162.505 22.7849 163.009 23.995 163.009 25.2569Z" fill="#FFA500"/>
</g>
</g>
<g style="mix-blend-mode:multiply">
<g style="mix-blend-mode:multiply">
<path d="M9.82327 45.5118C9.82327 46.4528 9.5424 47.3727 9.0162 48.1551C8.49 48.9375 7.74205 49.5474 6.86701 49.9075C5.99197 50.2676 5.02914 50.3618 4.1002 50.1782C3.17126 49.9946 2.31793 49.5415 1.64821 48.8761C0.978478 48.2107 0.522408 47.3629 0.337631 46.44C0.152854 45.517 0.247659 44.5604 0.610112 43.691C0.972566 42.8216 1.58635 42.0786 2.37387 41.5558C3.16138 41.033 4.08728 40.7539 5.03442 40.7539C6.30449 40.7539 7.52256 41.2552 8.42063 42.1475C9.31871 43.0397 9.82327 44.2499 9.82327 45.5118Z" fill="#FFA500"/>
</g>
</g>
<g style="mix-blend-mode:multiply">
<g style="mix-blend-mode:multiply">
<path d="M26.8413 45.5118C26.8413 46.4528 26.5604 47.3727 26.0342 48.1551C25.508 48.9375 24.7601 49.5474 23.8851 49.9075C23.01 50.2676 22.0471 50.3618 21.1182 50.1782C20.1893 49.9946 19.336 49.5415 18.6663 48.8761C17.9965 48.2107 17.5405 47.3629 17.3557 46.44C17.1709 45.517 17.2657 44.5604 17.6282 43.691C17.9906 42.8216 18.6044 42.0786 19.3919 41.5558C20.1794 41.033 21.1053 40.7539 22.0525 40.7539C23.3226 40.7539 24.5405 41.2552 25.4386 42.1475C26.3367 43.0397 26.8413 44.2499 26.8413 45.5118Z" fill="#FFA500"/>
</g>
</g>
<g style="mix-blend-mode:multiply">
<g style="mix-blend-mode:multiply">
<path d="M43.8594 45.5118C43.8594 46.4528 43.5785 47.3727 43.0523 48.1551C42.5261 48.9375 41.7782 49.5474 40.9031 49.9075C40.0281 50.2676 39.0652 50.3618 38.1363 50.1782C37.2074 49.9946 36.3541 49.5415 35.6844 48.8761C35.0147 48.2107 34.5585 47.3629 34.3737 46.44C34.189 45.517 34.2838 44.5604 34.6463 43.691C35.0087 42.8216 35.6225 42.0786 36.41 41.5558C37.1976 41.033 38.1234 40.7539 39.0705 40.7539C40.3406 40.7539 41.5587 41.2552 42.4567 42.1475C43.3548 43.0397 43.8594 44.2499 43.8594 45.5118Z" fill="#FFA500"/>
</g>
</g>
<g style="mix-blend-mode:multiply">
<g style="mix-blend-mode:multiply">
<path d="M60.9111 45.5118C60.9111 46.4528 60.6303 47.3727 60.1041 48.1551C59.5779 48.9375 58.83 49.5474 57.9549 49.9075C57.0799 50.2676 56.117 50.3618 55.1881 50.1782C54.2591 49.9946 53.4059 49.5415 52.7361 48.8761C52.0664 48.2107 51.6103 47.3629 51.4255 46.44C51.2407 45.517 51.3356 44.5604 51.6981 43.691C52.0605 42.8216 52.6743 42.0786 53.4618 41.5558C54.2493 41.033 55.1752 40.7539 56.1223 40.7539C57.3924 40.7539 58.6104 41.2552 59.5085 42.1475C60.4066 43.0397 60.9111 44.2499 60.9111 45.5118Z" fill="#FFA500"/>
</g>
</g>
<g style="mix-blend-mode:multiply">
<g style="mix-blend-mode:multiply">
<path d="M77.9072 45.5118C77.9072 46.4528 77.6264 47.3727 77.1002 48.1551C76.574 48.9375 75.8261 49.5474 74.951 49.9075C74.076 50.2676 73.1131 50.3618 72.1842 50.1782C71.2552 49.9946 70.402 49.5415 69.7322 48.8761C69.0625 48.2107 68.6064 47.3629 68.4216 46.44C68.2368 45.517 68.3317 44.5604 68.6941 43.691C69.0566 42.8216 69.6704 42.0786 70.4579 41.5558C71.2454 41.033 72.1712 40.7539 73.1184 40.7539C74.3885 40.7539 75.6065 41.2552 76.5046 42.1475C77.4027 43.0397 77.9072 44.2499 77.9072 45.5118Z" fill="#FFA500"/>
</g>
</g>
<g style="mix-blend-mode:multiply">
<g style="mix-blend-mode:multiply">
<path d="M94.9253 45.5118C94.9253 46.4528 94.6444 47.3727 94.1182 48.1551C93.592 48.9375 92.8441 49.5474 91.9691 49.9075C91.094 50.2676 90.1312 50.3618 89.2022 50.1782C88.2733 49.9946 87.42 49.5415 86.7503 48.8761C86.0805 48.2107 85.6245 47.3629 85.4397 46.44C85.2549 45.517 85.3497 44.5604 85.7122 43.691C86.0746 42.8216 86.6885 42.0786 87.476 41.5558C88.2635 41.033 89.1893 40.7539 90.1365 40.7539C91.4065 40.7539 92.6246 41.2552 93.5227 42.1475C94.4208 43.0397 94.9253 44.2499 94.9253 45.5118Z" fill="#FFA500"/>
</g>
</g>
<g style="mix-blend-mode:multiply">
<g style="mix-blend-mode:multiply">
<path d="M111.944 45.5118C111.944 46.4528 111.663 47.3727 111.137 48.1551C110.611 48.9375 109.863 49.5474 108.988 49.9075C108.113 50.2676 107.15 50.3618 106.221 50.1782C105.292 49.9946 104.439 49.5415 103.769 48.8761C103.099 48.2107 102.643 47.3629 102.458 46.44C102.273 45.517 102.368 44.5604 102.731 43.691C103.093 42.8216 103.707 42.0786 104.494 41.5558C105.282 41.033 106.208 40.7539 107.155 40.7539C108.425 40.7539 109.643 41.2552 110.541 42.1475C111.439 43.0397 111.944 44.2499 111.944 45.5118Z" fill="#FFA500"/>
</g>
</g>
<g style="mix-blend-mode:multiply">
<g style="mix-blend-mode:multiply">
<path d="M128.962 45.5118C128.962 46.4533 128.681 47.3736 128.154 48.1562C127.627 48.9389 126.879 49.5487 126.003 49.9085C125.127 50.2683 124.164 50.3619 123.235 50.1774C122.306 49.9929 121.452 49.5386 120.783 48.8721C120.114 48.2056 119.658 47.3568 119.475 46.4332C119.291 45.5095 119.388 44.5525 119.752 43.6833C120.116 42.8141 120.732 42.0718 121.521 41.5504C122.31 41.0289 123.237 40.7517 124.184 40.7539C125.452 40.7569 126.668 41.2594 127.563 42.1514C128.459 43.0433 128.962 44.2518 128.962 45.5118Z" fill="#FFA500"/>
</g>
</g>
<g style="mix-blend-mode:multiply">
<g style="mix-blend-mode:multiply">
<path d="M145.946 45.5118C145.946 46.4528 145.665 47.3727 145.139 48.1551C144.613 48.9375 143.865 49.5474 142.99 49.9075C142.115 50.2676 141.152 50.3618 140.223 50.1782C139.294 49.9946 138.441 49.5415 137.771 48.8761C137.102 48.2107 136.645 47.3629 136.461 46.44C136.276 45.517 136.371 44.5604 136.733 43.691C137.096 42.8216 137.709 42.0786 138.497 41.5558C139.284 41.033 140.21 40.7539 141.157 40.7539C142.428 40.7539 143.646 41.2552 144.544 42.1475C145.442 43.0397 145.946 44.2499 145.946 45.5118Z" fill="#FFA500"/>
</g>
</g>
<g style="mix-blend-mode:multiply">
<g style="mix-blend-mode:multiply">
<path d="M163.009 45.5118C163.009 46.4528 162.728 47.3727 162.202 48.1551C161.676 48.9375 160.928 49.5474 160.053 49.9075C159.178 50.2676 158.215 50.3618 157.286 50.1782C156.357 49.9946 155.504 49.5415 154.834 48.8761C154.165 48.2107 153.708 47.3629 153.524 46.44C153.339 45.517 153.434 44.5604 153.796 43.691C154.159 42.8216 154.772 42.0786 155.56 41.5558C156.347 41.033 157.273 40.7539 158.22 40.7539C159.491 40.7539 160.709 41.2552 161.607 42.1475C162.505 43.0397 163.009 44.2499 163.009 45.5118Z" fill="#FFA500"/>
</g>
</g>
<g style="mix-blend-mode:multiply">
<g style="mix-blend-mode:multiply">
<path d="M5.03442 70.5345C7.6792 70.5345 9.82323 68.4043 9.82323 65.7765C9.82323 63.1488 7.6792 61.0186 5.03442 61.0186C2.38963 61.0186 0.245605 63.1488 0.245605 65.7765C0.245605 68.4043 2.38963 70.5345 5.03442 70.5345Z" fill="#FFA500"/>
</g>
</g>
<g style="mix-blend-mode:multiply">
<g style="mix-blend-mode:multiply">
<path d="M26.8413 65.7657C26.8413 66.7067 26.5604 67.6266 26.0342 68.409C25.508 69.1914 24.7601 69.8013 23.8851 70.1614C23.01 70.5215 22.0471 70.6157 21.1182 70.4321C20.1893 70.2485 19.336 69.7954 18.6663 69.13C17.9965 68.4646 17.5405 67.6168 17.3557 66.6939C17.1709 65.7709 17.2657 64.8143 17.6282 63.9449C17.9906 63.0755 18.6044 62.3325 19.3919 61.8097C20.1794 61.2869 21.1053 61.0078 22.0525 61.0078C23.3226 61.0078 24.5405 61.5091 25.4386 62.4014C26.3367 63.2936 26.8413 64.5038 26.8413 65.7657Z" fill="#FFA500"/>
</g>
</g>
<g style="mix-blend-mode:multiply">
<g style="mix-blend-mode:multiply">
<path d="M43.8594 65.7657C43.8594 66.7067 43.5785 67.6266 43.0523 68.409C42.5261 69.1914 41.7782 69.8013 40.9031 70.1614C40.0281 70.5215 39.0652 70.6157 38.1363 70.4321C37.2074 70.2485 36.3541 69.7954 35.6844 69.13C35.0147 68.4646 34.5585 67.6168 34.3737 66.6939C34.189 65.7709 34.2838 64.8143 34.6463 63.9449C35.0087 63.0755 35.6225 62.3325 36.41 61.8097C37.1976 61.2869 38.1234 61.0078 39.0705 61.0078C40.3406 61.0078 41.5587 61.5091 42.4567 62.4014C43.3548 63.2936 43.8594 64.5038 43.8594 65.7657Z" fill="#FFA500"/>
</g>
</g>
<g style="mix-blend-mode:multiply">
<g style="mix-blend-mode:multiply">
<path d="M60.9111 65.7657C60.9111 66.7067 60.6303 67.6266 60.1041 68.409C59.5779 69.1914 58.83 69.8013 57.9549 70.1614C57.0799 70.5215 56.117 70.6157 55.1881 70.4321C54.2591 70.2485 53.4059 69.7954 52.7361 69.13C52.0664 68.4646 51.6103 67.6168 51.4255 66.6939C51.2407 65.7709 51.3356 64.8143 51.6981 63.9449C52.0605 63.0755 52.6743 62.3325 53.4618 61.8097C54.2493 61.2869 55.1752 61.0078 56.1223 61.0078C57.3924 61.0078 58.6104 61.5091 59.5085 62.4014C60.4066 63.2936 60.9111 64.5038 60.9111 65.7657Z" fill="#FFA500"/>
</g>
</g>
<g style="mix-blend-mode:multiply">
<g style="mix-blend-mode:multiply">
<path d="M77.9072 65.7657C77.9072 66.7067 77.6264 67.6266 77.1002 68.409C76.574 69.1914 75.8261 69.8013 74.951 70.1614C74.076 70.5215 73.1131 70.6157 72.1842 70.4321C71.2552 70.2485 70.402 69.7954 69.7322 69.13C69.0625 68.4646 68.6064 67.6168 68.4216 66.6939C68.2368 65.7709 68.3317 64.8143 68.6941 63.9449C69.0566 63.0755 69.6704 62.3325 70.4579 61.8097C71.2454 61.2869 72.1712 61.0078 73.1184 61.0078C74.3885 61.0078 75.6065 61.5091 76.5046 62.4014C77.4027 63.2936 77.9072 64.5038 77.9072 65.7657Z" fill="#FFA500"/>
</g>
</g>
<g style="mix-blend-mode:multiply">
<g style="mix-blend-mode:multiply">
<path d="M90.1365 70.5345C92.7813 70.5345 94.9253 68.4043 94.9253 65.7765C94.9253 63.1488 92.7813 61.0186 90.1365 61.0186C87.4917 61.0186 85.3477 63.1488 85.3477 65.7765C85.3477 68.4043 87.4917 70.5345 90.1365 70.5345Z" fill="#FFA500"/>
</g>
</g>
<g style="mix-blend-mode:multiply">
<g style="mix-blend-mode:multiply">
<path d="M107.166 70.5345C109.811 70.5345 111.955 68.4043 111.955 65.7765C111.955 63.1488 109.811 61.0186 107.166 61.0186C104.521 61.0186 102.377 63.1488 102.377 65.7765C102.377 68.4043 104.521 70.5345 107.166 70.5345Z" fill="#FFA500"/>
</g>
</g>
<g style="mix-blend-mode:multiply">
<g style="mix-blend-mode:multiply">
<path d="M128.962 65.7657C128.962 66.7072 128.681 67.6275 128.154 68.4101C127.627 69.1928 126.879 69.8026 126.003 70.1624C125.127 70.5222 124.164 70.6158 123.235 70.4313C122.306 70.2468 121.452 69.7925 120.783 69.126C120.114 68.4595 119.658 67.6107 119.475 66.6871C119.291 65.7634 119.388 64.8064 119.752 63.9372C120.116 63.068 120.732 62.3257 121.521 61.8043C122.31 61.2828 123.237 61.0056 124.184 61.0078C125.452 61.0108 126.668 61.5133 127.563 62.4053C128.459 63.2972 128.962 64.5057 128.962 65.7657Z" fill="#FFA500"/>
</g>
</g>
<g style="mix-blend-mode:multiply">
<g style="mix-blend-mode:multiply">
<path d="M145.946 65.7657C145.946 66.7067 145.665 67.6266 145.139 68.409C144.613 69.1914 143.865 69.8013 142.99 70.1614C142.115 70.5215 141.152 70.6157 140.223 70.4321C139.294 70.2485 138.441 69.7954 137.771 69.13C137.102 68.4646 136.645 67.6168 136.461 66.6939C136.276 65.7709 136.371 64.8143 136.733 63.9449C137.096 63.0755 137.709 62.3325 138.497 61.8097C139.284 61.2869 140.21 61.0078 141.157 61.0078C142.428 61.0078 143.646 61.5091 144.544 62.4014C145.442 63.2936 145.946 64.5038 145.946 65.7657Z" fill="#FFA500"/>
</g>
</g>
<g style="mix-blend-mode:multiply">
<g style="mix-blend-mode:multiply">
<path d="M163.009 65.7657C163.009 66.7067 162.728 67.6266 162.202 68.409C161.676 69.1914 160.928 69.8013 160.053 70.1614C159.178 70.5215 158.215 70.6157 157.286 70.4321C156.357 70.2485 155.504 69.7954 154.834 69.13C154.165 68.4646 153.708 67.6168 153.524 66.6939C153.339 65.7709 153.434 64.8143 153.796 63.9449C154.159 63.0755 154.772 62.3325 155.56 61.8097C156.347 61.2869 157.273 61.0078 158.22 61.0078C159.491 61.0078 160.709 61.5091 161.607 62.4014C162.505 63.2936 163.009 64.5038 163.009 65.7657Z" fill="#FFA500"/>
</g>
</g>
<g style="mix-blend-mode:multiply">
<g style="mix-blend-mode:multiply">
<path d="M5.03442 90.7891C7.6792 90.7891 9.82323 88.659 9.82323 86.0313C9.82323 83.4036 7.6792 81.2734 5.03442 81.2734C2.38963 81.2734 0.245605 83.4036 0.245605 86.0313C0.245605 88.659 2.38963 90.7891 5.03442 90.7891Z" fill="#FFA500"/>
</g>
</g>
<g style="mix-blend-mode:multiply">
<g style="mix-blend-mode:multiply">
<path d="M26.8413 86.0202C26.8435 86.9616 26.5645 87.8826 26.0397 88.6665C25.5148 89.4504 24.7677 90.062 23.8929 90.4238C23.018 90.7856 22.0548 90.8814 21.1251 90.6991C20.1954 90.5167 19.3411 90.0645 18.6702 89.3995C17.9994 88.7346 17.5422 87.8868 17.3565 86.9636C17.1708 86.0403 17.265 85.0832 17.6271 84.2131C17.9892 83.3431 18.603 82.5994 19.3908 82.0761C20.1785 81.5528 21.1049 81.2734 22.0525 81.2734C23.3206 81.2734 24.537 81.7732 25.4347 82.663C26.3325 83.5529 26.8383 84.7602 26.8413 86.0202Z" fill="#FFA500"/>
</g>
</g>
<g style="mix-blend-mode:multiply">
<g style="mix-blend-mode:multiply">
<path d="M43.8594 86.0202C43.8616 86.9616 43.5826 87.8826 43.0578 88.6665C42.5329 89.4504 41.7858 90.062 40.9109 90.4238C40.0361 90.7856 39.0729 90.8814 38.1432 90.6991C37.2135 90.5167 36.3592 90.0645 35.6884 89.3995C35.0175 88.7346 34.5603 87.8868 34.3746 86.9636C34.1889 86.0403 34.2831 85.0832 34.6452 84.2131C35.0073 83.3431 35.6211 82.5994 36.4089 82.0761C37.1966 81.5528 38.1229 81.2734 39.0705 81.2734C40.3387 81.2734 41.555 81.7732 42.4528 82.663C43.3505 83.5529 43.8564 84.7602 43.8594 86.0202Z" fill="#FFA500"/>
</g>
</g>
<g style="mix-blend-mode:multiply">
<g style="mix-blend-mode:multiply">
<path d="M60.9111 86.0202C60.9133 86.9617 60.6343 87.8826 60.1095 88.6665C59.5846 89.4504 58.8375 90.062 57.9626 90.4238C57.0878 90.7856 56.1246 90.8814 55.1949 90.6991C54.2652 90.5167 53.4109 90.0645 52.7401 89.3995C52.0692 88.7346 51.612 87.8868 51.4263 86.9636C51.2407 86.0403 51.3348 85.0832 51.6969 84.2131C52.059 83.3431 52.6728 82.5994 53.4606 82.0761C54.2484 81.5528 55.1746 81.2735 56.1222 81.2735C56.7506 81.272 57.3731 81.3937 57.954 81.6316C58.535 81.8695 59.0629 82.2189 59.5078 82.6598C59.9526 83.1007 60.3055 83.6245 60.5463 84.2011C60.7871 84.7777 60.9111 85.3959 60.9111 86.0202Z" fill="#FFA500"/>
</g>
</g>
<g style="mix-blend-mode:multiply">
<g style="mix-blend-mode:multiply">
<path d="M77.9072 86.0202C77.9094 86.9616 77.6304 87.8826 77.1056 88.6665C76.5807 89.4504 75.8336 90.062 74.9587 90.4238C74.0839 90.7856 73.1207 90.8814 72.191 90.6991C71.2613 90.5167 70.407 90.0645 69.7362 89.3995C69.0653 88.7346 68.6081 87.8868 68.4224 86.9636C68.2368 86.0403 68.3309 85.0832 68.693 84.2131C69.0551 83.3431 69.6689 82.5994 70.4567 82.0761C71.2445 81.5528 72.1707 81.2734 73.1183 81.2734C74.3865 81.2734 75.6028 81.7732 76.5006 82.663C77.3983 83.5529 77.9042 84.7602 77.9072 86.0202Z" fill="#FFA500"/>
</g>
</g>
<g style="mix-blend-mode:multiply">
<g style="mix-blend-mode:multiply">
<path d="M90.1365 90.7891C92.7813 90.7891 94.9253 88.659 94.9253 86.0313C94.9253 83.4036 92.7813 81.2734 90.1365 81.2734C87.4917 81.2734 85.3477 83.4036 85.3477 86.0313C85.3477 88.659 87.4917 90.7891 90.1365 90.7891Z" fill="#FFA500"/>
</g>
</g>
<g style="mix-blend-mode:multiply">
<g style="mix-blend-mode:multiply">
<path d="M107.166 90.7891C109.811 90.7891 111.955 88.659 111.955 86.0313C111.955 83.4036 109.811 81.2734 107.166 81.2734C104.521 81.2734 102.377 83.4036 102.377 86.0313C102.377 88.659 104.521 90.7891 107.166 90.7891Z" fill="#FFA500"/>
</g>
</g>
<g style="mix-blend-mode:multiply">
<g style="mix-blend-mode:multiply">
<path d="M128.962 86.0202C128.964 86.9621 128.685 87.8835 128.159 88.6677C127.634 89.4518 126.886 90.0633 126.011 90.4248C125.135 90.7863 124.172 90.8815 123.242 90.6983C122.312 90.515 121.457 90.0617 120.787 89.3956C120.117 88.7295 119.66 87.8807 119.476 86.9568C119.291 86.0328 119.387 85.0752 119.751 84.2054C120.115 83.3356 120.73 82.5926 121.52 82.0706C122.309 81.5487 123.236 81.2713 124.184 81.2735C125.451 81.2735 126.667 81.7735 127.563 82.6637C128.459 83.5539 128.962 84.7613 128.962 86.0202Z" fill="#FFA500"/>
</g>
</g>
<g style="mix-blend-mode:multiply">
<g style="mix-blend-mode:multiply">
<path d="M145.946 86.0202C145.948 86.9616 145.669 87.8826 145.145 88.6665C144.62 89.4504 143.873 90.062 142.998 90.4238C142.123 90.7856 141.16 90.8814 140.23 90.6991C139.3 90.5167 138.446 90.0645 137.775 89.3995C137.104 88.7346 136.647 87.8868 136.462 86.9636C136.276 86.0403 136.37 85.0832 136.732 84.2131C137.094 83.3431 137.708 82.5994 138.496 82.0761C139.284 81.5528 140.21 81.2734 141.157 81.2734C142.426 81.2734 143.642 81.7732 144.54 82.663C145.437 83.5529 145.943 84.7602 145.946 86.0202Z" fill="#FFA500"/>
</g>
</g>
<g style="mix-blend-mode:multiply">
<g style="mix-blend-mode:multiply">
<path d="M163.009 86.0203C163.011 86.9632 162.732 87.8855 162.205 88.6701C161.679 89.4547 160.93 90.0662 160.053 90.427C159.176 90.7878 158.211 90.8817 157.281 90.6966C156.35 90.5116 155.496 90.056 154.826 89.3877C154.157 88.7194 153.702 87.8685 153.52 86.9431C153.339 86.0177 153.437 85.0594 153.805 84.19C154.172 83.3206 154.791 82.5792 155.583 82.0599C156.375 81.5406 157.305 81.2669 158.254 81.2736C159.516 81.2823 160.724 81.786 161.615 82.6749C162.505 83.5638 163.006 84.7661 163.009 86.0203Z" fill="#FFA500"/>
</g>
</g>
<g style="mix-blend-mode:multiply">
<g style="mix-blend-mode:multiply">
<path d="M5.03442 111.044C7.6792 111.044 9.82323 108.914 9.82323 106.286C9.82323 103.659 7.6792 101.528 5.03442 101.528C2.38963 101.528 0.245605 103.659 0.245605 106.286C0.245605 108.914 2.38963 111.044 5.03442 111.044Z" fill="#FFA500"/>
</g>
</g>
<g style="mix-blend-mode:multiply">
<g style="mix-blend-mode:multiply">
<path d="M26.8413 106.286C26.8413 107.227 26.5604 108.147 26.0342 108.93C25.508 109.712 24.7601 110.322 23.8851 110.682C23.01 111.042 22.0471 111.136 21.1182 110.953C20.1893 110.769 19.336 110.316 18.6663 109.651C17.9965 108.985 17.5405 108.137 17.3557 107.215C17.1709 106.292 17.2657 105.335 17.6282 104.466C17.9906 103.596 18.6044 102.853 19.3919 102.33C20.1794 101.807 21.1053 101.528 22.0525 101.528C23.3226 101.528 24.5405 102.03 25.4386 102.922C26.3367 103.814 26.8413 105.024 26.8413 106.286Z" fill="#FFA500"/>
</g>
</g>
<g style="mix-blend-mode:multiply">
<g style="mix-blend-mode:multiply">
<path d="M43.8594 106.286C43.8594 107.227 43.5785 108.147 43.0523 108.93C42.5261 109.712 41.7782 110.322 40.9031 110.682C40.0281 111.042 39.0652 111.136 38.1363 110.953C37.2074 110.769 36.3541 110.316 35.6844 109.651C35.0147 108.985 34.5585 108.137 34.3737 107.215C34.189 106.292 34.2838 105.335 34.6463 104.466C35.0087 103.596 35.6225 102.853 36.41 102.33C37.1976 101.807 38.1234 101.528 39.0705 101.528C40.3406 101.528 41.5587 102.03 42.4567 102.922C43.3548 103.814 43.8594 105.024 43.8594 106.286Z" fill="#FFA500"/>
</g>
</g>
<g style="mix-blend-mode:multiply">
<g style="mix-blend-mode:multiply">
<path d="M60.9111 106.286C60.9111 107.227 60.6303 108.147 60.1041 108.93C59.5779 109.712 58.83 110.322 57.955 110.682C57.0799 111.042 56.117 111.136 55.1881 110.953C54.2591 110.769 53.4059 110.316 52.7361 109.651C52.0664 108.985 51.6103 108.137 51.4255 107.215C51.2407 106.292 51.3356 105.335 51.6981 104.466C52.0605 103.596 52.6743 102.853 53.4618 102.33C54.2493 101.807 55.1752 101.528 56.1223 101.528C56.7516 101.527 57.375 101.649 57.9567 101.888C58.5383 102.126 59.0668 102.477 59.5118 102.919C59.9568 103.361 60.3095 103.886 60.5496 104.464C60.7897 105.042 60.9126 105.661 60.9111 106.286Z" fill="#FFA500"/>
</g>
</g>
<g style="mix-blend-mode:multiply">
<g style="mix-blend-mode:multiply">
<path d="M77.9072 106.286C77.9072 107.227 77.6264 108.147 77.1002 108.93C76.574 109.712 75.8261 110.322 74.951 110.682C74.076 111.042 73.1131 111.136 72.1842 110.953C71.2552 110.769 70.402 110.316 69.7322 109.651C69.0625 108.985 68.6064 108.137 68.4216 107.215C68.2368 106.292 68.3317 105.335 68.6941 104.466C69.0566 103.596 69.6704 102.853 70.4579 102.33C71.2454 101.807 72.1712 101.528 73.1184 101.528C74.3885 101.528 75.6065 102.03 76.5046 102.922C77.4027 103.814 77.9072 105.024 77.9072 106.286Z" fill="#FFA500"/>
</g>
</g>
<g style="mix-blend-mode:multiply">
<g style="mix-blend-mode:multiply">
<path d="M90.1365 111.044C92.7813 111.044 94.9253 108.914 94.9253 106.286C94.9253 103.659 92.7813 101.528 90.1365 101.528C87.4917 101.528 85.3477 103.659 85.3477 106.286C85.3477 108.914 87.4917 111.044 90.1365 111.044Z" fill="#FFA500"/>
</g>
</g>
<g style="mix-blend-mode:multiply">
<g style="mix-blend-mode:multiply">
<path d="M107.166 111.044C109.811 111.044 111.955 108.914 111.955 106.286C111.955 103.659 109.811 101.528 107.166 101.528C104.521 101.528 102.377 103.659 102.377 106.286C102.377 108.914 104.521 111.044 107.166 111.044Z" fill="#FFA500"/>
</g>
</g>
<g style="mix-blend-mode:multiply">
<g style="mix-blend-mode:multiply">
<path d="M128.962 106.286C128.962 107.228 128.681 108.148 128.154 108.931C127.627 109.714 126.879 110.323 126.003 110.683C125.127 111.043 124.164 111.137 123.235 110.952C122.306 110.768 121.452 110.313 120.783 109.647C120.114 108.98 119.658 108.131 119.475 107.208C119.291 106.284 119.388 105.327 119.752 104.458C120.116 103.589 120.732 102.846 121.521 102.325C122.31 101.803 123.237 101.526 124.184 101.528C124.813 101.528 125.435 101.651 126.015 101.891C126.596 102.13 127.123 102.481 127.567 102.923C128.01 103.365 128.362 103.889 128.601 104.466C128.841 105.044 128.963 105.662 128.962 106.286Z" fill="#FFA500"/>
</g>
</g>
<g style="mix-blend-mode:multiply">
<g style="mix-blend-mode:multiply">
<path d="M145.946 106.286C145.946 107.227 145.665 108.147 145.139 108.93C144.613 109.712 143.865 110.322 142.99 110.682C142.115 111.042 141.152 111.136 140.223 110.953C139.294 110.769 138.441 110.316 137.771 109.651C137.102 108.985 136.645 108.137 136.461 107.215C136.276 106.292 136.371 105.335 136.733 104.466C137.096 103.596 137.709 102.853 138.497 102.33C139.284 101.807 140.21 101.528 141.157 101.528C142.428 101.528 143.646 102.03 144.544 102.922C145.442 103.814 145.946 105.024 145.946 106.286Z" fill="#FFA500"/>
</g>
</g>
<g style="mix-blend-mode:multiply">
<g style="mix-blend-mode:multiply">
<path d="M163.009 106.286C163.009 107.227 162.728 108.147 162.202 108.93C161.676 109.712 160.928 110.322 160.053 110.682C159.178 111.042 158.215 111.136 157.286 110.953C156.357 110.769 155.504 110.316 154.834 109.651C154.165 108.985 153.708 108.137 153.524 107.215C153.339 106.292 153.434 105.335 153.796 104.466C154.159 103.596 154.772 102.853 155.56 102.33C156.347 101.807 157.273 101.528 158.22 101.528C159.491 101.528 160.709 102.03 161.607 102.922C162.505 103.814 163.009 105.024 163.009 106.286Z" fill="#FFA500"/>
</g>
</g>
<g style="mix-blend-mode:multiply">
<g style="mix-blend-mode:multiply">
<path d="M5.03442 131.299C7.6792 131.299 9.82323 129.169 9.82323 126.541C9.82323 123.913 7.6792 121.783 5.03442 121.783C2.38963 121.783 0.245605 123.913 0.245605 126.541C0.245605 129.169 2.38963 131.299 5.03442 131.299Z" fill="#FFA500"/>
</g>
</g>
<g style="mix-blend-mode:multiply">
<g style="mix-blend-mode:multiply">
<path d="M26.8413 126.541C26.8413 127.482 26.5604 128.402 26.0342 129.184C25.508 129.967 24.7601 130.577 23.8851 130.937C23.01 131.297 22.0471 131.391 21.1182 131.207C20.1893 131.024 19.336 130.571 18.6663 129.905C17.9965 129.24 17.5405 128.392 17.3557 127.469C17.1709 126.546 17.2657 125.59 17.6282 124.72C17.9906 123.851 18.6044 123.108 19.3919 122.585C20.1794 122.062 21.1053 121.783 22.0525 121.783C23.3226 121.783 24.5405 122.284 25.4386 123.177C26.3367 124.069 26.8413 125.279 26.8413 126.541Z" fill="#FFA500"/>
</g>
</g>
<g style="mix-blend-mode:multiply">
<g style="mix-blend-mode:multiply">
<path d="M43.8594 126.541C43.8594 127.482 43.5785 128.402 43.0523 129.184C42.5261 129.967 41.7782 130.577 40.9031 130.937C40.0281 131.297 39.0652 131.391 38.1363 131.207C37.2074 131.024 36.3541 130.571 35.6844 129.905C35.0147 129.24 34.5585 128.392 34.3737 127.469C34.189 126.546 34.2838 125.59 34.6463 124.72C35.0087 123.851 35.6225 123.108 36.41 122.585C37.1976 122.062 38.1234 121.783 39.0705 121.783C40.3406 121.783 41.5587 122.284 42.4567 123.177C43.3548 124.069 43.8594 125.279 43.8594 126.541Z" fill="#FFA500"/>
</g>
</g>
<g style="mix-blend-mode:multiply">
<g style="mix-blend-mode:multiply">
<path d="M60.9111 126.541C60.9111 127.482 60.6303 128.402 60.1041 129.184C59.5779 129.967 58.83 130.577 57.9549 130.937C57.0799 131.297 56.117 131.391 55.1881 131.207C54.2591 131.024 53.4059 130.571 52.7361 129.905C52.0664 129.24 51.6103 128.392 51.4255 127.469C51.2407 126.546 51.3356 125.59 51.6981 124.72C52.0605 123.851 52.6743 123.108 53.4618 122.585C54.2493 122.062 55.1752 121.783 56.1223 121.783C57.3924 121.783 58.6104 122.284 59.5085 123.177C60.4066 124.069 60.9111 125.279 60.9111 126.541Z" fill="#FFA500"/>
</g>
</g>
<g style="mix-blend-mode:multiply">
<g style="mix-blend-mode:multiply">
<path d="M77.9072 126.541C77.9072 127.482 77.6264 128.402 77.1002 129.184C76.574 129.967 75.8261 130.577 74.951 130.937C74.076 131.297 73.1131 131.391 72.1842 131.207C71.2552 131.024 70.402 130.571 69.7322 129.905C69.0625 129.24 68.6064 128.392 68.4216 127.469C68.2368 126.546 68.3317 125.59 68.6941 124.72C69.0566 123.851 69.6704 123.108 70.4579 122.585C71.2454 122.062 72.1712 121.783 73.1184 121.783C74.3885 121.783 75.6065 122.284 76.5046 123.177C77.4027 124.069 77.9072 125.279 77.9072 126.541Z" fill="#FFA500"/>
</g>
</g>
<g style="mix-blend-mode:multiply">
<g style="mix-blend-mode:multiply">
<path d="M90.1365 131.299C92.7813 131.299 94.9253 129.169 94.9253 126.541C94.9253 123.913 92.7813 121.783 90.1365 121.783C87.4917 121.783 85.3477 123.913 85.3477 126.541C85.3477 129.169 87.4917 131.299 90.1365 131.299Z" fill="#FFA500"/>
</g>
</g>
<g style="mix-blend-mode:multiply">
<g style="mix-blend-mode:multiply">
<path d="M107.166 131.299C109.811 131.299 111.955 129.169 111.955 126.541C111.955 123.913 109.811 121.783 107.166 121.783C104.521 121.783 102.377 123.913 102.377 126.541C102.377 129.169 104.521 131.299 107.166 131.299Z" fill="#FFA500"/>
</g>
</g>
<g style="mix-blend-mode:multiply">
<g style="mix-blend-mode:multiply">
<path d="M128.962 126.541C128.962 127.483 128.681 128.403 128.154 129.186C127.627 129.968 126.879 130.578 126.003 130.938C125.127 131.298 124.164 131.391 123.235 131.207C122.306 131.022 121.452 130.568 120.783 129.901C120.114 129.235 119.658 128.386 119.475 127.462C119.291 126.539 119.388 125.582 119.752 124.713C120.116 123.843 120.732 123.101 121.521 122.58C122.31 122.058 123.237 121.781 124.184 121.783C125.452 121.786 126.668 122.289 127.563 123.181C128.459 124.073 128.962 125.281 128.962 126.541Z" fill="#FFA500"/>
</g>
</g>
<g style="mix-blend-mode:multiply">
<g style="mix-blend-mode:multiply">
<path d="M145.946 126.541C145.946 127.482 145.665 128.402 145.139 129.184C144.613 129.967 143.865 130.577 142.99 130.937C142.115 131.297 141.152 131.391 140.223 131.207C139.294 131.024 138.441 130.571 137.771 129.905C137.102 129.24 136.645 128.392 136.461 127.469C136.276 126.546 136.371 125.59 136.733 124.72C137.096 123.851 137.709 123.108 138.497 122.585C139.284 122.062 140.21 121.783 141.157 121.783C142.428 121.783 143.646 122.284 144.544 123.177C145.442 124.069 145.946 125.279 145.946 126.541Z" fill="#FFA500"/>
</g>
</g>
<g style="mix-blend-mode:multiply">
<g style="mix-blend-mode:multiply">
<path d="M163.009 126.541C163 127.481 162.711 128.398 162.178 129.175C161.645 129.953 160.892 130.556 160.014 130.908C159.136 131.26 158.173 131.346 157.246 131.155C156.32 130.963 155.471 130.504 154.807 129.833C154.143 129.163 153.694 128.312 153.516 127.388C153.339 126.464 153.441 125.508 153.81 124.642C154.179 123.776 154.798 123.038 155.589 122.521C156.38 122.004 157.307 121.732 158.254 121.738C158.884 121.743 159.506 121.871 160.086 122.114C160.667 122.358 161.192 122.713 161.634 123.159C162.076 123.606 162.425 124.134 162.661 124.714C162.897 125.294 163.015 125.915 163.009 126.541Z" fill="#FFA500"/>
</g>
</g>
<g style="mix-blend-mode:multiply">
<g style="mix-blend-mode:multiply">
<path d="M9.82327 146.795C9.82327 147.736 9.5424 148.656 9.0162 149.438C8.49 150.221 7.74205 150.831 6.86701 151.191C5.99197 151.551 5.02914 151.645 4.1002 151.461C3.17126 151.278 2.31793 150.825 1.64821 150.159C0.978478 149.494 0.522408 148.646 0.337631 147.723C0.152854 146.8 0.247659 145.844 0.610112 144.974C0.972566 144.105 1.58635 143.362 2.37387 142.839C3.16138 142.316 4.08728 142.037 5.03442 142.037C6.30449 142.037 7.52256 142.538 8.42063 143.431C9.31871 144.323 9.82327 145.533 9.82327 146.795Z" fill="#FFA500"/>
</g>
</g>
<g style="mix-blend-mode:multiply">
<g style="mix-blend-mode:multiply">
<path d="M26.8413 146.795C26.8413 147.736 26.5604 148.656 26.0342 149.438C25.508 150.221 24.7601 150.831 23.8851 151.191C23.01 151.551 22.0471 151.645 21.1182 151.461C20.1893 151.278 19.336 150.825 18.6663 150.159C17.9965 149.494 17.5405 148.646 17.3557 147.723C17.1709 146.8 17.2657 145.844 17.6282 144.974C17.9906 144.105 18.6044 143.362 19.3919 142.839C20.1794 142.316 21.1053 142.037 22.0525 142.037C23.3226 142.037 24.5405 142.538 25.4386 143.431C26.3367 144.323 26.8413 145.533 26.8413 146.795Z" fill="#FFA500"/>
</g>
</g>
<g style="mix-blend-mode:multiply">
<g style="mix-blend-mode:multiply">
<path d="M43.8594 146.795C43.8594 147.736 43.5785 148.656 43.0523 149.438C42.5261 150.221 41.7782 150.831 40.9031 151.191C40.0281 151.551 39.0652 151.645 38.1363 151.461C37.2074 151.278 36.3541 150.825 35.6844 150.159C35.0147 149.494 34.5585 148.646 34.3737 147.723C34.189 146.8 34.2838 145.844 34.6463 144.974C35.0087 144.105 35.6225 143.362 36.41 142.839C37.1976 142.316 38.1234 142.037 39.0705 142.037C40.3406 142.037 41.5587 142.538 42.4567 143.431C43.3548 144.323 43.8594 145.533 43.8594 146.795Z" fill="#FFA500"/>
</g>
</g>
<g style="mix-blend-mode:multiply">
<g style="mix-blend-mode:multiply">
<path d="M60.9111 146.795C60.9111 147.736 60.6303 148.656 60.1041 149.438C59.5779 150.221 58.83 150.831 57.9549 151.191C57.0799 151.551 56.117 151.645 55.1881 151.461C54.2591 151.278 53.4059 150.825 52.7361 150.159C52.0664 149.494 51.6103 148.646 51.4255 147.723C51.2407 146.8 51.3356 145.844 51.6981 144.974C52.0605 144.105 52.6743 143.362 53.4618 142.839C54.2493 142.316 55.1752 142.037 56.1223 142.037C57.3924 142.037 58.6104 142.538 59.5085 143.431C60.4066 144.323 60.9111 145.533 60.9111 146.795Z" fill="#FFA500"/>
</g>
</g>
<g style="mix-blend-mode:multiply">
<g style="mix-blend-mode:multiply">
<path d="M77.9072 146.795C77.9072 147.736 77.6264 148.656 77.1002 149.438C76.574 150.221 75.8261 150.831 74.951 151.191C74.076 151.551 73.1131 151.645 72.1842 151.461C71.2552 151.278 70.402 150.825 69.7322 150.159C69.0625 149.494 68.6064 148.646 68.4216 147.723C68.2368 146.8 68.3317 145.844 68.6941 144.974C69.0566 144.105 69.6704 143.362 70.4579 142.839C71.2454 142.316 72.1712 142.037 73.1184 142.037C74.3885 142.037 75.6065 142.538 76.5046 143.431C77.4027 144.323 77.9072 145.533 77.9072 146.795Z" fill="#FFA500"/>
</g>
</g>
<g style="mix-blend-mode:multiply">
<g style="mix-blend-mode:multiply">
<path d="M94.9253 146.795C94.9253 147.736 94.6444 148.656 94.1182 149.438C93.592 150.221 92.8441 150.831 91.9691 151.191C91.094 151.551 90.1312 151.645 89.2022 151.461C88.2733 151.278 87.42 150.825 86.7503 150.159C86.0805 149.494 85.6245 148.646 85.4397 147.723C85.2549 146.8 85.3497 145.844 85.7122 144.974C86.0746 144.105 86.6885 143.362 87.476 142.839C88.2635 142.316 89.1893 142.037 90.1365 142.037C91.4065 142.037 92.6246 142.538 93.5227 143.431C94.4208 144.323 94.9253 145.533 94.9253 146.795Z" fill="#FFA500"/>
</g>
</g>
<g style="mix-blend-mode:multiply">
<g style="mix-blend-mode:multiply">
<path d="M111.944 146.795C111.944 147.736 111.663 148.656 111.137 149.438C110.611 150.221 109.863 150.831 108.988 151.191C108.113 151.551 107.15 151.645 106.221 151.461C105.292 151.278 104.439 150.825 103.769 150.159C103.099 149.494 102.643 148.646 102.458 147.723C102.273 146.8 102.368 145.844 102.731 144.974C103.093 144.105 103.707 143.362 104.494 142.839C105.282 142.316 106.208 142.037 107.155 142.037C108.425 142.037 109.643 142.538 110.541 143.431C111.439 144.323 111.944 145.533 111.944 146.795Z" fill="#FFA500"/>
</g>
</g>
<g style="mix-blend-mode:multiply">
<g style="mix-blend-mode:multiply">
<path d="M128.962 146.795C128.962 147.736 128.681 148.657 128.154 149.439C127.627 150.222 126.879 150.832 126.003 151.192C125.127 151.552 124.164 151.645 123.235 151.461C122.306 151.276 121.452 150.822 120.783 150.155C120.114 149.489 119.658 148.64 119.475 147.716C119.291 146.793 119.388 145.836 119.752 144.967C120.116 144.097 120.732 143.355 121.521 142.834C122.31 142.312 123.237 142.035 124.184 142.037C125.452 142.04 126.668 142.543 127.563 143.435C128.459 144.327 128.962 145.535 128.962 146.795Z" fill="#FFA500"/>
</g>
</g>
<g style="mix-blend-mode:multiply">
<g style="mix-blend-mode:multiply">
<path d="M145.946 146.795C145.946 147.736 145.665 148.656 145.139 149.438C144.613 150.221 143.865 150.831 142.99 151.191C142.115 151.551 141.152 151.645 140.223 151.461C139.294 151.278 138.441 150.825 137.771 150.159C137.102 149.494 136.645 148.646 136.461 147.723C136.276 146.8 136.371 145.844 136.733 144.974C137.096 144.105 137.709 143.362 138.497 142.839C139.284 142.316 140.21 142.037 141.157 142.037C142.428 142.037 143.646 142.538 144.544 143.431C145.442 144.323 145.946 145.533 145.946 146.795Z" fill="#FFA500"/>
</g>
</g>
<g style="mix-blend-mode:multiply">
<g style="mix-blend-mode:multiply">
<path d="M163.009 146.795C163.009 147.736 162.728 148.656 162.202 149.438C161.676 150.221 160.928 150.831 160.053 151.191C159.178 151.551 158.215 151.645 157.286 151.461C156.357 151.278 155.504 150.825 154.834 150.159C154.165 149.494 153.708 148.646 153.524 147.723C153.339 146.8 153.434 145.844 153.796 144.974C154.159 144.105 154.772 143.362 155.56 142.839C156.347 142.316 157.273 142.037 158.22 142.037C159.491 142.037 160.709 142.538 161.607 143.431C162.505 144.323 163.009 145.533 163.009 146.795Z" fill="#FFA500"/>
</g>
</g>
</g>
</g>
</g>
</svg>
