<svg width="192" height="183" viewBox="0 0 192 183" fill="none" xmlns="http://www.w3.org/2000/svg">
<mask id="mask0" mask-type="alpha" maskUnits="userSpaceOnUse" x="0" y="0" width="192" height="183">
<ellipse cx="95.9236" cy="91.1446" rx="95.9236" ry="91.1446" fill="#C4C4C4"/>
</mask>
<g mask="url(#mask0)">
<g style="mix-blend-mode:multiply">
<g style="mix-blend-mode:multiply">
<g style="mix-blend-mode:multiply">
<g style="mix-blend-mode:multiply">
<path d="M11.7781 5.7489C11.7781 6.82799 11.4413 7.88283 10.8103 8.78006C10.1794 9.67728 9.28257 10.3766 8.23335 10.7895C7.18413 11.2025 6.02965 11.3105 4.9158 11.1C3.80195 10.8895 2.77877 10.3699 1.97574 9.60685C1.1727 8.84382 0.625846 7.87166 0.404289 6.81331C0.182731 5.75496 0.296407 4.65796 0.731008 3.66102C1.16561 2.66407 1.90157 1.81197 2.84584 1.21246C3.79011 0.612958 4.90031 0.292969 6.03598 0.292969C7.55886 0.292969 9.01939 0.867773 10.0962 1.89096C11.1731 2.91415 11.7781 4.3019 11.7781 5.7489Z" fill="#483D8B"/>
</g>
</g>
<g style="mix-blend-mode:multiply">
<g style="mix-blend-mode:multiply">
<path d="M32.1837 5.7489C32.1837 6.82799 31.8469 7.88283 31.216 8.78006C30.5851 9.67728 29.6883 10.3766 28.6391 10.7895C27.5899 11.2025 26.4353 11.3105 25.3215 11.1C24.2076 10.8895 23.1845 10.3699 22.3815 9.60685C21.5785 8.84382 21.0316 7.87166 20.81 6.81331C20.5885 5.75496 20.7022 4.65796 21.1368 3.66102C21.5714 2.66407 22.3073 1.81197 23.2516 1.21246C24.1959 0.612958 25.3061 0.292969 26.4417 0.292969C27.9646 0.292969 29.425 0.867773 30.5019 1.89096C31.5787 2.91415 32.1837 4.3019 32.1837 5.7489Z" fill="#483D8B"/>
</g>
</g>
<g style="mix-blend-mode:multiply">
<g style="mix-blend-mode:multiply">
<path d="M52.5891 5.7489C52.5891 6.82799 52.2523 7.88283 51.6214 8.78006C50.9904 9.67728 50.0936 10.3766 49.0444 10.7895C47.9952 11.2025 46.8407 11.3105 45.7268 11.1C44.613 10.8895 43.5899 10.3699 42.7868 9.60685C41.9838 8.84382 41.4369 7.87166 41.2153 6.81331C40.9937 5.75496 41.1075 4.65796 41.5421 3.66102C41.9767 2.66407 42.7127 1.81197 43.6569 1.21246C44.6012 0.612958 45.7113 0.292969 46.847 0.292969C48.3699 0.292969 49.8304 0.867773 50.9073 1.89096C51.9841 2.91415 52.5891 4.3019 52.5891 5.7489Z" fill="#483D8B"/>
</g>
</g>
<g style="mix-blend-mode:multiply">
<g style="mix-blend-mode:multiply">
<path d="M73.0354 5.74891C73.0354 6.82799 72.6986 7.88284 72.0677 8.78006C71.4367 9.67728 70.54 10.3766 69.4907 10.7895C68.4415 11.2025 67.287 11.3105 66.1731 11.1C65.0593 10.8895 64.0362 10.3699 63.2331 9.60685C62.4301 8.84383 61.8831 7.87166 61.6616 6.81332C61.44 5.75497 61.5538 4.65797 61.9884 3.66103C62.423 2.66409 63.159 1.81198 64.1032 1.21248C65.0475 0.612973 66.1576 0.292984 67.2933 0.292984C68.0478 0.291303 68.7953 0.43129 69.4928 0.704881C70.1902 0.978472 70.8239 1.38027 71.3575 1.88724C71.891 2.3942 72.3139 2.99634 72.6019 3.65904C72.8898 4.32175 73.0371 5.03196 73.0354 5.74891Z" fill="#483D8B"/>
</g>
</g>
<g style="mix-blend-mode:multiply">
<g style="mix-blend-mode:multiply">
<path d="M93.4142 5.7489C93.4142 6.82799 93.0774 7.88283 92.4465 8.78006C91.8155 9.67728 90.9188 10.3766 89.8696 10.7895C88.8204 11.2025 87.6658 11.3105 86.552 11.1C85.4381 10.8895 84.415 10.3699 83.612 9.60685C82.809 8.84382 82.2621 7.87166 82.0405 6.81331C81.8189 5.75496 81.9327 4.65796 82.3673 3.66102C82.8019 2.66407 83.5378 1.81197 84.4821 1.21246C85.4264 0.612958 86.5365 0.292969 87.6721 0.292969C89.195 0.292969 90.6555 0.867773 91.7323 1.89096C92.8092 2.91415 93.4142 4.3019 93.4142 5.7489Z" fill="#483D8B"/>
</g>
</g>
<g style="mix-blend-mode:multiply">
<g style="mix-blend-mode:multiply">
<path d="M113.82 5.7489C113.82 6.82799 113.483 7.88283 112.852 8.78006C112.221 9.67728 111.324 10.3766 110.275 10.7895C109.226 11.2025 108.072 11.3105 106.958 11.1C105.844 10.8895 104.821 10.3699 104.018 9.60685C103.215 8.84382 102.668 7.87166 102.446 6.81331C102.225 5.75496 102.338 4.65796 102.773 3.66102C103.208 2.66407 103.944 1.81197 104.888 1.21246C105.832 0.612958 106.942 0.292969 108.078 0.292969C109.601 0.292969 111.061 0.867773 112.138 1.89096C113.215 2.91415 113.82 4.3019 113.82 5.7489Z" fill="#483D8B"/>
</g>
</g>
<g style="mix-blend-mode:multiply">
<g style="mix-blend-mode:multiply">
<path d="M134.225 5.74891C134.225 6.82799 133.888 7.88284 133.257 8.78006C132.627 9.67728 131.73 10.3766 130.681 10.7895C129.631 11.2025 128.477 11.3105 127.363 11.1C126.249 10.8895 125.226 10.3699 124.423 9.60685C123.62 8.84383 123.073 7.87166 122.852 6.81332C122.63 5.75497 122.744 4.65797 123.178 3.66103C123.613 2.66409 124.349 1.81198 125.293 1.21248C126.237 0.612973 127.348 0.292984 128.483 0.292984C129.238 0.291303 129.985 0.43129 130.683 0.704881C131.38 0.978472 132.014 1.38027 132.547 1.88724C133.081 2.3942 133.504 2.99634 133.792 3.65904C134.08 4.32175 134.227 5.03196 134.225 5.74891Z" fill="#483D8B"/>
</g>
</g>
<g style="mix-blend-mode:multiply">
<g style="mix-blend-mode:multiply">
<path d="M154.631 5.74891C154.631 6.82854 154.294 7.88389 153.662 8.78139C153.031 9.67888 152.133 10.3782 151.083 10.7907C150.033 11.2033 148.878 11.3106 147.764 11.0991C146.65 10.8875 145.627 10.3666 144.824 9.6023C144.022 8.838 143.476 7.86465 143.256 6.80546C143.036 5.74628 143.151 4.64887 143.588 3.65216C144.025 2.65544 144.763 1.80422 145.709 1.20625C146.655 0.608284 147.766 0.290461 148.902 0.292984C149.656 0.292982 150.402 0.434196 151.098 0.708538C151.794 0.98288 152.426 1.38495 152.958 1.89175C153.49 2.39855 153.912 3.00013 154.199 3.662C154.486 4.32387 154.633 5.03303 154.631 5.74891Z" fill="#483D8B"/>
</g>
</g>
<g style="mix-blend-mode:multiply">
<g style="mix-blend-mode:multiply">
<path d="M174.996 5.7489C174.996 6.82799 174.659 7.88283 174.028 8.78006C173.397 9.67728 172.5 10.3766 171.451 10.7895C170.402 11.2025 169.247 11.3105 168.134 11.1C167.02 10.8895 165.997 10.3699 165.194 9.60685C164.391 8.84382 163.844 7.87166 163.622 6.81331C163.4 5.75496 163.514 4.65796 163.949 3.66102C164.383 2.66407 165.119 1.81197 166.064 1.21246C167.008 0.612958 168.118 0.292969 169.254 0.292969C170.777 0.292969 172.237 0.867773 173.314 1.89096C174.391 2.91415 174.996 4.3019 174.996 5.7489Z" fill="#483D8B"/>
</g>
</g>
<g style="mix-blend-mode:multiply">
<g style="mix-blend-mode:multiply">
<path d="M195.455 5.7489C195.455 6.82799 195.118 7.88283 194.487 8.78006C193.857 9.67728 192.96 10.3766 191.911 10.7895C190.861 11.2025 189.707 11.3105 188.593 11.1C187.479 10.8895 186.456 10.3699 185.653 9.60685C184.85 8.84382 184.303 7.87166 184.082 6.81331C183.86 5.75496 183.974 4.65796 184.408 3.66102C184.843 2.66407 185.579 1.81197 186.523 1.21246C187.467 0.612958 188.577 0.292969 189.713 0.292969C191.236 0.292969 192.697 0.867773 193.773 1.89096C194.85 2.91415 195.455 4.3019 195.455 5.7489Z" fill="#483D8B"/>
</g>
</g>
<g style="mix-blend-mode:multiply">
<g style="mix-blend-mode:multiply">
<path d="M11.7781 28.9638C11.7781 30.0428 11.4413 31.0977 10.8103 31.9949C10.1794 32.8921 9.28257 33.5915 8.23335 34.0044C7.18413 34.4174 6.02965 34.5254 4.9158 34.3149C3.80195 34.1044 2.77877 33.5847 1.97574 32.8217C1.1727 32.0587 0.625846 31.0865 0.404289 30.0282C0.182731 28.9698 0.296407 27.8728 0.731008 26.8759C1.16561 25.8789 1.90157 25.0268 2.84584 24.4273C3.79011 23.8278 4.90031 23.5078 6.03598 23.5078C7.55886 23.5078 9.01939 24.0827 10.0962 25.1058C11.1731 26.129 11.7781 27.5168 11.7781 28.9638Z" fill="#483D8B"/>
</g>
</g>
<g style="mix-blend-mode:multiply">
<g style="mix-blend-mode:multiply">
<path d="M32.1837 28.9638C32.1837 30.0428 31.8469 31.0977 31.216 31.9949C30.5851 32.8921 29.6883 33.5915 28.6391 34.0044C27.5899 34.4174 26.4353 34.5254 25.3215 34.3149C24.2076 34.1044 23.1845 33.5847 22.3815 32.8217C21.5785 32.0587 21.0316 31.0865 20.81 30.0282C20.5885 28.9698 20.7022 27.8728 21.1368 26.8759C21.5714 25.8789 22.3073 25.0268 23.2516 24.4273C24.1959 23.8278 25.3061 23.5078 26.4417 23.5078C27.9646 23.5078 29.425 24.0827 30.5019 25.1058C31.5787 26.129 32.1837 27.5168 32.1837 28.9638Z" fill="#483D8B"/>
</g>
</g>
<g style="mix-blend-mode:multiply">
<g style="mix-blend-mode:multiply">
<path d="M52.5891 28.9638C52.5891 30.0428 52.2523 31.0977 51.6214 31.9949C50.9904 32.8921 50.0936 33.5915 49.0444 34.0044C47.9952 34.4174 46.8407 34.5254 45.7268 34.3149C44.613 34.1044 43.5899 33.5847 42.7868 32.8217C41.9838 32.0587 41.4369 31.0865 41.2153 30.0282C40.9937 28.9698 41.1075 27.8728 41.5421 26.8759C41.9767 25.8789 42.7127 25.0268 43.6569 24.4273C44.6012 23.8278 45.7113 23.5078 46.847 23.5078C48.3699 23.5078 49.8304 24.0827 50.9073 25.1058C51.9841 26.129 52.5891 27.5168 52.5891 28.9638Z" fill="#483D8B"/>
</g>
</g>
<g style="mix-blend-mode:multiply">
<g style="mix-blend-mode:multiply">
<path d="M73.0353 28.9638C73.0353 30.0428 72.6985 31.0977 72.0676 31.9949C71.4366 32.8921 70.5399 33.5915 69.4907 34.0044C68.4415 34.4174 67.2869 34.5254 66.1731 34.3149C65.0592 34.1044 64.0361 33.5847 63.2331 32.8217C62.4301 32.0587 61.8831 31.0865 61.6616 30.0282C61.44 28.9698 61.5538 27.8728 61.9884 26.8759C62.423 25.8789 63.1589 25.0268 64.1032 24.4273C65.0475 23.8278 66.1576 23.5078 67.2932 23.5078C68.8161 23.5078 70.2766 24.0827 71.3535 25.1058C72.4303 26.129 73.0353 27.5168 73.0353 28.9638Z" fill="#483D8B"/>
</g>
</g>
<g style="mix-blend-mode:multiply">
<g style="mix-blend-mode:multiply">
<path d="M93.4142 28.9638C93.4142 30.0428 93.0774 31.0977 92.4465 31.9949C91.8155 32.8921 90.9188 33.5915 89.8696 34.0044C88.8204 34.4174 87.6658 34.5254 86.552 34.3149C85.4381 34.1044 84.415 33.5847 83.612 32.8217C82.809 32.0587 82.2621 31.0865 82.0405 30.0282C81.8189 28.9698 81.9327 27.8728 82.3673 26.8759C82.8019 25.8789 83.5378 25.0268 84.4821 24.4273C85.4264 23.8278 86.5365 23.5078 87.6721 23.5078C89.195 23.5078 90.6555 24.0827 91.7323 25.1058C92.8092 26.129 93.4142 27.5168 93.4142 28.9638Z" fill="#483D8B"/>
</g>
</g>
<g style="mix-blend-mode:multiply">
<g style="mix-blend-mode:multiply">
<path d="M113.82 28.9638C113.82 30.0428 113.483 31.0977 112.852 31.9949C112.221 32.8921 111.324 33.5915 110.275 34.0044C109.226 34.4174 108.072 34.5254 106.958 34.3149C105.844 34.1044 104.821 33.5847 104.018 32.8217C103.215 32.0587 102.668 31.0865 102.446 30.0282C102.225 28.9698 102.338 27.8728 102.773 26.8759C103.208 25.8789 103.944 25.0268 104.888 24.4273C105.832 23.8278 106.942 23.5078 108.078 23.5078C109.601 23.5078 111.061 24.0827 112.138 25.1058C113.215 26.129 113.82 27.5168 113.82 28.9638Z" fill="#483D8B"/>
</g>
</g>
<g style="mix-blend-mode:multiply">
<g style="mix-blend-mode:multiply">
<path d="M134.225 28.9638C134.225 30.0428 133.888 31.0977 133.257 31.9949C132.627 32.8921 131.73 33.5915 130.681 34.0044C129.631 34.4174 128.477 34.5254 127.363 34.3149C126.249 34.1044 125.226 33.5847 124.423 32.8217C123.62 32.0587 123.073 31.0865 122.852 30.0282C122.63 28.9698 122.744 27.8728 123.178 26.8759C123.613 25.8789 124.349 25.0268 125.293 24.4273C126.237 23.8278 127.348 23.5078 128.483 23.5078C130.006 23.5078 131.467 24.0827 132.543 25.1058C133.62 26.129 134.225 27.5168 134.225 28.9638Z" fill="#483D8B"/>
</g>
</g>
<g style="mix-blend-mode:multiply">
<g style="mix-blend-mode:multiply">
<path d="M154.631 28.9638C154.631 30.0434 154.294 31.0988 153.662 31.9963C153.031 32.8938 152.133 33.5931 151.083 34.0057C150.033 34.4182 148.878 34.5255 147.764 34.314C146.65 34.1024 145.627 33.5815 144.824 32.8172C144.022 32.0529 143.476 31.0796 143.256 30.0204C143.036 28.9612 143.151 27.8638 143.588 26.8671C144.025 25.8703 144.763 25.0191 145.709 24.4211C146.655 23.8232 147.766 23.5053 148.902 23.5078C150.423 23.5112 151.88 24.0875 152.954 25.1103C154.028 26.1332 154.631 27.519 154.631 28.9638Z" fill="#483D8B"/>
</g>
</g>
<g style="mix-blend-mode:multiply">
<g style="mix-blend-mode:multiply">
<path d="M174.996 28.9638C174.996 30.0428 174.659 31.0977 174.028 31.9949C173.397 32.8921 172.5 33.5915 171.451 34.0044C170.402 34.4174 169.247 34.5254 168.134 34.3149C167.02 34.1044 165.997 33.5847 165.194 32.8217C164.391 32.0587 163.844 31.0865 163.622 30.0282C163.4 28.9698 163.514 27.8728 163.949 26.8759C164.383 25.8789 165.119 25.0268 166.064 24.4273C167.008 23.8278 168.118 23.5078 169.254 23.5078C170.777 23.5078 172.237 24.0827 173.314 25.1058C174.391 26.129 174.996 27.5168 174.996 28.9638Z" fill="#483D8B"/>
</g>
</g>
<g style="mix-blend-mode:multiply">
<g style="mix-blend-mode:multiply">
<path d="M195.455 28.9638C195.455 30.0428 195.118 31.0977 194.487 31.9949C193.857 32.8921 192.96 33.5915 191.911 34.0044C190.861 34.4174 189.707 34.5254 188.593 34.3149C187.479 34.1044 186.456 33.5847 185.653 32.8217C184.85 32.0587 184.303 31.0865 184.082 30.0282C183.86 28.9698 183.974 27.8728 184.408 26.8759C184.843 25.8789 185.579 25.0268 186.523 24.4273C187.467 23.8278 188.577 23.5078 189.713 23.5078C191.236 23.5078 192.697 24.0827 193.773 25.1058C194.85 26.129 195.455 27.5168 195.455 28.9638Z" fill="#483D8B"/>
</g>
</g>
<g style="mix-blend-mode:multiply">
<g style="mix-blend-mode:multiply">
<path d="M11.7781 52.1884C11.7781 53.2675 11.4413 54.3224 10.8103 55.2196C10.1794 56.1168 9.28257 56.8162 8.23335 57.2291C7.18413 57.6421 6.02965 57.7501 4.9158 57.5396C3.80195 57.329 2.77877 56.8094 1.97574 56.0464C1.1727 55.2834 0.625846 54.3112 0.404289 53.2528C0.182731 52.1945 0.296407 51.0975 0.731008 50.1005C1.16561 49.1036 1.90157 48.2514 2.84584 47.6519C3.79011 47.0524 4.90031 46.7324 6.03598 46.7324C7.55886 46.7324 9.01939 47.3073 10.0962 48.3305C11.1731 49.3537 11.7781 50.7414 11.7781 52.1884Z" fill="#483D8B"/>
</g>
</g>
<g style="mix-blend-mode:multiply">
<g style="mix-blend-mode:multiply">
<path d="M32.1837 52.1884C32.1837 53.2675 31.8469 54.3224 31.216 55.2196C30.5851 56.1168 29.6883 56.8162 28.6391 57.2291C27.5899 57.6421 26.4353 57.7501 25.3215 57.5396C24.2076 57.329 23.1845 56.8094 22.3815 56.0464C21.5785 55.2834 21.0316 54.3112 20.81 53.2528C20.5885 52.1945 20.7022 51.0975 21.1368 50.1005C21.5714 49.1036 22.3073 48.2514 23.2516 47.6519C24.1959 47.0524 25.3061 46.7324 26.4417 46.7324C27.9646 46.7324 29.425 47.3073 30.5019 48.3305C31.5787 49.3537 32.1837 50.7414 32.1837 52.1884Z" fill="#483D8B"/>
</g>
</g>
<g style="mix-blend-mode:multiply">
<g style="mix-blend-mode:multiply">
<path d="M52.5891 52.1884C52.5891 53.2675 52.2523 54.3224 51.6214 55.2196C50.9904 56.1168 50.0936 56.8162 49.0444 57.2291C47.9952 57.6421 46.8407 57.7501 45.7268 57.5396C44.613 57.329 43.5899 56.8094 42.7868 56.0464C41.9838 55.2834 41.4369 54.3112 41.2153 53.2528C40.9937 52.1945 41.1075 51.0975 41.5421 50.1005C41.9767 49.1036 42.7127 48.2514 43.6569 47.6519C44.6012 47.0524 45.7113 46.7324 46.847 46.7324C48.3699 46.7324 49.8304 47.3073 50.9073 48.3305C51.9841 49.3537 52.5891 50.7414 52.5891 52.1884Z" fill="#483D8B"/>
</g>
</g>
<g style="mix-blend-mode:multiply">
<g style="mix-blend-mode:multiply">
<path d="M73.0353 52.1884C73.0353 53.2675 72.6985 54.3224 72.0676 55.2196C71.4366 56.1168 70.5399 56.8162 69.4907 57.2291C68.4415 57.6421 67.2869 57.7501 66.1731 57.5396C65.0592 57.329 64.0361 56.8094 63.2331 56.0464C62.4301 55.2834 61.8831 54.3112 61.6616 53.2528C61.44 52.1945 61.5538 51.0975 61.9884 50.1005C62.423 49.1036 63.1589 48.2514 64.1032 47.6519C65.0475 47.0524 66.1576 46.7324 67.2932 46.7324C68.8161 46.7324 70.2766 47.3073 71.3535 48.3305C72.4303 49.3537 73.0353 50.7414 73.0353 52.1884Z" fill="#483D8B"/>
</g>
</g>
<g style="mix-blend-mode:multiply">
<g style="mix-blend-mode:multiply">
<path d="M93.4142 52.1884C93.4142 53.2675 93.0774 54.3224 92.4465 55.2196C91.8155 56.1168 90.9188 56.8162 89.8696 57.2291C88.8204 57.6421 87.6658 57.7501 86.552 57.5396C85.4381 57.329 84.415 56.8094 83.612 56.0464C82.809 55.2834 82.2621 54.3112 82.0405 53.2528C81.8189 52.1945 81.9327 51.0975 82.3673 50.1005C82.8019 49.1036 83.5378 48.2514 84.4821 47.6519C85.4264 47.0524 86.5365 46.7324 87.6721 46.7324C89.195 46.7324 90.6555 47.3073 91.7323 48.3305C92.8092 49.3537 93.4142 50.7414 93.4142 52.1884Z" fill="#483D8B"/>
</g>
</g>
<g style="mix-blend-mode:multiply">
<g style="mix-blend-mode:multiply">
<path d="M113.82 52.1884C113.82 53.2675 113.483 54.3224 112.852 55.2196C112.221 56.1168 111.324 56.8162 110.275 57.2291C109.226 57.6421 108.072 57.7501 106.958 57.5396C105.844 57.329 104.821 56.8094 104.018 56.0464C103.215 55.2834 102.668 54.3112 102.446 53.2528C102.225 52.1945 102.338 51.0975 102.773 50.1005C103.208 49.1036 103.944 48.2514 104.888 47.6519C105.832 47.0524 106.942 46.7324 108.078 46.7324C109.601 46.7324 111.061 47.3073 112.138 48.3305C113.215 49.3537 113.82 50.7414 113.82 52.1884Z" fill="#483D8B"/>
</g>
</g>
<g style="mix-blend-mode:multiply">
<g style="mix-blend-mode:multiply">
<path d="M134.225 52.1884C134.225 53.2675 133.888 54.3224 133.257 55.2196C132.627 56.1168 131.73 56.8162 130.681 57.2291C129.631 57.6421 128.477 57.7501 127.363 57.5396C126.249 57.329 125.226 56.8094 124.423 56.0464C123.62 55.2834 123.073 54.3112 122.852 53.2528C122.63 52.1945 122.744 51.0975 123.178 50.1005C123.613 49.1036 124.349 48.2514 125.293 47.6519C126.237 47.0524 127.348 46.7324 128.483 46.7324C130.006 46.7324 131.467 47.3073 132.543 48.3305C133.62 49.3537 134.225 50.7414 134.225 52.1884Z" fill="#483D8B"/>
</g>
</g>
<g style="mix-blend-mode:multiply">
<g style="mix-blend-mode:multiply">
<path d="M154.631 52.1884C154.631 53.2681 154.294 54.3234 153.662 55.2209C153.031 56.1184 152.133 56.8178 151.083 57.2303C150.033 57.6429 148.878 57.7502 147.764 57.5386C146.65 57.3271 145.627 56.8062 144.824 56.0419C144.022 55.2775 143.476 54.3042 143.256 53.245C143.036 52.1858 143.151 51.0884 143.588 50.0917C144.025 49.095 144.763 48.2437 145.709 47.6458C146.655 47.0478 147.766 46.7299 148.902 46.7324C150.423 46.7358 151.88 47.3121 152.954 48.335C154.028 49.3578 154.631 50.7436 154.631 52.1884Z" fill="#483D8B"/>
</g>
</g>
<g style="mix-blend-mode:multiply">
<g style="mix-blend-mode:multiply">
<path d="M174.996 52.1884C174.996 53.2675 174.659 54.3224 174.028 55.2196C173.397 56.1168 172.5 56.8162 171.451 57.2291C170.402 57.6421 169.247 57.7501 168.134 57.5396C167.02 57.329 165.997 56.8094 165.194 56.0464C164.391 55.2834 163.844 54.3112 163.622 53.2528C163.4 52.1945 163.514 51.0975 163.949 50.1005C164.383 49.1036 165.119 48.2514 166.064 47.6519C167.008 47.0524 168.118 46.7324 169.254 46.7324C170.777 46.7324 172.237 47.3073 173.314 48.3305C174.391 49.3537 174.996 50.7414 174.996 52.1884Z" fill="#483D8B"/>
</g>
</g>
<g style="mix-blend-mode:multiply">
<g style="mix-blend-mode:multiply">
<path d="M195.455 52.1884C195.455 53.2675 195.118 54.3224 194.487 55.2196C193.857 56.1168 192.96 56.8162 191.911 57.2291C190.861 57.6421 189.707 57.7501 188.593 57.5396C187.479 57.329 186.456 56.8094 185.653 56.0464C184.85 55.2834 184.303 54.3112 184.082 53.2528C183.86 52.1945 183.974 51.0975 184.408 50.1005C184.843 49.1036 185.579 48.2514 186.523 47.6519C187.467 47.0524 188.577 46.7324 189.713 46.7324C191.236 46.7324 192.697 47.3073 193.773 48.3305C194.85 49.3537 195.455 50.7414 195.455 52.1884Z" fill="#483D8B"/>
</g>
</g>
<g style="mix-blend-mode:multiply">
<g style="mix-blend-mode:multiply">
<path d="M6.036 80.8827C9.20725 80.8827 11.7781 78.44 11.7781 75.4267C11.7781 72.4134 9.20725 69.9707 6.036 69.9707C2.86475 69.9707 0.293945 72.4134 0.293945 75.4267C0.293945 78.44 2.86475 80.8827 6.036 80.8827Z" fill="#483D8B"/>
</g>
</g>
<g style="mix-blend-mode:multiply">
<g style="mix-blend-mode:multiply">
<path d="M32.1837 75.4129C32.1837 76.492 31.8469 77.5468 31.216 78.444C30.5851 79.3412 29.6883 80.0406 28.6391 80.4535C27.5899 80.8664 26.4353 80.9744 25.3215 80.7639C24.2076 80.5534 23.1845 80.0338 22.3815 79.2708C21.5785 78.5078 21.0316 77.5356 20.81 76.4773C20.5885 75.419 20.7022 74.322 21.1368 73.325C21.5714 72.3281 22.3073 71.476 23.2516 70.8765C24.1959 70.277 25.3061 69.957 26.4417 69.957C27.9646 69.957 29.425 70.5319 30.5019 71.555C31.5787 72.5782 32.1837 73.9659 32.1837 75.4129Z" fill="#483D8B"/>
</g>
</g>
<g style="mix-blend-mode:multiply">
<g style="mix-blend-mode:multiply">
<path d="M52.5891 75.4129C52.5891 76.492 52.2523 77.5468 51.6214 78.444C50.9904 79.3412 50.0936 80.0406 49.0444 80.4535C47.9952 80.8664 46.8407 80.9744 45.7268 80.7639C44.613 80.5534 43.5899 80.0338 42.7868 79.2708C41.9838 78.5078 41.4369 77.5356 41.2153 76.4773C40.9937 75.419 41.1075 74.322 41.5421 73.325C41.9767 72.3281 42.7127 71.476 43.6569 70.8765C44.6012 70.277 45.7113 69.957 46.847 69.957C48.3699 69.957 49.8304 70.5319 50.9073 71.555C51.9841 72.5782 52.5891 73.9659 52.5891 75.4129Z" fill="#483D8B"/>
</g>
</g>
<g style="mix-blend-mode:multiply">
<g style="mix-blend-mode:multiply">
<path d="M73.0353 75.4129C73.0353 76.492 72.6985 77.5468 72.0676 78.444C71.4366 79.3412 70.5399 80.0406 69.4907 80.4535C68.4415 80.8664 67.2869 80.9744 66.1731 80.7639C65.0592 80.5534 64.0361 80.0338 63.2331 79.2708C62.4301 78.5078 61.8831 77.5356 61.6616 76.4773C61.44 75.419 61.5538 74.322 61.9884 73.325C62.423 72.3281 63.1589 71.476 64.1032 70.8765C65.0475 70.277 66.1576 69.957 67.2932 69.957C68.8161 69.957 70.2766 70.5319 71.3535 71.555C72.4303 72.5782 73.0353 73.9659 73.0353 75.4129Z" fill="#483D8B"/>
</g>
</g>
<g style="mix-blend-mode:multiply">
<g style="mix-blend-mode:multiply">
<path d="M93.4142 75.4129C93.4142 76.492 93.0774 77.5468 92.4465 78.444C91.8155 79.3412 90.9188 80.0406 89.8696 80.4535C88.8204 80.8664 87.6658 80.9744 86.552 80.7639C85.4381 80.5534 84.415 80.0338 83.612 79.2708C82.809 78.5078 82.2621 77.5356 82.0405 76.4773C81.8189 75.419 81.9327 74.322 82.3673 73.325C82.8019 72.3281 83.5378 71.476 84.4821 70.8765C85.4264 70.277 86.5365 69.957 87.6721 69.957C89.195 69.957 90.6555 70.5319 91.7323 71.555C92.8092 72.5782 93.4142 73.9659 93.4142 75.4129Z" fill="#483D8B"/>
</g>
</g>
<g style="mix-blend-mode:multiply">
<g style="mix-blend-mode:multiply">
<path d="M108.078 80.8827C111.249 80.8827 113.82 78.44 113.82 75.4267C113.82 72.4134 111.249 69.9707 108.078 69.9707C104.907 69.9707 102.336 72.4134 102.336 75.4267C102.336 78.44 104.907 80.8827 108.078 80.8827Z" fill="#483D8B"/>
</g>
</g>
<g style="mix-blend-mode:multiply">
<g style="mix-blend-mode:multiply">
<path d="M128.496 80.8827C131.668 80.8827 134.238 78.44 134.238 75.4267C134.238 72.4134 131.668 69.9707 128.496 69.9707C125.325 69.9707 122.754 72.4134 122.754 75.4267C122.754 78.44 125.325 80.8827 128.496 80.8827Z" fill="#483D8B"/>
</g>
</g>
<g style="mix-blend-mode:multiply">
<g style="mix-blend-mode:multiply">
<path d="M154.631 75.4129C154.631 76.4925 154.294 77.5479 153.662 78.4453C153.031 79.3428 152.133 80.0421 151.083 80.4547C150.033 80.8673 148.878 80.9746 147.764 80.763C146.65 80.5514 145.627 80.0305 144.824 79.2663C144.022 78.502 143.476 77.5287 143.256 76.4695C143.036 75.4103 143.151 74.3129 143.588 73.3162C144.025 72.3195 144.763 71.4683 145.709 70.8703C146.655 70.2724 147.766 69.9545 148.902 69.957C150.423 69.9604 151.88 70.5367 152.954 71.5595C154.028 72.5823 154.631 73.9681 154.631 75.4129Z" fill="#483D8B"/>
</g>
</g>
<g style="mix-blend-mode:multiply">
<g style="mix-blend-mode:multiply">
<path d="M174.996 75.4129C174.996 76.492 174.659 77.5468 174.028 78.444C173.397 79.3412 172.5 80.0406 171.451 80.4535C170.402 80.8664 169.247 80.9744 168.134 80.7639C167.02 80.5534 165.997 80.0338 165.194 79.2708C164.391 78.5078 163.844 77.5356 163.622 76.4773C163.4 75.419 163.514 74.322 163.949 73.325C164.383 72.3281 165.119 71.476 166.064 70.8765C167.008 70.277 168.118 69.957 169.254 69.957C170.777 69.957 172.237 70.5319 173.314 71.555C174.391 72.5782 174.996 73.9659 174.996 75.4129Z" fill="#483D8B"/>
</g>
</g>
<g style="mix-blend-mode:multiply">
<g style="mix-blend-mode:multiply">
<path d="M195.455 75.4129C195.455 76.492 195.118 77.5468 194.487 78.444C193.857 79.3412 192.96 80.0406 191.911 80.4535C190.861 80.8664 189.707 80.9744 188.593 80.7639C187.479 80.5534 186.456 80.0338 185.653 79.2708C184.85 78.5078 184.303 77.5356 184.082 76.4773C183.86 75.419 183.974 74.322 184.408 73.325C184.843 72.3281 185.579 71.476 186.523 70.8765C187.467 70.277 188.577 69.957 189.713 69.957C191.236 69.957 192.697 70.5319 193.773 71.555C194.85 72.5782 195.455 73.9659 195.455 75.4129Z" fill="#483D8B"/>
</g>
</g>
<g style="mix-blend-mode:multiply">
<g style="mix-blend-mode:multiply">
<path d="M6.036 104.107C9.20725 104.107 11.7781 101.664 11.7781 98.651C11.7781 95.6379 9.20725 93.1953 6.036 93.1953C2.86475 93.1953 0.293945 95.6379 0.293945 98.651C0.293945 101.664 2.86475 104.107 6.036 104.107Z" fill="#483D8B"/>
</g>
</g>
<g style="mix-blend-mode:multiply">
<g style="mix-blend-mode:multiply">
<path d="M32.1837 98.6382C32.1863 99.7178 31.8519 100.774 31.2225 101.673C30.5932 102.572 29.6974 103.273 28.6484 103.688C27.5994 104.103 26.4445 104.212 25.3297 104.003C24.215 103.794 23.1906 103.276 22.3862 102.513C21.5819 101.751 21.0337 100.779 20.811 99.72C20.5884 98.6614 20.7013 97.5638 21.1355 96.5662C21.5697 95.5685 22.3056 94.7157 23.2502 94.1157C24.1948 93.5156 25.3055 93.1953 26.4417 93.1953C27.9623 93.1953 29.4207 93.7683 30.4972 94.7887C31.5736 95.8091 32.1801 97.1935 32.1837 98.6382Z" fill="#483D8B"/>
</g>
</g>
<g style="mix-blend-mode:multiply">
<g style="mix-blend-mode:multiply">
<path d="M52.5891 98.6382C52.5917 99.7178 52.2572 100.774 51.6279 101.673C50.9986 102.572 50.1027 103.273 49.0537 103.688C48.0047 104.103 46.8498 104.212 45.7351 104.003C44.6204 103.794 43.596 103.276 42.7916 102.513C41.9872 101.751 41.4389 100.779 41.2163 99.72C40.9936 98.6614 41.1066 97.5638 41.5408 96.5662C41.975 95.5685 42.711 94.7157 43.6556 94.1157C44.6001 93.5156 45.7108 93.1953 46.847 93.1953C48.3676 93.1953 49.826 93.7683 50.9025 94.7887C51.979 95.8091 52.5855 97.1935 52.5891 98.6382Z" fill="#483D8B"/>
</g>
</g>
<g style="mix-blend-mode:multiply">
<g style="mix-blend-mode:multiply">
<path d="M73.0352 98.6382C73.0379 99.7178 72.7034 100.774 72.0741 101.673C71.4448 102.572 70.5489 103.273 69.4999 103.688C68.4509 104.103 67.296 104.212 66.1813 104.003C65.0666 103.794 64.0422 103.276 63.2378 102.513C62.4334 101.751 61.8852 100.779 61.6626 99.72C61.44 98.6614 61.5528 97.5638 61.987 96.5662C62.4212 95.5685 63.1572 94.7157 64.1018 94.1157C65.0463 93.5156 66.157 93.1953 67.2932 93.1953C68.0466 93.1937 68.793 93.3332 69.4896 93.606C70.1862 93.8787 70.8192 94.2794 71.3526 94.785C71.886 95.2906 72.3092 95.8912 72.5979 96.5524C72.8866 97.2136 73.0352 97.9224 73.0352 98.6382Z" fill="#483D8B"/>
</g>
</g>
<g style="mix-blend-mode:multiply">
<g style="mix-blend-mode:multiply">
<path d="M93.4141 98.6382C93.4168 99.7178 93.0823 100.774 92.453 101.673C91.8237 102.572 90.9278 103.273 89.8788 103.688C88.8298 104.103 87.6749 104.212 86.5602 104.003C85.4455 103.794 84.4211 103.276 83.6167 102.513C82.8123 101.751 82.2642 100.779 82.0415 99.72C81.8189 98.6614 81.9317 97.5638 82.3659 96.5662C82.8001 95.5685 83.5361 94.7157 84.4807 94.1157C85.4252 93.5156 86.5359 93.1953 87.6721 93.1953C89.1927 93.1953 90.6511 93.7683 91.7276 94.7887C92.804 95.8091 93.4106 97.1935 93.4141 98.6382Z" fill="#483D8B"/>
</g>
</g>
<g style="mix-blend-mode:multiply">
<g style="mix-blend-mode:multiply">
<path d="M108.078 104.107C111.249 104.107 113.82 101.664 113.82 98.651C113.82 95.6379 111.249 93.1953 108.078 93.1953C104.907 93.1953 102.336 95.6379 102.336 98.651C102.336 101.664 104.907 104.107 108.078 104.107Z" fill="#483D8B"/>
</g>
</g>
<g style="mix-blend-mode:multiply">
<g style="mix-blend-mode:multiply">
<path d="M128.496 104.107C131.668 104.107 134.238 101.664 134.238 98.651C134.238 95.6379 131.668 93.1953 128.496 93.1953C125.325 93.1953 122.754 95.6379 122.754 98.651C122.754 101.664 125.325 104.107 128.496 104.107Z" fill="#483D8B"/>
</g>
</g>
<g style="mix-blend-mode:multiply">
<g style="mix-blend-mode:multiply">
<path d="M154.631 98.6383C154.634 99.7184 154.299 100.775 153.669 101.674C153.039 102.573 152.142 103.274 151.093 103.689C150.043 104.103 148.887 104.213 147.772 104.002C146.657 103.792 145.633 103.272 144.829 102.509C144.025 101.745 143.478 100.772 143.257 99.7122C143.036 98.6527 143.15 97.5547 143.587 96.5573C144.023 95.5599 144.761 94.708 145.707 94.1095C146.654 93.5109 147.766 93.1928 148.902 93.1953C150.422 93.1953 151.879 93.7688 152.953 94.7895C154.028 95.8103 154.631 97.1947 154.631 98.6383Z" fill="#483D8B"/>
</g>
</g>
<g style="mix-blend-mode:multiply">
<g style="mix-blend-mode:multiply">
<path d="M174.996 98.6382C174.998 99.7178 174.664 100.774 174.035 101.673C173.405 102.572 172.509 103.273 171.46 103.688C170.411 104.103 169.256 104.212 168.142 104.003C167.027 103.794 166.003 103.276 165.198 102.513C164.394 101.751 163.846 100.779 163.623 99.72C163.4 98.6614 163.513 97.5638 163.947 96.5662C164.382 95.5685 165.118 94.7157 166.062 94.1157C167.007 93.5156 168.117 93.1953 169.254 93.1953C170.774 93.1953 172.233 93.7683 173.309 94.7887C174.386 95.8091 174.992 97.1935 174.996 98.6382Z" fill="#483D8B"/>
</g>
</g>
<g style="mix-blend-mode:multiply">
<g style="mix-blend-mode:multiply">
<path d="M195.455 98.6384C195.458 99.7196 195.122 100.777 194.491 101.677C193.86 102.576 192.962 103.278 191.91 103.691C190.859 104.105 189.702 104.213 188.586 104.001C187.471 103.788 186.446 103.266 185.643 102.5C184.841 101.733 184.296 100.758 184.078 99.6966C183.86 98.6354 183.978 97.5366 184.419 96.5397C184.859 95.5427 185.601 94.6925 186.551 94.0971C187.501 93.5017 188.616 93.1879 189.753 93.1954C191.267 93.2055 192.715 93.783 193.783 94.8023C194.851 95.8216 195.452 97.2002 195.455 98.6384Z" fill="#483D8B"/>
</g>
</g>
<g style="mix-blend-mode:multiply">
<g style="mix-blend-mode:multiply">
<path d="M6.036 127.336C9.20725 127.336 11.7781 124.893 11.7781 121.88C11.7781 118.867 9.20725 116.424 6.036 116.424C2.86475 116.424 0.293945 118.867 0.293945 121.88C0.293945 124.893 2.86475 127.336 6.036 127.336Z" fill="#483D8B"/>
</g>
</g>
<g style="mix-blend-mode:multiply">
<g style="mix-blend-mode:multiply">
<path d="M32.1837 121.88C32.1837 122.959 31.8469 124.014 31.216 124.911C30.5851 125.808 29.6883 126.508 28.6391 126.921C27.5899 127.334 26.4353 127.442 25.3215 127.231C24.2076 127.021 23.1845 126.501 22.3815 125.738C21.5785 124.975 21.0316 124.003 20.81 122.944C20.5885 121.886 20.7022 120.789 21.1368 119.792C21.5714 118.795 22.3073 117.943 23.2516 117.343C24.1959 116.744 25.3061 116.424 26.4417 116.424C27.9646 116.424 29.425 116.999 30.5019 118.022C31.5787 119.045 32.1837 120.433 32.1837 121.88Z" fill="#483D8B"/>
</g>
</g>
<g style="mix-blend-mode:multiply">
<g style="mix-blend-mode:multiply">
<path d="M52.5891 121.88C52.5891 122.959 52.2523 124.014 51.6214 124.911C50.9904 125.808 50.0936 126.508 49.0444 126.921C47.9952 127.334 46.8407 127.442 45.7268 127.231C44.613 127.021 43.5899 126.501 42.7868 125.738C41.9838 124.975 41.4369 124.003 41.2153 122.944C40.9937 121.886 41.1075 120.789 41.5421 119.792C41.9767 118.795 42.7127 117.943 43.6569 117.343C44.6012 116.744 45.7113 116.424 46.847 116.424C48.3699 116.424 49.8304 116.999 50.9073 118.022C51.9841 119.045 52.5891 120.433 52.5891 121.88Z" fill="#483D8B"/>
</g>
</g>
<g style="mix-blend-mode:multiply">
<g style="mix-blend-mode:multiply">
<path d="M73.0354 121.88C73.0354 122.959 72.6986 124.014 72.0677 124.911C71.4367 125.808 70.54 126.508 69.4907 126.921C68.4415 127.334 67.287 127.442 66.1731 127.231C65.0593 127.021 64.0362 126.501 63.2331 125.738C62.4301 124.975 61.8831 124.003 61.6616 122.944C61.44 121.886 61.5538 120.789 61.9884 119.792C62.423 118.795 63.159 117.943 64.1032 117.343C65.0475 116.744 66.1576 116.424 67.2933 116.424C68.0478 116.422 68.7953 116.562 69.4928 116.836C70.1902 117.109 70.8239 117.511 71.3575 118.018C71.891 118.525 72.3139 119.127 72.6019 119.79C72.8898 120.453 73.0371 121.163 73.0354 121.88Z" fill="#483D8B"/>
</g>
</g>
<g style="mix-blend-mode:multiply">
<g style="mix-blend-mode:multiply">
<path d="M93.4142 121.88C93.4142 122.959 93.0774 124.014 92.4465 124.911C91.8155 125.808 90.9188 126.508 89.8696 126.921C88.8204 127.334 87.6658 127.442 86.552 127.231C85.4381 127.021 84.415 126.501 83.612 125.738C82.809 124.975 82.2621 124.003 82.0405 122.944C81.8189 121.886 81.9327 120.789 82.3673 119.792C82.8019 118.795 83.5378 117.943 84.4821 117.343C85.4264 116.744 86.5365 116.424 87.6721 116.424C89.195 116.424 90.6555 116.999 91.7323 118.022C92.8092 119.045 93.4142 120.433 93.4142 121.88Z" fill="#483D8B"/>
</g>
</g>
<g style="mix-blend-mode:multiply">
<g style="mix-blend-mode:multiply">
<path d="M108.078 127.336C111.249 127.336 113.82 124.893 113.82 121.88C113.82 118.867 111.249 116.424 108.078 116.424C104.907 116.424 102.336 118.867 102.336 121.88C102.336 124.893 104.907 127.336 108.078 127.336Z" fill="#483D8B"/>
</g>
</g>
<g style="mix-blend-mode:multiply">
<g style="mix-blend-mode:multiply">
<path d="M128.496 127.336C131.668 127.336 134.238 124.893 134.238 121.88C134.238 118.867 131.668 116.424 128.496 116.424C125.325 116.424 122.754 118.867 122.754 121.88C122.754 124.893 125.325 127.336 128.496 127.336Z" fill="#483D8B"/>
</g>
</g>
<g style="mix-blend-mode:multiply">
<g style="mix-blend-mode:multiply">
<path d="M154.631 121.88C154.631 122.96 154.294 124.015 153.662 124.912C153.031 125.81 152.133 126.509 151.083 126.922C150.033 127.334 148.878 127.442 147.764 127.23C146.65 127.019 145.627 126.498 144.824 125.733C144.022 124.969 143.476 123.996 143.256 122.936C143.036 121.877 143.151 120.78 143.588 119.783C144.025 118.786 144.763 117.935 145.709 117.337C146.655 116.739 147.766 116.421 148.902 116.424C149.656 116.424 150.402 116.565 151.098 116.839C151.794 117.114 152.426 117.516 152.958 118.023C153.49 118.529 153.912 119.131 154.199 119.793C154.486 120.455 154.633 121.164 154.631 121.88Z" fill="#483D8B"/>
</g>
</g>
<g style="mix-blend-mode:multiply">
<g style="mix-blend-mode:multiply">
<path d="M174.996 121.88C174.996 122.959 174.659 124.014 174.028 124.911C173.397 125.808 172.5 126.508 171.451 126.921C170.402 127.334 169.247 127.442 168.134 127.231C167.02 127.021 165.997 126.501 165.194 125.738C164.391 124.975 163.844 124.003 163.622 122.944C163.4 121.886 163.514 120.789 163.949 119.792C164.383 118.795 165.119 117.943 166.064 117.343C167.008 116.744 168.118 116.424 169.254 116.424C170.777 116.424 172.237 116.999 173.314 118.022C174.391 119.045 174.996 120.433 174.996 121.88Z" fill="#483D8B"/>
</g>
</g>
<g style="mix-blend-mode:multiply">
<g style="mix-blend-mode:multiply">
<path d="M195.455 121.88C195.455 122.959 195.118 124.014 194.487 124.911C193.857 125.808 192.96 126.508 191.911 126.921C190.861 127.334 189.707 127.442 188.593 127.231C187.479 127.021 186.456 126.501 185.653 125.738C184.85 124.975 184.303 124.003 184.082 122.944C183.86 121.886 183.974 120.789 184.408 119.792C184.843 118.795 185.579 117.943 186.523 117.343C187.467 116.744 188.577 116.424 189.713 116.424C191.236 116.424 192.697 116.999 193.773 118.022C194.85 119.045 195.455 120.433 195.455 121.88Z" fill="#483D8B"/>
</g>
</g>
<g style="mix-blend-mode:multiply">
<g style="mix-blend-mode:multiply">
<path d="M6.036 150.56C9.20725 150.56 11.7781 148.117 11.7781 145.104C11.7781 142.091 9.20725 139.648 6.036 139.648C2.86475 139.648 0.293945 142.091 0.293945 145.104C0.293945 148.117 2.86475 150.56 6.036 150.56Z" fill="#483D8B"/>
</g>
</g>
<g style="mix-blend-mode:multiply">
<g style="mix-blend-mode:multiply">
<path d="M32.1837 145.104C32.1837 146.183 31.8469 147.238 31.216 148.135C30.5851 149.033 29.6883 149.732 28.6391 150.145C27.5899 150.558 26.4353 150.666 25.3215 150.455C24.2076 150.245 23.1845 149.725 22.3815 148.962C21.5785 148.199 21.0316 147.227 20.81 146.169C20.5885 145.11 20.7022 144.013 21.1368 143.016C21.5714 142.019 22.3073 141.167 23.2516 140.568C24.1959 139.968 25.3061 139.648 26.4417 139.648C27.9646 139.648 29.425 140.223 30.5019 141.246C31.5787 142.27 32.1837 143.657 32.1837 145.104Z" fill="#483D8B"/>
</g>
</g>
<g style="mix-blend-mode:multiply">
<g style="mix-blend-mode:multiply">
<path d="M52.5891 145.104C52.5891 146.183 52.2523 147.238 51.6214 148.135C50.9904 149.033 50.0936 149.732 49.0444 150.145C47.9952 150.558 46.8407 150.666 45.7268 150.455C44.613 150.245 43.5899 149.725 42.7868 148.962C41.9838 148.199 41.4369 147.227 41.2153 146.169C40.9937 145.11 41.1075 144.013 41.5421 143.016C41.9767 142.019 42.7127 141.167 43.6569 140.568C44.6012 139.968 45.7113 139.648 46.847 139.648C48.3699 139.648 49.8304 140.223 50.9073 141.246C51.9841 142.27 52.5891 143.657 52.5891 145.104Z" fill="#483D8B"/>
</g>
</g>
<g style="mix-blend-mode:multiply">
<g style="mix-blend-mode:multiply">
<path d="M73.0353 145.104C73.0353 146.183 72.6985 147.238 72.0676 148.135C71.4366 149.033 70.5399 149.732 69.4907 150.145C68.4415 150.558 67.2869 150.666 66.1731 150.455C65.0592 150.245 64.0361 149.725 63.2331 148.962C62.4301 148.199 61.8831 147.227 61.6616 146.169C61.44 145.11 61.5538 144.013 61.9884 143.016C62.423 142.019 63.1589 141.167 64.1032 140.568C65.0475 139.968 66.1576 139.648 67.2932 139.648C68.8161 139.648 70.2766 140.223 71.3535 141.246C72.4303 142.27 73.0353 143.657 73.0353 145.104Z" fill="#483D8B"/>
</g>
</g>
<g style="mix-blend-mode:multiply">
<g style="mix-blend-mode:multiply">
<path d="M93.4142 145.104C93.4142 146.183 93.0774 147.238 92.4465 148.135C91.8155 149.033 90.9188 149.732 89.8696 150.145C88.8204 150.558 87.6658 150.666 86.552 150.455C85.4381 150.245 84.415 149.725 83.612 148.962C82.809 148.199 82.2621 147.227 82.0405 146.169C81.8189 145.11 81.9327 144.013 82.3673 143.016C82.8019 142.019 83.5378 141.167 84.4821 140.568C85.4264 139.968 86.5365 139.648 87.6721 139.648C89.195 139.648 90.6555 140.223 91.7323 141.246C92.8092 142.27 93.4142 143.657 93.4142 145.104Z" fill="#483D8B"/>
</g>
</g>
<g style="mix-blend-mode:multiply">
<g style="mix-blend-mode:multiply">
<path d="M108.078 150.56C111.249 150.56 113.82 148.117 113.82 145.104C113.82 142.091 111.249 139.648 108.078 139.648C104.907 139.648 102.336 142.091 102.336 145.104C102.336 148.117 104.907 150.56 108.078 150.56Z" fill="#483D8B"/>
</g>
</g>
<g style="mix-blend-mode:multiply">
<g style="mix-blend-mode:multiply">
<path d="M128.496 150.56C131.668 150.56 134.238 148.117 134.238 145.104C134.238 142.091 131.668 139.648 128.496 139.648C125.325 139.648 122.754 142.091 122.754 145.104C122.754 148.117 125.325 150.56 128.496 150.56Z" fill="#483D8B"/>
</g>
</g>
<g style="mix-blend-mode:multiply">
<g style="mix-blend-mode:multiply">
<path d="M154.631 145.104C154.631 146.184 154.294 147.239 153.662 148.137C153.031 149.034 152.133 149.733 151.083 150.146C150.033 150.559 148.878 150.666 147.764 150.454C146.65 150.243 145.627 149.722 144.824 148.958C144.022 148.193 143.476 147.22 143.256 146.161C143.036 145.102 143.151 144.004 143.588 143.008C144.025 142.011 144.763 141.16 145.709 140.562C146.655 139.964 147.766 139.646 148.902 139.648C150.423 139.652 151.88 140.228 152.954 141.251C154.028 142.274 154.631 143.659 154.631 145.104Z" fill="#483D8B"/>
</g>
</g>
<g style="mix-blend-mode:multiply">
<g style="mix-blend-mode:multiply">
<path d="M174.996 145.104C174.996 146.183 174.659 147.238 174.028 148.135C173.397 149.033 172.5 149.732 171.451 150.145C170.402 150.558 169.247 150.666 168.134 150.455C167.02 150.245 165.997 149.725 165.194 148.962C164.391 148.199 163.844 147.227 163.622 146.169C163.4 145.11 163.514 144.013 163.949 143.016C164.383 142.019 165.119 141.167 166.064 140.568C167.008 139.968 168.118 139.648 169.254 139.648C170.777 139.648 172.237 140.223 173.314 141.246C174.391 142.27 174.996 143.657 174.996 145.104Z" fill="#483D8B"/>
</g>
</g>
<g style="mix-blend-mode:multiply">
<g style="mix-blend-mode:multiply">
<path d="M195.455 145.105C195.444 146.183 195.097 147.234 194.458 148.126C193.819 149.017 192.916 149.708 191.864 150.112C190.812 150.516 189.657 150.615 188.545 150.395C187.434 150.176 186.416 149.648 185.62 148.88C184.824 148.111 184.286 147.135 184.073 146.076C183.86 145.016 183.983 143.921 184.425 142.928C184.867 141.934 185.61 141.088 186.558 140.495C187.506 139.903 188.618 139.59 189.753 139.598C190.508 139.603 191.255 139.749 191.951 140.029C192.646 140.309 193.277 140.716 193.806 141.227C194.336 141.739 194.754 142.345 195.037 143.01C195.32 143.675 195.462 144.387 195.455 145.105Z" fill="#483D8B"/>
</g>
</g>
<g style="mix-blend-mode:multiply">
<g style="mix-blend-mode:multiply">
<path d="M11.7781 168.331C11.7781 169.41 11.4413 170.465 10.8103 171.362C10.1794 172.259 9.28257 172.959 8.23335 173.372C7.18413 173.785 6.02965 173.893 4.9158 173.682C3.80195 173.472 2.77877 172.952 1.97574 172.189C1.1727 171.426 0.625846 170.454 0.404289 169.395C0.182731 168.337 0.296407 167.24 0.731008 166.243C1.16561 165.246 1.90157 164.394 2.84584 163.794C3.79011 163.195 4.90031 162.875 6.03598 162.875C7.55886 162.875 9.01939 163.45 10.0962 164.473C11.1731 165.496 11.7781 166.884 11.7781 168.331Z" fill="#483D8B"/>
</g>
</g>
<g style="mix-blend-mode:multiply">
<g style="mix-blend-mode:multiply">
<path d="M32.1837 168.331C32.1837 169.41 31.8469 170.465 31.216 171.362C30.5851 172.259 29.6883 172.959 28.6391 173.372C27.5899 173.785 26.4353 173.893 25.3215 173.682C24.2076 173.472 23.1845 172.952 22.3815 172.189C21.5785 171.426 21.0316 170.454 20.81 169.395C20.5885 168.337 20.7022 167.24 21.1368 166.243C21.5714 165.246 22.3073 164.394 23.2516 163.794C24.1959 163.195 25.3061 162.875 26.4417 162.875C27.9646 162.875 29.425 163.45 30.5019 164.473C31.5787 165.496 32.1837 166.884 32.1837 168.331Z" fill="#483D8B"/>
</g>
</g>
<g style="mix-blend-mode:multiply">
<g style="mix-blend-mode:multiply">
<path d="M52.5891 168.331C52.5891 169.41 52.2523 170.465 51.6214 171.362C50.9904 172.259 50.0936 172.959 49.0444 173.372C47.9952 173.785 46.8407 173.893 45.7268 173.682C44.613 173.472 43.5899 172.952 42.7868 172.189C41.9838 171.426 41.4369 170.454 41.2153 169.395C40.9937 168.337 41.1075 167.24 41.5421 166.243C41.9767 165.246 42.7127 164.394 43.6569 163.794C44.6012 163.195 45.7113 162.875 46.847 162.875C48.3699 162.875 49.8304 163.45 50.9073 164.473C51.9841 165.496 52.5891 166.884 52.5891 168.331Z" fill="#483D8B"/>
</g>
</g>
<g style="mix-blend-mode:multiply">
<g style="mix-blend-mode:multiply">
<path d="M73.0353 168.331C73.0353 169.41 72.6985 170.465 72.0676 171.362C71.4366 172.259 70.5399 172.959 69.4907 173.372C68.4415 173.785 67.2869 173.893 66.1731 173.682C65.0592 173.472 64.0361 172.952 63.2331 172.189C62.4301 171.426 61.8831 170.454 61.6616 169.395C61.44 168.337 61.5538 167.24 61.9884 166.243C62.423 165.246 63.1589 164.394 64.1032 163.794C65.0475 163.195 66.1576 162.875 67.2932 162.875C68.8161 162.875 70.2766 163.45 71.3535 164.473C72.4303 165.496 73.0353 166.884 73.0353 168.331Z" fill="#483D8B"/>
</g>
</g>
<g style="mix-blend-mode:multiply">
<g style="mix-blend-mode:multiply">
<path d="M93.4142 168.331C93.4142 169.41 93.0774 170.465 92.4465 171.362C91.8155 172.259 90.9188 172.959 89.8696 173.372C88.8204 173.785 87.6658 173.893 86.552 173.682C85.4381 173.472 84.415 172.952 83.612 172.189C82.809 171.426 82.2621 170.454 82.0405 169.395C81.8189 168.337 81.9327 167.24 82.3673 166.243C82.8019 165.246 83.5378 164.394 84.4821 163.794C85.4264 163.195 86.5365 162.875 87.6721 162.875C89.195 162.875 90.6555 163.45 91.7323 164.473C92.8092 165.496 93.4142 166.884 93.4142 168.331Z" fill="#483D8B"/>
</g>
</g>
<g style="mix-blend-mode:multiply">
<g style="mix-blend-mode:multiply">
<path d="M113.82 168.331C113.82 169.41 113.483 170.465 112.852 171.362C112.221 172.259 111.324 172.959 110.275 173.372C109.226 173.785 108.072 173.893 106.958 173.682C105.844 173.472 104.821 172.952 104.018 172.189C103.215 171.426 102.668 170.454 102.446 169.395C102.225 168.337 102.338 167.24 102.773 166.243C103.208 165.246 103.944 164.394 104.888 163.794C105.832 163.195 106.942 162.875 108.078 162.875C109.601 162.875 111.061 163.45 112.138 164.473C113.215 165.496 113.82 166.884 113.82 168.331Z" fill="#483D8B"/>
</g>
</g>
<g style="mix-blend-mode:multiply">
<g style="mix-blend-mode:multiply">
<path d="M134.225 168.331C134.225 169.41 133.888 170.465 133.257 171.362C132.627 172.259 131.73 172.959 130.681 173.372C129.631 173.785 128.477 173.893 127.363 173.682C126.249 173.472 125.226 172.952 124.423 172.189C123.62 171.426 123.073 170.454 122.852 169.395C122.63 168.337 122.744 167.24 123.178 166.243C123.613 165.246 124.349 164.394 125.293 163.794C126.237 163.195 127.348 162.875 128.483 162.875C130.006 162.875 131.467 163.45 132.543 164.473C133.62 165.496 134.225 166.884 134.225 168.331Z" fill="#483D8B"/>
</g>
</g>
<g style="mix-blend-mode:multiply">
<g style="mix-blend-mode:multiply">
<path d="M154.631 168.331C154.631 169.411 154.294 170.466 153.662 171.363C153.031 172.261 152.133 172.96 151.083 173.373C150.033 173.785 148.878 173.893 147.764 173.681C146.65 173.47 145.627 172.949 144.824 172.184C144.022 171.42 143.476 170.447 143.256 169.388C143.036 168.328 143.151 167.231 143.588 166.234C144.025 165.238 144.763 164.386 145.709 163.788C146.655 163.19 147.766 162.872 148.902 162.875C150.423 162.878 151.88 163.455 152.954 164.477C154.028 165.5 154.631 166.886 154.631 168.331Z" fill="#483D8B"/>
</g>
</g>
<g style="mix-blend-mode:multiply">
<g style="mix-blend-mode:multiply">
<path d="M174.996 168.331C174.996 169.41 174.659 170.465 174.028 171.362C173.397 172.259 172.5 172.959 171.451 173.372C170.402 173.785 169.247 173.893 168.134 173.682C167.02 173.472 165.997 172.952 165.194 172.189C164.391 171.426 163.844 170.454 163.622 169.395C163.4 168.337 163.514 167.24 163.949 166.243C164.383 165.246 165.119 164.394 166.064 163.794C167.008 163.195 168.118 162.875 169.254 162.875C170.777 162.875 172.237 163.45 173.314 164.473C174.391 165.496 174.996 166.884 174.996 168.331Z" fill="#483D8B"/>
</g>
</g>
<g style="mix-blend-mode:multiply">
<g style="mix-blend-mode:multiply">
<path d="M195.455 168.331C195.455 169.41 195.118 170.465 194.487 171.362C193.857 172.259 192.96 172.959 191.911 173.372C190.861 173.785 189.707 173.893 188.593 173.682C187.479 173.472 186.456 172.952 185.653 172.189C184.85 171.426 184.303 170.454 184.082 169.395C183.86 168.337 183.974 167.24 184.408 166.243C184.843 165.246 185.579 164.394 186.523 163.794C187.467 163.195 188.577 162.875 189.713 162.875C191.236 162.875 192.697 163.45 193.773 164.473C194.85 165.496 195.455 166.884 195.455 168.331Z" fill="#483D8B"/>
</g>
</g>
</g>
</g>
</g>
</svg>
