<svg width="192" height="183" viewBox="0 0 192 183" fill="none" xmlns="http://www.w3.org/2000/svg">
<mask id="mask0" mask-type="alpha" maskUnits="userSpaceOnUse" x="0" y="0" width="192" height="183">
<ellipse cx="95.9236" cy="91.5547" rx="95.9236" ry="91.1445" fill="#C4C4C4"/>
</mask>
<g mask="url(#mask0)">
<g style="mix-blend-mode:multiply">
<g style="mix-blend-mode:multiply">
<g style="mix-blend-mode:multiply">
<g style="mix-blend-mode:multiply">
<path d="M11.7781 6.15906C11.7781 7.23814 11.4413 8.29299 10.8103 9.19021C10.1794 10.0874 9.28257 10.7867 8.23335 11.1997C7.18413 11.6126 6.02965 11.7207 4.9158 11.5102C3.80195 11.2996 2.77877 10.78 1.97574 10.017C1.1727 9.25398 0.625846 8.28182 0.404289 7.22347C0.182731 6.16512 0.296407 5.06811 0.731008 4.07117C1.16561 3.07423 1.90157 2.22213 2.84584 1.62262C3.79011 1.02311 4.90031 0.703125 6.03598 0.703125C7.55886 0.703125 9.01939 1.27793 10.0962 2.30112C11.1731 3.3243 11.7781 4.71206 11.7781 6.15906Z" fill="#FF0000"/>
</g>
</g>
<g style="mix-blend-mode:multiply">
<g style="mix-blend-mode:multiply">
<path d="M32.1837 6.15906C32.1837 7.23814 31.8469 8.29299 31.216 9.19021C30.5851 10.0874 29.6883 10.7867 28.6391 11.1997C27.5899 11.6126 26.4353 11.7207 25.3215 11.5102C24.2076 11.2996 23.1845 10.78 22.3815 10.017C21.5785 9.25398 21.0316 8.28182 20.81 7.22347C20.5885 6.16512 20.7022 5.06811 21.1368 4.07117C21.5714 3.07423 22.3073 2.22213 23.2516 1.62262C24.1959 1.02311 25.3061 0.703125 26.4417 0.703125C27.9646 0.703125 29.425 1.27793 30.5019 2.30112C31.5787 3.3243 32.1837 4.71206 32.1837 6.15906Z" fill="#FF0000"/>
</g>
</g>
<g style="mix-blend-mode:multiply">
<g style="mix-blend-mode:multiply">
<path d="M52.5891 6.15906C52.5891 7.23814 52.2523 8.29299 51.6214 9.19021C50.9904 10.0874 50.0936 10.7867 49.0444 11.1997C47.9952 11.6126 46.8407 11.7207 45.7268 11.5102C44.613 11.2996 43.5899 10.78 42.7868 10.017C41.9838 9.25398 41.4369 8.28182 41.2153 7.22347C40.9937 6.16512 41.1075 5.06811 41.5421 4.07117C41.9767 3.07423 42.7127 2.22213 43.6569 1.62262C44.6012 1.02311 45.7113 0.703125 46.847 0.703125C48.3699 0.703125 49.8304 1.27793 50.9073 2.30112C51.9841 3.3243 52.5891 4.71206 52.5891 6.15906Z" fill="#FF0000"/>
</g>
</g>
<g style="mix-blend-mode:multiply">
<g style="mix-blend-mode:multiply">
<path d="M73.0354 6.15907C73.0354 7.23815 72.6986 8.29299 72.0677 9.19022C71.4367 10.0874 70.54 10.7867 69.4907 11.1997C68.4415 11.6126 67.287 11.7207 66.1731 11.5102C65.0593 11.2996 64.0362 10.78 63.2331 10.017C62.4301 9.25398 61.8831 8.28182 61.6616 7.22347C61.44 6.16513 61.5538 5.06812 61.9884 4.07118C62.423 3.07424 63.159 2.22214 64.1032 1.62263C65.0475 1.02313 66.1576 0.70314 67.2933 0.70314C68.0478 0.701459 68.7953 0.841447 69.4928 1.11504C70.1902 1.38863 70.8239 1.79043 71.3575 2.29739C71.891 2.80436 72.3139 3.4065 72.6019 4.0692C72.8898 4.7319 73.0371 5.44211 73.0354 6.15907Z" fill="#FF0000"/>
</g>
</g>
<g style="mix-blend-mode:multiply">
<g style="mix-blend-mode:multiply">
<path d="M93.4142 6.15906C93.4142 7.23814 93.0774 8.29299 92.4465 9.19021C91.8155 10.0874 90.9188 10.7867 89.8696 11.1997C88.8204 11.6126 87.6658 11.7207 86.552 11.5102C85.4381 11.2996 84.415 10.78 83.612 10.017C82.809 9.25398 82.2621 8.28182 82.0405 7.22347C81.8189 6.16512 81.9327 5.06811 82.3673 4.07117C82.8019 3.07423 83.5378 2.22213 84.4821 1.62262C85.4264 1.02311 86.5365 0.703125 87.6721 0.703125C89.195 0.703125 90.6555 1.27793 91.7323 2.30112C92.8092 3.3243 93.4142 4.71206 93.4142 6.15906Z" fill="#FF0000"/>
</g>
</g>
<g style="mix-blend-mode:multiply">
<g style="mix-blend-mode:multiply">
<path d="M113.82 6.15906C113.82 7.23814 113.483 8.29299 112.852 9.19021C112.221 10.0874 111.324 10.7867 110.275 11.1997C109.226 11.6126 108.072 11.7207 106.958 11.5102C105.844 11.2996 104.821 10.78 104.018 10.017C103.215 9.25398 102.668 8.28182 102.446 7.22347C102.225 6.16512 102.338 5.06811 102.773 4.07117C103.208 3.07423 103.944 2.22213 104.888 1.62262C105.832 1.02311 106.942 0.703125 108.078 0.703125C109.601 0.703125 111.061 1.27793 112.138 2.30112C113.215 3.3243 113.82 4.71206 113.82 6.15906Z" fill="#FF0000"/>
</g>
</g>
<g style="mix-blend-mode:multiply">
<g style="mix-blend-mode:multiply">
<path d="M134.225 6.15907C134.225 7.23815 133.888 8.29299 133.257 9.19022C132.627 10.0874 131.73 10.7867 130.681 11.1997C129.631 11.6126 128.477 11.7207 127.363 11.5102C126.249 11.2996 125.226 10.78 124.423 10.017C123.62 9.25398 123.073 8.28182 122.852 7.22347C122.63 6.16513 122.744 5.06812 123.178 4.07118C123.613 3.07424 124.349 2.22214 125.293 1.62263C126.237 1.02313 127.348 0.70314 128.483 0.70314C129.238 0.701459 129.985 0.841447 130.683 1.11504C131.38 1.38863 132.014 1.79043 132.547 2.29739C133.081 2.80436 133.504 3.4065 133.792 4.0692C134.08 4.7319 134.227 5.44211 134.225 6.15907Z" fill="#FF0000"/>
</g>
</g>
<g style="mix-blend-mode:multiply">
<g style="mix-blend-mode:multiply">
<path d="M154.631 6.15907C154.631 7.23869 154.294 8.29404 153.662 9.19154C153.031 10.089 152.133 10.7883 151.083 11.2009C150.033 11.6135 148.878 11.7208 147.764 11.5092C146.65 11.2977 145.627 10.7768 144.824 10.0125C144.022 9.24816 143.476 8.2748 143.256 7.21562C143.036 6.15643 143.151 5.05903 143.588 4.06231C144.025 3.0656 144.763 2.21438 145.709 1.61641C146.655 1.01844 147.766 0.700617 148.902 0.70314C149.656 0.703138 150.402 0.844352 151.098 1.11869C151.794 1.39304 152.426 1.79511 152.958 2.30191C153.49 2.8087 153.912 3.41029 154.199 4.07216C154.486 4.73403 154.633 5.44319 154.631 6.15907Z" fill="#FF0000"/>
</g>
</g>
<g style="mix-blend-mode:multiply">
<g style="mix-blend-mode:multiply">
<path d="M174.996 6.15906C174.996 7.23814 174.659 8.29299 174.028 9.19021C173.397 10.0874 172.5 10.7867 171.451 11.1997C170.402 11.6126 169.247 11.7207 168.134 11.5102C167.02 11.2996 165.997 10.78 165.194 10.017C164.391 9.25398 163.844 8.28182 163.622 7.22347C163.4 6.16512 163.514 5.06811 163.949 4.07117C164.383 3.07423 165.119 2.22213 166.064 1.62262C167.008 1.02311 168.118 0.703125 169.254 0.703125C170.777 0.703125 172.237 1.27793 173.314 2.30112C174.391 3.3243 174.996 4.71206 174.996 6.15906Z" fill="#FF0000"/>
</g>
</g>
<g style="mix-blend-mode:multiply">
<g style="mix-blend-mode:multiply">
<path d="M195.455 6.15906C195.455 7.23814 195.118 8.29299 194.487 9.19021C193.857 10.0874 192.96 10.7867 191.911 11.1997C190.861 11.6126 189.707 11.7207 188.593 11.5102C187.479 11.2996 186.456 10.78 185.653 10.017C184.85 9.25398 184.303 8.28182 184.082 7.22347C183.86 6.16512 183.974 5.06811 184.408 4.07117C184.843 3.07423 185.579 2.22213 186.523 1.62262C187.467 1.02311 188.577 0.703125 189.713 0.703125C191.236 0.703125 192.697 1.27793 193.773 2.30112C194.85 3.3243 195.455 4.71206 195.455 6.15906Z" fill="#FF0000"/>
</g>
</g>
<g style="mix-blend-mode:multiply">
<g style="mix-blend-mode:multiply">
<path d="M11.7781 29.3719C11.7781 30.451 11.4413 31.5059 10.8103 32.4031C10.1794 33.3003 9.28257 33.9996 8.23335 34.4126C7.18413 34.8255 6.02965 34.9336 4.9158 34.723C3.80195 34.5125 2.77877 33.9929 1.97574 33.2299C1.1727 32.4668 0.625846 31.4947 0.404289 30.4363C0.182731 29.378 0.296407 28.281 0.731008 27.2841C1.16561 26.2871 1.90157 25.435 2.84584 24.8355C3.79011 24.236 4.90031 23.916 6.03598 23.916C7.55886 23.916 9.01939 24.4909 10.0962 25.514C11.1731 26.5372 11.7781 27.9249 11.7781 29.3719Z" fill="#FF0000"/>
</g>
</g>
<g style="mix-blend-mode:multiply">
<g style="mix-blend-mode:multiply">
<path d="M32.1837 29.3719C32.1837 30.451 31.8469 31.5059 31.216 32.4031C30.5851 33.3003 29.6883 33.9996 28.6391 34.4126C27.5899 34.8255 26.4353 34.9336 25.3215 34.723C24.2076 34.5125 23.1845 33.9929 22.3815 33.2299C21.5785 32.4668 21.0316 31.4947 20.81 30.4363C20.5885 29.378 20.7022 28.281 21.1368 27.2841C21.5714 26.2871 22.3073 25.435 23.2516 24.8355C24.1959 24.236 25.3061 23.916 26.4417 23.916C27.9646 23.916 29.425 24.4909 30.5019 25.514C31.5787 26.5372 32.1837 27.9249 32.1837 29.3719Z" fill="#FF0000"/>
</g>
</g>
<g style="mix-blend-mode:multiply">
<g style="mix-blend-mode:multiply">
<path d="M52.5891 29.3719C52.5891 30.451 52.2523 31.5059 51.6214 32.4031C50.9904 33.3003 50.0936 33.9996 49.0444 34.4126C47.9952 34.8255 46.8407 34.9336 45.7268 34.723C44.613 34.5125 43.5899 33.9929 42.7868 33.2299C41.9838 32.4668 41.4369 31.4947 41.2153 30.4363C40.9937 29.378 41.1075 28.281 41.5421 27.2841C41.9767 26.2871 42.7127 25.435 43.6569 24.8355C44.6012 24.236 45.7113 23.916 46.847 23.916C48.3699 23.916 49.8304 24.4909 50.9073 25.514C51.9841 26.5372 52.5891 27.9249 52.5891 29.3719Z" fill="#FF0000"/>
</g>
</g>
<g style="mix-blend-mode:multiply">
<g style="mix-blend-mode:multiply">
<path d="M73.0353 29.3719C73.0353 30.451 72.6985 31.5059 72.0676 32.4031C71.4366 33.3003 70.5399 33.9996 69.4907 34.4126C68.4415 34.8255 67.2869 34.9336 66.1731 34.723C65.0592 34.5125 64.0361 33.9929 63.2331 33.2299C62.4301 32.4668 61.8831 31.4947 61.6616 30.4363C61.44 29.378 61.5538 28.281 61.9884 27.2841C62.423 26.2871 63.1589 25.435 64.1032 24.8355C65.0475 24.236 66.1576 23.916 67.2932 23.916C68.8161 23.916 70.2766 24.4909 71.3535 25.514C72.4303 26.5372 73.0353 27.9249 73.0353 29.3719Z" fill="#FF0000"/>
</g>
</g>
<g style="mix-blend-mode:multiply">
<g style="mix-blend-mode:multiply">
<path d="M93.4142 29.3719C93.4142 30.451 93.0774 31.5059 92.4465 32.4031C91.8155 33.3003 90.9188 33.9996 89.8696 34.4126C88.8204 34.8255 87.6658 34.9336 86.552 34.723C85.4381 34.5125 84.415 33.9929 83.612 33.2299C82.809 32.4668 82.2621 31.4947 82.0405 30.4363C81.8189 29.378 81.9327 28.281 82.3673 27.2841C82.8019 26.2871 83.5378 25.435 84.4821 24.8355C85.4264 24.236 86.5365 23.916 87.6721 23.916C89.195 23.916 90.6555 24.4909 91.7323 25.514C92.8092 26.5372 93.4142 27.9249 93.4142 29.3719Z" fill="#FF0000"/>
</g>
</g>
<g style="mix-blend-mode:multiply">
<g style="mix-blend-mode:multiply">
<path d="M113.82 29.3719C113.82 30.451 113.483 31.5059 112.852 32.4031C112.221 33.3003 111.324 33.9996 110.275 34.4126C109.226 34.8255 108.072 34.9336 106.958 34.723C105.844 34.5125 104.821 33.9929 104.018 33.2299C103.215 32.4668 102.668 31.4947 102.446 30.4363C102.225 29.378 102.338 28.281 102.773 27.2841C103.208 26.2871 103.944 25.435 104.888 24.8355C105.832 24.236 106.942 23.916 108.078 23.916C109.601 23.916 111.061 24.4909 112.138 25.514C113.215 26.5372 113.82 27.9249 113.82 29.3719Z" fill="#FF0000"/>
</g>
</g>
<g style="mix-blend-mode:multiply">
<g style="mix-blend-mode:multiply">
<path d="M134.225 29.3719C134.225 30.451 133.888 31.5059 133.257 32.4031C132.627 33.3003 131.73 33.9996 130.681 34.4126C129.631 34.8255 128.477 34.9336 127.363 34.723C126.249 34.5125 125.226 33.9929 124.423 33.2299C123.62 32.4668 123.073 31.4947 122.852 30.4363C122.63 29.378 122.744 28.281 123.178 27.2841C123.613 26.2871 124.349 25.435 125.293 24.8355C126.237 24.236 127.348 23.916 128.483 23.916C130.006 23.916 131.467 24.4909 132.543 25.514C133.62 26.5372 134.225 27.9249 134.225 29.3719Z" fill="#FF0000"/>
</g>
</g>
<g style="mix-blend-mode:multiply">
<g style="mix-blend-mode:multiply">
<path d="M154.631 29.372C154.631 30.4516 154.294 31.5069 153.662 32.4044C153.031 33.3019 152.133 34.0012 151.083 34.4138C150.033 34.8264 148.878 34.9337 147.764 34.7221C146.65 34.5106 145.627 33.9896 144.824 33.2253C144.022 32.461 143.476 31.4877 143.256 30.4285C143.036 29.3694 143.151 28.272 143.588 27.2752C144.025 26.2785 144.763 25.4273 145.709 24.8293C146.655 24.2314 147.766 23.9135 148.902 23.916C150.423 23.9194 151.88 24.4957 152.954 25.5185C154.028 26.5414 154.631 27.9272 154.631 29.372Z" fill="#FF0000"/>
</g>
</g>
<g style="mix-blend-mode:multiply">
<g style="mix-blend-mode:multiply">
<path d="M174.996 29.3719C174.996 30.451 174.659 31.5059 174.028 32.4031C173.397 33.3003 172.5 33.9996 171.451 34.4126C170.402 34.8255 169.247 34.9336 168.134 34.723C167.02 34.5125 165.997 33.9929 165.194 33.2299C164.391 32.4668 163.844 31.4947 163.622 30.4363C163.4 29.378 163.514 28.281 163.949 27.2841C164.383 26.2871 165.119 25.435 166.064 24.8355C167.008 24.236 168.118 23.916 169.254 23.916C170.777 23.916 172.237 24.4909 173.314 25.514C174.391 26.5372 174.996 27.9249 174.996 29.3719Z" fill="#FF0000"/>
</g>
</g>
<g style="mix-blend-mode:multiply">
<g style="mix-blend-mode:multiply">
<path d="M195.455 29.3719C195.455 30.451 195.118 31.5059 194.487 32.4031C193.857 33.3003 192.96 33.9996 191.911 34.4126C190.861 34.8255 189.707 34.9336 188.593 34.723C187.479 34.5125 186.456 33.9929 185.653 33.2299C184.85 32.4668 184.303 31.4947 184.082 30.4363C183.86 29.378 183.974 28.281 184.408 27.2841C184.843 26.2871 185.579 25.435 186.523 24.8355C187.467 24.236 188.577 23.916 189.713 23.916C191.236 23.916 192.697 24.4909 193.773 25.514C194.85 26.5372 195.455 27.9249 195.455 29.3719Z" fill="#FF0000"/>
</g>
</g>
<g style="mix-blend-mode:multiply">
<g style="mix-blend-mode:multiply">
<path d="M11.7781 52.5966C11.7781 53.6756 11.4413 54.7305 10.8103 55.6277C10.1794 56.5249 9.28257 57.2243 8.23335 57.6372C7.18413 58.0502 6.02965 58.1582 4.9158 57.9476C3.80195 57.7371 2.77877 57.2175 1.97574 56.4545C1.1727 55.6915 0.625846 54.7193 0.404289 53.661C0.182731 52.6026 0.296407 51.5056 0.731008 50.5087C1.16561 49.5117 1.90157 48.6596 2.84584 48.0601C3.79011 47.4606 4.90031 47.1406 6.03598 47.1406C7.55886 47.1406 9.01939 47.7155 10.0962 48.7387C11.1731 49.7618 11.7781 51.1496 11.7781 52.5966Z" fill="#FF0000"/>
</g>
</g>
<g style="mix-blend-mode:multiply">
<g style="mix-blend-mode:multiply">
<path d="M32.1837 52.5966C32.1837 53.6756 31.8469 54.7305 31.216 55.6277C30.5851 56.5249 29.6883 57.2243 28.6391 57.6372C27.5899 58.0502 26.4353 58.1582 25.3215 57.9476C24.2076 57.7371 23.1845 57.2175 22.3815 56.4545C21.5785 55.6915 21.0316 54.7193 20.81 53.661C20.5885 52.6026 20.7022 51.5056 21.1368 50.5087C21.5714 49.5117 22.3073 48.6596 23.2516 48.0601C24.1959 47.4606 25.3061 47.1406 26.4417 47.1406C27.9646 47.1406 29.425 47.7155 30.5019 48.7387C31.5787 49.7618 32.1837 51.1496 32.1837 52.5966Z" fill="#FF0000"/>
</g>
</g>
<g style="mix-blend-mode:multiply">
<g style="mix-blend-mode:multiply">
<path d="M52.5891 52.5966C52.5891 53.6756 52.2523 54.7305 51.6214 55.6277C50.9904 56.5249 50.0936 57.2243 49.0444 57.6372C47.9952 58.0502 46.8407 58.1582 45.7268 57.9476C44.613 57.7371 43.5899 57.2175 42.7868 56.4545C41.9838 55.6915 41.4369 54.7193 41.2153 53.661C40.9937 52.6026 41.1075 51.5056 41.5421 50.5087C41.9767 49.5117 42.7127 48.6596 43.6569 48.0601C44.6012 47.4606 45.7113 47.1406 46.847 47.1406C48.3699 47.1406 49.8304 47.7155 50.9073 48.7387C51.9841 49.7618 52.5891 51.1496 52.5891 52.5966Z" fill="#FF0000"/>
</g>
</g>
<g style="mix-blend-mode:multiply">
<g style="mix-blend-mode:multiply">
<path d="M73.0353 52.5966C73.0353 53.6756 72.6985 54.7305 72.0676 55.6277C71.4366 56.5249 70.5399 57.2243 69.4907 57.6372C68.4415 58.0502 67.2869 58.1582 66.1731 57.9476C65.0592 57.7371 64.0361 57.2175 63.2331 56.4545C62.4301 55.6915 61.8831 54.7193 61.6616 53.661C61.44 52.6026 61.5538 51.5056 61.9884 50.5087C62.423 49.5117 63.1589 48.6596 64.1032 48.0601C65.0475 47.4606 66.1576 47.1406 67.2932 47.1406C68.8161 47.1406 70.2766 47.7155 71.3535 48.7387C72.4303 49.7618 73.0353 51.1496 73.0353 52.5966Z" fill="#FF0000"/>
</g>
</g>
<g style="mix-blend-mode:multiply">
<g style="mix-blend-mode:multiply">
<path d="M93.4142 52.5966C93.4142 53.6756 93.0774 54.7305 92.4465 55.6277C91.8155 56.5249 90.9188 57.2243 89.8696 57.6372C88.8204 58.0502 87.6658 58.1582 86.552 57.9476C85.4381 57.7371 84.415 57.2175 83.612 56.4545C82.809 55.6915 82.2621 54.7193 82.0405 53.661C81.8189 52.6026 81.9327 51.5056 82.3673 50.5087C82.8019 49.5117 83.5378 48.6596 84.4821 48.0601C85.4264 47.4606 86.5365 47.1406 87.6721 47.1406C89.195 47.1406 90.6555 47.7155 91.7323 48.7387C92.8092 49.7618 93.4142 51.1496 93.4142 52.5966Z" fill="#FF0000"/>
</g>
</g>
<g style="mix-blend-mode:multiply">
<g style="mix-blend-mode:multiply">
<path d="M113.82 52.5966C113.82 53.6756 113.483 54.7305 112.852 55.6277C112.221 56.5249 111.324 57.2243 110.275 57.6372C109.226 58.0502 108.072 58.1582 106.958 57.9476C105.844 57.7371 104.821 57.2175 104.018 56.4545C103.215 55.6915 102.668 54.7193 102.446 53.661C102.225 52.6026 102.338 51.5056 102.773 50.5087C103.208 49.5117 103.944 48.6596 104.888 48.0601C105.832 47.4606 106.942 47.1406 108.078 47.1406C109.601 47.1406 111.061 47.7155 112.138 48.7387C113.215 49.7618 113.82 51.1496 113.82 52.5966Z" fill="#FF0000"/>
</g>
</g>
<g style="mix-blend-mode:multiply">
<g style="mix-blend-mode:multiply">
<path d="M134.225 52.5966C134.225 53.6756 133.888 54.7305 133.257 55.6277C132.627 56.5249 131.73 57.2243 130.681 57.6372C129.631 58.0502 128.477 58.1582 127.363 57.9476C126.249 57.7371 125.226 57.2175 124.423 56.4545C123.62 55.6915 123.073 54.7193 122.852 53.661C122.63 52.6026 122.744 51.5056 123.178 50.5087C123.613 49.5117 124.349 48.6596 125.293 48.0601C126.237 47.4606 127.348 47.1406 128.483 47.1406C130.006 47.1406 131.467 47.7155 132.543 48.7387C133.62 49.7618 134.225 51.1496 134.225 52.5966Z" fill="#FF0000"/>
</g>
</g>
<g style="mix-blend-mode:multiply">
<g style="mix-blend-mode:multiply">
<path d="M154.631 52.5966C154.631 53.6762 154.294 54.7315 153.662 55.629C153.031 56.5265 152.133 57.2258 151.083 57.6384C150.033 58.051 148.878 58.1583 147.764 57.9467C146.65 57.7352 145.627 57.2143 144.824 56.45C144.022 55.6856 143.476 54.7123 143.256 53.6532C143.036 52.594 143.151 51.4966 143.588 50.4998C144.025 49.5031 144.763 48.6519 145.709 48.0539C146.655 47.456 147.766 47.1381 148.902 47.1406C150.423 47.144 151.88 47.7203 152.954 48.7431C154.028 49.766 154.631 51.1518 154.631 52.5966Z" fill="#FF0000"/>
</g>
</g>
<g style="mix-blend-mode:multiply">
<g style="mix-blend-mode:multiply">
<path d="M174.996 52.5966C174.996 53.6756 174.659 54.7305 174.028 55.6277C173.397 56.5249 172.5 57.2243 171.451 57.6372C170.402 58.0502 169.247 58.1582 168.134 57.9476C167.02 57.7371 165.997 57.2175 165.194 56.4545C164.391 55.6915 163.844 54.7193 163.622 53.661C163.4 52.6026 163.514 51.5056 163.949 50.5087C164.383 49.5117 165.119 48.6596 166.064 48.0601C167.008 47.4606 168.118 47.1406 169.254 47.1406C170.777 47.1406 172.237 47.7155 173.314 48.7387C174.391 49.7618 174.996 51.1496 174.996 52.5966Z" fill="#FF0000"/>
</g>
</g>
<g style="mix-blend-mode:multiply">
<g style="mix-blend-mode:multiply">
<path d="M195.455 52.5966C195.455 53.6756 195.118 54.7305 194.487 55.6277C193.857 56.5249 192.96 57.2243 191.911 57.6372C190.861 58.0502 189.707 58.1582 188.593 57.9476C187.479 57.7371 186.456 57.2175 185.653 56.4545C184.85 55.6915 184.303 54.7193 184.082 53.661C183.86 52.6026 183.974 51.5056 184.408 50.5087C184.843 49.5117 185.579 48.6596 186.523 48.0601C187.467 47.4606 188.577 47.1406 189.713 47.1406C191.236 47.1406 192.697 47.7155 193.773 48.7387C194.85 49.7618 195.455 51.1496 195.455 52.5966Z" fill="#FF0000"/>
</g>
</g>
<g style="mix-blend-mode:multiply">
<g style="mix-blend-mode:multiply">
<path d="M6.036 81.2903C9.20725 81.2903 11.7781 78.8477 11.7781 75.8346C11.7781 72.8215 9.20725 70.3789 6.036 70.3789C2.86475 70.3789 0.293945 72.8215 0.293945 75.8346C0.293945 78.8477 2.86475 81.2903 6.036 81.2903Z" fill="#FF0000"/>
</g>
</g>
<g style="mix-blend-mode:multiply">
<g style="mix-blend-mode:multiply">
<path d="M32.1837 75.8212C32.1837 76.9002 31.8469 77.9551 31.216 78.8523C30.5851 79.7495 29.6883 80.4489 28.6391 80.8618C27.5899 81.2748 26.4353 81.3828 25.3215 81.1723C24.2076 80.9617 23.1845 80.4421 22.3815 79.6791C21.5785 78.9161 21.0316 77.9439 20.81 76.8856C20.5885 75.8272 20.7022 74.7302 21.1368 73.7333C21.5714 72.7363 22.3073 71.8842 23.2516 71.2847C24.1959 70.6852 25.3061 70.3652 26.4417 70.3652C27.9646 70.3652 29.425 70.9401 30.5019 71.9633C31.5787 72.9864 32.1837 74.3742 32.1837 75.8212Z" fill="#FF0000"/>
</g>
</g>
<g style="mix-blend-mode:multiply">
<g style="mix-blend-mode:multiply">
<path d="M52.5891 75.8212C52.5891 76.9002 52.2523 77.9551 51.6214 78.8523C50.9904 79.7495 50.0936 80.4489 49.0444 80.8618C47.9952 81.2748 46.8407 81.3828 45.7268 81.1723C44.613 80.9617 43.5899 80.4421 42.7868 79.6791C41.9838 78.9161 41.4369 77.9439 41.2153 76.8856C40.9937 75.8272 41.1075 74.7302 41.5421 73.7333C41.9767 72.7363 42.7127 71.8842 43.6569 71.2847C44.6012 70.6852 45.7113 70.3652 46.847 70.3652C48.3699 70.3652 49.8304 70.9401 50.9073 71.9633C51.9841 72.9864 52.5891 74.3742 52.5891 75.8212Z" fill="#FF0000"/>
</g>
</g>
<g style="mix-blend-mode:multiply">
<g style="mix-blend-mode:multiply">
<path d="M73.0353 75.8212C73.0353 76.9002 72.6985 77.9551 72.0676 78.8523C71.4366 79.7495 70.5399 80.4489 69.4907 80.8618C68.4415 81.2748 67.2869 81.3828 66.1731 81.1723C65.0592 80.9617 64.0361 80.4421 63.2331 79.6791C62.4301 78.9161 61.8831 77.9439 61.6616 76.8856C61.44 75.8272 61.5538 74.7302 61.9884 73.7333C62.423 72.7363 63.1589 71.8842 64.1032 71.2847C65.0475 70.6852 66.1576 70.3652 67.2932 70.3652C68.8161 70.3652 70.2766 70.9401 71.3535 71.9633C72.4303 72.9864 73.0353 74.3742 73.0353 75.8212Z" fill="#FF0000"/>
</g>
</g>
<g style="mix-blend-mode:multiply">
<g style="mix-blend-mode:multiply">
<path d="M93.4142 75.8212C93.4142 76.9002 93.0774 77.9551 92.4465 78.8523C91.8155 79.7495 90.9188 80.4489 89.8696 80.8618C88.8204 81.2748 87.6658 81.3828 86.552 81.1723C85.4381 80.9617 84.415 80.4421 83.612 79.6791C82.809 78.9161 82.2621 77.9439 82.0405 76.8856C81.8189 75.8272 81.9327 74.7302 82.3673 73.7333C82.8019 72.7363 83.5378 71.8842 84.4821 71.2847C85.4264 70.6852 86.5365 70.3652 87.6721 70.3652C89.195 70.3652 90.6555 70.9401 91.7323 71.9633C92.8092 72.9864 93.4142 74.3742 93.4142 75.8212Z" fill="#FF0000"/>
</g>
</g>
<g style="mix-blend-mode:multiply">
<g style="mix-blend-mode:multiply">
<path d="M108.078 81.2903C111.249 81.2903 113.82 78.8477 113.82 75.8346C113.82 72.8215 111.249 70.3789 108.078 70.3789C104.907 70.3789 102.336 72.8215 102.336 75.8346C102.336 78.8477 104.907 81.2903 108.078 81.2903Z" fill="#FF0000"/>
</g>
</g>
<g style="mix-blend-mode:multiply">
<g style="mix-blend-mode:multiply">
<path d="M128.496 81.2903C131.668 81.2903 134.238 78.8477 134.238 75.8346C134.238 72.8215 131.668 70.3789 128.496 70.3789C125.325 70.3789 122.754 72.8215 122.754 75.8346C122.754 78.8477 125.325 81.2903 128.496 81.2903Z" fill="#FF0000"/>
</g>
</g>
<g style="mix-blend-mode:multiply">
<g style="mix-blend-mode:multiply">
<path d="M154.631 75.8212C154.631 76.9008 154.294 77.9561 153.662 78.8536C153.031 79.7511 152.133 80.4505 151.083 80.863C150.033 81.2756 148.878 81.3829 147.764 81.1713C146.65 80.9598 145.627 80.4389 144.824 79.6746C144.022 78.9103 143.476 77.9369 143.256 76.8778C143.036 75.8186 143.151 74.7212 143.588 73.7245C144.025 72.7277 144.763 71.8765 145.709 71.2786C146.655 70.6806 147.766 70.3627 148.902 70.3652C150.423 70.3686 151.88 70.9449 152.954 71.9677C154.028 72.9906 154.631 74.3764 154.631 75.8212Z" fill="#FF0000"/>
</g>
</g>
<g style="mix-blend-mode:multiply">
<g style="mix-blend-mode:multiply">
<path d="M174.996 75.8212C174.996 76.9002 174.659 77.9551 174.028 78.8523C173.397 79.7495 172.5 80.4489 171.451 80.8618C170.402 81.2748 169.247 81.3828 168.134 81.1723C167.02 80.9617 165.997 80.4421 165.194 79.6791C164.391 78.9161 163.844 77.9439 163.622 76.8856C163.4 75.8272 163.514 74.7302 163.949 73.7333C164.383 72.7363 165.119 71.8842 166.064 71.2847C167.008 70.6852 168.118 70.3652 169.254 70.3652C170.777 70.3652 172.237 70.9401 173.314 71.9633C174.391 72.9864 174.996 74.3742 174.996 75.8212Z" fill="#FF0000"/>
</g>
</g>
<g style="mix-blend-mode:multiply">
<g style="mix-blend-mode:multiply">
<path d="M195.455 75.8212C195.455 76.9002 195.118 77.9551 194.487 78.8523C193.857 79.7495 192.96 80.4489 191.911 80.8618C190.861 81.2748 189.707 81.3828 188.593 81.1723C187.479 80.9617 186.456 80.4421 185.653 79.6791C184.85 78.9161 184.303 77.9439 184.082 76.8856C183.86 75.8272 183.974 74.7302 184.408 73.7333C184.843 72.7363 185.579 71.8842 186.523 71.2847C187.467 70.6852 188.577 70.3652 189.713 70.3652C191.236 70.3652 192.697 70.9401 193.773 71.9633C194.85 72.9864 195.455 74.3742 195.455 75.8212Z" fill="#FF0000"/>
</g>
</g>
<g style="mix-blend-mode:multiply">
<g style="mix-blend-mode:multiply">
<path d="M6.036 104.517C9.20725 104.517 11.7781 102.075 11.7781 99.0614C11.7781 96.0482 9.20725 93.6055 6.036 93.6055C2.86475 93.6055 0.293945 96.0482 0.293945 99.0614C0.293945 102.075 2.86475 104.517 6.036 104.517Z" fill="#FF0000"/>
</g>
</g>
<g style="mix-blend-mode:multiply">
<g style="mix-blend-mode:multiply">
<path d="M32.1837 99.0486C32.1863 100.128 31.8519 101.184 31.2225 102.083C30.5932 102.982 29.6974 103.683 28.6484 104.098C27.5994 104.513 26.4445 104.623 25.3297 104.414C24.215 104.205 23.1906 103.686 22.3862 102.924C21.5819 102.161 21.0337 101.189 20.811 100.13C20.5884 99.0718 20.7013 97.9742 21.1355 96.9765C21.5697 95.9788 22.3056 95.1259 23.2502 94.5259C24.1948 93.9258 25.3055 93.6055 26.4417 93.6055C27.9623 93.6055 29.4207 94.1785 30.4972 95.1989C31.5736 96.2194 32.1801 97.6038 32.1837 99.0486Z" fill="#FF0000"/>
</g>
</g>
<g style="mix-blend-mode:multiply">
<g style="mix-blend-mode:multiply">
<path d="M52.5891 99.0486C52.5917 100.128 52.2572 101.184 51.6279 102.083C50.9986 102.982 50.1027 103.683 49.0537 104.098C48.0047 104.513 46.8498 104.623 45.7351 104.414C44.6204 104.205 43.596 103.686 42.7916 102.924C41.9872 102.161 41.4389 101.189 41.2163 100.13C40.9936 99.0718 41.1066 97.9742 41.5408 96.9765C41.975 95.9788 42.711 95.1259 43.6556 94.5259C44.6001 93.9258 45.7108 93.6055 46.847 93.6055C48.3676 93.6055 49.826 94.1785 50.9025 95.1989C51.979 96.2194 52.5855 97.6038 52.5891 99.0486Z" fill="#FF0000"/>
</g>
</g>
<g style="mix-blend-mode:multiply">
<g style="mix-blend-mode:multiply">
<path d="M73.0352 99.0486C73.0379 100.128 72.7034 101.184 72.0741 102.083C71.4448 102.982 70.5489 103.683 69.4999 104.098C68.4509 104.513 67.296 104.623 66.1813 104.414C65.0666 104.205 64.0422 103.686 63.2378 102.924C62.4334 102.161 61.8852 101.189 61.6626 100.13C61.44 99.0718 61.5528 97.9742 61.987 96.9765C62.4212 95.9788 63.1572 95.1259 64.1018 94.5259C65.0463 93.9258 66.157 93.6055 67.2932 93.6055C68.0466 93.6038 68.793 93.7433 69.4896 94.0161C70.1862 94.2889 70.8192 94.6896 71.3526 95.1952C71.886 95.7008 72.3092 96.3015 72.5979 96.9627C72.8866 97.6239 73.0352 98.3328 73.0352 99.0486Z" fill="#FF0000"/>
</g>
</g>
<g style="mix-blend-mode:multiply">
<g style="mix-blend-mode:multiply">
<path d="M93.4141 99.0486C93.4168 100.128 93.0823 101.184 92.453 102.083C91.8237 102.982 90.9278 103.683 89.8788 104.098C88.8298 104.513 87.6749 104.623 86.5602 104.414C85.4455 104.205 84.4211 103.686 83.6167 102.924C82.8123 102.161 82.2642 101.189 82.0415 100.13C81.8189 99.0718 81.9317 97.9742 82.3659 96.9765C82.8001 95.9788 83.5361 95.1259 84.4807 94.5259C85.4252 93.9258 86.5359 93.6055 87.6721 93.6055C89.1927 93.6055 90.6511 94.1785 91.7276 95.1989C92.804 96.2194 93.4106 97.6038 93.4141 99.0486Z" fill="#FF0000"/>
</g>
</g>
<g style="mix-blend-mode:multiply">
<g style="mix-blend-mode:multiply">
<path d="M108.078 104.517C111.249 104.517 113.82 102.075 113.82 99.0614C113.82 96.0482 111.249 93.6055 108.078 93.6055C104.907 93.6055 102.336 96.0482 102.336 99.0614C102.336 102.075 104.907 104.517 108.078 104.517Z" fill="#FF0000"/>
</g>
</g>
<g style="mix-blend-mode:multiply">
<g style="mix-blend-mode:multiply">
<path d="M128.496 104.517C131.668 104.517 134.238 102.075 134.238 99.0614C134.238 96.0482 131.668 93.6055 128.496 93.6055C125.325 93.6055 122.754 96.0482 122.754 99.0614C122.754 102.075 125.325 104.517 128.496 104.517Z" fill="#FF0000"/>
</g>
</g>
<g style="mix-blend-mode:multiply">
<g style="mix-blend-mode:multiply">
<path d="M154.631 99.0487C154.634 100.129 154.299 101.185 153.669 102.085C153.039 102.984 152.142 103.685 151.093 104.1C150.043 104.514 148.887 104.623 147.772 104.413C146.657 104.203 145.633 103.683 144.829 102.919C144.025 102.156 143.478 101.182 143.257 100.123C143.036 99.0631 143.15 97.9651 143.587 96.9676C144.023 95.9702 144.761 95.1182 145.707 94.5196C146.654 93.9211 147.766 93.603 148.902 93.6055C150.422 93.6055 151.879 94.1789 152.953 95.1997C154.028 96.2205 154.631 97.605 154.631 99.0487Z" fill="#FF0000"/>
</g>
</g>
<g style="mix-blend-mode:multiply">
<g style="mix-blend-mode:multiply">
<path d="M174.996 99.0486C174.998 100.128 174.664 101.184 174.035 102.083C173.405 102.982 172.509 103.683 171.46 104.098C170.411 104.513 169.256 104.623 168.142 104.414C167.027 104.205 166.003 103.686 165.198 102.924C164.394 102.161 163.846 101.189 163.623 100.13C163.4 99.0718 163.513 97.9742 163.947 96.9765C164.382 95.9788 165.118 95.1259 166.062 94.5259C167.007 93.9258 168.117 93.6055 169.254 93.6055C170.774 93.6055 172.233 94.1785 173.309 95.1989C174.386 96.2194 174.992 97.6038 174.996 99.0486Z" fill="#FF0000"/>
</g>
</g>
<g style="mix-blend-mode:multiply">
<g style="mix-blend-mode:multiply">
<path d="M195.455 99.0488C195.458 100.13 195.122 101.188 194.491 102.087C193.86 102.987 192.962 103.688 191.91 104.102C190.859 104.516 189.702 104.623 188.586 104.411C187.471 104.199 186.446 103.677 185.643 102.91C184.841 102.144 184.296 101.168 184.078 100.107C183.86 99.0458 183.978 97.947 184.419 96.95C184.859 95.953 185.601 95.1028 186.551 94.5073C187.501 93.9119 188.616 93.598 189.753 93.6056C191.267 93.6157 192.715 94.1932 193.783 95.2125C194.851 96.2319 195.452 97.6106 195.455 99.0488Z" fill="#FF0000"/>
</g>
</g>
<g style="mix-blend-mode:multiply">
<g style="mix-blend-mode:multiply">
<path d="M6.036 127.744C9.20725 127.744 11.7781 125.301 11.7781 122.288C11.7781 119.275 9.20725 116.832 6.036 116.832C2.86475 116.832 0.293945 119.275 0.293945 122.288C0.293945 125.301 2.86475 127.744 6.036 127.744Z" fill="#FF0000"/>
</g>
</g>
<g style="mix-blend-mode:multiply">
<g style="mix-blend-mode:multiply">
<path d="M32.1837 122.288C32.1837 123.367 31.8469 124.422 31.216 125.319C30.5851 126.216 29.6883 126.915 28.6391 127.328C27.5899 127.741 26.4353 127.849 25.3215 127.639C24.2076 127.428 23.1845 126.909 22.3815 126.146C21.5785 125.383 21.0316 124.411 20.81 123.352C20.5885 122.294 20.7022 121.197 21.1368 120.2C21.5714 119.203 22.3073 118.351 23.2516 117.752C24.1959 117.152 25.3061 116.832 26.4417 116.832C27.9646 116.832 29.425 117.407 30.5019 118.43C31.5787 119.453 32.1837 120.841 32.1837 122.288Z" fill="#FF0000"/>
</g>
</g>
<g style="mix-blend-mode:multiply">
<g style="mix-blend-mode:multiply">
<path d="M52.5891 122.288C52.5891 123.367 52.2523 124.422 51.6214 125.319C50.9904 126.216 50.0936 126.915 49.0444 127.328C47.9952 127.741 46.8407 127.849 45.7268 127.639C44.613 127.428 43.5899 126.909 42.7868 126.146C41.9838 125.383 41.4369 124.411 41.2153 123.352C40.9937 122.294 41.1075 121.197 41.5421 120.2C41.9767 119.203 42.7127 118.351 43.6569 117.752C44.6012 117.152 45.7113 116.832 46.847 116.832C48.3699 116.832 49.8304 117.407 50.9073 118.43C51.9841 119.453 52.5891 120.841 52.5891 122.288Z" fill="#FF0000"/>
</g>
</g>
<g style="mix-blend-mode:multiply">
<g style="mix-blend-mode:multiply">
<path d="M73.0354 122.288C73.0354 123.367 72.6986 124.422 72.0677 125.319C71.4367 126.216 70.54 126.915 69.4907 127.328C68.4415 127.741 67.287 127.849 66.1731 127.639C65.0593 127.428 64.0362 126.909 63.2331 126.146C62.4301 125.383 61.8831 124.411 61.6616 123.352C61.44 122.294 61.5538 121.197 61.9884 120.2C62.423 119.203 63.159 118.351 64.1032 117.752C65.0475 117.152 66.1576 116.832 67.2933 116.832C68.0478 116.83 68.7953 116.97 69.4928 117.244C70.1902 117.517 70.8239 117.919 71.3575 118.426C71.891 118.933 72.3139 119.535 72.6019 120.198C72.8898 120.861 73.0371 121.571 73.0354 122.288Z" fill="#FF0000"/>
</g>
</g>
<g style="mix-blend-mode:multiply">
<g style="mix-blend-mode:multiply">
<path d="M93.4142 122.288C93.4142 123.367 93.0774 124.422 92.4465 125.319C91.8155 126.216 90.9188 126.915 89.8696 127.328C88.8204 127.741 87.6658 127.849 86.552 127.639C85.4381 127.428 84.415 126.909 83.612 126.146C82.809 125.383 82.2621 124.411 82.0405 123.352C81.8189 122.294 81.9327 121.197 82.3673 120.2C82.8019 119.203 83.5378 118.351 84.4821 117.752C85.4264 117.152 86.5365 116.832 87.6721 116.832C89.195 116.832 90.6555 117.407 91.7323 118.43C92.8092 119.453 93.4142 120.841 93.4142 122.288Z" fill="#FF0000"/>
</g>
</g>
<g style="mix-blend-mode:multiply">
<g style="mix-blend-mode:multiply">
<path d="M108.078 127.744C111.249 127.744 113.82 125.301 113.82 122.288C113.82 119.275 111.249 116.832 108.078 116.832C104.907 116.832 102.336 119.275 102.336 122.288C102.336 125.301 104.907 127.744 108.078 127.744Z" fill="#FF0000"/>
</g>
</g>
<g style="mix-blend-mode:multiply">
<g style="mix-blend-mode:multiply">
<path d="M128.496 127.744C131.668 127.744 134.238 125.301 134.238 122.288C134.238 119.275 131.668 116.832 128.496 116.832C125.325 116.832 122.754 119.275 122.754 122.288C122.754 125.301 125.325 127.744 128.496 127.744Z" fill="#FF0000"/>
</g>
</g>
<g style="mix-blend-mode:multiply">
<g style="mix-blend-mode:multiply">
<path d="M154.631 122.288C154.631 123.367 154.294 124.423 153.662 125.32C153.031 126.218 152.133 126.917 151.083 127.33C150.033 127.742 148.878 127.849 147.764 127.638C146.65 127.426 145.627 126.905 144.824 126.141C144.022 125.377 143.476 124.404 143.256 123.344C143.036 122.285 143.151 121.188 143.588 120.191C144.025 119.194 144.763 118.343 145.709 117.745C146.655 117.147 147.766 116.83 148.902 116.832C149.656 116.832 150.402 116.973 151.098 117.248C151.794 117.522 152.426 117.924 152.958 118.431C153.49 118.938 153.912 119.539 154.199 120.201C154.486 120.863 154.633 121.572 154.631 122.288Z" fill="#FF0000"/>
</g>
</g>
<g style="mix-blend-mode:multiply">
<g style="mix-blend-mode:multiply">
<path d="M174.996 122.288C174.996 123.367 174.659 124.422 174.028 125.319C173.397 126.216 172.5 126.915 171.451 127.328C170.402 127.741 169.247 127.849 168.134 127.639C167.02 127.428 165.997 126.909 165.194 126.146C164.391 125.383 163.844 124.411 163.622 123.352C163.4 122.294 163.514 121.197 163.949 120.2C164.383 119.203 165.119 118.351 166.064 117.752C167.008 117.152 168.118 116.832 169.254 116.832C170.777 116.832 172.237 117.407 173.314 118.43C174.391 119.453 174.996 120.841 174.996 122.288Z" fill="#FF0000"/>
</g>
</g>
<g style="mix-blend-mode:multiply">
<g style="mix-blend-mode:multiply">
<path d="M195.455 122.288C195.455 123.367 195.118 124.422 194.487 125.319C193.857 126.216 192.96 126.915 191.911 127.328C190.861 127.741 189.707 127.849 188.593 127.639C187.479 127.428 186.456 126.909 185.653 126.146C184.85 125.383 184.303 124.411 184.082 123.352C183.86 122.294 183.974 121.197 184.408 120.2C184.843 119.203 185.579 118.351 186.523 117.752C187.467 117.152 188.577 116.832 189.713 116.832C191.236 116.832 192.697 117.407 193.773 118.43C194.85 119.453 195.455 120.841 195.455 122.288Z" fill="#FF0000"/>
</g>
</g>
<g style="mix-blend-mode:multiply">
<g style="mix-blend-mode:multiply">
<path d="M6.036 150.969C9.20725 150.969 11.7781 148.526 11.7781 145.513C11.7781 142.499 9.20725 140.057 6.036 140.057C2.86475 140.057 0.293945 142.499 0.293945 145.513C0.293945 148.526 2.86475 150.969 6.036 150.969Z" fill="#FF0000"/>
</g>
</g>
<g style="mix-blend-mode:multiply">
<g style="mix-blend-mode:multiply">
<path d="M32.1837 145.513C32.1837 146.592 31.8469 147.647 31.216 148.544C30.5851 149.441 29.6883 150.14 28.6391 150.553C27.5899 150.966 26.4353 151.074 25.3215 150.864C24.2076 150.653 23.1845 150.134 22.3815 149.37C21.5785 148.607 21.0316 147.635 20.81 146.577C20.5885 145.519 20.7022 144.422 21.1368 143.425C21.5714 142.428 22.3073 141.576 23.2516 140.976C24.1959 140.377 25.3061 140.057 26.4417 140.057C27.9646 140.057 29.425 140.631 30.5019 141.655C31.5787 142.678 32.1837 144.066 32.1837 145.513Z" fill="#FF0000"/>
</g>
</g>
<g style="mix-blend-mode:multiply">
<g style="mix-blend-mode:multiply">
<path d="M52.5891 145.513C52.5891 146.592 52.2523 147.647 51.6214 148.544C50.9904 149.441 50.0936 150.14 49.0444 150.553C47.9952 150.966 46.8407 151.074 45.7268 150.864C44.613 150.653 43.5899 150.134 42.7868 149.37C41.9838 148.607 41.4369 147.635 41.2153 146.577C40.9937 145.519 41.1075 144.422 41.5421 143.425C41.9767 142.428 42.7127 141.576 43.6569 140.976C44.6012 140.377 45.7113 140.057 46.847 140.057C48.3699 140.057 49.8304 140.631 50.9073 141.655C51.9841 142.678 52.5891 144.066 52.5891 145.513Z" fill="#FF0000"/>
</g>
</g>
<g style="mix-blend-mode:multiply">
<g style="mix-blend-mode:multiply">
<path d="M73.0353 145.513C73.0353 146.592 72.6985 147.647 72.0676 148.544C71.4366 149.441 70.5399 150.14 69.4907 150.553C68.4415 150.966 67.2869 151.074 66.1731 150.864C65.0592 150.653 64.0361 150.134 63.2331 149.37C62.4301 148.607 61.8831 147.635 61.6616 146.577C61.44 145.519 61.5538 144.422 61.9884 143.425C62.423 142.428 63.1589 141.576 64.1032 140.976C65.0475 140.377 66.1576 140.057 67.2932 140.057C68.8161 140.057 70.2766 140.631 71.3535 141.655C72.4303 142.678 73.0353 144.066 73.0353 145.513Z" fill="#FF0000"/>
</g>
</g>
<g style="mix-blend-mode:multiply">
<g style="mix-blend-mode:multiply">
<path d="M93.4142 145.513C93.4142 146.592 93.0774 147.647 92.4465 148.544C91.8155 149.441 90.9188 150.14 89.8696 150.553C88.8204 150.966 87.6658 151.074 86.552 150.864C85.4381 150.653 84.415 150.134 83.612 149.37C82.809 148.607 82.2621 147.635 82.0405 146.577C81.8189 145.519 81.9327 144.422 82.3673 143.425C82.8019 142.428 83.5378 141.576 84.4821 140.976C85.4264 140.377 86.5365 140.057 87.6721 140.057C89.195 140.057 90.6555 140.631 91.7323 141.655C92.8092 142.678 93.4142 144.066 93.4142 145.513Z" fill="#FF0000"/>
</g>
</g>
<g style="mix-blend-mode:multiply">
<g style="mix-blend-mode:multiply">
<path d="M108.078 150.969C111.249 150.969 113.82 148.526 113.82 145.513C113.82 142.499 111.249 140.057 108.078 140.057C104.907 140.057 102.336 142.499 102.336 145.513C102.336 148.526 104.907 150.969 108.078 150.969Z" fill="#FF0000"/>
</g>
</g>
<g style="mix-blend-mode:multiply">
<g style="mix-blend-mode:multiply">
<path d="M128.496 150.969C131.668 150.969 134.238 148.526 134.238 145.513C134.238 142.499 131.668 140.057 128.496 140.057C125.325 140.057 122.754 142.499 122.754 145.513C122.754 148.526 125.325 150.969 128.496 150.969Z" fill="#FF0000"/>
</g>
</g>
<g style="mix-blend-mode:multiply">
<g style="mix-blend-mode:multiply">
<path d="M154.631 145.513C154.631 146.592 154.294 147.648 153.662 148.545C153.031 149.443 152.133 150.142 151.083 150.554C150.033 150.967 148.878 151.074 147.764 150.863C146.65 150.651 145.627 150.13 144.824 149.366C144.022 148.602 143.476 147.628 143.256 146.569C143.036 145.51 143.151 144.413 143.588 143.416C144.025 142.419 144.763 141.568 145.709 140.97C146.655 140.372 147.766 140.054 148.902 140.057C150.423 140.06 151.88 140.636 152.954 141.659C154.028 142.682 154.631 144.068 154.631 145.513Z" fill="#FF0000"/>
</g>
</g>
<g style="mix-blend-mode:multiply">
<g style="mix-blend-mode:multiply">
<path d="M174.996 145.513C174.996 146.592 174.659 147.647 174.028 148.544C173.397 149.441 172.5 150.14 171.451 150.553C170.402 150.966 169.247 151.074 168.134 150.864C167.02 150.653 165.997 150.134 165.194 149.37C164.391 148.607 163.844 147.635 163.622 146.577C163.4 145.519 163.514 144.422 163.949 143.425C164.383 142.428 165.119 141.576 166.064 140.976C167.008 140.377 168.118 140.057 169.254 140.057C170.777 140.057 172.237 140.631 173.314 141.655C174.391 142.678 174.996 144.066 174.996 145.513Z" fill="#FF0000"/>
</g>
</g>
<g style="mix-blend-mode:multiply">
<g style="mix-blend-mode:multiply">
<path d="M195.455 145.513C195.444 146.591 195.097 147.643 194.458 148.534C193.819 149.425 192.916 150.117 191.864 150.521C190.812 150.925 189.657 151.023 188.545 150.804C187.434 150.584 186.416 150.057 185.62 149.288C184.824 148.519 184.286 147.543 184.073 146.484C183.86 145.425 183.983 144.329 184.425 143.336C184.867 142.343 185.61 141.496 186.558 140.903C187.506 140.311 188.618 139.998 189.753 140.006C190.508 140.011 191.255 140.157 191.951 140.437C192.646 140.717 193.277 141.124 193.806 141.635C194.336 142.147 194.754 142.753 195.037 143.418C195.32 144.084 195.462 144.795 195.455 145.513Z" fill="#FF0000"/>
</g>
</g>
<g style="mix-blend-mode:multiply">
<g style="mix-blend-mode:multiply">
<path d="M11.7781 168.741C11.7781 169.82 11.4413 170.875 10.8103 171.772C10.1794 172.669 9.28257 173.369 8.23335 173.781C7.18413 174.194 6.02965 174.302 4.9158 174.092C3.80195 173.881 2.77877 173.362 1.97574 172.599C1.1727 171.836 0.625846 170.864 0.404289 169.805C0.182731 168.747 0.296407 167.65 0.731008 166.653C1.16561 165.656 1.90157 164.804 2.84584 164.205C3.79011 163.605 4.90031 163.285 6.03598 163.285C7.55886 163.285 9.01939 163.86 10.0962 164.883C11.1731 165.906 11.7781 167.294 11.7781 168.741Z" fill="#FF0000"/>
</g>
</g>
<g style="mix-blend-mode:multiply">
<g style="mix-blend-mode:multiply">
<path d="M32.1837 168.741C32.1837 169.82 31.8469 170.875 31.216 171.772C30.5851 172.669 29.6883 173.369 28.6391 173.781C27.5899 174.194 26.4353 174.302 25.3215 174.092C24.2076 173.881 23.1845 173.362 22.3815 172.599C21.5785 171.836 21.0316 170.864 20.81 169.805C20.5885 168.747 20.7022 167.65 21.1368 166.653C21.5714 165.656 22.3073 164.804 23.2516 164.205C24.1959 163.605 25.3061 163.285 26.4417 163.285C27.9646 163.285 29.425 163.86 30.5019 164.883C31.5787 165.906 32.1837 167.294 32.1837 168.741Z" fill="#FF0000"/>
</g>
</g>
<g style="mix-blend-mode:multiply">
<g style="mix-blend-mode:multiply">
<path d="M52.5891 168.741C52.5891 169.82 52.2523 170.875 51.6214 171.772C50.9904 172.669 50.0936 173.369 49.0444 173.781C47.9952 174.194 46.8407 174.302 45.7268 174.092C44.613 173.881 43.5899 173.362 42.7868 172.599C41.9838 171.836 41.4369 170.864 41.2153 169.805C40.9937 168.747 41.1075 167.65 41.5421 166.653C41.9767 165.656 42.7127 164.804 43.6569 164.205C44.6012 163.605 45.7113 163.285 46.847 163.285C48.3699 163.285 49.8304 163.86 50.9073 164.883C51.9841 165.906 52.5891 167.294 52.5891 168.741Z" fill="#FF0000"/>
</g>
</g>
<g style="mix-blend-mode:multiply">
<g style="mix-blend-mode:multiply">
<path d="M73.0353 168.741C73.0353 169.82 72.6985 170.875 72.0676 171.772C71.4366 172.669 70.5399 173.369 69.4907 173.781C68.4415 174.194 67.2869 174.302 66.1731 174.092C65.0592 173.881 64.0361 173.362 63.2331 172.599C62.4301 171.836 61.8831 170.864 61.6616 169.805C61.44 168.747 61.5538 167.65 61.9884 166.653C62.423 165.656 63.1589 164.804 64.1032 164.205C65.0475 163.605 66.1576 163.285 67.2932 163.285C68.8161 163.285 70.2766 163.86 71.3535 164.883C72.4303 165.906 73.0353 167.294 73.0353 168.741Z" fill="#FF0000"/>
</g>
</g>
<g style="mix-blend-mode:multiply">
<g style="mix-blend-mode:multiply">
<path d="M93.4142 168.741C93.4142 169.82 93.0774 170.875 92.4465 171.772C91.8155 172.669 90.9188 173.369 89.8696 173.781C88.8204 174.194 87.6658 174.302 86.552 174.092C85.4381 173.881 84.415 173.362 83.612 172.599C82.809 171.836 82.2621 170.864 82.0405 169.805C81.8189 168.747 81.9327 167.65 82.3673 166.653C82.8019 165.656 83.5378 164.804 84.4821 164.205C85.4264 163.605 86.5365 163.285 87.6721 163.285C89.195 163.285 90.6555 163.86 91.7323 164.883C92.8092 165.906 93.4142 167.294 93.4142 168.741Z" fill="#FF0000"/>
</g>
</g>
<g style="mix-blend-mode:multiply">
<g style="mix-blend-mode:multiply">
<path d="M113.82 168.741C113.82 169.82 113.483 170.875 112.852 171.772C112.221 172.669 111.324 173.369 110.275 173.781C109.226 174.194 108.072 174.302 106.958 174.092C105.844 173.881 104.821 173.362 104.018 172.599C103.215 171.836 102.668 170.864 102.446 169.805C102.225 168.747 102.338 167.65 102.773 166.653C103.208 165.656 103.944 164.804 104.888 164.205C105.832 163.605 106.942 163.285 108.078 163.285C109.601 163.285 111.061 163.86 112.138 164.883C113.215 165.906 113.82 167.294 113.82 168.741Z" fill="#FF0000"/>
</g>
</g>
<g style="mix-blend-mode:multiply">
<g style="mix-blend-mode:multiply">
<path d="M134.225 168.741C134.225 169.82 133.888 170.875 133.257 171.772C132.627 172.669 131.73 173.369 130.681 173.781C129.631 174.194 128.477 174.302 127.363 174.092C126.249 173.881 125.226 173.362 124.423 172.599C123.62 171.836 123.073 170.864 122.852 169.805C122.63 168.747 122.744 167.65 123.178 166.653C123.613 165.656 124.349 164.804 125.293 164.205C126.237 163.605 127.348 163.285 128.483 163.285C130.006 163.285 131.467 163.86 132.543 164.883C133.62 165.906 134.225 167.294 134.225 168.741Z" fill="#FF0000"/>
</g>
</g>
<g style="mix-blend-mode:multiply">
<g style="mix-blend-mode:multiply">
<path d="M154.631 168.741C154.631 169.821 154.294 170.876 153.662 171.773C153.031 172.671 152.133 173.37 151.083 173.783C150.033 174.195 148.878 174.303 147.764 174.091C146.65 173.879 145.627 173.359 144.824 172.594C144.022 171.83 143.476 170.857 143.256 169.798C143.036 168.738 143.151 167.641 143.588 166.644C144.025 165.648 144.763 164.796 145.709 164.198C146.655 163.6 147.766 163.283 148.902 163.285C150.423 163.289 151.88 163.865 152.954 164.888C154.028 165.91 154.631 167.296 154.631 168.741Z" fill="#FF0000"/>
</g>
</g>
<g style="mix-blend-mode:multiply">
<g style="mix-blend-mode:multiply">
<path d="M174.996 168.741C174.996 169.82 174.659 170.875 174.028 171.772C173.397 172.669 172.5 173.369 171.451 173.781C170.402 174.194 169.247 174.302 168.134 174.092C167.02 173.881 165.997 173.362 165.194 172.599C164.391 171.836 163.844 170.864 163.622 169.805C163.4 168.747 163.514 167.65 163.949 166.653C164.383 165.656 165.119 164.804 166.064 164.205C167.008 163.605 168.118 163.285 169.254 163.285C170.777 163.285 172.237 163.86 173.314 164.883C174.391 165.906 174.996 167.294 174.996 168.741Z" fill="#FF0000"/>
</g>
</g>
<g style="mix-blend-mode:multiply">
<g style="mix-blend-mode:multiply">
<path d="M195.455 168.741C195.455 169.82 195.118 170.875 194.487 171.772C193.857 172.669 192.96 173.369 191.911 173.781C190.861 174.194 189.707 174.302 188.593 174.092C187.479 173.881 186.456 173.362 185.653 172.599C184.85 171.836 184.303 170.864 184.082 169.805C183.86 168.747 183.974 167.65 184.408 166.653C184.843 165.656 185.579 164.804 186.523 164.205C187.467 163.605 188.577 163.285 189.713 163.285C191.236 163.285 192.697 163.86 193.773 164.883C194.85 165.906 195.455 167.294 195.455 168.741Z" fill="#FF0000"/>
</g>
</g>
</g>
</g>
</g>
</svg>
