<svg width="80" height="80" viewBox="0 0 80 80" fill="none" xmlns="http://www.w3.org/2000/svg">
<g filter="url(#filter0_d)">
<circle cx="40" cy="32" r="24" fill="#FFA500"/>
<g clip-path="url(#clip0)">
<path d="M28.4086 34.4119L22.6438 32.687L25.772 24.3329L31.3481 26.5788L28.4086 34.4119Z" fill="white" stroke="white" stroke-width="0.5"/>
<path d="M41.9361 37.5356L41.9361 37.5356L41.9371 37.5368L42.6433 38.4284C42.7855 38.6118 42.8462 38.839 42.8152 39.0621C42.7843 39.2849 42.6637 39.4903 42.4751 39.6334C42.284 39.7703 42.0424 39.8309 41.8028 39.7997C41.563 39.7685 41.3484 39.6484 41.2041 39.4692L40.5103 38.5809L40.5103 38.5809L40.5086 38.5788C40.3635 38.3969 40.301 38.1695 40.332 37.9461C40.363 37.7224 40.4859 37.5167 40.6778 37.3758L40.6778 37.3758L40.6789 37.375C40.7716 37.3062 40.8782 37.2553 40.9928 37.2258C41.1073 37.1963 41.2271 37.1889 41.3448 37.2041C41.4626 37.2193 41.5756 37.2568 41.6771 37.314C41.7787 37.3711 41.8666 37.4466 41.9361 37.5356Z" fill="white" stroke="white" stroke-width="0.5"/>
<path d="M43.9271 35.6296L43.9271 35.6296L43.9284 35.6312L45.1429 37.1591C45.2858 37.3426 45.347 37.5703 45.316 37.794C45.285 38.018 45.1633 38.2245 44.973 38.3676C44.8796 38.4371 44.7721 38.4885 44.6566 38.5182C44.5409 38.5481 44.42 38.5555 44.3011 38.54C44.1823 38.5246 44.0682 38.4866 43.9658 38.4287C43.8634 38.3708 43.7748 38.2943 43.7049 38.2043L43.7049 38.2043L43.7039 38.203L42.5007 36.6742L42.5007 36.6742L42.4992 36.6723C42.427 36.5823 42.3745 36.4801 42.3442 36.3718C42.3139 36.2635 42.3063 36.1508 42.3217 36.0399C42.3371 35.929 42.3753 35.8216 42.4345 35.7239C42.4937 35.6261 42.573 35.5398 42.6682 35.4702L42.6682 35.4702L42.6699 35.469C42.7626 35.4002 42.8692 35.3493 42.9837 35.3198C43.0983 35.2903 43.218 35.2829 43.3358 35.2981C43.4536 35.3133 43.5665 35.3508 43.6681 35.408C43.7697 35.4651 43.8576 35.5406 43.9271 35.6296Z" fill="white" stroke="white" stroke-width="0.5"/>
<path d="M39.945 26.7977L39.8532 26.6097L39.652 26.6669C37.6384 27.2387 36.0383 28.4395 34.6372 29.85C33.6789 30.8148 32.8003 31.8931 31.9466 32.9406C31.5934 33.3741 31.2445 33.8023 30.896 34.215L29.5116 33.8528L32.104 26.9456C33.0096 26.7813 33.7548 26.4366 34.4347 26.0385C34.7879 25.8317 35.1257 25.6091 35.4566 25.391L35.4659 25.3849C35.8016 25.1637 36.1305 24.9472 36.472 24.7481C37.1523 24.3513 37.8737 24.029 38.753 23.899C39.6323 23.7692 40.6861 23.8294 42.0317 24.2219C42.0711 24.2339 42.1508 24.2843 42.2665 24.4206C42.3768 24.5506 42.4977 24.7317 42.6258 24.956C42.8817 25.4037 43.15 25.9934 43.4077 26.6154C43.6647 27.2359 43.9081 27.8809 44.115 28.4368C44.1501 28.5311 44.1842 28.6232 44.2173 28.7122C44.3345 29.0279 44.4378 29.3063 44.5209 29.5182C43.9707 29.8184 43.4809 29.9056 43.0465 29.8597C42.562 29.8084 42.1205 29.5886 41.7206 29.2641C40.9135 28.6091 40.3187 27.5632 39.945 26.7977Z" fill="white" stroke="white" stroke-width="0.5"/>
<path d="M47.7574 34.5428L47.7575 34.5428L47.7545 34.5391L46.9012 33.4722C46.7586 33.2891 46.6976 33.0621 46.7286 32.839C46.7596 32.6158 46.8808 32.4101 47.0705 32.2675C47.1643 32.199 47.2718 32.1484 47.3871 32.1191C47.5029 32.0898 47.6238 32.0826 47.7427 32.098C47.8615 32.1135 47.9756 32.1513 48.0783 32.2088C48.1808 32.2662 48.2697 32.342 48.3404 32.4313C48.3405 32.4315 48.3406 32.4316 48.3407 32.4318L49.1822 33.5077L49.1822 33.5077L49.1844 33.5104C49.2563 33.5997 49.3085 33.7011 49.3387 33.8086C49.3688 33.9161 49.3763 34.0281 49.3609 34.1382C49.3456 34.2482 49.3075 34.3548 49.2485 34.4518C49.1895 34.5487 49.1106 34.6343 49.0157 34.7031L49.0157 34.7031L49.0127 34.7053C48.9203 34.7745 48.8137 34.8257 48.6992 34.8553C48.5846 34.8849 48.4648 34.8923 48.347 34.8769C48.2292 34.8614 48.1163 34.8236 48.015 34.766C47.9137 34.7083 47.8263 34.6323 47.7574 34.5428Z" fill="white" stroke="white" stroke-width="0.5"/>
<path d="M45.9062 33.6833L45.9062 33.6833L45.9073 33.6847L47.363 35.5212C47.363 35.5213 47.3631 35.5214 47.3631 35.5214C47.5072 35.704 47.569 35.9314 47.538 36.1547C47.507 36.3782 47.3849 36.5839 47.1941 36.7256C47.1003 36.7946 46.9926 36.8455 46.8771 36.875C46.7614 36.9045 46.6406 36.9119 46.5217 36.8967C46.4028 36.8814 46.2887 36.8439 46.1859 36.7866C46.0832 36.7293 45.994 36.6536 45.9232 36.5642C45.9232 36.5642 45.9232 36.5642 45.9232 36.5642L44.468 34.7283C44.4679 34.7281 44.4678 34.728 44.4677 34.7278C44.324 34.5445 44.2625 34.3167 44.2935 34.0929C44.3245 33.8689 44.4465 33.6625 44.6372 33.5198C44.7308 33.4506 44.8384 33.3994 44.9539 33.3698C45.0696 33.3401 45.1905 33.3327 45.3094 33.3482C45.4283 33.3637 45.5423 33.4016 45.6448 33.4594C45.7473 33.5171 45.836 33.5934 45.9062 33.6833Z" fill="white" stroke="white" stroke-width="0.5"/>
<path d="M57.3258 29.7553L52.1601 32.7681L47.161 25.58L52.1471 22.2399L57.3258 29.7553Z" fill="white" stroke="white" stroke-width="0.5"/>
<path d="M43.4619 34.4799C43.283 34.455 43.1001 34.4567 42.92 34.4859C42.5708 34.5425 42.2464 34.6997 41.9905 34.9384C41.7346 35.1771 41.5592 35.4863 41.4899 35.8255C41.4528 36.0067 41.4471 36.1913 41.4718 36.3722C41.2507 36.342 41.0242 36.3524 40.8047 36.4046C40.4295 36.4938 40.0938 36.7002 39.8516 36.9939C39.6092 37.2877 39.4746 37.652 39.471 38.0294C39.4674 38.4069 39.595 38.7735 39.8319 39.0717L39.8319 39.0717L40.5338 39.9551C40.5488 39.9764 40.5644 39.9972 40.5808 40.0174C40.5166 40.0808 40.4536 40.1421 40.3845 40.2039L40.3786 40.2091L40.373 40.2147C39.971 40.6223 39.4346 40.667 39.0082 40.4901C38.5745 40.3102 38.3057 39.9294 38.365 39.5129L38.4244 39.0962L38.0301 39.2434C37.3756 39.4878 36.8432 39.4371 36.4868 39.2398C36.1347 39.0449 35.922 38.6909 35.922 38.2454V37.9227L35.6096 38.0033C35.0738 38.1415 34.4694 38.0551 34.0369 37.7912C33.6166 37.5348 33.368 37.1219 33.4722 36.5638L33.5774 36.0003L33.0929 36.3066C32.918 36.4171 32.667 36.4594 32.3856 36.4223C32.1064 36.3856 31.8233 36.2735 31.6029 36.1101C31.3817 35.9462 31.242 35.7453 31.2065 35.5349C31.1723 35.3325 31.2265 35.0734 31.4902 34.7671C32.1341 34.0298 32.7742 33.2905 33.4139 32.5516L33.414 32.5515C34.054 31.8122 34.6936 31.0734 35.3369 30.3368L35.3431 30.3297L35.3487 30.3222C35.4047 30.2475 35.4674 30.1774 35.5362 30.1128L35.5363 30.1129L35.5404 30.1088C36.1982 29.4623 36.9293 28.8878 37.7203 28.396C38.2654 28.0972 38.8337 27.8392 39.4204 27.6245C39.947 28.5996 40.6628 29.5911 41.5695 30.1736C42.057 30.4868 42.6044 30.6846 43.2071 30.6923C43.8088 30.7 44.4466 30.5179 45.1154 30.1024L45.3605 29.9639L45.5593 29.8516L45.4654 29.6435L45.3535 29.3954C45.2875 29.2285 45.1931 28.9685 45.0776 28.6502C44.866 28.067 44.5832 27.2878 44.2732 26.526C44.5444 26.4859 44.8176 26.4466 45.0916 26.4071C45.6211 26.3308 46.1535 26.2541 46.6794 26.1714L50.983 32.4061C50.7279 32.5705 50.479 32.727 50.2342 32.8809C50.1273 32.9482 50.0211 33.0149 49.9156 33.0816C49.8935 33.0497 49.8703 33.0186 49.8461 32.9882C49.8461 32.9881 49.846 32.988 49.8459 32.9879L49.0042 31.9233L49.0042 31.9232L48.9999 31.918C48.7645 31.6363 48.4424 31.4358 48.082 31.344C47.7216 31.2522 47.34 31.2733 46.9927 31.4045C46.6453 31.5358 46.3489 31.771 46.1487 32.0777C46.0314 32.2574 45.9508 32.4559 45.9101 32.6624C45.6939 32.5662 45.4582 32.5136 45.2176 32.5095C44.8265 32.5028 44.4436 32.6245 44.1326 32.856C43.8077 33.0932 43.5772 33.4333 43.4839 33.8191L43.7269 33.8778L43.4839 33.8191C43.431 34.0376 43.4243 34.2621 43.4619 34.4799Z" fill="white" stroke="white" stroke-width="0.5"/>
</g>
</g>
<defs>
<filter id="filter0_d" x="0" y="0" width="80" height="80" filterUnits="userSpaceOnUse" color-interpolation-filters="sRGB">
<feFlood flood-opacity="0" result="BackgroundImageFix"/>
<feColorMatrix in="SourceAlpha" type="matrix" values="0 0 0 0 0 0 0 0 0 0 0 0 0 0 0 0 0 0 127 0"/>
<feOffset dy="8"/>
<feGaussianBlur stdDeviation="8"/>
<feColorMatrix type="matrix" values="0 0 0 0 1 0 0 0 0 0.647059 0 0 0 0 0 0 0 0 0.35 0"/>
<feBlend mode="normal" in2="BackgroundImageFix" result="effect1_dropShadow"/>
<feBlend mode="normal" in="SourceGraphic" in2="effect1_dropShadow" result="shape"/>
</filter>
<clipPath id="clip0">
<rect width="35.3684" height="18.9474" fill="white" transform="translate(22.3159 21.8949)"/>
</clipPath>
</defs>
</svg>
