<svg width="80" height="80" viewBox="0 0 80 80" fill="none" xmlns="http://www.w3.org/2000/svg">
<g filter="url(#filter0_d)">
<rect x="16" y="8" width="48" height="48" rx="24" fill="#FF4B4B"/>
<g clip-path="url(#clip0)">
<path d="M33.678 26.0221C34.0676 26.0256 34.4494 25.919 34.775 25.7158C35.1007 25.5127 35.3555 25.2221 35.5071 24.8811C35.6587 24.5401 35.7003 24.1639 35.6265 23.8004C35.5528 23.4369 35.3671 23.1023 35.093 22.8393C34.8188 22.5763 34.4686 22.3966 34.0868 22.3231C33.7051 22.2496 33.3089 22.2855 32.9487 22.4264C32.5884 22.5672 32.2804 22.8067 32.0635 23.1143C31.8467 23.4218 31.731 23.7837 31.731 24.1539C31.7297 24.6467 31.9339 25.1199 32.2988 25.47C32.6636 25.8201 33.1596 26.0186 33.678 26.0221Z" fill="white"/>
<path d="M44.3245 33.4022H43.3995V36.1099L41.0547 41.7143H42.0537L43.3995 38.4879V41.7143H44.3245V38.4879L45.6657 41.7143H46.6646L44.3245 36.1099V33.4022Z" fill="white"/>
<rect x="38.0234" y="23.4286" width="11.8588" height="8.57143" fill="#FF4B4B"/>
<path d="M42.6918 25.8154C42.6436 25.5898 42.5043 25.3911 42.3036 25.262C42.103 25.133 41.8571 25.0839 41.6188 25.1253L35.9071 26.2198H30.7227C30.4968 26.218 30.2781 26.2948 30.1077 26.4357C29.9373 26.5766 29.827 26.7718 29.7977 26.9847C29.5294 29.0945 29.2519 31.2088 28.9791 33.3099C28.9444 33.4313 28.9376 33.5582 28.9589 33.6823C28.9803 33.8063 29.0294 33.9246 29.1029 34.0291C29.1765 34.1335 29.2727 34.2218 29.3852 34.2879C29.4977 34.3541 29.6238 34.3965 29.755 34.4123C29.8862 34.4282 30.0195 34.4172 30.1458 34.3799C30.2721 34.3427 30.3886 34.2801 30.4873 34.1965C30.586 34.1128 30.6647 34.01 30.7181 33.895C30.7715 33.78 30.7982 33.6554 30.7966 33.5297C31.0094 31.9209 31.2129 30.3121 31.4303 28.6946V40.7165C31.4303 40.9765 31.5389 41.2258 31.7323 41.4097C31.9258 41.5935 32.1881 41.6968 32.4616 41.6968C32.7351 41.6968 32.9975 41.5935 33.1909 41.4097C33.3843 41.2258 33.4929 40.9765 33.4929 40.7165V34.211H33.8259V40.7253C33.8259 40.9853 33.9346 41.2346 34.128 41.4184C34.3214 41.6023 34.5837 41.7055 34.8573 41.7055C35.1308 41.7055 35.3931 41.6023 35.5865 41.4184C35.78 41.2346 35.8886 40.9853 35.8886 40.7253V28.0088C37.7015 27.6704 40.5135 27.1297 41.9564 26.8572C42.0772 26.8357 42.1923 26.7915 42.2949 26.7272C42.3975 26.6629 42.4856 26.5799 42.554 26.4829C42.6225 26.3859 42.6699 26.277 42.6936 26.1623C42.7172 26.0477 42.7166 25.9298 42.6918 25.8154Z" fill="white"/>
<path d="M50.6787 23.099C50.4685 22.9003 50.1844 22.7881 49.8878 22.7869H37.8309C37.6837 22.7856 37.5378 22.8125 37.4019 22.8662C37.266 22.9198 37.1429 22.999 37.04 23.099C36.8315 23.3006 36.7151 23.5723 36.7163 23.855V25.8243L37.9234 25.5957V23.9386H49.8139V32.0045H37.9141V27.8506L36.707 28.0836V32.088C36.7069 32.2287 36.7363 32.3681 36.7935 32.4979C36.8506 32.6277 36.9344 32.7454 37.04 32.8441C37.1443 32.9453 37.2688 33.0258 37.4061 33.0809C37.5435 33.136 37.691 33.1646 37.8401 33.1649H49.8971C50.1949 33.1592 50.4786 33.0437 50.6884 32.8427C50.8981 32.6417 51.0174 32.3711 51.0209 32.088V23.8682C51.0204 23.7248 50.9899 23.583 50.9311 23.4509C50.8724 23.3189 50.7866 23.1992 50.6787 23.099Z" fill="white"/>
</g>
</g>
<defs>
<filter id="filter0_d" x="0" y="0" width="80" height="80" filterUnits="userSpaceOnUse" color-interpolation-filters="sRGB">
<feFlood flood-opacity="0" result="BackgroundImageFix"/>
<feColorMatrix in="SourceAlpha" type="matrix" values="0 0 0 0 0 0 0 0 0 0 0 0 0 0 0 0 0 0 127 0"/>
<feOffset dy="8"/>
<feGaussianBlur stdDeviation="8"/>
<feColorMatrix type="matrix" values="0 0 0 0 1 0 0 0 0 0.154167 0 0 0 0 0.154167 0 0 0 0.35 0"/>
<feBlend mode="normal" in2="BackgroundImageFix" result="effect1_dropShadow"/>
<feBlend mode="normal" in="SourceGraphic" in2="effect1_dropShadow" result="shape"/>
</filter>
<clipPath id="clip0">
<rect width="22.0235" height="19.4286" fill="white" transform="translate(28.9883 22.2858)"/>
</clipPath>
</defs>
</svg>
