<svg width="80" height="80" viewBox="0 0 80 80" fill="none" xmlns="http://www.w3.org/2000/svg">
<g filter="url(#filter0_d)">
<rect x="16" y="8" width="48" height="48" rx="24" fill="#008000"/>
<g clip-path="url(#clip0)">
<path fill-rule="evenodd" clip-rule="evenodd" d="M36.9844 23.4852H42.7557V25.5595H43.9246V23.3652C43.9257 23.2231 43.8989 23.0822 43.8456 22.9507C43.7922 22.8192 43.7135 22.6998 43.614 22.5995C43.5158 22.4968 43.3983 22.415 43.2683 22.3591C43.1383 22.3031 42.9985 22.2741 42.8573 22.2738H36.8883C36.6033 22.2753 36.3304 22.391 36.1294 22.5955C35.9283 22.8 35.8154 23.0768 35.8154 23.3652V25.5481H36.9844V23.4852Z" fill="white"/>
<path fill-rule="evenodd" clip-rule="evenodd" d="M50.2325 25.8571H29.4966C29.3598 25.8601 29.2296 25.9176 29.1345 26.0171C29.0393 26.1166 28.9868 26.2501 28.9883 26.3886V33.1886C28.9876 33.3101 29.0105 33.4306 29.0558 33.5432C29.1011 33.6559 29.1678 33.7583 29.2523 33.8448C29.3367 33.9313 29.4371 34.0001 29.5478 34.0473C29.6586 34.0946 29.7774 34.1192 29.8975 34.12H32.721V32.9029C32.721 32.825 32.7512 32.7503 32.805 32.6947C32.8589 32.6392 32.9321 32.6072 33.009 32.6057H34.8952C34.933 32.6065 34.9703 32.6147 35.0049 32.6301C35.0396 32.6454 35.0709 32.6675 35.0972 32.6951C35.1234 32.7227 35.144 32.7552 35.1578 32.7909C35.1715 32.8265 35.1783 32.8646 35.1775 32.9029V34.12H44.5911V32.9029C44.5904 32.8641 44.5973 32.8256 44.6114 32.7896C44.6256 32.7536 44.6467 32.7208 44.6735 32.6931C44.7003 32.6654 44.7323 32.6434 44.7676 32.6284C44.8029 32.6134 44.8408 32.6057 44.8791 32.6057H46.7653C46.8029 32.6064 46.8399 32.6147 46.8742 32.6301C46.9086 32.6456 46.9396 32.6677 46.9653 32.6954C46.9911 32.7231 47.0112 32.7557 47.0243 32.7913C47.0375 32.8269 47.0435 32.8649 47.042 32.9029V34.12H49.8655C49.9856 34.1192 50.1045 34.0946 50.2152 34.0473C50.3259 34.0001 50.4263 33.9313 50.5107 33.8448C50.5952 33.7583 50.6619 33.6559 50.7072 33.5432C50.7525 33.4306 50.7754 33.3101 50.7747 33.1886V26.3886C50.7755 26.3171 50.7619 26.2462 50.7348 26.1802C50.7076 26.1142 50.6674 26.0545 50.6167 26.0048C50.5659 25.955 50.5057 25.9163 50.4397 25.8909C50.3736 25.8655 50.3031 25.854 50.2325 25.8571ZM49.5832 27.1314H30.1573C30.0863 27.1314 30.0182 27.1033 29.9676 27.0531C29.9169 27.0029 29.8877 26.9346 29.8862 26.8628C29.8869 26.8276 29.8945 26.7928 29.9085 26.7605C29.9226 26.7282 29.9428 26.699 29.9679 26.6746C29.9931 26.6502 30.0228 26.631 30.0553 26.6182C30.0878 26.6054 30.1224 26.5992 30.1573 26.6H49.5832C49.6175 26.5992 49.6516 26.6055 49.6835 26.6184C49.7153 26.6313 49.7443 26.6507 49.7686 26.6752C49.7928 26.6998 49.8119 26.7291 49.8247 26.7613C49.8375 26.7936 49.8437 26.8281 49.8429 26.8628C49.8437 26.8978 49.8375 26.9326 49.8248 26.9652C49.8121 26.9977 49.7931 27.0274 49.7689 27.0524C49.7447 27.0774 49.7158 27.0973 49.6839 27.1109C49.652 27.1244 49.6178 27.1314 49.5832 27.1314Z" fill="white"/>
<path fill-rule="evenodd" clip-rule="evenodd" d="M47.0252 35.3657C47.0252 35.4405 46.9963 35.5123 46.9445 35.5658C46.8928 35.6192 46.8224 35.65 46.7485 35.6514H44.8624C44.8249 35.6522 44.7875 35.6454 44.7526 35.6314C44.7177 35.6173 44.6859 35.5964 44.6591 35.5698C44.6323 35.5432 44.611 35.5115 44.5964 35.4764C44.5819 35.4414 44.5744 35.4037 44.5744 35.3657V34.4343H35.1607V35.3657C35.1593 35.4411 35.1291 35.5129 35.0765 35.5661C35.0238 35.6194 34.9528 35.65 34.8784 35.6514H32.9923C32.9173 35.65 32.8457 35.6197 32.7921 35.5665C32.7386 35.5134 32.7072 35.4416 32.7043 35.3657V34.4343H29.9429V41.7657C29.9429 41.8175 29.953 41.8688 29.9725 41.9166C29.9921 41.9645 30.0208 42.0079 30.057 42.0445C30.0932 42.0811 30.1361 42.1102 30.1834 42.13C30.2307 42.1498 30.2814 42.16 30.3325 42.16H49.4027C49.4543 42.1608 49.5056 42.1511 49.5535 42.1317C49.6014 42.1122 49.6451 42.0833 49.6818 42.0466C49.7186 42.0099 49.7478 41.9662 49.7678 41.9179C49.7877 41.8697 49.798 41.818 49.798 41.7657V34.4114H47.0252V35.3657ZM34.5227 36.7943C34.5227 36.8307 34.5084 36.8656 34.483 36.8913C34.4575 36.917 34.423 36.9314 34.3871 36.9314H33.4892C33.4533 36.9314 33.4188 36.917 33.3934 36.8913C33.368 36.8656 33.3537 36.8307 33.3537 36.7943V35.9372H34.5227V36.7943ZM46.3815 36.7943C46.3815 36.8307 46.3672 36.8656 46.3418 36.8913C46.3164 36.917 46.2819 36.9314 46.2459 36.9314H45.3537C45.3178 36.9314 45.2833 36.917 45.2579 36.8913C45.2324 36.8656 45.2182 36.8307 45.2182 36.7943V35.9372H46.3815V36.7943Z" fill="white"/>
<path fill-rule="evenodd" clip-rule="evenodd" d="M34.5225 34.12C34.5225 33.9685 34.463 33.8231 34.3571 33.7159C34.2512 33.6088 34.1075 33.5486 33.9578 33.5486C33.808 33.5486 33.6643 33.6088 33.5584 33.7159C33.4525 33.8231 33.3931 33.9685 33.3931 34.12C33.3931 34.2716 33.4525 34.4169 33.5584 34.5241C33.6643 34.6312 33.808 34.6914 33.9578 34.6914C34.1075 34.6914 34.2512 34.6312 34.3571 34.5241C34.463 34.4169 34.5225 34.2716 34.5225 34.12Z" fill="white"/>
<path fill-rule="evenodd" clip-rule="evenodd" d="M46.3811 34.12C46.3811 33.9639 46.3198 33.8142 46.2107 33.7038C46.1016 33.5934 45.9537 33.5314 45.7994 33.5314C45.6452 33.5314 45.4972 33.5934 45.3881 33.7038C45.2791 33.8142 45.2178 33.9639 45.2178 34.12C45.2178 34.2761 45.2791 34.4258 45.3881 34.5362C45.4972 34.6466 45.6452 34.7086 45.7994 34.7086C45.9537 34.7086 46.1016 34.6466 46.2107 34.5362C46.3198 34.4258 46.3811 34.2761 46.3811 34.12Z" fill="white"/>
</g>
</g>
<defs>
<filter id="filter0_d" x="0" y="0" width="80" height="80" filterUnits="userSpaceOnUse" color-interpolation-filters="sRGB">
<feFlood flood-opacity="0" result="BackgroundImageFix"/>
<feColorMatrix in="SourceAlpha" type="matrix" values="0 0 0 0 0 0 0 0 0 0 0 0 0 0 0 0 0 0 127 0"/>
<feOffset dy="8"/>
<feGaussianBlur stdDeviation="8"/>
<feColorMatrix type="matrix" values="0 0 0 0 0 0 0 0 0 0.486275 0 0 0 0 0 0 0 0 0.35 0"/>
<feBlend mode="normal" in2="BackgroundImageFix" result="effect1_dropShadow"/>
<feBlend mode="normal" in="SourceGraphic" in2="effect1_dropShadow" result="shape"/>
</filter>
<clipPath id="clip0">
<rect width="21.7638" height="19.8743" fill="white" transform="translate(28.9883 22.2857)"/>
</clipPath>
</defs>
</svg>
