<svg width="40" height="40" viewBox="0 0 40 40" fill="none" xmlns="http://www.w3.org/2000/svg">
<g clip-path="url(#clip0)">
<path d="M38.476 27.6464C42.703 17.4415 37.857 5.74215 27.6521 1.51514C17.4472 -2.71186 5.74786 2.13417 1.52086 12.3391C-2.70615 22.544 2.13989 34.2433 12.3448 38.4703C22.5497 42.6973 34.249 37.8513 38.476 27.6464Z" fill="#5642CF"/>
<path d="M27.2837 25.3167L28.1337 20.0833H22.0837V16.0833C22.0837 14.4167 22.517 13.2667 24.8837 13.2667H28.3337V7.98333C26.9183 7.68985 25.4788 7.52805 24.0337 7.5C19.6837 7.5 16.8003 10.3667 16.8003 15.25V20.0833H11.667V25.3167H16.9003V39.75C17.9255 39.9147 18.962 39.9983 20.0003 40C20.7003 40 21.4003 40 22.0837 39.9V25.3167H27.2837Z" fill="#F7F7F7"/>
</g>
<defs>
<clipPath id="clip0">
<rect width="40" height="40" fill="white"/>
</clipPath>
</defs>
</svg>
