<svg width="40" height="40" viewBox="0 0 40 40" fill="none" xmlns="http://www.w3.org/2000/svg">
<path d="M20 40C31.0457 40 40 31.0457 40 20C40 8.9543 31.0457 0 20 0C8.9543 0 0 8.9543 0 20C0 31.0457 8.9543 40 20 40Z" fill="#5642CF"/>
<path d="M25.7167 32.5H14.2667C12.472 32.5 10.7509 31.7871 9.48191 30.5181C8.21291 29.2491 7.5 27.528 7.5 25.7333V14.2667C7.5 12.472 8.21291 10.7509 9.48191 9.48191C10.7509 8.21291 12.472 7.5 14.2667 7.5H25.7167C27.5128 7.49999 29.2357 8.21238 30.5073 9.4809C31.779 10.7494 32.4956 12.4705 32.5 14.2667V25.7333C32.4956 27.5295 31.779 29.2506 30.5073 30.5191C29.2357 31.7876 27.5128 32.5 25.7167 32.5ZM14.2667 9.58333C13.0275 9.58774 11.8405 10.0831 10.9658 10.9609C10.0911 11.8387 9.59999 13.0275 9.6 14.2667V25.7333C9.59999 26.9725 10.0911 28.1613 10.9658 29.0391C11.8405 29.9169 13.0275 30.4123 14.2667 30.4167H25.7167C26.9603 30.4167 28.1532 29.9238 29.0342 29.046C29.9151 28.1681 30.4123 26.977 30.4167 25.7333V14.2667C30.4123 13.023 29.9151 11.8319 29.0342 10.954C28.1532 10.0762 26.9603 9.58333 25.7167 9.58333H14.2667Z" fill="#F7F7F7"/>
<path d="M19.9999 26.25C18.7645 26.2467 17.5578 25.8773 16.5322 25.1886C15.5066 24.4998 14.7081 23.5225 14.2376 22.3802C13.7671 21.2379 13.6457 19.9818 13.8887 18.7705C14.1318 17.5592 14.7283 16.4471 15.6031 15.5747C16.4778 14.7023 17.5915 14.1087 18.8034 13.8689C20.0153 13.6291 21.2711 13.7538 22.4122 14.2273C23.5533 14.7009 24.5284 15.502 25.2144 16.5294C25.9005 17.5568 26.2666 18.7646 26.2666 20C26.2666 20.8221 26.1044 21.6362 25.7893 22.3956C25.4741 23.155 25.0123 23.8447 24.4301 24.4253C23.848 25.0059 23.157 25.4659 22.3968 25.779C21.6366 26.0921 20.8221 26.2522 19.9999 26.25ZM19.9999 15.8333C19.1758 15.8333 18.3703 16.0777 17.6851 16.5355C16.9999 16.9934 16.4658 17.6441 16.1504 18.4055C15.8351 19.1668 15.7526 20.0046 15.9133 20.8129C16.0741 21.6211 16.4709 22.3635 17.0537 22.9463C17.6364 23.529 18.3788 23.9258 19.1871 24.0866C19.9953 24.2474 20.8331 24.1648 21.5945 23.8495C22.3558 23.5341 23.0066 23.0001 23.4644 22.3149C23.9222 21.6297 24.1666 20.8241 24.1666 20C24.1666 18.8949 23.7276 17.8351 22.9462 17.0537C22.1648 16.2723 21.105 15.8333 19.9999 15.8333Z" fill="#F7F7F7"/>
<path d="M26.6335 11.9333C26.917 11.9333 27.1941 12.0174 27.4298 12.1748C27.6656 12.3323 27.8493 12.5562 27.9578 12.8181C28.0662 13.08 28.0946 13.3682 28.0393 13.6463C27.984 13.9243 27.8475 14.1797 27.6471 14.3801C27.4466 14.5806 27.1912 14.7171 26.9132 14.7724C26.6351 14.8277 26.3469 14.7993 26.085 14.6909C25.8231 14.5824 25.5993 14.3987 25.4418 14.1629C25.2843 13.9272 25.2002 13.6501 25.2002 13.3666C25.2002 12.9865 25.3512 12.6219 25.62 12.3531C25.8888 12.0843 26.2534 11.9333 26.6335 11.9333Z" fill="#F7F7F7"/>
</svg>
