<svg width="40" height="40" viewBox="0 0 40 40" fill="none" xmlns="http://www.w3.org/2000/svg">
<g clip-path="url(#clip0)">
<path d="M38.6662 27.175C42.6373 16.8678 37.5008 5.29297 27.1936 1.32195C16.8864 -2.64907 5.31158 2.48742 1.34056 12.7946C-2.63046 23.1018 2.50603 34.6766 12.8132 38.6476C23.1204 42.6186 34.6952 37.4822 38.6662 27.175Z" fill="#5642CF"/>
<path d="M32.3003 12.3666C31.3795 12.778 30.4017 13.0477 29.4003 13.1666C30.4495 12.5276 31.2356 11.5345 31.6169 10.3666C30.6292 10.959 29.5467 11.3762 28.4169 11.6C27.7332 10.831 26.8288 10.2917 25.8272 10.0557C24.8256 9.8197 23.7756 9.89847 22.8204 10.2813C21.8653 10.6641 21.0515 11.3322 20.4901 12.1946C19.9287 13.057 19.6471 14.0716 19.6836 15.1C19.6795 15.4865 19.7186 15.8722 19.8003 16.25C17.7911 16.1415 15.8271 15.6121 14.0356 14.6962C12.244 13.7804 10.6648 12.4984 9.40026 10.9333C8.76411 12.0353 8.57201 13.3383 8.86309 14.577C9.15418 15.8156 9.90655 16.8967 10.9669 17.6C10.161 17.5737 9.37274 17.3566 8.66693 16.9666C8.64552 18.1434 9.03995 19.2901 9.78078 20.2047C10.5216 21.1193 11.5613 21.7432 12.7169 21.9666C12.2882 22.0861 11.8454 22.1477 11.4003 22.15C11.0809 22.1515 10.7623 22.118 10.4503 22.05C10.7638 23.0595 11.3892 23.9436 12.2366 24.5755C13.0841 25.2073 14.1099 25.5543 15.1669 25.5666C13.371 26.9642 11.1592 27.721 8.88359 27.7166C8.48398 27.7415 8.08321 27.7415 7.68359 27.7166C9.85347 29.1068 12.3573 29.8877 14.9327 29.9775C17.5081 30.0674 20.0603 29.4629 22.3218 28.2273C24.5832 26.9918 26.4707 25.1707 27.7865 22.9549C29.1022 20.7392 29.7978 18.2103 29.8003 15.6333C29.8003 15.4166 29.8003 15.2 29.8003 14.9833C30.7856 14.2649 31.6374 13.3792 32.3169 12.3666" fill="#F7F7F7"/>
</g>
<defs>
<clipPath id="clip0">
<rect width="40" height="40" fill="white"/>
</clipPath>
</defs>
</svg>
