<svg width="40" height="40" viewBox="0 0 40 40" fill="none" xmlns="http://www.w3.org/2000/svg">
<g clip-path="url(#clip0)">
<path d="M39.4689 24.5776C42.0062 13.8273 35.3482 3.05551 24.5979 0.518203C13.8476 -2.0191 3.07584 4.63886 0.538536 15.3892C-1.99877 26.1395 4.65919 36.9113 15.4095 39.4486C26.1598 41.9859 36.9316 35.3279 39.4689 24.5776Z" fill="#5642CF"/>
<path d="M32.2499 15C32.1318 14.1038 31.794 13.2507 31.2665 12.5167C30.6039 11.8512 29.7056 11.4739 28.7665 11.4667C25.2665 11.2167 20.0165 11.2167 20.0165 11.2167C20.0165 11.2167 14.7665 11.2167 11.2665 11.4667C10.3275 11.4739 9.42914 11.8512 8.76654 12.5167C8.23535 13.2487 7.89716 14.1028 7.7832 15C7.62796 16.3446 7.54451 17.6965 7.5332 19.05V20.95C7.54451 22.3035 7.62796 23.6554 7.7832 25C7.89564 25.8925 8.23411 26.7416 8.76654 27.4667C9.53151 28.1438 10.5118 28.5277 11.5332 28.55C13.5332 28.7333 20.0332 28.8 20.0332 28.8C20.0332 28.8 25.2832 28.8 28.7832 28.5333C29.2497 28.5294 29.7108 28.4331 30.1399 28.25C30.569 28.0669 30.9575 27.8007 31.2832 27.4667C31.8184 26.7415 32.1623 25.8932 32.2832 25C32.4384 23.6554 32.5219 22.3035 32.5332 20.95V19.05C32.5219 17.6965 32.4384 16.3446 32.2832 15H32.2499ZM17.0999 23.5667V15.9L24.4832 19.75L17.0999 23.5667Z" fill="#F7F7F7"/>
</g>
<defs>
<clipPath id="clip0">
<rect width="40" height="40" fill="white"/>
</clipPath>
</defs>
</svg>
