<svg width="136" height="136" viewBox="0 0 136 136" fill="none" xmlns="http://www.w3.org/2000/svg">
<g clip-path="url(#clip0)">
<path d="M75.1001 135.504C109.066 135.504 136.6 107.97 136.6 74.0042C136.6 40.0386 109.066 12.5042 75.1001 12.5042C41.1346 12.5042 13.6001 40.0386 13.6001 74.0042C13.6001 107.97 41.1346 135.504 75.1001 135.504Z" fill="#FEEFD3"/>
<path d="M95.3359 40.3593C96.6332 37.4104 97.3049 34.2205 97.3079 30.9942C97.3079 30.4968 97.3079 30.0165 97.3079 29.5362C97.3079 29.3133 97.3079 29.0903 97.3079 28.8845C97.3079 28.6786 97.3079 28.4214 97.3079 28.1812C96.7851 23.3584 94.7452 18.8314 91.4871 15.2633C88.229 11.6951 83.9241 9.27354 79.2029 8.35325L78.5909 8.23319L77.5029 8.06166C76.4609 7.91219 75.4103 7.83198 74.3579 7.82153H73.5929C69.8587 7.93405 66.2083 8.96529 62.9591 10.8256C59.71 12.6859 56.9605 15.3189 54.9497 18.4956C52.9389 21.6723 51.7278 25.2966 51.4216 29.0532C51.1154 32.8099 51.7235 36.5851 53.1929 40.0506C50.4268 41.0944 47.7538 42.374 45.2029 43.8755C44.2477 42.7604 43.2076 41.7223 42.0919 40.771C39.5865 38.5214 36.5624 36.9409 33.2958 36.1739C30.0293 35.4069 26.6243 35.4777 23.3919 36.38L21.2669 36.946L22.0319 39.0386C23.7319 43.4638 27.1319 51.2167 28.4239 54.0639C24.8966 57.1295 21.8829 60.7495 19.4989 64.7841C18.9719 65.6588 14.2629 65.6074 9.57089 64.3038L7.29289 63.6692L5.33789 80.5984L5.74589 81.2159C6.23889 81.9706 17.6459 99.0027 34.9179 105.143L36.7029 122.518C36.7537 122.999 36.9706 123.447 37.3156 123.782C37.6607 124.118 38.1118 124.32 38.5899 124.354L49.0789 124.954H49.1809C49.5833 124.958 49.9774 124.839 50.3113 124.612C50.6451 124.386 50.903 124.062 51.0509 123.685L55.1479 113.514C67.3422 117.573 80.5065 117.573 92.7009 113.514L96.5089 125.812L109.361 124.765L114.138 98.3167L115.464 96.8244C120.284 91.1276 122.968 83.9033 123.046 76.4133C123.046 61.062 112.2 47.0315 95.3359 40.3593Z" fill="#FFA500"/>
<path d="M123.046 71.7478C123.046 55.5732 111.639 40.8738 93.857 33.8928C95.2123 31.0073 95.9701 27.8731 96.084 24.6821C96.3184 18.3907 94.0661 12.2632 89.8228 7.64727C85.5794 3.03138 79.6925 0.305262 73.457 0.0686089L71.4 0L71.247 4.2366H73.355C76.6281 4.3535 79.8177 5.30908 82.6237 7.01331C85.4296 8.71755 87.7594 11.1144 89.3936 13.978C91.0278 16.8416 91.9127 20.0779 91.9649 23.3819C92.0171 26.6859 91.2349 29.9489 89.692 32.8637L88.4 34.8019C87.9886 35.397 87.546 35.9696 87.074 36.5171L85.697 38.1123L88.876 40.9081L90.287 39.2958C90.763 38.7469 91.188 38.1637 91.613 37.5805C108.154 43.7725 118.813 57.1169 118.813 71.7478C118.764 78.5247 116.357 85.0688 112.013 90.2379L110.602 91.833L111.061 92.2447L109.973 92.0389L105.179 118.316L98.379 118.882L93.5 103.411L89.488 104.68L90.015 106.395C76.3142 110.986 61.4094 110.258 48.212 104.354L46.291 103.462L44.591 107.321L46.495 108.213L48.195 108.934L44.523 118.024L36.856 117.596L35.156 101.335L35.921 98.7797L33.864 98.2651C18.105 93.4453 6.664 78.2656 4.369 75.0238L5.644 63.8063C9.639 64.6468 16.218 65.3671 18.36 61.8338C20.213 58.7464 24.123 53.4292 27.336 51.3023L29.036 50.136L28.866 49.8787L29.274 49.7072L28.39 47.769C28.39 47.6832 24.514 39.3129 22.202 33.5669C34.374 31.8517 41.021 43.9783 41.327 44.5443L42.33 46.3968L46.036 44.3728L45.033 42.5032C44.778 42.0573 44.506 41.6113 44.234 41.1825C47.0011 39.5917 49.9094 38.2652 52.921 37.2203C53.3805 37.9027 53.8742 38.5611 54.4 39.1928L55.726 40.9081L59.058 38.2323L57.8 36.5171C57.0685 35.6286 56.4091 34.6822 55.828 33.687L55.505 32.7093L54.791 31.6287L54.4 30.7025H54.247L53.975 30.8912L50.575 32.452L50.813 33.0009H50.711L50.949 33.3439C47.7751 34.491 44.7134 35.9322 41.803 37.6491C40.8113 36.4799 39.7252 35.3956 38.556 34.4074C35.9289 32.0394 32.7531 30.3771 29.3216 29.5737C25.89 28.7703 22.3131 28.8518 18.921 29.8106L16.694 30.4109L17.493 32.5892C19.193 37.2203 22.831 45.3162 24.191 48.3007C20.4993 51.5042 17.3423 55.2859 14.841 59.5011C14.297 60.4102 9.384 60.3587 4.471 59.0037L2.091 58.3347L0 76.0701L0.425 76.7219C0.935 77.4938 12.801 95.3149 30.906 101.73L32.776 119.894C32.8242 120.397 33.0498 120.866 33.4117 121.215C33.7736 121.565 34.2478 121.772 34.748 121.798L45.713 122.433H45.9C46.3196 122.436 46.7304 122.312 47.0791 122.076C47.4277 121.84 47.6981 121.505 47.855 121.112L52.139 110.478C58.4534 112.629 65.0753 113.718 71.74 113.702C78.3944 113.728 85.0086 112.662 91.324 110.546L95.302 123.41L108.8 122.278L113.73 94.646L115.124 93.068C120.16 87.1178 122.964 79.5717 123.046 71.7478Z" fill="black"/>
<path d="M57.6003 5.33614L54.6191 8.34399L57.6003 11.3519L60.5815 8.34399L57.6003 5.33614Z" fill="black"/>
<path d="M55.9982 13.8418L57.0692 11.7149L53.2952 9.81104L52.4112 11.5777L51.3232 13.2415L54.8252 15.6085L55.9982 13.8418Z" fill="black"/>
<path d="M54.0769 18.267L54.6889 16.2602L50.6599 15.0081L50.0479 17.032L49.4529 19.1246L53.4989 20.2909L54.0769 18.267Z" fill="black"/>
<path d="M67.5067 4.99121L69.5127 4.49379L68.4927 0.360107L66.4527 0.874674L64.3447 1.475L65.5007 5.57439L67.5067 4.99121Z" fill="black"/>
<path d="M64.8041 5.79747L62.6961 2.14404L59.0581 4.28807L61.1831 7.9415L64.8041 5.79747Z" fill="black"/>
<path d="M53.2951 23.207L53.5841 21.2517L49.4021 20.6514L49.0791 22.9155V25.1967H53.2951V23.207Z" fill="black"/>
<path d="M53.465 26.0886L49.3 26.7576L49.606 28.8501L50.252 31.1657L54.315 29.9993L53.754 28.0611L53.465 26.0886Z" fill="black"/>
<path d="M72.4199 14.7507C72.8689 14.7463 73.3136 14.839 73.7241 15.0224C74.1346 15.2058 74.5015 15.4758 74.7999 15.8142L76.3469 17.2721L79.2369 14.219L77.6899 12.7782C76.6603 11.747 75.3645 11.0279 73.9499 10.7028V6.77496L69.6999 6.75781V11.1488C68.5827 11.6631 67.6078 12.4465 66.8609 13.43C66.1995 14.1618 65.7301 15.049 65.4956 16.0107C65.261 16.9724 65.2687 17.978 65.5179 18.9359C66.0463 20.2792 66.875 21.4812 67.9395 22.4481C69.004 23.4151 70.2756 24.1208 71.6549 24.5104C73.3183 25.0693 74.7174 26.2304 75.5819 27.7693C75.7332 28.1437 75.7995 28.5476 75.7759 28.9512C75.7524 29.3548 75.6396 29.748 75.4459 30.102C75.193 30.631 74.7933 31.0747 74.2954 31.3791C73.7976 31.6836 73.2228 31.8357 72.6409 31.8172C71.7153 31.838 70.8003 31.6148 69.9864 31.1696C69.1725 30.7244 68.4878 30.0726 67.9999 29.2787L66.9799 27.4091L63.2739 29.4331L64.2939 31.3713C64.9059 32.461 65.7258 33.4177 66.7061 34.186C67.6865 34.9544 68.808 35.5193 70.0059 35.848C70.0059 36.7914 70.0059 37.2545 70.0059 37.2545V37.9577C64.1246 38.5066 58.4958 40.6326 53.7029 44.1154L52.0029 45.3675L54.5019 48.7979L56.2019 47.5458C60.9129 44.0781 66.5885 42.1992 72.4199 42.1772C77.5551 42.3566 82.5711 43.7866 87.0399 46.3451L88.7399 47.4943L91.0179 43.9267L89.3179 42.7775C84.7024 40.0752 79.5426 38.4571 74.2219 38.0435V37.1859C74.2219 37.1859 74.2219 36.8085 74.2219 36.0024C75.3287 35.7948 76.3697 35.3219 77.2573 34.6234C78.1449 33.9249 78.853 33.0212 79.3219 31.9887C79.7544 31.0954 79.9932 30.1194 80.0225 29.1256C80.0518 28.1319 79.871 27.1433 79.4919 26.2256C78.8527 24.8971 77.9585 23.7097 76.8613 22.7322C75.7642 21.7548 74.4857 21.0066 73.0999 20.531C72.3801 20.3262 71.7084 19.9778 71.1244 19.5064C70.5404 19.035 70.056 18.4503 69.6999 17.7867C69.6999 17.6152 69.4959 17.0663 70.2779 16.0715C70.7915 15.3636 71.5613 14.8889 72.4199 14.7507Z" fill="black"/>
<path d="M27.2002 62.7772C27.1647 63.3229 27.2406 63.8701 27.4231 64.385C27.6057 64.8999 27.8911 65.3716 28.2616 65.7707C28.6321 66.1699 29.0798 66.4881 29.5771 66.7056C30.0744 66.9231 30.6106 67.0353 31.1526 67.0353C31.6947 67.0353 32.2309 66.9231 32.7282 66.7056C33.2255 66.4881 33.6732 66.1699 34.0437 65.7707C34.4142 65.3716 34.6996 64.8999 34.8822 64.385C35.0647 63.8701 35.1406 63.3229 35.1051 62.7772C35.1406 62.2315 35.0647 61.6843 34.8822 61.1694C34.6996 60.6544 34.4142 60.1828 34.0437 59.7837C33.6732 59.3845 33.2255 59.0663 32.7282 58.8488C32.2309 58.6313 31.6947 58.519 31.1526 58.519C30.6106 58.519 30.0744 58.6313 29.5771 58.8488C29.0798 59.0663 28.6321 59.3845 28.2616 59.7837C27.8911 60.1828 27.6057 60.6544 27.4231 61.1694C27.2406 61.6843 27.1647 62.2315 27.2002 62.7772Z" fill="black"/>
<path d="M82.6883 37.5292L84.3883 36.2599C86.0978 34.7586 87.4815 32.9172 88.4527 30.8512C89.4239 28.7851 89.9617 26.5389 90.0323 24.2534C90.0324 22.8256 89.8611 21.403 89.5223 20.0168L89.0123 17.9585L84.9153 18.9876L85.4253 21.0459C85.6827 22.0895 85.814 23.1607 85.8163 24.2362C85.6693 27.5103 84.2455 30.593 81.8553 32.8123L80.1553 34.0987L82.6883 37.5292Z" fill="black"/>
<path d="M82.2972 15.5912L83.7422 17.1349L86.8192 14.219L85.3742 12.6582L85.0852 12.3494L83.6062 10.7886L80.5972 13.8417L82.0932 15.3682L82.2972 15.5912Z" fill="black"/>
<path d="M103.19 85.2636L106.437 87.9737L107.78 86.2585C111.598 81.7 113.704 75.9317 113.73 69.9638C113.666 63.4195 111.145 57.1432 106.675 52.4L105.23 50.8391L102.136 53.7378L103.581 55.2987C107.217 59.036 109.331 64.0142 109.504 69.2484C109.677 74.4827 107.897 79.5919 104.516 83.5656L103.19 85.2636Z" fill="black"/>
<path d="M98.5305 45.0926L96.0447 48.5283L99.6421 51.178L102.128 47.7423L98.5305 45.0926Z" fill="black"/>
<path d="M78.8968 55.6934C77.5592 56.2598 76.3152 57.0291 75.2078 57.9746C74.0949 57.0324 72.8523 56.2582 71.5188 55.6762C70.0788 55.1224 68.5287 54.9225 66.9968 55.093C63.9857 55.4842 61.2277 56.9951 59.2625 59.33C57.2973 61.6649 56.2665 64.6557 56.3718 67.7171C56.8988 77.3223 67.5578 84.0631 73.9158 88.0939C74.2541 88.3021 74.6416 88.4146 75.0378 88.4198C75.2069 88.4457 75.3788 88.4457 75.5478 88.4198C75.7117 88.4377 75.877 88.4377 76.0408 88.4198C76.437 88.4146 76.8246 88.3021 77.1628 88.0939C85.2378 82.9482 93.5678 76.5848 94.0438 67.7171C94.1409 64.6551 93.105 61.6663 91.1378 59.3326C89.1705 56.999 86.4129 55.4877 83.4018 55.093C81.8744 54.9384 80.3322 55.1439 78.8968 55.6934ZM89.8448 67.4769C89.4708 74.2006 82.5008 79.6379 75.5308 84.0975C69.8188 80.4783 60.9618 74.6294 60.5708 67.4769C60.5175 65.514 61.1806 63.5997 62.4342 62.0977C63.6879 60.5957 65.4446 59.6106 67.3708 59.3296C68.2405 59.2258 69.1221 59.3135 69.9548 59.5869C71.026 60.0369 72.0057 60.6823 72.8448 61.4908C72.3354 62.3324 72.148 63.3327 72.3178 64.3038C72.4161 64.7895 72.6781 65.2259 73.0594 65.5386C73.4406 65.8513 73.9175 66.0211 74.4088 66.019C74.5329 66.0362 74.6588 66.0362 74.7828 66.019C75.2961 65.9191 75.7543 65.6303 76.0684 65.2088C76.3825 64.7873 76.5302 64.263 76.4828 63.7377C76.8386 63.4391 77.0842 63.0282 77.1798 62.5714C77.3125 62.3105 77.3878 62.0239 77.4008 61.7309C78.2779 60.7686 79.3587 60.0182 80.5628 59.5354C81.3896 59.2613 82.2658 59.1735 83.1298 59.2782C85.0495 59.5791 86.7931 60.5798 88.0307 62.0908C89.2682 63.6017 89.9136 65.5181 89.8448 67.4769Z" fill="black"/>
</g>
<defs>
<clipPath id="clip0">
<rect width="136" height="136" fill="white"/>
</clipPath>
</defs>
</svg>
