<svg width="136" height="136" viewBox="0 0 136 136" fill="none" xmlns="http://www.w3.org/2000/svg">
<path d="M74.0298 134.57C107.719 134.57 135.03 107.259 135.03 73.5701C135.03 39.8807 107.719 12.5701 74.0298 12.5701C40.3404 12.5701 13.0298 39.8807 13.0298 73.5701C13.0298 107.259 40.3404 134.57 74.0298 134.57Z" fill="#E1FFE1"/>
<path d="M72.4198 46.46C84.3381 46.46 93.9998 36.7984 93.9998 24.88C93.9998 12.9617 84.3381 3.30005 72.4198 3.30005C60.5015 3.30005 50.8398 12.9617 50.8398 24.88C50.8398 36.7984 60.5015 46.46 72.4198 46.46Z" fill="#00B500"/>
<path d="M125.84 68C125.14 66.37 123.1 63.64 117.16 63.76C115.258 63.9297 113.4 64.4306 111.67 65.24C109.836 62.901 107.199 61.326 104.27 60.82C100.42 60.29 97.4699 62.22 92.9999 65.13C92.0999 65.72 91.0699 66.38 89.9999 67.08L88.1399 68.26L85.3899 69.86C85.0299 69.68 84.6699 69.5 84.2799 69.35C81.7099 68.35 41.9899 61.3 32.9399 63.35C27.2999 64.71 11.2299 72 9.41992 72.86L6.91992 74L10.9199 103.46L13.9999 102.19C16.4004 101.067 18.9392 100.266 21.5499 99.81C24.7699 99.35 46.7999 106.75 56.2099 109.91C61.2099 111.57 63.7799 112.45 64.7899 112.7C66.7501 113.209 68.7649 113.477 70.7899 113.5C71.7614 113.519 72.7315 113.421 73.6799 113.21H73.7899C80.5799 111.11 87.2899 105.27 96.5699 97.21C100.85 93.5 105.69 89.28 111.38 84.69C114.23 82.39 116.75 80.38 118.82 78.69C122.82 75.48 124.63 74.04 125.22 73.46C126.39 72.27 126.66 69.93 125.84 68ZM78.9299 86C78.0999 86.67 77.3099 87.38 76.5099 88.09C75.5799 87.49 74.4499 86.82 73.2299 86.09C75.2899 86.16 77.2199 86.11 78.9299 86ZM10.1699 77L10.3199 78.65L10.0699 77H10.1699Z" fill="#00B500"/>
<path d="M68.4502 47.4401C71.9347 47.4455 75.3765 46.6736 78.5249 45.1807C81.6734 43.6878 84.4492 41.5114 86.6502 38.8101L88.0902 37.0601L84.5802 34.1901L83.1502 35.9401C80.0596 39.7206 75.6276 42.1605 70.7802 42.7501V41.3601C70.7802 41.3601 70.7802 41.0301 70.7802 39.8101C72.2001 39.5882 73.544 39.0219 74.6945 38.1608C75.845 37.2996 76.7671 36.1698 77.3802 34.8701C77.8837 33.8608 78.1762 32.7594 78.2398 31.6332C78.3035 30.507 78.1369 29.3797 77.7502 28.3201C76.3002 24.4201 72.1802 22.1001 69.8502 21.0601C67.1802 19.9001 65.2802 18.2801 65.0002 17.0001C64.9202 16.7401 64.7402 16.0001 65.7502 14.7001C66.1802 14.1515 66.7215 13.7002 67.3386 13.3762C67.9557 13.0521 68.6345 12.8626 69.3302 12.8201C69.9942 12.8508 70.6421 13.0347 71.2233 13.3574C71.8044 13.68 72.3031 14.1327 72.6802 14.6801C73.0661 15.1256 73.6107 15.4027 74.198 15.4524C74.7853 15.502 75.3687 15.3203 75.8239 14.946C76.2792 14.5716 76.5701 14.0343 76.6348 13.4485C76.6995 12.8627 76.5328 12.2748 76.1702 11.8101C74.8 9.99867 72.7897 8.7789 70.5502 8.4001C70.4502 7.0601 70.4202 6.4901 70.3302 6.4901V5.0001C72.8852 5.24475 75.3628 6.01051 77.6102 7.2501L79.6102 8.3501L81.7902 4.3501L79.7902 3.2601C76.6442 1.53482 73.1455 0.551531 69.5613 0.385366C65.9771 0.219202 62.4024 0.87456 59.1103 2.30136C55.8182 3.72817 52.8958 5.88866 50.5664 8.61774C48.237 11.3468 46.5623 14.5723 45.6703 18.0476C44.7782 21.523 44.6924 25.1563 45.4195 28.6699C46.1465 32.1835 47.6671 35.4844 49.865 38.3204C52.063 41.1564 54.8802 43.4524 58.1013 45.033C61.3224 46.6136 64.8622 47.4369 68.4502 47.4401ZM51.7702 14.7701C53.1916 12.181 55.197 9.95895 57.6273 8.28036C60.0575 6.60176 62.8456 5.51286 65.7702 5.1001V6.5101C65.9351 7.34713 65.9554 8.20622 65.8302 9.0501C64.4041 9.66814 63.1534 10.6302 62.1902 11.8501C61.4503 12.6727 60.9159 13.6589 60.6308 14.7279C60.3457 15.797 60.3181 16.9183 60.5502 18.0001C61.4702 21.7901 65.5502 24.1201 67.9202 25.1701C70.7402 26.4301 72.8002 28.1701 73.4302 29.8801C73.6125 30.3881 73.6845 30.9291 73.6414 31.467C73.5983 32.005 73.4411 32.5276 73.1802 33.0001C72.7881 33.8091 72.159 34.4796 71.3767 34.9226C70.5943 35.3656 69.6957 35.56 68.8002 35.4801C67.4834 35.4429 66.203 35.0396 65.1026 34.3155C64.0022 33.5913 63.1253 32.5748 62.5702 31.3801C62.4778 31.0854 62.3259 30.8128 62.124 30.5791C61.9221 30.3454 61.6745 30.1556 61.3963 30.0213C61.1182 29.887 60.8155 29.8112 60.5069 29.7985C60.1984 29.7858 59.8905 29.8364 59.6022 29.9473C59.314 30.0582 59.0515 30.227 58.8311 30.4433C58.6106 30.6596 58.4368 30.9188 58.3205 31.2049C58.2041 31.491 58.1476 31.7979 58.1544 32.1066C58.1612 32.4154 58.2313 32.7195 58.3602 33.0001C59.061 34.6256 60.1307 36.0656 61.4846 37.2059C62.8385 38.3463 64.4393 39.1557 66.1602 39.5701C66.1602 41.0801 66.1602 41.4601 66.1602 41.5101V42.7601C63.0701 42.3977 60.1162 41.282 57.5581 39.5109C55 37.7399 52.9159 35.3677 51.489 32.6029C50.0622 29.838 49.3361 26.765 49.3747 23.6539C49.4133 20.5428 50.2153 17.4888 51.7102 14.7601L51.7702 14.7701Z" fill="black"/>
<path d="M127.59 61.6101C126.88 59.9401 124.78 57.1301 118.67 57.2501C116.706 57.4273 114.787 57.945 113 58.7801C111.111 56.3723 108.396 54.7511 105.38 54.2301C101.38 53.6901 98.3802 55.6701 93.7902 58.6701L90.6802 60.6701L88.8002 61.8801L91.2102 65.7101L93.1302 64.5001C94.2902 63.7701 95.3602 63.0701 96.2902 62.5001C100.72 59.6201 102.6 58.5001 104.79 58.7601C106.292 59.0161 107.672 59.7448 108.73 60.8401C102.58 64.16 96.6265 67.8328 90.9002 71.8401C90.9002 71.4701 90.9702 71.1101 90.9702 70.7201C90.9702 67.4101 88.7302 64.6101 84.8302 63.0501C82.1902 61.9901 41.3302 54.7701 32.0302 56.9301C26.2602 58.2901 9.74018 65.8201 7.87018 66.6701C7.35746 66.9411 6.96794 67.3982 6.78156 67.9474C6.59517 68.4965 6.62606 69.0963 6.86787 69.6234C7.10969 70.1505 7.5441 70.5651 8.08195 70.7821C8.61979 70.999 9.22028 71.0019 9.76018 70.7901C18.3502 66.8701 29.3002 62.2401 33.0702 61.3501C40.8902 59.5201 80.2302 66.2901 83.1802 67.2601C84.1802 67.6701 86.4502 68.8001 86.4502 70.7201C86.4502 72.9901 85.4502 74.7201 83.8902 75.2201C81.1602 76.2201 62.3102 75.8501 49.8002 75.3201C49.4939 75.2913 49.1851 75.325 48.8923 75.4193C48.5995 75.5135 48.3289 75.6662 48.0969 75.8682C47.865 76.0702 47.6765 76.3173 47.5429 76.5943C47.4094 76.8714 47.3335 77.1727 47.3199 77.48C47.3064 77.7873 47.3554 78.0941 47.464 78.3819C47.5726 78.6696 47.7386 78.9323 47.9519 79.154C48.1651 79.3756 48.4212 79.5516 48.7045 79.6713C48.9879 79.7909 49.2926 79.8518 49.6002 79.8501C51.6902 79.9401 57.1702 80.1601 63.2602 80.2801C67.4264 82.0899 71.4394 84.2335 75.2602 86.6901C75.2602 86.6901 75.2602 86.8001 75.3602 86.8401C75.5701 87.0505 75.8195 87.2175 76.094 87.3314C76.3686 87.4453 76.6629 87.504 76.9602 87.504C77.2574 87.504 77.5518 87.4453 77.8263 87.3314C78.1009 87.2175 78.3502 87.0505 78.5602 86.8401C80.6561 84.8787 82.8738 83.0518 85.2002 81.3701C98.3402 71.7101 114.08 61.8701 118.75 61.7601C121 61.7601 122.65 62.2001 123.26 63.0701C123.49 63.399 123.59 63.8017 123.54 64.2001C122.74 64.9001 120.31 66.8401 117.54 69.0501C115.41 70.7601 112.81 72.8301 109.87 75.2001C104 80.0001 99.0002 84.3501 94.5302 88.1901C85.4402 96.1001 78.8502 101.82 72.8102 103.73C70.49 104.016 68.136 103.829 65.8902 103.18C64.9602 102.95 61.4802 101.77 57.4102 100.41C36.3102 93.3401 23.3502 89.3401 19.7002 89.8401C16.5873 90.3567 13.5594 91.2953 10.7002 92.6301C10.427 92.7496 10.1801 92.9217 9.97347 93.1367C9.76684 93.3516 9.60457 93.6051 9.49593 93.8828C9.38728 94.1604 9.33439 94.4567 9.34027 94.7548C9.34614 95.0529 9.41068 95.3469 9.53018 95.6201C9.64968 95.8932 9.82182 96.1402 10.0368 96.3468C10.2517 96.5534 10.5052 96.7157 10.7829 96.8243C11.0605 96.933 11.3568 96.9859 11.6549 96.98C11.953 96.9741 12.247 96.9096 12.5202 96.7901C14.9877 95.6353 17.5969 94.8115 20.2802 94.3401C23.5902 93.8701 46.2802 101.48 55.9302 104.73C61.0202 106.43 63.7202 107.34 64.7502 107.6C66.7763 108.122 68.858 108.397 70.9502 108.42C71.9586 108.442 72.966 108.341 73.9502 108.12H74.0602C81.0602 105.96 87.9402 99.9601 97.4902 91.6501C101.89 87.8401 106.87 83.5001 112.72 78.7801L120.37 72.6401C124.5 69.3401 126.37 67.8601 126.95 67.2601C128.16 66.0001 128.44 63.6101 127.59 61.6101ZM76.8702 82.3101C75.8702 81.7001 74.7402 81.0101 73.4902 80.3101C75.6202 80.3101 77.6002 80.2401 79.3602 80.1601C78.5102 80.8601 77.6902 81.5801 76.8702 82.3101Z" fill="black"/>
<path d="M5.00012 95.9C3.00012 97.29 3.87012 98.9 4.07012 99.22C4.28303 99.5249 4.56553 99.7746 4.89421 99.9485C5.2229 100.122 5.58829 100.216 5.96012 100.22C6.46086 100.201 6.94756 100.049 7.37012 99.78C7.67356 99.5984 7.93039 99.3485 8.12012 99.05C8.40062 98.6156 8.52435 98.0983 8.47083 97.5839C8.41731 97.0695 8.18975 96.5888 7.82581 96.2214C7.46187 95.854 6.98338 95.6218 6.46952 95.5634C5.95567 95.5049 5.43727 95.6237 5.00012 95.9Z" fill="black"/>
<path d="M5.19993 71.0901C5.16884 70.8672 5.10127 70.651 4.99993 70.4501C4.744 69.9101 4.28549 69.4929 3.72386 69.2888C3.16223 69.0847 2.54279 69.1104 1.99993 69.3601C1.70657 69.4599 1.43606 69.6173 1.20424 69.8229C0.972426 70.0285 0.783955 70.2783 0.649862 70.5577C0.515768 70.837 0.438746 71.1403 0.423305 71.4498C0.407863 71.7593 0.454312 72.0688 0.559932 72.3601C0.723657 72.8036 1.01952 73.1862 1.40757 73.4562C1.79562 73.7263 2.25718 73.8707 2.72993 73.8701C3.0142 73.8701 3.29703 73.8297 3.56993 73.7501C4.13142 73.6012 4.614 73.2418 4.91751 72.7465C5.22102 72.2512 5.32216 71.658 5.19993 71.0901Z" fill="black"/>
<path d="M89.3699 31.9999C89.3699 31.9999 95.7999 16.8499 83.1699 7.43994" stroke="black" stroke-width="2.25" stroke-miterlimit="10" stroke-dasharray="4 3"/>
</svg>
