<svg width="191" height="31" viewBox="0 0 191 31" fill="none" xmlns="http://www.w3.org/2000/svg">
<path d="M17.154 12.352C18.434 12.7573 19.4367 13.44 20.162 14.4C20.8873 15.3387 21.25 16.5013 21.25 17.888C21.25 19.8507 20.482 21.3653 18.946 22.432C17.4313 23.4773 15.2127 24 12.29 24H0.706003V1.6H11.65C14.3807 1.6 16.4713 2.12267 17.922 3.168C19.394 4.21333 20.13 5.632 20.13 7.424C20.13 8.512 19.8633 9.48267 19.33 10.336C18.818 11.1893 18.0927 11.8613 17.154 12.352ZM5.858 5.504V10.784H11.01C12.29 10.784 13.2607 10.56 13.922 10.112C14.5833 9.664 14.914 9.00267 14.914 8.128C14.914 7.25333 14.5833 6.60267 13.922 6.176C13.2607 5.728 12.29 5.504 11.01 5.504H5.858ZM11.906 20.096C13.2713 20.096 14.2953 19.872 14.978 19.424C15.682 18.976 16.034 18.2827 16.034 17.344C16.034 15.488 14.658 14.56 11.906 14.56H5.858V20.096H11.906ZM26.4228 0.255999H31.4148V24H26.4228V0.255999ZM45.8398 24.256C44.0264 24.256 42.3944 23.8827 40.9438 23.136C39.5144 22.368 38.3944 21.312 37.5838 19.968C36.7731 18.624 36.3678 17.0987 36.3678 15.392C36.3678 13.6853 36.7731 12.16 37.5838 10.816C38.3944 9.472 39.5144 8.42667 40.9438 7.68C42.3944 6.912 44.0264 6.528 45.8398 6.528C47.6531 6.528 49.2744 6.912 50.7038 7.68C52.1331 8.42667 53.2531 9.472 54.0638 10.816C54.8744 12.16 55.2798 13.6853 55.2798 15.392C55.2798 17.0987 54.8744 18.624 54.0638 19.968C53.2531 21.312 52.1331 22.368 50.7038 23.136C49.2744 23.8827 47.6531 24.256 45.8398 24.256ZM45.8398 20.16C47.1198 20.16 48.1651 19.7333 48.9758 18.88C49.8078 18.0053 50.2238 16.8427 50.2238 15.392C50.2238 13.9413 49.8078 12.7893 48.9758 11.936C48.1651 11.0613 47.1198 10.624 45.8398 10.624C44.5598 10.624 43.5038 11.0613 42.6718 11.936C41.8398 12.7893 41.4238 13.9413 41.4238 15.392C41.4238 16.8427 41.8398 18.0053 42.6718 18.88C43.5038 19.7333 44.5598 20.16 45.8398 20.16ZM77.9765 6.784V21.12C77.9765 24.2773 77.1552 26.624 75.5125 28.16C73.8698 29.696 71.4698 30.464 68.3125 30.464C66.6485 30.464 65.0698 30.2613 63.5765 29.856C62.0832 29.4507 60.8458 28.864 59.8645 28.096L61.8485 24.512C62.5738 25.1093 63.4912 25.5787 64.6005 25.92C65.7098 26.2827 66.8192 26.464 67.9285 26.464C69.6565 26.464 70.9258 26.0693 71.7365 25.28C72.5685 24.512 72.9845 23.3387 72.9845 21.76V21.024C71.6832 22.4533 69.8698 23.168 67.5445 23.168C65.9658 23.168 64.5152 22.8267 63.1925 22.144C61.8912 21.44 60.8565 20.4587 60.0885 19.2C59.3205 17.9413 58.9365 16.4907 58.9365 14.848C58.9365 13.2053 59.3205 11.7547 60.0885 10.496C60.8565 9.23733 61.8912 8.26667 63.1925 7.584C64.5152 6.88 65.9658 6.528 67.5445 6.528C70.0405 6.528 71.9392 7.34933 73.2405 8.992V6.784H77.9765ZM68.5365 19.072C69.8592 19.072 70.9365 18.688 71.7685 17.92C72.6218 17.1307 73.0485 16.1067 73.0485 14.848C73.0485 13.5893 72.6218 12.576 71.7685 11.808C70.9365 11.0187 69.8592 10.624 68.5365 10.624C67.2138 10.624 66.1258 11.0187 65.2725 11.808C64.4192 12.576 63.9925 13.5893 63.9925 14.848C63.9925 16.1067 64.4192 17.1307 65.2725 17.92C66.1258 18.688 67.2138 19.072 68.5365 19.072ZM104.933 1.6C106.917 1.6 108.635 1.93067 110.085 2.592C111.557 3.25333 112.688 4.192 113.477 5.408C114.267 6.624 114.661 8.064 114.661 9.728C114.661 11.3707 114.267 12.8107 113.477 14.048C112.688 15.264 111.557 16.2027 110.085 16.864C108.635 17.504 106.917 17.824 104.933 17.824H100.421V24H95.2373V1.6H104.933ZM104.645 13.6C106.203 13.6 107.387 13.2693 108.197 12.608C109.008 11.9253 109.413 10.9653 109.413 9.728C109.413 8.46933 109.008 7.50933 108.197 6.848C107.387 6.16533 106.203 5.824 104.645 5.824H100.421V13.6H104.645ZM127.771 24.256C125.958 24.256 124.326 23.8827 122.875 23.136C121.446 22.368 120.326 21.312 119.515 19.968C118.704 18.624 118.299 17.0987 118.299 15.392C118.299 13.6853 118.704 12.16 119.515 10.816C120.326 9.472 121.446 8.42667 122.875 7.68C124.326 6.912 125.958 6.528 127.771 6.528C129.584 6.528 131.206 6.912 132.635 7.68C134.064 8.42667 135.184 9.472 135.995 10.816C136.806 12.16 137.211 13.6853 137.211 15.392C137.211 17.0987 136.806 18.624 135.995 19.968C135.184 21.312 134.064 22.368 132.635 23.136C131.206 23.8827 129.584 24.256 127.771 24.256ZM127.771 20.16C129.051 20.16 130.096 19.7333 130.907 18.88C131.739 18.0053 132.155 16.8427 132.155 15.392C132.155 13.9413 131.739 12.7893 130.907 11.936C130.096 11.0613 129.051 10.624 127.771 10.624C126.491 10.624 125.435 11.0613 124.603 11.936C123.771 12.7893 123.355 13.9413 123.355 15.392C123.355 16.8427 123.771 18.0053 124.603 18.88C125.435 19.7333 126.491 20.16 127.771 20.16ZM147.94 24.256C146.51 24.256 145.113 24.0853 143.748 23.744C142.382 23.3813 141.294 22.9333 140.484 22.4L142.148 18.816C142.916 19.3067 143.844 19.712 144.932 20.032C146.02 20.3307 147.086 20.48 148.132 20.48C150.244 20.48 151.3 19.9573 151.3 18.912C151.3 18.4213 151.012 18.0693 150.436 17.856C149.86 17.6427 148.974 17.4613 147.78 17.312C146.372 17.0987 145.209 16.8533 144.292 16.576C143.374 16.2987 142.574 15.808 141.892 15.104C141.23 14.4 140.9 13.3973 140.9 12.096C140.9 11.008 141.209 10.048 141.828 9.216C142.468 8.36267 143.385 7.70133 144.58 7.232C145.796 6.76267 147.225 6.528 148.868 6.528C150.084 6.528 151.289 6.66667 152.484 6.944C153.7 7.2 154.702 7.56267 155.492 8.032L153.828 11.584C152.313 10.7307 150.66 10.304 148.868 10.304C147.801 10.304 147.001 10.4533 146.468 10.752C145.934 11.0507 145.668 11.4347 145.668 11.904C145.668 12.4373 145.956 12.8107 146.532 13.024C147.108 13.2373 148.025 13.44 149.284 13.632C150.692 13.8667 151.844 14.1227 152.74 14.4C153.636 14.656 154.414 15.136 155.076 15.84C155.737 16.544 156.068 17.5253 156.068 18.784C156.068 19.8507 155.748 20.8 155.108 21.632C154.468 22.464 153.529 23.1147 152.292 23.584C151.076 24.032 149.625 24.256 147.94 24.256ZM171.852 23.168C171.361 23.5307 170.753 23.808 170.028 24C169.324 24.1707 168.577 24.256 167.788 24.256C165.74 24.256 164.15 23.7333 163.02 22.688C161.91 21.6427 161.356 20.1067 161.356 18.08V11.008H158.7V7.168H161.356V2.976H166.348V7.168H170.636V11.008H166.348V18.016C166.348 18.7413 166.529 19.3067 166.892 19.712C167.276 20.096 167.809 20.288 168.492 20.288C169.281 20.288 169.953 20.0747 170.508 19.648L171.852 23.168ZM182.046 24.256C180.617 24.256 179.219 24.0853 177.854 23.744C176.489 23.3813 175.401 22.9333 174.59 22.4L176.254 18.816C177.022 19.3067 177.95 19.712 179.038 20.032C180.126 20.3307 181.193 20.48 182.238 20.48C184.35 20.48 185.406 19.9573 185.406 18.912C185.406 18.4213 185.118 18.0693 184.542 17.856C183.966 17.6427 183.081 17.4613 181.886 17.312C180.478 17.0987 179.315 16.8533 178.398 16.576C177.481 16.2987 176.681 15.808 175.998 15.104C175.337 14.4 175.006 13.3973 175.006 12.096C175.006 11.008 175.315 10.048 175.934 9.216C176.574 8.36267 177.491 7.70133 178.686 7.232C179.902 6.76267 181.331 6.528 182.974 6.528C184.19 6.528 185.395 6.66667 186.59 6.944C187.806 7.2 188.809 7.56267 189.598 8.032L187.934 11.584C186.419 10.7307 184.766 10.304 182.974 10.304C181.907 10.304 181.107 10.4533 180.574 10.752C180.041 11.0507 179.774 11.4347 179.774 11.904C179.774 12.4373 180.062 12.8107 180.638 13.024C181.214 13.2373 182.131 13.44 183.39 13.632C184.798 13.8667 185.95 14.1227 186.846 14.4C187.742 14.656 188.521 15.136 189.182 15.84C189.843 16.544 190.174 17.5253 190.174 18.784C190.174 19.8507 189.854 20.8 189.214 21.632C188.574 22.464 187.635 23.1147 186.398 23.584C185.182 24.032 183.731 24.256 182.046 24.256Z" fill="#3A3748"/>
</svg>
