<svg width="126" height="131" viewBox="0 0 126 131" fill="none" xmlns="http://www.w3.org/2000/svg">
<mask id="mask0" mask-type="alpha" maskUnits="userSpaceOnUse" x="0" y="0" width="126" height="131">
<ellipse cx="62.9679" cy="65.3532" rx="62.9679" ry="65.3532" fill="#C4C4C4"/>
</mask>
<g mask="url(#mask0)">
<g style="mix-blend-mode:multiply">
<g style="mix-blend-mode:multiply">
<g style="mix-blend-mode:multiply">
<g style="mix-blend-mode:multiply">
<path d="M7.73283 4.12317C7.73283 4.89694 7.51177 5.65333 7.0976 6.29669C6.68343 6.94005 6.09473 7.44149 5.40599 7.73759C4.71725 8.0337 3.95941 8.11118 3.22825 7.96023C2.49709 7.80927 1.82545 7.43668 1.29831 6.88955C0.771174 6.34241 0.412205 5.64531 0.266768 4.88641C0.121332 4.12752 0.195952 3.3409 0.481236 2.62603C0.766521 1.91116 1.24963 1.30015 1.86947 0.870271C2.48932 0.440389 3.21809 0.210938 3.96357 0.210938C4.96324 0.210938 5.92197 0.623107 6.62883 1.35679C7.3357 2.09048 7.73283 3.08558 7.73283 4.12317Z" fill="#5642CF"/>
</g>
</g>
<g style="mix-blend-mode:multiply">
<g style="mix-blend-mode:multiply">
<path d="M21.1279 4.12317C21.1279 4.89694 20.9068 5.65333 20.4926 6.29669C20.0784 6.94005 19.4898 7.44149 18.801 7.73759C18.1123 8.0337 17.3544 8.11118 16.6232 7.96023C15.8921 7.80927 15.2205 7.43668 14.6933 6.88955C14.1662 6.34241 13.8072 5.64531 13.6618 4.88641C13.5164 4.12752 13.591 3.3409 13.8763 2.62603C14.1615 1.91116 14.6447 1.30015 15.2645 0.870271C15.8844 0.440389 16.6131 0.210938 17.3586 0.210938C18.3583 0.210938 19.317 0.623107 20.0238 1.35679C20.7307 2.09048 21.1279 3.08558 21.1279 4.12317Z" fill="#5642CF"/>
</g>
</g>
<g style="mix-blend-mode:multiply">
<g style="mix-blend-mode:multiply">
<path d="M34.5224 4.12317C34.5224 4.89694 34.3013 5.65333 33.8871 6.29669C33.473 6.94005 32.8843 7.44149 32.1955 7.73759C31.5068 8.0337 30.749 8.11118 30.0178 7.96023C29.2866 7.80927 28.615 7.43668 28.0879 6.88955C27.5608 6.34241 27.2017 5.64531 27.0563 4.88641C26.9109 4.12752 26.9855 3.3409 27.2708 2.62603C27.5561 1.91116 28.0392 1.30015 28.6591 0.870271C29.2789 0.440389 30.0076 0.210938 30.7531 0.210938C31.7528 0.210938 32.7115 0.623107 33.4184 1.35679C34.1253 2.09048 34.5224 3.08558 34.5224 4.12317Z" fill="#5642CF"/>
</g>
</g>
<g style="mix-blend-mode:multiply">
<g style="mix-blend-mode:multiply">
<path d="M47.9442 4.12318C47.9442 4.89694 47.7232 5.65333 47.309 6.29669C46.8948 6.94006 46.3062 7.44149 45.6175 7.7376C44.9287 8.0337 44.1708 8.11118 43.4397 7.96023C42.7085 7.80927 42.0369 7.43669 41.5098 6.88955C40.9826 6.34242 40.6236 5.64532 40.4782 4.88642C40.3327 4.12752 40.4074 3.3409 40.6927 2.62604C40.978 1.91117 41.4611 1.30016 42.0809 0.870281C42.7008 0.4404 43.4295 0.210948 44.175 0.210948C44.6703 0.209743 45.161 0.310122 45.6188 0.506303C46.0766 0.702484 46.4926 0.9906 46.8428 1.35412C47.1931 1.71765 47.4707 2.14942 47.6597 2.62461C47.8487 3.09981 47.9454 3.60908 47.9442 4.12318Z" fill="#5642CF"/>
</g>
</g>
<g style="mix-blend-mode:multiply">
<g style="mix-blend-mode:multiply">
<path d="M61.3217 4.12317C61.3217 4.89694 61.1007 5.65333 60.6865 6.29669C60.2723 6.94005 59.6837 7.44149 58.9949 7.73759C58.3062 8.0337 57.5483 8.11118 56.8171 7.96023C56.086 7.80927 55.4144 7.43668 54.8872 6.88955C54.3601 6.34241 54.0011 5.64531 53.8556 4.88641C53.7102 4.12752 53.7849 3.3409 54.0701 2.62603C54.3554 1.91116 54.8385 1.30015 55.4584 0.870271C56.0782 0.440389 56.807 0.210938 57.5524 0.210938C58.5521 0.210938 59.5108 0.623107 60.2177 1.35679C60.9246 2.09048 61.3217 3.08558 61.3217 4.12317Z" fill="#5642CF"/>
</g>
</g>
<g style="mix-blend-mode:multiply">
<g style="mix-blend-mode:multiply">
<path d="M74.7168 4.12317C74.7168 4.89694 74.4958 5.65333 74.0816 6.29669C73.6674 6.94005 73.0787 7.44149 72.39 7.73759C71.7012 8.0337 70.9434 8.11118 70.2122 7.96023C69.481 7.80927 68.8094 7.43668 68.2822 6.88955C67.7551 6.34241 67.3961 5.64531 67.2507 4.88641C67.1052 4.12752 67.1798 3.3409 67.4651 2.62603C67.7504 1.91116 68.2336 1.30015 68.8534 0.870271C69.4733 0.440389 70.202 0.210938 70.9475 0.210938C71.9472 0.210938 72.9059 0.623107 73.6128 1.35679C74.3197 2.09048 74.7168 3.08558 74.7168 4.12317Z" fill="#5642CF"/>
</g>
</g>
<g style="mix-blend-mode:multiply">
<g style="mix-blend-mode:multiply">
<path d="M88.1122 4.12318C88.1122 4.89694 87.8912 5.65333 87.477 6.29669C87.0628 6.94006 86.4742 7.44149 85.7854 7.7376C85.0967 8.0337 84.3388 8.11118 83.6076 7.96023C82.8764 7.80927 82.2049 7.43669 81.6777 6.88955C81.1506 6.34242 80.7916 5.64532 80.6462 4.88642C80.5007 4.12752 80.5753 3.3409 80.8606 2.62604C81.1459 1.91117 81.629 1.30016 82.2489 0.870281C82.8687 0.4404 83.5975 0.210948 84.343 0.210948C84.8383 0.209743 85.3289 0.310122 85.7868 0.506303C86.2446 0.702484 86.6606 0.9906 87.0108 1.35412C87.3611 1.71765 87.6386 2.14942 87.8277 2.62461C88.0167 3.09981 88.1134 3.60908 88.1122 4.12318Z" fill="#5642CF"/>
</g>
</g>
<g style="mix-blend-mode:multiply">
<g style="mix-blend-mode:multiply">
<path d="M101.506 4.12318C101.506 4.89733 101.285 5.65408 100.87 6.29764C100.456 6.9412 99.8666 7.44262 99.1774 7.73846C98.4881 8.0343 97.7299 8.11126 96.9985 7.95956C96.2671 7.80786 95.5955 7.43434 95.0687 6.88629C94.5419 6.33824 94.1836 5.64029 94.0391 4.88079C93.8947 4.12129 93.9706 3.33438 94.2572 2.61968C94.5439 1.90497 95.0283 1.2946 95.6494 0.865818C96.2704 0.437037 97 0.209139 97.7458 0.210948C98.2404 0.210947 98.7301 0.312206 99.1869 0.508926C99.6438 0.705646 100.059 0.993956 100.408 1.35736C100.757 1.72076 101.034 2.15213 101.223 2.62674C101.411 3.10134 101.507 3.60985 101.506 4.12318Z" fill="#5642CF"/>
</g>
</g>
<g style="mix-blend-mode:multiply">
<g style="mix-blend-mode:multiply">
<path d="M114.875 4.12317C114.875 4.89694 114.654 5.65333 114.24 6.29669C113.826 6.94005 113.237 7.44149 112.548 7.73759C111.859 8.0337 111.102 8.11118 110.37 7.96023C109.639 7.80927 108.968 7.43668 108.44 6.88955C107.913 6.34241 107.554 5.64531 107.409 4.88641C107.263 4.12752 107.338 3.3409 107.623 2.62603C107.909 1.91116 108.392 1.30015 109.012 0.870271C109.631 0.440389 110.36 0.210938 111.106 0.210938C112.105 0.210938 113.064 0.623107 113.771 1.35679C114.478 2.09048 114.875 3.08558 114.875 4.12317Z" fill="#5642CF"/>
</g>
</g>
<g style="mix-blend-mode:multiply">
<g style="mix-blend-mode:multiply">
<path d="M128.306 4.12317C128.306 4.89694 128.085 5.65333 127.67 6.29669C127.256 6.94005 126.668 7.44149 125.979 7.73759C125.29 8.0337 124.532 8.11118 123.801 7.96023C123.07 7.80927 122.398 7.43668 121.871 6.88955C121.344 6.34241 120.985 5.64531 120.84 4.88641C120.694 4.12752 120.769 3.3409 121.054 2.62603C121.339 1.91116 121.822 1.30015 122.442 0.870271C123.062 0.440389 123.791 0.210938 124.536 0.210938C125.536 0.210938 126.495 0.623107 127.202 1.35679C127.908 2.09048 128.306 3.08558 128.306 4.12317Z" fill="#5642CF"/>
</g>
</g>
<g style="mix-blend-mode:multiply">
<g style="mix-blend-mode:multiply">
<path d="M7.73283 20.7675C7.73283 21.5412 7.51177 22.2976 7.0976 22.9409C6.68343 23.5842 6.09473 24.0857 5.40599 24.3818C4.71725 24.6779 3.95941 24.7553 3.22825 24.6044C2.49709 24.4534 1.82545 24.0809 1.29831 23.5337C0.771174 22.9866 0.412205 22.2896 0.266768 21.5307C0.121332 20.7718 0.195952 19.9853 0.481236 19.2704C0.766521 18.5556 1.24963 17.9446 1.86947 17.5148C2.48932 17.0849 3.21809 16.8555 3.96357 16.8555C4.96324 16.8555 5.92197 17.2676 6.62883 18.0013C7.3357 18.7349 7.73283 19.73 7.73283 20.7675Z" fill="#5642CF"/>
</g>
</g>
<g style="mix-blend-mode:multiply">
<g style="mix-blend-mode:multiply">
<path d="M21.1279 20.7675C21.1279 21.5412 20.9068 22.2976 20.4926 22.9409C20.0784 23.5842 19.4898 24.0857 18.801 24.3818C18.1123 24.6779 17.3544 24.7553 16.6232 24.6044C15.8921 24.4534 15.2205 24.0809 14.6933 23.5337C14.1662 22.9866 13.8072 22.2896 13.6618 21.5307C13.5164 20.7718 13.591 19.9853 13.8763 19.2704C14.1615 18.5556 14.6447 17.9446 15.2645 17.5148C15.8844 17.0849 16.6131 16.8555 17.3586 16.8555C18.3583 16.8555 19.317 17.2676 20.0238 18.0013C20.7307 18.7349 21.1279 19.73 21.1279 20.7675Z" fill="#5642CF"/>
</g>
</g>
<g style="mix-blend-mode:multiply">
<g style="mix-blend-mode:multiply">
<path d="M34.5224 20.7675C34.5224 21.5412 34.3013 22.2976 33.8871 22.9409C33.473 23.5842 32.8843 24.0857 32.1955 24.3818C31.5068 24.6779 30.749 24.7553 30.0178 24.6044C29.2866 24.4534 28.615 24.0809 28.0879 23.5337C27.5608 22.9866 27.2017 22.2896 27.0563 21.5307C26.9109 20.7718 26.9855 19.9853 27.2708 19.2704C27.5561 18.5556 28.0392 17.9446 28.6591 17.5148C29.2789 17.0849 30.0076 16.8555 30.7531 16.8555C31.7528 16.8555 32.7115 17.2676 33.4184 18.0013C34.1253 18.7349 34.5224 19.73 34.5224 20.7675Z" fill="#5642CF"/>
</g>
</g>
<g style="mix-blend-mode:multiply">
<g style="mix-blend-mode:multiply">
<path d="M47.9443 20.7675C47.9443 21.5412 47.7232 22.2976 47.309 22.9409C46.8949 23.5842 46.3062 24.0857 45.6175 24.3818C44.9287 24.6779 44.1708 24.7553 43.4397 24.6044C42.7085 24.4534 42.0369 24.0809 41.5098 23.5337C40.9826 22.9866 40.6236 22.2896 40.4782 21.5307C40.3327 20.7718 40.4074 19.9853 40.6927 19.2704C40.978 18.5556 41.4611 17.9446 42.0809 17.5148C42.7008 17.0849 43.4295 16.8555 44.175 16.8555C45.1747 16.8555 46.1334 17.2676 46.8403 18.0013C47.5471 18.7349 47.9443 19.73 47.9443 20.7675Z" fill="#5642CF"/>
</g>
</g>
<g style="mix-blend-mode:multiply">
<g style="mix-blend-mode:multiply">
<path d="M61.3217 20.7675C61.3217 21.5412 61.1007 22.2976 60.6865 22.9409C60.2723 23.5842 59.6837 24.0857 58.9949 24.3818C58.3062 24.6779 57.5483 24.7553 56.8171 24.6044C56.086 24.4534 55.4144 24.0809 54.8872 23.5337C54.3601 22.9866 54.0011 22.2896 53.8556 21.5307C53.7102 20.7718 53.7849 19.9853 54.0701 19.2704C54.3554 18.5556 54.8385 17.9446 55.4584 17.5148C56.0782 17.0849 56.807 16.8555 57.5524 16.8555C58.5521 16.8555 59.5108 17.2676 60.2177 18.0013C60.9246 18.7349 61.3217 19.73 61.3217 20.7675Z" fill="#5642CF"/>
</g>
</g>
<g style="mix-blend-mode:multiply">
<g style="mix-blend-mode:multiply">
<path d="M74.7168 20.7675C74.7168 21.5412 74.4958 22.2976 74.0816 22.9409C73.6674 23.5842 73.0787 24.0857 72.39 24.3818C71.7012 24.6779 70.9434 24.7553 70.2122 24.6044C69.481 24.4534 68.8094 24.0809 68.2822 23.5337C67.7551 22.9866 67.3961 22.2896 67.2507 21.5307C67.1052 20.7718 67.1798 19.9853 67.4651 19.2704C67.7504 18.5556 68.2336 17.9446 68.8534 17.5148C69.4733 17.0849 70.202 16.8555 70.9475 16.8555C71.9472 16.8555 72.9059 17.2676 73.6128 18.0013C74.3197 18.7349 74.7168 19.73 74.7168 20.7675Z" fill="#5642CF"/>
</g>
</g>
<g style="mix-blend-mode:multiply">
<g style="mix-blend-mode:multiply">
<path d="M88.1122 20.7675C88.1122 21.5412 87.8912 22.2976 87.477 22.9409C87.0628 23.5842 86.4742 24.0857 85.7854 24.3818C85.0967 24.6779 84.3388 24.7553 83.6076 24.6044C82.8765 24.4534 82.2049 24.0809 81.6777 23.5337C81.1506 22.9866 80.7916 22.2896 80.6462 21.5307C80.5007 20.7718 80.5753 19.9853 80.8606 19.2704C81.1459 18.5556 81.629 17.9446 82.2489 17.5148C82.8687 17.0849 83.5975 16.8555 84.343 16.8555C85.3427 16.8555 86.3014 17.2676 87.0083 18.0013C87.7151 18.7349 88.1122 19.73 88.1122 20.7675Z" fill="#5642CF"/>
</g>
</g>
<g style="mix-blend-mode:multiply">
<g style="mix-blend-mode:multiply">
<path d="M101.506 20.7675C101.506 21.5416 101.285 22.2984 100.87 22.9419C100.456 23.5854 99.8666 24.0868 99.1774 24.3827C98.4881 24.6785 97.7299 24.7554 96.9985 24.6037C96.2671 24.452 95.5955 24.0785 95.0687 23.5305C94.5419 22.9825 94.1836 22.2846 94.0391 21.5251C93.8947 20.7657 93.9706 19.9788 94.2572 19.2641C94.5439 18.5495 95.0283 17.9391 95.6494 17.5103C96.2704 17.0816 97 16.8537 97.7458 16.8555C98.744 16.8579 99.7004 17.2711 100.405 18.0045C101.11 18.7379 101.506 19.7316 101.506 20.7675Z" fill="#5642CF"/>
</g>
</g>
<g style="mix-blend-mode:multiply">
<g style="mix-blend-mode:multiply">
<path d="M114.875 20.7675C114.875 21.5412 114.654 22.2976 114.24 22.9409C113.826 23.5842 113.237 24.0857 112.548 24.3818C111.859 24.6779 111.102 24.7553 110.37 24.6044C109.639 24.4534 108.968 24.0809 108.44 23.5337C107.913 22.9866 107.554 22.2896 107.409 21.5307C107.263 20.7718 107.338 19.9853 107.623 19.2704C107.909 18.5556 108.392 17.9446 109.012 17.5148C109.631 17.0849 110.36 16.8555 111.106 16.8555C112.105 16.8555 113.064 17.2676 113.771 18.0013C114.478 18.7349 114.875 19.73 114.875 20.7675Z" fill="#5642CF"/>
</g>
</g>
<g style="mix-blend-mode:multiply">
<g style="mix-blend-mode:multiply">
<path d="M128.306 20.7675C128.306 21.5412 128.085 22.2976 127.67 22.9409C127.256 23.5842 126.668 24.0857 125.979 24.3818C125.29 24.6779 124.532 24.7553 123.801 24.6044C123.07 24.4534 122.398 24.0809 121.871 23.5337C121.344 22.9866 120.985 22.2896 120.84 21.5307C120.694 20.7718 120.769 19.9853 121.054 19.2704C121.339 18.5556 121.822 17.9446 122.442 17.5148C123.062 17.0849 123.791 16.8555 124.536 16.8555C125.536 16.8555 126.495 17.2676 127.202 18.0013C127.908 18.7349 128.306 19.73 128.306 20.7675Z" fill="#5642CF"/>
</g>
</g>
<g style="mix-blend-mode:multiply">
<g style="mix-blend-mode:multiply">
<path d="M7.73283 37.4218C7.73283 38.1955 7.51177 38.9518 7.0976 39.5951C6.68343 40.2385 6.09473 40.7399 5.40599 41.036C4.71725 41.3321 3.95941 41.4095 3.22825 41.2586C2.49709 41.1076 1.82545 40.7351 1.29831 40.188C0.771174 39.6409 0.412205 38.9438 0.266768 38.1849C0.121332 37.4261 0.195952 36.6395 0.481236 35.9247C0.766521 35.2099 1.24963 34.5989 1.86947 34.1691C2.48932 33.7392 3.21809 33.5098 3.96357 33.5098C4.96324 33.5098 5.92197 33.9219 6.62883 34.6556C7.3357 35.3892 7.73283 36.3842 7.73283 37.4218Z" fill="#5642CF"/>
</g>
</g>
<g style="mix-blend-mode:multiply">
<g style="mix-blend-mode:multiply">
<path d="M21.1279 37.4218C21.1279 38.1955 20.9068 38.9518 20.4926 39.5951C20.0784 40.2385 19.4898 40.7399 18.801 41.036C18.1123 41.3321 17.3544 41.4095 16.6232 41.2586C15.8921 41.1076 15.2205 40.7351 14.6933 40.188C14.1662 39.6409 13.8072 38.9438 13.6618 38.1849C13.5164 37.4261 13.591 36.6395 13.8763 35.9247C14.1615 35.2099 14.6447 34.5989 15.2645 34.1691C15.8844 33.7392 16.6131 33.5098 17.3586 33.5098C18.3583 33.5098 19.317 33.9219 20.0238 34.6556C20.7307 35.3892 21.1279 36.3842 21.1279 37.4218Z" fill="#5642CF"/>
</g>
</g>
<g style="mix-blend-mode:multiply">
<g style="mix-blend-mode:multiply">
<path d="M34.5224 37.4218C34.5224 38.1955 34.3013 38.9518 33.8871 39.5951C33.473 40.2385 32.8843 40.7399 32.1955 41.036C31.5068 41.3321 30.749 41.4095 30.0178 41.2586C29.2866 41.1076 28.615 40.7351 28.0879 40.188C27.5608 39.6409 27.2017 38.9438 27.0563 38.1849C26.9109 37.4261 26.9855 36.6395 27.2708 35.9247C27.5561 35.2099 28.0392 34.5989 28.6591 34.1691C29.2789 33.7392 30.0076 33.5098 30.7531 33.5098C31.7528 33.5098 32.7115 33.9219 33.4184 34.6556C34.1253 35.3892 34.5224 36.3842 34.5224 37.4218Z" fill="#5642CF"/>
</g>
</g>
<g style="mix-blend-mode:multiply">
<g style="mix-blend-mode:multiply">
<path d="M47.9443 37.4218C47.9443 38.1955 47.7232 38.9518 47.309 39.5951C46.8949 40.2385 46.3062 40.7399 45.6175 41.036C44.9287 41.3321 44.1708 41.4095 43.4397 41.2586C42.7085 41.1076 42.0369 40.7351 41.5098 40.188C40.9826 39.6409 40.6236 38.9438 40.4782 38.1849C40.3327 37.4261 40.4074 36.6395 40.6927 35.9247C40.978 35.2099 41.4611 34.5989 42.0809 34.1691C42.7008 33.7392 43.4295 33.5098 44.175 33.5098C45.1747 33.5098 46.1334 33.9219 46.8403 34.6556C47.5471 35.3892 47.9443 36.3842 47.9443 37.4218Z" fill="#5642CF"/>
</g>
</g>
<g style="mix-blend-mode:multiply">
<g style="mix-blend-mode:multiply">
<path d="M61.3217 37.4218C61.3217 38.1955 61.1007 38.9518 60.6865 39.5951C60.2723 40.2385 59.6837 40.7399 58.9949 41.036C58.3062 41.3321 57.5483 41.4095 56.8171 41.2586C56.086 41.1076 55.4144 40.7351 54.8872 40.188C54.3601 39.6409 54.0011 38.9438 53.8556 38.1849C53.7102 37.4261 53.7849 36.6395 54.0701 35.9247C54.3554 35.2099 54.8385 34.5989 55.4584 34.1691C56.0782 33.7392 56.807 33.5098 57.5524 33.5098C58.5521 33.5098 59.5108 33.9219 60.2177 34.6556C60.9246 35.3892 61.3217 36.3842 61.3217 37.4218Z" fill="#5642CF"/>
</g>
</g>
<g style="mix-blend-mode:multiply">
<g style="mix-blend-mode:multiply">
<path d="M74.7168 37.4218C74.7168 38.1955 74.4958 38.9518 74.0816 39.5951C73.6674 40.2385 73.0787 40.7399 72.39 41.036C71.7012 41.3321 70.9434 41.4095 70.2122 41.2586C69.481 41.1076 68.8094 40.7351 68.2822 40.188C67.7551 39.6409 67.3961 38.9438 67.2507 38.1849C67.1052 37.4261 67.1798 36.6395 67.4651 35.9247C67.7504 35.2099 68.2336 34.5989 68.8534 34.1691C69.4733 33.7392 70.202 33.5098 70.9475 33.5098C71.9472 33.5098 72.9059 33.9219 73.6128 34.6556C74.3197 35.3892 74.7168 36.3842 74.7168 37.4218Z" fill="#5642CF"/>
</g>
</g>
<g style="mix-blend-mode:multiply">
<g style="mix-blend-mode:multiply">
<path d="M88.1122 37.4218C88.1122 38.1955 87.8912 38.9518 87.477 39.5951C87.0628 40.2385 86.4742 40.7399 85.7854 41.036C85.0967 41.3321 84.3388 41.4095 83.6076 41.2586C82.8765 41.1076 82.2049 40.7351 81.6777 40.188C81.1506 39.6409 80.7916 38.9438 80.6462 38.1849C80.5007 37.4261 80.5753 36.6395 80.8606 35.9247C81.1459 35.2099 81.629 34.5989 82.2489 34.1691C82.8687 33.7392 83.5975 33.5098 84.343 33.5098C85.3427 33.5098 86.3014 33.9219 87.0083 34.6556C87.7151 35.3892 88.1122 36.3842 88.1122 37.4218Z" fill="#5642CF"/>
</g>
</g>
<g style="mix-blend-mode:multiply">
<g style="mix-blend-mode:multiply">
<path d="M101.506 37.4218C101.506 38.1959 101.285 38.9526 100.87 39.5961C100.456 40.2396 99.8666 40.741 99.1774 41.0368C98.4881 41.3327 97.7299 41.4096 96.9985 41.2579C96.2671 41.1062 95.5955 40.7327 95.0687 40.1847C94.5419 39.6367 94.1836 38.9388 94.0391 38.1793C93.8947 37.4199 93.9706 36.633 94.2572 35.9184C94.5439 35.2037 95.0283 34.5934 95.6494 34.1646C96.2704 33.7359 97 33.508 97.7458 33.5098C98.744 33.5122 99.7004 33.9254 100.405 34.6588C101.11 35.3922 101.506 36.3858 101.506 37.4218Z" fill="#5642CF"/>
</g>
</g>
<g style="mix-blend-mode:multiply">
<g style="mix-blend-mode:multiply">
<path d="M114.875 37.4218C114.875 38.1955 114.654 38.9518 114.24 39.5951C113.826 40.2385 113.237 40.7399 112.548 41.036C111.859 41.3321 111.102 41.4095 110.37 41.2586C109.639 41.1076 108.968 40.7351 108.44 40.188C107.913 39.6409 107.554 38.9438 107.409 38.1849C107.263 37.4261 107.338 36.6395 107.623 35.9247C107.909 35.2099 108.392 34.5989 109.012 34.1691C109.631 33.7392 110.36 33.5098 111.106 33.5098C112.105 33.5098 113.064 33.9219 113.771 34.6556C114.478 35.3892 114.875 36.3842 114.875 37.4218Z" fill="#5642CF"/>
</g>
</g>
<g style="mix-blend-mode:multiply">
<g style="mix-blend-mode:multiply">
<path d="M128.306 37.4218C128.306 38.1955 128.085 38.9518 127.67 39.5951C127.256 40.2385 126.668 40.7399 125.979 41.036C125.29 41.3321 124.532 41.4095 123.801 41.2586C123.07 41.1076 122.398 40.7351 121.871 40.188C121.344 39.6409 120.985 38.9438 120.84 38.1849C120.694 37.4261 120.769 36.6395 121.054 35.9247C121.339 35.2099 121.822 34.5989 122.442 34.1691C123.062 33.7392 123.791 33.5098 124.536 33.5098C125.536 33.5098 126.495 33.9219 127.202 34.6556C127.908 35.3892 128.306 36.3842 128.306 37.4218Z" fill="#5642CF"/>
</g>
</g>
<g style="mix-blend-mode:multiply">
<g style="mix-blend-mode:multiply">
<path d="M3.96358 57.9978C6.04528 57.9978 7.73283 56.2463 7.73283 54.0858C7.73283 51.9253 6.04528 50.1738 3.96358 50.1738C1.88189 50.1738 0.194336 51.9253 0.194336 54.0858C0.194336 56.2463 1.88189 57.9978 3.96358 57.9978Z" fill="#5642CF"/>
</g>
</g>
<g style="mix-blend-mode:multiply">
<g style="mix-blend-mode:multiply">
<path d="M21.1279 54.0742C21.1279 54.8479 20.9068 55.6042 20.4926 56.2476C20.0784 56.8909 19.4898 57.3923 18.801 57.6884C18.1123 57.9845 17.3544 58.062 16.6232 57.911C15.8921 57.7601 15.2205 57.3875 14.6933 56.8404C14.1662 56.2933 13.8072 55.5962 13.6618 54.8374C13.5164 54.0785 13.591 53.2919 13.8763 52.5771C14.1615 51.8623 14.6447 51.2513 15.2645 50.8214C15.8844 50.3916 16.6131 50.1621 17.3586 50.1621C18.3583 50.1621 19.317 50.5743 20.0238 51.3079C20.7307 52.0416 21.1279 53.0366 21.1279 54.0742Z" fill="#5642CF"/>
</g>
</g>
<g style="mix-blend-mode:multiply">
<g style="mix-blend-mode:multiply">
<path d="M34.5224 54.0742C34.5224 54.8479 34.3013 55.6042 33.8871 56.2476C33.473 56.8909 32.8843 57.3923 32.1955 57.6884C31.5068 57.9845 30.749 58.062 30.0178 57.911C29.2866 57.7601 28.615 57.3875 28.0879 56.8404C27.5608 56.2933 27.2017 55.5962 27.0563 54.8374C26.9109 54.0785 26.9855 53.2919 27.2708 52.5771C27.5561 51.8623 28.0392 51.2513 28.6591 50.8214C29.2789 50.3916 30.0076 50.1621 30.7531 50.1621C31.7528 50.1621 32.7115 50.5743 33.4184 51.3079C34.1253 52.0416 34.5224 53.0366 34.5224 54.0742Z" fill="#5642CF"/>
</g>
</g>
<g style="mix-blend-mode:multiply">
<g style="mix-blend-mode:multiply">
<path d="M47.9443 54.0742C47.9443 54.8479 47.7232 55.6042 47.309 56.2476C46.8949 56.8909 46.3062 57.3923 45.6175 57.6884C44.9287 57.9845 44.1708 58.062 43.4397 57.911C42.7085 57.7601 42.0369 57.3875 41.5098 56.8404C40.9826 56.2933 40.6236 55.5962 40.4782 54.8374C40.3327 54.0785 40.4074 53.2919 40.6927 52.5771C40.978 51.8623 41.4611 51.2513 42.0809 50.8214C42.7008 50.3916 43.4295 50.1621 44.175 50.1621C45.1747 50.1621 46.1334 50.5743 46.8403 51.3079C47.5471 52.0416 47.9443 53.0366 47.9443 54.0742Z" fill="#5642CF"/>
</g>
</g>
<g style="mix-blend-mode:multiply">
<g style="mix-blend-mode:multiply">
<path d="M61.3217 54.0742C61.3217 54.8479 61.1007 55.6042 60.6865 56.2476C60.2723 56.8909 59.6837 57.3923 58.9949 57.6884C58.3062 57.9845 57.5483 58.062 56.8171 57.911C56.086 57.7601 55.4144 57.3875 54.8872 56.8404C54.3601 56.2933 54.0011 55.5962 53.8556 54.8374C53.7102 54.0785 53.7849 53.2919 54.0701 52.5771C54.3554 51.8623 54.8385 51.2513 55.4584 50.8214C56.0782 50.3916 56.807 50.1621 57.5524 50.1621C58.5521 50.1621 59.5108 50.5743 60.2177 51.3079C60.9246 52.0416 61.3217 53.0366 61.3217 54.0742Z" fill="#5642CF"/>
</g>
</g>
<g style="mix-blend-mode:multiply">
<g style="mix-blend-mode:multiply">
<path d="M70.9475 57.9978C73.0293 57.9978 74.7168 56.2463 74.7168 54.0858C74.7168 51.9253 73.0293 50.1738 70.9475 50.1738C68.8658 50.1738 67.1782 51.9253 67.1782 54.0858C67.1782 56.2463 68.8658 57.9978 70.9475 57.9978Z" fill="#5642CF"/>
</g>
</g>
<g style="mix-blend-mode:multiply">
<g style="mix-blend-mode:multiply">
<path d="M84.3508 57.9978C86.4325 57.9978 88.12 56.2463 88.12 54.0858C88.12 51.9253 86.4325 50.1738 84.3508 50.1738C82.2691 50.1738 80.5815 51.9253 80.5815 54.0858C80.5815 56.2463 82.2691 57.9978 84.3508 57.9978Z" fill="#5642CF"/>
</g>
</g>
<g style="mix-blend-mode:multiply">
<g style="mix-blend-mode:multiply">
<path d="M101.506 54.0742C101.506 54.8483 101.285 55.605 100.87 56.2485C100.456 56.8921 99.8666 57.3935 99.1774 57.6893C98.4881 57.9851 97.7299 58.0621 96.9985 57.9104C96.2671 57.7587 95.5955 57.3852 95.0687 56.8371C94.5419 56.2891 94.1836 55.5912 94.0391 54.8318C93.8947 54.0723 93.9706 53.2854 94.2572 52.5708C94.5439 51.8561 95.0283 51.2457 95.6494 50.817C96.2704 50.3882 97 50.1603 97.7458 50.1621C98.744 50.1645 99.7004 50.5778 100.405 51.3112C101.11 52.0445 101.506 53.0382 101.506 54.0742Z" fill="#5642CF"/>
</g>
</g>
<g style="mix-blend-mode:multiply">
<g style="mix-blend-mode:multiply">
<path d="M114.875 54.0742C114.875 54.8479 114.654 55.6042 114.24 56.2476C113.826 56.8909 113.237 57.3923 112.548 57.6884C111.859 57.9845 111.102 58.062 110.37 57.911C109.639 57.7601 108.968 57.3875 108.44 56.8404C107.913 56.2933 107.554 55.5962 107.409 54.8374C107.263 54.0785 107.338 53.2919 107.623 52.5771C107.909 51.8623 108.392 51.2513 109.012 50.8214C109.631 50.3916 110.36 50.1621 111.106 50.1621C112.105 50.1621 113.064 50.5743 113.771 51.3079C114.478 52.0416 114.875 53.0366 114.875 54.0742Z" fill="#5642CF"/>
</g>
</g>
<g style="mix-blend-mode:multiply">
<g style="mix-blend-mode:multiply">
<path d="M128.306 54.0742C128.306 54.8479 128.085 55.6042 127.67 56.2476C127.256 56.8909 126.668 57.3923 125.979 57.6884C125.29 57.9845 124.532 58.062 123.801 57.911C123.07 57.7601 122.398 57.3875 121.871 56.8404C121.344 56.2933 120.985 55.5962 120.84 54.8374C120.694 54.0785 120.769 53.2919 121.054 52.5771C121.339 51.8623 121.822 51.2513 122.442 50.8214C123.062 50.3916 123.791 50.1621 124.536 50.1621C125.536 50.1621 126.495 50.5743 127.202 51.3079C127.908 52.0416 128.306 53.0366 128.306 54.0742Z" fill="#5642CF"/>
</g>
</g>
<g style="mix-blend-mode:multiply">
<g style="mix-blend-mode:multiply">
<path d="M3.96358 74.6504C6.04528 74.6504 7.73283 72.8989 7.73283 70.7383C7.73283 68.5777 6.04528 66.8262 3.96358 66.8262C1.88189 66.8262 0.194336 68.5777 0.194336 70.7383C0.194336 72.8989 1.88189 74.6504 3.96358 74.6504Z" fill="#5642CF"/>
</g>
</g>
<g style="mix-blend-mode:multiply">
<g style="mix-blend-mode:multiply">
<path d="M21.1278 70.7291C21.1296 71.5033 20.91 72.2605 20.4969 72.9051C20.0838 73.5496 19.4958 74.0525 18.8072 74.35C18.1186 74.6475 17.3604 74.7262 16.6287 74.5763C15.8969 74.4264 15.2245 74.0545 14.6965 73.5078C14.1684 72.961 13.8086 72.264 13.6624 71.5048C13.5163 70.7457 13.5904 69.9587 13.8754 69.2433C14.1604 68.5279 14.6436 67.9164 15.2636 67.4861C15.8836 67.0559 16.6128 66.8262 17.3586 66.8262C18.3568 66.8262 19.3142 67.2371 20.0208 67.9688C20.7274 68.7004 21.1255 69.6932 21.1278 70.7291Z" fill="#5642CF"/>
</g>
</g>
<g style="mix-blend-mode:multiply">
<g style="mix-blend-mode:multiply">
<path d="M34.5224 70.7291C34.5241 71.5033 34.3045 72.2605 33.8914 72.9051C33.4783 73.5496 32.8902 74.0525 32.2017 74.35C31.5131 74.6475 30.755 74.7262 30.0232 74.5763C29.2915 74.4264 28.619 74.0545 28.091 73.5078C27.563 72.961 27.2031 72.264 27.057 71.5048C26.9108 70.7457 26.9849 69.9587 27.27 69.2433C27.555 68.5279 28.0381 67.9164 28.6582 67.4861C29.2782 67.0559 30.0073 66.8262 30.7531 66.8262C31.7513 66.8262 32.7086 67.2371 33.4153 67.9688C34.1219 68.7004 34.52 69.6932 34.5224 70.7291Z" fill="#5642CF"/>
</g>
</g>
<g style="mix-blend-mode:multiply">
<g style="mix-blend-mode:multiply">
<path d="M47.9438 70.7291C47.9455 71.5033 47.7259 72.2605 47.3128 72.9051C46.8997 73.5496 46.3116 74.0525 45.623 74.35C44.9344 74.6475 44.1763 74.7262 43.4446 74.5763C42.7128 74.4264 42.0404 74.0545 41.5124 73.5078C40.9844 72.961 40.6245 72.264 40.4784 71.5049C40.3322 70.7457 40.4063 69.9587 40.6913 69.2433C40.9763 68.5279 41.4595 67.9164 42.0795 67.4861C42.6996 67.0559 43.4286 66.8262 44.1745 66.8262C44.6691 66.825 45.159 66.925 45.6163 67.1206C46.0735 67.3162 46.4891 67.6035 46.8392 67.9661C47.1893 68.3286 47.4671 68.7593 47.6567 69.2334C47.8462 69.7076 47.9438 70.2158 47.9438 70.7291Z" fill="#5642CF"/>
</g>
</g>
<g style="mix-blend-mode:multiply">
<g style="mix-blend-mode:multiply">
<path d="M61.3217 70.7291C61.3234 71.5033 61.1039 72.2605 60.6908 72.9051C60.2776 73.5496 59.6895 74.0525 59.001 74.35C58.3124 74.6475 57.5543 74.7262 56.8225 74.5763C56.0908 74.4264 55.4183 74.0545 54.8903 73.5078C54.3623 72.961 54.0024 72.264 53.8563 71.5048C53.7101 70.7457 53.7842 69.9587 54.0693 69.2433C54.3543 68.5279 54.8374 67.9164 55.4574 67.4861C56.0775 67.0559 56.8065 66.8262 57.5524 66.8262C58.5506 66.8262 59.5079 67.2371 60.2146 67.9688C60.9212 68.7004 61.3194 69.6932 61.3217 70.7291Z" fill="#5642CF"/>
</g>
</g>
<g style="mix-blend-mode:multiply">
<g style="mix-blend-mode:multiply">
<path d="M70.9475 74.6504C73.0293 74.6504 74.7168 72.8989 74.7168 70.7383C74.7168 68.5777 73.0293 66.8262 70.9475 66.8262C68.8658 66.8262 67.1782 68.5777 67.1782 70.7383C67.1782 72.8989 68.8658 74.6504 70.9475 74.6504Z" fill="#5642CF"/>
</g>
</g>
<g style="mix-blend-mode:multiply">
<g style="mix-blend-mode:multiply">
<path d="M84.3508 74.6504C86.4325 74.6504 88.12 72.8989 88.12 70.7383C88.12 68.5777 86.4325 66.8262 84.3508 66.8262C82.2691 66.8262 80.5815 68.5777 80.5815 70.7383C80.5815 72.8989 82.2691 74.6504 84.3508 74.6504Z" fill="#5642CF"/>
</g>
</g>
<g style="mix-blend-mode:multiply">
<g style="mix-blend-mode:multiply">
<path d="M101.506 70.7291C101.508 71.5037 101.288 72.2613 100.875 72.906C100.461 73.5508 99.8726 74.0536 99.1835 74.3508C98.4944 74.6481 97.7358 74.7263 97.0038 74.5757C96.2719 74.425 95.5995 74.0522 95.0718 73.5045C94.5441 72.9569 94.1849 72.259 94.0398 71.4992C93.8946 70.7395 93.97 69.9522 94.2564 69.237C94.5428 68.5217 95.0272 67.9108 95.6484 67.4817C96.2696 67.0525 96.9996 66.8244 97.7458 66.8262C98.7432 66.8262 99.6996 67.2374 100.405 67.9693C101.11 68.7013 101.506 69.694 101.506 70.7291Z" fill="#5642CF"/>
</g>
</g>
<g style="mix-blend-mode:multiply">
<g style="mix-blend-mode:multiply">
<path d="M114.876 70.7291C114.877 71.5033 114.658 72.2605 114.245 72.9051C113.831 73.5496 113.243 74.0525 112.555 74.35C111.866 74.6475 111.108 74.7262 110.376 74.5763C109.645 74.4264 108.972 74.0545 108.444 73.5078C107.916 72.961 107.556 72.264 107.41 71.5048C107.264 70.7457 107.338 69.9587 107.623 69.2433C107.908 68.5279 108.391 67.9164 109.011 67.4861C109.631 67.0559 110.36 66.8262 111.106 66.8262C112.104 66.8262 113.062 67.2371 113.768 67.9688C114.475 68.7004 114.873 69.6932 114.876 70.7291Z" fill="#5642CF"/>
</g>
</g>
<g style="mix-blend-mode:multiply">
<g style="mix-blend-mode:multiply">
<path d="M128.306 70.7292C128.307 71.5045 128.087 72.2629 127.673 72.908C127.258 73.5531 126.669 74.056 125.979 74.3526C125.289 74.6493 124.529 74.7265 123.797 74.5743C123.064 74.4222 122.392 74.0476 121.865 73.4981C121.338 72.9486 120.98 72.2489 120.837 71.488C120.694 70.7271 120.772 69.9392 121.061 69.2243C121.35 68.5094 121.837 67.8998 122.461 67.4728C123.084 67.0459 123.816 66.8208 124.563 66.8263C125.556 66.8335 126.507 67.2476 127.208 67.9785C127.909 68.7094 128.303 69.698 128.306 70.7292Z" fill="#5642CF"/>
</g>
</g>
<g style="mix-blend-mode:multiply">
<g style="mix-blend-mode:multiply">
<path d="M3.96358 91.3026C6.04528 91.3026 7.73283 89.5511 7.73283 87.3906C7.73283 85.23 6.04528 83.4785 3.96358 83.4785C1.88189 83.4785 0.194336 85.23 0.194336 87.3906C0.194336 89.5511 1.88189 91.3026 3.96358 91.3026Z" fill="#5642CF"/>
</g>
</g>
<g style="mix-blend-mode:multiply">
<g style="mix-blend-mode:multiply">
<path d="M21.1279 87.3906C21.1279 88.1643 20.9068 88.9206 20.4926 89.564C20.0784 90.2073 19.4898 90.7087 18.801 91.0048C18.1123 91.3009 17.3544 91.3784 16.6232 91.2274C15.8921 91.0765 15.2205 90.7039 14.6933 90.1568C14.1662 89.6097 13.8072 88.9126 13.6618 88.1538C13.5164 87.3949 13.591 86.6083 13.8763 85.8935C14.1615 85.1787 14.6447 84.5677 15.2645 84.1378C15.8844 83.708 16.6131 83.4785 17.3586 83.4785C18.3583 83.4785 19.317 83.8907 20.0238 84.6243C20.7307 85.358 21.1279 86.353 21.1279 87.3906Z" fill="#5642CF"/>
</g>
</g>
<g style="mix-blend-mode:multiply">
<g style="mix-blend-mode:multiply">
<path d="M34.5224 87.3906C34.5224 88.1643 34.3013 88.9206 33.8871 89.564C33.473 90.2073 32.8843 90.7087 32.1955 91.0048C31.5068 91.3009 30.749 91.3784 30.0178 91.2274C29.2866 91.0765 28.615 90.7039 28.0879 90.1568C27.5608 89.6097 27.2017 88.9126 27.0563 88.1538C26.9109 87.3949 26.9855 86.6083 27.2708 85.8935C27.5561 85.1787 28.0392 84.5677 28.6591 84.1378C29.2789 83.708 30.0076 83.4785 30.7531 83.4785C31.7528 83.4785 32.7115 83.8907 33.4184 84.6243C34.1253 85.358 34.5224 86.353 34.5224 87.3906Z" fill="#5642CF"/>
</g>
</g>
<g style="mix-blend-mode:multiply">
<g style="mix-blend-mode:multiply">
<path d="M47.9442 87.3906C47.9442 88.1643 47.7232 88.9207 47.309 89.564C46.8948 90.2073 46.3062 90.7087 45.6175 91.0048C44.9287 91.3009 44.1708 91.3784 43.4397 91.2274C42.7085 91.0765 42.0369 90.7039 41.5098 90.1568C40.9826 89.6097 40.6236 88.9126 40.4782 88.1538C40.3327 87.3949 40.4074 86.6083 40.6927 85.8935C40.978 85.1787 41.4611 84.5677 42.0809 84.1378C42.7008 83.708 43.4295 83.4785 44.175 83.4785C44.6703 83.4773 45.161 83.5777 45.6188 83.7738C46.0766 83.97 46.4926 84.2581 46.8428 84.6216C47.1931 84.9852 47.4707 85.4169 47.6597 85.8921C47.8487 86.3672 47.9454 86.8765 47.9442 87.3906Z" fill="#5642CF"/>
</g>
</g>
<g style="mix-blend-mode:multiply">
<g style="mix-blend-mode:multiply">
<path d="M61.3217 87.3906C61.3217 88.1643 61.1007 88.9206 60.6865 89.564C60.2723 90.2073 59.6837 90.7087 58.9949 91.0048C58.3062 91.3009 57.5483 91.3784 56.8171 91.2274C56.086 91.0765 55.4144 90.7039 54.8872 90.1568C54.3601 89.6097 54.0011 88.9126 53.8556 88.1538C53.7102 87.3949 53.7849 86.6083 54.0701 85.8935C54.3554 85.1787 54.8385 84.5677 55.4584 84.1378C56.0782 83.708 56.807 83.4785 57.5524 83.4785C58.5521 83.4785 59.5108 83.8907 60.2177 84.6243C60.9246 85.358 61.3217 86.353 61.3217 87.3906Z" fill="#5642CF"/>
</g>
</g>
<g style="mix-blend-mode:multiply">
<g style="mix-blend-mode:multiply">
<path d="M70.9475 91.3026C73.0293 91.3026 74.7168 89.5511 74.7168 87.3906C74.7168 85.23 73.0293 83.4785 70.9475 83.4785C68.8658 83.4785 67.1782 85.23 67.1782 87.3906C67.1782 89.5511 68.8658 91.3026 70.9475 91.3026Z" fill="#5642CF"/>
</g>
</g>
<g style="mix-blend-mode:multiply">
<g style="mix-blend-mode:multiply">
<path d="M84.3508 91.3026C86.4325 91.3026 88.1201 89.5511 88.1201 87.3906C88.1201 85.23 86.4325 83.4785 84.3508 83.4785C82.2691 83.4785 80.5815 85.23 80.5815 87.3906C80.5815 89.5511 82.2691 91.3026 84.3508 91.3026Z" fill="#5642CF"/>
</g>
</g>
<g style="mix-blend-mode:multiply">
<g style="mix-blend-mode:multiply">
<path d="M101.506 87.3906C101.506 88.1647 101.285 88.9214 100.87 89.5649C100.456 90.2085 99.8666 90.7099 99.1774 91.0057C98.4881 91.3015 97.7299 91.3785 96.9985 91.2268C96.2671 91.0751 95.5955 90.7016 95.0687 90.1536C94.5419 89.6055 94.1836 88.9076 94.0391 88.1481C93.8947 87.3887 93.9706 86.6018 94.2572 85.8871C94.5439 85.1725 95.0283 84.5621 95.6494 84.1334C96.2704 83.7046 97 83.4767 97.7458 83.4785C98.2404 83.4785 98.7301 83.5798 99.1869 83.7765C99.6438 83.9732 100.059 84.2615 100.408 84.6249C100.757 84.9883 101.034 85.4196 101.223 85.8942C101.411 86.3688 101.507 86.8773 101.506 87.3906Z" fill="#5642CF"/>
</g>
</g>
<g style="mix-blend-mode:multiply">
<g style="mix-blend-mode:multiply">
<path d="M114.875 87.3906C114.875 88.1643 114.654 88.9206 114.24 89.564C113.826 90.2073 113.237 90.7087 112.548 91.0048C111.859 91.3009 111.102 91.3784 110.37 91.2274C109.639 91.0765 108.968 90.7039 108.44 90.1568C107.913 89.6097 107.554 88.9126 107.409 88.1538C107.263 87.3949 107.338 86.6083 107.623 85.8935C107.909 85.1787 108.392 84.5677 109.012 84.1378C109.631 83.708 110.36 83.4785 111.106 83.4785C112.105 83.4785 113.064 83.8907 113.771 84.6243C114.478 85.358 114.875 86.353 114.875 87.3906Z" fill="#5642CF"/>
</g>
</g>
<g style="mix-blend-mode:multiply">
<g style="mix-blend-mode:multiply">
<path d="M128.306 87.3906C128.306 88.1643 128.085 88.9206 127.67 89.564C127.256 90.2073 126.668 90.7087 125.979 91.0048C125.29 91.3009 124.532 91.3784 123.801 91.2274C123.07 91.0765 122.398 90.7039 121.871 90.1568C121.344 89.6097 120.985 88.9126 120.84 88.1538C120.694 87.3949 120.769 86.6083 121.054 85.8935C121.339 85.1787 121.822 84.5677 122.442 84.1378C123.062 83.708 123.791 83.4785 124.536 83.4785C125.536 83.4785 126.495 83.8907 127.202 84.6243C127.908 85.358 128.306 86.353 128.306 87.3906Z" fill="#5642CF"/>
</g>
</g>
<g style="mix-blend-mode:multiply">
<g style="mix-blend-mode:multiply">
<path d="M3.96358 107.959C6.04528 107.959 7.73283 106.207 7.73283 104.047C7.73283 101.886 6.04528 100.135 3.96358 100.135C1.88189 100.135 0.194336 101.886 0.194336 104.047C0.194336 106.207 1.88189 107.959 3.96358 107.959Z" fill="#5642CF"/>
</g>
</g>
<g style="mix-blend-mode:multiply">
<g style="mix-blend-mode:multiply">
<path d="M21.1279 104.047C21.1279 104.821 20.9068 105.577 20.4926 106.22C20.0784 106.864 19.4898 107.365 18.801 107.661C18.1123 107.957 17.3544 108.035 16.6232 107.884C15.8921 107.733 15.2205 107.36 14.6933 106.813C14.1662 106.266 13.8072 105.569 13.6618 104.81C13.5164 104.051 13.591 103.265 13.8763 102.55C14.1615 101.835 14.6447 101.224 15.2645 100.794C15.8844 100.364 16.6131 100.135 17.3586 100.135C18.3583 100.135 19.317 100.547 20.0238 101.281C20.7307 102.014 21.1279 103.009 21.1279 104.047Z" fill="#5642CF"/>
</g>
</g>
<g style="mix-blend-mode:multiply">
<g style="mix-blend-mode:multiply">
<path d="M34.5224 104.047C34.5224 104.821 34.3013 105.577 33.8871 106.22C33.473 106.864 32.8843 107.365 32.1955 107.661C31.5068 107.957 30.749 108.035 30.0178 107.884C29.2866 107.733 28.615 107.36 28.0879 106.813C27.5608 106.266 27.2017 105.569 27.0563 104.81C26.9109 104.051 26.9855 103.265 27.2708 102.55C27.5561 101.835 28.0392 101.224 28.6591 100.794C29.2789 100.364 30.0076 100.135 30.7531 100.135C31.7528 100.135 32.7115 100.547 33.4184 101.281C34.1253 102.014 34.5224 103.009 34.5224 104.047Z" fill="#5642CF"/>
</g>
</g>
<g style="mix-blend-mode:multiply">
<g style="mix-blend-mode:multiply">
<path d="M47.9443 104.047C47.9443 104.821 47.7232 105.577 47.309 106.22C46.8949 106.864 46.3062 107.365 45.6175 107.661C44.9287 107.957 44.1708 108.035 43.4397 107.884C42.7085 107.733 42.0369 107.36 41.5098 106.813C40.9826 106.266 40.6236 105.569 40.4782 104.81C40.3327 104.051 40.4074 103.265 40.6927 102.55C40.978 101.835 41.4611 101.224 42.0809 100.794C42.7008 100.364 43.4295 100.135 44.175 100.135C45.1747 100.135 46.1334 100.547 46.8403 101.281C47.5471 102.014 47.9443 103.009 47.9443 104.047Z" fill="#5642CF"/>
</g>
</g>
<g style="mix-blend-mode:multiply">
<g style="mix-blend-mode:multiply">
<path d="M61.3217 104.047C61.3217 104.821 61.1007 105.577 60.6865 106.22C60.2723 106.864 59.6837 107.365 58.9949 107.661C58.3062 107.957 57.5483 108.035 56.8171 107.884C56.086 107.733 55.4144 107.36 54.8872 106.813C54.3601 106.266 54.0011 105.569 53.8556 104.81C53.7102 104.051 53.7849 103.265 54.0701 102.55C54.3554 101.835 54.8385 101.224 55.4584 100.794C56.0782 100.364 56.807 100.135 57.5524 100.135C58.5521 100.135 59.5108 100.547 60.2177 101.281C60.9246 102.014 61.3217 103.009 61.3217 104.047Z" fill="#5642CF"/>
</g>
</g>
<g style="mix-blend-mode:multiply">
<g style="mix-blend-mode:multiply">
<path d="M70.9475 107.959C73.0293 107.959 74.7168 106.207 74.7168 104.047C74.7168 101.886 73.0293 100.135 70.9475 100.135C68.8658 100.135 67.1782 101.886 67.1782 104.047C67.1782 106.207 68.8658 107.959 70.9475 107.959Z" fill="#5642CF"/>
</g>
</g>
<g style="mix-blend-mode:multiply">
<g style="mix-blend-mode:multiply">
<path d="M84.3508 107.959C86.4325 107.959 88.1201 106.207 88.1201 104.047C88.1201 101.886 86.4325 100.135 84.3508 100.135C82.2691 100.135 80.5815 101.886 80.5815 104.047C80.5815 106.207 82.2691 107.959 84.3508 107.959Z" fill="#5642CF"/>
</g>
</g>
<g style="mix-blend-mode:multiply">
<g style="mix-blend-mode:multiply">
<path d="M101.506 104.047C101.506 104.821 101.285 105.578 100.87 106.221C100.456 106.865 99.8666 107.366 99.1774 107.662C98.4881 107.958 97.7299 108.035 96.9985 107.883C96.2671 107.731 95.5955 107.358 95.0687 106.81C94.5419 106.262 94.1836 105.564 94.0391 104.804C93.8947 104.045 93.9706 103.258 94.2572 102.543C94.5439 101.829 95.0283 101.218 95.6494 100.79C96.2704 100.361 97 100.133 97.7458 100.135C98.744 100.137 99.7004 100.55 100.405 101.284C101.11 102.017 101.506 103.011 101.506 104.047Z" fill="#5642CF"/>
</g>
</g>
<g style="mix-blend-mode:multiply">
<g style="mix-blend-mode:multiply">
<path d="M114.875 104.047C114.875 104.821 114.654 105.577 114.24 106.22C113.826 106.864 113.237 107.365 112.548 107.661C111.859 107.957 111.102 108.035 110.37 107.884C109.639 107.733 108.968 107.36 108.44 106.813C107.913 106.266 107.554 105.569 107.409 104.81C107.263 104.051 107.338 103.265 107.623 102.55C107.909 101.835 108.392 101.224 109.012 100.794C109.631 100.364 110.36 100.135 111.106 100.135C112.105 100.135 113.064 100.547 113.771 101.281C114.478 102.014 114.875 103.009 114.875 104.047Z" fill="#5642CF"/>
</g>
</g>
<g style="mix-blend-mode:multiply">
<g style="mix-blend-mode:multiply">
<path d="M128.305 104.044C128.298 104.818 128.071 105.572 127.651 106.211C127.232 106.85 126.639 107.345 125.948 107.635C125.257 107.925 124.499 107.995 123.77 107.838C123.04 107.681 122.372 107.303 121.849 106.751C121.327 106.2 120.973 105.5 120.834 104.741C120.694 103.981 120.775 103.196 121.065 102.483C121.355 101.771 121.843 101.164 122.465 100.739C123.088 100.314 123.818 100.09 124.563 100.096C125.058 100.099 125.549 100.204 126.005 100.405C126.462 100.605 126.876 100.897 127.223 101.264C127.571 101.631 127.846 102.065 128.031 102.542C128.217 103.02 128.31 103.53 128.305 104.044Z" fill="#5642CF"/>
</g>
</g>
<g style="mix-blend-mode:multiply">
<g style="mix-blend-mode:multiply">
<path d="M7.73283 120.699C7.73283 121.473 7.51177 122.229 7.0976 122.873C6.68343 123.516 6.09473 124.017 5.40599 124.313C4.71725 124.61 3.95941 124.687 3.22825 124.536C2.49709 124.385 1.82545 124.013 1.29831 123.465C0.771174 122.918 0.412205 122.221 0.266768 121.462C0.121332 120.704 0.195952 119.917 0.481236 119.202C0.766521 118.487 1.24963 117.876 1.86947 117.446C2.48932 117.017 3.21809 116.787 3.96357 116.787C4.96324 116.787 5.92197 117.199 6.62883 117.933C7.3357 118.667 7.73283 119.662 7.73283 120.699Z" fill="#5642CF"/>
</g>
</g>
<g style="mix-blend-mode:multiply">
<g style="mix-blend-mode:multiply">
<path d="M21.1279 120.699C21.1279 121.473 20.9068 122.229 20.4926 122.873C20.0784 123.516 19.4898 124.017 18.801 124.313C18.1123 124.61 17.3544 124.687 16.6232 124.536C15.8921 124.385 15.2205 124.013 14.6933 123.465C14.1662 122.918 13.8072 122.221 13.6618 121.462C13.5164 120.704 13.591 119.917 13.8763 119.202C14.1615 118.487 14.6447 117.876 15.2645 117.446C15.8844 117.017 16.6131 116.787 17.3586 116.787C18.3583 116.787 19.317 117.199 20.0238 117.933C20.7307 118.667 21.1279 119.662 21.1279 120.699Z" fill="#5642CF"/>
</g>
</g>
<g style="mix-blend-mode:multiply">
<g style="mix-blend-mode:multiply">
<path d="M34.5224 120.699C34.5224 121.473 34.3013 122.229 33.8871 122.873C33.473 123.516 32.8843 124.017 32.1955 124.313C31.5068 124.61 30.749 124.687 30.0178 124.536C29.2866 124.385 28.615 124.013 28.0879 123.465C27.5608 122.918 27.2017 122.221 27.0563 121.462C26.9109 120.704 26.9855 119.917 27.2708 119.202C27.5561 118.487 28.0392 117.876 28.6591 117.446C29.2789 117.017 30.0076 116.787 30.7531 116.787C31.7528 116.787 32.7115 117.199 33.4184 117.933C34.1253 118.667 34.5224 119.662 34.5224 120.699Z" fill="#5642CF"/>
</g>
</g>
<g style="mix-blend-mode:multiply">
<g style="mix-blend-mode:multiply">
<path d="M47.9443 120.699C47.9443 121.473 47.7232 122.229 47.309 122.873C46.8949 123.516 46.3062 124.017 45.6175 124.313C44.9287 124.61 44.1708 124.687 43.4397 124.536C42.7085 124.385 42.0369 124.013 41.5098 123.465C40.9826 122.918 40.6236 122.221 40.4782 121.462C40.3327 120.704 40.4074 119.917 40.6927 119.202C40.978 118.487 41.4611 117.876 42.0809 117.446C42.7008 117.017 43.4295 116.787 44.175 116.787C45.1747 116.787 46.1334 117.199 46.8403 117.933C47.5471 118.667 47.9443 119.662 47.9443 120.699Z" fill="#5642CF"/>
</g>
</g>
<g style="mix-blend-mode:multiply">
<g style="mix-blend-mode:multiply">
<path d="M61.3217 120.699C61.3217 121.473 61.1007 122.229 60.6865 122.873C60.2723 123.516 59.6837 124.017 58.9949 124.313C58.3062 124.61 57.5483 124.687 56.8171 124.536C56.086 124.385 55.4144 124.013 54.8872 123.465C54.3601 122.918 54.0011 122.221 53.8556 121.462C53.7102 120.704 53.7849 119.917 54.0701 119.202C54.3554 118.487 54.8385 117.876 55.4584 117.446C56.0782 117.017 56.807 116.787 57.5524 116.787C58.5521 116.787 59.5108 117.199 60.2177 117.933C60.9246 118.667 61.3217 119.662 61.3217 120.699Z" fill="#5642CF"/>
</g>
</g>
<g style="mix-blend-mode:multiply">
<g style="mix-blend-mode:multiply">
<path d="M74.7168 120.699C74.7168 121.473 74.4958 122.229 74.0816 122.873C73.6674 123.516 73.0787 124.017 72.39 124.313C71.7012 124.61 70.9434 124.687 70.2122 124.536C69.481 124.385 68.8094 124.013 68.2822 123.465C67.7551 122.918 67.3961 122.221 67.2507 121.462C67.1052 120.704 67.1798 119.917 67.4651 119.202C67.7504 118.487 68.2336 117.876 68.8534 117.446C69.4733 117.017 70.202 116.787 70.9475 116.787C71.9472 116.787 72.9059 117.199 73.6128 117.933C74.3197 118.667 74.7168 119.662 74.7168 120.699Z" fill="#5642CF"/>
</g>
</g>
<g style="mix-blend-mode:multiply">
<g style="mix-blend-mode:multiply">
<path d="M88.1122 120.699C88.1122 121.473 87.8912 122.229 87.477 122.873C87.0628 123.516 86.4742 124.017 85.7854 124.313C85.0967 124.61 84.3388 124.687 83.6076 124.536C82.8765 124.385 82.2049 124.013 81.6777 123.465C81.1506 122.918 80.7916 122.221 80.6462 121.462C80.5007 120.704 80.5753 119.917 80.8606 119.202C81.1459 118.487 81.629 117.876 82.2489 117.446C82.8687 117.017 83.5975 116.787 84.343 116.787C85.3427 116.787 86.3014 117.199 87.0083 117.933C87.7151 118.667 88.1122 119.662 88.1122 120.699Z" fill="#5642CF"/>
</g>
</g>
<g style="mix-blend-mode:multiply">
<g style="mix-blend-mode:multiply">
<path d="M101.506 120.699C101.506 121.473 101.285 122.23 100.87 122.874C100.456 123.517 99.8666 124.018 99.1774 124.314C98.4881 124.61 97.7299 124.687 96.9985 124.535C96.2671 124.384 95.5955 124.01 95.0687 123.462C94.5419 122.914 94.1836 122.216 94.0391 121.457C93.8947 120.697 93.9706 119.91 94.2572 119.196C94.5439 118.481 95.0283 117.871 95.6494 117.442C96.2704 117.013 97 116.785 97.7458 116.787C98.744 116.79 99.7004 117.203 100.405 117.936C101.11 118.67 101.506 119.663 101.506 120.699Z" fill="#5642CF"/>
</g>
</g>
<g style="mix-blend-mode:multiply">
<g style="mix-blend-mode:multiply">
<path d="M114.875 120.699C114.875 121.473 114.654 122.229 114.24 122.873C113.826 123.516 113.237 124.017 112.548 124.313C111.859 124.61 111.102 124.687 110.37 124.536C109.639 124.385 108.968 124.013 108.44 123.465C107.913 122.918 107.554 122.221 107.409 121.462C107.263 120.704 107.338 119.917 107.623 119.202C107.909 118.487 108.392 117.876 109.012 117.446C109.631 117.017 110.36 116.787 111.106 116.787C112.105 116.787 113.064 117.199 113.771 117.933C114.478 118.667 114.875 119.662 114.875 120.699Z" fill="#5642CF"/>
</g>
</g>
<g style="mix-blend-mode:multiply">
<g style="mix-blend-mode:multiply">
<path d="M128.306 120.699C128.306 121.473 128.085 122.229 127.67 122.873C127.256 123.516 126.668 124.017 125.979 124.313C125.29 124.61 124.532 124.687 123.801 124.536C123.07 124.385 122.398 124.013 121.871 123.465C121.344 122.918 120.985 122.221 120.84 121.462C120.694 120.704 120.769 119.917 121.054 119.202C121.339 118.487 121.822 117.876 122.442 117.446C123.062 117.017 123.791 116.787 124.536 116.787C125.536 116.787 126.495 117.199 127.202 117.933C127.908 118.667 128.306 119.662 128.306 120.699Z" fill="#5642CF"/>
</g>
</g>
</g>
</g>
</g>
</svg>
