<svg width="32" height="32" viewBox="0 0 32 32" fill="none" xmlns="http://www.w3.org/2000/svg">
<ellipse cx="16" cy="16" rx="16" ry="16" fill="#FDFDFD"/>
<path d="M21.9213 9.40732H21.1864V8.67241C21.1864 8.26821 20.8557 7.9375 20.4515 7.9375C20.0473 7.9375 19.7166 8.26821 19.7166 8.67241V9.40732H12.3675V8.67241C12.3675 8.26821 12.0368 7.9375 11.6326 7.9375C11.2284 7.9375 10.8977 8.26821 10.8977 8.67241V9.40732H10.1628C9.35441 9.40732 8.69299 10.0687 8.69299 10.8771V22.6357C8.69299 23.4441 9.35441 24.1055 10.1628 24.1055H21.9213C22.7297 24.1055 23.3912 23.4441 23.3912 22.6357V10.8771C23.3912 10.0687 22.7297 9.40732 21.9213 9.40732ZM21.1864 22.6357H10.8977C10.4935 22.6357 10.1628 22.305 10.1628 21.9008V13.0819H21.9213V21.9008C21.9213 22.305 21.5906 22.6357 21.1864 22.6357Z" fill="#3A3748"/>
</svg>
