<svg width="32" height="32" viewBox="0 0 32 32" fill="none" xmlns="http://www.w3.org/2000/svg">
<ellipse cx="16" cy="16" rx="16" ry="16" fill="#FDFDFD"/>
<path d="M16.1928 9C12.2184 9 9 12.399 9 16.587C9 20.7751 12.2184 24.1741 16.1928 24.1741C20.1744 24.1741 23.4 20.7751 23.4 16.587C23.4 12.399 20.1744 9 16.1928 9ZM16.2 22.6567C13.0176 22.6567 10.44 19.9405 10.44 16.587C10.44 13.2336 13.0176 10.5174 16.2 10.5174C19.3824 10.5174 21.96 13.2336 21.96 16.587C21.96 19.9405 19.3824 22.6567 16.2 22.6567ZM16.0416 12.7935H15.9984C15.7104 12.7935 15.48 13.0363 15.48 13.3398V16.9209C15.48 17.1864 15.6096 17.4368 15.8328 17.5734L18.8208 19.4625C19.0656 19.6143 19.3824 19.5384 19.5264 19.2804C19.6776 19.0225 19.5984 18.6811 19.3464 18.5293L16.56 16.7843V13.3398C16.56 13.0363 16.3296 12.7935 16.0416 12.7935Z" fill="#3A3748"/>
</svg>
