<svg width="40" height="40" viewBox="0 0 40 40" fill="none" xmlns="http://www.w3.org/2000/svg">
<g clip-path="url(#clip0)">
<path d="M38.476 27.6466C42.703 17.4418 37.857 5.74239 27.6521 1.51539C17.4472 -2.71162 5.74786 2.13442 1.52086 12.3393C-2.70615 22.5442 2.13989 34.2436 12.3448 38.4706C22.5497 42.6976 34.249 37.8515 38.476 27.6466Z" fill="white" fill-opacity="0.21"/>
<path d="M27.2837 25.3167L28.1337 20.0833H22.0837V16.0833C22.0837 14.4167 22.517 13.2667 24.8837 13.2667H28.3337V7.98333C26.9183 7.68985 25.4788 7.52805 24.0337 7.5C19.6837 7.5 16.8003 10.3667 16.8003 15.25V20.0833H11.667V25.3167H16.9003V39.75C17.9255 39.9147 18.962 39.9983 20.0003 40C20.7003 40 21.4003 40 22.0837 39.9V25.3167H27.2837Z" fill="#3A3748"/>
</g>
<defs>
<clipPath id="clip0">
<rect width="40" height="40" fill="white"/>
</clipPath>
</defs>
</svg>
