<svg width="221" height="206" viewBox="0 0 221 206" fill="none" xmlns="http://www.w3.org/2000/svg">
<mask id="mask0" mask-type="alpha" maskUnits="userSpaceOnUse" x="20" y="24" width="181" height="157">
<ellipse rx="78.8226" ry="89.2442" transform="matrix(0.295521 -0.955336 0.974107 0.226089 110.227 102.854)" fill="#C4C4C4"/>
</mask>
<g mask="url(#mask0)">
<g style="mix-blend-mode:multiply">
<g style="mix-blend-mode:multiply">
<g style="mix-blend-mode:multiply">
<g style="mix-blend-mode:multiply">
<path d="M16.1552 48.5408C17.1356 48.7393 17.9979 49.2094 18.6329 49.8918C19.268 50.5741 19.6472 51.4379 19.7227 52.3739C19.7981 53.3099 19.5664 54.276 19.0568 55.1498C18.5472 56.0236 17.7826 56.766 16.8599 57.2828C15.9372 57.7997 14.8978 58.0678 13.8733 58.0533C12.8488 58.0389 11.8852 57.7423 11.1045 57.2014C10.3238 56.6604 9.76114 55.8994 9.4877 55.0145C9.21427 54.1296 9.24236 53.1606 9.56842 52.2303C9.7831 51.6131 10.1239 51.028 10.5713 50.5084C11.0188 49.9888 11.564 49.5448 12.1759 49.2021C12.7877 48.8594 13.4541 48.6246 14.1369 48.5111C14.8198 48.3976 15.5056 48.4077 16.1552 48.5408Z" fill="#008000"/>
</g>
</g>
<g style="mix-blend-mode:multiply">
<g style="mix-blend-mode:multiply">
<path d="M21.1106 32.5222C22.0914 32.7208 22.9541 33.1914 23.5892 33.8742C24.2243 34.5571 24.6033 35.4216 24.6782 36.3581C24.7531 37.2947 24.5204 38.2612 24.0098 39.1351C23.4992 40.009 22.7335 40.7511 21.8098 41.2672C20.8861 41.7834 19.8459 42.0505 18.821 42.0347C17.7962 42.0188 16.8328 41.7206 16.0529 41.178C15.273 40.6354 14.7118 39.8728 14.4402 38.9867C14.1687 38.1007 14.1991 37.1311 14.5276 36.2008C14.9636 34.9568 15.9021 33.8704 17.1367 33.1806C18.3712 32.4907 19.8007 32.2539 21.1106 32.5222Z" fill="#008000"/>
</g>
</g>
<g style="mix-blend-mode:multiply">
<g style="mix-blend-mode:multiply">
<path d="M26.0561 16.535C27.0364 16.7335 27.8987 17.2037 28.5338 17.886C29.1688 18.5684 29.548 19.4322 29.6235 20.3682C29.6989 21.3042 29.4672 22.2702 28.9576 23.144C28.448 24.0178 27.6835 24.7601 26.7608 25.277C25.8381 25.7938 24.7987 26.0619 23.7742 26.0475C22.7496 26.033 21.786 25.7365 21.0053 25.1956C20.2247 24.6546 19.662 23.8935 19.3886 23.0086C19.1151 22.1237 19.1432 21.1549 19.4693 20.2246C19.9056 18.9796 20.8441 17.892 22.0789 17.2004C23.3138 16.5087 24.7441 16.2694 26.0561 16.535Z" fill="#008000"/>
</g>
</g>
<g style="mix-blend-mode:multiply">
<g style="mix-blend-mode:multiply">
<path d="M18.5079 117.773C19.487 117.974 20.3474 118.446 20.9804 119.129C21.6135 119.813 21.9906 120.677 22.0642 121.613C22.1378 122.548 21.9045 123.514 21.3939 124.387C20.8832 125.259 20.1182 126.001 19.1954 126.516C18.2726 127.032 17.2336 127.299 16.2098 127.284C15.1859 127.268 14.2232 126.971 13.4434 126.43C12.6635 125.889 12.1016 125.128 11.8286 124.244C11.5556 123.359 11.5838 122.391 11.9097 121.461C12.3467 120.214 13.2874 119.125 14.5248 118.433C15.7622 117.742 17.1949 117.505 18.5079 117.773Z" fill="#008000"/>
</g>
</g>
<g style="mix-blend-mode:multiply">
<g style="mix-blend-mode:multiply">
<path d="M23.4727 101.724C24.4518 101.924 25.3123 102.396 25.9453 103.079C26.5783 103.763 26.9555 104.627 27.0291 105.563C27.1026 106.499 26.8694 107.464 26.3587 108.337C25.8481 109.21 25.083 109.951 24.1603 110.466C23.2375 110.982 22.1985 111.249 21.1746 111.234C20.1508 111.219 19.1881 110.922 18.4082 110.38C17.6284 109.839 17.0664 109.078 16.7934 108.194C16.5205 107.309 16.5487 106.341 16.8746 105.411C17.0896 104.793 17.4311 104.207 17.8795 103.687C18.3279 103.166 18.8743 102.722 19.4874 102.38C20.1005 102.037 20.7682 101.803 21.4521 101.69C22.136 101.578 22.8227 101.589 23.4727 101.724Z" fill="#008000"/>
</g>
</g>
<g style="mix-blend-mode:multiply">
<g style="mix-blend-mode:multiply">
<path d="M28.4212 85.7248C29.4003 85.9253 30.2607 86.3971 30.8937 87.0805C31.5268 87.7638 31.9039 88.628 31.9775 89.5638C32.0511 90.4996 31.8178 91.465 31.3072 92.3378C30.7965 93.2106 30.0315 93.9517 29.1087 94.4674C28.186 94.9831 27.1469 95.2502 26.1231 95.2349C25.0992 95.2195 24.1365 94.9225 23.3567 94.3814C22.5768 93.8403 22.0149 93.0793 21.7419 92.1948C21.4689 91.3102 21.4971 90.3418 21.823 89.412C22.26 88.1652 23.2007 87.0762 24.4381 86.3847C25.6755 85.6932 27.1082 85.4558 28.4212 85.7248Z" fill="#008000"/>
</g>
</g>
<g style="mix-blend-mode:multiply">
<g style="mix-blend-mode:multiply">
<path d="M33.3767 69.7062C34.3558 69.9067 35.2163 70.3785 35.8493 71.0619C36.4823 71.7452 36.8595 72.6095 36.9331 73.5453C37.0067 74.4811 36.7734 75.4464 36.2628 76.3192C35.7521 77.1921 34.9871 77.9332 34.0643 78.4489C33.1415 78.9646 32.1025 79.2316 31.0787 79.2163C30.0548 79.201 29.0921 78.904 28.3122 78.3629C27.5324 77.8218 26.9705 77.0607 26.6975 76.1762C26.4245 75.2916 26.4527 74.3233 26.7786 73.3934C27.2156 72.1466 28.1563 71.0576 29.3937 70.3661C30.631 69.6746 32.0638 69.4372 33.3767 69.7062Z" fill="#008000"/>
</g>
</g>
<g style="mix-blend-mode:multiply">
<g style="mix-blend-mode:multiply">
<path d="M38.3321 53.6876C39.3111 53.8882 40.1716 54.36 40.8046 55.0433C41.4377 55.7267 41.8148 56.5909 41.8884 57.5267C41.962 58.4625 41.7287 59.4279 41.2181 60.3007C40.7074 61.1736 39.9424 61.9147 39.0196 62.4303C38.0969 62.946 37.0579 63.2131 36.034 63.1977C35.0101 63.1824 34.0474 62.8855 33.2676 62.3443C32.4877 61.8032 31.9258 61.0423 31.6528 60.1577C31.3798 59.2731 31.4081 58.3047 31.7339 57.3748C31.949 56.7567 32.2904 56.1708 32.7388 55.6506C33.1872 55.1304 33.7336 54.6862 34.3467 54.3436C34.9598 54.001 35.6275 53.7667 36.3114 53.6541C36.9954 53.5415 37.682 53.5529 38.3321 53.6876Z" fill="#008000"/>
</g>
</g>
<g style="mix-blend-mode:multiply">
<g style="mix-blend-mode:multiply">
<path d="M43.2867 37.669C44.2663 37.8697 45.1271 38.3419 45.7602 39.0258C46.3933 39.7097 46.7702 40.5745 46.8432 41.5109C46.9162 42.4473 46.6821 43.413 46.1704 44.286C45.6587 45.1589 44.8925 45.8998 43.9687 46.4147C43.045 46.9297 42.0052 47.1958 40.981 47.1791C39.9568 47.1624 38.9943 46.8637 38.2152 46.3209C37.4362 45.7781 36.8756 45.0157 36.6045 44.13C36.3335 43.2442 36.3641 42.2751 36.6924 41.3453C36.9086 40.7285 37.2508 40.1438 37.6995 39.6251C38.1481 39.1063 38.6943 38.6635 39.3068 38.322C39.9193 37.9805 40.5862 37.747 41.2691 37.635C41.9521 37.523 42.6376 37.5345 43.2867 37.669Z" fill="#008000"/>
</g>
</g>
<g style="mix-blend-mode:multiply">
<g style="mix-blend-mode:multiply">
<path d="M48.2324 21.6818C49.2115 21.8824 50.072 22.3541 50.705 23.0375C51.338 23.7208 51.7152 24.585 51.7888 25.5208C51.8624 26.4566 51.6291 27.422 51.1185 28.2948C50.6078 29.1677 49.8428 29.9088 48.92 30.4244C47.9973 30.9401 46.9582 31.2072 45.9344 31.1919C44.9105 31.1766 43.9478 30.8795 43.168 30.3384C42.3881 29.7973 41.8262 29.0364 41.5532 28.1518C41.2802 27.2673 41.3084 26.2989 41.6343 25.369C42.0713 24.1222 43.012 23.0332 44.2494 22.3417C45.4868 21.6502 46.9195 21.4128 48.2324 21.6818Z" fill="#008000"/>
</g>
</g>
<g style="mix-blend-mode:multiply">
<g style="mix-blend-mode:multiply">
<path d="M25.7796 170.979C26.7586 171.179 27.619 171.651 28.252 172.334C28.885 173.018 29.2622 173.882 29.3357 174.818C29.4093 175.753 29.176 176.719 28.6654 177.592C28.1548 178.464 27.3897 179.206 26.467 179.721C25.5442 180.237 24.5053 180.504 23.4814 180.489C22.4576 180.473 21.495 180.176 20.7152 179.635C19.9354 179.094 19.3735 178.333 19.1005 177.449C18.8275 176.564 18.8558 175.596 19.1817 174.666C19.6187 173.419 20.5594 172.33 21.7967 171.639C23.034 170.947 24.4667 170.71 25.7796 170.979Z" fill="#008000"/>
</g>
</g>
<g style="mix-blend-mode:multiply">
<g style="mix-blend-mode:multiply">
<path d="M30.7381 154.949C31.7171 155.15 32.5775 155.622 33.2105 156.305C33.8435 156.988 34.2207 157.853 34.2942 158.788C34.3678 159.724 34.1345 160.689 33.6239 161.562C33.1133 162.435 32.3482 163.176 31.4255 163.692C30.5027 164.208 29.4638 164.475 28.44 164.459C27.4161 164.444 26.4535 164.147 25.6737 163.606C24.8939 163.065 24.3319 162.304 24.059 161.419C23.786 160.535 23.8143 159.566 24.1402 158.637C24.5772 157.39 25.5179 156.301 26.7552 155.609C27.9926 154.918 29.4252 154.68 30.7381 154.949Z" fill="#008000"/>
</g>
</g>
<g style="mix-blend-mode:multiply">
<g style="mix-blend-mode:multiply">
<path d="M35.6934 138.931C36.6724 139.131 37.5328 139.603 38.1658 140.286C38.7988 140.97 39.176 141.834 39.2496 142.77C39.3231 143.706 39.0898 144.671 38.5792 145.544C38.0686 146.417 37.3035 147.158 36.3808 147.673C35.4581 148.189 34.4191 148.456 33.3953 148.441C32.3715 148.426 31.4088 148.129 30.629 147.587C29.8492 147.046 29.2873 146.285 29.0143 145.401C28.7414 144.516 28.7696 143.548 29.0955 142.618C29.5325 141.371 30.4732 140.282 31.7105 139.591C32.9479 138.899 34.3805 138.662 35.6934 138.931Z" fill="#008000"/>
</g>
</g>
<g style="mix-blend-mode:multiply">
<g style="mix-blend-mode:multiply">
<path d="M40.648 122.912C41.627 123.113 42.4875 123.584 43.1204 124.268C43.7534 124.951 44.1306 125.815 44.2041 126.751C44.2777 127.687 44.0445 128.652 43.5338 129.525C43.0232 130.398 42.2581 131.139 41.3354 131.655C40.4127 132.17 39.3737 132.438 38.3499 132.422C37.3261 132.407 36.3634 132.11 35.5836 131.569C34.8038 131.028 34.2419 130.267 33.9689 129.382C33.696 128.498 33.7242 127.529 34.0501 126.599C34.4871 125.353 35.4278 124.264 36.6651 123.572C37.9025 122.881 39.3351 122.643 40.648 122.912Z" fill="#008000"/>
</g>
</g>
<g style="mix-blend-mode:multiply">
<g style="mix-blend-mode:multiply">
<path d="M45.6131 106.862C46.5921 107.063 47.4525 107.535 48.0855 108.218C48.7185 108.901 49.0957 109.766 49.1692 110.701C49.2428 111.637 49.0095 112.603 48.4989 113.475C47.9883 114.348 47.2232 115.089 46.3005 115.605C45.3778 116.121 44.3388 116.388 43.315 116.373C42.2911 116.357 41.3285 116.06 40.5487 115.519C39.7689 114.978 39.207 114.217 38.934 113.332C38.661 112.448 38.6893 111.48 39.0152 110.55C39.4522 109.303 40.3928 108.214 41.6302 107.522C42.8675 106.831 44.3002 106.593 45.6131 106.862Z" fill="#008000"/>
</g>
</g>
<g style="mix-blend-mode:multiply">
<g style="mix-blend-mode:multiply">
<path d="M50.5625 90.8633C51.5416 91.0639 52.402 91.5357 53.035 92.219C53.668 92.9024 54.0451 93.7666 54.1187 94.7024C54.1923 95.6382 53.959 96.6036 53.4484 97.4764C52.9377 98.3492 52.1727 99.0903 51.25 99.606C50.3272 100.122 49.2882 100.389 48.2644 100.373C47.2406 100.358 46.2779 100.061 45.4981 99.52C44.7183 98.9789 44.1564 98.218 43.8835 97.3334C43.6105 96.4489 43.6387 95.4805 43.9646 94.5507C44.4016 93.3038 45.3423 92.2148 46.5796 91.5233C47.817 90.8318 49.2497 90.5944 50.5625 90.8633Z" fill="#008000"/>
</g>
</g>
<g style="mix-blend-mode:multiply">
<g style="mix-blend-mode:multiply">
<path d="M55.5169 74.8449C56.4959 75.0454 57.3563 75.5172 57.9893 76.2005C58.6223 76.8839 58.9994 77.7481 59.073 78.6839C59.1466 79.6197 58.9133 80.585 58.4027 81.4578C57.8921 82.3307 57.127 83.0718 56.2043 83.5875C55.2815 84.1031 54.2426 84.3702 53.2188 84.3549C52.1949 84.3396 51.2323 84.0426 50.4525 83.5015C49.6727 82.9604 49.1108 82.1994 48.8378 81.3149C48.5649 80.4303 48.5931 79.462 48.919 78.5321C49.356 77.2853 50.2967 76.1963 51.534 75.5048C52.7713 74.8133 54.204 74.5759 55.5169 74.8449Z" fill="#008000"/>
</g>
</g>
<g style="mix-blend-mode:multiply">
<g style="mix-blend-mode:multiply">
<path d="M60.4724 58.8263C61.4515 59.0268 62.3119 59.4986 62.9449 60.1819C63.5779 60.8653 63.955 61.7295 64.0286 62.6653C64.1022 63.6011 63.8689 64.5665 63.3583 65.4393C62.8476 66.3122 62.0826 67.0532 61.1598 67.5689C60.2371 68.0846 59.1981 68.3517 58.1743 68.3364C57.1505 68.3211 56.1878 68.0241 55.408 67.483C54.6282 66.9419 54.0663 66.1809 53.7934 65.2964C53.5204 64.4118 53.5487 63.4434 53.8746 62.5135C54.3116 61.2667 55.2522 60.1777 56.4896 59.4862C57.7269 58.7947 59.1596 58.5573 60.4724 58.8263Z" fill="#008000"/>
</g>
</g>
<g style="mix-blend-mode:multiply">
<g style="mix-blend-mode:multiply">
<path d="M65.4268 42.8076C66.4064 43.0083 67.2671 43.4805 67.9002 44.1643C68.5333 44.8482 68.9102 45.7131 68.9832 46.6495C69.0562 47.5859 68.822 48.5516 68.3104 49.4245C67.7987 50.2975 67.0325 51.0384 66.1087 51.5534C65.185 52.0684 64.1453 52.3344 63.1211 52.3177C62.097 52.301 61.1345 52.0023 60.3555 51.4596C59.5765 50.9168 59.016 50.1543 58.7449 49.2686C58.4739 48.3829 58.5044 47.4138 58.8328 46.484C59.2722 45.2396 60.2132 44.1537 61.4494 43.4645C62.6856 42.7753 64.116 42.5391 65.4268 42.8076Z" fill="#008000"/>
</g>
</g>
<g style="mix-blend-mode:multiply">
<g style="mix-blend-mode:multiply">
<path d="M70.3726 26.8204C71.3516 27.021 72.212 27.4927 72.845 28.1761C73.478 28.8594 73.8552 29.7236 73.9288 30.6594C74.0023 31.5952 73.7691 32.5606 73.2584 33.4334C72.7478 34.3063 71.9827 35.0473 71.06 35.563C70.1373 36.0787 69.0983 36.3458 68.0745 36.3305C67.0507 36.3152 66.088 36.0182 65.3082 35.4771C64.5284 34.9359 63.9665 34.175 63.6935 33.2905C63.4206 32.4059 63.4488 31.4375 63.7747 30.5077C64.2117 29.2608 65.1524 28.1719 66.3897 27.4804C67.6271 26.7889 69.0597 26.5515 70.3726 26.8204Z" fill="#008000"/>
</g>
</g>
<g style="mix-blend-mode:multiply">
<g style="mix-blend-mode:multiply">
<path d="M47.9321 176.121C48.9112 176.322 49.7717 176.794 50.4047 177.477C51.0378 178.16 51.4149 179.024 51.4885 179.96C51.5621 180.896 51.3288 181.861 50.8182 182.734C50.3075 183.607 49.5425 184.348 48.6197 184.864C47.697 185.38 46.6579 185.647 45.6341 185.631C44.6102 185.616 43.6475 185.319 42.8677 184.778C42.0878 184.237 41.5259 183.476 41.2529 182.591C40.9799 181.707 41.0082 180.738 41.334 179.808C41.7711 178.562 42.7117 177.473 43.9491 176.781C45.1865 176.09 46.6192 175.852 47.9321 176.121Z" fill="#008000"/>
</g>
</g>
<g style="mix-blend-mode:multiply">
<g style="mix-blend-mode:multiply">
<path d="M52.8904 160.092C53.8695 160.292 54.73 160.764 55.363 161.448C55.996 162.131 56.3732 162.995 56.4468 163.931C56.5204 164.867 56.2871 165.832 55.7764 166.705C55.2658 167.578 54.5007 168.319 53.578 168.835C52.6552 169.35 51.6162 169.617 50.5923 169.602C49.5685 169.587 48.6057 169.29 47.8259 168.749C47.0461 168.207 46.4841 167.447 46.2111 166.562C45.9381 165.677 45.9664 164.709 46.2923 163.779C46.7293 162.532 47.67 161.443 48.9074 160.752C50.1448 160.06 51.5775 159.823 52.8904 160.092Z" fill="#008000"/>
</g>
</g>
<g style="mix-blend-mode:multiply">
<g style="mix-blend-mode:multiply">
<path d="M57.8455 144.073C58.8246 144.274 59.685 144.746 60.3181 145.429C60.9511 146.112 61.3283 146.977 61.4019 147.912C61.4755 148.848 61.2421 149.814 60.7315 150.686C60.2209 151.559 59.4558 152.3 58.533 152.816C57.6103 153.332 56.5713 153.599 55.5474 153.583C54.5236 153.568 53.5608 153.271 52.781 152.73C52.0011 152.189 51.4392 151.428 51.1662 150.543C50.8932 149.659 50.9215 148.69 51.2474 147.761C51.6844 146.514 52.625 145.425 53.8624 144.733C55.0998 144.042 56.5326 143.804 57.8455 144.073Z" fill="#008000"/>
</g>
</g>
<g style="mix-blend-mode:multiply">
<g style="mix-blend-mode:multiply">
<path d="M62.8008 128.054C63.7799 128.254 64.6404 128.726 65.2734 129.409C65.9064 130.093 66.2836 130.957 66.3572 131.893C66.4308 132.829 66.1975 133.794 65.6868 134.667C65.1762 135.54 64.4111 136.281 63.4884 136.796C62.5656 137.312 61.5266 137.579 60.5027 137.564C59.4789 137.549 58.5162 137.252 57.7363 136.71C56.9565 136.169 56.3945 135.408 56.1215 134.524C55.8486 133.639 55.8768 132.671 56.2027 131.741C56.6397 130.494 57.5804 129.405 58.8178 128.714C60.0552 128.022 61.4879 127.785 62.8008 128.054Z" fill="#008000"/>
</g>
</g>
<g style="mix-blend-mode:multiply">
<g style="mix-blend-mode:multiply">
<path d="M67.7659 112.004C68.745 112.205 69.6054 112.676 70.2385 113.36C70.8715 114.043 71.2487 114.907 71.3223 115.843C71.3959 116.779 71.1626 117.744 70.6519 118.617C70.1413 119.49 69.3762 120.231 68.4535 120.747C67.5307 121.262 66.4917 121.529 65.4678 121.514C64.444 121.499 63.4813 121.202 62.7014 120.661C61.9216 120.12 61.3596 119.359 61.0866 118.474C60.8136 117.59 60.8419 116.621 61.1678 115.691C61.6048 114.444 62.5455 113.355 63.7828 112.664C65.0202 111.972 66.453 111.735 67.7659 112.004Z" fill="#008000"/>
</g>
</g>
<g style="mix-blend-mode:multiply">
<g style="mix-blend-mode:multiply">
<path d="M72.7146 96.0059C73.6937 96.2065 74.5542 96.6783 75.1872 97.3617C75.8202 98.045 76.1974 98.9092 76.271 99.845C76.3446 100.781 76.1113 101.746 75.6007 102.619C75.09 103.492 74.325 104.233 73.4022 104.749C72.4794 105.264 71.4404 105.531 70.4166 105.516C69.3927 105.501 68.43 105.204 67.6501 104.663C66.8703 104.122 66.3083 103.361 66.0354 102.476C65.7624 101.591 65.7906 100.623 66.1165 99.6932C66.5535 98.4463 67.4942 97.3574 68.7316 96.6659C69.969 95.9744 71.4017 95.737 72.7146 96.0059Z" fill="#008000"/>
</g>
</g>
<g style="mix-blend-mode:multiply">
<g style="mix-blend-mode:multiply">
<path d="M77.6699 79.9864C78.649 80.187 79.5095 80.6588 80.1425 81.3421C80.7755 82.0255 81.1527 82.8898 81.2263 83.8256C81.2999 84.7614 81.0666 85.7267 80.556 86.5995C80.0453 87.4723 79.2803 88.2135 78.3575 88.7292C77.4347 89.2448 76.3957 89.5119 75.3719 89.4966C74.348 89.4813 73.3853 89.1843 72.6054 88.6432C71.8256 88.102 71.2637 87.341 70.9907 86.4565C70.7177 85.5719 70.7459 84.6035 71.0718 83.6737C71.5088 82.4268 72.4495 81.3379 73.6869 80.6464C74.9243 79.9549 76.357 79.7175 77.6699 79.9864Z" fill="#008000"/>
</g>
</g>
<g style="mix-blend-mode:multiply">
<g style="mix-blend-mode:multiply">
<path d="M82.6253 63.9679C83.6044 64.1685 84.4648 64.6402 85.0978 65.3236C85.7309 66.007 86.1081 66.8711 86.1817 67.807C86.2552 68.7428 86.0219 69.7082 85.5113 70.581C85.0006 71.4538 84.2356 72.1949 83.3128 72.7106C82.3901 73.2263 81.3511 73.4933 80.3272 73.478C79.3033 73.4627 78.3406 73.1657 77.5608 72.6246C76.7809 72.0835 76.219 71.3225 75.946 70.438C75.673 69.5534 75.7013 68.5849 76.0272 67.6551C76.4642 66.4082 77.4049 65.3193 78.6422 64.6278C79.8796 63.9363 81.3123 63.6989 82.6253 63.9679Z" fill="#008000"/>
</g>
</g>
<g style="mix-blend-mode:multiply">
<g style="mix-blend-mode:multiply">
<path d="M87.5806 47.9493C88.5602 48.15 89.421 48.6222 90.0541 49.306C90.6872 49.9899 91.0642 50.8548 91.1372 51.7912C91.2102 52.7276 90.9761 53.6933 90.4644 54.5662C89.9527 55.4392 89.1864 56.18 88.2627 56.695C87.3389 57.21 86.2991 57.476 85.275 57.4593C84.2508 57.4426 83.2883 57.144 82.5092 56.6012C81.7302 56.0584 81.1696 55.2959 80.8985 54.4102C80.6275 53.5245 80.658 52.5554 80.9864 51.6256C81.4258 50.3813 82.3668 49.2954 83.603 48.6062C84.8392 47.917 86.2697 47.6808 87.5806 47.9493Z" fill="#008000"/>
</g>
</g>
<g style="mix-blend-mode:multiply">
<g style="mix-blend-mode:multiply">
<path d="M92.5247 31.963C93.5038 32.1636 94.3642 32.6354 94.9972 33.3187C95.6303 34.0021 96.0075 34.8663 96.0811 35.8021C96.1547 36.7379 95.9213 37.7033 95.4107 38.5761C94.9001 39.4489 94.135 40.19 93.2122 40.7057C92.2895 41.2213 91.2505 41.4884 90.2266 41.4731C89.2027 41.4578 88.24 41.1608 87.4602 40.6197C86.6803 40.0785 86.1184 39.3176 85.8454 38.4331C85.5724 37.5485 85.6007 36.5801 85.9266 35.6503C86.3636 34.4034 87.3043 33.3145 88.5416 32.623C89.779 31.9315 91.2118 31.6941 92.5247 31.963Z" fill="#008000"/>
</g>
</g>
<g style="mix-blend-mode:multiply">
<g style="mix-blend-mode:multiply">
<path d="M97.4929 15.9015C98.472 16.1021 99.3325 16.5739 99.9655 17.2572C100.599 17.9406 100.976 18.8048 101.049 19.7406C101.123 20.6764 100.89 21.6417 100.379 22.5146C99.8683 23.3874 99.1033 24.1285 98.1805 24.6441C97.2577 25.1598 96.2187 25.4269 95.1949 25.4116C94.171 25.3963 93.2083 25.0993 92.4285 24.5581C91.6486 24.017 91.0867 23.2561 90.8137 22.3715C90.5407 21.487 90.5689 20.5186 90.8948 19.5888C91.3318 18.3419 92.2725 17.2529 93.5099 16.5615C94.7473 15.87 96.18 15.6326 97.4929 15.9015Z" fill="#008000"/>
</g>
</g>
<g style="mix-blend-mode:multiply">
<g style="mix-blend-mode:multiply">
<path d="M73.4032 186.97C74.3132 184.374 72.8345 181.815 70.1005 181.255C67.3664 180.695 64.4123 182.346 63.5022 184.942C62.5922 187.539 64.0709 190.098 66.805 190.658C69.539 191.218 72.4932 189.567 73.4032 186.97Z" fill="#008000"/>
</g>
</g>
<g style="mix-blend-mode:multiply">
<g style="mix-blend-mode:multiply">
<path d="M78.3588 170.952C79.2688 168.355 77.7901 165.796 75.0561 165.236C72.322 164.676 69.3679 166.327 68.4578 168.924C67.5478 171.52 69.0265 174.079 71.7605 174.639C74.4946 175.199 77.4487 173.548 78.3588 170.952Z" fill="#008000"/>
</g>
</g>
<g style="mix-blend-mode:multiply">
<g style="mix-blend-mode:multiply">
<path d="M79.9993 149.214C80.9784 149.415 81.8389 149.886 82.472 150.57C83.105 151.253 83.4822 152.117 83.5558 153.053C83.6295 153.989 83.3961 154.954 82.8855 155.827C82.3748 156.7 81.6098 157.441 80.687 157.957C79.7642 158.472 78.7251 158.739 77.7012 158.724C76.6773 158.709 75.7146 158.412 74.9347 157.871C74.1548 157.33 73.5928 156.569 73.3198 155.684C73.0468 154.8 73.075 153.831 73.4009 152.901C73.8379 151.654 74.7786 150.565 76.0161 149.874C77.2535 149.182 78.6863 148.945 79.9993 149.214Z" fill="#008000"/>
</g>
</g>
<g style="mix-blend-mode:multiply">
<g style="mix-blend-mode:multiply">
<path d="M84.9546 133.195C85.9337 133.396 86.7942 133.868 87.4273 134.551C88.0604 135.234 88.4376 136.099 88.5112 137.035C88.5848 137.97 88.3515 138.936 87.8408 139.809C87.3302 140.681 86.5651 141.422 85.6423 141.938C84.7195 142.454 83.6804 142.721 82.6566 142.706C81.6327 142.69 80.6699 142.393 79.89 141.852C79.1101 141.311 78.5482 140.55 78.2751 139.665C78.0021 138.781 78.0304 137.812 78.3563 136.883C78.7933 135.636 79.734 134.547 80.9714 133.855C82.2089 133.164 83.6416 132.926 84.9546 133.195Z" fill="#008000"/>
</g>
</g>
<g style="mix-blend-mode:multiply">
<g style="mix-blend-mode:multiply">
<path d="M89.9194 117.145C90.8986 117.345 91.7591 117.817 92.3921 118.5C93.0252 119.184 93.4024 120.048 93.476 120.984C93.5496 121.92 93.3163 122.885 92.8057 123.758C92.295 124.631 91.53 125.372 90.6072 125.887C89.6844 126.403 88.6453 126.67 87.6214 126.655C86.5975 126.64 85.6347 126.342 84.8549 125.801C84.075 125.26 83.513 124.499 83.24 123.615C82.967 122.73 82.9952 121.762 83.3211 120.832C83.7581 119.585 84.6988 118.496 85.9362 117.805C87.1737 117.113 88.6065 116.876 89.9194 117.145Z" fill="#008000"/>
</g>
</g>
<g style="mix-blend-mode:multiply">
<g style="mix-blend-mode:multiply">
<path d="M94.8682 101.147C95.8473 101.347 96.7078 101.819 97.3409 102.502C97.9739 103.186 98.3511 104.05 98.4247 104.986C98.4984 105.922 98.2651 106.887 97.7544 107.76C97.2437 108.633 96.4787 109.374 95.5559 109.889C94.6331 110.405 93.594 110.672 92.5701 110.657C91.5462 110.641 90.5835 110.344 89.8036 109.803C89.0237 109.262 88.4617 108.501 88.1887 107.617C87.9157 106.732 87.9439 105.764 88.2698 104.834C88.7068 103.587 89.6475 102.498 90.885 101.807C92.1224 101.115 93.5552 100.878 94.8682 101.147Z" fill="#008000"/>
</g>
</g>
<g style="mix-blend-mode:multiply">
<g style="mix-blend-mode:multiply">
<path d="M103.138 90.8464C104.048 88.2499 102.57 85.6911 99.8356 85.131C97.1015 84.571 94.1474 86.2218 93.2374 88.8182C92.3273 91.4147 93.806 93.9736 96.5401 94.5336C99.2741 95.0937 102.228 93.4429 103.138 90.8464Z" fill="#008000"/>
</g>
</g>
<g style="mix-blend-mode:multiply">
<g style="mix-blend-mode:multiply">
<path d="M108.096 74.818C109.006 72.2216 107.528 69.6627 104.794 69.1026C102.06 68.5426 99.1054 70.1934 98.1954 72.7899C97.2853 75.3864 98.764 77.9452 101.498 78.5053C104.232 79.0654 107.186 77.4145 108.096 74.818Z" fill="#008000"/>
</g>
</g>
<g style="mix-blend-mode:multiply">
<g style="mix-blend-mode:multiply">
<path d="M109.734 53.0899C110.714 53.2906 111.575 53.7628 112.208 54.4467C112.841 55.1306 113.218 55.9955 113.291 56.9319C113.364 57.8683 113.13 58.834 112.618 59.7069C112.107 60.5799 111.34 61.3207 110.417 61.8357C109.493 62.3507 108.453 62.6167 107.429 62.6C106.405 62.5833 105.442 62.2846 104.663 61.7419C103.884 61.1991 103.323 60.4366 103.052 59.5509C102.781 58.6651 102.812 57.696 103.14 56.7662C103.579 55.5218 104.52 54.436 105.757 53.7468C106.993 53.0576 108.423 52.8213 109.734 53.0899Z" fill="#008000"/>
</g>
</g>
<g style="mix-blend-mode:multiply">
<g style="mix-blend-mode:multiply">
<path d="M114.679 37.1037C115.658 37.3042 116.519 37.776 117.152 38.4594C117.785 39.1427 118.162 40.0069 118.236 40.9428C118.309 41.8786 118.076 42.844 117.565 43.7168C117.055 44.5896 116.29 45.3307 115.367 45.8464C114.444 46.362 113.405 46.6292 112.381 46.6138C111.357 46.5985 110.395 46.3015 109.615 45.7603C108.835 45.2192 108.273 44.4582 108 43.5737C107.727 42.6891 107.755 41.7207 108.081 40.7909C108.518 39.544 109.459 38.4551 110.696 37.7636C111.933 37.0721 113.366 36.8347 114.679 37.1037Z" fill="#008000"/>
</g>
</g>
<g style="mix-blend-mode:multiply">
<g style="mix-blend-mode:multiply">
<path d="M119.646 21.0431C120.625 21.2437 121.486 21.7155 122.119 22.3988C122.752 23.0822 123.129 23.9464 123.203 24.8822C123.276 25.818 123.043 26.7834 122.532 27.6562C122.022 28.5291 121.257 29.2702 120.334 29.7858C119.411 30.3015 118.372 30.5686 117.348 30.5533C116.324 30.538 115.361 30.2409 114.581 29.6998C113.802 29.1586 113.24 28.3977 112.967 27.5131C112.694 26.6286 112.722 25.6602 113.048 24.7303C113.485 23.4835 114.425 22.3945 115.663 21.703C116.9 21.0115 118.333 20.7741 119.646 21.0431Z" fill="#008000"/>
</g>
</g>
<g style="mix-blend-mode:multiply">
<g style="mix-blend-mode:multiply">
<path d="M100.511 176.093C101.421 173.497 99.9424 170.938 97.2083 170.378C94.4742 169.818 91.52 171.469 90.6099 174.065C89.6999 176.662 91.1786 179.221 93.9127 179.781C96.6469 180.341 99.601 178.69 100.511 176.093Z" fill="#008000"/>
</g>
</g>
<g style="mix-blend-mode:multiply">
<g style="mix-blend-mode:multiply">
<path d="M102.152 154.356C103.133 154.555 103.995 155.025 104.63 155.707C105.265 156.39 105.644 157.253 105.72 158.189C105.795 159.125 105.563 160.091 105.054 160.965C104.544 161.839 103.78 162.581 102.857 163.098C101.934 163.615 100.895 163.883 99.8703 163.869C98.8458 163.854 97.8822 163.558 97.1015 163.017C96.3209 162.476 95.7582 161.715 95.4848 160.83C95.2113 159.945 95.2394 158.976 95.5655 158.046C96.0018 156.801 96.9403 155.713 98.1752 155.021C99.41 154.33 100.84 154.091 102.152 154.356Z" fill="#008000"/>
</g>
</g>
<g style="mix-blend-mode:multiply">
<g style="mix-blend-mode:multiply">
<path d="M107.107 138.338C108.087 138.536 108.949 139.006 109.584 139.689C110.219 140.371 110.599 141.235 110.674 142.171C110.75 143.107 110.518 144.073 110.008 144.947C109.499 145.82 108.734 146.563 107.811 147.08C106.889 147.596 105.849 147.865 104.825 147.85C103.8 147.836 102.837 147.539 102.056 146.998C101.275 146.457 100.713 145.696 100.439 144.811C100.166 143.926 100.194 142.957 100.52 142.027C100.956 140.782 101.895 139.695 103.129 139.003C104.364 138.311 105.795 138.072 107.107 138.338Z" fill="#008000"/>
</g>
</g>
<g style="mix-blend-mode:multiply">
<g style="mix-blend-mode:multiply">
<path d="M112.072 122.288C113.052 122.486 113.914 122.956 114.549 123.639C115.184 124.321 115.564 125.185 115.639 126.121C115.715 127.057 115.483 128.023 114.973 128.897C114.464 129.771 113.699 130.513 112.776 131.03C111.854 131.547 110.814 131.815 109.79 131.8C108.765 131.786 107.802 131.489 107.021 130.949C106.24 130.408 105.678 129.646 105.404 128.762C105.131 127.877 105.159 126.908 105.485 125.977C105.7 125.36 106.04 124.775 106.488 124.255C106.935 123.736 107.48 123.292 108.092 122.949C108.704 122.607 109.371 122.372 110.053 122.258C110.736 122.145 111.422 122.155 112.072 122.288Z" fill="#008000"/>
</g>
</g>
<g style="mix-blend-mode:multiply">
<g style="mix-blend-mode:multiply">
<path d="M117.021 106.289C118.002 106.487 118.864 106.957 119.499 107.64C120.134 108.322 120.513 109.186 120.589 110.122C120.664 111.058 120.433 112.024 119.923 112.898C119.413 113.772 118.649 114.514 117.726 115.031C116.803 115.548 115.764 115.816 114.739 115.801C113.715 115.787 112.751 115.49 111.971 114.949C111.19 114.409 110.627 113.647 110.354 112.763C110.08 111.878 110.109 110.909 110.435 109.978C110.871 108.733 111.809 107.646 113.044 106.954C114.279 106.262 115.709 106.023 117.021 106.289Z" fill="#008000"/>
</g>
</g>
<g style="mix-blend-mode:multiply">
<g style="mix-blend-mode:multiply">
<path d="M125.29 95.988C126.2 93.3916 124.721 90.8327 121.987 90.2726C119.253 89.7125 116.299 91.3634 115.389 93.9598C114.479 96.5563 115.958 99.1152 118.692 99.6752C121.426 100.235 124.38 98.5845 125.29 95.988Z" fill="#008000"/>
</g>
</g>
<g style="mix-blend-mode:multiply">
<g style="mix-blend-mode:multiply">
<path d="M130.248 79.9597C131.158 77.3632 129.679 74.8043 126.945 74.2442C124.211 73.6841 121.257 75.335 120.347 77.9315C119.437 80.5279 120.916 83.0868 123.65 83.6469C126.384 84.207 129.338 82.5562 130.248 79.9597Z" fill="#008000"/>
</g>
</g>
<g style="mix-blend-mode:multiply">
<g style="mix-blend-mode:multiply">
<path d="M131.887 58.2331C132.868 58.4317 133.73 58.9022 134.365 59.5851C135 60.268 135.379 61.1325 135.454 62.0691C135.529 63.0056 135.297 63.9721 134.786 64.846C134.275 65.72 133.51 66.462 132.586 66.9782C131.662 67.4944 130.622 67.7615 129.597 67.7456C128.572 67.7297 127.609 67.4316 126.829 66.889C126.049 66.3464 125.488 65.5837 125.216 64.6977C124.945 63.8116 124.975 62.842 125.304 61.9117C125.74 60.6677 126.678 59.5813 127.913 58.8914C129.147 58.2016 130.577 57.9647 131.887 58.2331Z" fill="#008000"/>
</g>
</g>
<g style="mix-blend-mode:multiply">
<g style="mix-blend-mode:multiply">
<path d="M136.831 42.2459C137.812 42.4444 138.674 42.9146 139.309 43.5969C139.944 44.2793 140.323 45.1431 140.399 46.0791C140.474 47.0151 140.243 47.9811 139.733 48.8549C139.223 49.7287 138.459 50.4711 137.536 50.9879C136.613 51.5048 135.574 51.7729 134.55 51.7584C133.525 51.7439 132.561 51.4475 131.781 50.9065C131 50.3656 130.437 49.6045 130.164 48.7196C129.891 47.8347 129.919 46.8658 130.245 45.9355C130.681 44.6905 131.619 43.6029 132.854 42.9113C134.089 42.2196 135.519 41.9803 136.831 42.2459Z" fill="#008000"/>
</g>
</g>
<g style="mix-blend-mode:multiply">
<g style="mix-blend-mode:multiply">
<path d="M141.801 26.1843C142.783 26.3831 143.647 26.8544 144.282 27.5384C144.917 28.2224 145.296 29.0881 145.369 30.0258C145.443 30.9635 145.209 31.9308 144.696 32.805C144.183 33.6791 143.415 34.4206 142.49 34.9355C141.564 35.4503 140.522 35.7152 139.497 35.6965C138.471 35.6778 137.508 35.3764 136.73 34.8305C135.952 34.2846 135.393 33.5189 135.126 32.6306C134.858 31.7422 134.893 30.7712 135.226 29.841C135.67 28.6036 136.609 27.5252 137.841 26.8404C139.072 26.1557 140.495 25.9199 141.801 26.1843Z" fill="#008000"/>
</g>
</g>
<g style="mix-blend-mode:multiply">
<g style="mix-blend-mode:multiply">
<path d="M122.663 181.235C123.574 178.639 122.095 176.08 119.361 175.52C116.627 174.96 113.673 176.61 112.763 179.207C111.853 181.803 113.331 184.362 116.065 184.922C118.799 185.482 121.753 183.831 122.663 181.235Z" fill="#008000"/>
</g>
</g>
<g style="mix-blend-mode:multiply">
<g style="mix-blend-mode:multiply">
<path d="M124.316 159.501C125.296 159.702 126.156 160.173 126.789 160.857C127.422 161.54 127.799 162.404 127.873 163.34C127.946 164.276 127.713 165.241 127.202 166.114C126.692 166.987 125.927 167.728 125.004 168.244C124.081 168.759 123.042 169.027 122.018 169.011C120.995 168.996 120.032 168.699 119.252 168.158C118.472 167.617 117.91 166.856 117.637 165.971C117.364 165.087 117.392 164.118 117.718 163.188C118.155 161.941 119.096 160.853 120.333 160.161C121.571 159.47 123.004 159.232 124.316 159.501Z" fill="#008000"/>
</g>
</g>
<g style="mix-blend-mode:multiply">
<g style="mix-blend-mode:multiply">
<path d="M129.272 143.481C130.251 143.682 131.111 144.154 131.744 144.837C132.377 145.521 132.755 146.385 132.828 147.321C132.902 148.256 132.668 149.222 132.158 150.095C131.647 150.967 130.882 151.709 129.959 152.224C129.037 152.74 127.998 153.007 126.974 152.992C125.95 152.976 124.987 152.679 124.207 152.138C123.427 151.597 122.865 150.836 122.592 149.952C122.32 149.067 122.348 148.099 122.674 147.169C123.111 145.922 124.051 144.833 125.289 144.141C126.526 143.45 127.959 143.213 129.272 143.481Z" fill="#008000"/>
</g>
</g>
<g style="mix-blend-mode:multiply">
<g style="mix-blend-mode:multiply">
<path d="M134.237 127.432C135.216 127.632 136.076 128.104 136.709 128.787C137.342 129.471 137.72 130.335 137.793 131.271C137.867 132.207 137.634 133.172 137.123 134.045C136.612 134.918 135.847 135.659 134.924 136.174C134.002 136.69 132.963 136.957 131.939 136.942C130.915 136.927 129.952 136.63 129.172 136.088C128.393 135.547 127.831 134.786 127.558 133.902C127.285 133.017 127.313 132.049 127.639 131.119C127.854 130.501 128.195 129.915 128.644 129.395C129.092 128.875 129.638 128.43 130.252 128.088C130.865 127.745 131.532 127.511 132.216 127.398C132.9 127.286 133.587 127.297 134.237 127.432Z" fill="#008000"/>
</g>
</g>
<g style="mix-blend-mode:multiply">
<g style="mix-blend-mode:multiply">
<path d="M139.185 111.433C140.164 111.633 141.025 112.105 141.658 112.788C142.291 113.472 142.668 114.336 142.742 115.272C142.815 116.208 142.582 117.173 142.071 118.046C141.561 118.919 140.796 119.66 139.873 120.175C138.95 120.691 137.911 120.958 136.887 120.943C135.863 120.928 134.901 120.631 134.121 120.089C133.341 119.548 132.779 118.787 132.506 117.903C132.233 117.018 132.261 116.05 132.587 115.12C133.024 113.873 133.965 112.784 135.202 112.093C136.44 111.401 137.872 111.164 139.185 111.433Z" fill="#008000"/>
</g>
</g>
<g style="mix-blend-mode:multiply">
<g style="mix-blend-mode:multiply">
<path d="M147.443 101.13C148.353 98.5331 146.874 95.9743 144.14 95.4142C141.406 94.8542 138.452 96.505 137.542 99.1014C136.632 101.698 138.11 104.257 140.844 104.817C143.578 105.377 146.532 103.726 147.443 101.13Z" fill="#008000"/>
</g>
</g>
<g style="mix-blend-mode:multiply">
<g style="mix-blend-mode:multiply">
<path d="M152.402 85.1002C153.312 82.5038 151.834 79.9449 149.1 79.3848C146.366 78.8248 143.412 80.4756 142.502 83.0721C141.591 85.6686 143.07 88.2274 145.804 88.7875C148.538 89.3476 151.492 87.6967 152.402 85.1002Z" fill="#008000"/>
</g>
</g>
<g style="mix-blend-mode:multiply">
<g style="mix-blend-mode:multiply">
<path d="M154.051 63.377C155.03 63.5777 155.891 64.0499 156.524 64.7338C157.157 65.4177 157.534 66.2825 157.607 67.2189C157.68 68.1553 157.446 69.121 156.934 69.994C156.423 70.8669 155.656 71.6078 154.733 72.1228C153.809 72.6378 152.769 72.9038 151.745 72.8871C150.721 72.8704 149.758 72.5717 148.979 72.0289C148.2 71.4862 147.64 70.7237 147.368 69.838C147.097 68.9522 147.128 67.9831 147.456 67.0533C147.673 66.4364 148.015 65.8518 148.463 65.333C148.912 64.8143 149.458 64.3715 150.071 64.03C150.683 63.6885 151.35 63.455 152.033 63.343C152.716 63.2309 153.402 63.2425 154.051 63.377Z" fill="#008000"/>
</g>
</g>
<g style="mix-blend-mode:multiply">
<g style="mix-blend-mode:multiply">
<path d="M158.995 47.3907C159.974 47.5913 160.835 48.0631 161.468 48.7464C162.101 49.4298 162.478 50.294 162.552 51.2298C162.625 52.1656 162.392 53.131 161.881 54.0038C161.371 54.8767 160.606 55.6177 159.683 56.1334C158.76 56.6491 157.721 56.9162 156.697 56.9009C155.673 56.8856 154.711 56.5885 153.931 56.0474C153.151 55.5063 152.589 54.7453 152.316 53.8608C152.043 52.9762 152.071 52.0078 152.397 51.078C152.834 49.8311 153.775 48.7422 155.012 48.0507C156.25 47.3592 157.682 47.1218 158.995 47.3907Z" fill="#008000"/>
</g>
</g>
<g style="mix-blend-mode:multiply">
<g style="mix-blend-mode:multiply">
<path d="M163.964 31.3293C164.943 31.5298 165.803 32.0016 166.436 32.6849C167.069 33.3683 167.446 34.2325 167.52 35.1683C167.594 36.1041 167.36 37.0695 166.85 37.9423C166.339 38.8151 165.574 39.5562 164.651 40.0719C163.728 40.5875 162.689 40.8547 161.666 40.8394C160.642 40.824 159.679 40.527 158.899 39.9859C158.119 39.4448 157.557 38.6838 157.284 37.7993C157.011 36.9147 157.04 35.9463 157.366 35.0165C157.803 33.7696 158.743 32.6807 159.981 31.9892C161.218 31.2977 162.651 31.0603 163.964 31.3293Z" fill="#008000"/>
</g>
</g>
<g style="mix-blend-mode:multiply">
<g style="mix-blend-mode:multiply">
<path d="M172.226 21.0153C173.136 18.4188 171.657 15.8599 168.923 15.2999C166.189 14.7398 163.235 16.3907 162.325 18.9871C161.415 21.5836 162.894 24.1425 165.628 24.7025C168.362 25.2626 171.316 23.6117 172.226 21.0153Z" fill="#008000"/>
</g>
</g>
<g style="mix-blend-mode:multiply">
<g style="mix-blend-mode:multiply">
<path d="M144.817 186.377C145.727 183.78 144.248 181.221 141.514 180.661C138.78 180.101 135.826 181.752 134.916 184.348C134.006 186.945 135.485 189.504 138.219 190.064C140.953 190.624 143.907 188.973 144.817 186.377Z" fill="#008000"/>
</g>
</g>
<g style="mix-blend-mode:multiply">
<g style="mix-blend-mode:multiply">
<path d="M146.47 164.642C147.449 164.842 148.309 165.314 148.942 165.997C149.575 166.681 149.953 167.545 150.026 168.481C150.1 169.417 149.866 170.382 149.356 171.255C148.845 172.128 148.08 172.869 147.157 173.384C146.235 173.9 145.196 174.167 144.172 174.152C143.148 174.137 142.185 173.84 141.405 173.298C140.625 172.757 140.063 171.996 139.79 171.112C139.517 170.227 139.546 169.259 139.872 168.329C140.309 167.082 141.249 165.993 142.487 165.302C143.724 164.61 145.157 164.373 146.47 164.642Z" fill="#008000"/>
</g>
</g>
<g style="mix-blend-mode:multiply">
<g style="mix-blend-mode:multiply">
<path d="M151.423 148.624C152.402 148.825 153.263 149.296 153.896 149.98C154.529 150.663 154.906 151.527 154.98 152.463C155.053 153.399 154.82 154.364 154.309 155.237C153.799 156.11 153.034 156.851 152.111 157.367C151.188 157.882 150.149 158.15 149.125 158.134C148.101 158.119 147.139 157.822 146.359 157.281C145.579 156.74 145.017 155.979 144.744 155.094C144.471 154.21 144.499 153.241 144.825 152.311C145.262 151.065 146.203 149.976 147.44 149.284C148.678 148.593 150.11 148.355 151.423 148.624Z" fill="#008000"/>
</g>
</g>
<g style="mix-blend-mode:multiply">
<g style="mix-blend-mode:multiply">
<path d="M156.388 132.573C157.368 132.774 158.228 133.246 158.861 133.929C159.494 134.612 159.871 135.477 159.945 136.412C160.018 137.348 159.785 138.314 159.274 139.186C158.764 140.059 157.999 140.8 157.076 141.316C156.153 141.832 155.114 142.099 154.09 142.084C153.067 142.068 152.104 141.771 151.324 141.23C150.544 140.689 149.982 139.928 149.709 139.043C149.436 138.159 149.464 137.19 149.79 136.261C150.227 135.014 151.168 133.925 152.405 133.233C153.643 132.542 155.076 132.304 156.388 132.573Z" fill="#008000"/>
</g>
</g>
<g style="mix-blend-mode:multiply">
<g style="mix-blend-mode:multiply">
<path d="M161.337 116.575C162.316 116.776 163.177 117.248 163.81 117.931C164.443 118.614 164.82 119.479 164.894 120.414C164.967 121.35 164.734 122.316 164.223 123.188C163.713 124.061 162.947 124.802 162.025 125.318C161.102 125.834 160.063 126.101 159.039 126.085C158.015 126.07 157.053 125.773 156.273 125.232C155.493 124.691 154.931 123.93 154.658 123.045C154.385 122.161 154.413 121.192 154.739 120.263C155.176 119.016 156.117 117.927 157.354 117.235C158.591 116.544 160.024 116.306 161.337 116.575Z" fill="#008000"/>
</g>
</g>
<g style="mix-blend-mode:multiply">
<g style="mix-blend-mode:multiply">
<path d="M169.597 106.271C170.507 103.675 169.028 101.116 166.294 100.556C163.56 99.9957 160.606 101.647 159.696 104.243C158.786 106.839 160.265 109.398 162.999 109.958C165.733 110.518 168.687 108.868 169.597 106.271Z" fill="#008000"/>
</g>
</g>
<g style="mix-blend-mode:multiply">
<g style="mix-blend-mode:multiply">
<path d="M174.555 90.2418C175.465 87.6453 173.986 85.0864 171.252 84.5264C168.518 83.9663 165.564 85.6172 164.654 88.2137C163.744 90.8102 165.222 93.3691 167.956 93.9291C170.69 94.4892 173.645 92.8383 174.555 90.2418Z" fill="#008000"/>
</g>
</g>
<g style="mix-blend-mode:multiply">
<g style="mix-blend-mode:multiply">
<path d="M176.205 68.5176C177.184 68.7183 178.045 69.1905 178.678 69.8744C179.311 70.5583 179.688 71.4231 179.761 72.3595C179.834 73.2959 179.6 74.2616 179.089 75.1346C178.577 76.0075 177.811 76.7484 176.887 77.2634C175.963 77.7784 174.923 78.0444 173.899 78.0277C172.875 78.011 171.912 77.7123 171.133 77.1696C170.354 76.6268 169.794 75.8643 169.523 74.9786C169.252 74.0929 169.282 73.1238 169.611 72.1939C170.05 70.9496 170.991 69.8637 172.227 69.1745C173.464 68.4853 174.894 68.2491 176.205 68.5176Z" fill="#008000"/>
</g>
</g>
<g style="mix-blend-mode:multiply">
<g style="mix-blend-mode:multiply">
<path d="M181.15 52.5314C182.129 52.732 182.989 53.2038 183.622 53.8871C184.255 54.5704 184.632 55.4346 184.706 56.3704C184.78 57.3062 184.546 58.2716 184.036 59.1444C183.525 60.0173 182.76 60.7584 181.837 61.274C180.914 61.7897 179.875 62.0568 178.852 62.0415C177.828 62.0262 176.865 61.7292 176.085 61.188C175.305 60.6469 174.743 59.886 174.47 59.0014C174.197 58.1169 174.226 57.1485 174.552 56.2187C174.989 54.9718 175.929 53.8828 177.167 53.1913C178.404 52.4998 179.837 52.2625 181.15 52.5314Z" fill="#008000"/>
</g>
</g>
<g style="mix-blend-mode:multiply">
<g style="mix-blend-mode:multiply">
<path d="M186.115 36.4688C187.09 36.678 187.944 37.1574 188.57 37.8463C189.195 38.5353 189.563 39.4029 189.628 40.3397C189.692 41.2765 189.45 42.2404 188.932 43.1095C188.414 43.9787 187.644 44.7142 186.718 45.223C185.792 45.7319 184.752 45.9913 183.729 45.9685C182.707 45.9457 181.748 45.6417 180.974 45.095C180.2 44.5482 179.645 43.7832 179.379 42.8966C179.113 42.01 179.149 41.0415 179.482 40.1136C179.703 39.4962 180.05 38.9121 180.503 38.3946C180.957 37.8771 181.507 37.4364 182.123 37.0978C182.739 36.7593 183.409 36.5295 184.094 36.4215C184.779 36.3136 185.466 36.3297 186.115 36.4688Z" fill="#008000"/>
</g>
</g>
<g style="mix-blend-mode:multiply">
<g style="mix-blend-mode:multiply">
<path d="M194.377 26.1578C195.287 23.5614 193.808 21.0025 191.074 20.4424C188.34 19.8824 185.386 21.5332 184.476 24.1297C183.566 26.7262 185.045 29.2851 187.779 29.8451C190.513 30.4052 193.467 28.7543 194.377 26.1578Z" fill="#008000"/>
</g>
</g>
<g style="mix-blend-mode:multiply">
<g style="mix-blend-mode:multiply">
<path d="M168.623 169.784C169.602 169.985 170.462 170.457 171.096 171.14C171.729 171.823 172.106 172.688 172.179 173.623C172.253 174.559 172.02 175.525 171.509 176.397C170.998 177.27 170.233 178.011 169.311 178.527C168.388 179.043 167.349 179.31 166.325 179.294C165.301 179.279 164.338 178.982 163.558 178.441C162.778 177.9 162.216 177.139 161.943 176.254C161.67 175.37 161.699 174.401 162.024 173.472C162.461 172.225 163.402 171.136 164.64 170.444C165.877 169.753 167.31 169.515 168.623 169.784Z" fill="#008000"/>
</g>
</g>
<g style="mix-blend-mode:multiply">
<g style="mix-blend-mode:multiply">
<path d="M173.577 153.766C174.557 153.966 175.417 154.438 176.05 155.121C176.683 155.805 177.06 156.669 177.134 157.605C177.208 158.541 176.974 159.506 176.464 160.379C175.953 161.252 175.188 161.993 174.265 162.508C173.342 163.024 172.303 163.291 171.279 163.276C170.255 163.261 169.293 162.964 168.513 162.422C167.733 161.881 167.171 161.12 166.898 160.236C166.625 159.351 166.653 158.383 166.979 157.453C167.416 156.206 168.357 155.117 169.594 154.426C170.832 153.734 172.264 153.497 173.577 153.766Z" fill="#008000"/>
</g>
</g>
<g style="mix-blend-mode:multiply">
<g style="mix-blend-mode:multiply">
<path d="M178.543 137.714C179.522 137.915 180.383 138.386 181.016 139.07C181.649 139.753 182.026 140.617 182.1 141.553C182.173 142.489 181.94 143.454 181.429 144.327C180.919 145.2 180.154 145.941 179.231 146.457C178.308 146.972 177.269 147.24 176.245 147.224C175.221 147.209 174.259 146.912 173.479 146.371C172.699 145.83 172.137 145.069 171.864 144.184C171.591 143.299 171.619 142.331 171.945 141.401C172.382 140.154 173.323 139.065 174.56 138.374C175.797 137.682 177.23 137.445 178.543 137.714Z" fill="#008000"/>
</g>
</g>
<g style="mix-blend-mode:multiply">
<g style="mix-blend-mode:multiply">
<path d="M183.492 121.716C184.471 121.917 185.331 122.388 185.964 123.072C186.597 123.755 186.975 124.619 187.048 125.555C187.122 126.491 186.889 127.456 186.378 128.329C185.867 129.202 185.102 129.943 184.179 130.459C183.257 130.974 182.218 131.241 181.194 131.226C180.17 131.211 179.207 130.914 178.427 130.373C177.647 129.831 177.085 129.071 176.812 128.186C176.539 127.301 176.567 126.333 176.893 125.403C177.33 124.156 178.271 123.067 179.509 122.376C180.746 121.684 182.179 121.447 183.492 121.716Z" fill="#008000"/>
</g>
</g>
<g style="mix-blend-mode:multiply">
<g style="mix-blend-mode:multiply">
<path d="M188.447 105.697C189.426 105.898 190.287 106.37 190.92 107.053C191.553 107.737 191.93 108.601 192.004 109.537C192.077 110.472 191.844 111.438 191.334 112.311C190.823 113.183 190.058 113.925 189.135 114.44C188.212 114.956 187.173 115.223 186.149 115.208C185.125 115.192 184.163 114.895 183.383 114.354C182.603 113.813 182.041 113.052 181.768 112.167C181.495 111.283 181.523 110.314 181.849 109.385C182.286 108.138 183.227 107.049 184.464 106.357C185.701 105.666 187.134 105.428 188.447 105.697Z" fill="#008000"/>
</g>
</g>
<g style="mix-blend-mode:multiply">
<g style="mix-blend-mode:multiply">
<path d="M193.403 89.6789C194.382 89.8794 195.242 90.3513 195.875 91.0346C196.508 91.718 196.886 92.5822 196.959 93.518C197.033 94.4538 196.799 95.4192 196.289 96.292C195.778 97.1649 195.013 97.9059 194.09 98.4216C193.167 98.9373 192.128 99.2043 191.105 99.189C190.081 99.1737 189.118 98.8767 188.338 98.3356C187.558 97.7944 186.996 97.0335 186.723 96.1489C186.45 95.2644 186.478 94.2959 186.804 93.3661C187.241 92.1192 188.182 91.0302 189.419 90.3387C190.657 89.6472 192.09 89.4099 193.403 89.6789Z" fill="#008000"/>
</g>
</g>
<g style="mix-blend-mode:multiply">
<g style="mix-blend-mode:multiply">
<path d="M198.356 73.6602C199.336 73.8609 200.197 74.3331 200.83 75.017C201.463 75.7009 201.84 76.5658 201.913 77.5022C201.986 78.4386 201.752 79.4043 201.24 80.2772C200.728 81.1502 199.962 81.8911 199.038 82.406C198.115 82.921 197.075 83.1871 196.051 83.1703C195.026 83.1536 194.064 82.8549 193.285 82.3122C192.506 81.7694 191.945 81.0069 191.674 80.1212C191.403 79.2354 191.433 78.2663 191.762 77.3365C192.201 76.0921 193.142 75.0063 194.378 74.3171C195.615 73.6279 197.045 73.3917 198.356 73.6602Z" fill="#008000"/>
</g>
</g>
<g style="mix-blend-mode:multiply">
<g style="mix-blend-mode:multiply">
<path d="M203.303 57.673C204.282 57.8736 205.142 58.3454 205.775 59.0288C206.409 59.7121 206.786 60.5763 206.859 61.5121C206.933 62.4479 206.7 63.4133 206.189 64.2861C205.678 65.159 204.913 65.9 203.99 66.4157C203.068 66.9314 202.029 67.1985 201.005 67.1832C199.981 67.1678 199.018 66.8708 198.238 66.3297C197.458 65.7885 196.896 65.0276 196.623 64.143C196.35 63.2585 196.378 62.2901 196.704 61.3602C197.141 60.1134 198.082 59.0244 199.32 58.3329C200.557 57.6415 201.99 57.4041 203.303 57.673Z" fill="#008000"/>
</g>
</g>
<g style="mix-blend-mode:multiply">
<g style="mix-blend-mode:multiply">
<path d="M208.271 41.6124C209.25 41.813 210.111 42.2848 210.744 42.9682C211.377 43.6515 211.754 44.5157 211.828 45.4515C211.901 46.3874 211.668 47.3527 211.157 48.2256C210.647 49.0984 209.882 49.8395 208.959 50.3552C208.036 50.8708 206.997 51.1379 205.973 51.1226C204.949 51.1073 203.987 50.8103 203.207 50.2691C202.427 49.728 201.865 48.967 201.592 48.0825C201.319 47.1979 201.347 46.2295 201.673 45.2997C202.11 44.0528 203.051 42.9638 204.288 42.2724C205.525 41.5809 206.958 41.3435 208.271 41.6124Z" fill="#008000"/>
</g>
</g>
<g style="mix-blend-mode:multiply">
<g style="mix-blend-mode:multiply">
<path d="M190.775 174.926C191.754 175.127 192.614 175.598 193.247 176.282C193.881 176.965 194.258 177.829 194.331 178.765C194.405 179.701 194.172 180.666 193.661 181.539C193.15 182.412 192.385 183.153 191.463 183.669C190.54 184.184 189.501 184.451 188.477 184.436C187.453 184.421 186.49 184.124 185.71 183.583C184.93 183.042 184.368 182.281 184.095 181.396C183.822 180.511 183.85 179.543 184.176 178.613C184.613 177.366 185.554 176.277 186.791 175.586C188.029 174.894 189.462 174.657 190.775 174.926Z" fill="#008000"/>
</g>
</g>
<g style="mix-blend-mode:multiply">
<g style="mix-blend-mode:multiply">
<path d="M195.73 158.907C196.709 159.108 197.57 159.58 198.203 160.263C198.836 160.946 199.213 161.811 199.287 162.747C199.36 163.682 199.127 164.648 198.616 165.521C198.106 166.393 197.341 167.134 196.418 167.65C195.495 168.166 194.456 168.433 193.432 168.418C192.408 168.402 191.445 168.105 190.665 167.564C189.885 167.023 189.323 166.262 189.05 165.377C188.777 164.493 188.806 163.524 189.131 162.595C189.568 161.348 190.509 160.259 191.747 159.567C192.984 158.876 194.417 158.638 195.73 158.907Z" fill="#008000"/>
</g>
</g>
<g style="mix-blend-mode:multiply">
<g style="mix-blend-mode:multiply">
<path d="M200.696 142.856C201.675 143.056 202.535 143.528 203.169 144.211C203.802 144.895 204.179 145.759 204.253 146.695C204.326 147.631 204.093 148.596 203.582 149.469C203.072 150.342 202.306 151.083 201.384 151.598C200.461 152.114 199.422 152.381 198.398 152.366C197.374 152.35 196.411 152.053 195.631 151.512C194.851 150.971 194.289 150.21 194.016 149.326C193.743 148.441 193.771 147.473 194.097 146.543C194.534 145.296 195.475 144.207 196.712 143.516C197.95 142.824 199.383 142.587 200.696 142.856Z" fill="#008000"/>
</g>
</g>
<g style="mix-blend-mode:multiply">
<g style="mix-blend-mode:multiply">
<path d="M205.645 126.858C206.624 127.058 207.484 127.53 208.117 128.213C208.75 128.897 209.128 129.761 209.201 130.697C209.275 131.633 209.042 132.598 208.531 133.471C208.02 134.344 207.255 135.085 206.332 135.6C205.41 136.116 204.37 136.383 203.346 136.368C202.323 136.352 201.36 136.055 200.58 135.514C199.8 134.973 199.238 134.212 198.965 133.328C198.692 132.443 198.72 131.475 199.046 130.545C199.483 129.298 200.424 128.209 201.661 127.517C202.899 126.826 204.331 126.589 205.645 126.858Z" fill="#008000"/>
</g>
</g>
</g>
</g>
</g>
</svg>
