<svg width="1021" height="23" viewBox="0 0 1021 23" fill="none" xmlns="http://www.w3.org/2000/svg">
<path d="M25.1784 2.6L20.1404 18H16.3124L12.9244 7.572L9.42636 18H5.62036L0.560355 2.6H4.25636L7.73236 13.424L11.3624 2.6H14.6624L18.1824 13.512L21.7684 2.6H25.1784ZM38.7391 12.126C38.7391 12.17 38.7171 12.478 38.6731 13.05H29.7191C29.8805 13.7833 30.2618 14.3627 30.8631 14.788C31.4645 15.2133 32.2125 15.426 33.1071 15.426C33.7231 15.426 34.2658 15.338 34.7351 15.162C35.2191 14.9713 35.6665 14.678 36.0771 14.282L37.9031 16.262C36.7885 17.538 35.1605 18.176 33.0191 18.176C31.6845 18.176 30.5038 17.9193 29.4771 17.406C28.4505 16.878 27.6585 16.152 27.1011 15.228C26.5438 14.304 26.2651 13.2553 26.2651 12.082C26.2651 10.9233 26.5365 9.882 27.0791 8.958C27.6365 8.01933 28.3918 7.29333 29.3451 6.78C30.3131 6.252 31.3911 5.988 32.5791 5.988C33.7378 5.988 34.7865 6.23733 35.7251 6.736C36.6638 7.23467 37.3971 7.95333 37.9251 8.892C38.4678 9.816 38.7391 10.894 38.7391 12.126ZM32.6011 8.584C31.8238 8.584 31.1711 8.804 30.6431 9.244C30.1151 9.684 29.7925 10.2853 29.6751 11.048H35.5051C35.3878 10.3 35.0651 9.706 34.5371 9.266C34.0091 8.81133 33.3638 8.584 32.6011 8.584ZM57.0665 18.264C55.4972 18.264 54.0745 17.9267 52.7985 17.252C51.5372 16.5627 50.5398 15.6167 49.8065 14.414C49.0878 13.1967 48.7285 11.8253 48.7285 10.3C48.7285 8.77467 49.0878 7.41067 49.8065 6.208C50.5398 4.99067 51.5372 4.04467 52.7985 3.37C54.0745 2.68067 55.5045 2.336 57.0885 2.336C58.4232 2.336 59.6258 2.57067 60.6965 3.04C61.7818 3.50933 62.6912 4.184 63.4245 5.064L61.1365 7.176C60.0952 5.97333 58.8045 5.372 57.2645 5.372C56.3112 5.372 55.4605 5.58467 54.7125 6.01C53.9645 6.42067 53.3778 7 52.9525 7.748C52.5418 8.496 52.3365 9.34667 52.3365 10.3C52.3365 11.2533 52.5418 12.104 52.9525 12.852C53.3778 13.6 53.9645 14.1867 54.7125 14.612C55.4605 15.0227 56.3112 15.228 57.2645 15.228C58.8045 15.228 60.0952 14.6193 61.1365 13.402L63.4245 15.514C62.6912 16.4087 61.7818 17.0907 60.6965 17.56C59.6112 18.0293 58.4012 18.264 57.0665 18.264ZM71.9131 18.176C70.6664 18.176 69.5444 17.9193 68.5471 17.406C67.5644 16.878 66.7944 16.152 66.2371 15.228C65.6797 14.304 65.4011 13.2553 65.4011 12.082C65.4011 10.9087 65.6797 9.86 66.2371 8.936C66.7944 8.012 67.5644 7.29333 68.5471 6.78C69.5444 6.252 70.6664 5.988 71.9131 5.988C73.1597 5.988 74.2744 6.252 75.2571 6.78C76.2397 7.29333 77.0097 8.012 77.5671 8.936C78.1244 9.86 78.4031 10.9087 78.4031 12.082C78.4031 13.2553 78.1244 14.304 77.5671 15.228C77.0097 16.152 76.2397 16.878 75.2571 17.406C74.2744 17.9193 73.1597 18.176 71.9131 18.176ZM71.9131 15.36C72.7931 15.36 73.5117 15.0667 74.0691 14.48C74.6411 13.8787 74.9271 13.0793 74.9271 12.082C74.9271 11.0847 74.6411 10.2927 74.0691 9.706C73.5117 9.10467 72.7931 8.804 71.9131 8.804C71.0331 8.804 70.3071 9.10467 69.7351 9.706C69.1631 10.2927 68.8771 11.0847 68.8771 12.082C68.8771 13.0793 69.1631 13.8787 69.7351 14.48C70.3071 15.0667 71.0331 15.36 71.9131 15.36ZM88.9911 5.988C90.4577 5.988 91.6384 6.428 92.5331 7.308C93.4424 8.188 93.8971 9.49333 93.8971 11.224V18H90.4651V11.752C90.4651 10.8133 90.2597 10.1167 89.8491 9.662C89.4384 9.19267 88.8444 8.958 88.0671 8.958C87.2017 8.958 86.5124 9.22933 85.9991 9.772C85.4857 10.3 85.2291 11.092 85.2291 12.148V18H81.7971V6.164H85.0751V7.55C85.5297 7.05133 86.0944 6.67 86.7691 6.406C87.4437 6.12733 88.1844 5.988 88.9911 5.988ZM105.302 5.988C106.769 5.988 107.949 6.428 108.844 7.308C109.753 8.188 110.208 9.49333 110.208 11.224V18H106.776V11.752C106.776 10.8133 106.571 10.1167 106.16 9.662C105.749 9.19267 105.155 8.958 104.378 8.958C103.513 8.958 102.823 9.22933 102.31 9.772C101.797 10.3 101.54 11.092 101.54 12.148V18H98.108V6.164H101.386V7.55C101.841 7.05133 102.405 6.67 103.08 6.406C103.755 6.12733 104.495 5.988 105.302 5.988ZM126.142 12.126C126.142 12.17 126.12 12.478 126.076 13.05H117.122C117.283 13.7833 117.665 14.3627 118.266 14.788C118.867 15.2133 119.615 15.426 120.51 15.426C121.126 15.426 121.669 15.338 122.138 15.162C122.622 14.9713 123.069 14.678 123.48 14.282L125.306 16.262C124.191 17.538 122.563 18.176 120.422 18.176C119.087 18.176 117.907 17.9193 116.88 17.406C115.853 16.878 115.061 16.152 114.504 15.228C113.947 14.304 113.668 13.2553 113.668 12.082C113.668 10.9233 113.939 9.882 114.482 8.958C115.039 8.01933 115.795 7.29333 116.748 6.78C117.716 6.252 118.794 5.988 119.982 5.988C121.141 5.988 122.189 6.23733 123.128 6.736C124.067 7.23467 124.8 7.95333 125.328 8.892C125.871 9.816 126.142 10.894 126.142 12.126ZM120.004 8.584C119.227 8.584 118.574 8.804 118.046 9.244C117.518 9.684 117.195 10.2853 117.078 11.048H122.908C122.791 10.3 122.468 9.706 121.94 9.266C121.412 8.81133 120.767 8.584 120.004 8.584ZM135.247 18.176C133.985 18.176 132.849 17.9193 131.837 17.406C130.839 16.878 130.055 16.152 129.483 15.228C128.925 14.304 128.647 13.2553 128.647 12.082C128.647 10.9087 128.925 9.86 129.483 8.936C130.055 8.012 130.839 7.29333 131.837 6.78C132.849 6.252 133.985 5.988 135.247 5.988C136.493 5.988 137.579 6.252 138.503 6.78C139.441 7.29333 140.123 8.034 140.549 9.002L137.887 10.432C137.271 9.34667 136.383 8.804 135.225 8.804C134.33 8.804 133.589 9.09733 133.003 9.684C132.416 10.2707 132.123 11.07 132.123 12.082C132.123 13.094 132.416 13.8933 133.003 14.48C133.589 15.0667 134.33 15.36 135.225 15.36C136.398 15.36 137.285 14.8173 137.887 13.732L140.549 15.184C140.123 16.1227 139.441 16.856 138.503 17.384C137.579 17.912 136.493 18.176 135.247 18.176ZM151.431 17.428C151.093 17.6773 150.675 17.868 150.177 18C149.693 18.1173 149.179 18.176 148.637 18.176C147.229 18.176 146.136 17.8167 145.359 17.098C144.596 16.3793 144.215 15.3233 144.215 13.93V9.068H142.389V6.428H144.215V3.546H147.647V6.428H150.595V9.068H147.647V13.886C147.647 14.3847 147.771 14.7733 148.021 15.052C148.285 15.316 148.651 15.448 149.121 15.448C149.663 15.448 150.125 15.3013 150.507 15.008L151.431 17.428ZM165.22 5.504H160.292V2.6H173.712V5.504H168.784V18H165.22V5.504ZM183.681 5.988C185.148 5.988 186.329 6.428 187.223 7.308C188.133 8.188 188.587 9.49333 188.587 11.224V18H185.155V11.752C185.155 10.8133 184.95 10.1167 184.539 9.662C184.129 9.19267 183.535 8.958 182.757 8.958C181.892 8.958 181.203 9.22933 180.689 9.772C180.176 10.3 179.919 11.092 179.919 12.148V18H176.487V1.676H179.919V7.396C180.374 6.94133 180.924 6.59667 181.569 6.362C182.215 6.11267 182.919 5.988 183.681 5.988ZM204.521 12.126C204.521 12.17 204.499 12.478 204.455 13.05H195.501C195.662 13.7833 196.044 14.3627 196.645 14.788C197.246 15.2133 197.994 15.426 198.889 15.426C199.505 15.426 200.048 15.338 200.517 15.162C201.001 14.9713 201.448 14.678 201.859 14.282L203.685 16.262C202.57 17.538 200.942 18.176 198.801 18.176C197.466 18.176 196.286 17.9193 195.259 17.406C194.232 16.878 193.44 16.152 192.883 15.228C192.326 14.304 192.047 13.2553 192.047 12.082C192.047 10.9233 192.318 9.882 192.861 8.958C193.418 8.01933 194.174 7.29333 195.127 6.78C196.095 6.252 197.173 5.988 198.361 5.988C199.52 5.988 200.568 6.23733 201.507 6.736C202.446 7.23467 203.179 7.95333 203.707 8.892C204.25 9.816 204.521 10.894 204.521 12.126ZM198.383 8.584C197.606 8.584 196.953 8.804 196.425 9.244C195.897 9.684 195.574 10.2853 195.457 11.048H201.287C201.17 10.3 200.847 9.706 200.319 9.266C199.791 8.81133 199.146 8.584 198.383 8.584ZM215.479 2.6H222.475C224.147 2.6 225.621 2.92267 226.897 3.568C228.187 4.19867 229.185 5.09333 229.889 6.252C230.607 7.41067 230.967 8.76 230.967 10.3C230.967 11.84 230.607 13.1893 229.889 14.348C229.185 15.5067 228.187 16.4087 226.897 17.054C225.621 17.6847 224.147 18 222.475 18H215.479V2.6ZM222.299 15.074C223.839 15.074 225.063 14.6487 225.973 13.798C226.897 12.9327 227.359 11.7667 227.359 10.3C227.359 8.83333 226.897 7.67467 225.973 6.824C225.063 5.95867 223.839 5.526 222.299 5.526H219.043V15.074H222.299ZM240.144 18.176C238.898 18.176 237.776 17.9193 236.778 17.406C235.796 16.878 235.026 16.152 234.468 15.228C233.911 14.304 233.632 13.2553 233.632 12.082C233.632 10.9087 233.911 9.86 234.468 8.936C235.026 8.012 235.796 7.29333 236.778 6.78C237.776 6.252 238.898 5.988 240.144 5.988C241.391 5.988 242.506 6.252 243.488 6.78C244.471 7.29333 245.241 8.012 245.798 8.936C246.356 9.86 246.634 10.9087 246.634 12.082C246.634 13.2553 246.356 14.304 245.798 15.228C245.241 16.152 244.471 16.878 243.488 17.406C242.506 17.9193 241.391 18.176 240.144 18.176ZM240.144 15.36C241.024 15.36 241.743 15.0667 242.3 14.48C242.872 13.8787 243.158 13.0793 243.158 12.082C243.158 11.0847 242.872 10.2927 242.3 9.706C241.743 9.10467 241.024 8.804 240.144 8.804C239.264 8.804 238.538 9.10467 237.966 9.706C237.394 10.2927 237.108 11.0847 237.108 12.082C237.108 13.0793 237.394 13.8787 237.966 14.48C238.538 15.0667 239.264 15.36 240.144 15.36ZM257.662 17.428C257.325 17.6773 256.907 17.868 256.408 18C255.924 18.1173 255.411 18.176 254.868 18.176C253.46 18.176 252.368 17.8167 251.59 17.098C250.828 16.3793 250.446 15.3233 250.446 13.93V9.068H248.62V6.428H250.446V3.546H253.878V6.428H256.826V9.068H253.878V13.886C253.878 14.3847 254.003 14.7733 254.252 15.052C254.516 15.316 254.883 15.448 255.352 15.448C255.895 15.448 256.357 15.3013 256.738 15.008L257.662 17.428ZM264.671 18.176C263.688 18.176 262.728 18.0587 261.789 17.824C260.85 17.5747 260.102 17.2667 259.545 16.9L260.689 14.436C261.217 14.7733 261.855 15.052 262.603 15.272C263.351 15.4773 264.084 15.58 264.803 15.58C266.255 15.58 266.981 15.2207 266.981 14.502C266.981 14.1647 266.783 13.9227 266.387 13.776C265.991 13.6293 265.382 13.5047 264.561 13.402C263.593 13.2553 262.794 13.0867 262.163 12.896C261.532 12.7053 260.982 12.368 260.513 11.884C260.058 11.4 259.831 10.7107 259.831 9.816C259.831 9.068 260.044 8.408 260.469 7.836C260.909 7.24933 261.54 6.79467 262.361 6.472C263.197 6.14933 264.18 5.988 265.309 5.988C266.145 5.988 266.974 6.08333 267.795 6.274C268.631 6.45 269.32 6.69933 269.863 7.022L268.719 9.464C267.678 8.87733 266.541 8.584 265.309 8.584C264.576 8.584 264.026 8.68667 263.659 8.892C263.292 9.09733 263.109 9.36133 263.109 9.684C263.109 10.0507 263.307 10.3073 263.703 10.454C264.099 10.6007 264.73 10.74 265.595 10.872C266.563 11.0333 267.355 11.2093 267.971 11.4C268.587 11.576 269.122 11.906 269.577 12.39C270.032 12.874 270.259 13.5487 270.259 14.414C270.259 15.1473 270.039 15.8 269.599 16.372C269.159 16.944 268.514 17.3913 267.663 17.714C266.827 18.022 265.83 18.176 264.671 18.176ZM286.439 18.176C285.192 18.176 284.07 17.9193 283.073 17.406C282.09 16.878 281.32 16.152 280.763 15.228C280.206 14.304 279.927 13.2553 279.927 12.082C279.927 10.9087 280.206 9.86 280.763 8.936C281.32 8.012 282.09 7.29333 283.073 6.78C284.07 6.252 285.192 5.988 286.439 5.988C287.686 5.988 288.8 6.252 289.783 6.78C290.766 7.29333 291.536 8.012 292.093 8.936C292.65 9.86 292.929 10.9087 292.929 12.082C292.929 13.2553 292.65 14.304 292.093 15.228C291.536 16.152 290.766 16.878 289.783 17.406C288.8 17.9193 287.686 18.176 286.439 18.176ZM286.439 15.36C287.319 15.36 288.038 15.0667 288.595 14.48C289.167 13.8787 289.453 13.0793 289.453 12.082C289.453 11.0847 289.167 10.2927 288.595 9.706C288.038 9.10467 287.319 8.804 286.439 8.804C285.559 8.804 284.833 9.10467 284.261 9.706C283.689 10.2927 283.403 11.0847 283.403 12.082C283.403 13.0793 283.689 13.8787 284.261 14.48C284.833 15.0667 285.559 15.36 286.439 15.36ZM300.085 6.428H303.121V9.068H300.173V18H296.741V9.068H294.915V6.428H296.741V5.9C296.741 4.55067 297.137 3.48 297.929 2.688C298.736 1.896 299.865 1.5 301.317 1.5C301.83 1.5 302.314 1.55867 302.769 1.676C303.238 1.77867 303.627 1.93267 303.935 2.138L303.033 4.624C302.637 4.34533 302.175 4.206 301.647 4.206C300.606 4.206 300.085 4.778 300.085 5.922V6.428ZM309.693 6.428H312.729V9.068H309.781V18H306.349V9.068H304.523V6.428H306.349V5.9C306.349 4.55067 306.745 3.48 307.537 2.688C308.343 1.896 309.473 1.5 310.925 1.5C311.438 1.5 311.922 1.55867 312.377 1.676C312.846 1.77867 313.235 1.93267 313.543 2.138L312.641 4.624C312.245 4.34533 311.783 4.206 311.255 4.206C310.213 4.206 309.693 4.778 309.693 5.922V6.428ZM326.982 12.126C326.982 12.17 326.96 12.478 326.916 13.05H317.962C318.123 13.7833 318.505 14.3627 319.106 14.788C319.707 15.2133 320.455 15.426 321.35 15.426C321.966 15.426 322.509 15.338 322.978 15.162C323.462 14.9713 323.909 14.678 324.32 14.282L326.146 16.262C325.031 17.538 323.403 18.176 321.262 18.176C319.927 18.176 318.747 17.9193 317.72 17.406C316.693 16.878 315.901 16.152 315.344 15.228C314.787 14.304 314.508 13.2553 314.508 12.082C314.508 10.9233 314.779 9.882 315.322 8.958C315.879 8.01933 316.635 7.29333 317.588 6.78C318.556 6.252 319.634 5.988 320.822 5.988C321.981 5.988 323.029 6.23733 323.968 6.736C324.907 7.23467 325.64 7.95333 326.168 8.892C326.711 9.816 326.982 10.894 326.982 12.126ZM320.844 8.584C320.067 8.584 319.414 8.804 318.886 9.244C318.358 9.684 318.035 10.2853 317.918 11.048H323.748C323.631 10.3 323.308 9.706 322.78 9.266C322.252 8.81133 321.607 8.584 320.844 8.584ZM333.645 7.726C334.056 7.154 334.606 6.72133 335.295 6.428C335.999 6.13467 336.806 5.988 337.715 5.988V9.156C337.334 9.12667 337.077 9.112 336.945 9.112C335.962 9.112 335.192 9.39067 334.635 9.948C334.078 10.4907 333.799 11.312 333.799 12.412V18H330.367V6.164H333.645V7.726ZM344.881 18.176C343.898 18.176 342.937 18.0587 341.999 17.824C341.06 17.5747 340.312 17.2667 339.755 16.9L340.899 14.436C341.427 14.7733 342.065 15.052 342.813 15.272C343.561 15.4773 344.294 15.58 345.013 15.58C346.465 15.58 347.191 15.2207 347.191 14.502C347.191 14.1647 346.993 13.9227 346.597 13.776C346.201 13.6293 345.592 13.5047 344.771 13.402C343.803 13.2553 343.003 13.0867 342.373 12.896C341.742 12.7053 341.192 12.368 340.723 11.884C340.268 11.4 340.041 10.7107 340.041 9.816C340.041 9.068 340.253 8.408 340.679 7.836C341.119 7.24933 341.749 6.79467 342.571 6.472C343.407 6.14933 344.389 5.988 345.519 5.988C346.355 5.988 347.183 6.08333 348.005 6.274C348.841 6.45 349.53 6.69933 350.073 7.022L348.929 9.464C347.887 8.87733 346.751 8.584 345.519 8.584C344.785 8.584 344.235 8.68667 343.869 8.892C343.502 9.09733 343.319 9.36133 343.319 9.684C343.319 10.0507 343.517 10.3073 343.913 10.454C344.309 10.6007 344.939 10.74 345.805 10.872C346.773 11.0333 347.565 11.2093 348.181 11.4C348.797 11.576 349.332 11.906 349.787 12.39C350.241 12.874 350.469 13.5487 350.469 14.414C350.469 15.1473 350.249 15.8 349.809 16.372C349.369 16.944 348.723 17.3913 347.873 17.714C347.037 18.022 346.039 18.176 344.881 18.176ZM365.791 5.988C367.624 5.988 369.032 6.428 370.015 7.308C370.997 8.17333 371.489 9.486 371.489 11.246V18H368.277V16.526C367.631 17.626 366.429 18.176 364.669 18.176C363.759 18.176 362.967 18.022 362.293 17.714C361.633 17.406 361.127 16.9807 360.775 16.438C360.423 15.8953 360.247 15.2793 360.247 14.59C360.247 13.49 360.657 12.6247 361.479 11.994C362.315 11.3633 363.598 11.048 365.329 11.048H368.057C368.057 10.3 367.829 9.728 367.375 9.332C366.92 8.92133 366.238 8.716 365.329 8.716C364.698 8.716 364.075 8.81867 363.459 9.024C362.857 9.21467 362.344 9.47867 361.919 9.816L360.687 7.418C361.332 6.96333 362.102 6.61133 362.997 6.362C363.906 6.11267 364.837 5.988 365.791 5.988ZM365.527 15.866C366.113 15.866 366.634 15.734 367.089 15.47C367.543 15.1913 367.866 14.788 368.057 14.26V13.05H365.703C364.295 13.05 363.591 13.512 363.591 14.436C363.591 14.876 363.759 15.228 364.097 15.492C364.449 15.7413 364.925 15.866 365.527 15.866ZM394.773 6.164L389.779 18H386.237L381.265 6.164H384.807L388.085 14.216L391.473 6.164H394.773ZM401.661 5.988C403.494 5.988 404.902 6.428 405.885 7.308C406.868 8.17333 407.359 9.486 407.359 11.246V18H404.147V16.526C403.502 17.626 402.299 18.176 400.539 18.176C399.63 18.176 398.838 18.022 398.163 17.714C397.503 17.406 396.997 16.9807 396.645 16.438C396.293 15.8953 396.117 15.2793 396.117 14.59C396.117 13.49 396.528 12.6247 397.349 11.994C398.185 11.3633 399.468 11.048 401.199 11.048H403.927C403.927 10.3 403.7 9.728 403.245 9.332C402.79 8.92133 402.108 8.716 401.199 8.716C400.568 8.716 399.945 8.81867 399.329 9.024C398.728 9.21467 398.214 9.47867 397.789 9.816L396.557 7.418C397.202 6.96333 397.972 6.61133 398.867 6.362C399.776 6.11267 400.708 5.988 401.661 5.988ZM401.397 15.866C401.984 15.866 402.504 15.734 402.959 15.47C403.414 15.1913 403.736 14.788 403.927 14.26V13.05H401.573C400.165 13.05 399.461 13.512 399.461 14.436C399.461 14.876 399.63 15.228 399.967 15.492C400.319 15.7413 400.796 15.866 401.397 15.866ZM414.843 7.726C415.254 7.154 415.804 6.72133 416.493 6.428C417.197 6.13467 418.004 5.988 418.913 5.988V9.156C418.532 9.12667 418.275 9.112 418.143 9.112C417.16 9.112 416.39 9.39067 415.833 9.948C415.276 10.4907 414.997 11.312 414.997 12.412V18H411.565V6.164H414.843V7.726ZM422.054 6.164H425.486V18H422.054V6.164ZM423.77 4.514C423.139 4.514 422.626 4.33067 422.23 3.964C421.834 3.59733 421.636 3.14267 421.636 2.6C421.636 2.05733 421.834 1.60267 422.23 1.236C422.626 0.869332 423.139 0.685999 423.77 0.685999C424.4 0.685999 424.914 0.861999 425.31 1.214C425.706 1.566 425.904 2.006 425.904 2.534C425.904 3.106 425.706 3.58267 425.31 3.964C424.914 4.33067 424.4 4.514 423.77 4.514ZM441.365 12.126C441.365 12.17 441.343 12.478 441.299 13.05H432.345C432.506 13.7833 432.888 14.3627 433.489 14.788C434.09 15.2133 434.838 15.426 435.733 15.426C436.349 15.426 436.892 15.338 437.361 15.162C437.845 14.9713 438.292 14.678 438.703 14.282L440.529 16.262C439.414 17.538 437.786 18.176 435.645 18.176C434.31 18.176 433.13 17.9193 432.103 17.406C431.076 16.878 430.284 16.152 429.727 15.228C429.17 14.304 428.891 13.2553 428.891 12.082C428.891 10.9233 429.162 9.882 429.705 8.958C430.262 8.01933 431.018 7.29333 431.971 6.78C432.939 6.252 434.017 5.988 435.205 5.988C436.364 5.988 437.412 6.23733 438.351 6.736C439.29 7.23467 440.023 7.95333 440.551 8.892C441.094 9.816 441.365 10.894 441.365 12.126ZM435.227 8.584C434.45 8.584 433.797 8.804 433.269 9.244C432.741 9.684 432.418 10.2853 432.301 11.048H438.131C438.014 10.3 437.691 9.706 437.163 9.266C436.635 8.81133 435.99 8.584 435.227 8.584ZM452.384 17.428C452.046 17.6773 451.628 17.868 451.13 18C450.646 18.1173 450.132 18.176 449.59 18.176C448.182 18.176 447.089 17.8167 446.312 17.098C445.549 16.3793 445.168 15.3233 445.168 13.93V9.068H443.342V6.428H445.168V3.546H448.6V6.428H451.548V9.068H448.6V13.886C448.6 14.3847 448.724 14.7733 448.974 15.052C449.238 15.316 449.604 15.448 450.074 15.448C450.616 15.448 451.078 15.3013 451.46 15.008L452.384 17.428ZM466.944 6.164L461.598 18.726C461.055 20.09 460.38 21.0507 459.574 21.608C458.782 22.1653 457.821 22.444 456.692 22.444C456.076 22.444 455.467 22.3487 454.866 22.158C454.264 21.9673 453.773 21.7033 453.392 21.366L454.646 18.924C454.91 19.1587 455.21 19.342 455.548 19.474C455.9 19.606 456.244 19.672 456.582 19.672C457.051 19.672 457.432 19.5547 457.726 19.32C458.019 19.1 458.283 18.726 458.518 18.198L458.562 18.088L453.436 6.164H456.978L460.3 14.194L463.644 6.164H466.944ZM482.406 18.176C481.16 18.176 480.038 17.9193 479.04 17.406C478.058 16.878 477.288 16.152 476.73 15.228C476.173 14.304 475.894 13.2553 475.894 12.082C475.894 10.9087 476.173 9.86 476.73 8.936C477.288 8.012 478.058 7.29333 479.04 6.78C480.038 6.252 481.16 5.988 482.406 5.988C483.653 5.988 484.768 6.252 485.75 6.78C486.733 7.29333 487.503 8.012 488.06 8.936C488.618 9.86 488.896 10.9087 488.896 12.082C488.896 13.2553 488.618 14.304 488.06 15.228C487.503 16.152 486.733 16.878 485.75 17.406C484.768 17.9193 483.653 18.176 482.406 18.176ZM482.406 15.36C483.286 15.36 484.005 15.0667 484.562 14.48C485.134 13.8787 485.42 13.0793 485.42 12.082C485.42 11.0847 485.134 10.2927 484.562 9.706C484.005 9.10467 483.286 8.804 482.406 8.804C481.526 8.804 480.8 9.10467 480.228 9.706C479.656 10.2927 479.37 11.0847 479.37 12.082C479.37 13.0793 479.656 13.8787 480.228 14.48C480.8 15.0667 481.526 15.36 482.406 15.36ZM496.052 6.428H499.088V9.068H496.14V18H492.708V9.068H490.882V6.428H492.708V5.9C492.708 4.55067 493.104 3.48 493.896 2.688C494.703 1.896 495.832 1.5 497.284 1.5C497.798 1.5 498.282 1.55867 498.736 1.676C499.206 1.77867 499.594 1.93267 499.902 2.138L499 4.624C498.604 4.34533 498.142 4.206 497.614 4.206C496.573 4.206 496.052 4.778 496.052 5.922V6.428ZM516.225 5.988C517.325 5.988 518.322 6.24467 519.217 6.758C520.126 7.25667 520.837 7.968 521.351 8.892C521.864 9.80133 522.121 10.8647 522.121 12.082C522.121 13.2993 521.864 14.37 521.351 15.294C520.837 16.2033 520.126 16.9147 519.217 17.428C518.322 17.9267 517.325 18.176 516.225 18.176C514.714 18.176 513.526 17.6993 512.661 16.746V22.268H509.229V6.164H512.507V7.528C513.357 6.50133 514.597 5.988 516.225 5.988ZM515.631 15.36C516.511 15.36 517.229 15.0667 517.787 14.48C518.359 13.8787 518.645 13.0793 518.645 12.082C518.645 11.0847 518.359 10.2927 517.787 9.706C517.229 9.10467 516.511 8.804 515.631 8.804C514.751 8.804 514.025 9.10467 513.453 9.706C512.895 10.2927 512.617 11.0847 512.617 12.082C512.617 13.0793 512.895 13.8787 513.453 14.48C514.025 15.0667 514.751 15.36 515.631 15.36ZM528.796 7.726C529.207 7.154 529.757 6.72133 530.446 6.428C531.15 6.13467 531.957 5.988 532.866 5.988V9.156C532.485 9.12667 532.228 9.112 532.096 9.112C531.113 9.112 530.343 9.39067 529.786 9.948C529.229 10.4907 528.95 11.312 528.95 12.412V18H525.518V6.164H528.796V7.726ZM541.531 18.176C540.285 18.176 539.163 17.9193 538.165 17.406C537.183 16.878 536.413 16.152 535.855 15.228C535.298 14.304 535.019 13.2553 535.019 12.082C535.019 10.9087 535.298 9.86 535.855 8.936C536.413 8.012 537.183 7.29333 538.165 6.78C539.163 6.252 540.285 5.988 541.531 5.988C542.778 5.988 543.893 6.252 544.875 6.78C545.858 7.29333 546.628 8.012 547.185 8.936C547.743 9.86 548.021 10.9087 548.021 12.082C548.021 13.2553 547.743 14.304 547.185 15.228C546.628 16.152 545.858 16.878 544.875 17.406C543.893 17.9193 542.778 18.176 541.531 18.176ZM541.531 15.36C542.411 15.36 543.13 15.0667 543.687 14.48C544.259 13.8787 544.545 13.0793 544.545 12.082C544.545 11.0847 544.259 10.2927 543.687 9.706C543.13 9.10467 542.411 8.804 541.531 8.804C540.651 8.804 539.925 9.10467 539.353 9.706C538.781 10.2927 538.495 11.0847 538.495 12.082C538.495 13.0793 538.781 13.8787 539.353 14.48C539.925 15.0667 540.651 15.36 541.531 15.36ZM563.625 6.164V16.02C563.625 18.1907 563.061 19.804 561.931 20.86C560.802 21.916 559.152 22.444 556.981 22.444C555.837 22.444 554.752 22.3047 553.725 22.026C552.699 21.7473 551.848 21.344 551.173 20.816L552.537 18.352C553.036 18.7627 553.667 19.0853 554.429 19.32C555.192 19.5693 555.955 19.694 556.717 19.694C557.905 19.694 558.778 19.4227 559.335 18.88C559.907 18.352 560.193 17.5453 560.193 16.46V15.954C559.299 16.9367 558.052 17.428 556.453 17.428C555.368 17.428 554.371 17.1933 553.461 16.724C552.567 16.24 551.855 15.5653 551.327 14.7C550.799 13.8347 550.535 12.8373 550.535 11.708C550.535 10.5787 550.799 9.58133 551.327 8.716C551.855 7.85067 552.567 7.18333 553.461 6.714C554.371 6.23 555.368 5.988 556.453 5.988C558.169 5.988 559.475 6.55267 560.369 7.682V6.164H563.625ZM557.135 14.612C558.045 14.612 558.785 14.348 559.357 13.82C559.944 13.2773 560.237 12.5733 560.237 11.708C560.237 10.8427 559.944 10.146 559.357 9.618C558.785 9.07533 558.045 8.804 557.135 8.804C556.226 8.804 555.478 9.07533 554.891 9.618C554.305 10.146 554.011 10.8427 554.011 11.708C554.011 12.5733 554.305 13.2773 554.891 13.82C555.478 14.348 556.226 14.612 557.135 14.612ZM571.198 7.726C571.608 7.154 572.158 6.72133 572.848 6.428C573.552 6.13467 574.358 5.988 575.268 5.988V9.156C574.886 9.12667 574.63 9.112 574.498 9.112C573.515 9.112 572.745 9.39067 572.188 9.948C571.63 10.4907 571.352 11.312 571.352 12.412V18H567.92V6.164H571.198V7.726ZM583.118 5.988C584.951 5.988 586.359 6.428 587.342 7.308C588.325 8.17333 588.816 9.486 588.816 11.246V18H585.604V16.526C584.959 17.626 583.756 18.176 581.996 18.176C581.087 18.176 580.295 18.022 579.62 17.714C578.96 17.406 578.454 16.9807 578.102 16.438C577.75 15.8953 577.574 15.2793 577.574 14.59C577.574 13.49 577.985 12.6247 578.806 11.994C579.642 11.3633 580.925 11.048 582.656 11.048H585.384C585.384 10.3 585.157 9.728 584.702 9.332C584.247 8.92133 583.565 8.716 582.656 8.716C582.025 8.716 581.402 8.81867 580.786 9.024C580.185 9.21467 579.671 9.47867 579.246 9.816L578.014 7.418C578.659 6.96333 579.429 6.61133 580.324 6.362C581.233 6.11267 582.165 5.988 583.118 5.988ZM582.854 15.866C583.441 15.866 583.961 15.734 584.416 15.47C584.871 15.1913 585.193 14.788 585.384 14.26V13.05H583.03C581.622 13.05 580.918 13.512 580.918 14.436C580.918 14.876 581.087 15.228 581.424 15.492C581.776 15.7413 582.253 15.866 582.854 15.866ZM608.18 5.988C609.661 5.988 610.835 6.428 611.7 7.308C612.58 8.17333 613.02 9.47867 613.02 11.224V18H609.588V11.752C609.588 10.8133 609.39 10.1167 608.994 9.662C608.613 9.19267 608.063 8.958 607.344 8.958C606.537 8.958 605.899 9.222 605.43 9.75C604.961 10.2633 604.726 11.0333 604.726 12.06V18H601.294V11.752C601.294 9.88933 600.546 8.958 599.05 8.958C598.258 8.958 597.627 9.222 597.158 9.75C596.689 10.2633 596.454 11.0333 596.454 12.06V18H593.022V6.164H596.3V7.528C596.74 7.02933 597.275 6.648 597.906 6.384C598.551 6.12 599.255 5.988 600.018 5.988C600.854 5.988 601.609 6.15667 602.284 6.494C602.959 6.81667 603.501 7.29333 603.912 7.924C604.396 7.308 605.005 6.83133 605.738 6.494C606.486 6.15667 607.3 5.988 608.18 5.988ZM621.178 18.176C620.196 18.176 619.235 18.0587 618.296 17.824C617.358 17.5747 616.61 17.2667 616.052 16.9L617.196 14.436C617.724 14.7733 618.362 15.052 619.11 15.272C619.858 15.4773 620.592 15.58 621.31 15.58C622.762 15.58 623.488 15.2207 623.488 14.502C623.488 14.1647 623.29 13.9227 622.894 13.776C622.498 13.6293 621.89 13.5047 621.068 13.402C620.1 13.2553 619.301 13.0867 618.67 12.896C618.04 12.7053 617.49 12.368 617.02 11.884C616.566 11.4 616.338 10.7107 616.338 9.816C616.338 9.068 616.551 8.408 616.976 7.836C617.416 7.24933 618.047 6.79467 618.868 6.472C619.704 6.14933 620.687 5.988 621.816 5.988C622.652 5.988 623.481 6.08333 624.302 6.274C625.138 6.45 625.828 6.69933 626.37 7.022L625.226 9.464C624.185 8.87733 623.048 8.584 621.816 8.584C621.083 8.584 620.533 8.68667 620.166 8.892C619.8 9.09733 619.616 9.36133 619.616 9.684C619.616 10.0507 619.814 10.3073 620.21 10.454C620.606 10.6007 621.237 10.74 622.102 10.872C623.07 11.0333 623.862 11.2093 624.478 11.4C625.094 11.576 625.63 11.906 626.084 12.39C626.539 12.874 626.766 13.5487 626.766 14.414C626.766 15.1473 626.546 15.8 626.106 16.372C625.666 16.944 625.021 17.3913 624.17 17.714C623.334 18.022 622.337 18.176 621.178 18.176ZM637.314 6.164H640.746V18H637.314V6.164ZM639.03 4.514C638.4 4.514 637.886 4.33067 637.49 3.964C637.094 3.59733 636.896 3.14267 636.896 2.6C636.896 2.05733 637.094 1.60267 637.49 1.236C637.886 0.869332 638.4 0.685999 639.03 0.685999C639.661 0.685999 640.174 0.861999 640.57 1.214C640.966 1.566 641.164 2.006 641.164 2.534C641.164 3.106 640.966 3.58267 640.57 3.964C640.174 4.33067 639.661 4.514 639.03 4.514ZM652.225 5.988C653.692 5.988 654.873 6.428 655.767 7.308C656.677 8.188 657.131 9.49333 657.131 11.224V18H653.699V11.752C653.699 10.8133 653.494 10.1167 653.083 9.662C652.673 9.19267 652.079 8.958 651.301 8.958C650.436 8.958 649.747 9.22933 649.233 9.772C648.72 10.3 648.463 11.092 648.463 12.148V18H645.031V6.164H648.309V7.55C648.764 7.05133 649.329 6.67 650.003 6.406C650.678 6.12733 651.419 5.988 652.225 5.988ZM665.324 18.176C664.342 18.176 663.381 18.0587 662.442 17.824C661.504 17.5747 660.756 17.2667 660.198 16.9L661.342 14.436C661.87 14.7733 662.508 15.052 663.256 15.272C664.004 15.4773 664.738 15.58 665.456 15.58C666.908 15.58 667.634 15.2207 667.634 14.502C667.634 14.1647 667.436 13.9227 667.04 13.776C666.644 13.6293 666.036 13.5047 665.214 13.402C664.246 13.2553 663.447 13.0867 662.816 12.896C662.186 12.7053 661.636 12.368 661.166 11.884C660.712 11.4 660.484 10.7107 660.484 9.816C660.484 9.068 660.697 8.408 661.122 7.836C661.562 7.24933 662.193 6.79467 663.014 6.472C663.85 6.14933 664.833 5.988 665.962 5.988C666.798 5.988 667.627 6.08333 668.448 6.274C669.284 6.45 669.974 6.69933 670.516 7.022L669.372 9.464C668.331 8.87733 667.194 8.584 665.962 8.584C665.229 8.584 664.679 8.68667 664.312 8.892C663.946 9.09733 663.762 9.36133 663.762 9.684C663.762 10.0507 663.96 10.3073 664.356 10.454C664.752 10.6007 665.383 10.74 666.248 10.872C667.216 11.0333 668.008 11.2093 668.624 11.4C669.24 11.576 669.776 11.906 670.23 12.39C670.685 12.874 670.912 13.5487 670.912 14.414C670.912 15.1473 670.692 15.8 670.252 16.372C669.812 16.944 669.167 17.3913 668.316 17.714C667.48 18.022 666.483 18.176 665.324 18.176ZM681.764 17.428C681.427 17.6773 681.009 17.868 680.51 18C680.026 18.1173 679.513 18.176 678.97 18.176C677.562 18.176 676.469 17.8167 675.692 17.098C674.929 16.3793 674.548 15.3233 674.548 13.93V9.068H672.722V6.428H674.548V3.546H677.98V6.428H680.928V9.068H677.98V13.886C677.98 14.3847 678.105 14.7733 678.354 15.052C678.618 15.316 678.985 15.448 679.454 15.448C679.997 15.448 680.459 15.3013 680.84 15.008L681.764 17.428ZM688.068 7.726C688.479 7.154 689.029 6.72133 689.718 6.428C690.422 6.13467 691.229 5.988 692.138 5.988V9.156C691.757 9.12667 691.5 9.112 691.368 9.112C690.386 9.112 689.616 9.39067 689.058 9.948C688.501 10.4907 688.222 11.312 688.222 12.412V18H684.79V6.164H688.068V7.726ZM707.289 6.164V18H704.033V16.592C703.578 17.1053 703.036 17.5013 702.405 17.78C701.774 18.044 701.092 18.176 700.359 18.176C698.804 18.176 697.572 17.7287 696.663 16.834C695.754 15.9393 695.299 14.612 695.299 12.852V6.164H698.731V12.346C698.731 14.2527 699.53 15.206 701.129 15.206C701.95 15.206 702.61 14.942 703.109 14.414C703.608 13.8713 703.857 13.072 703.857 12.016V6.164H707.289ZM717.289 18.176C716.027 18.176 714.891 17.9193 713.879 17.406C712.881 16.878 712.097 16.152 711.525 15.228C710.967 14.304 710.689 13.2553 710.689 12.082C710.689 10.9087 710.967 9.86 711.525 8.936C712.097 8.012 712.881 7.29333 713.879 6.78C714.891 6.252 716.027 5.988 717.289 5.988C718.535 5.988 719.621 6.252 720.545 6.78C721.483 7.29333 722.165 8.034 722.591 9.002L719.929 10.432C719.313 9.34667 718.425 8.804 717.267 8.804C716.372 8.804 715.631 9.09733 715.045 9.684C714.458 10.2707 714.165 11.07 714.165 12.082C714.165 13.094 714.458 13.8933 715.045 14.48C715.631 15.0667 716.372 15.36 717.267 15.36C718.44 15.36 719.327 14.8173 719.929 13.732L722.591 15.184C722.165 16.1227 721.483 16.856 720.545 17.384C719.621 17.912 718.535 18.176 717.289 18.176ZM733.472 17.428C733.135 17.6773 732.717 17.868 732.218 18C731.734 18.1173 731.221 18.176 730.678 18.176C729.27 18.176 728.178 17.8167 727.4 17.098C726.638 16.3793 726.256 15.3233 726.256 13.93V9.068H724.43V6.428H726.256V3.546H729.688V6.428H732.636V9.068H729.688V13.886C729.688 14.3847 729.813 14.7733 730.062 15.052C730.326 15.316 730.693 15.448 731.162 15.448C731.705 15.448 732.167 15.3013 732.548 15.008L733.472 17.428ZM747.728 12.126C747.728 12.17 747.706 12.478 747.662 13.05H738.708C738.869 13.7833 739.25 14.3627 739.852 14.788C740.453 15.2133 741.201 15.426 742.096 15.426C742.712 15.426 743.254 15.338 743.724 15.162C744.208 14.9713 744.655 14.678 745.066 14.282L746.892 16.262C745.777 17.538 744.149 18.176 742.008 18.176C740.673 18.176 739.492 17.9193 738.466 17.406C737.439 16.878 736.647 16.152 736.09 15.228C735.532 14.304 735.254 13.2553 735.254 12.082C735.254 10.9233 735.525 9.882 736.068 8.958C736.625 8.01933 737.38 7.29333 738.334 6.78C739.302 6.252 740.38 5.988 741.568 5.988C742.726 5.988 743.775 6.23733 744.714 6.736C745.652 7.23467 746.386 7.95333 746.914 8.892C747.456 9.816 747.728 10.894 747.728 12.126ZM741.59 8.584C740.812 8.584 740.16 8.804 739.632 9.244C739.104 9.684 738.781 10.2853 738.664 11.048H744.494C744.376 10.3 744.054 9.706 743.526 9.266C742.998 8.81133 742.352 8.584 741.59 8.584ZM763.169 1.676V18H759.891V16.636C759.04 17.6627 757.808 18.176 756.195 18.176C755.08 18.176 754.068 17.9267 753.159 17.428C752.264 16.9293 751.56 16.218 751.047 15.294C750.533 14.37 750.277 13.2993 750.277 12.082C750.277 10.8647 750.533 9.794 751.047 8.87C751.56 7.946 752.264 7.23467 753.159 6.736C754.068 6.23733 755.08 5.988 756.195 5.988C757.705 5.988 758.886 6.46467 759.737 7.418V1.676H763.169ZM756.789 15.36C757.654 15.36 758.373 15.0667 758.945 14.48C759.517 13.8787 759.803 13.0793 759.803 12.082C759.803 11.0847 759.517 10.2927 758.945 9.706C758.373 9.10467 757.654 8.804 756.789 8.804C755.909 8.804 755.183 9.10467 754.611 9.706C754.039 10.2927 753.753 11.0847 753.753 12.082C753.753 13.0793 754.039 13.8787 754.611 14.48C755.183 15.0667 755.909 15.36 756.789 15.36ZM781.772 5.988C782.872 5.988 783.869 6.24467 784.764 6.758C785.673 7.25667 786.384 7.968 786.898 8.892C787.411 9.80133 787.668 10.8647 787.668 12.082C787.668 13.2993 787.411 14.37 786.898 15.294C786.384 16.2033 785.673 16.9147 784.764 17.428C783.869 17.9267 782.872 18.176 781.772 18.176C780.144 18.176 778.904 17.6627 778.054 16.636V18H774.776V1.676H778.208V7.418C779.073 6.46467 780.261 5.988 781.772 5.988ZM781.178 15.36C782.058 15.36 782.776 15.0667 783.334 14.48C783.906 13.8787 784.192 13.0793 784.192 12.082C784.192 11.0847 783.906 10.2927 783.334 9.706C782.776 9.10467 782.058 8.804 781.178 8.804C780.298 8.804 779.572 9.10467 779 9.706C778.442 10.2927 778.164 11.0847 778.164 12.082C778.164 13.0793 778.442 13.8787 779 14.48C779.572 15.0667 780.298 15.36 781.178 15.36ZM802.491 6.164L797.145 18.726C796.602 20.09 795.927 21.0507 795.121 21.608C794.329 22.1653 793.368 22.444 792.239 22.444C791.623 22.444 791.014 22.3487 790.413 22.158C789.811 21.9673 789.32 21.7033 788.939 21.366L790.193 18.924C790.457 19.1587 790.757 19.342 791.095 19.474C791.447 19.606 791.791 19.672 792.129 19.672C792.598 19.672 792.979 19.5547 793.273 19.32C793.566 19.1 793.83 18.726 794.065 18.198L794.109 18.088L788.983 6.164H792.525L795.847 14.194L799.191 6.164H802.491ZM812.322 6.164H815.754V18H812.322V6.164ZM814.038 4.514C813.407 4.514 812.894 4.33067 812.498 3.964C812.102 3.59733 811.904 3.14267 811.904 2.6C811.904 2.05733 812.102 1.60267 812.498 1.236C812.894 0.869332 813.407 0.685999 814.038 0.685999C814.668 0.685999 815.182 0.861999 815.578 1.214C815.974 1.566 816.172 2.006 816.172 2.534C816.172 3.106 815.974 3.58267 815.578 3.964C815.182 4.33067 814.668 4.514 814.038 4.514ZM827.233 5.988C828.7 5.988 829.88 6.428 830.775 7.308C831.684 8.188 832.139 9.49333 832.139 11.224V18H828.707V11.752C828.707 10.8133 828.502 10.1167 828.091 9.662C827.68 9.19267 827.086 8.958 826.309 8.958C825.444 8.958 824.754 9.22933 824.241 9.772C823.728 10.3 823.471 11.092 823.471 12.148V18H820.039V6.164H823.317V7.55C823.772 7.05133 824.336 6.67 825.011 6.406C825.686 6.12733 826.426 5.988 827.233 5.988ZM848.535 1.676V18H845.257V16.636C844.406 17.6627 843.174 18.176 841.561 18.176C840.446 18.176 839.434 17.9267 838.525 17.428C837.63 16.9293 836.926 16.218 836.413 15.294C835.899 14.37 835.643 13.2993 835.643 12.082C835.643 10.8647 835.899 9.794 836.413 8.87C836.926 7.946 837.63 7.23467 838.525 6.736C839.434 6.23733 840.446 5.988 841.561 5.988C843.071 5.988 844.252 6.46467 845.103 7.418V1.676H848.535ZM842.155 15.36C843.02 15.36 843.739 15.0667 844.311 14.48C844.883 13.8787 845.169 13.0793 845.169 12.082C845.169 11.0847 844.883 10.2927 844.311 9.706C843.739 9.10467 843.02 8.804 842.155 8.804C841.275 8.804 840.549 9.10467 839.977 9.706C839.405 10.2927 839.119 11.0847 839.119 12.082C839.119 13.0793 839.405 13.8787 839.977 14.48C840.549 15.0667 841.275 15.36 842.155 15.36ZM864.735 6.164V18H861.479V16.592C861.024 17.1053 860.482 17.5013 859.851 17.78C859.22 18.044 858.538 18.176 857.805 18.176C856.25 18.176 855.018 17.7287 854.109 16.834C853.2 15.9393 852.745 14.612 852.745 12.852V6.164H856.177V12.346C856.177 14.2527 856.976 15.206 858.575 15.206C859.396 15.206 860.056 14.942 860.555 14.414C861.054 13.8713 861.303 13.072 861.303 12.016V6.164H864.735ZM872.997 18.176C872.014 18.176 871.053 18.0587 870.115 17.824C869.176 17.5747 868.428 17.2667 867.871 16.9L869.015 14.436C869.543 14.7733 870.181 15.052 870.929 15.272C871.677 15.4773 872.41 15.58 873.129 15.58C874.581 15.58 875.307 15.2207 875.307 14.502C875.307 14.1647 875.109 13.9227 874.713 13.776C874.317 13.6293 873.708 13.5047 872.887 13.402C871.919 13.2553 871.119 13.0867 870.489 12.896C869.858 12.7053 869.308 12.368 868.839 11.884C868.384 11.4 868.157 10.7107 868.157 9.816C868.157 9.068 868.369 8.408 868.795 7.836C869.235 7.24933 869.865 6.79467 870.687 6.472C871.523 6.14933 872.505 5.988 873.635 5.988C874.471 5.988 875.299 6.08333 876.121 6.274C876.957 6.45 877.646 6.69933 878.189 7.022L877.045 9.464C876.003 8.87733 874.867 8.584 873.635 8.584C872.901 8.584 872.351 8.68667 871.985 8.892C871.618 9.09733 871.435 9.36133 871.435 9.684C871.435 10.0507 871.633 10.3073 872.029 10.454C872.425 10.6007 873.055 10.74 873.921 10.872C874.889 11.0333 875.681 11.2093 876.297 11.4C876.913 11.576 877.448 11.906 877.903 12.39C878.357 12.874 878.585 13.5487 878.585 14.414C878.585 15.1473 878.365 15.8 877.925 16.372C877.485 16.944 876.839 17.3913 875.989 17.714C875.153 18.022 874.155 18.176 872.997 18.176ZM889.436 17.428C889.099 17.6773 888.681 17.868 888.182 18C887.698 18.1173 887.185 18.176 886.642 18.176C885.234 18.176 884.141 17.8167 883.364 17.098C882.601 16.3793 882.22 15.3233 882.22 13.93V9.068H880.394V6.428H882.22V3.546H885.652V6.428H888.6V9.068H885.652V13.886C885.652 14.3847 885.777 14.7733 886.026 15.052C886.29 15.316 886.657 15.448 887.126 15.448C887.669 15.448 888.131 15.3013 888.512 15.008L889.436 17.428ZM895.741 7.726C896.151 7.154 896.701 6.72133 897.391 6.428C898.095 6.13467 898.901 5.988 899.811 5.988V9.156C899.429 9.12667 899.173 9.112 899.041 9.112C898.058 9.112 897.288 9.39067 896.731 9.948C896.173 10.4907 895.895 11.312 895.895 12.412V18H892.463V6.164H895.741V7.726ZM915.108 6.164L909.762 18.726C909.219 20.09 908.544 21.0507 907.738 21.608C906.946 22.1653 905.985 22.444 904.856 22.444C904.24 22.444 903.631 22.3487 903.03 22.158C902.428 21.9673 901.937 21.7033 901.556 21.366L902.81 18.924C903.074 19.1587 903.374 19.342 903.712 19.474C904.064 19.606 904.408 19.672 904.746 19.672C905.215 19.672 905.596 19.5547 905.89 19.32C906.183 19.1 906.447 18.726 906.682 18.198L906.726 18.088L901.6 6.164H905.142L908.464 14.194L911.808 6.164H915.108ZM924.938 1.676H928.37V18H924.938V1.676ZM944.25 12.126C944.25 12.17 944.228 12.478 944.184 13.05H935.23C935.391 13.7833 935.772 14.3627 936.374 14.788C936.975 15.2133 937.723 15.426 938.618 15.426C939.234 15.426 939.776 15.338 940.246 15.162C940.73 14.9713 941.177 14.678 941.588 14.282L943.414 16.262C942.299 17.538 940.671 18.176 938.53 18.176C937.195 18.176 936.014 17.9193 934.988 17.406C933.961 16.878 933.169 16.152 932.612 15.228C932.054 14.304 931.776 13.2553 931.776 12.082C931.776 10.9233 932.047 9.882 932.59 8.958C933.147 8.01933 933.902 7.29333 934.856 6.78C935.824 6.252 936.902 5.988 938.09 5.988C939.248 5.988 940.297 6.23733 941.236 6.736C942.174 7.23467 942.908 7.95333 943.436 8.892C943.978 9.816 944.25 10.894 944.25 12.126ZM938.112 8.584C937.334 8.584 936.682 8.804 936.154 9.244C935.626 9.684 935.303 10.2853 935.186 11.048H941.016C940.898 10.3 940.576 9.706 940.048 9.266C939.52 8.81133 938.874 8.584 938.112 8.584ZM952.086 5.988C953.92 5.988 955.328 6.428 956.31 7.308C957.293 8.17333 957.784 9.486 957.784 11.246V18H954.572V16.526C953.927 17.626 952.724 18.176 950.964 18.176C950.055 18.176 949.263 18.022 948.588 17.714C947.928 17.406 947.422 16.9807 947.07 16.438C946.718 15.8953 946.542 15.2793 946.542 14.59C946.542 13.49 946.953 12.6247 947.774 11.994C948.61 11.3633 949.894 11.048 951.624 11.048H954.352C954.352 10.3 954.125 9.728 953.67 9.332C953.216 8.92133 952.534 8.716 951.624 8.716C950.994 8.716 950.37 8.81867 949.754 9.024C949.153 9.21467 948.64 9.47867 948.214 9.816L946.982 7.418C947.628 6.96333 948.398 6.61133 949.292 6.362C950.202 6.11267 951.133 5.988 952.086 5.988ZM951.822 15.866C952.409 15.866 952.93 15.734 953.384 15.47C953.839 15.1913 954.162 14.788 954.352 14.26V13.05H951.998C950.59 13.05 949.886 13.512 949.886 14.436C949.886 14.876 950.055 15.228 950.392 15.492C950.744 15.7413 951.221 15.866 951.822 15.866ZM974.175 1.676V18H970.897V16.636C970.047 17.6627 968.815 18.176 967.201 18.176C966.087 18.176 965.075 17.9267 964.165 17.428C963.271 16.9293 962.567 16.218 962.053 15.294C961.54 14.37 961.283 13.2993 961.283 12.082C961.283 10.8647 961.54 9.794 962.053 8.87C962.567 7.946 963.271 7.23467 964.165 6.736C965.075 6.23733 966.087 5.988 967.201 5.988C968.712 5.988 969.893 6.46467 970.743 7.418V1.676H974.175ZM967.795 15.36C968.661 15.36 969.379 15.0667 969.951 14.48C970.523 13.8787 970.809 13.0793 970.809 12.082C970.809 11.0847 970.523 10.2927 969.951 9.706C969.379 9.10467 968.661 8.804 967.795 8.804C966.915 8.804 966.189 9.10467 965.617 9.706C965.045 10.2927 964.759 11.0847 964.759 12.082C964.759 13.0793 965.045 13.8787 965.617 14.48C966.189 15.0667 966.915 15.36 967.795 15.36ZM990.046 12.126C990.046 12.17 990.024 12.478 989.98 13.05H981.026C981.187 13.7833 981.568 14.3627 982.17 14.788C982.771 15.2133 983.519 15.426 984.414 15.426C985.03 15.426 985.572 15.338 986.042 15.162C986.526 14.9713 986.973 14.678 987.384 14.282L989.21 16.262C988.095 17.538 986.467 18.176 984.326 18.176C982.991 18.176 981.81 17.9193 980.784 17.406C979.757 16.878 978.965 16.152 978.408 15.228C977.85 14.304 977.572 13.2553 977.572 12.082C977.572 10.9233 977.843 9.882 978.386 8.958C978.943 8.01933 979.698 7.29333 980.652 6.78C981.62 6.252 982.698 5.988 983.886 5.988C985.044 5.988 986.093 6.23733 987.032 6.736C987.97 7.23467 988.704 7.95333 989.232 8.892C989.774 9.816 990.046 10.894 990.046 12.126ZM983.908 8.584C983.13 8.584 982.478 8.804 981.95 9.244C981.422 9.684 981.099 10.2853 980.982 11.048H986.812C986.694 10.3 986.372 9.706 985.844 9.266C985.316 8.81133 984.67 8.584 983.908 8.584ZM996.709 7.726C997.119 7.154 997.669 6.72133 998.359 6.428C999.063 6.13467 999.869 5.988 1000.78 5.988V9.156C1000.4 9.12667 1000.14 9.112 1000.01 9.112C999.026 9.112 998.256 9.39067 997.699 9.948C997.141 10.4907 996.863 11.312 996.863 12.412V18H993.431V6.164H996.709V7.726ZM1007.94 18.176C1006.96 18.176 1006 18.0587 1005.06 17.824C1004.12 17.5747 1003.38 17.2667 1002.82 16.9L1003.96 14.436C1004.49 14.7733 1005.13 15.052 1005.88 15.272C1006.62 15.4773 1007.36 15.58 1008.08 15.58C1009.53 15.58 1010.25 15.2207 1010.25 14.502C1010.25 14.1647 1010.06 13.9227 1009.66 13.776C1009.26 13.6293 1008.66 13.5047 1007.83 13.402C1006.87 13.2553 1006.07 13.0867 1005.44 12.896C1004.81 12.7053 1004.26 12.368 1003.79 11.884C1003.33 11.4 1003.1 10.7107 1003.1 9.816C1003.1 9.068 1003.32 8.408 1003.74 7.836C1004.18 7.24933 1004.81 6.79467 1005.63 6.472C1006.47 6.14933 1007.45 5.988 1008.58 5.988C1009.42 5.988 1010.25 6.08333 1011.07 6.274C1011.9 6.45 1012.59 6.69933 1013.14 7.022L1011.99 9.464C1010.95 8.87733 1009.81 8.584 1008.58 8.584C1007.85 8.584 1007.3 8.68667 1006.93 8.892C1006.57 9.09733 1006.38 9.36133 1006.38 9.684C1006.38 10.0507 1006.58 10.3073 1006.98 10.454C1007.37 10.6007 1008 10.74 1008.87 10.872C1009.84 11.0333 1010.63 11.2093 1011.24 11.4C1011.86 11.576 1012.4 11.906 1012.85 12.39C1013.3 12.874 1013.53 13.5487 1013.53 14.414C1013.53 15.1473 1013.31 15.8 1012.87 16.372C1012.43 16.944 1011.79 17.3913 1010.94 17.714C1010.1 18.022 1009.1 18.176 1007.94 18.176ZM1018.05 18.176C1017.45 18.176 1016.94 17.9707 1016.53 17.56C1016.12 17.1493 1015.91 16.636 1015.91 16.02C1015.91 15.3893 1016.12 14.8833 1016.53 14.502C1016.94 14.106 1017.45 13.908 1018.05 13.908C1018.65 13.908 1019.16 14.106 1019.57 14.502C1019.98 14.8833 1020.18 15.3893 1020.18 16.02C1020.18 16.636 1019.98 17.1493 1019.57 17.56C1019.16 17.9707 1018.65 18.176 1018.05 18.176Z" fill="#3A3748"/>
</svg>
