<svg width="40" height="40" viewBox="0 0 40 40" fill="none" xmlns="http://www.w3.org/2000/svg">
<g clip-path="url(#clip0)">
<path d="M38.4858 27.6388C42.7128 17.4339 37.8668 5.73458 27.6619 1.50757C17.457 -2.71943 5.75763 2.1266 1.53062 12.3315C-2.69638 22.5364 2.14965 34.2357 12.3545 38.4627C22.5594 42.6898 34.2588 37.8437 38.4858 27.6388Z" fill="white" fill-opacity="0.21"/>
<path d="M13.7834 29.9833H9.11675V14.9833H13.7834V29.9833ZM11.4501 12.9333C10.9114 12.9366 10.3838 12.7796 9.93454 12.4824C9.48524 12.1852 9.13446 11.761 8.92678 11.264C8.7191 10.7669 8.6639 10.2193 8.76819 9.69075C8.87248 9.16222 9.13156 8.67663 9.51249 8.29569C9.89342 7.91476 10.379 7.65569 10.9075 7.55139C11.4361 7.4471 11.9837 7.50231 12.4808 7.70999C12.9778 7.91767 13.402 8.26845 13.6992 8.71775C13.9964 9.16704 14.1534 9.69457 14.1501 10.2333C14.1501 10.9494 13.8656 11.6361 13.3593 12.1425C12.8529 12.6488 12.1662 12.9333 11.4501 12.9333ZM31.2667 29.9833H26.6001V22.6833C26.6001 21.0166 26.6001 18.7166 24.1667 18.7166C21.7334 18.7166 21.3834 20.5999 21.3834 22.5666V29.9833H16.7167V14.9833H21.1834V17.0333C21.6421 16.2652 22.2986 15.6342 23.0842 15.2062C23.8699 14.7782 24.756 14.5688 25.6501 14.6C30.3667 14.6 31.2667 17.7166 31.2667 21.7666V30V29.9833Z" fill="#3A3748"/>
</g>
<defs>
<clipPath id="clip0">
<rect width="40" height="40" fill="white"/>
</clipPath>
</defs>
</svg>
