<svg width="32" height="32" viewBox="0 0 32 32" fill="none" xmlns="http://www.w3.org/2000/svg">
<ellipse cx="16" cy="16" rx="16" ry="16" fill="#FDFDFD"/>
<path d="M15.979 8.81934C13.1349 8.81934 10.8346 11.1196 10.8346 13.9637C10.8346 17.0283 14.0829 21.254 15.4204 22.8634C15.7144 23.2162 16.2509 23.2162 16.5448 22.8634C17.875 21.254 21.1233 17.0283 21.1233 13.9637C21.1233 11.1196 18.823 8.81934 15.979 8.81934ZM15.979 15.801C14.9648 15.801 14.1417 14.9779 14.1417 13.9637C14.1417 12.9495 14.9648 12.1264 15.979 12.1264C16.9931 12.1264 17.8162 12.9495 17.8162 13.9637C17.8162 14.9779 16.9931 15.801 15.979 15.801Z" fill="#3A3748"/>
</svg>
