<svg width="32" height="32" viewBox="0 0 32 32" fill="none" xmlns="http://www.w3.org/2000/svg">
<circle cx="16" cy="16" r="16" fill="#FDFDFD"/>
<mask id="path-2-inside-1" fill="white">
<path d="M16.0076 16.9955C15.4223 16.9942 14.8425 17.1453 14.3016 17.4401C13.7606 17.7349 13.2691 18.1676 12.8553 18.7135C12.4414 19.2593 12.1133 19.9075 11.8897 20.6209C11.6662 21.3344 11.5517 22.099 11.5526 22.8709H20.4625C20.4635 22.099 20.349 21.3344 20.1254 20.6209C19.9019 19.9075 19.5738 19.2593 19.1599 18.7135C18.746 18.1676 18.2545 17.7349 17.7136 17.4401C17.1726 17.1453 16.5929 16.9942 16.0076 16.9955Z"/>
<path d="M20.5676 23H11.4474V22.8712C11.4474 21.2762 11.9278 19.7465 12.783 18.6186C13.6382 17.4907 14.7981 16.8571 16.0075 16.8571C17.2169 16.8571 18.3768 17.4907 19.232 18.6186C20.0872 19.7465 20.5676 21.2762 20.5676 22.8712V23ZM11.6502 22.7325H20.3648C20.3648 21.2084 19.9057 19.7467 19.0886 18.669C18.2714 17.5914 17.1631 16.9859 16.0075 16.9859C14.8519 16.9859 13.7436 17.5914 12.9264 18.669C12.1093 19.7467 11.6502 21.2084 11.6502 22.7325Z"/>
<path d="M21.3564 16.9956C22.5887 16.9956 23.5876 15.6781 23.5876 14.0529C23.5876 12.4278 22.5887 11.1103 21.3564 11.1103C20.1241 11.1103 19.1252 12.4278 19.1252 14.0529C19.1252 15.6781 20.1241 16.9956 21.3564 16.9956Z"/>
<path d="M21.3565 17.1245C20.8959 17.1245 20.4456 16.9443 20.0626 16.6068C19.6796 16.2694 19.3811 15.7897 19.2049 15.2284C19.0286 14.6672 18.9825 14.0496 19.0723 13.4538C19.1622 12.858 19.384 12.3107 19.7097 11.8812C20.0354 11.4516 20.4504 11.1591 20.9021 11.0406C21.3539 10.9221 21.8222 10.9829 22.2477 11.2154C22.6733 11.4479 23.037 11.8415 23.2929 12.3466C23.5488 12.8517 23.6854 13.4456 23.6854 14.053C23.6854 14.8676 23.44 15.6489 23.0033 16.2249C22.5665 16.8009 21.9741 17.1245 21.3565 17.1245ZM21.3565 11.2491C20.9377 11.2589 20.5304 11.4316 20.1857 11.7455C19.8411 12.0595 19.5744 12.5008 19.4193 13.0139C19.2641 13.527 19.2273 14.0892 19.3135 14.6298C19.3998 15.1704 19.6052 15.6654 19.9039 16.0526C20.2027 16.4398 20.5815 16.7019 20.9929 16.8062C21.4043 16.9104 21.8298 16.8521 22.2161 16.6385C22.6024 16.4249 22.9322 16.0655 23.1642 15.6055C23.3962 15.1456 23.52 14.6055 23.5201 14.053C23.5201 13.6806 23.4639 13.3119 23.3547 12.9684C23.2456 12.625 23.0856 12.3137 22.8842 12.0526C22.6828 11.7916 22.4439 11.5861 22.1816 11.4481C21.9193 11.3102 21.6388 11.2425 21.3565 11.2491Z"/>
<path d="M21.3564 17.5107C20.7809 17.5115 20.214 17.695 19.7037 18.0458C20.669 19.3284 21.2094 21.0636 21.2062 22.8709H24.8873C24.911 22.6543 24.9236 22.4358 24.9249 22.217C24.9249 21.599 24.8326 20.987 24.6532 20.416C24.4739 19.845 24.2111 19.3262 23.8797 18.8892C23.5483 18.4522 23.155 18.1055 22.722 17.869C22.2891 17.6325 21.825 17.5107 21.3564 17.5107Z"/>
<path d="M24.9775 22.9997H21.1085V22.8709C21.1068 21.9914 20.9731 21.121 20.7152 20.3099C20.4574 19.4988 20.0804 18.763 19.606 18.1448L19.5083 18.016L19.636 17.9269C20.1954 17.5446 20.8198 17.3584 21.4494 17.3862C22.079 17.4141 22.6926 17.655 23.2313 18.0858C23.77 18.5166 24.2156 19.1229 24.5253 19.8463C24.835 20.5698 24.9985 21.3862 25 22.217C24.9984 22.4424 24.9859 22.6674 24.9624 22.8907L24.9775 22.9997ZM21.3038 22.7322H24.7972C24.8046 22.5606 24.8046 22.3886 24.7972 22.217C24.7905 21.4529 24.639 20.7032 24.3563 20.0362C24.0737 19.3692 23.6689 18.8061 23.179 18.3983C22.689 17.9905 22.1294 17.7509 21.5512 17.7015C20.9731 17.652 20.3947 17.7942 19.8689 18.1151C20.765 19.3661 21.2764 21.0117 21.3038 22.7322Z"/>
<path d="M10.6585 17.5107C9.71212 17.5107 8.80446 18.0066 8.13524 18.8892C7.46603 19.7718 7.09007 20.9688 7.09007 22.217C7.09138 22.4358 7.10392 22.6543 7.12762 22.8709H10.8088C10.8056 21.0636 11.3459 19.3284 12.3113 18.0458C11.8009 17.695 11.234 17.5115 10.6585 17.5107Z"/>
<path d="M10.9065 22.9997H7.03757V22.8907C7.01411 22.6674 7.00156 22.4424 7 22.217C7.0015 21.3862 7.16497 20.5698 7.4747 19.8463C7.78444 19.1229 8.23004 18.5166 8.7687 18.0858C9.30735 17.655 9.92097 17.4141 10.5506 17.3862C11.1802 17.3584 11.8046 17.5446 12.364 17.9269L12.4917 18.016L12.394 18.1448C11.9196 18.763 11.5426 19.4988 11.2848 20.3099C11.0269 21.121 10.8932 21.9914 10.8915 22.8709L10.9065 22.9997ZM7.21787 22.7322H10.7488C10.7659 21.0183 11.2637 19.3735 12.1461 18.1151C11.6176 17.7865 11.0348 17.6392 10.4517 17.6868C9.86853 17.7345 9.30394 17.9754 8.81023 18.3875C8.31651 18.7995 7.90966 19.3692 7.62736 20.0438C7.34506 20.7185 7.19646 21.4762 7.19533 22.2467C7.19619 22.4089 7.20371 22.571 7.21787 22.7322Z"/>
<path d="M16.0076 16.0149C17.4431 16.0149 18.6069 14.4801 18.6069 12.5868C18.6069 10.6935 17.4431 9.15866 16.0076 9.15866C14.572 9.15866 13.4082 10.6935 13.4082 12.5868C13.4082 14.4801 14.572 16.0149 16.0076 16.0149Z"/>
<path d="M16.0075 16.1337C15.4722 16.1337 14.9491 15.9242 14.5041 15.5319C14.0592 15.1395 13.7126 14.5818 13.5081 13.9295C13.3036 13.2772 13.2505 12.5595 13.3555 11.8673C13.4604 11.1752 13.7188 10.5396 14.0978 10.0412C14.4767 9.54276 14.9593 9.20384 15.4845 9.06733C16.0096 8.93083 16.5536 9.00288 17.0477 9.27436C17.5417 9.54585 17.9636 10.0046 18.2598 10.5924C18.5561 11.1803 18.7135 11.8709 18.712 12.5768C18.71 13.521 18.4242 14.4257 17.9172 15.0925C17.4102 15.7593 16.7234 16.1337 16.0075 16.1337ZM16.0075 9.27742C15.5127 9.27742 15.029 9.47092 14.6176 9.83346C14.2062 10.196 13.8856 10.7113 13.6962 11.3142C13.5069 11.917 13.4573 12.5804 13.5539 13.2204C13.6504 13.8604 13.8887 14.4483 14.2385 14.9097C14.5884 15.3711 15.0341 15.6854 15.5194 15.8127C16.0047 15.94 16.5077 15.8747 16.9648 15.6249C17.4219 15.3752 17.8127 14.9523 18.0875 14.4098C18.3624 13.8672 18.5091 13.2293 18.5091 12.5768C18.5052 11.7042 18.2401 10.8691 17.7716 10.2531C17.3031 9.63701 16.669 9.28992 16.0075 9.28733V9.27742Z"/>
<path d="M10.6585 16.9956C11.8908 16.9956 12.8898 15.6781 12.8898 14.0529C12.8898 12.4278 11.8908 11.1103 10.6585 11.1103C9.42627 11.1103 8.42732 12.4278 8.42732 14.0529C8.42732 15.6781 9.42627 16.9956 10.6585 16.9956Z"/>
<path d="M10.6586 17.1245C10.198 17.1245 9.74774 16.9443 9.36476 16.6068C8.98177 16.2694 8.68328 15.7897 8.50701 15.2284C8.33074 14.6672 8.28462 14.0496 8.37448 13.4538C8.46434 12.858 8.68615 12.3107 9.01185 11.8812C9.33755 11.4516 9.75252 11.1591 10.2043 11.0406C10.656 10.9221 11.1243 10.9829 11.5498 11.2154C11.9754 11.4479 12.3391 11.8415 12.595 12.3466C12.8509 12.8517 12.9875 13.4456 12.9875 14.053C12.9875 14.8676 12.7421 15.6489 12.3054 16.2249C11.8686 16.8009 11.2763 17.1245 10.6586 17.1245ZM10.6586 11.2491C10.2381 11.2491 9.82708 11.4136 9.47745 11.7217C9.12782 12.0298 8.85532 12.4677 8.69441 12.98C8.53349 13.4924 8.49138 14.0561 8.57341 14.6001C8.65545 15.144 8.85794 15.6436 9.15528 16.0357C9.45261 16.4279 9.83143 16.6949 10.2438 16.8031C10.6563 16.9113 11.0837 16.8558 11.4722 16.6435C11.8607 16.4313 12.1928 16.0719 12.4264 15.6108C12.66 15.1497 12.7847 14.6076 12.7847 14.053C12.7847 13.3094 12.5607 12.5962 12.162 12.0704C11.7633 11.5445 11.2225 11.2491 10.6586 11.2491Z"/>
</mask>
<path d="M16.0076 16.9955C15.4223 16.9942 14.8425 17.1453 14.3016 17.4401C13.7606 17.7349 13.2691 18.1676 12.8553 18.7135C12.4414 19.2593 12.1133 19.9075 11.8897 20.6209C11.6662 21.3344 11.5517 22.099 11.5526 22.8709H20.4625C20.4635 22.099 20.349 21.3344 20.1254 20.6209C19.9019 19.9075 19.5738 19.2593 19.1599 18.7135C18.746 18.1676 18.2545 17.7349 17.7136 17.4401C17.1726 17.1453 16.5929 16.9942 16.0076 16.9955Z" fill="#3A3748"/>
<path d="M20.5676 23H11.4474V22.8712C11.4474 21.2762 11.9278 19.7465 12.783 18.6186C13.6382 17.4907 14.7981 16.8571 16.0075 16.8571C17.2169 16.8571 18.3768 17.4907 19.232 18.6186C20.0872 19.7465 20.5676 21.2762 20.5676 22.8712V23ZM11.6502 22.7325H20.3648C20.3648 21.2084 19.9057 19.7467 19.0886 18.669C18.2714 17.5914 17.1631 16.9859 16.0075 16.9859C14.8519 16.9859 13.7436 17.5914 12.9264 18.669C12.1093 19.7467 11.6502 21.2084 11.6502 22.7325Z" fill="#3A3748"/>
<path d="M21.3564 16.9956C22.5887 16.9956 23.5876 15.6781 23.5876 14.0529C23.5876 12.4278 22.5887 11.1103 21.3564 11.1103C20.1241 11.1103 19.1252 12.4278 19.1252 14.0529C19.1252 15.6781 20.1241 16.9956 21.3564 16.9956Z" fill="#3A3748"/>
<path d="M21.3565 17.1245C20.8959 17.1245 20.4456 16.9443 20.0626 16.6068C19.6796 16.2694 19.3811 15.7897 19.2049 15.2284C19.0286 14.6672 18.9825 14.0496 19.0723 13.4538C19.1622 12.858 19.384 12.3107 19.7097 11.8812C20.0354 11.4516 20.4504 11.1591 20.9021 11.0406C21.3539 10.9221 21.8222 10.9829 22.2477 11.2154C22.6733 11.4479 23.037 11.8415 23.2929 12.3466C23.5488 12.8517 23.6854 13.4456 23.6854 14.053C23.6854 14.8676 23.44 15.6489 23.0033 16.2249C22.5665 16.8009 21.9741 17.1245 21.3565 17.1245ZM21.3565 11.2491C20.9377 11.2589 20.5304 11.4316 20.1857 11.7455C19.8411 12.0595 19.5744 12.5008 19.4193 13.0139C19.2641 13.527 19.2273 14.0892 19.3135 14.6298C19.3998 15.1704 19.6052 15.6654 19.9039 16.0526C20.2027 16.4398 20.5815 16.7019 20.9929 16.8062C21.4043 16.9104 21.8298 16.8521 22.2161 16.6385C22.6024 16.4249 22.9322 16.0655 23.1642 15.6055C23.3962 15.1456 23.52 14.6055 23.5201 14.053C23.5201 13.6806 23.4639 13.3119 23.3547 12.9684C23.2456 12.625 23.0856 12.3137 22.8842 12.0526C22.6828 11.7916 22.4439 11.5861 22.1816 11.4481C21.9193 11.3102 21.6388 11.2425 21.3565 11.2491Z" fill="#3A3748"/>
<path d="M21.3564 17.5107C20.7809 17.5115 20.214 17.695 19.7037 18.0458C20.669 19.3284 21.2094 21.0636 21.2062 22.8709H24.8873C24.911 22.6543 24.9236 22.4358 24.9249 22.217C24.9249 21.599 24.8326 20.987 24.6532 20.416C24.4739 19.845 24.2111 19.3262 23.8797 18.8892C23.5483 18.4522 23.155 18.1055 22.722 17.869C22.2891 17.6325 21.825 17.5107 21.3564 17.5107Z" fill="#3A3748"/>
<path d="M24.9775 22.9997H21.1085V22.8709C21.1068 21.9914 20.9731 21.121 20.7152 20.3099C20.4574 19.4988 20.0804 18.763 19.606 18.1448L19.5083 18.016L19.636 17.9269C20.1954 17.5446 20.8198 17.3584 21.4494 17.3862C22.079 17.4141 22.6926 17.655 23.2313 18.0858C23.77 18.5166 24.2156 19.1229 24.5253 19.8463C24.835 20.5698 24.9985 21.3862 25 22.217C24.9984 22.4424 24.9859 22.6674 24.9624 22.8907L24.9775 22.9997ZM21.3038 22.7322H24.7972C24.8046 22.5606 24.8046 22.3886 24.7972 22.217C24.7905 21.4529 24.639 20.7032 24.3563 20.0362C24.0737 19.3692 23.6689 18.8061 23.179 18.3983C22.689 17.9905 22.1294 17.7509 21.5512 17.7015C20.9731 17.652 20.3947 17.7942 19.8689 18.1151C20.765 19.3661 21.2764 21.0117 21.3038 22.7322Z" fill="#3A3748"/>
<path d="M10.6585 17.5107C9.71212 17.5107 8.80446 18.0066 8.13524 18.8892C7.46603 19.7718 7.09007 20.9688 7.09007 22.217C7.09138 22.4358 7.10392 22.6543 7.12762 22.8709H10.8088C10.8056 21.0636 11.3459 19.3284 12.3113 18.0458C11.8009 17.695 11.234 17.5115 10.6585 17.5107Z" fill="#3A3748"/>
<path d="M10.9065 22.9997H7.03757V22.8907C7.01411 22.6674 7.00156 22.4424 7 22.217C7.0015 21.3862 7.16497 20.5698 7.4747 19.8463C7.78444 19.1229 8.23004 18.5166 8.7687 18.0858C9.30735 17.655 9.92097 17.4141 10.5506 17.3862C11.1802 17.3584 11.8046 17.5446 12.364 17.9269L12.4917 18.016L12.394 18.1448C11.9196 18.763 11.5426 19.4988 11.2848 20.3099C11.0269 21.121 10.8932 21.9914 10.8915 22.8709L10.9065 22.9997ZM7.21787 22.7322H10.7488C10.7659 21.0183 11.2637 19.3735 12.1461 18.1151C11.6176 17.7865 11.0348 17.6392 10.4517 17.6868C9.86853 17.7345 9.30394 17.9754 8.81023 18.3875C8.31651 18.7995 7.90966 19.3692 7.62736 20.0438C7.34506 20.7185 7.19646 21.4762 7.19533 22.2467C7.19619 22.4089 7.20371 22.571 7.21787 22.7322Z" fill="#3A3748"/>
<path d="M16.0076 16.0149C17.4431 16.0149 18.6069 14.4801 18.6069 12.5868C18.6069 10.6935 17.4431 9.15866 16.0076 9.15866C14.572 9.15866 13.4082 10.6935 13.4082 12.5868C13.4082 14.4801 14.572 16.0149 16.0076 16.0149Z" fill="#3A3748"/>
<path d="M16.0075 16.1337C15.4722 16.1337 14.9491 15.9242 14.5041 15.5319C14.0592 15.1395 13.7126 14.5818 13.5081 13.9295C13.3036 13.2772 13.2505 12.5595 13.3555 11.8673C13.4604 11.1752 13.7188 10.5396 14.0978 10.0412C14.4767 9.54276 14.9593 9.20384 15.4845 9.06733C16.0096 8.93083 16.5536 9.00288 17.0477 9.27436C17.5417 9.54585 17.9636 10.0046 18.2598 10.5924C18.5561 11.1803 18.7135 11.8709 18.712 12.5768C18.71 13.521 18.4242 14.4257 17.9172 15.0925C17.4102 15.7593 16.7234 16.1337 16.0075 16.1337ZM16.0075 9.27742C15.5127 9.27742 15.029 9.47092 14.6176 9.83346C14.2062 10.196 13.8856 10.7113 13.6962 11.3142C13.5069 11.917 13.4573 12.5804 13.5539 13.2204C13.6504 13.8604 13.8887 14.4483 14.2385 14.9097C14.5884 15.3711 15.0341 15.6854 15.5194 15.8127C16.0047 15.94 16.5077 15.8747 16.9648 15.6249C17.4219 15.3752 17.8127 14.9523 18.0875 14.4098C18.3624 13.8672 18.5091 13.2293 18.5091 12.5768C18.5052 11.7042 18.2401 10.8691 17.7716 10.2531C17.3031 9.63701 16.669 9.28992 16.0075 9.28733V9.27742Z" fill="#3A3748"/>
<path d="M10.6585 16.9956C11.8908 16.9956 12.8898 15.6781 12.8898 14.0529C12.8898 12.4278 11.8908 11.1103 10.6585 11.1103C9.42627 11.1103 8.42732 12.4278 8.42732 14.0529C8.42732 15.6781 9.42627 16.9956 10.6585 16.9956Z" fill="#3A3748"/>
<path d="M10.6586 17.1245C10.198 17.1245 9.74774 16.9443 9.36476 16.6068C8.98177 16.2694 8.68328 15.7897 8.50701 15.2284C8.33074 14.6672 8.28462 14.0496 8.37448 13.4538C8.46434 12.858 8.68615 12.3107 9.01185 11.8812C9.33755 11.4516 9.75252 11.1591 10.2043 11.0406C10.656 10.9221 11.1243 10.9829 11.5498 11.2154C11.9754 11.4479 12.3391 11.8415 12.595 12.3466C12.8509 12.8517 12.9875 13.4456 12.9875 14.053C12.9875 14.8676 12.7421 15.6489 12.3054 16.2249C11.8686 16.8009 11.2763 17.1245 10.6586 17.1245ZM10.6586 11.2491C10.2381 11.2491 9.82708 11.4136 9.47745 11.7217C9.12782 12.0298 8.85532 12.4677 8.69441 12.98C8.53349 13.4924 8.49138 14.0561 8.57341 14.6001C8.65545 15.144 8.85794 15.6436 9.15528 16.0357C9.45261 16.4279 9.83143 16.6949 10.2438 16.8031C10.6563 16.9113 11.0837 16.8558 11.4722 16.6435C11.8607 16.4313 12.1928 16.0719 12.4264 15.6108C12.66 15.1497 12.7847 14.6076 12.7847 14.053C12.7847 13.3094 12.5607 12.5962 12.162 12.0704C11.7633 11.5445 11.2225 11.2491 10.6586 11.2491Z" fill="#3A3748"/>
<path d="M16.0076 16.9955C15.4223 16.9942 14.8425 17.1453 14.3016 17.4401C13.7606 17.7349 13.2691 18.1676 12.8553 18.7135C12.4414 19.2593 12.1133 19.9075 11.8897 20.6209C11.6662 21.3344 11.5517 22.099 11.5526 22.8709H20.4625C20.4635 22.099 20.349 21.3344 20.1254 20.6209C19.9019 19.9075 19.5738 19.2593 19.1599 18.7135C18.746 18.1676 18.2545 17.7349 17.7136 17.4401C17.1726 17.1453 16.5929 16.9942 16.0076 16.9955Z" stroke="#FDFDFD" stroke-width="0.6" mask="url(#path-2-inside-1)"/>
<path d="M20.5676 23H11.4474V22.8712C11.4474 21.2762 11.9278 19.7465 12.783 18.6186C13.6382 17.4907 14.7981 16.8571 16.0075 16.8571C17.2169 16.8571 18.3768 17.4907 19.232 18.6186C20.0872 19.7465 20.5676 21.2762 20.5676 22.8712V23ZM11.6502 22.7325H20.3648C20.3648 21.2084 19.9057 19.7467 19.0886 18.669C18.2714 17.5914 17.1631 16.9859 16.0075 16.9859C14.8519 16.9859 13.7436 17.5914 12.9264 18.669C12.1093 19.7467 11.6502 21.2084 11.6502 22.7325Z" stroke="#FDFDFD" stroke-width="0.6" mask="url(#path-2-inside-1)"/>
<path d="M21.3564 16.9956C22.5887 16.9956 23.5876 15.6781 23.5876 14.0529C23.5876 12.4278 22.5887 11.1103 21.3564 11.1103C20.1241 11.1103 19.1252 12.4278 19.1252 14.0529C19.1252 15.6781 20.1241 16.9956 21.3564 16.9956Z" stroke="#FDFDFD" stroke-width="0.6" mask="url(#path-2-inside-1)"/>
<path d="M21.3565 17.1245C20.8959 17.1245 20.4456 16.9443 20.0626 16.6068C19.6796 16.2694 19.3811 15.7897 19.2049 15.2284C19.0286 14.6672 18.9825 14.0496 19.0723 13.4538C19.1622 12.858 19.384 12.3107 19.7097 11.8812C20.0354 11.4516 20.4504 11.1591 20.9021 11.0406C21.3539 10.9221 21.8222 10.9829 22.2477 11.2154C22.6733 11.4479 23.037 11.8415 23.2929 12.3466C23.5488 12.8517 23.6854 13.4456 23.6854 14.053C23.6854 14.8676 23.44 15.6489 23.0033 16.2249C22.5665 16.8009 21.9741 17.1245 21.3565 17.1245ZM21.3565 11.2491C20.9377 11.2589 20.5304 11.4316 20.1857 11.7455C19.8411 12.0595 19.5744 12.5008 19.4193 13.0139C19.2641 13.527 19.2273 14.0892 19.3135 14.6298C19.3998 15.1704 19.6052 15.6654 19.9039 16.0526C20.2027 16.4398 20.5815 16.7019 20.9929 16.8062C21.4043 16.9104 21.8298 16.8521 22.2161 16.6385C22.6024 16.4249 22.9322 16.0655 23.1642 15.6055C23.3962 15.1456 23.52 14.6055 23.5201 14.053C23.5201 13.6806 23.4639 13.3119 23.3547 12.9684C23.2456 12.625 23.0856 12.3137 22.8842 12.0526C22.6828 11.7916 22.4439 11.5861 22.1816 11.4481C21.9193 11.3102 21.6388 11.2425 21.3565 11.2491Z" stroke="#FDFDFD" stroke-width="0.6" mask="url(#path-2-inside-1)"/>
<path d="M21.3564 17.5107C20.7809 17.5115 20.214 17.695 19.7037 18.0458C20.669 19.3284 21.2094 21.0636 21.2062 22.8709H24.8873C24.911 22.6543 24.9236 22.4358 24.9249 22.217C24.9249 21.599 24.8326 20.987 24.6532 20.416C24.4739 19.845 24.2111 19.3262 23.8797 18.8892C23.5483 18.4522 23.155 18.1055 22.722 17.869C22.2891 17.6325 21.825 17.5107 21.3564 17.5107Z" stroke="#FDFDFD" stroke-width="0.6" mask="url(#path-2-inside-1)"/>
<path d="M24.9775 22.9997H21.1085V22.8709C21.1068 21.9914 20.9731 21.121 20.7152 20.3099C20.4574 19.4988 20.0804 18.763 19.606 18.1448L19.5083 18.016L19.636 17.9269C20.1954 17.5446 20.8198 17.3584 21.4494 17.3862C22.079 17.4141 22.6926 17.655 23.2313 18.0858C23.77 18.5166 24.2156 19.1229 24.5253 19.8463C24.835 20.5698 24.9985 21.3862 25 22.217C24.9984 22.4424 24.9859 22.6674 24.9624 22.8907L24.9775 22.9997ZM21.3038 22.7322H24.7972C24.8046 22.5606 24.8046 22.3886 24.7972 22.217C24.7905 21.4529 24.639 20.7032 24.3563 20.0362C24.0737 19.3692 23.6689 18.8061 23.179 18.3983C22.689 17.9905 22.1294 17.7509 21.5512 17.7015C20.9731 17.652 20.3947 17.7942 19.8689 18.1151C20.765 19.3661 21.2764 21.0117 21.3038 22.7322Z" stroke="#FDFDFD" stroke-width="0.6" mask="url(#path-2-inside-1)"/>
<path d="M10.6585 17.5107C9.71212 17.5107 8.80446 18.0066 8.13524 18.8892C7.46603 19.7718 7.09007 20.9688 7.09007 22.217C7.09138 22.4358 7.10392 22.6543 7.12762 22.8709H10.8088C10.8056 21.0636 11.3459 19.3284 12.3113 18.0458C11.8009 17.695 11.234 17.5115 10.6585 17.5107Z" stroke="#FDFDFD" stroke-width="0.6" mask="url(#path-2-inside-1)"/>
<path d="M10.9065 22.9997H7.03757V22.8907C7.01411 22.6674 7.00156 22.4424 7 22.217C7.0015 21.3862 7.16497 20.5698 7.4747 19.8463C7.78444 19.1229 8.23004 18.5166 8.7687 18.0858C9.30735 17.655 9.92097 17.4141 10.5506 17.3862C11.1802 17.3584 11.8046 17.5446 12.364 17.9269L12.4917 18.016L12.394 18.1448C11.9196 18.763 11.5426 19.4988 11.2848 20.3099C11.0269 21.121 10.8932 21.9914 10.8915 22.8709L10.9065 22.9997ZM7.21787 22.7322H10.7488C10.7659 21.0183 11.2637 19.3735 12.1461 18.1151C11.6176 17.7865 11.0348 17.6392 10.4517 17.6868C9.86853 17.7345 9.30394 17.9754 8.81023 18.3875C8.31651 18.7995 7.90966 19.3692 7.62736 20.0438C7.34506 20.7185 7.19646 21.4762 7.19533 22.2467C7.19619 22.4089 7.20371 22.571 7.21787 22.7322Z" stroke="#FDFDFD" stroke-width="0.6" mask="url(#path-2-inside-1)"/>
<path d="M16.0076 16.0149C17.4431 16.0149 18.6069 14.4801 18.6069 12.5868C18.6069 10.6935 17.4431 9.15866 16.0076 9.15866C14.572 9.15866 13.4082 10.6935 13.4082 12.5868C13.4082 14.4801 14.572 16.0149 16.0076 16.0149Z" stroke="#FDFDFD" stroke-width="0.6" mask="url(#path-2-inside-1)"/>
<path d="M16.0075 16.1337C15.4722 16.1337 14.9491 15.9242 14.5041 15.5319C14.0592 15.1395 13.7126 14.5818 13.5081 13.9295C13.3036 13.2772 13.2505 12.5595 13.3555 11.8673C13.4604 11.1752 13.7188 10.5396 14.0978 10.0412C14.4767 9.54276 14.9593 9.20384 15.4845 9.06733C16.0096 8.93083 16.5536 9.00288 17.0477 9.27436C17.5417 9.54585 17.9636 10.0046 18.2598 10.5924C18.5561 11.1803 18.7135 11.8709 18.712 12.5768C18.71 13.521 18.4242 14.4257 17.9172 15.0925C17.4102 15.7593 16.7234 16.1337 16.0075 16.1337ZM16.0075 9.27742C15.5127 9.27742 15.029 9.47092 14.6176 9.83346C14.2062 10.196 13.8856 10.7113 13.6962 11.3142C13.5069 11.917 13.4573 12.5804 13.5539 13.2204C13.6504 13.8604 13.8887 14.4483 14.2385 14.9097C14.5884 15.3711 15.0341 15.6854 15.5194 15.8127C16.0047 15.94 16.5077 15.8747 16.9648 15.6249C17.4219 15.3752 17.8127 14.9523 18.0875 14.4098C18.3624 13.8672 18.5091 13.2293 18.5091 12.5768C18.5052 11.7042 18.2401 10.8691 17.7716 10.2531C17.3031 9.63701 16.669 9.28992 16.0075 9.28733V9.27742Z" stroke="#FDFDFD" stroke-width="0.6" mask="url(#path-2-inside-1)"/>
<path d="M10.6585 16.9956C11.8908 16.9956 12.8898 15.6781 12.8898 14.0529C12.8898 12.4278 11.8908 11.1103 10.6585 11.1103C9.42627 11.1103 8.42732 12.4278 8.42732 14.0529C8.42732 15.6781 9.42627 16.9956 10.6585 16.9956Z" stroke="#FDFDFD" stroke-width="0.6" mask="url(#path-2-inside-1)"/>
<path d="M10.6586 17.1245C10.198 17.1245 9.74774 16.9443 9.36476 16.6068C8.98177 16.2694 8.68328 15.7897 8.50701 15.2284C8.33074 14.6672 8.28462 14.0496 8.37448 13.4538C8.46434 12.858 8.68615 12.3107 9.01185 11.8812C9.33755 11.4516 9.75252 11.1591 10.2043 11.0406C10.656 10.9221 11.1243 10.9829 11.5498 11.2154C11.9754 11.4479 12.3391 11.8415 12.595 12.3466C12.8509 12.8517 12.9875 13.4456 12.9875 14.053C12.9875 14.8676 12.7421 15.6489 12.3054 16.2249C11.8686 16.8009 11.2763 17.1245 10.6586 17.1245ZM10.6586 11.2491C10.2381 11.2491 9.82708 11.4136 9.47745 11.7217C9.12782 12.0298 8.85532 12.4677 8.69441 12.98C8.53349 13.4924 8.49138 14.0561 8.57341 14.6001C8.65545 15.144 8.85794 15.6436 9.15528 16.0357C9.45261 16.4279 9.83143 16.6949 10.2438 16.8031C10.6563 16.9113 11.0837 16.8558 11.4722 16.6435C11.8607 16.4313 12.1928 16.0719 12.4264 15.6108C12.66 15.1497 12.7847 14.6076 12.7847 14.053C12.7847 13.3094 12.5607 12.5962 12.162 12.0704C11.7633 11.5445 11.2225 11.2491 10.6586 11.2491Z" stroke="#FDFDFD" stroke-width="0.6" mask="url(#path-2-inside-1)"/>
</svg>
