<svg width="160" height="159" viewBox="0 0 160 159" fill="none" xmlns="http://www.w3.org/2000/svg">
<mask id="mask0" mask-type="alpha" maskUnits="userSpaceOnUse" x="0" y="0" width="160" height="159">
<ellipse cx="80" cy="79.4839" rx="80" ry="79.4839" fill="#C4C4C4"/>
</mask>
<g mask="url(#mask0)">
<g style="mix-blend-mode:multiply">
<g style="mix-blend-mode:multiply">
<g style="mix-blend-mode:multiply">
<g style="mix-blend-mode:multiply">
<path d="M9.82327 5.0142C9.82327 5.95522 9.5424 6.8751 9.0162 7.65752C8.49 8.43995 7.74205 9.04977 6.86701 9.40988C5.99197 9.76999 5.02914 9.86421 4.1002 9.68063C3.17126 9.49705 2.31793 9.04393 1.64821 8.37853C0.978478 7.71313 0.522408 6.86535 0.337631 5.94242C0.152854 5.01949 0.247659 4.06284 0.610112 3.19346C0.972566 2.32407 1.58635 1.58099 2.37387 1.05819C3.16138 0.535395 4.08728 0.256348 5.03442 0.256348C6.30449 0.256348 7.52256 0.757607 8.42063 1.64988C9.31871 2.54215 9.82327 3.75234 9.82327 5.0142Z" fill="#00CED1"/>
</g>
</g>
<g style="mix-blend-mode:multiply">
<g style="mix-blend-mode:multiply">
<path d="M26.8413 5.0142C26.8413 5.95522 26.5604 6.8751 26.0342 7.65752C25.508 8.43995 24.7601 9.04977 23.8851 9.40988C23.01 9.76999 22.0471 9.86421 21.1182 9.68063C20.1893 9.49705 19.336 9.04393 18.6663 8.37853C17.9965 7.71313 17.5405 6.86535 17.3557 5.94242C17.1709 5.01949 17.2657 4.06284 17.6282 3.19346C17.9906 2.32407 18.6044 1.58099 19.3919 1.05819C20.1794 0.535395 21.1053 0.256348 22.0525 0.256348C23.3226 0.256348 24.5405 0.757607 25.4386 1.64988C26.3367 2.54215 26.8413 3.75234 26.8413 5.0142Z" fill="#00CED1"/>
</g>
</g>
<g style="mix-blend-mode:multiply">
<g style="mix-blend-mode:multiply">
<path d="M43.8594 5.0142C43.8594 5.95522 43.5785 6.8751 43.0523 7.65752C42.5261 8.43995 41.7782 9.04977 40.9031 9.40988C40.0281 9.76999 39.0652 9.86421 38.1363 9.68063C37.2074 9.49705 36.3541 9.04393 35.6844 8.37853C35.0147 7.71313 34.5585 6.86535 34.3737 5.94242C34.189 5.01949 34.2838 4.06284 34.6463 3.19346C35.0087 2.32407 35.6225 1.58099 36.41 1.05819C37.1976 0.535395 38.1234 0.256348 39.0705 0.256348C40.3406 0.256348 41.5587 0.757607 42.4567 1.64988C43.3548 2.54215 43.8594 3.75234 43.8594 5.0142Z" fill="#00CED1"/>
</g>
</g>
<g style="mix-blend-mode:multiply">
<g style="mix-blend-mode:multiply">
<path d="M60.9111 5.01421C60.9111 5.95522 60.6303 6.8751 60.1041 7.65753C59.5779 8.43995 58.83 9.04977 57.955 9.40988C57.0799 9.76999 56.117 9.86421 55.1881 9.68063C54.2591 9.49705 53.4059 9.04393 52.7361 8.37853C52.0664 7.71313 51.6103 6.86536 51.4255 5.94243C51.2407 5.01949 51.3356 4.06285 51.6981 3.19347C52.0605 2.32408 52.6743 1.58101 53.4618 1.05821C54.2493 0.535408 55.1752 0.256361 56.1223 0.256361C56.7516 0.254895 57.375 0.376971 57.9567 0.615556C58.5383 0.854141 59.0668 1.20453 59.5118 1.64663C59.9568 2.08873 60.3095 2.61383 60.5496 3.19174C60.7897 3.76965 60.9126 4.38899 60.9111 5.01421Z" fill="#00CED1"/>
</g>
</g>
<g style="mix-blend-mode:multiply">
<g style="mix-blend-mode:multiply">
<path d="M77.9072 5.0142C77.9072 5.95522 77.6264 6.8751 77.1002 7.65752C76.574 8.43995 75.8261 9.04977 74.951 9.40988C74.076 9.76999 73.1131 9.86421 72.1842 9.68063C71.2552 9.49705 70.402 9.04393 69.7322 8.37853C69.0625 7.71313 68.6064 6.86535 68.4216 5.94242C68.2368 5.01949 68.3317 4.06284 68.6941 3.19346C69.0566 2.32407 69.6704 1.58099 70.4579 1.05819C71.2454 0.535395 72.1712 0.256348 73.1184 0.256348C74.3885 0.256348 75.6065 0.757607 76.5046 1.64988C77.4027 2.54215 77.9072 3.75234 77.9072 5.0142Z" fill="#00CED1"/>
</g>
</g>
<g style="mix-blend-mode:multiply">
<g style="mix-blend-mode:multiply">
<path d="M94.9253 5.0142C94.9253 5.95522 94.6444 6.8751 94.1182 7.65752C93.592 8.43995 92.8441 9.04977 91.9691 9.40988C91.094 9.76999 90.1312 9.86421 89.2022 9.68063C88.2733 9.49705 87.42 9.04393 86.7503 8.37853C86.0805 7.71313 85.6245 6.86535 85.4397 5.94242C85.2549 5.01949 85.3497 4.06284 85.7122 3.19346C86.0746 2.32407 86.6885 1.58099 87.476 1.05819C88.2635 0.535395 89.1893 0.256348 90.1365 0.256348C91.4065 0.256348 92.6246 0.757607 93.5227 1.64988C94.4208 2.54215 94.9253 3.75234 94.9253 5.0142Z" fill="#00CED1"/>
</g>
</g>
<g style="mix-blend-mode:multiply">
<g style="mix-blend-mode:multiply">
<path d="M111.944 5.01421C111.944 5.95522 111.663 6.8751 111.137 7.65753C110.611 8.43995 109.863 9.04977 108.988 9.40988C108.113 9.76999 107.15 9.86421 106.221 9.68063C105.292 9.49705 104.439 9.04393 103.769 8.37853C103.099 7.71313 102.643 6.86536 102.458 5.94243C102.273 5.01949 102.368 4.06285 102.731 3.19347C103.093 2.32408 103.707 1.58101 104.494 1.05821C105.282 0.535408 106.208 0.256361 107.155 0.256361C107.784 0.254895 108.408 0.376971 108.989 0.615556C109.571 0.854141 110.1 1.20453 110.545 1.64663C110.989 2.08873 111.342 2.61383 111.582 3.19174C111.822 3.76965 111.945 4.38899 111.944 5.01421Z" fill="#00CED1"/>
</g>
</g>
<g style="mix-blend-mode:multiply">
<g style="mix-blend-mode:multiply">
<path d="M128.962 5.01421C128.962 5.9557 128.681 6.87602 128.154 7.65868C127.627 8.44135 126.879 9.05115 126.003 9.41093C125.127 9.77071 124.164 9.86431 123.235 9.67982C122.306 9.49533 121.452 9.04107 120.783 8.37456C120.114 7.70805 119.658 6.85924 119.475 5.93557C119.291 5.01191 119.388 4.05492 119.752 3.18573C120.116 2.31655 120.732 1.57424 121.521 1.05278C122.31 0.531319 123.237 0.254161 124.184 0.256361C124.813 0.256359 125.435 0.379505 126.015 0.618745C126.596 0.857986 127.123 1.20861 127.567 1.65057C128.01 2.09252 128.362 2.61713 128.601 3.19432C128.841 3.7715 128.963 4.38993 128.962 5.01421Z" fill="#00CED1"/>
</g>
</g>
<g style="mix-blend-mode:multiply">
<g style="mix-blend-mode:multiply">
<path d="M145.946 5.0142C145.946 5.95522 145.665 6.8751 145.139 7.65752C144.613 8.43995 143.865 9.04977 142.99 9.40988C142.115 9.76999 141.152 9.86421 140.223 9.68063C139.294 9.49705 138.441 9.04393 137.771 8.37853C137.102 7.71313 136.645 6.86535 136.461 5.94242C136.276 5.01949 136.371 4.06284 136.733 3.19346C137.096 2.32407 137.709 1.58099 138.497 1.05819C139.284 0.535395 140.21 0.256348 141.157 0.256348C142.428 0.256348 143.646 0.757607 144.544 1.64988C145.442 2.54215 145.946 3.75234 145.946 5.0142Z" fill="#00CED1"/>
</g>
</g>
<g style="mix-blend-mode:multiply">
<g style="mix-blend-mode:multiply">
<path d="M163.009 5.0142C163.009 5.95522 162.728 6.8751 162.202 7.65752C161.676 8.43995 160.928 9.04977 160.053 9.40988C159.178 9.76999 158.215 9.86421 157.286 9.68063C156.357 9.49705 155.504 9.04393 154.834 8.37853C154.165 7.71313 153.708 6.86535 153.524 5.94242C153.339 5.01949 153.434 4.06284 153.796 3.19346C154.159 2.32407 154.772 1.58099 155.56 1.05819C156.347 0.535395 157.273 0.256348 158.22 0.256348C159.491 0.256348 160.709 0.757607 161.607 1.64988C162.505 2.54215 163.009 3.75234 163.009 5.0142Z" fill="#00CED1"/>
</g>
</g>
<g style="mix-blend-mode:multiply">
<g style="mix-blend-mode:multiply">
<path d="M9.82327 25.2574C9.82327 26.1984 9.5424 27.1182 9.0162 27.9007C8.49 28.6831 7.74205 29.2929 6.86701 29.653C5.99197 30.0132 5.02914 30.1074 4.1002 29.9238C3.17126 29.7402 2.31793 29.2871 1.64821 28.6217C0.978478 27.9563 0.522408 27.1085 0.337631 26.1856C0.152854 25.2626 0.247659 24.306 0.610112 23.4366C0.972566 22.5672 1.58635 21.8242 2.37387 21.3014C3.16138 20.7786 4.08728 20.4995 5.03442 20.4995C6.30449 20.4995 7.52256 21.0008 8.42063 21.8931C9.31871 22.7853 9.82327 23.9955 9.82327 25.2574Z" fill="#00CED1"/>
</g>
</g>
<g style="mix-blend-mode:multiply">
<g style="mix-blend-mode:multiply">
<path d="M26.8413 25.2574C26.8413 26.1984 26.5604 27.1182 26.0342 27.9007C25.508 28.6831 24.7601 29.2929 23.8851 29.653C23.01 30.0132 22.0471 30.1074 21.1182 29.9238C20.1893 29.7402 19.336 29.2871 18.6663 28.6217C17.9965 27.9563 17.5405 27.1085 17.3557 26.1856C17.1709 25.2626 17.2657 24.306 17.6282 23.4366C17.9906 22.5672 18.6044 21.8242 19.3919 21.3014C20.1794 20.7786 21.1053 20.4995 22.0525 20.4995C23.3226 20.4995 24.5405 21.0008 25.4386 21.8931C26.3367 22.7853 26.8413 23.9955 26.8413 25.2574Z" fill="#00CED1"/>
</g>
</g>
<g style="mix-blend-mode:multiply">
<g style="mix-blend-mode:multiply">
<path d="M43.8594 25.2574C43.8594 26.1984 43.5785 27.1182 43.0523 27.9007C42.5261 28.6831 41.7782 29.2929 40.9031 29.653C40.0281 30.0132 39.0652 30.1074 38.1363 29.9238C37.2074 29.7402 36.3541 29.2871 35.6844 28.6217C35.0147 27.9563 34.5585 27.1085 34.3737 26.1856C34.189 25.2626 34.2838 24.306 34.6463 23.4366C35.0087 22.5672 35.6225 21.8242 36.41 21.3014C37.1976 20.7786 38.1234 20.4995 39.0705 20.4995C40.3406 20.4995 41.5587 21.0008 42.4567 21.8931C43.3548 22.7853 43.8594 23.9955 43.8594 25.2574Z" fill="#00CED1"/>
</g>
</g>
<g style="mix-blend-mode:multiply">
<g style="mix-blend-mode:multiply">
<path d="M60.9111 25.2574C60.9111 26.1984 60.6303 27.1182 60.1041 27.9007C59.5779 28.6831 58.83 29.2929 57.9549 29.653C57.0799 30.0132 56.117 30.1074 55.1881 29.9238C54.2591 29.7402 53.4059 29.2871 52.7361 28.6217C52.0664 27.9563 51.6103 27.1085 51.4255 26.1856C51.2407 25.2626 51.3356 24.306 51.6981 23.4366C52.0605 22.5672 52.6743 21.8242 53.4618 21.3014C54.2493 20.7786 55.1752 20.4995 56.1223 20.4995C57.3924 20.4995 58.6104 21.0008 59.5085 21.8931C60.4066 22.7853 60.9111 23.9955 60.9111 25.2574Z" fill="#00CED1"/>
</g>
</g>
<g style="mix-blend-mode:multiply">
<g style="mix-blend-mode:multiply">
<path d="M77.9072 25.2574C77.9072 26.1984 77.6264 27.1182 77.1002 27.9007C76.574 28.6831 75.8261 29.2929 74.951 29.653C74.076 30.0132 73.1131 30.1074 72.1842 29.9238C71.2552 29.7402 70.402 29.2871 69.7322 28.6217C69.0625 27.9563 68.6064 27.1085 68.4216 26.1856C68.2368 25.2626 68.3317 24.306 68.6941 23.4366C69.0566 22.5672 69.6704 21.8242 70.4579 21.3014C71.2454 20.7786 72.1712 20.4995 73.1184 20.4995C74.3885 20.4995 75.6065 21.0008 76.5046 21.8931C77.4027 22.7853 77.9072 23.9955 77.9072 25.2574Z" fill="#00CED1"/>
</g>
</g>
<g style="mix-blend-mode:multiply">
<g style="mix-blend-mode:multiply">
<path d="M94.9253 25.2574C94.9253 26.1984 94.6444 27.1182 94.1182 27.9007C93.592 28.6831 92.8441 29.2929 91.9691 29.653C91.094 30.0132 90.1312 30.1074 89.2022 29.9238C88.2733 29.7402 87.42 29.2871 86.7503 28.6217C86.0805 27.9563 85.6245 27.1085 85.4397 26.1856C85.2549 25.2626 85.3497 24.306 85.7122 23.4366C86.0746 22.5672 86.6885 21.8242 87.476 21.3014C88.2635 20.7786 89.1893 20.4995 90.1365 20.4995C91.4065 20.4995 92.6246 21.0008 93.5227 21.8931C94.4208 22.7853 94.9253 23.9955 94.9253 25.2574Z" fill="#00CED1"/>
</g>
</g>
<g style="mix-blend-mode:multiply">
<g style="mix-blend-mode:multiply">
<path d="M111.944 25.2574C111.944 26.1984 111.663 27.1182 111.137 27.9007C110.611 28.6831 109.863 29.2929 108.988 29.653C108.113 30.0132 107.15 30.1074 106.221 29.9238C105.292 29.7402 104.439 29.2871 103.769 28.6217C103.099 27.9563 102.643 27.1085 102.458 26.1856C102.273 25.2626 102.368 24.306 102.731 23.4366C103.093 22.5672 103.707 21.8242 104.494 21.3014C105.282 20.7786 106.208 20.4995 107.155 20.4995C108.425 20.4995 109.643 21.0008 110.541 21.8931C111.439 22.7853 111.944 23.9955 111.944 25.2574Z" fill="#00CED1"/>
</g>
</g>
<g style="mix-blend-mode:multiply">
<g style="mix-blend-mode:multiply">
<path d="M128.962 25.2574C128.962 26.1989 128.681 27.1192 128.154 27.9018C127.627 28.6845 126.879 29.2943 126.003 29.6541C125.127 30.0139 124.164 30.1075 123.235 29.923C122.306 29.7385 121.452 29.2842 120.783 28.6177C120.114 27.9512 119.658 27.1024 119.475 26.1788C119.291 25.2551 119.388 24.2981 119.752 23.4289C120.116 22.5597 120.732 21.8174 121.521 21.296C122.31 20.7745 123.237 20.4973 124.184 20.4995C125.452 20.5025 126.668 21.005 127.563 21.897C128.459 22.7889 128.962 23.9974 128.962 25.2574Z" fill="#00CED1"/>
</g>
</g>
<g style="mix-blend-mode:multiply">
<g style="mix-blend-mode:multiply">
<path d="M145.946 25.2574C145.946 26.1984 145.665 27.1182 145.139 27.9007C144.613 28.6831 143.865 29.2929 142.99 29.653C142.115 30.0132 141.152 30.1074 140.223 29.9238C139.294 29.7402 138.441 29.2871 137.771 28.6217C137.102 27.9563 136.645 27.1085 136.461 26.1856C136.276 25.2626 136.371 24.306 136.733 23.4366C137.096 22.5672 137.709 21.8242 138.497 21.3014C139.284 20.7786 140.21 20.4995 141.157 20.4995C142.428 20.4995 143.646 21.0008 144.544 21.8931C145.442 22.7853 145.946 23.9955 145.946 25.2574Z" fill="#00CED1"/>
</g>
</g>
<g style="mix-blend-mode:multiply">
<g style="mix-blend-mode:multiply">
<path d="M163.009 25.2574C163.009 26.1984 162.728 27.1182 162.202 27.9007C161.676 28.6831 160.928 29.2929 160.053 29.653C159.178 30.0132 158.215 30.1074 157.286 29.9238C156.357 29.7402 155.504 29.2871 154.834 28.6217C154.165 27.9563 153.708 27.1085 153.524 26.1856C153.339 25.2626 153.434 24.306 153.796 23.4366C154.159 22.5672 154.772 21.8242 155.56 21.3014C156.347 20.7786 157.273 20.4995 158.22 20.4995C159.491 20.4995 160.709 21.0008 161.607 21.8931C162.505 22.7853 163.009 23.9955 163.009 25.2574Z" fill="#00CED1"/>
</g>
</g>
<g style="mix-blend-mode:multiply">
<g style="mix-blend-mode:multiply">
<path d="M9.82327 45.5113C9.82327 46.4523 9.5424 47.3722 9.0162 48.1546C8.49 48.937 7.74205 49.5469 6.86701 49.907C5.99197 50.2671 5.02914 50.3613 4.1002 50.1777C3.17126 49.9941 2.31793 49.541 1.64821 48.8756C0.978478 48.2102 0.522408 47.3624 0.337631 46.4395C0.152854 45.5166 0.247659 44.5599 0.610112 43.6905C0.972566 42.8211 1.58635 42.0781 2.37387 41.5553C3.16138 41.0325 4.08728 40.7534 5.03442 40.7534C6.30449 40.7534 7.52256 41.2547 8.42063 42.147C9.31871 43.0393 9.82327 44.2494 9.82327 45.5113Z" fill="#00CED1"/>
</g>
</g>
<g style="mix-blend-mode:multiply">
<g style="mix-blend-mode:multiply">
<path d="M26.8413 45.5113C26.8413 46.4523 26.5604 47.3722 26.0342 48.1546C25.508 48.937 24.7601 49.5469 23.8851 49.907C23.01 50.2671 22.0471 50.3613 21.1182 50.1777C20.1893 49.9941 19.336 49.541 18.6663 48.8756C17.9965 48.2102 17.5405 47.3624 17.3557 46.4395C17.1709 45.5166 17.2657 44.5599 17.6282 43.6905C17.9906 42.8211 18.6044 42.0781 19.3919 41.5553C20.1794 41.0325 21.1053 40.7534 22.0525 40.7534C23.3226 40.7534 24.5405 41.2547 25.4386 42.147C26.3367 43.0393 26.8413 44.2494 26.8413 45.5113Z" fill="#00CED1"/>
</g>
</g>
<g style="mix-blend-mode:multiply">
<g style="mix-blend-mode:multiply">
<path d="M43.8594 45.5113C43.8594 46.4523 43.5785 47.3722 43.0523 48.1546C42.5261 48.937 41.7782 49.5469 40.9031 49.907C40.0281 50.2671 39.0652 50.3613 38.1363 50.1777C37.2074 49.9941 36.3541 49.541 35.6844 48.8756C35.0147 48.2102 34.5585 47.3624 34.3737 46.4395C34.189 45.5166 34.2838 44.5599 34.6463 43.6905C35.0087 42.8211 35.6225 42.0781 36.41 41.5553C37.1976 41.0325 38.1234 40.7534 39.0705 40.7534C40.3406 40.7534 41.5587 41.2547 42.4567 42.147C43.3548 43.0393 43.8594 44.2494 43.8594 45.5113Z" fill="#00CED1"/>
</g>
</g>
<g style="mix-blend-mode:multiply">
<g style="mix-blend-mode:multiply">
<path d="M60.9111 45.5113C60.9111 46.4523 60.6303 47.3722 60.1041 48.1546C59.5779 48.937 58.83 49.5469 57.9549 49.907C57.0799 50.2671 56.117 50.3613 55.1881 50.1777C54.2591 49.9941 53.4059 49.541 52.7361 48.8756C52.0664 48.2102 51.6103 47.3624 51.4255 46.4395C51.2407 45.5166 51.3356 44.5599 51.6981 43.6905C52.0605 42.8211 52.6743 42.0781 53.4618 41.5553C54.2493 41.0325 55.1752 40.7534 56.1223 40.7534C57.3924 40.7534 58.6104 41.2547 59.5085 42.147C60.4066 43.0393 60.9111 44.2494 60.9111 45.5113Z" fill="#00CED1"/>
</g>
</g>
<g style="mix-blend-mode:multiply">
<g style="mix-blend-mode:multiply">
<path d="M77.9072 45.5113C77.9072 46.4523 77.6264 47.3722 77.1002 48.1546C76.574 48.937 75.8261 49.5469 74.951 49.907C74.076 50.2671 73.1131 50.3613 72.1842 50.1777C71.2552 49.9941 70.402 49.541 69.7322 48.8756C69.0625 48.2102 68.6064 47.3624 68.4216 46.4395C68.2368 45.5166 68.3317 44.5599 68.6941 43.6905C69.0566 42.8211 69.6704 42.0781 70.4579 41.5553C71.2454 41.0325 72.1712 40.7534 73.1184 40.7534C74.3885 40.7534 75.6065 41.2547 76.5046 42.147C77.4027 43.0393 77.9072 44.2494 77.9072 45.5113Z" fill="#00CED1"/>
</g>
</g>
<g style="mix-blend-mode:multiply">
<g style="mix-blend-mode:multiply">
<path d="M94.9253 45.5113C94.9253 46.4523 94.6444 47.3722 94.1182 48.1546C93.592 48.937 92.8441 49.5469 91.9691 49.907C91.094 50.2671 90.1312 50.3613 89.2022 50.1777C88.2733 49.9941 87.42 49.541 86.7503 48.8756C86.0805 48.2102 85.6245 47.3624 85.4397 46.4395C85.2549 45.5166 85.3497 44.5599 85.7122 43.6905C86.0746 42.8211 86.6885 42.0781 87.476 41.5553C88.2635 41.0325 89.1893 40.7534 90.1365 40.7534C91.4065 40.7534 92.6246 41.2547 93.5227 42.147C94.4208 43.0393 94.9253 44.2494 94.9253 45.5113Z" fill="#00CED1"/>
</g>
</g>
<g style="mix-blend-mode:multiply">
<g style="mix-blend-mode:multiply">
<path d="M111.944 45.5113C111.944 46.4523 111.663 47.3722 111.137 48.1546C110.611 48.937 109.863 49.5469 108.988 49.907C108.113 50.2671 107.15 50.3613 106.221 50.1777C105.292 49.9941 104.439 49.541 103.769 48.8756C103.099 48.2102 102.643 47.3624 102.458 46.4395C102.273 45.5166 102.368 44.5599 102.731 43.6905C103.093 42.8211 103.707 42.0781 104.494 41.5553C105.282 41.0325 106.208 40.7534 107.155 40.7534C108.425 40.7534 109.643 41.2547 110.541 42.147C111.439 43.0393 111.944 44.2494 111.944 45.5113Z" fill="#00CED1"/>
</g>
</g>
<g style="mix-blend-mode:multiply">
<g style="mix-blend-mode:multiply">
<path d="M128.962 45.5113C128.962 46.4528 128.681 47.3731 128.154 48.1557C127.627 48.9384 126.879 49.5482 126.003 49.908C125.127 50.2678 124.164 50.3614 123.235 50.1769C122.306 49.9924 121.452 49.5381 120.783 48.8716C120.114 48.2051 119.658 47.3563 119.475 46.4327C119.291 45.509 119.388 44.552 119.752 43.6828C120.116 42.8136 120.732 42.0713 121.521 41.5499C122.31 41.0284 123.237 40.7512 124.184 40.7534C125.452 40.7564 126.668 41.2589 127.563 42.1509C128.459 43.0428 128.962 44.2513 128.962 45.5113Z" fill="#00CED1"/>
</g>
</g>
<g style="mix-blend-mode:multiply">
<g style="mix-blend-mode:multiply">
<path d="M145.946 45.5113C145.946 46.4523 145.665 47.3722 145.139 48.1546C144.613 48.937 143.865 49.5469 142.99 49.907C142.115 50.2671 141.152 50.3613 140.223 50.1777C139.294 49.9941 138.441 49.541 137.771 48.8756C137.102 48.2102 136.645 47.3624 136.461 46.4395C136.276 45.5166 136.371 44.5599 136.733 43.6905C137.096 42.8211 137.709 42.0781 138.497 41.5553C139.284 41.0325 140.21 40.7534 141.157 40.7534C142.428 40.7534 143.646 41.2547 144.544 42.147C145.442 43.0393 145.946 44.2494 145.946 45.5113Z" fill="#00CED1"/>
</g>
</g>
<g style="mix-blend-mode:multiply">
<g style="mix-blend-mode:multiply">
<path d="M163.009 45.5113C163.009 46.4523 162.728 47.3722 162.202 48.1546C161.676 48.937 160.928 49.5469 160.053 49.907C159.178 50.2671 158.215 50.3613 157.286 50.1777C156.357 49.9941 155.504 49.541 154.834 48.8756C154.165 48.2102 153.708 47.3624 153.524 46.4395C153.339 45.5166 153.434 44.5599 153.796 43.6905C154.159 42.8211 154.772 42.0781 155.56 41.5553C156.347 41.0325 157.273 40.7534 158.22 40.7534C159.491 40.7534 160.709 41.2547 161.607 42.147C162.505 43.0393 163.009 44.2494 163.009 45.5113Z" fill="#00CED1"/>
</g>
</g>
<g style="mix-blend-mode:multiply">
<g style="mix-blend-mode:multiply">
<path d="M5.03442 70.535C7.6792 70.535 9.82323 68.4048 9.82323 65.777C9.82323 63.1493 7.6792 61.019 5.03442 61.019C2.38963 61.019 0.245605 63.1493 0.245605 65.777C0.245605 68.4048 2.38963 70.535 5.03442 70.535Z" fill="#00CED1"/>
</g>
</g>
<g style="mix-blend-mode:multiply">
<g style="mix-blend-mode:multiply">
<path d="M26.8413 65.7657C26.8413 66.7067 26.5604 67.6266 26.0342 68.409C25.508 69.1914 24.7601 69.8013 23.8851 70.1614C23.01 70.5215 22.0471 70.6157 21.1182 70.4321C20.1893 70.2485 19.336 69.7954 18.6663 69.13C17.9965 68.4646 17.5405 67.6168 17.3557 66.6939C17.1709 65.7709 17.2657 64.8143 17.6282 63.9449C17.9906 63.0755 18.6044 62.3325 19.3919 61.8097C20.1794 61.2869 21.1053 61.0078 22.0525 61.0078C23.3226 61.0078 24.5405 61.5091 25.4386 62.4014C26.3367 63.2936 26.8413 64.5038 26.8413 65.7657Z" fill="#00CED1"/>
</g>
</g>
<g style="mix-blend-mode:multiply">
<g style="mix-blend-mode:multiply">
<path d="M43.8594 65.7657C43.8594 66.7067 43.5785 67.6266 43.0523 68.409C42.5261 69.1914 41.7782 69.8013 40.9031 70.1614C40.0281 70.5215 39.0652 70.6157 38.1363 70.4321C37.2074 70.2485 36.3541 69.7954 35.6844 69.13C35.0147 68.4646 34.5585 67.6168 34.3737 66.6939C34.189 65.7709 34.2838 64.8143 34.6463 63.9449C35.0087 63.0755 35.6225 62.3325 36.41 61.8097C37.1976 61.2869 38.1234 61.0078 39.0705 61.0078C40.3406 61.0078 41.5587 61.5091 42.4567 62.4014C43.3548 63.2936 43.8594 64.5038 43.8594 65.7657Z" fill="#00CED1"/>
</g>
</g>
<g style="mix-blend-mode:multiply">
<g style="mix-blend-mode:multiply">
<path d="M60.9111 65.7657C60.9111 66.7067 60.6303 67.6266 60.1041 68.409C59.5779 69.1914 58.83 69.8013 57.9549 70.1614C57.0799 70.5215 56.117 70.6157 55.1881 70.4321C54.2591 70.2485 53.4059 69.7954 52.7361 69.13C52.0664 68.4646 51.6103 67.6168 51.4255 66.6939C51.2407 65.7709 51.3356 64.8143 51.6981 63.9449C52.0605 63.0755 52.6743 62.3325 53.4618 61.8097C54.2493 61.2869 55.1752 61.0078 56.1223 61.0078C57.3924 61.0078 58.6104 61.5091 59.5085 62.4014C60.4066 63.2936 60.9111 64.5038 60.9111 65.7657Z" fill="#00CED1"/>
</g>
</g>
<g style="mix-blend-mode:multiply">
<g style="mix-blend-mode:multiply">
<path d="M77.9072 65.7657C77.9072 66.7067 77.6264 67.6266 77.1002 68.409C76.574 69.1914 75.8261 69.8013 74.951 70.1614C74.076 70.5215 73.1131 70.6157 72.1842 70.4321C71.2552 70.2485 70.402 69.7954 69.7322 69.13C69.0625 68.4646 68.6064 67.6168 68.4216 66.6939C68.2368 65.7709 68.3317 64.8143 68.6941 63.9449C69.0566 63.0755 69.6704 62.3325 70.4579 61.8097C71.2454 61.2869 72.1712 61.0078 73.1184 61.0078C74.3885 61.0078 75.6065 61.5091 76.5046 62.4014C77.4027 63.2936 77.9072 64.5038 77.9072 65.7657Z" fill="#00CED1"/>
</g>
</g>
<g style="mix-blend-mode:multiply">
<g style="mix-blend-mode:multiply">
<path d="M90.1365 70.535C92.7813 70.535 94.9253 68.4048 94.9253 65.777C94.9253 63.1493 92.7813 61.019 90.1365 61.019C87.4917 61.019 85.3477 63.1493 85.3477 65.777C85.3477 68.4048 87.4917 70.535 90.1365 70.535Z" fill="#00CED1"/>
</g>
</g>
<g style="mix-blend-mode:multiply">
<g style="mix-blend-mode:multiply">
<path d="M107.166 70.535C109.811 70.535 111.955 68.4048 111.955 65.777C111.955 63.1493 109.811 61.019 107.166 61.019C104.521 61.019 102.377 63.1493 102.377 65.777C102.377 68.4048 104.521 70.535 107.166 70.535Z" fill="#00CED1"/>
</g>
</g>
<g style="mix-blend-mode:multiply">
<g style="mix-blend-mode:multiply">
<path d="M128.962 65.7657C128.962 66.7072 128.681 67.6275 128.154 68.4101C127.627 69.1928 126.879 69.8026 126.003 70.1624C125.127 70.5222 124.164 70.6158 123.235 70.4313C122.306 70.2468 121.452 69.7925 120.783 69.126C120.114 68.4595 119.658 67.6107 119.475 66.6871C119.291 65.7634 119.388 64.8064 119.752 63.9372C120.116 63.068 120.732 62.3257 121.521 61.8043C122.31 61.2828 123.237 61.0056 124.184 61.0078C125.452 61.0108 126.668 61.5133 127.563 62.4053C128.459 63.2972 128.962 64.5057 128.962 65.7657Z" fill="#00CED1"/>
</g>
</g>
<g style="mix-blend-mode:multiply">
<g style="mix-blend-mode:multiply">
<path d="M145.946 65.7657C145.946 66.7067 145.665 67.6266 145.139 68.409C144.613 69.1914 143.865 69.8013 142.99 70.1614C142.115 70.5215 141.152 70.6157 140.223 70.4321C139.294 70.2485 138.441 69.7954 137.771 69.13C137.102 68.4646 136.645 67.6168 136.461 66.6939C136.276 65.7709 136.371 64.8143 136.733 63.9449C137.096 63.0755 137.709 62.3325 138.497 61.8097C139.284 61.2869 140.21 61.0078 141.157 61.0078C142.428 61.0078 143.646 61.5091 144.544 62.4014C145.442 63.2936 145.946 64.5038 145.946 65.7657Z" fill="#00CED1"/>
</g>
</g>
<g style="mix-blend-mode:multiply">
<g style="mix-blend-mode:multiply">
<path d="M163.009 65.7657C163.009 66.7067 162.728 67.6266 162.202 68.409C161.676 69.1914 160.928 69.8013 160.053 70.1614C159.178 70.5215 158.215 70.6157 157.286 70.4321C156.357 70.2485 155.504 69.7954 154.834 69.13C154.165 68.4646 153.708 67.6168 153.524 66.6939C153.339 65.7709 153.434 64.8143 153.796 63.9449C154.159 63.0755 154.772 62.3325 155.56 61.8097C156.347 61.2869 157.273 61.0078 158.22 61.0078C159.491 61.0078 160.709 61.5091 161.607 62.4014C162.505 63.2936 163.009 64.5038 163.009 65.7657Z" fill="#00CED1"/>
</g>
</g>
<g style="mix-blend-mode:multiply">
<g style="mix-blend-mode:multiply">
<path d="M5.03442 90.7887C7.6792 90.7887 9.82323 88.6585 9.82323 86.0308C9.82323 83.4031 7.6792 81.2729 5.03442 81.2729C2.38963 81.2729 0.245605 83.4031 0.245605 86.0308C0.245605 88.6585 2.38963 90.7887 5.03442 90.7887Z" fill="#00CED1"/>
</g>
</g>
<g style="mix-blend-mode:multiply">
<g style="mix-blend-mode:multiply">
<path d="M26.8413 86.0197C26.8435 86.9612 26.5645 87.8821 26.0397 88.666C25.5148 89.4499 24.7677 90.0615 23.8929 90.4233C23.018 90.7851 22.0548 90.8809 21.1251 90.6986C20.1954 90.5163 19.3411 90.064 18.6702 89.399C17.9994 88.7341 17.5422 87.8863 17.3565 86.9631C17.1708 86.0399 17.265 85.0827 17.6271 84.2126C17.9892 83.3426 18.603 82.5989 19.3908 82.0756C20.1785 81.5523 21.1049 81.273 22.0525 81.2729C23.3206 81.2729 24.537 81.7727 25.4347 82.6625C26.3325 83.5524 26.8383 84.7597 26.8413 86.0197Z" fill="#00CED1"/>
</g>
</g>
<g style="mix-blend-mode:multiply">
<g style="mix-blend-mode:multiply">
<path d="M43.8594 86.0197C43.8616 86.9612 43.5826 87.8821 43.0578 88.666C42.5329 89.4499 41.7858 90.0615 40.9109 90.4233C40.0361 90.7851 39.0729 90.8809 38.1432 90.6986C37.2135 90.5163 36.3592 90.064 35.6884 89.399C35.0175 88.7341 34.5603 87.8863 34.3746 86.9631C34.1889 86.0399 34.2831 85.0827 34.6452 84.2126C35.0073 83.3426 35.6211 82.5989 36.4089 82.0756C37.1966 81.5523 38.1229 81.273 39.0705 81.2729C40.3387 81.2729 41.555 81.7727 42.4528 82.6625C43.3505 83.5524 43.8564 84.7597 43.8594 86.0197Z" fill="#00CED1"/>
</g>
</g>
<g style="mix-blend-mode:multiply">
<g style="mix-blend-mode:multiply">
<path d="M60.9111 86.0197C60.9133 86.9612 60.6343 87.8821 60.1095 88.666C59.5846 89.4499 58.8375 90.0615 57.9626 90.4233C57.0878 90.7851 56.1246 90.8809 55.1949 90.6986C54.2652 90.5163 53.4109 90.064 52.7401 89.399C52.0692 88.7341 51.612 87.8863 51.4263 86.9631C51.2407 86.0399 51.3348 85.0827 51.6969 84.2126C52.059 83.3426 52.6728 82.5989 53.4606 82.0756C54.2484 81.5523 55.1746 81.273 56.1222 81.273C56.7506 81.2715 57.3731 81.3932 57.954 81.6311C58.535 81.869 59.0629 82.2184 59.5078 82.6593C59.9526 83.1002 60.3055 83.624 60.5463 84.2006C60.7871 84.7773 60.9111 85.3954 60.9111 86.0197Z" fill="#00CED1"/>
</g>
</g>
<g style="mix-blend-mode:multiply">
<g style="mix-blend-mode:multiply">
<path d="M77.9072 86.0197C77.9094 86.9612 77.6304 87.8821 77.1056 88.666C76.5807 89.4499 75.8336 90.0615 74.9587 90.4233C74.0839 90.7851 73.1207 90.8809 72.191 90.6986C71.2613 90.5163 70.407 90.064 69.7362 89.399C69.0653 88.7341 68.6081 87.8863 68.4224 86.9631C68.2368 86.0399 68.3309 85.0827 68.693 84.2126C69.0551 83.3426 69.6689 82.5989 70.4567 82.0756C71.2445 81.5523 72.1707 81.273 73.1183 81.2729C74.3865 81.2729 75.6028 81.7727 76.5006 82.6625C77.3983 83.5524 77.9042 84.7597 77.9072 86.0197Z" fill="#00CED1"/>
</g>
</g>
<g style="mix-blend-mode:multiply">
<g style="mix-blend-mode:multiply">
<path d="M90.1365 90.7887C92.7813 90.7887 94.9253 88.6585 94.9253 86.0308C94.9253 83.4031 92.7813 81.2729 90.1365 81.2729C87.4917 81.2729 85.3477 83.4031 85.3477 86.0308C85.3477 88.6585 87.4917 90.7887 90.1365 90.7887Z" fill="#00CED1"/>
</g>
</g>
<g style="mix-blend-mode:multiply">
<g style="mix-blend-mode:multiply">
<path d="M107.166 90.7887C109.811 90.7887 111.955 88.6585 111.955 86.0308C111.955 83.4031 109.811 81.2729 107.166 81.2729C104.521 81.2729 102.377 83.4031 102.377 86.0308C102.377 88.6585 104.521 90.7887 107.166 90.7887Z" fill="#00CED1"/>
</g>
</g>
<g style="mix-blend-mode:multiply">
<g style="mix-blend-mode:multiply">
<path d="M128.962 86.0197C128.964 86.9616 128.685 87.883 128.159 88.6672C127.634 89.4513 126.886 90.0629 126.011 90.4243C125.135 90.7858 124.172 90.881 123.242 90.6978C122.312 90.5145 121.457 90.0612 120.787 89.3951C120.117 88.729 119.66 87.8802 119.476 86.9563C119.291 86.0323 119.387 85.0747 119.751 84.2049C120.115 83.3351 120.73 82.5921 121.52 82.0702C122.309 81.5482 123.236 81.2708 124.184 81.273C125.451 81.273 126.667 81.773 127.563 82.6632C128.459 83.5534 128.962 84.7608 128.962 86.0197Z" fill="#00CED1"/>
</g>
</g>
<g style="mix-blend-mode:multiply">
<g style="mix-blend-mode:multiply">
<path d="M145.946 86.0197C145.948 86.9612 145.669 87.8821 145.145 88.666C144.62 89.4499 143.873 90.0615 142.998 90.4233C142.123 90.7851 141.16 90.8809 140.23 90.6986C139.3 90.5163 138.446 90.064 137.775 89.399C137.104 88.7341 136.647 87.8863 136.462 86.9631C136.276 86.0399 136.37 85.0827 136.732 84.2126C137.094 83.3426 137.708 82.5989 138.496 82.0756C139.284 81.5523 140.21 81.273 141.157 81.2729C142.426 81.2729 143.642 81.7727 144.54 82.6625C145.437 83.5524 145.943 84.7597 145.946 86.0197Z" fill="#00CED1"/>
</g>
</g>
<g style="mix-blend-mode:multiply">
<g style="mix-blend-mode:multiply">
<path d="M163.009 86.0198C163.011 86.9627 162.732 87.885 162.205 88.6696C161.679 89.4542 160.93 90.0657 160.053 90.4265C159.176 90.7873 158.211 90.8812 157.281 90.6961C156.35 90.5111 155.496 90.0555 154.826 89.3872C154.157 88.7189 153.702 87.868 153.52 86.9426C153.339 86.0172 153.437 85.0589 153.805 84.1895C154.172 83.3201 154.791 82.5787 155.583 82.0594C156.375 81.5401 157.305 81.2665 158.254 81.2731C159.516 81.2819 160.724 81.7855 161.615 82.6744C162.505 83.5633 163.006 84.7656 163.009 86.0198Z" fill="#00CED1"/>
</g>
</g>
<g style="mix-blend-mode:multiply">
<g style="mix-blend-mode:multiply">
<path d="M5.03442 111.044C7.6792 111.044 9.82323 108.914 9.82323 106.286C9.82323 103.659 7.6792 101.528 5.03442 101.528C2.38963 101.528 0.245605 103.659 0.245605 106.286C0.245605 108.914 2.38963 111.044 5.03442 111.044Z" fill="#00CED1"/>
</g>
</g>
<g style="mix-blend-mode:multiply">
<g style="mix-blend-mode:multiply">
<path d="M26.8413 106.286C26.8413 107.227 26.5604 108.147 26.0342 108.93C25.508 109.712 24.7601 110.322 23.8851 110.682C23.01 111.042 22.0471 111.136 21.1182 110.953C20.1893 110.769 19.336 110.316 18.6663 109.651C17.9965 108.985 17.5405 108.137 17.3557 107.215C17.1709 106.292 17.2657 105.335 17.6282 104.466C17.9906 103.596 18.6044 102.853 19.3919 102.33C20.1794 101.807 21.1053 101.528 22.0525 101.528C23.3226 101.528 24.5405 102.03 25.4386 102.922C26.3367 103.814 26.8413 105.024 26.8413 106.286Z" fill="#00CED1"/>
</g>
</g>
<g style="mix-blend-mode:multiply">
<g style="mix-blend-mode:multiply">
<path d="M43.8594 106.286C43.8594 107.227 43.5785 108.147 43.0523 108.93C42.5261 109.712 41.7782 110.322 40.9031 110.682C40.0281 111.042 39.0652 111.136 38.1363 110.953C37.2074 110.769 36.3541 110.316 35.6844 109.651C35.0147 108.985 34.5585 108.137 34.3737 107.215C34.189 106.292 34.2838 105.335 34.6463 104.466C35.0087 103.596 35.6225 102.853 36.41 102.33C37.1976 101.807 38.1234 101.528 39.0705 101.528C40.3406 101.528 41.5587 102.03 42.4567 102.922C43.3548 103.814 43.8594 105.024 43.8594 106.286Z" fill="#00CED1"/>
</g>
</g>
<g style="mix-blend-mode:multiply">
<g style="mix-blend-mode:multiply">
<path d="M60.9111 106.286C60.9111 107.227 60.6303 108.147 60.1041 108.93C59.5779 109.712 58.83 110.322 57.955 110.682C57.0799 111.042 56.117 111.136 55.1881 110.953C54.2591 110.769 53.4059 110.316 52.7361 109.651C52.0664 108.985 51.6103 108.137 51.4255 107.215C51.2407 106.292 51.3356 105.335 51.6981 104.466C52.0605 103.596 52.6743 102.853 53.4618 102.33C54.2493 101.807 55.1752 101.528 56.1223 101.528C56.7516 101.527 57.375 101.649 57.9567 101.888C58.5383 102.126 59.0668 102.477 59.5118 102.919C59.9568 103.361 60.3095 103.886 60.5496 104.464C60.7897 105.042 60.9126 105.661 60.9111 106.286Z" fill="#00CED1"/>
</g>
</g>
<g style="mix-blend-mode:multiply">
<g style="mix-blend-mode:multiply">
<path d="M77.9072 106.286C77.9072 107.227 77.6264 108.147 77.1002 108.93C76.574 109.712 75.8261 110.322 74.951 110.682C74.076 111.042 73.1131 111.136 72.1842 110.953C71.2552 110.769 70.402 110.316 69.7322 109.651C69.0625 108.985 68.6064 108.137 68.4216 107.215C68.2368 106.292 68.3317 105.335 68.6941 104.466C69.0566 103.596 69.6704 102.853 70.4579 102.33C71.2454 101.807 72.1712 101.528 73.1184 101.528C74.3885 101.528 75.6065 102.03 76.5046 102.922C77.4027 103.814 77.9072 105.024 77.9072 106.286Z" fill="#00CED1"/>
</g>
</g>
<g style="mix-blend-mode:multiply">
<g style="mix-blend-mode:multiply">
<path d="M90.1365 111.044C92.7813 111.044 94.9253 108.914 94.9253 106.286C94.9253 103.659 92.7813 101.528 90.1365 101.528C87.4917 101.528 85.3477 103.659 85.3477 106.286C85.3477 108.914 87.4917 111.044 90.1365 111.044Z" fill="#00CED1"/>
</g>
</g>
<g style="mix-blend-mode:multiply">
<g style="mix-blend-mode:multiply">
<path d="M107.166 111.044C109.811 111.044 111.955 108.914 111.955 106.286C111.955 103.659 109.811 101.528 107.166 101.528C104.521 101.528 102.377 103.659 102.377 106.286C102.377 108.914 104.521 111.044 107.166 111.044Z" fill="#00CED1"/>
</g>
</g>
<g style="mix-blend-mode:multiply">
<g style="mix-blend-mode:multiply">
<path d="M128.962 106.286C128.962 107.228 128.681 108.148 128.154 108.931C127.627 109.714 126.879 110.323 126.003 110.683C125.127 111.043 124.164 111.137 123.235 110.952C122.306 110.768 121.452 110.313 120.783 109.647C120.114 108.98 119.658 108.131 119.475 107.208C119.291 106.284 119.388 105.327 119.752 104.458C120.116 103.589 120.732 102.846 121.521 102.325C122.31 101.803 123.237 101.526 124.184 101.528C124.813 101.528 125.435 101.651 126.015 101.891C126.596 102.13 127.123 102.481 127.567 102.923C128.01 103.365 128.362 103.889 128.601 104.466C128.841 105.044 128.963 105.662 128.962 106.286Z" fill="#00CED1"/>
</g>
</g>
<g style="mix-blend-mode:multiply">
<g style="mix-blend-mode:multiply">
<path d="M145.946 106.286C145.946 107.227 145.665 108.147 145.139 108.93C144.613 109.712 143.865 110.322 142.99 110.682C142.115 111.042 141.152 111.136 140.223 110.953C139.294 110.769 138.441 110.316 137.771 109.651C137.102 108.985 136.645 108.137 136.461 107.215C136.276 106.292 136.371 105.335 136.733 104.466C137.096 103.596 137.709 102.853 138.497 102.33C139.284 101.807 140.21 101.528 141.157 101.528C142.428 101.528 143.646 102.03 144.544 102.922C145.442 103.814 145.946 105.024 145.946 106.286Z" fill="#00CED1"/>
</g>
</g>
<g style="mix-blend-mode:multiply">
<g style="mix-blend-mode:multiply">
<path d="M163.009 106.286C163.009 107.227 162.728 108.147 162.202 108.93C161.676 109.712 160.928 110.322 160.053 110.682C159.178 111.042 158.215 111.136 157.286 110.953C156.357 110.769 155.504 110.316 154.834 109.651C154.165 108.985 153.708 108.137 153.524 107.215C153.339 106.292 153.434 105.335 153.796 104.466C154.159 103.596 154.772 102.853 155.56 102.33C156.347 101.807 157.273 101.528 158.22 101.528C159.491 101.528 160.709 102.03 161.607 102.922C162.505 103.814 163.009 105.024 163.009 106.286Z" fill="#00CED1"/>
</g>
</g>
<g style="mix-blend-mode:multiply">
<g style="mix-blend-mode:multiply">
<path d="M5.03442 131.299C7.6792 131.299 9.82323 129.169 9.82323 126.541C9.82323 123.913 7.6792 121.783 5.03442 121.783C2.38963 121.783 0.245605 123.913 0.245605 126.541C0.245605 129.169 2.38963 131.299 5.03442 131.299Z" fill="#00CED1"/>
</g>
</g>
<g style="mix-blend-mode:multiply">
<g style="mix-blend-mode:multiply">
<path d="M26.8413 126.541C26.8413 127.482 26.5604 128.402 26.0342 129.184C25.508 129.967 24.7601 130.577 23.8851 130.937C23.01 131.297 22.0471 131.391 21.1182 131.207C20.1893 131.024 19.336 130.571 18.6663 129.905C17.9965 129.24 17.5405 128.392 17.3557 127.469C17.1709 126.546 17.2657 125.59 17.6282 124.72C17.9906 123.851 18.6044 123.108 19.3919 122.585C20.1794 122.062 21.1053 121.783 22.0525 121.783C23.3226 121.783 24.5405 122.284 25.4386 123.177C26.3367 124.069 26.8413 125.279 26.8413 126.541Z" fill="#00CED1"/>
</g>
</g>
<g style="mix-blend-mode:multiply">
<g style="mix-blend-mode:multiply">
<path d="M43.8594 126.541C43.8594 127.482 43.5785 128.402 43.0523 129.184C42.5261 129.967 41.7782 130.577 40.9031 130.937C40.0281 131.297 39.0652 131.391 38.1363 131.207C37.2074 131.024 36.3541 130.571 35.6844 129.905C35.0147 129.24 34.5585 128.392 34.3737 127.469C34.189 126.546 34.2838 125.59 34.6463 124.72C35.0087 123.851 35.6225 123.108 36.41 122.585C37.1976 122.062 38.1234 121.783 39.0705 121.783C40.3406 121.783 41.5587 122.284 42.4567 123.177C43.3548 124.069 43.8594 125.279 43.8594 126.541Z" fill="#00CED1"/>
</g>
</g>
<g style="mix-blend-mode:multiply">
<g style="mix-blend-mode:multiply">
<path d="M60.9111 126.541C60.9111 127.482 60.6303 128.402 60.1041 129.184C59.5779 129.967 58.83 130.577 57.9549 130.937C57.0799 131.297 56.117 131.391 55.1881 131.207C54.2591 131.024 53.4059 130.571 52.7361 129.905C52.0664 129.24 51.6103 128.392 51.4255 127.469C51.2407 126.546 51.3356 125.59 51.6981 124.72C52.0605 123.851 52.6743 123.108 53.4618 122.585C54.2493 122.062 55.1752 121.783 56.1223 121.783C57.3924 121.783 58.6104 122.284 59.5085 123.177C60.4066 124.069 60.9111 125.279 60.9111 126.541Z" fill="#00CED1"/>
</g>
</g>
<g style="mix-blend-mode:multiply">
<g style="mix-blend-mode:multiply">
<path d="M77.9072 126.541C77.9072 127.482 77.6264 128.402 77.1002 129.184C76.574 129.967 75.8261 130.577 74.951 130.937C74.076 131.297 73.1131 131.391 72.1842 131.207C71.2552 131.024 70.402 130.571 69.7322 129.905C69.0625 129.24 68.6064 128.392 68.4216 127.469C68.2368 126.546 68.3317 125.59 68.6941 124.72C69.0566 123.851 69.6704 123.108 70.4579 122.585C71.2454 122.062 72.1712 121.783 73.1184 121.783C74.3885 121.783 75.6065 122.284 76.5046 123.177C77.4027 124.069 77.9072 125.279 77.9072 126.541Z" fill="#00CED1"/>
</g>
</g>
<g style="mix-blend-mode:multiply">
<g style="mix-blend-mode:multiply">
<path d="M90.1365 131.299C92.7813 131.299 94.9253 129.169 94.9253 126.541C94.9253 123.913 92.7813 121.783 90.1365 121.783C87.4917 121.783 85.3477 123.913 85.3477 126.541C85.3477 129.169 87.4917 131.299 90.1365 131.299Z" fill="#00CED1"/>
</g>
</g>
<g style="mix-blend-mode:multiply">
<g style="mix-blend-mode:multiply">
<path d="M107.166 131.299C109.811 131.299 111.955 129.169 111.955 126.541C111.955 123.913 109.811 121.783 107.166 121.783C104.521 121.783 102.377 123.913 102.377 126.541C102.377 129.169 104.521 131.299 107.166 131.299Z" fill="#00CED1"/>
</g>
</g>
<g style="mix-blend-mode:multiply">
<g style="mix-blend-mode:multiply">
<path d="M128.962 126.541C128.962 127.483 128.681 128.403 128.154 129.186C127.627 129.968 126.879 130.578 126.003 130.938C125.127 131.298 124.164 131.391 123.235 131.207C122.306 131.022 121.452 130.568 120.783 129.901C120.114 129.235 119.658 128.386 119.475 127.462C119.291 126.539 119.388 125.582 119.752 124.713C120.116 123.843 120.732 123.101 121.521 122.58C122.31 122.058 123.237 121.781 124.184 121.783C125.452 121.786 126.668 122.289 127.563 123.181C128.459 124.073 128.962 125.281 128.962 126.541Z" fill="#00CED1"/>
</g>
</g>
<g style="mix-blend-mode:multiply">
<g style="mix-blend-mode:multiply">
<path d="M145.946 126.541C145.946 127.482 145.665 128.402 145.139 129.184C144.613 129.967 143.865 130.577 142.99 130.937C142.115 131.297 141.152 131.391 140.223 131.207C139.294 131.024 138.441 130.571 137.771 129.905C137.102 129.24 136.645 128.392 136.461 127.469C136.276 126.546 136.371 125.59 136.733 124.72C137.096 123.851 137.709 123.108 138.497 122.585C139.284 122.062 140.21 121.783 141.157 121.783C142.428 121.783 143.646 122.284 144.544 123.177C145.442 124.069 145.946 125.279 145.946 126.541Z" fill="#00CED1"/>
</g>
</g>
<g style="mix-blend-mode:multiply">
<g style="mix-blend-mode:multiply">
<path d="M163.009 126.541C163 127.481 162.711 128.398 162.178 129.175C161.645 129.953 160.892 130.556 160.014 130.908C159.136 131.26 158.173 131.346 157.246 131.155C156.32 130.963 155.471 130.504 154.807 129.833C154.143 129.163 153.694 128.312 153.516 127.388C153.339 126.464 153.441 125.508 153.81 124.642C154.179 123.776 154.798 123.038 155.589 122.521C156.38 122.004 157.307 121.732 158.254 121.738C158.884 121.743 159.506 121.871 160.086 122.114C160.667 122.358 161.192 122.713 161.634 123.159C162.076 123.606 162.425 124.134 162.661 124.714C162.897 125.294 163.015 125.915 163.009 126.541Z" fill="#00CED1"/>
</g>
</g>
<g style="mix-blend-mode:multiply">
<g style="mix-blend-mode:multiply">
<path d="M9.82327 146.795C9.82327 147.736 9.5424 148.656 9.0162 149.439C8.49 150.221 7.74205 150.831 6.86701 151.191C5.99197 151.551 5.02914 151.645 4.1002 151.462C3.17126 151.278 2.31793 150.825 1.64821 150.16C0.978478 149.494 0.522408 148.647 0.337631 147.724C0.152854 146.801 0.247659 145.844 0.610112 144.975C0.972566 144.105 1.58635 143.362 2.37387 142.839C3.16138 142.317 4.08728 142.038 5.03442 142.038C6.30449 142.038 7.52256 142.539 8.42063 143.431C9.31871 144.323 9.82327 145.534 9.82327 146.795Z" fill="#00CED1"/>
</g>
</g>
<g style="mix-blend-mode:multiply">
<g style="mix-blend-mode:multiply">
<path d="M26.8413 146.795C26.8413 147.736 26.5604 148.656 26.0342 149.439C25.508 150.221 24.7601 150.831 23.8851 151.191C23.01 151.551 22.0471 151.645 21.1182 151.462C20.1893 151.278 19.336 150.825 18.6663 150.16C17.9965 149.494 17.5405 148.647 17.3557 147.724C17.1709 146.801 17.2657 145.844 17.6282 144.975C17.9906 144.105 18.6044 143.362 19.3919 142.839C20.1794 142.317 21.1053 142.038 22.0525 142.038C23.3226 142.038 24.5405 142.539 25.4386 143.431C26.3367 144.323 26.8413 145.534 26.8413 146.795Z" fill="#00CED1"/>
</g>
</g>
<g style="mix-blend-mode:multiply">
<g style="mix-blend-mode:multiply">
<path d="M43.8594 146.795C43.8594 147.736 43.5785 148.656 43.0523 149.439C42.5261 150.221 41.7782 150.831 40.9031 151.191C40.0281 151.551 39.0652 151.645 38.1363 151.462C37.2074 151.278 36.3541 150.825 35.6844 150.16C35.0147 149.494 34.5585 148.647 34.3737 147.724C34.189 146.801 34.2838 145.844 34.6463 144.975C35.0087 144.105 35.6225 143.362 36.41 142.839C37.1976 142.317 38.1234 142.038 39.0705 142.038C40.3406 142.038 41.5587 142.539 42.4567 143.431C43.3548 144.323 43.8594 145.534 43.8594 146.795Z" fill="#00CED1"/>
</g>
</g>
<g style="mix-blend-mode:multiply">
<g style="mix-blend-mode:multiply">
<path d="M60.9111 146.795C60.9111 147.736 60.6303 148.656 60.1041 149.439C59.5779 150.221 58.83 150.831 57.9549 151.191C57.0799 151.551 56.117 151.645 55.1881 151.462C54.2591 151.278 53.4059 150.825 52.7361 150.16C52.0664 149.494 51.6103 148.647 51.4255 147.724C51.2407 146.801 51.3356 145.844 51.6981 144.975C52.0605 144.105 52.6743 143.362 53.4618 142.839C54.2493 142.317 55.1752 142.038 56.1223 142.038C57.3924 142.038 58.6104 142.539 59.5085 143.431C60.4066 144.323 60.9111 145.534 60.9111 146.795Z" fill="#00CED1"/>
</g>
</g>
<g style="mix-blend-mode:multiply">
<g style="mix-blend-mode:multiply">
<path d="M77.9072 146.795C77.9072 147.736 77.6264 148.656 77.1002 149.439C76.574 150.221 75.8261 150.831 74.951 151.191C74.076 151.551 73.1131 151.645 72.1842 151.462C71.2552 151.278 70.402 150.825 69.7322 150.16C69.0625 149.494 68.6064 148.647 68.4216 147.724C68.2368 146.801 68.3317 145.844 68.6941 144.975C69.0566 144.105 69.6704 143.362 70.4579 142.839C71.2454 142.317 72.1712 142.038 73.1184 142.038C74.3885 142.038 75.6065 142.539 76.5046 143.431C77.4027 144.323 77.9072 145.534 77.9072 146.795Z" fill="#00CED1"/>
</g>
</g>
<g style="mix-blend-mode:multiply">
<g style="mix-blend-mode:multiply">
<path d="M94.9253 146.795C94.9253 147.736 94.6444 148.656 94.1182 149.439C93.592 150.221 92.8441 150.831 91.9691 151.191C91.094 151.551 90.1312 151.645 89.2022 151.462C88.2733 151.278 87.42 150.825 86.7503 150.16C86.0805 149.494 85.6245 148.647 85.4397 147.724C85.2549 146.801 85.3497 145.844 85.7122 144.975C86.0746 144.105 86.6885 143.362 87.476 142.839C88.2635 142.317 89.1893 142.038 90.1365 142.038C91.4065 142.038 92.6246 142.539 93.5227 143.431C94.4208 144.323 94.9253 145.534 94.9253 146.795Z" fill="#00CED1"/>
</g>
</g>
<g style="mix-blend-mode:multiply">
<g style="mix-blend-mode:multiply">
<path d="M111.944 146.795C111.944 147.736 111.663 148.656 111.137 149.439C110.611 150.221 109.863 150.831 108.988 151.191C108.113 151.551 107.15 151.645 106.221 151.462C105.292 151.278 104.439 150.825 103.769 150.16C103.099 149.494 102.643 148.647 102.458 147.724C102.273 146.801 102.368 145.844 102.731 144.975C103.093 144.105 103.707 143.362 104.494 142.839C105.282 142.317 106.208 142.038 107.155 142.038C108.425 142.038 109.643 142.539 110.541 143.431C111.439 144.323 111.944 145.534 111.944 146.795Z" fill="#00CED1"/>
</g>
</g>
<g style="mix-blend-mode:multiply">
<g style="mix-blend-mode:multiply">
<path d="M128.962 146.795C128.962 147.737 128.681 148.657 128.154 149.44C127.627 150.223 126.879 150.832 126.003 151.192C125.127 151.552 124.164 151.646 123.235 151.461C122.306 151.277 121.452 150.822 120.783 150.156C120.114 149.489 119.658 148.641 119.475 147.717C119.291 146.793 119.388 145.836 119.752 144.967C120.116 144.098 120.732 143.355 121.521 142.834C122.31 142.313 123.237 142.035 124.184 142.038C125.452 142.041 126.668 142.543 127.563 143.435C128.459 144.327 128.962 145.535 128.962 146.795Z" fill="#00CED1"/>
</g>
</g>
<g style="mix-blend-mode:multiply">
<g style="mix-blend-mode:multiply">
<path d="M145.946 146.795C145.946 147.736 145.665 148.656 145.139 149.439C144.613 150.221 143.865 150.831 142.99 151.191C142.115 151.551 141.152 151.645 140.223 151.462C139.294 151.278 138.441 150.825 137.771 150.16C137.102 149.494 136.645 148.647 136.461 147.724C136.276 146.801 136.371 145.844 136.733 144.975C137.096 144.105 137.709 143.362 138.497 142.839C139.284 142.317 140.21 142.038 141.157 142.038C142.428 142.038 143.646 142.539 144.544 143.431C145.442 144.323 145.946 145.534 145.946 146.795Z" fill="#00CED1"/>
</g>
</g>
<g style="mix-blend-mode:multiply">
<g style="mix-blend-mode:multiply">
<path d="M163.009 146.795C163.009 147.736 162.728 148.656 162.202 149.439C161.676 150.221 160.928 150.831 160.053 151.191C159.178 151.551 158.215 151.645 157.286 151.462C156.357 151.278 155.504 150.825 154.834 150.16C154.165 149.494 153.708 148.647 153.524 147.724C153.339 146.801 153.434 145.844 153.796 144.975C154.159 144.105 154.772 143.362 155.56 142.839C156.347 142.317 157.273 142.038 158.22 142.038C159.491 142.038 160.709 142.539 161.607 143.431C162.505 144.323 163.009 145.534 163.009 146.795Z" fill="#00CED1"/>
</g>
</g>
</g>
</g>
</g>
</svg>
