<svg width="114" height="131" viewBox="0 0 114 131" fill="none" xmlns="http://www.w3.org/2000/svg">
<mask id="mask0" mask-type="alpha" maskUnits="userSpaceOnUse" x="-12" y="0" width="126" height="131">
<ellipse cx="50.9679" cy="65.3532" rx="62.9679" ry="65.3532" fill="#C4C4C4"/>
</mask>
<g mask="url(#mask0)">
<g style="mix-blend-mode:multiply">
<g style="mix-blend-mode:multiply">
<g style="mix-blend-mode:multiply">
<g style="mix-blend-mode:multiply">
<path d="M9.12785 4.12317C9.12785 4.89694 8.90679 5.65333 8.49262 6.29669C8.07844 6.94005 7.48979 7.44149 6.80105 7.73759C6.1123 8.0337 5.35441 8.11118 4.62324 7.96023C3.89208 7.80927 3.22048 7.43668 2.69334 6.88955C2.1662 6.34241 1.80723 5.64531 1.66179 4.88641C1.51635 4.12752 1.59097 3.3409 1.87626 2.62603C2.16154 1.91116 2.64465 1.30015 3.2645 0.870271C3.88436 0.440389 4.61313 0.210938 5.35862 0.210938C6.35829 0.210938 7.31697 0.623107 8.02385 1.35679C8.73072 2.09048 9.12785 3.08558 9.12785 4.12317Z" fill="#5642CF"/>
</g>
</g>
<g style="mix-blend-mode:multiply">
<g style="mix-blend-mode:multiply">
<path d="M22.5224 4.12317C22.5224 4.89694 22.3013 5.65333 21.8871 6.29669C21.473 6.94005 20.8843 7.44149 20.1955 7.73759C19.5068 8.0337 18.749 8.11118 18.0178 7.96023C17.2866 7.80927 16.615 7.43668 16.0879 6.88955C15.5608 6.34241 15.2017 5.64531 15.0563 4.88641C14.9109 4.12752 14.9855 3.3409 15.2708 2.62603C15.5561 1.91116 16.0392 1.30015 16.6591 0.870271C17.2789 0.440389 18.0076 0.210938 18.7531 0.210938C19.7528 0.210938 20.7115 0.623107 21.4184 1.35679C22.1253 2.09048 22.5224 3.08558 22.5224 4.12317Z" fill="#5642CF"/>
</g>
</g>
<g style="mix-blend-mode:multiply">
<g style="mix-blend-mode:multiply">
<path d="M35.9442 4.12318C35.9442 4.89694 35.7232 5.65333 35.309 6.29669C34.8948 6.94006 34.3062 7.44149 33.6175 7.7376C32.9287 8.0337 32.1708 8.11118 31.4397 7.96023C30.7085 7.80927 30.0369 7.43669 29.5098 6.88955C28.9826 6.34242 28.6236 5.64532 28.4782 4.88642C28.3327 4.12752 28.4074 3.3409 28.6927 2.62604C28.978 1.91117 29.4611 1.30016 30.0809 0.870281C30.7008 0.4404 31.4295 0.210948 32.175 0.210948C32.6703 0.209743 33.161 0.310122 33.6188 0.506303C34.0766 0.702484 34.4926 0.9906 34.8428 1.35412C35.1931 1.71765 35.4707 2.14942 35.6597 2.62461C35.8487 3.09981 35.9454 3.60908 35.9442 4.12318Z" fill="#5642CF"/>
</g>
</g>
<g style="mix-blend-mode:multiply">
<g style="mix-blend-mode:multiply">
<path d="M49.3217 4.12317C49.3217 4.89694 49.1007 5.65333 48.6865 6.29669C48.2723 6.94005 47.6837 7.44149 46.9949 7.73759C46.3062 8.0337 45.5483 8.11118 44.8171 7.96023C44.086 7.80927 43.4144 7.43668 42.8872 6.88955C42.3601 6.34241 42.0011 5.64531 41.8556 4.88641C41.7102 4.12752 41.7849 3.3409 42.0701 2.62603C42.3554 1.91116 42.8385 1.30015 43.4584 0.870271C44.0782 0.440389 44.807 0.210938 45.5524 0.210938C46.5521 0.210938 47.5108 0.623107 48.2177 1.35679C48.9246 2.09048 49.3217 3.08558 49.3217 4.12317Z" fill="#5642CF"/>
</g>
</g>
<g style="mix-blend-mode:multiply">
<g style="mix-blend-mode:multiply">
<path d="M62.7168 4.12317C62.7168 4.89694 62.4958 5.65333 62.0816 6.29669C61.6674 6.94005 61.0787 7.44149 60.39 7.73759C59.7012 8.0337 58.9434 8.11118 58.2122 7.96023C57.481 7.80927 56.8094 7.43668 56.2822 6.88955C55.7551 6.34241 55.3961 5.64531 55.2507 4.88641C55.1052 4.12752 55.1798 3.3409 55.4651 2.62603C55.7504 1.91116 56.2336 1.30015 56.8534 0.870271C57.4733 0.440389 58.202 0.210938 58.9475 0.210938C59.9472 0.210938 60.9059 0.623107 61.6128 1.35679C62.3197 2.09048 62.7168 3.08558 62.7168 4.12317Z" fill="#5642CF"/>
</g>
</g>
<g style="mix-blend-mode:multiply">
<g style="mix-blend-mode:multiply">
<path d="M76.1122 4.12318C76.1122 4.89694 75.8912 5.65333 75.477 6.29669C75.0628 6.94006 74.4742 7.44149 73.7854 7.7376C73.0967 8.0337 72.3388 8.11118 71.6076 7.96023C70.8764 7.80927 70.2049 7.43669 69.6777 6.88955C69.1506 6.34242 68.7916 5.64532 68.6462 4.88642C68.5007 4.12752 68.5753 3.3409 68.8606 2.62604C69.1459 1.91117 69.629 1.30016 70.2489 0.870281C70.8687 0.4404 71.5975 0.210948 72.343 0.210948C72.8383 0.209743 73.3289 0.310122 73.7868 0.506303C74.2446 0.702484 74.6606 0.9906 75.0108 1.35412C75.3611 1.71765 75.6386 2.14942 75.8277 2.62461C76.0167 3.09981 76.1134 3.60908 76.1122 4.12318Z" fill="#5642CF"/>
</g>
</g>
<g style="mix-blend-mode:multiply">
<g style="mix-blend-mode:multiply">
<path d="M89.5063 4.12318C89.5063 4.89733 89.2849 5.65408 88.8704 6.29764C88.4558 6.9412 87.8666 7.44262 87.1774 7.73846C86.4881 8.0343 85.7299 8.11126 84.9985 7.95956C84.2671 7.80786 83.5955 7.43434 83.0687 6.88629C82.5419 6.33824 82.1836 5.64029 82.0391 4.88079C81.8947 4.12129 81.9706 3.33438 82.2572 2.61968C82.5439 1.90497 83.0283 1.2946 83.6494 0.865818C84.2704 0.437037 85 0.209139 85.7458 0.210948C86.2404 0.210947 86.7301 0.312206 87.1869 0.508926C87.6438 0.705646 88.0587 0.993956 88.408 1.35736C88.7573 1.72076 89.0341 2.15213 89.2226 2.62674C89.411 3.10134 89.5074 3.60985 89.5063 4.12318Z" fill="#5642CF"/>
</g>
</g>
<g style="mix-blend-mode:multiply">
<g style="mix-blend-mode:multiply">
<path d="M102.875 4.12317C102.875 4.89694 102.654 5.65333 102.24 6.29669C101.826 6.94005 101.237 7.44149 100.548 7.73759C99.8595 8.0337 99.1016 8.11118 98.3704 7.96023C97.6392 7.80927 96.9676 7.43668 96.4405 6.88955C95.9133 6.34241 95.5543 5.64531 95.4088 4.88641C95.2634 4.12752 95.3381 3.3409 95.6234 2.62603C95.9087 1.91116 96.3918 1.30015 97.0116 0.870271C97.6315 0.440389 98.3602 0.210938 99.1057 0.210938C100.105 0.210938 101.064 0.623107 101.771 1.35679C102.478 2.09048 102.875 3.08558 102.875 4.12317Z" fill="#5642CF"/>
</g>
</g>
<g style="mix-blend-mode:multiply">
<g style="mix-blend-mode:multiply">
<path d="M116.306 4.12317C116.306 4.89694 116.085 5.65333 115.67 6.29669C115.256 6.94005 114.668 7.44149 113.979 7.73759C113.29 8.0337 112.532 8.11118 111.801 7.96023C111.07 7.80927 110.398 7.43668 109.871 6.88955C109.344 6.34241 108.985 5.64531 108.84 4.88641C108.694 4.12752 108.769 3.3409 109.054 2.62603C109.339 1.91116 109.822 1.30015 110.442 0.870271C111.062 0.440389 111.791 0.210938 112.536 0.210938C113.536 0.210938 114.495 0.623107 115.202 1.35679C115.908 2.09048 116.306 3.08558 116.306 4.12317Z" fill="#5642CF"/>
</g>
</g>
<g style="mix-blend-mode:multiply">
<g style="mix-blend-mode:multiply">
<path d="M9.12785 20.7675C9.12785 21.5412 8.90679 22.2976 8.49262 22.9409C8.07844 23.5842 7.48979 24.0857 6.80105 24.3818C6.1123 24.6779 5.35441 24.7553 4.62324 24.6044C3.89208 24.4534 3.22048 24.0809 2.69334 23.5337C2.1662 22.9866 1.80723 22.2896 1.66179 21.5307C1.51635 20.7718 1.59097 19.9853 1.87626 19.2704C2.16154 18.5556 2.64465 17.9446 3.2645 17.5148C3.88436 17.0849 4.61313 16.8555 5.35862 16.8555C6.35829 16.8555 7.31697 17.2676 8.02385 18.0013C8.73072 18.7349 9.12785 19.73 9.12785 20.7675Z" fill="#5642CF"/>
</g>
</g>
<g style="mix-blend-mode:multiply">
<g style="mix-blend-mode:multiply">
<path d="M22.5224 20.7675C22.5224 21.5412 22.3013 22.2976 21.8871 22.9409C21.473 23.5842 20.8843 24.0857 20.1955 24.3818C19.5068 24.6779 18.749 24.7553 18.0178 24.6044C17.2866 24.4534 16.615 24.0809 16.0879 23.5337C15.5608 22.9866 15.2017 22.2896 15.0563 21.5307C14.9109 20.7718 14.9855 19.9853 15.2708 19.2704C15.5561 18.5556 16.0392 17.9446 16.6591 17.5148C17.2789 17.0849 18.0076 16.8555 18.7531 16.8555C19.7528 16.8555 20.7115 17.2676 21.4184 18.0013C22.1253 18.7349 22.5224 19.73 22.5224 20.7675Z" fill="#5642CF"/>
</g>
</g>
<g style="mix-blend-mode:multiply">
<g style="mix-blend-mode:multiply">
<path d="M35.9443 20.7675C35.9443 21.5412 35.7232 22.2976 35.309 22.9409C34.8949 23.5842 34.3062 24.0857 33.6175 24.3818C32.9287 24.6779 32.1708 24.7553 31.4397 24.6044C30.7085 24.4534 30.0369 24.0809 29.5098 23.5337C28.9826 22.9866 28.6236 22.2896 28.4782 21.5307C28.3327 20.7718 28.4074 19.9853 28.6927 19.2704C28.978 18.5556 29.4611 17.9446 30.0809 17.5148C30.7008 17.0849 31.4295 16.8555 32.175 16.8555C33.1747 16.8555 34.1334 17.2676 34.8403 18.0013C35.5471 18.7349 35.9443 19.73 35.9443 20.7675Z" fill="#5642CF"/>
</g>
</g>
<g style="mix-blend-mode:multiply">
<g style="mix-blend-mode:multiply">
<path d="M49.3217 20.7675C49.3217 21.5412 49.1007 22.2976 48.6865 22.9409C48.2723 23.5842 47.6837 24.0857 46.9949 24.3818C46.3062 24.6779 45.5483 24.7553 44.8171 24.6044C44.086 24.4534 43.4144 24.0809 42.8872 23.5337C42.3601 22.9866 42.0011 22.2896 41.8556 21.5307C41.7102 20.7718 41.7849 19.9853 42.0701 19.2704C42.3554 18.5556 42.8385 17.9446 43.4584 17.5148C44.0782 17.0849 44.807 16.8555 45.5524 16.8555C46.5521 16.8555 47.5108 17.2676 48.2177 18.0013C48.9246 18.7349 49.3217 19.73 49.3217 20.7675Z" fill="#5642CF"/>
</g>
</g>
<g style="mix-blend-mode:multiply">
<g style="mix-blend-mode:multiply">
<path d="M62.7168 20.7675C62.7168 21.5412 62.4958 22.2976 62.0816 22.9409C61.6674 23.5842 61.0787 24.0857 60.39 24.3818C59.7012 24.6779 58.9434 24.7553 58.2122 24.6044C57.481 24.4534 56.8094 24.0809 56.2822 23.5337C55.7551 22.9866 55.3961 22.2896 55.2507 21.5307C55.1052 20.7718 55.1798 19.9853 55.4651 19.2704C55.7504 18.5556 56.2336 17.9446 56.8534 17.5148C57.4733 17.0849 58.202 16.8555 58.9475 16.8555C59.9472 16.8555 60.9059 17.2676 61.6128 18.0013C62.3197 18.7349 62.7168 19.73 62.7168 20.7675Z" fill="#5642CF"/>
</g>
</g>
<g style="mix-blend-mode:multiply">
<g style="mix-blend-mode:multiply">
<path d="M76.1122 20.7675C76.1122 21.5412 75.8912 22.2976 75.477 22.9409C75.0628 23.5842 74.4742 24.0857 73.7854 24.3818C73.0967 24.6779 72.3388 24.7553 71.6076 24.6044C70.8765 24.4534 70.2049 24.0809 69.6777 23.5337C69.1506 22.9866 68.7916 22.2896 68.6462 21.5307C68.5007 20.7718 68.5753 19.9853 68.8606 19.2704C69.1459 18.5556 69.629 17.9446 70.2489 17.5148C70.8687 17.0849 71.5975 16.8555 72.343 16.8555C73.3427 16.8555 74.3014 17.2676 75.0083 18.0013C75.7151 18.7349 76.1122 19.73 76.1122 20.7675Z" fill="#5642CF"/>
</g>
</g>
<g style="mix-blend-mode:multiply">
<g style="mix-blend-mode:multiply">
<path d="M89.5063 20.7675C89.5063 21.5416 89.285 22.2984 88.8704 22.9419C88.4558 23.5854 87.8666 24.0868 87.1774 24.3827C86.4881 24.6785 85.7299 24.7554 84.9985 24.6037C84.2671 24.452 83.5955 24.0785 83.0687 23.5305C82.5419 22.9825 82.1836 22.2846 82.0391 21.5251C81.8947 20.7657 81.9706 19.9788 82.2572 19.2641C82.5439 18.5495 83.0283 17.9391 83.6494 17.5103C84.2704 17.0816 85 16.8537 85.7458 16.8555C86.744 16.8579 87.7004 17.2711 88.4054 18.0045C89.1104 18.7379 89.5063 19.7316 89.5063 20.7675Z" fill="#5642CF"/>
</g>
</g>
<g style="mix-blend-mode:multiply">
<g style="mix-blend-mode:multiply">
<path d="M102.875 20.7675C102.875 21.5412 102.654 22.2976 102.24 22.9409C101.826 23.5842 101.237 24.0857 100.548 24.3818C99.8595 24.6779 99.1016 24.7553 98.3704 24.6044C97.6392 24.4534 96.9676 24.0809 96.4405 23.5337C95.9133 22.9866 95.5543 22.2896 95.4088 21.5307C95.2634 20.7718 95.3381 19.9853 95.6234 19.2704C95.9087 18.5556 96.3918 17.9446 97.0116 17.5148C97.6315 17.0849 98.3602 16.8555 99.1057 16.8555C100.105 16.8555 101.064 17.2676 101.771 18.0013C102.478 18.7349 102.875 19.73 102.875 20.7675Z" fill="#5642CF"/>
</g>
</g>
<g style="mix-blend-mode:multiply">
<g style="mix-blend-mode:multiply">
<path d="M116.306 20.7675C116.306 21.5412 116.085 22.2976 115.67 22.9409C115.256 23.5842 114.668 24.0857 113.979 24.3818C113.29 24.6779 112.532 24.7553 111.801 24.6044C111.07 24.4534 110.398 24.0809 109.871 23.5337C109.344 22.9866 108.985 22.2896 108.84 21.5307C108.694 20.7718 108.769 19.9853 109.054 19.2704C109.339 18.5556 109.822 17.9446 110.442 17.5148C111.062 17.0849 111.791 16.8555 112.536 16.8555C113.536 16.8555 114.495 17.2676 115.202 18.0013C115.908 18.7349 116.306 19.73 116.306 20.7675Z" fill="#5642CF"/>
</g>
</g>
<g style="mix-blend-mode:multiply">
<g style="mix-blend-mode:multiply">
<path d="M9.12785 37.4218C9.12785 38.1955 8.90679 38.9518 8.49262 39.5951C8.07844 40.2385 7.48979 40.7399 6.80105 41.036C6.1123 41.3321 5.35441 41.4095 4.62324 41.2586C3.89208 41.1076 3.22048 40.7351 2.69334 40.188C2.1662 39.6409 1.80723 38.9438 1.66179 38.1849C1.51635 37.4261 1.59097 36.6395 1.87626 35.9247C2.16154 35.2099 2.64465 34.5989 3.2645 34.1691C3.88436 33.7392 4.61313 33.5098 5.35862 33.5098C6.35829 33.5098 7.31697 33.9219 8.02385 34.6556C8.73072 35.3892 9.12785 36.3842 9.12785 37.4218Z" fill="#5642CF"/>
</g>
</g>
<g style="mix-blend-mode:multiply">
<g style="mix-blend-mode:multiply">
<path d="M22.5224 37.4218C22.5224 38.1955 22.3013 38.9518 21.8871 39.5951C21.473 40.2385 20.8843 40.7399 20.1955 41.036C19.5068 41.3321 18.749 41.4095 18.0178 41.2586C17.2866 41.1076 16.615 40.7351 16.0879 40.188C15.5608 39.6409 15.2017 38.9438 15.0563 38.1849C14.9109 37.4261 14.9855 36.6395 15.2708 35.9247C15.5561 35.2099 16.0392 34.5989 16.6591 34.1691C17.2789 33.7392 18.0076 33.5098 18.7531 33.5098C19.7528 33.5098 20.7115 33.9219 21.4184 34.6556C22.1253 35.3892 22.5224 36.3842 22.5224 37.4218Z" fill="#5642CF"/>
</g>
</g>
<g style="mix-blend-mode:multiply">
<g style="mix-blend-mode:multiply">
<path d="M35.9443 37.4218C35.9443 38.1955 35.7232 38.9518 35.309 39.5951C34.8949 40.2385 34.3062 40.7399 33.6175 41.036C32.9287 41.3321 32.1708 41.4095 31.4397 41.2586C30.7085 41.1076 30.0369 40.7351 29.5098 40.188C28.9826 39.6409 28.6236 38.9438 28.4782 38.1849C28.3327 37.4261 28.4074 36.6395 28.6927 35.9247C28.978 35.2099 29.4611 34.5989 30.0809 34.1691C30.7008 33.7392 31.4295 33.5098 32.175 33.5098C33.1747 33.5098 34.1334 33.9219 34.8403 34.6556C35.5471 35.3892 35.9443 36.3842 35.9443 37.4218Z" fill="#5642CF"/>
</g>
</g>
<g style="mix-blend-mode:multiply">
<g style="mix-blend-mode:multiply">
<path d="M49.3217 37.4218C49.3217 38.1955 49.1007 38.9518 48.6865 39.5951C48.2723 40.2385 47.6837 40.7399 46.9949 41.036C46.3062 41.3321 45.5483 41.4095 44.8171 41.2586C44.086 41.1076 43.4144 40.7351 42.8872 40.188C42.3601 39.6409 42.0011 38.9438 41.8556 38.1849C41.7102 37.4261 41.7849 36.6395 42.0701 35.9247C42.3554 35.2099 42.8385 34.5989 43.4584 34.1691C44.0782 33.7392 44.807 33.5098 45.5524 33.5098C46.5521 33.5098 47.5108 33.9219 48.2177 34.6556C48.9246 35.3892 49.3217 36.3842 49.3217 37.4218Z" fill="#5642CF"/>
</g>
</g>
<g style="mix-blend-mode:multiply">
<g style="mix-blend-mode:multiply">
<path d="M62.7168 37.4218C62.7168 38.1955 62.4958 38.9518 62.0816 39.5951C61.6674 40.2385 61.0787 40.7399 60.39 41.036C59.7012 41.3321 58.9434 41.4095 58.2122 41.2586C57.481 41.1076 56.8094 40.7351 56.2822 40.188C55.7551 39.6409 55.3961 38.9438 55.2507 38.1849C55.1052 37.4261 55.1798 36.6395 55.4651 35.9247C55.7504 35.2099 56.2336 34.5989 56.8534 34.1691C57.4733 33.7392 58.202 33.5098 58.9475 33.5098C59.9472 33.5098 60.9059 33.9219 61.6128 34.6556C62.3197 35.3892 62.7168 36.3842 62.7168 37.4218Z" fill="#5642CF"/>
</g>
</g>
<g style="mix-blend-mode:multiply">
<g style="mix-blend-mode:multiply">
<path d="M76.1122 37.4218C76.1122 38.1955 75.8912 38.9518 75.477 39.5951C75.0628 40.2385 74.4742 40.7399 73.7854 41.036C73.0967 41.3321 72.3388 41.4095 71.6076 41.2586C70.8765 41.1076 70.2049 40.7351 69.6777 40.188C69.1506 39.6409 68.7916 38.9438 68.6462 38.1849C68.5007 37.4261 68.5753 36.6395 68.8606 35.9247C69.1459 35.2099 69.629 34.5989 70.2489 34.1691C70.8687 33.7392 71.5975 33.5098 72.343 33.5098C73.3427 33.5098 74.3014 33.9219 75.0083 34.6556C75.7151 35.3892 76.1122 36.3842 76.1122 37.4218Z" fill="#5642CF"/>
</g>
</g>
<g style="mix-blend-mode:multiply">
<g style="mix-blend-mode:multiply">
<path d="M89.5063 37.4218C89.5063 38.1959 89.285 38.9526 88.8704 39.5961C88.4558 40.2396 87.8666 40.741 87.1774 41.0368C86.4881 41.3327 85.7299 41.4096 84.9985 41.2579C84.2671 41.1062 83.5955 40.7327 83.0687 40.1847C82.5419 39.6367 82.1836 38.9388 82.0391 38.1793C81.8947 37.4199 81.9706 36.633 82.2572 35.9184C82.5439 35.2037 83.0283 34.5934 83.6494 34.1646C84.2704 33.7359 85 33.508 85.7458 33.5098C86.744 33.5122 87.7004 33.9254 88.4054 34.6588C89.1104 35.3922 89.5063 36.3858 89.5063 37.4218Z" fill="#5642CF"/>
</g>
</g>
<g style="mix-blend-mode:multiply">
<g style="mix-blend-mode:multiply">
<path d="M102.875 37.4218C102.875 38.1955 102.654 38.9518 102.24 39.5951C101.826 40.2385 101.237 40.7399 100.548 41.036C99.8595 41.3321 99.1016 41.4095 98.3704 41.2586C97.6392 41.1076 96.9676 40.7351 96.4405 40.188C95.9133 39.6409 95.5543 38.9438 95.4088 38.1849C95.2634 37.4261 95.3381 36.6395 95.6234 35.9247C95.9087 35.2099 96.3918 34.5989 97.0116 34.1691C97.6315 33.7392 98.3602 33.5098 99.1057 33.5098C100.105 33.5098 101.064 33.9219 101.771 34.6556C102.478 35.3892 102.875 36.3842 102.875 37.4218Z" fill="#5642CF"/>
</g>
</g>
<g style="mix-blend-mode:multiply">
<g style="mix-blend-mode:multiply">
<path d="M116.306 37.4218C116.306 38.1955 116.085 38.9518 115.67 39.5951C115.256 40.2385 114.668 40.7399 113.979 41.036C113.29 41.3321 112.532 41.4095 111.801 41.2586C111.07 41.1076 110.398 40.7351 109.871 40.188C109.344 39.6409 108.985 38.9438 108.84 38.1849C108.694 37.4261 108.769 36.6395 109.054 35.9247C109.339 35.2099 109.822 34.5989 110.442 34.1691C111.062 33.7392 111.791 33.5098 112.536 33.5098C113.536 33.5098 114.495 33.9219 115.202 34.6556C115.908 35.3892 116.306 36.3842 116.306 37.4218Z" fill="#5642CF"/>
</g>
</g>
<g style="mix-blend-mode:multiply">
<g style="mix-blend-mode:multiply">
<path d="M9.12785 54.0742C9.12785 54.8479 8.90679 55.6042 8.49262 56.2476C8.07844 56.8909 7.48979 57.3923 6.80105 57.6884C6.1123 57.9845 5.35441 58.062 4.62324 57.911C3.89208 57.7601 3.22048 57.3875 2.69334 56.8404C2.1662 56.2933 1.80723 55.5962 1.66179 54.8374C1.51635 54.0785 1.59097 53.2919 1.87626 52.5771C2.16154 51.8623 2.64465 51.2513 3.2645 50.8214C3.88436 50.3916 4.61313 50.1621 5.35862 50.1621C6.35829 50.1621 7.31697 50.5743 8.02385 51.3079C8.73072 52.0416 9.12785 53.0366 9.12785 54.0742Z" fill="#5642CF"/>
</g>
</g>
<g style="mix-blend-mode:multiply">
<g style="mix-blend-mode:multiply">
<path d="M22.5224 54.0742C22.5224 54.8479 22.3013 55.6042 21.8871 56.2476C21.473 56.8909 20.8843 57.3923 20.1955 57.6884C19.5068 57.9845 18.749 58.062 18.0178 57.911C17.2866 57.7601 16.615 57.3875 16.0879 56.8404C15.5608 56.2933 15.2017 55.5962 15.0563 54.8374C14.9109 54.0785 14.9855 53.2919 15.2708 52.5771C15.5561 51.8623 16.0392 51.2513 16.6591 50.8214C17.2789 50.3916 18.0076 50.1621 18.7531 50.1621C19.7528 50.1621 20.7115 50.5743 21.4184 51.3079C22.1253 52.0416 22.5224 53.0366 22.5224 54.0742Z" fill="#5642CF"/>
</g>
</g>
<g style="mix-blend-mode:multiply">
<g style="mix-blend-mode:multiply">
<path d="M35.9443 54.0742C35.9443 54.8479 35.7232 55.6042 35.309 56.2476C34.8949 56.8909 34.3062 57.3923 33.6175 57.6884C32.9287 57.9845 32.1708 58.062 31.4397 57.911C30.7085 57.7601 30.0369 57.3875 29.5098 56.8404C28.9826 56.2933 28.6236 55.5962 28.4782 54.8374C28.3327 54.0785 28.4074 53.2919 28.6927 52.5771C28.978 51.8623 29.4611 51.2513 30.0809 50.8214C30.7008 50.3916 31.4295 50.1621 32.175 50.1621C33.1747 50.1621 34.1334 50.5743 34.8403 51.3079C35.5471 52.0416 35.9443 53.0366 35.9443 54.0742Z" fill="#5642CF"/>
</g>
</g>
<g style="mix-blend-mode:multiply">
<g style="mix-blend-mode:multiply">
<path d="M49.3217 54.0742C49.3217 54.8479 49.1007 55.6042 48.6865 56.2476C48.2723 56.8909 47.6837 57.3923 46.9949 57.6884C46.3062 57.9845 45.5483 58.062 44.8171 57.911C44.086 57.7601 43.4144 57.3875 42.8872 56.8404C42.3601 56.2933 42.0011 55.5962 41.8556 54.8374C41.7102 54.0785 41.7849 53.2919 42.0701 52.5771C42.3554 51.8623 42.8385 51.2513 43.4584 50.8214C44.0782 50.3916 44.807 50.1621 45.5524 50.1621C46.5521 50.1621 47.5108 50.5743 48.2177 51.3079C48.9246 52.0416 49.3217 53.0366 49.3217 54.0742Z" fill="#5642CF"/>
</g>
</g>
<g style="mix-blend-mode:multiply">
<g style="mix-blend-mode:multiply">
<path d="M58.9475 57.9978C61.0293 57.9978 62.7168 56.2463 62.7168 54.0858C62.7168 51.9253 61.0293 50.1738 58.9475 50.1738C56.8658 50.1738 55.1782 51.9253 55.1782 54.0858C55.1782 56.2463 56.8658 57.9978 58.9475 57.9978Z" fill="#5642CF"/>
</g>
</g>
<g style="mix-blend-mode:multiply">
<g style="mix-blend-mode:multiply">
<path d="M72.3508 57.9978C74.4325 57.9978 76.12 56.2463 76.12 54.0858C76.12 51.9253 74.4325 50.1738 72.3508 50.1738C70.2691 50.1738 68.5815 51.9253 68.5815 54.0858C68.5815 56.2463 70.2691 57.9978 72.3508 57.9978Z" fill="#5642CF"/>
</g>
</g>
<g style="mix-blend-mode:multiply">
<g style="mix-blend-mode:multiply">
<path d="M89.5063 54.0742C89.5063 54.8483 89.285 55.605 88.8704 56.2485C88.4558 56.8921 87.8666 57.3935 87.1774 57.6893C86.4881 57.9851 85.7299 58.0621 84.9985 57.9104C84.2671 57.7587 83.5955 57.3852 83.0687 56.8371C82.5419 56.2891 82.1836 55.5912 82.0391 54.8318C81.8947 54.0723 81.9706 53.2854 82.2572 52.5708C82.5439 51.8561 83.0283 51.2457 83.6494 50.817C84.2704 50.3882 85 50.1603 85.7458 50.1621C86.744 50.1645 87.7004 50.5778 88.4054 51.3112C89.1104 52.0445 89.5063 53.0382 89.5063 54.0742Z" fill="#5642CF"/>
</g>
</g>
<g style="mix-blend-mode:multiply">
<g style="mix-blend-mode:multiply">
<path d="M102.875 54.0742C102.875 54.8479 102.654 55.6042 102.24 56.2476C101.826 56.8909 101.237 57.3923 100.548 57.6884C99.8595 57.9845 99.1016 58.062 98.3704 57.911C97.6392 57.7601 96.9676 57.3875 96.4405 56.8404C95.9133 56.2933 95.5543 55.5962 95.4088 54.8374C95.2634 54.0785 95.3381 53.2919 95.6234 52.5771C95.9087 51.8623 96.3918 51.2513 97.0116 50.8214C97.6315 50.3916 98.3602 50.1621 99.1057 50.1621C100.105 50.1621 101.064 50.5743 101.771 51.3079C102.478 52.0416 102.875 53.0366 102.875 54.0742Z" fill="#5642CF"/>
</g>
</g>
<g style="mix-blend-mode:multiply">
<g style="mix-blend-mode:multiply">
<path d="M116.306 54.0742C116.306 54.8479 116.085 55.6042 115.67 56.2476C115.256 56.8909 114.668 57.3923 113.979 57.6884C113.29 57.9845 112.532 58.062 111.801 57.911C111.07 57.7601 110.398 57.3875 109.871 56.8404C109.344 56.2933 108.985 55.5962 108.84 54.8374C108.694 54.0785 108.769 53.2919 109.054 52.5771C109.339 51.8623 109.822 51.2513 110.442 50.8214C111.062 50.3916 111.791 50.1621 112.536 50.1621C113.536 50.1621 114.495 50.5743 115.202 51.3079C115.908 52.0416 116.306 53.0366 116.306 54.0742Z" fill="#5642CF"/>
</g>
</g>
<g style="mix-blend-mode:multiply">
<g style="mix-blend-mode:multiply">
<path d="M9.12784 70.7291C9.12958 71.5033 8.91002 72.2605 8.49691 72.9051C8.0838 73.5496 7.49576 74.0525 6.80717 74.35C6.11858 74.6475 5.36041 74.7262 4.62867 74.5763C3.89693 74.4264 3.22448 74.0545 2.69646 73.5078C2.16844 72.961 1.80859 72.264 1.66244 71.5048C1.51629 70.7457 1.59038 69.9587 1.8754 69.2433C2.16043 68.5279 2.64355 67.9164 3.26359 67.4861C3.88363 67.0559 4.61275 66.8262 5.35862 66.8262C6.35676 66.8262 7.31415 67.2371 8.02077 67.9688C8.72739 68.7004 9.12551 69.6932 9.12784 70.7291Z" fill="#5642CF"/>
</g>
</g>
<g style="mix-blend-mode:multiply">
<g style="mix-blend-mode:multiply">
<path d="M22.5224 70.7291C22.5241 71.5033 22.3045 72.2605 21.8914 72.9051C21.4783 73.5496 20.8902 74.0525 20.2017 74.35C19.5131 74.6475 18.755 74.7262 18.0232 74.5763C17.2915 74.4264 16.619 74.0545 16.091 73.5078C15.563 72.961 15.2031 72.264 15.057 71.5048C14.9108 70.7457 14.9849 69.9587 15.27 69.2433C15.555 68.5279 16.0381 67.9164 16.6582 67.4861C17.2782 67.0559 18.0073 66.8262 18.7531 66.8262C19.7513 66.8262 20.7086 67.2371 21.4153 67.9688C22.1219 68.7004 22.52 69.6932 22.5224 70.7291Z" fill="#5642CF"/>
</g>
</g>
<g style="mix-blend-mode:multiply">
<g style="mix-blend-mode:multiply">
<path d="M35.9438 70.7291C35.9455 71.5033 35.7259 72.2605 35.3128 72.9051C34.8997 73.5496 34.3116 74.0525 33.623 74.35C32.9344 74.6475 32.1763 74.7262 31.4446 74.5763C30.7128 74.4264 30.0404 74.0545 29.5124 73.5078C28.9844 72.961 28.6245 72.264 28.4784 71.5049C28.3322 70.7457 28.4063 69.9587 28.6913 69.2433C28.9763 68.5279 29.4595 67.9164 30.0795 67.4861C30.6996 67.0559 31.4286 66.8262 32.1745 66.8262C32.6691 66.825 33.159 66.925 33.6163 67.1206C34.0735 67.3162 34.4891 67.6035 34.8392 67.9661C35.1893 68.3286 35.4671 68.7593 35.6567 69.2334C35.8462 69.7076 35.9438 70.2158 35.9438 70.7291Z" fill="#5642CF"/>
</g>
</g>
<g style="mix-blend-mode:multiply">
<g style="mix-blend-mode:multiply">
<path d="M49.3217 70.7291C49.3234 71.5033 49.1039 72.2605 48.6908 72.9051C48.2776 73.5496 47.6895 74.0525 47.001 74.35C46.3124 74.6475 45.5543 74.7262 44.8225 74.5763C44.0908 74.4264 43.4183 74.0545 42.8903 73.5078C42.3623 72.961 42.0024 72.264 41.8563 71.5048C41.7101 70.7457 41.7842 69.9587 42.0693 69.2433C42.3543 68.5279 42.8374 67.9164 43.4574 67.4861C44.0775 67.0559 44.8065 66.8262 45.5524 66.8262C46.5506 66.8262 47.5079 67.2371 48.2146 67.9688C48.9212 68.7004 49.3194 69.6932 49.3217 70.7291Z" fill="#5642CF"/>
</g>
</g>
<g style="mix-blend-mode:multiply">
<g style="mix-blend-mode:multiply">
<path d="M58.9475 74.6504C61.0293 74.6504 62.7168 72.8989 62.7168 70.7383C62.7168 68.5777 61.0293 66.8262 58.9475 66.8262C56.8658 66.8262 55.1782 68.5777 55.1782 70.7383C55.1782 72.8989 56.8658 74.6504 58.9475 74.6504Z" fill="#5642CF"/>
</g>
</g>
<g style="mix-blend-mode:multiply">
<g style="mix-blend-mode:multiply">
<path d="M72.3508 74.6504C74.4325 74.6504 76.12 72.8989 76.12 70.7383C76.12 68.5777 74.4325 66.8262 72.3508 66.8262C70.2691 66.8262 68.5815 68.5777 68.5815 70.7383C68.5815 72.8989 70.2691 74.6504 72.3508 74.6504Z" fill="#5642CF"/>
</g>
</g>
<g style="mix-blend-mode:multiply">
<g style="mix-blend-mode:multiply">
<path d="M89.5063 70.7291C89.508 71.5037 89.2882 72.2613 88.8747 72.906C88.4612 73.5508 87.8726 74.0536 87.1835 74.3508C86.4944 74.6481 85.7358 74.7263 85.0038 74.5757C84.2719 74.425 83.5995 74.0522 83.0718 73.5045C82.5441 72.9569 82.1849 72.259 82.0398 71.4992C81.8946 70.7395 81.97 69.9522 82.2564 69.237C82.5428 68.5217 83.0272 67.9108 83.6484 67.4817C84.2696 67.0525 84.9996 66.8244 85.7458 66.8262C86.7432 66.8262 87.6996 67.2374 88.4049 67.9693C89.1101 68.7013 89.5063 69.694 89.5063 70.7291Z" fill="#5642CF"/>
</g>
</g>
<g style="mix-blend-mode:multiply">
<g style="mix-blend-mode:multiply">
<path d="M102.876 70.7291C102.877 71.5033 102.658 72.2605 102.245 72.9051C101.831 73.5496 101.243 74.0525 100.555 74.35C99.8662 74.6475 99.108 74.7262 98.3763 74.5763C97.6445 74.4264 96.9721 74.0545 96.444 73.5078C95.916 72.961 95.5562 72.264 95.41 71.5048C95.2638 70.7457 95.3379 69.9587 95.623 69.2433C95.908 68.5279 96.3911 67.9164 97.0112 67.4861C97.6312 67.0559 98.3603 66.8262 99.1062 66.8262C100.104 66.8262 101.062 67.2371 101.768 67.9688C102.475 68.7004 102.873 69.6932 102.876 70.7291Z" fill="#5642CF"/>
</g>
</g>
<g style="mix-blend-mode:multiply">
<g style="mix-blend-mode:multiply">
<path d="M116.306 70.7292C116.307 71.5045 116.087 72.2629 115.673 72.908C115.258 73.5531 114.669 74.056 113.979 74.3526C113.289 74.6493 112.529 74.7265 111.797 74.5743C111.064 74.4222 110.392 74.0476 109.865 73.4981C109.338 72.9486 108.98 72.2489 108.837 71.488C108.694 70.7271 108.772 69.9392 109.061 69.2243C109.35 68.5094 109.837 67.8998 110.461 67.4728C111.084 67.0459 111.816 66.8208 112.563 66.8263C113.556 66.8335 114.507 67.2476 115.208 67.9785C115.909 68.7094 116.303 69.698 116.306 70.7292Z" fill="#5642CF"/>
</g>
</g>
<g style="mix-blend-mode:multiply">
<g style="mix-blend-mode:multiply">
<path d="M9.12785 87.3906C9.12785 88.1643 8.90679 88.9206 8.49262 89.564C8.07844 90.2073 7.48979 90.7087 6.80105 91.0048C6.1123 91.3009 5.35441 91.3784 4.62324 91.2274C3.89208 91.0765 3.22048 90.7039 2.69334 90.1568C2.1662 89.6097 1.80723 88.9126 1.66179 88.1538C1.51635 87.3949 1.59097 86.6083 1.87626 85.8935C2.16154 85.1787 2.64465 84.5677 3.2645 84.1378C3.88436 83.708 4.61313 83.4785 5.35862 83.4785C6.35829 83.4785 7.31697 83.8907 8.02385 84.6243C8.73072 85.358 9.12785 86.353 9.12785 87.3906Z" fill="#5642CF"/>
</g>
</g>
<g style="mix-blend-mode:multiply">
<g style="mix-blend-mode:multiply">
<path d="M22.5224 87.3906C22.5224 88.1643 22.3013 88.9206 21.8871 89.564C21.473 90.2073 20.8843 90.7087 20.1955 91.0048C19.5068 91.3009 18.749 91.3784 18.0178 91.2274C17.2866 91.0765 16.615 90.7039 16.0879 90.1568C15.5608 89.6097 15.2017 88.9126 15.0563 88.1538C14.9109 87.3949 14.9855 86.6083 15.2708 85.8935C15.5561 85.1787 16.0392 84.5677 16.6591 84.1378C17.2789 83.708 18.0076 83.4785 18.7531 83.4785C19.7528 83.4785 20.7115 83.8907 21.4184 84.6243C22.1253 85.358 22.5224 86.353 22.5224 87.3906Z" fill="#5642CF"/>
</g>
</g>
<g style="mix-blend-mode:multiply">
<g style="mix-blend-mode:multiply">
<path d="M35.9442 87.3906C35.9442 88.1643 35.7232 88.9207 35.309 89.564C34.8948 90.2073 34.3062 90.7087 33.6175 91.0048C32.9287 91.3009 32.1708 91.3784 31.4397 91.2274C30.7085 91.0765 30.0369 90.7039 29.5098 90.1568C28.9826 89.6097 28.6236 88.9126 28.4782 88.1538C28.3327 87.3949 28.4074 86.6083 28.6927 85.8935C28.978 85.1787 29.4611 84.5677 30.0809 84.1378C30.7008 83.708 31.4295 83.4785 32.175 83.4785C32.6703 83.4773 33.161 83.5777 33.6188 83.7738C34.0766 83.97 34.4926 84.2581 34.8428 84.6216C35.1931 84.9852 35.4707 85.4169 35.6597 85.8921C35.8487 86.3672 35.9454 86.8765 35.9442 87.3906Z" fill="#5642CF"/>
</g>
</g>
<g style="mix-blend-mode:multiply">
<g style="mix-blend-mode:multiply">
<path d="M49.3217 87.3906C49.3217 88.1643 49.1007 88.9206 48.6865 89.564C48.2723 90.2073 47.6837 90.7087 46.9949 91.0048C46.3062 91.3009 45.5483 91.3784 44.8171 91.2274C44.086 91.0765 43.4144 90.7039 42.8872 90.1568C42.3601 89.6097 42.0011 88.9126 41.8556 88.1538C41.7102 87.3949 41.7849 86.6083 42.0701 85.8935C42.3554 85.1787 42.8385 84.5677 43.4584 84.1378C44.0782 83.708 44.807 83.4785 45.5524 83.4785C46.5521 83.4785 47.5108 83.8907 48.2177 84.6243C48.9246 85.358 49.3217 86.353 49.3217 87.3906Z" fill="#5642CF"/>
</g>
</g>
<g style="mix-blend-mode:multiply">
<g style="mix-blend-mode:multiply">
<path d="M58.9475 91.3026C61.0293 91.3026 62.7168 89.5511 62.7168 87.3906C62.7168 85.23 61.0293 83.4785 58.9475 83.4785C56.8658 83.4785 55.1782 85.23 55.1782 87.3906C55.1782 89.5511 56.8658 91.3026 58.9475 91.3026Z" fill="#5642CF"/>
</g>
</g>
<g style="mix-blend-mode:multiply">
<g style="mix-blend-mode:multiply">
<path d="M72.3508 91.3026C74.4325 91.3026 76.1201 89.5511 76.1201 87.3906C76.1201 85.23 74.4325 83.4785 72.3508 83.4785C70.2691 83.4785 68.5815 85.23 68.5815 87.3906C68.5815 89.5511 70.2691 91.3026 72.3508 91.3026Z" fill="#5642CF"/>
</g>
</g>
<g style="mix-blend-mode:multiply">
<g style="mix-blend-mode:multiply">
<path d="M89.5063 87.3906C89.5063 88.1647 89.2849 88.9214 88.8704 89.5649C88.4558 90.2085 87.8666 90.7099 87.1774 91.0057C86.4881 91.3015 85.7299 91.3785 84.9985 91.2268C84.2671 91.0751 83.5955 90.7016 83.0687 90.1536C82.5419 89.6055 82.1836 88.9076 82.0391 88.1481C81.8947 87.3887 81.9706 86.6018 82.2572 85.8871C82.5439 85.1725 83.0283 84.5621 83.6494 84.1334C84.2704 83.7046 85 83.4767 85.7458 83.4785C86.2404 83.4785 86.7301 83.5798 87.1869 83.7765C87.6438 83.9732 88.0587 84.2615 88.408 84.6249C88.7573 84.9883 89.0341 85.4196 89.2226 85.8942C89.411 86.3688 89.5074 86.8773 89.5063 87.3906Z" fill="#5642CF"/>
</g>
</g>
<g style="mix-blend-mode:multiply">
<g style="mix-blend-mode:multiply">
<path d="M102.875 87.3906C102.875 88.1643 102.654 88.9206 102.24 89.564C101.826 90.2073 101.237 90.7087 100.548 91.0048C99.8595 91.3009 99.1016 91.3784 98.3704 91.2274C97.6392 91.0765 96.9676 90.7039 96.4405 90.1568C95.9133 89.6097 95.5543 88.9126 95.4088 88.1538C95.2634 87.3949 95.3381 86.6083 95.6234 85.8935C95.9087 85.1787 96.3918 84.5677 97.0116 84.1378C97.6315 83.708 98.3602 83.4785 99.1057 83.4785C100.105 83.4785 101.064 83.8907 101.771 84.6243C102.478 85.358 102.875 86.353 102.875 87.3906Z" fill="#5642CF"/>
</g>
</g>
<g style="mix-blend-mode:multiply">
<g style="mix-blend-mode:multiply">
<path d="M116.306 87.3906C116.306 88.1643 116.085 88.9206 115.67 89.564C115.256 90.2073 114.668 90.7087 113.979 91.0048C113.29 91.3009 112.532 91.3784 111.801 91.2274C111.07 91.0765 110.398 90.7039 109.871 90.1568C109.344 89.6097 108.985 88.9126 108.84 88.1538C108.694 87.3949 108.769 86.6083 109.054 85.8935C109.339 85.1787 109.822 84.5677 110.442 84.1378C111.062 83.708 111.791 83.4785 112.536 83.4785C113.536 83.4785 114.495 83.8907 115.202 84.6243C115.908 85.358 116.306 86.353 116.306 87.3906Z" fill="#5642CF"/>
</g>
</g>
<g style="mix-blend-mode:multiply">
<g style="mix-blend-mode:multiply">
<path d="M9.12785 104.047C9.12785 104.821 8.90679 105.577 8.49262 106.22C8.07844 106.864 7.48979 107.365 6.80105 107.661C6.1123 107.957 5.35441 108.035 4.62324 107.884C3.89208 107.733 3.22048 107.36 2.69334 106.813C2.1662 106.266 1.80723 105.569 1.66179 104.81C1.51635 104.051 1.59097 103.265 1.87626 102.55C2.16154 101.835 2.64465 101.224 3.2645 100.794C3.88436 100.364 4.61313 100.135 5.35862 100.135C6.35829 100.135 7.31697 100.547 8.02385 101.281C8.73072 102.014 9.12785 103.009 9.12785 104.047Z" fill="#5642CF"/>
</g>
</g>
<g style="mix-blend-mode:multiply">
<g style="mix-blend-mode:multiply">
<path d="M22.5224 104.047C22.5224 104.821 22.3013 105.577 21.8871 106.22C21.473 106.864 20.8843 107.365 20.1955 107.661C19.5068 107.957 18.749 108.035 18.0178 107.884C17.2866 107.733 16.615 107.36 16.0879 106.813C15.5608 106.266 15.2017 105.569 15.0563 104.81C14.9109 104.051 14.9855 103.265 15.2708 102.55C15.5561 101.835 16.0392 101.224 16.6591 100.794C17.2789 100.364 18.0076 100.135 18.7531 100.135C19.7528 100.135 20.7115 100.547 21.4184 101.281C22.1253 102.014 22.5224 103.009 22.5224 104.047Z" fill="#5642CF"/>
</g>
</g>
<g style="mix-blend-mode:multiply">
<g style="mix-blend-mode:multiply">
<path d="M35.9443 104.047C35.9443 104.821 35.7232 105.577 35.309 106.22C34.8949 106.864 34.3062 107.365 33.6175 107.661C32.9287 107.957 32.1708 108.035 31.4397 107.884C30.7085 107.733 30.0369 107.36 29.5098 106.813C28.9826 106.266 28.6236 105.569 28.4782 104.81C28.3327 104.051 28.4074 103.265 28.6927 102.55C28.978 101.835 29.4611 101.224 30.0809 100.794C30.7008 100.364 31.4295 100.135 32.175 100.135C33.1747 100.135 34.1334 100.547 34.8403 101.281C35.5471 102.014 35.9443 103.009 35.9443 104.047Z" fill="#5642CF"/>
</g>
</g>
<g style="mix-blend-mode:multiply">
<g style="mix-blend-mode:multiply">
<path d="M49.3217 104.047C49.3217 104.821 49.1007 105.577 48.6865 106.22C48.2723 106.864 47.6837 107.365 46.9949 107.661C46.3062 107.957 45.5483 108.035 44.8171 107.884C44.086 107.733 43.4144 107.36 42.8872 106.813C42.3601 106.266 42.0011 105.569 41.8556 104.81C41.7102 104.051 41.7849 103.265 42.0701 102.55C42.3554 101.835 42.8385 101.224 43.4584 100.794C44.0782 100.364 44.807 100.135 45.5524 100.135C46.5521 100.135 47.5108 100.547 48.2177 101.281C48.9246 102.014 49.3217 103.009 49.3217 104.047Z" fill="#5642CF"/>
</g>
</g>
<g style="mix-blend-mode:multiply">
<g style="mix-blend-mode:multiply">
<path d="M58.9475 107.959C61.0293 107.959 62.7168 106.207 62.7168 104.047C62.7168 101.886 61.0293 100.135 58.9475 100.135C56.8658 100.135 55.1782 101.886 55.1782 104.047C55.1782 106.207 56.8658 107.959 58.9475 107.959Z" fill="#5642CF"/>
</g>
</g>
<g style="mix-blend-mode:multiply">
<g style="mix-blend-mode:multiply">
<path d="M72.3508 107.959C74.4325 107.959 76.1201 106.207 76.1201 104.047C76.1201 101.886 74.4325 100.135 72.3508 100.135C70.2691 100.135 68.5815 101.886 68.5815 104.047C68.5815 106.207 70.2691 107.959 72.3508 107.959Z" fill="#5642CF"/>
</g>
</g>
<g style="mix-blend-mode:multiply">
<g style="mix-blend-mode:multiply">
<path d="M89.5063 104.047C89.5063 104.821 89.285 105.578 88.8704 106.221C88.4558 106.865 87.8666 107.366 87.1774 107.662C86.4881 107.958 85.7299 108.035 84.9985 107.883C84.2671 107.731 83.5955 107.358 83.0687 106.81C82.5419 106.262 82.1836 105.564 82.0391 104.804C81.8947 104.045 81.9706 103.258 82.2572 102.543C82.5439 101.829 83.0283 101.218 83.6494 100.79C84.2704 100.361 85 100.133 85.7458 100.135C86.744 100.137 87.7004 100.55 88.4054 101.284C89.1104 102.017 89.5063 103.011 89.5063 104.047Z" fill="#5642CF"/>
</g>
</g>
<g style="mix-blend-mode:multiply">
<g style="mix-blend-mode:multiply">
<path d="M102.875 104.047C102.875 104.821 102.654 105.577 102.24 106.22C101.826 106.864 101.237 107.365 100.548 107.661C99.8595 107.957 99.1016 108.035 98.3704 107.884C97.6392 107.733 96.9676 107.36 96.4405 106.813C95.9133 106.266 95.5543 105.569 95.4088 104.81C95.2634 104.051 95.3381 103.265 95.6234 102.55C95.9087 101.835 96.3918 101.224 97.0116 100.794C97.6315 100.364 98.3602 100.135 99.1057 100.135C100.105 100.135 101.064 100.547 101.771 101.281C102.478 102.014 102.875 103.009 102.875 104.047Z" fill="#5642CF"/>
</g>
</g>
<g style="mix-blend-mode:multiply">
<g style="mix-blend-mode:multiply">
<path d="M116.305 104.044C116.298 104.818 116.071 105.572 115.651 106.211C115.232 106.85 114.639 107.345 113.948 107.635C113.257 107.925 112.499 107.995 111.77 107.838C111.04 107.681 110.372 107.303 109.849 106.751C109.327 106.2 108.973 105.5 108.834 104.741C108.694 103.981 108.775 103.196 109.065 102.483C109.355 101.771 109.843 101.164 110.465 100.739C111.088 100.314 111.818 100.09 112.563 100.096C113.058 100.099 113.549 100.204 114.005 100.405C114.462 100.605 114.876 100.897 115.223 101.264C115.571 101.631 115.846 102.065 116.031 102.542C116.217 103.02 116.31 103.53 116.305 104.044Z" fill="#5642CF"/>
</g>
</g>
<g style="mix-blend-mode:multiply">
<g style="mix-blend-mode:multiply">
<path d="M9.12785 120.699C9.12785 121.473 8.90679 122.229 8.49262 122.873C8.07844 123.516 7.48979 124.017 6.80105 124.313C6.1123 124.61 5.35441 124.687 4.62324 124.536C3.89208 124.385 3.22048 124.013 2.69334 123.465C2.1662 122.918 1.80723 122.221 1.66179 121.462C1.51635 120.704 1.59097 119.917 1.87626 119.202C2.16154 118.487 2.64465 117.876 3.2645 117.446C3.88436 117.017 4.61313 116.787 5.35862 116.787C6.35829 116.787 7.31697 117.199 8.02385 117.933C8.73072 118.667 9.12785 119.662 9.12785 120.699Z" fill="#5642CF"/>
</g>
</g>
<g style="mix-blend-mode:multiply">
<g style="mix-blend-mode:multiply">
<path d="M22.5224 120.699C22.5224 121.473 22.3013 122.229 21.8871 122.873C21.473 123.516 20.8843 124.017 20.1955 124.313C19.5068 124.61 18.749 124.687 18.0178 124.536C17.2866 124.385 16.615 124.013 16.0879 123.465C15.5608 122.918 15.2017 122.221 15.0563 121.462C14.9109 120.704 14.9855 119.917 15.2708 119.202C15.5561 118.487 16.0392 117.876 16.6591 117.446C17.2789 117.017 18.0076 116.787 18.7531 116.787C19.7528 116.787 20.7115 117.199 21.4184 117.933C22.1253 118.667 22.5224 119.662 22.5224 120.699Z" fill="#5642CF"/>
</g>
</g>
<g style="mix-blend-mode:multiply">
<g style="mix-blend-mode:multiply">
<path d="M35.9443 120.699C35.9443 121.473 35.7232 122.229 35.309 122.873C34.8949 123.516 34.3062 124.017 33.6175 124.313C32.9287 124.61 32.1708 124.687 31.4397 124.536C30.7085 124.385 30.0369 124.013 29.5098 123.465C28.9826 122.918 28.6236 122.221 28.4782 121.462C28.3327 120.704 28.4074 119.917 28.6927 119.202C28.978 118.487 29.4611 117.876 30.0809 117.446C30.7008 117.017 31.4295 116.787 32.175 116.787C33.1747 116.787 34.1334 117.199 34.8403 117.933C35.5471 118.667 35.9443 119.662 35.9443 120.699Z" fill="#5642CF"/>
</g>
</g>
<g style="mix-blend-mode:multiply">
<g style="mix-blend-mode:multiply">
<path d="M49.3217 120.699C49.3217 121.473 49.1007 122.229 48.6865 122.873C48.2723 123.516 47.6837 124.017 46.9949 124.313C46.3062 124.61 45.5483 124.687 44.8171 124.536C44.086 124.385 43.4144 124.013 42.8872 123.465C42.3601 122.918 42.0011 122.221 41.8556 121.462C41.7102 120.704 41.7849 119.917 42.0701 119.202C42.3554 118.487 42.8385 117.876 43.4584 117.446C44.0782 117.017 44.807 116.787 45.5524 116.787C46.5521 116.787 47.5108 117.199 48.2177 117.933C48.9246 118.667 49.3217 119.662 49.3217 120.699Z" fill="#5642CF"/>
</g>
</g>
<g style="mix-blend-mode:multiply">
<g style="mix-blend-mode:multiply">
<path d="M62.7168 120.699C62.7168 121.473 62.4958 122.229 62.0816 122.873C61.6674 123.516 61.0787 124.017 60.39 124.313C59.7012 124.61 58.9434 124.687 58.2122 124.536C57.481 124.385 56.8094 124.013 56.2822 123.465C55.7551 122.918 55.3961 122.221 55.2507 121.462C55.1052 120.704 55.1798 119.917 55.4651 119.202C55.7504 118.487 56.2336 117.876 56.8534 117.446C57.4733 117.017 58.202 116.787 58.9475 116.787C59.9472 116.787 60.9059 117.199 61.6128 117.933C62.3197 118.667 62.7168 119.662 62.7168 120.699Z" fill="#5642CF"/>
</g>
</g>
<g style="mix-blend-mode:multiply">
<g style="mix-blend-mode:multiply">
<path d="M76.1122 120.699C76.1122 121.473 75.8912 122.229 75.477 122.873C75.0628 123.516 74.4742 124.017 73.7854 124.313C73.0967 124.61 72.3388 124.687 71.6076 124.536C70.8765 124.385 70.2049 124.013 69.6777 123.465C69.1506 122.918 68.7916 122.221 68.6462 121.462C68.5007 120.704 68.5753 119.917 68.8606 119.202C69.1459 118.487 69.629 117.876 70.2489 117.446C70.8687 117.017 71.5975 116.787 72.343 116.787C73.3427 116.787 74.3014 117.199 75.0083 117.933C75.7151 118.667 76.1122 119.662 76.1122 120.699Z" fill="#5642CF"/>
</g>
</g>
<g style="mix-blend-mode:multiply">
<g style="mix-blend-mode:multiply">
<path d="M89.5063 120.699C89.5063 121.473 89.285 122.23 88.8704 122.874C88.4558 123.517 87.8666 124.018 87.1774 124.314C86.4881 124.61 85.7299 124.687 84.9985 124.535C84.2671 124.384 83.5955 124.01 83.0687 123.462C82.5419 122.914 82.1836 122.216 82.0391 121.457C81.8947 120.697 81.9706 119.91 82.2572 119.196C82.5439 118.481 83.0283 117.871 83.6494 117.442C84.2704 117.013 85 116.785 85.7458 116.787C86.744 116.79 87.7004 117.203 88.4054 117.936C89.1104 118.67 89.5063 119.663 89.5063 120.699Z" fill="#5642CF"/>
</g>
</g>
<g style="mix-blend-mode:multiply">
<g style="mix-blend-mode:multiply">
<path d="M102.875 120.699C102.875 121.473 102.654 122.229 102.24 122.873C101.826 123.516 101.237 124.017 100.548 124.313C99.8595 124.61 99.1016 124.687 98.3704 124.536C97.6392 124.385 96.9676 124.013 96.4405 123.465C95.9133 122.918 95.5543 122.221 95.4088 121.462C95.2634 120.704 95.3381 119.917 95.6234 119.202C95.9087 118.487 96.3918 117.876 97.0116 117.446C97.6315 117.017 98.3602 116.787 99.1057 116.787C100.105 116.787 101.064 117.199 101.771 117.933C102.478 118.667 102.875 119.662 102.875 120.699Z" fill="#5642CF"/>
</g>
</g>
<g style="mix-blend-mode:multiply">
<g style="mix-blend-mode:multiply">
<path d="M116.306 120.699C116.306 121.473 116.085 122.229 115.67 122.873C115.256 123.516 114.668 124.017 113.979 124.313C113.29 124.61 112.532 124.687 111.801 124.536C111.07 124.385 110.398 124.013 109.871 123.465C109.344 122.918 108.985 122.221 108.84 121.462C108.694 120.704 108.769 119.917 109.054 119.202C109.339 118.487 109.822 117.876 110.442 117.446C111.062 117.017 111.791 116.787 112.536 116.787C113.536 116.787 114.495 117.199 115.202 117.933C115.908 118.667 116.306 119.662 116.306 120.699Z" fill="#5642CF"/>
</g>
</g>
</g>
</g>
</g>
</svg>
