<svg width="118" height="121" viewBox="0 0 118 121" fill="none" xmlns="http://www.w3.org/2000/svg">
<mask id="mask0" mask-type="alpha" maskUnits="userSpaceOnUse" x="16" y="17" width="86" height="87">
<ellipse rx="41.8649" ry="44.0519" transform="matrix(-0.871397 -0.490578 0.509481 -0.860482 58.9246 60.3315)" fill="#C4C4C4"/>
</mask>
<g mask="url(#mask0)">
<g style="mix-blend-mode:multiply">
<g style="mix-blend-mode:multiply">
<g style="mix-blend-mode:multiply">
<g style="mix-blend-mode:multiply">
<path d="M25.3773 101.693C25.6446 101.241 26.0335 100.871 26.4949 100.629C26.9562 100.386 27.4692 100.283 27.969 100.332C28.4688 100.382 28.9329 100.581 29.3025 100.904C29.6721 101.228 29.9307 101.662 30.0454 102.152C30.1602 102.641 30.1259 103.164 29.9471 103.653C29.7682 104.143 29.4528 104.578 29.0407 104.903C28.6286 105.228 28.1383 105.428 27.632 105.479C27.1257 105.529 26.6261 105.427 26.1964 105.186C25.6214 104.864 25.2122 104.315 25.0586 103.66C24.9051 103.005 25.0197 102.298 25.3773 101.693Z" fill="#483D8B"/>
</g>
</g>
<g style="mix-blend-mode:multiply">
<g style="mix-blend-mode:multiply">
<path d="M17.6168 97.3257C17.8841 96.8739 18.273 96.5034 18.7343 96.2612C19.1957 96.0189 19.7087 95.9158 20.2085 95.9649C20.7083 96.014 21.1724 96.2131 21.542 96.537C21.9116 96.8608 22.1702 97.2949 22.2849 97.7843C22.3996 98.2736 22.3654 98.7963 22.1866 99.286C22.0077 99.7758 21.6923 100.211 21.2802 100.536C20.8681 100.861 20.3779 101.061 19.8716 101.111C19.3652 101.162 18.8656 101.06 18.4359 100.819C18.1505 100.66 17.903 100.443 17.7073 100.181C17.5117 99.9197 17.3718 99.6179 17.2957 99.2934C17.2196 98.9689 17.2088 98.6281 17.2639 98.2904C17.319 97.9528 17.439 97.625 17.6168 97.3257Z" fill="#483D8B"/>
</g>
</g>
<g style="mix-blend-mode:multiply">
<g style="mix-blend-mode:multiply">
<path d="M54.3893 105.133C54.6575 104.682 55.0469 104.313 55.5084 104.071C55.97 103.83 56.4829 103.728 56.9823 103.778C57.4817 103.828 57.9451 104.028 58.3141 104.352C58.683 104.676 58.9408 105.11 59.0549 105.6C59.169 106.089 59.1343 106.611 58.9551 107.101C58.7759 107.59 58.4603 108.025 58.0483 108.349C57.6362 108.674 57.1461 108.874 56.6401 108.924C56.134 108.974 55.6347 108.873 55.2052 108.632C54.6293 108.309 54.2198 107.759 54.0668 107.102C53.9138 106.446 54.0298 105.738 54.3893 105.133Z" fill="#483D8B"/>
</g>
</g>
<g style="mix-blend-mode:multiply">
<g style="mix-blend-mode:multiply">
<path d="M46.6137 100.758C46.8818 100.307 47.2713 99.9375 47.7328 99.6963C48.1944 99.4551 48.7072 99.3531 49.2066 99.403C49.706 99.453 50.1695 99.6527 50.5384 99.977C50.9073 100.301 51.1652 100.735 51.2793 101.225C51.3934 101.714 51.3586 102.236 51.1795 102.726C51.0003 103.215 50.6847 103.65 50.2726 103.974C49.8606 104.299 49.3705 104.499 48.8645 104.549C48.3584 104.599 47.8591 104.498 47.4296 104.257C47.1438 104.097 46.8959 103.88 46.7001 103.618C46.5044 103.356 46.3645 103.053 46.2887 102.728C46.2129 102.403 46.2026 102.062 46.2584 101.724C46.3141 101.385 46.4349 101.057 46.6137 100.758Z" fill="#483D8B"/>
</g>
</g>
<g style="mix-blend-mode:multiply">
<g style="mix-blend-mode:multiply">
<path d="M38.8632 96.3947C39.1313 95.9437 39.5208 95.5742 39.9823 95.333C40.4438 95.0918 40.9567 94.9897 41.4561 95.0397C41.9555 95.0896 42.419 95.2894 42.7879 95.6136C43.1568 95.9379 43.4147 96.3721 43.5288 96.8614C43.6429 97.3507 43.6081 97.8731 43.429 98.3624C43.2498 98.8518 42.9342 99.2862 42.5221 99.6108C42.1101 99.9353 41.62 100.135 41.114 100.186C40.6079 100.236 40.1086 100.134 39.6791 99.8933C39.1032 99.5703 38.6936 99.0202 38.5406 98.3641C38.3876 97.708 38.5037 96.9996 38.8632 96.3947Z" fill="#483D8B"/>
</g>
</g>
<g style="mix-blend-mode:multiply">
<g style="mix-blend-mode:multiply">
<path d="M31.1024 92.0256C31.3705 91.5745 31.76 91.205 32.2215 90.9638C32.6831 90.7226 33.196 90.6206 33.6954 90.6705C34.1948 90.7205 34.6582 90.9202 35.0272 91.2445C35.3961 91.5688 35.6539 92.003 35.768 92.4923C35.8821 92.9816 35.8474 93.5039 35.6682 93.9933C35.489 94.4827 35.1735 94.9171 34.7614 95.2416C34.3493 95.5662 33.8593 95.7662 33.3532 95.8165C32.8471 95.8668 32.3478 95.7651 31.9183 95.5242C31.3424 95.2011 30.9329 94.651 30.7798 93.9949C30.6268 93.3388 30.7429 92.6304 31.1024 92.0256Z" fill="#483D8B"/>
</g>
</g>
<g style="mix-blend-mode:multiply">
<g style="mix-blend-mode:multiply">
<path d="M23.3419 87.6544C23.6101 87.2034 23.9995 86.8339 24.4611 86.5927C24.9226 86.3515 25.4355 86.2494 25.9349 86.2993C26.4343 86.3493 26.8978 86.549 27.2667 86.8733C27.6356 87.1976 27.8934 87.6318 28.0075 88.1211C28.1216 88.6104 28.0869 89.1328 27.9077 89.6222C27.7285 90.1116 27.413 90.546 27.0009 90.8705C26.5888 91.1951 26.0988 91.3951 25.5927 91.4454C25.0867 91.4957 24.5873 91.3939 24.1578 91.153C23.872 90.9937 23.6242 90.7766 23.4284 90.5143C23.2326 90.252 23.0928 89.9496 23.017 89.6245C22.9411 89.2994 22.9308 88.958 22.9866 88.6199C23.0424 88.2818 23.1631 87.9537 23.3419 87.6544Z" fill="#483D8B"/>
</g>
</g>
<g style="mix-blend-mode:multiply">
<g style="mix-blend-mode:multiply">
<path d="M15.5817 83.2872C15.8499 82.8359 16.2397 82.4663 16.7015 82.2251C17.1633 81.9839 17.6765 81.882 18.1761 81.9323C18.6757 81.9826 19.1392 82.1828 19.508 82.5076C19.8769 82.8323 20.1343 83.2671 20.2479 83.7568C20.3615 84.2465 20.3261 84.7692 20.1461 85.2586C19.9662 85.748 19.6498 86.1822 19.237 86.5062C18.8242 86.8302 18.3336 87.0295 17.8272 87.0787C17.3209 87.128 16.8216 87.0251 16.3925 86.783C16.1076 86.6232 15.8605 86.4059 15.6655 86.1436C15.4705 85.8813 15.3314 85.5792 15.256 85.2544C15.1807 84.9297 15.1707 84.5888 15.2266 84.2512C15.2825 83.9137 15.4031 83.5861 15.5817 83.2872Z" fill="#483D8B"/>
</g>
</g>
<g style="mix-blend-mode:multiply">
<g style="mix-blend-mode:multiply">
<path d="M75.6264 104.219C75.8945 103.768 76.2839 103.398 76.7455 103.157C77.207 102.916 77.7199 102.814 78.2193 102.864C78.7187 102.914 79.1821 103.114 79.5511 103.438C79.92 103.762 80.1778 104.196 80.2919 104.686C80.406 105.175 80.3713 105.697 80.1921 106.187C80.0129 106.676 79.6974 107.111 79.2853 107.435C78.8733 107.76 78.3832 107.96 77.8772 108.01C77.3711 108.06 76.8717 107.958 76.4423 107.718C75.8663 107.395 75.4568 106.844 75.3038 106.188C75.1508 105.532 75.2668 104.824 75.6264 104.219Z" fill="#483D8B"/>
</g>
</g>
<g style="mix-blend-mode:multiply">
<g style="mix-blend-mode:multiply">
<path d="M67.8661 99.8498C68.1342 99.3987 68.5237 99.0293 68.9852 98.7881C69.4467 98.5469 69.9596 98.4448 70.459 98.4947C70.9584 98.5447 71.4219 98.7445 71.7908 99.0687C72.1597 99.393 72.4176 99.8272 72.5317 100.317C72.6458 100.806 72.611 101.328 72.4319 101.818C72.2527 102.307 71.9371 102.741 71.5251 103.066C71.113 103.39 70.623 103.59 70.1169 103.641C69.6108 103.691 69.1115 103.589 68.682 103.348C68.1061 103.025 67.6966 102.475 67.5436 101.819C67.3906 101.163 67.5066 100.455 67.8661 99.8498Z" fill="#483D8B"/>
</g>
</g>
<g style="mix-blend-mode:multiply">
<g style="mix-blend-mode:multiply">
<path d="M60.1054 95.4808C60.3735 95.0298 60.7629 94.6603 61.2245 94.4191C61.686 94.1779 62.1989 94.0758 62.6983 94.1258C63.1977 94.1757 63.6612 94.3755 64.0301 94.6997C64.399 95.024 64.6568 95.4582 64.7709 95.9475C64.885 96.4367 64.8503 96.9591 64.6711 97.4485C64.492 97.9378 64.1764 98.3722 63.7643 98.6968C63.3522 99.0213 62.8622 99.2213 62.3561 99.2716C61.8501 99.3219 61.3508 99.2202 60.9213 98.9793C60.3454 98.6562 59.9359 98.1062 59.7828 97.4501C59.6298 96.794 59.7458 96.0856 60.1054 95.4808Z" fill="#483D8B"/>
</g>
</g>
<g style="mix-blend-mode:multiply">
<g style="mix-blend-mode:multiply">
<path d="M52.3297 91.1038C52.5979 90.6528 52.9873 90.2833 53.4488 90.0421C53.9104 89.8009 54.4233 89.6989 54.9227 89.7488C55.4221 89.7988 55.8855 89.9985 56.2545 90.3228C56.6234 90.647 56.8812 91.0812 56.9953 91.5705C57.1094 92.0598 57.0747 92.5821 56.8955 93.0715C56.7163 93.5609 56.4007 93.9953 55.9887 94.3198C55.5766 94.6443 55.0866 94.8444 54.5805 94.8947C54.0745 94.9449 53.5751 94.8432 53.1456 94.6023C52.5697 94.2793 52.1602 93.7292 52.0072 93.0731C51.8542 92.417 51.9702 91.7087 52.3297 91.1038Z" fill="#483D8B"/>
</g>
</g>
<g style="mix-blend-mode:multiply">
<g style="mix-blend-mode:multiply">
<path d="M44.5792 86.7385C44.8473 86.2875 45.2368 85.918 45.6983 85.6768C46.1599 85.4356 46.6728 85.3335 47.1722 85.3835C47.6716 85.4334 48.135 85.6332 48.504 85.9575C48.8729 86.2817 49.1307 86.7159 49.2448 87.2052C49.3589 87.6945 49.3242 88.2169 49.145 88.7062C48.9658 89.1956 48.6502 89.63 48.2382 89.9545C47.8261 90.2791 47.3361 90.4791 46.83 90.5294C46.324 90.5797 45.8246 90.478 45.3951 90.2371C44.8192 89.914 44.4097 89.3639 44.2567 88.7078C44.1037 88.0517 44.2197 87.3434 44.5792 86.7385Z" fill="#483D8B"/>
</g>
</g>
<g style="mix-blend-mode:multiply">
<g style="mix-blend-mode:multiply">
<path d="M36.8185 82.3695C37.0866 81.9184 37.476 81.5489 37.9376 81.3078C38.3991 81.0666 38.912 80.9645 39.4114 81.0145C39.9108 81.0644 40.3743 81.2641 40.7432 81.5884C41.1121 81.9127 41.37 82.3469 41.4841 82.8362C41.5982 83.3254 41.5634 83.8478 41.3843 84.3371C41.2051 84.8265 40.8895 85.2609 40.4775 85.5854C40.0654 85.91 39.5753 86.11 39.0693 86.1603C38.5632 86.2106 38.0639 86.1088 37.6344 85.8679C37.0585 85.5449 36.6489 84.9948 36.4959 84.3387C36.3429 83.6826 36.4589 82.9743 36.8185 82.3695Z" fill="#483D8B"/>
</g>
</g>
<g style="mix-blend-mode:multiply">
<g style="mix-blend-mode:multiply">
<path d="M29.058 78.0003C29.3261 77.5493 29.7156 77.1798 30.1771 76.9386C30.6387 76.6974 31.1515 76.5953 31.6509 76.6453C32.1503 76.6952 32.6138 76.895 32.9827 77.2193C33.3517 77.5435 33.6095 77.9777 33.7236 78.467C33.8377 78.9563 33.8029 79.4786 33.6238 79.968C33.4446 80.4574 33.129 80.8918 32.717 81.2163C32.3049 81.5408 31.8149 81.7409 31.3088 81.7912C30.8027 81.8414 30.3034 81.7397 29.8739 81.4988C29.298 81.1758 28.8885 80.6257 28.7355 79.9696C28.5824 79.3135 28.6985 78.6051 29.058 78.0003Z" fill="#483D8B"/>
</g>
</g>
<g style="mix-blend-mode:multiply">
<g style="mix-blend-mode:multiply">
<path d="M21.2978 73.6331C21.566 73.1819 21.9557 72.8123 22.4176 72.5711C22.8794 72.3299 23.3926 72.228 23.8922 72.2783C24.3918 72.3285 24.8553 72.5287 25.2241 72.8535C25.5929 73.1783 25.8504 73.613 25.964 74.1027C26.0776 74.5924 26.0422 75.115 25.8622 75.6044C25.6822 76.0938 25.3658 76.528 24.953 76.852C24.5403 77.176 24.0497 77.3752 23.5433 77.4245C23.037 77.4737 22.5377 77.3708 22.1086 77.1288C21.5344 76.8048 21.1265 76.2549 20.9745 75.5995C20.8225 74.9442 20.9388 74.237 21.2978 73.6331Z" fill="#483D8B"/>
</g>
</g>
<g style="mix-blend-mode:multiply">
<g style="mix-blend-mode:multiply">
<path d="M13.5526 69.2717C13.8207 68.8206 14.2101 68.4511 14.6717 68.2099C15.1332 67.9687 15.6461 67.8667 16.1455 67.9166C16.6449 67.9666 17.1084 68.1663 17.4773 68.4906C17.8462 68.8149 18.1041 69.2491 18.2182 69.7384C18.3323 70.2277 18.2976 70.7501 18.1184 71.2394C17.9392 71.7288 17.6236 72.1632 17.2116 72.4877C16.7995 72.8123 16.3095 73.0123 15.8034 73.0626C15.2973 73.1129 14.798 73.0111 14.3685 72.7702C13.7926 72.4472 13.3831 71.8971 13.23 71.241C13.077 70.5849 13.193 69.8765 13.5526 69.2717Z" fill="#483D8B"/>
</g>
</g>
<g style="mix-blend-mode:multiply">
<g style="mix-blend-mode:multiply">
<path d="M89.111 98.9299C89.3791 98.4789 89.7685 98.1094 90.2301 97.8682C90.6916 97.627 91.2045 97.5249 91.7039 97.5749C92.2033 97.6248 92.6668 97.8246 93.0357 98.1489C93.4046 98.4731 93.6624 98.9073 93.7765 99.3966C93.8906 99.8859 93.8559 100.408 93.6767 100.898C93.4976 101.387 93.182 101.821 92.7699 102.146C92.3579 102.47 91.8678 102.671 91.3618 102.721C90.8557 102.771 90.3563 102.669 89.9269 102.428C89.3509 102.105 88.9415 101.555 88.7885 100.899C88.6354 100.243 88.7514 99.5348 89.111 98.9299Z" fill="#483D8B"/>
</g>
</g>
<g style="mix-blend-mode:multiply">
<g style="mix-blend-mode:multiply">
<path d="M81.3453 94.5588C81.6135 94.1077 82.0029 93.7382 82.4644 93.497C82.926 93.2558 83.4389 93.1538 83.9383 93.2037C84.4377 93.2537 84.9011 93.4534 85.27 93.7777C85.639 94.102 85.8968 94.5362 86.0109 95.0255C86.125 95.5148 86.0903 96.0371 85.9111 96.5265C85.7319 97.0159 85.4164 97.4503 85.0043 97.7749C84.5923 98.0994 84.1022 98.2994 83.5962 98.3497C83.0901 98.4 82.5907 98.2983 82.1613 98.0574C81.5853 97.7343 81.1758 97.1842 81.0228 96.5281C80.8698 95.872 80.9858 95.1636 81.3453 94.5588Z" fill="#483D8B"/>
</g>
</g>
<g style="mix-blend-mode:multiply">
<g style="mix-blend-mode:multiply">
<path d="M73.5851 90.1916C73.8532 89.7405 74.2426 89.3711 74.7042 89.1299C75.1657 88.8887 75.6786 88.7866 76.178 88.8365C76.6774 88.8865 77.1409 89.0863 77.5098 89.4105C77.8787 89.7348 78.1366 90.169 78.2507 90.6583C78.3648 91.1476 78.33 91.6699 78.1509 92.1593C77.9717 92.6487 77.6561 93.0831 77.2441 93.4077C76.832 93.7322 76.342 93.9322 75.8359 93.9825C75.3298 94.0328 74.8305 93.9311 74.401 93.6902C73.8251 93.3671 73.4156 92.817 73.2626 92.1609C73.1095 91.5048 73.2256 90.7964 73.5851 90.1916Z" fill="#483D8B"/>
</g>
</g>
<g style="mix-blend-mode:multiply">
<g style="mix-blend-mode:multiply">
<path d="M65.8244 85.8207C66.0925 85.3697 66.482 85.0002 66.9435 84.759C67.405 84.5178 67.918 84.4157 68.4173 84.4657C68.9167 84.5156 69.3802 84.7154 69.7491 85.0396C70.118 85.3639 70.3758 85.7981 70.4899 86.2874C70.604 86.7766 70.5693 87.299 70.3901 87.7883C70.211 88.2777 69.8954 88.7121 69.4833 89.0366C69.0712 89.3611 68.5812 89.5612 68.0751 89.6115C67.5691 89.6618 67.0698 89.56 66.6403 89.3191C66.0644 88.9961 65.6549 88.446 65.5019 87.79C65.3488 87.1339 65.4649 86.4255 65.8244 85.8207Z" fill="#483D8B"/>
</g>
</g>
<g style="mix-blend-mode:multiply">
<g style="mix-blend-mode:multiply">
<path d="M58.0487 81.4436C58.3168 80.9926 58.7063 80.6231 59.1678 80.3819C59.6294 80.1407 60.1423 80.0386 60.6416 80.0886C61.141 80.1385 61.6045 80.3383 61.9734 80.6625C62.3424 80.9868 62.6002 81.421 62.7143 81.9103C62.8284 82.3996 62.7937 82.9219 62.6145 83.4113C62.4353 83.9007 62.1197 84.3351 61.7077 84.6596C61.2956 84.9841 60.8056 85.1842 60.2995 85.2345C59.7934 85.2848 59.2941 85.183 58.8646 84.9421C58.2887 84.6191 57.8792 84.069 57.7262 83.4129C57.5732 82.7568 57.6892 82.0484 58.0487 81.4436Z" fill="#483D8B"/>
</g>
</g>
<g style="mix-blend-mode:multiply">
<g style="mix-blend-mode:multiply">
<path d="M50.2983 77.0804C50.5664 76.6294 50.9558 76.2599 51.4174 76.0187C51.8789 75.7775 52.3918 75.6754 52.8912 75.7254C53.3906 75.7753 53.854 75.9751 54.223 76.2993C54.5919 76.6236 54.8497 77.0578 54.9638 77.5471C55.0779 78.0363 55.0432 78.5587 54.864 79.0481C54.6848 79.5374 54.3692 79.9718 53.9572 80.2964C53.5451 80.6209 53.0551 80.8209 52.549 80.8712C52.043 80.9215 51.5436 80.8198 51.1142 80.5789C50.5382 80.2559 50.1287 79.7058 49.9757 79.0497C49.8227 78.3936 49.9387 77.6852 50.2983 77.0804Z" fill="#483D8B"/>
</g>
</g>
<g style="mix-blend-mode:multiply">
<g style="mix-blend-mode:multiply">
<path d="M42.5377 72.7112C42.8058 72.2601 43.1952 71.8907 43.6568 71.6495C44.1183 71.4083 44.6313 71.3062 45.1307 71.3562C45.6301 71.4061 46.0935 71.6059 46.4624 71.9301C46.8314 72.2544 47.0892 72.6886 47.2033 73.1779C47.3174 73.6672 47.2827 74.1895 47.1035 74.6789C46.9243 75.1683 46.6088 75.6027 46.1967 75.9272C45.7846 76.2517 45.2946 76.4518 44.7885 76.5021C44.2824 76.5523 43.7831 76.4506 43.3536 76.2097C42.7777 75.8867 42.3682 75.3366 42.2152 74.6805C42.0621 74.0244 42.1781 73.316 42.5377 72.7112Z" fill="#483D8B"/>
</g>
</g>
<g style="mix-blend-mode:multiply">
<g style="mix-blend-mode:multiply">
<path d="M34.7772 68.3419C35.0453 67.8908 35.4348 67.5214 35.8963 67.2802C36.3578 67.039 36.8707 66.9369 37.3701 66.9868C37.8695 67.0368 38.333 67.2366 38.7019 67.5608C39.0709 67.8851 39.3287 68.3193 39.4428 68.8086C39.5569 69.2979 39.5222 69.8203 39.343 70.3097C39.1638 70.7991 38.8483 71.2335 38.4362 71.558C38.0241 71.8826 37.5341 72.0826 37.028 72.1329C36.522 72.1832 36.0226 72.0814 35.5931 71.8405C35.0172 71.5175 34.6077 70.9674 34.4547 70.3113C34.3016 69.6551 34.4177 68.9467 34.7772 68.3419Z" fill="#483D8B"/>
</g>
</g>
<g style="mix-blend-mode:multiply">
<g style="mix-blend-mode:multiply">
<path d="M27.0167 63.9729C27.285 63.5216 27.6747 63.152 28.1365 62.9108C28.5984 62.6697 29.1116 62.5677 29.6112 62.618C30.1108 62.6683 30.5743 62.8685 30.9431 63.1933C31.3119 63.518 31.5694 63.9528 31.683 64.4425C31.7965 64.9322 31.7611 65.4548 31.5812 65.9442C31.4012 66.4336 31.0848 66.8678 30.672 67.1918C30.2593 67.5158 29.7686 67.715 29.2623 67.7643C28.756 67.8136 28.2566 67.7107 27.8276 67.4686C27.2534 67.1446 26.8455 66.5947 26.6935 65.9393C26.5415 65.284 26.6578 64.5768 27.0167 63.9729Z" fill="#483D8B"/>
</g>
</g>
<g style="mix-blend-mode:multiply">
<g style="mix-blend-mode:multiply">
<path d="M19.2718 59.6136C19.5399 59.1625 19.9294 58.7931 20.3909 58.5519C20.8525 58.3107 21.3654 58.2086 21.8648 58.2586C22.3642 58.3085 22.8276 58.5083 23.1966 58.8325C23.5655 59.1568 23.8233 59.591 23.9374 60.0803C24.0515 60.5696 24.0168 61.0919 23.8376 61.5813C23.6585 62.0707 23.3429 62.5051 22.9308 62.8296C22.5187 63.1541 22.0287 63.3541 21.5226 63.4044C21.0166 63.4547 20.5172 63.353 20.0878 63.1121C19.5118 62.789 19.1023 62.239 18.9493 61.5829C18.7963 60.9268 18.9123 60.2184 19.2718 59.6136Z" fill="#483D8B"/>
</g>
</g>
<g style="mix-blend-mode:multiply">
<g style="mix-blend-mode:multiply">
<path d="M11.4906 55.2327C11.7587 54.7817 12.1482 54.4122 12.6097 54.171C13.0713 53.9298 13.5842 53.8277 14.0836 53.8777C14.583 53.9277 15.0464 54.1274 15.4153 54.4517C15.7843 54.7759 16.0421 55.2101 16.1562 55.6994C16.2703 56.1887 16.2356 56.711 16.0564 57.2004C15.8772 57.6898 15.5616 58.1242 15.1496 58.4487C14.7375 58.7732 14.2475 58.9733 13.7414 59.0236C13.2353 59.0739 12.736 58.9721 12.3065 58.7312C11.7306 58.4082 11.3211 57.8581 11.1681 57.202C11.0151 56.5459 11.1311 55.8376 11.4906 55.2327Z" fill="#483D8B"/>
</g>
</g>
<g style="mix-blend-mode:multiply">
<g style="mix-blend-mode:multiply">
<path d="M98.3551 88.2014C97.1559 87.5287 95.5767 88.0044 94.828 89.2639C94.0793 90.5234 94.4446 92.0898 95.6439 92.7625C96.8432 93.4351 98.4224 92.9594 99.171 91.6999C99.9197 90.4404 99.5544 88.8741 98.3551 88.2014Z" fill="#483D8B"/>
</g>
</g>
<g style="mix-blend-mode:multiply">
<g style="mix-blend-mode:multiply">
<path d="M90.5949 83.8322C89.3956 83.1595 87.8164 83.6352 87.0678 84.8947C86.3191 86.1542 86.6844 87.7206 87.8837 88.3933C89.083 89.066 90.6621 88.5903 91.4108 87.3308C92.1595 86.0713 91.7942 84.5049 90.5949 83.8322Z" fill="#483D8B"/>
</g>
</g>
<g style="mix-blend-mode:multiply">
<g style="mix-blend-mode:multiply">
<path d="M79.3043 80.5314C79.5724 80.0803 79.9619 79.7108 80.4234 79.4696C80.8849 79.2284 81.3978 79.1263 81.8972 79.1763C82.3966 79.2263 82.8601 79.426 83.229 79.7503C83.598 80.0746 83.8558 80.5088 83.9699 80.9981C84.084 81.4874 84.0493 82.0098 83.8701 82.4991C83.6909 82.9885 83.3754 83.423 82.9633 83.7475C82.5512 84.072 82.0612 84.2721 81.5551 84.3224C81.0491 84.3726 80.5497 84.2709 80.1202 84.03C79.5443 83.7069 79.1348 83.1568 78.9818 82.5007C78.8288 81.8446 78.9448 81.1362 79.3043 80.5314Z" fill="#483D8B"/>
</g>
</g>
<g style="mix-blend-mode:multiply">
<g style="mix-blend-mode:multiply">
<path d="M71.5436 76.1624C71.8117 75.7114 72.2012 75.3419 72.6627 75.1007C73.1243 74.8595 73.6372 74.7575 74.1366 74.8074C74.636 74.8574 75.0994 75.0571 75.4683 75.3814C75.8372 75.7056 76.0951 76.1398 76.2092 76.6291C76.3233 77.1184 76.2885 77.6407 76.1094 78.1301C75.9302 78.6195 75.6146 79.0539 75.2025 79.3784C74.7905 79.7029 74.3004 79.903 73.7944 79.9533C73.2883 80.0035 72.789 79.9018 72.3595 79.6609C71.7836 79.3379 71.3741 78.7878 71.2211 78.1317C71.0681 77.4756 71.1841 76.7673 71.5436 76.1624Z" fill="#483D8B"/>
</g>
</g>
<g style="mix-blend-mode:multiply">
<g style="mix-blend-mode:multiply">
<path d="M63.768 71.7834C64.0361 71.3324 64.4255 70.9629 64.8871 70.7217C65.3486 70.4805 65.8615 70.3784 66.3609 70.4284C66.8603 70.4784 67.3238 70.6781 67.6927 71.0024C68.0616 71.3266 68.3194 71.7609 68.4335 72.2501C68.5476 72.7394 68.5129 73.2618 68.3337 73.7512C68.1546 74.2405 67.839 74.6749 67.4269 74.9995C67.0148 75.324 66.5248 75.524 66.0187 75.5743C65.5127 75.6246 65.0134 75.5229 64.5839 75.282C64.008 74.959 63.5984 74.4089 63.4454 73.7528C63.2924 73.0967 63.4084 72.3883 63.768 71.7834Z" fill="#483D8B"/>
</g>
</g>
<g style="mix-blend-mode:multiply">
<g style="mix-blend-mode:multiply">
<path d="M56.0175 67.4221C56.2856 66.971 56.675 66.6015 57.1366 66.3603C57.5981 66.1191 58.111 66.017 58.6104 66.067C59.1098 66.117 59.5732 66.3167 59.9422 66.641C60.3111 66.9653 60.5689 67.3995 60.683 67.8888C60.7971 68.378 60.7624 68.9004 60.5832 69.3898C60.4041 69.8792 60.0885 70.3136 59.6764 70.6381C59.2644 70.9626 58.7743 71.1627 58.2682 71.213C57.7622 71.2633 57.2629 71.1615 56.8334 70.9206C56.2575 70.5976 55.8479 70.0475 55.6949 69.3914C55.5419 68.7353 55.6579 68.0269 56.0175 67.4221Z" fill="#483D8B"/>
</g>
</g>
<g style="mix-blend-mode:multiply">
<g style="mix-blend-mode:multiply">
<path d="M51.7873 61.9827C50.588 61.3101 49.0088 61.7857 48.2601 63.0452C47.5114 64.3047 47.8767 65.871 49.076 66.5437C50.2753 67.2164 51.8545 66.7407 52.6032 65.4812C53.3519 64.2218 52.9866 62.6554 51.7873 61.9827Z" fill="#483D8B"/>
</g>
</g>
<g style="mix-blend-mode:multiply">
<g style="mix-blend-mode:multiply">
<path d="M44.0217 57.6116C42.8224 56.9389 41.2432 57.4146 40.4945 58.6741C39.7458 59.9336 40.1111 61.4999 41.3104 62.1726C42.5097 62.8453 44.0889 62.3696 44.8375 61.1101C45.5862 59.8506 45.2209 58.2843 44.0217 57.6116Z" fill="#483D8B"/>
</g>
</g>
<g style="mix-blend-mode:multiply">
<g style="mix-blend-mode:multiply">
<path d="M32.736 54.3148C33.0043 53.8636 33.394 53.494 33.8558 53.2528C34.3177 53.0116 34.8309 52.9097 35.3304 52.96C35.83 53.0103 36.2935 53.2104 36.6623 53.5352C37.0311 53.86 37.2886 54.2947 37.4022 54.7844C37.5158 55.2741 37.4804 55.7967 37.3004 56.2861C37.1205 56.7755 36.8041 57.2096 36.3913 57.5336C35.9785 57.8576 35.4879 58.0569 34.9815 58.1061C34.4752 58.1554 33.9759 58.0525 33.5468 57.8104C32.9726 57.4865 32.5648 56.9365 32.4128 56.2812C32.2608 55.6259 32.377 54.9187 32.736 54.3148Z" fill="#483D8B"/>
</g>
</g>
<g style="mix-blend-mode:multiply">
<g style="mix-blend-mode:multiply">
<path d="M24.9908 49.9552C25.2589 49.5042 25.6484 49.1347 26.1099 48.8935C26.5714 48.6523 27.0843 48.5502 27.5837 48.6002C28.0831 48.6502 28.5466 48.8499 28.9155 49.1742C29.2845 49.4985 29.5423 49.9327 29.6564 50.422C29.7705 50.9113 29.7358 51.4336 29.5566 51.923C29.3775 52.4124 29.0619 52.8468 28.6498 53.1713C28.2377 53.4959 27.7477 53.6959 27.2416 53.7462C26.7356 53.7965 26.2362 53.6947 25.8067 53.4538C25.2308 53.1308 24.8213 52.5807 24.6683 51.9246C24.5153 51.2685 24.6313 50.5601 24.9908 49.9552Z" fill="#483D8B"/>
</g>
</g>
<g style="mix-blend-mode:multiply">
<g style="mix-blend-mode:multiply">
<path d="M17.2099 45.5725C17.478 45.1215 17.8674 44.752 18.329 44.5108C18.7905 44.2696 19.3034 44.1675 19.8028 44.2175C20.3022 44.2674 20.7656 44.4672 21.1346 44.7914C21.5035 45.1157 21.7613 45.5499 21.8754 46.0392C21.9895 46.5285 21.9548 47.0509 21.7756 47.5402C21.5965 48.0296 21.2809 48.464 20.8688 48.7885C20.4567 49.1131 19.9667 49.3131 19.4606 49.3634C18.9546 49.4137 18.4552 49.312 18.0258 49.0711C17.4498 48.748 17.0403 48.1979 16.8873 47.5418C16.7343 46.8857 16.8503 46.1773 17.2099 45.5725Z" fill="#483D8B"/>
</g>
</g>
<g style="mix-blend-mode:multiply">
<g style="mix-blend-mode:multiply">
<path d="M104.075 78.5413C102.875 77.8686 101.296 78.3443 100.548 79.6038C99.7988 80.8633 100.164 82.4296 101.363 83.1023C102.563 83.775 104.142 83.2993 104.891 82.0398C105.639 80.7803 105.274 79.2139 104.075 78.5413Z" fill="#483D8B"/>
</g>
</g>
<g style="mix-blend-mode:multiply">
<g style="mix-blend-mode:multiply">
<path d="M96.3144 74.172C95.1151 73.4993 93.5359 73.975 92.7872 75.2346C92.0385 76.4941 92.4038 78.0604 93.6031 78.7331C94.8024 79.4058 96.3816 78.9301 97.1303 77.6706C97.879 76.4111 97.5137 74.8447 96.3144 74.172Z" fill="#483D8B"/>
</g>
</g>
<g style="mix-blend-mode:multiply">
<g style="mix-blend-mode:multiply">
<path d="M85.024 70.8707C85.2913 70.4188 85.6802 70.0483 86.1415 69.8061C86.6029 69.5639 87.1159 69.4608 87.6157 69.5098C88.1155 69.5589 88.5796 69.758 88.9492 70.0819C89.3188 70.4057 89.5774 70.8398 89.6921 71.3292C89.8068 71.8186 89.7726 72.3412 89.5938 72.831C89.4149 73.3207 89.0995 73.7556 88.6874 74.0805C88.2753 74.4054 87.7851 74.6058 87.2788 74.6563C86.7725 74.7067 86.2728 74.605 85.8431 74.364C85.2681 74.0414 84.8589 73.4925 84.7053 72.8376C84.5518 72.1827 84.6664 71.4754 85.024 70.8707Z" fill="#483D8B"/>
</g>
</g>
<g style="mix-blend-mode:multiply">
<g style="mix-blend-mode:multiply">
<path d="M77.2633 66.5017C77.5306 66.0499 77.9195 65.6794 78.3808 65.4372C78.8422 65.195 79.3552 65.0919 79.855 65.141C80.3548 65.19 80.8189 65.3891 81.1885 65.7129C81.5581 66.0368 81.8166 66.4709 81.9314 66.9602C82.0461 67.4495 82.0119 67.9722 81.8331 68.4619C81.6542 68.9517 81.3388 69.3865 80.9267 69.7114C80.5146 70.0363 80.0243 70.2367 79.518 70.2872C79.0117 70.3376 78.5121 70.2359 78.0824 69.9949C77.5074 69.6724 77.0982 69.1235 76.9446 68.4686C76.7911 67.8138 76.9057 67.1064 77.2633 66.5017Z" fill="#483D8B"/>
</g>
</g>
<g style="mix-blend-mode:multiply">
<g style="mix-blend-mode:multiply">
<path d="M69.4877 62.1247C69.7549 61.6729 70.1438 61.3024 70.6052 61.0602C71.0665 60.8179 71.5796 60.7148 72.0794 60.7639C72.5792 60.813 73.0432 61.0121 73.4129 61.3359C73.7825 61.6598 74.041 62.0939 74.1558 62.5832C74.2705 63.0726 74.2363 63.5952 74.0574 64.0849C73.8786 64.5747 73.5632 65.0095 73.1511 65.3345C72.739 65.6594 72.2487 65.8597 71.7424 65.9102C71.2361 65.9607 70.7365 65.859 70.3068 65.6179C70.0214 65.4588 69.7738 65.2422 69.5782 64.9804C69.3825 64.7186 69.2427 64.4168 69.1666 64.0923C69.0905 63.7679 69.0797 63.427 69.1348 63.0894C69.1899 62.7518 69.3098 62.424 69.4877 62.1247Z" fill="#483D8B"/>
</g>
</g>
<g style="mix-blend-mode:multiply">
<g style="mix-blend-mode:multiply">
<path d="M61.7372 57.7613C62.0044 57.3095 62.3933 56.939 62.8547 56.6967C63.316 56.4545 63.8291 56.3514 64.3289 56.4005C64.8286 56.4496 65.2927 56.6486 65.6623 56.9725C66.0319 57.2964 66.2905 57.7305 66.4052 58.2198C66.52 58.7092 66.4858 59.2318 66.3069 59.7216C66.1281 60.2114 65.8127 60.6462 65.4006 60.9711C64.9885 61.2961 64.4982 61.4964 63.9919 61.5469C63.4856 61.5974 62.986 61.4956 62.5563 61.2546C61.9812 60.9321 61.572 60.3831 61.4185 59.7282C61.2649 59.0734 61.3795 58.366 61.7372 57.7613Z" fill="#483D8B"/>
</g>
</g>
<g style="mix-blend-mode:multiply">
<g style="mix-blend-mode:multiply">
<path d="M57.5067 52.3245C56.3074 51.6519 54.7283 52.1275 53.9796 53.387C53.2309 54.6465 53.5962 56.2128 54.7955 56.8855C55.9948 57.5582 57.574 57.0825 58.3227 55.823C59.0713 54.5635 58.706 52.9972 57.5067 52.3245Z" fill="#483D8B"/>
</g>
</g>
<g style="mix-blend-mode:multiply">
<g style="mix-blend-mode:multiply">
<path d="M49.7411 47.9533C48.5418 47.2806 46.9627 47.7563 46.214 49.0158C45.4653 50.2753 45.8306 51.8417 47.0299 52.5144C48.2292 53.1871 49.8083 52.7114 50.557 51.4519C51.3057 50.1924 50.9404 48.626 49.7411 47.9533Z" fill="#483D8B"/>
</g>
</g>
<g style="mix-blend-mode:multiply">
<g style="mix-blend-mode:multiply">
<path d="M38.4555 44.6539C38.7228 44.2019 39.112 43.8313 39.5736 43.589C40.0353 43.3468 40.5486 43.2439 41.0486 43.2933C41.5486 43.3427 42.0128 43.5422 42.3823 43.8666C42.7518 44.191 43.01 44.6256 43.1242 45.1153C43.2384 45.6051 43.2035 46.128 43.0239 46.6178C42.8442 47.1076 42.528 47.5422 42.1151 47.8666C41.7023 48.191 41.2115 48.3906 40.7049 48.44C40.1983 48.4894 39.6988 48.3866 39.2695 48.1444C38.6949 47.8221 38.2863 47.2733 38.1337 46.6187C37.981 45.9641 38.0968 45.2574 38.4555 44.6539Z" fill="#483D8B"/>
</g>
</g>
<g style="mix-blend-mode:multiply">
<g style="mix-blend-mode:multiply">
<path d="M30.7105 40.2927C30.9778 39.8409 31.3667 39.4704 31.828 39.2281C32.2894 38.9859 32.8024 38.8828 33.3022 38.9319C33.802 38.981 34.2661 39.18 34.6357 39.5039C35.0054 39.8278 35.2639 40.2618 35.3786 40.7512C35.4934 41.2405 35.4592 41.7632 35.2803 42.2529C35.1015 42.7427 34.7861 43.1775 34.374 43.5024C33.9619 43.8273 33.4716 44.0277 32.9653 44.0782C32.459 44.1286 31.9594 44.0269 31.5297 43.7859C30.9546 43.4634 30.5454 42.9144 30.3919 42.2596C30.2383 41.6047 30.3529 40.8973 30.7105 40.2927Z" fill="#483D8B"/>
</g>
</g>
<g style="mix-blend-mode:multiply">
<g style="mix-blend-mode:multiply">
<path d="M22.9294 35.9137C23.197 35.4611 23.5867 35.0902 24.0489 34.848C24.5111 34.6058 25.0251 34.5033 25.5255 34.5533C26.0259 34.6034 26.4902 34.8039 26.8594 35.1293C27.2287 35.4546 27.4862 35.8903 27.5994 36.3809C27.7126 36.8715 27.6763 37.395 27.4951 37.8848C27.3139 38.3747 26.996 38.8088 26.5817 39.1321C26.1674 39.4554 25.6755 39.6534 25.1684 39.7008C24.6612 39.7482 24.1617 39.6429 23.7332 39.3984C23.1633 39.0731 22.7591 38.5245 22.6086 37.8719C22.4581 37.2193 22.5733 36.5156 22.9294 35.9137Z" fill="#483D8B"/>
</g>
</g>
<g style="mix-blend-mode:multiply">
<g style="mix-blend-mode:multiply">
<path d="M18.6942 30.4728C17.4949 29.8001 15.9158 30.2758 15.1671 31.5353C14.4184 32.7948 14.7837 34.3612 15.983 35.0339C17.1823 35.7066 18.7615 35.2309 19.5102 33.9714C20.2588 32.7119 19.8935 31.1455 18.6942 30.4728Z" fill="#483D8B"/>
</g>
</g>
<g style="mix-blend-mode:multiply">
<g style="mix-blend-mode:multiply">
<path d="M102.034 64.5119C100.834 63.8392 99.2552 64.3149 98.5065 65.5744C97.7578 66.8339 98.1231 68.4003 99.3224 69.073C100.522 69.7457 102.101 69.27 102.85 68.0105C103.598 66.751 103.233 65.1846 102.034 64.5119Z" fill="#483D8B"/>
</g>
</g>
<g style="mix-blend-mode:multiply">
<g style="mix-blend-mode:multiply">
<path d="M90.7462 61.2071C91.0143 60.7561 91.4038 60.3866 91.8653 60.1454C92.3268 59.9042 92.8397 59.8021 93.3391 59.8521C93.8385 59.902 94.302 60.1018 94.6709 60.4261C95.0399 60.7504 95.2977 61.1846 95.4118 61.6739C95.5259 62.1632 95.4912 62.6855 95.312 63.1749C95.1328 63.6643 94.8173 64.0987 94.4052 64.4233C93.9931 64.7478 93.5031 64.9479 92.997 64.9981C92.491 65.0484 91.9916 64.9467 91.5621 64.7058C90.9862 64.3827 90.5767 63.8326 90.4237 63.1765C90.2707 62.5204 90.3867 61.812 90.7462 61.2071Z" fill="#483D8B"/>
</g>
</g>
<g style="mix-blend-mode:multiply">
<g style="mix-blend-mode:multiply">
<path d="M82.9855 56.8381C83.2536 56.3871 83.6431 56.0176 84.1046 55.7764C84.5661 55.5352 85.079 55.4332 85.5784 55.4831C86.0778 55.5331 86.5413 55.7328 86.9102 56.0571C87.2791 56.3813 87.5369 56.8156 87.651 57.3048C87.7651 57.7941 87.7304 58.3165 87.5513 58.8058C87.3721 59.2952 87.0565 59.7296 86.6444 60.0542C86.2324 60.3787 85.7423 60.5787 85.2363 60.629C84.7302 60.6793 84.2309 60.5776 83.8014 60.3367C83.2255 60.0136 82.816 59.4636 82.663 58.8075C82.5099 58.1514 82.626 57.443 82.9855 56.8381Z" fill="#483D8B"/>
</g>
</g>
<g style="mix-blend-mode:multiply">
<g style="mix-blend-mode:multiply">
<path d="M75.2099 52.4593C75.478 52.0083 75.8674 51.6388 76.329 51.3976C76.7905 51.1564 77.3034 51.0543 77.8028 51.1043C78.3022 51.1542 78.7657 51.354 79.1346 51.6782C79.5035 52.0025 79.7613 52.4367 79.8754 52.926C79.9895 53.4153 79.9548 53.9376 79.7756 54.427C79.5965 54.9163 79.2809 55.3507 78.8688 55.6753C78.4567 55.9998 77.9667 56.1998 77.4606 56.2501C76.9546 56.3004 76.4553 56.1987 76.0258 55.9578C75.74 55.7984 75.4921 55.5814 75.2963 55.3191C75.1005 55.0568 74.9607 54.7544 74.8849 54.4293C74.8091 54.1043 74.7988 53.7629 74.8545 53.4248C74.9103 53.0867 75.0311 52.7586 75.2099 52.4593Z" fill="#483D8B"/>
</g>
</g>
<g style="mix-blend-mode:multiply">
<g style="mix-blend-mode:multiply">
<path d="M67.4593 48.0959C67.7275 47.6448 68.1169 47.2753 68.5785 47.0341C69.04 46.793 69.5529 46.6909 70.0523 46.7408C70.5517 46.7908 71.0151 46.9905 71.3841 47.3148C71.753 47.6391 72.0108 48.0733 72.1249 48.5626C72.239 49.0519 72.2043 49.5742 72.0251 50.0636C71.846 50.553 71.5304 50.9874 71.1183 51.3119C70.7062 51.6365 70.2162 51.8365 69.7101 51.8868C69.2041 51.9371 68.7048 51.8354 68.2753 51.5945C67.6993 51.2714 67.2898 50.7213 67.1368 50.0652C66.9838 49.4091 67.0998 48.7007 67.4593 48.0959Z" fill="#483D8B"/>
</g>
</g>
<g style="mix-blend-mode:multiply">
<g style="mix-blend-mode:multiply">
<path d="M63.226 42.6662C62.0266 41.9935 60.4475 42.4692 59.6988 43.7287C58.9501 44.9882 59.3154 46.5546 60.5147 47.2273C61.714 47.9 63.2932 47.4243 64.0419 46.1648C64.7906 44.9053 64.4253 43.3389 63.226 42.6662Z" fill="#483D8B"/>
</g>
</g>
<g style="mix-blend-mode:multiply">
<g style="mix-blend-mode:multiply">
<path d="M55.4604 38.2931C54.2611 37.6204 52.6819 38.0961 51.9332 39.3556C51.1845 40.6152 51.5498 42.1815 52.7491 42.8542C53.9484 43.5269 55.5276 43.0512 56.2763 41.7917C57.0249 40.5322 56.6597 38.9658 55.4604 38.2931Z" fill="#483D8B"/>
</g>
</g>
<g style="mix-blend-mode:multiply">
<g style="mix-blend-mode:multiply">
<path d="M44.1779 34.9904C44.4461 34.5391 44.8358 34.1695 45.2977 33.9283C45.7595 33.6872 46.2727 33.5853 46.7723 33.6355C47.2719 33.6858 47.7354 33.886 48.1042 34.2108C48.473 34.5356 48.7305 34.9703 48.8441 35.46C48.9577 35.9497 48.9223 36.4724 48.7423 36.9618C48.5624 37.4512 48.2459 37.8854 47.8332 38.2094C47.4204 38.5334 46.9298 38.7326 46.4234 38.7819C45.9171 38.8312 45.4178 38.7282 44.9887 38.4861C44.7038 38.3263 44.4567 38.109 44.2617 37.8467C44.0667 37.5845 43.9276 37.2823 43.8522 36.9576C43.7769 36.6329 43.7669 36.292 43.8228 35.9544C43.8786 35.6169 43.9993 35.2893 44.1779 34.9904Z" fill="#483D8B"/>
</g>
</g>
<g style="mix-blend-mode:multiply">
<g style="mix-blend-mode:multiply">
<path d="M36.4327 30.6291C36.7008 30.178 37.0902 29.8085 37.5518 29.5673C38.0133 29.3262 38.5262 29.2241 39.0256 29.274C39.525 29.324 39.9885 29.5237 40.3574 29.848C40.7264 30.1723 40.9842 30.6065 41.0983 31.0958C41.2124 31.5851 41.1777 32.1075 40.9985 32.5968C40.8194 33.0862 40.5038 33.5206 40.0917 33.8452C39.6796 34.1697 39.1896 34.3697 38.6835 34.42C38.1775 34.4703 37.6781 34.3686 37.2486 34.1277C36.6727 33.8046 36.2632 33.2545 36.1102 32.5984C35.9571 31.9423 36.0731 31.2339 36.4327 30.6291Z" fill="#483D8B"/>
</g>
</g>
<g style="mix-blend-mode:multiply">
<g style="mix-blend-mode:multiply">
<path d="M28.6517 26.2482C28.9198 25.7971 29.3093 25.4276 29.7708 25.1864C30.2324 24.9452 30.7452 24.8431 31.2446 24.8931C31.744 24.9431 32.2075 25.1428 32.5764 25.4671C32.9454 25.7914 33.2032 26.2256 33.3173 26.7149C33.4314 27.2042 33.3967 27.7266 33.2175 28.2159C33.0383 28.7053 32.7228 29.1397 32.3107 29.4643C31.8986 29.7888 31.4086 29.9889 30.9025 30.0392C30.3965 30.0894 29.8971 29.9877 29.4676 29.7468C28.8917 29.4237 28.4822 28.8737 28.3292 28.2175C28.1762 27.5614 28.2922 26.853 28.6517 26.2482Z" fill="#483D8B"/>
</g>
</g>
<g style="mix-blend-mode:multiply">
<g style="mix-blend-mode:multiply">
<path d="M24.4135 20.8146C23.2142 20.1419 21.635 20.6176 20.8863 21.8771C20.1377 23.1366 20.503 24.703 21.7023 25.3757C22.9016 26.0484 24.4807 25.5727 25.2294 24.3132C25.9781 23.0537 25.6128 21.4873 24.4135 20.8146Z" fill="#483D8B"/>
</g>
</g>
<g style="mix-blend-mode:multiply">
<g style="mix-blend-mode:multiply">
<path d="M96.4655 51.5471C96.7336 51.096 97.1231 50.7265 97.5846 50.4853C98.0461 50.2441 98.559 50.142 99.0584 50.192C99.5578 50.242 100.021 50.4417 100.39 50.766C100.759 51.0902 101.017 51.5245 101.131 52.0138C101.245 52.5031 101.21 53.0254 101.031 53.5148C100.852 54.0042 100.537 54.4386 100.124 54.7631C99.7124 55.0877 99.2223 55.2877 98.7163 55.338C98.2102 55.3883 97.7108 55.2865 97.2814 55.0456C96.7054 54.7226 96.2959 54.1725 96.1429 53.5164C95.9899 52.8603 96.1059 52.1519 96.4655 51.5471Z" fill="#483D8B"/>
</g>
</g>
<g style="mix-blend-mode:multiply">
<g style="mix-blend-mode:multiply">
<path d="M88.7047 47.1779C88.9728 46.7268 89.3623 46.3573 89.8238 46.1161C90.2854 45.8749 90.7983 45.7728 91.2977 45.8228C91.7971 45.8727 92.2605 46.0725 92.6295 46.3968C92.9984 46.721 93.2562 47.1553 93.3703 47.6446C93.4844 48.1339 93.4497 48.6562 93.2705 49.1456C93.0913 49.635 92.7757 50.0694 92.3637 50.394C91.9516 50.7185 91.4616 50.9186 90.9555 50.9688C90.4494 51.0191 89.9501 50.9174 89.5206 50.6765C88.9447 50.3534 88.5352 49.8034 88.3822 49.1472C88.2292 48.4911 88.3452 47.7827 88.7047 47.1779Z" fill="#483D8B"/>
</g>
</g>
<g style="mix-blend-mode:multiply">
<g style="mix-blend-mode:multiply">
<path d="M80.9291 42.801C81.1972 42.3499 81.5867 41.9804 82.0482 41.7392C82.5098 41.498 83.0226 41.396 83.522 41.4459C84.0214 41.4959 84.4849 41.6956 84.8538 42.0199C85.2228 42.3441 85.4806 42.7784 85.5947 43.2677C85.7088 43.7569 85.6741 44.2793 85.4949 44.7687C85.3157 45.2581 85.0001 45.6925 84.5881 46.017C84.176 46.3416 83.6859 46.5416 83.1799 46.5919C82.6738 46.6422 82.1745 46.5405 81.745 46.2996C81.1691 45.9765 80.7596 45.4264 80.6066 44.7703C80.4535 44.1142 80.5696 43.4058 80.9291 42.801Z" fill="#483D8B"/>
</g>
</g>
<g style="mix-blend-mode:multiply">
<g style="mix-blend-mode:multiply">
<path d="M73.1786 38.4375C73.4467 37.9865 73.8362 37.617 74.2977 37.3758C74.7592 37.1346 75.2721 37.0325 75.7715 37.0825C76.2709 37.1324 76.7344 37.3322 77.1033 37.6565C77.4723 37.9807 77.7301 38.415 77.8442 38.9043C77.9583 39.3936 77.9236 39.916 77.7444 40.4053C77.5652 40.8947 77.2496 41.3292 76.8376 41.6537C76.4255 41.9782 75.9354 42.1783 75.4294 42.2286C74.9233 42.2789 74.424 42.1771 73.9945 41.9362C73.4186 41.6132 73.0091 41.0631 72.856 40.407C72.703 39.7508 72.8191 39.0424 73.1786 38.4375Z" fill="#483D8B"/>
</g>
</g>
<g style="mix-blend-mode:multiply">
<g style="mix-blend-mode:multiply">
<path d="M68.945 33.0059C67.7457 32.3332 66.1665 32.8089 65.4178 34.0685C64.6691 35.328 65.0344 36.8944 66.2337 37.5671C67.433 38.2398 69.0122 37.7641 69.7609 36.5046C70.5096 35.245 70.1443 33.6787 68.945 33.0059Z" fill="#483D8B"/>
</g>
</g>
<g style="mix-blend-mode:multiply">
<g style="mix-blend-mode:multiply">
<path d="M61.1796 28.633C59.9804 27.9603 58.4012 28.436 57.6525 29.6955C56.9038 30.955 57.2691 32.5214 58.4684 33.1941C59.6677 33.8668 61.2468 33.3911 61.9955 32.1315C62.7442 30.872 62.3789 29.3057 61.1796 28.633Z" fill="#483D8B"/>
</g>
</g>
<g style="mix-blend-mode:multiply">
<g style="mix-blend-mode:multiply">
<path d="M49.8971 25.3303C50.1653 24.879 50.5551 24.5094 51.0169 24.2682C51.4787 24.027 51.9919 23.9251 52.4915 23.9754C52.9911 24.0257 53.4546 24.2258 53.8234 24.5506C54.1922 24.8754 54.4497 25.3102 54.5633 25.7999C54.6769 26.2896 54.6415 26.8122 54.4615 27.3016C54.2816 27.791 53.9652 28.2252 53.5524 28.5492C53.1396 28.8732 52.649 29.0725 52.1427 29.1217C51.6363 29.171 51.137 29.0681 50.7079 28.826C50.1337 28.502 49.7259 27.9521 49.5739 27.2967C49.4219 26.6414 49.5381 25.9342 49.8971 25.3303Z" fill="#483D8B"/>
</g>
</g>
<g style="mix-blend-mode:multiply">
<g style="mix-blend-mode:multiply">
<path d="M42.152 20.9709C42.4201 20.5198 42.8095 20.1503 43.2711 19.9091C43.7326 19.668 44.2455 19.5659 44.7449 19.6158C45.2443 19.6658 45.7078 19.8655 46.0767 20.1898C46.4456 20.5141 46.7035 20.9483 46.8176 21.4376C46.9317 21.9269 46.897 22.4492 46.7178 22.9386C46.5386 23.428 46.223 23.8624 45.8109 24.1869C45.3989 24.5115 44.9088 24.7115 44.4028 24.7618C43.8967 24.8121 43.3974 24.7104 42.9679 24.4695C42.3919 24.1464 41.9824 23.5964 41.8294 22.9402C41.6764 22.2841 41.7924 21.5757 42.152 20.9709Z" fill="#483D8B"/>
</g>
</g>
<g style="mix-blend-mode:multiply">
<g style="mix-blend-mode:multiply">
<path d="M34.3711 16.5883C34.6431 16.1397 35.0354 15.7739 35.4986 15.5369C35.9618 15.2999 36.4749 15.2025 36.9733 15.2569C37.4717 15.3112 37.933 15.515 38.2987 15.8425C38.6645 16.1699 38.9185 16.6063 39.0285 17.0965C39.1385 17.5868 39.0997 18.1088 38.9169 18.5968C38.7341 19.0847 38.4155 19.5166 38.0014 19.838C37.5874 20.1593 37.0964 20.3557 36.5905 20.4023C36.0846 20.4489 35.5865 20.3435 35.1591 20.0996C34.8747 19.9373 34.6287 19.7177 34.4352 19.4533C34.2416 19.1889 34.1043 18.8849 34.0311 18.5587C33.9579 18.2325 33.9503 17.8906 34.0086 17.5525C34.0669 17.2144 34.1901 16.8867 34.3711 16.5883Z" fill="#483D8B"/>
</g>
</g>
<g style="mix-blend-mode:multiply">
<g style="mix-blend-mode:multiply">
<path d="M102.184 41.8869C102.453 41.4358 102.842 41.0663 103.304 40.8252C103.765 40.584 104.278 40.4819 104.777 40.5318C105.277 40.5818 105.74 40.7816 106.109 41.1058C106.478 41.4301 106.736 41.8643 106.85 42.3536C106.964 42.8429 106.929 43.3652 106.75 43.8546C106.571 44.344 106.255 44.7785 105.843 45.103C105.431 45.4275 104.941 45.6276 104.435 45.6778C103.929 45.7281 103.43 45.6264 103 45.3855C102.424 45.0624 102.015 44.5123 101.862 43.8562C101.709 43.2001 101.825 42.4917 102.184 41.8869Z" fill="#483D8B"/>
</g>
</g>
<g style="mix-blend-mode:multiply">
<g style="mix-blend-mode:multiply">
<path d="M94.4237 37.5199C94.6919 37.0688 95.0813 36.6993 95.5429 36.4581C96.0044 36.2169 96.5173 36.1149 97.0167 36.1648C97.5161 36.2148 97.9795 36.4145 98.3485 36.7388C98.7174 37.063 98.9752 37.4973 99.0893 37.9865C99.2034 38.4758 99.1687 38.9981 98.9895 39.4875C98.8103 39.9769 98.4947 40.4113 98.0827 40.7358C97.6706 41.0603 97.1806 41.2604 96.6745 41.3107C96.1684 41.361 95.6691 41.2592 95.2396 41.0183C94.6637 40.6953 94.2542 40.1452 94.1012 39.4891C93.9482 38.833 94.0642 38.1247 94.4237 37.5199Z" fill="#483D8B"/>
</g>
</g>
<g style="mix-blend-mode:multiply">
<g style="mix-blend-mode:multiply">
<path d="M86.648 33.1407C86.9162 32.6897 87.3056 32.3202 87.7672 32.079C88.2287 31.8378 88.7416 31.7357 89.241 31.7857C89.7404 31.8356 90.2039 32.0354 90.5728 32.3597C90.9417 32.6839 91.1995 33.1182 91.3136 33.6075C91.4277 34.0968 91.393 34.6191 91.2139 35.1085C91.0347 35.5979 90.7191 36.0323 90.307 36.3569C89.895 36.6814 89.4049 36.8814 88.8989 36.9317C88.3928 36.982 87.8935 36.8803 87.464 36.6394C86.8881 36.3163 86.4785 35.7662 86.3255 35.1101C86.1725 34.454 86.2885 33.7456 86.648 33.1407Z" fill="#483D8B"/>
</g>
</g>
<g style="mix-blend-mode:multiply">
<g style="mix-blend-mode:multiply">
<path d="M78.8979 28.7777C79.166 28.3266 79.5554 27.9571 80.017 27.7159C80.4785 27.4747 80.9914 27.3727 81.4908 27.4226C81.9902 27.4726 82.4536 27.6723 82.8226 27.9966C83.1915 28.3209 83.4493 28.7551 83.5634 29.2443C83.6775 29.7336 83.6428 30.256 83.4636 30.7453C83.2844 31.2347 82.9688 31.6691 82.5568 31.9936C82.1447 32.3182 81.6547 32.5182 81.1486 32.5685C80.6426 32.6188 80.1432 32.5171 79.7138 32.2762C79.1378 31.9531 78.7283 31.403 78.5753 30.7469C78.4223 30.0909 78.5383 29.3825 78.8979 28.7777Z" fill="#483D8B"/>
</g>
</g>
<g style="mix-blend-mode:multiply">
<g style="mix-blend-mode:multiply">
<path d="M71.137 24.4084C71.4051 23.9573 71.7946 23.5878 72.2561 23.3466C72.7177 23.1054 73.2306 23.0034 73.73 23.0533C74.2294 23.1033 74.6928 23.303 75.0618 23.6273C75.4307 23.9516 75.6886 24.3858 75.8027 24.8751C75.9168 25.3644 75.882 25.8867 75.7029 26.3761C75.5237 26.8655 75.2081 27.3 74.7961 27.6245C74.384 27.949 73.8939 28.149 73.3879 28.1993C72.8818 28.2496 72.3825 28.1479 71.953 27.907C71.377 27.5839 70.9675 27.0338 70.8145 26.3777C70.6615 25.7216 70.7775 25.0132 71.137 24.4084Z" fill="#483D8B"/>
</g>
</g>
<g style="mix-blend-mode:multiply">
<g style="mix-blend-mode:multiply">
<path d="M63.3766 20.0412C63.6447 19.5901 64.0342 19.2206 64.4957 18.9794C64.9572 18.7382 65.4701 18.6361 65.9695 18.6861C66.4689 18.7361 66.9324 18.9358 67.3013 19.2601C67.6702 19.5844 67.9281 20.0186 68.0422 20.5079C68.1563 20.9972 68.1215 21.5195 67.9424 22.0089C67.7632 22.4983 67.4476 22.9327 67.0356 23.2573C66.6235 23.5818 66.1335 23.7818 65.6274 23.8321C65.1213 23.8824 64.622 23.7807 64.1925 23.5398C63.6166 23.2167 63.207 22.6666 63.054 22.0105C62.901 21.3544 63.017 20.646 63.3766 20.0412Z" fill="#483D8B"/>
</g>
</g>
<g style="mix-blend-mode:multiply">
<g style="mix-blend-mode:multiply">
<path d="M55.6161 15.6722C55.8844 15.2209 56.2741 14.8513 56.736 14.6101C57.1978 14.3689 57.711 14.267 58.2106 14.3173C58.7102 14.3675 59.1737 14.5677 59.5425 14.8925C59.9113 15.2173 60.1688 15.652 60.2824 16.1417C60.396 16.6314 60.3605 17.1541 60.1806 17.6435C60.0006 18.1329 59.6842 18.567 59.2714 18.891C58.8586 19.215 58.368 19.4143 57.8617 19.4635C57.3553 19.5128 56.856 19.4099 56.4269 19.1678C55.8527 18.8439 55.4449 18.2939 55.2929 17.6386C55.1409 16.9833 55.2571 16.2761 55.6161 15.6722Z" fill="#483D8B"/>
</g>
</g>
<g style="mix-blend-mode:multiply">
<g style="mix-blend-mode:multiply">
<path d="M100.143 27.8577C100.411 27.4066 100.801 27.0372 101.262 26.796C101.724 26.5548 102.237 26.4527 102.736 26.5026C103.235 26.5526 103.699 26.7523 104.068 27.0766C104.437 27.4008 104.694 27.8351 104.809 28.3243C104.923 28.8136 104.888 29.336 104.709 29.8254C104.53 30.3148 104.214 30.7491 103.802 31.0737C103.39 31.3982 102.9 31.5983 102.394 31.6486C101.888 31.6988 101.388 31.5971 100.959 31.3562C100.383 31.0332 99.9734 30.4831 99.8204 29.827C99.6674 29.1709 99.7835 28.4625 100.143 27.8577Z" fill="#483D8B"/>
</g>
</g>
<g style="mix-blend-mode:multiply">
<g style="mix-blend-mode:multiply">
<path d="M92.3674 23.4827C92.6355 23.0316 93.0249 22.6622 93.4865 22.421C93.948 22.1798 94.4609 22.0777 94.9603 22.1276C95.4597 22.1776 95.9232 22.3773 96.2921 22.7016C96.661 23.0258 96.9188 23.4601 97.0329 23.9493C97.147 24.4386 97.1123 24.961 96.9331 25.4504C96.7539 25.9398 96.4384 26.3741 96.0263 26.6987C95.6142 27.0232 95.1242 27.2233 94.6181 27.2736C94.1121 27.3238 93.6127 27.2221 93.1832 26.9812C92.6073 26.6582 92.1978 26.1081 92.0448 25.452C91.8918 24.7959 92.0078 24.0875 92.3674 23.4827Z" fill="#483D8B"/>
</g>
</g>
<g style="mix-blend-mode:multiply">
<g style="mix-blend-mode:multiply">
<path d="M84.6169 19.1174C84.885 18.6664 85.2744 18.2969 85.736 18.0557C86.1975 17.8145 86.7104 17.7124 87.2098 17.7624C87.7092 17.8123 88.1727 18.0121 88.5416 18.3364C88.9105 18.6606 89.1683 19.0948 89.2824 19.5841C89.3965 20.0734 89.3618 20.5958 89.1826 21.0851C89.0035 21.5745 88.6879 22.0089 88.2758 22.3334C87.8637 22.658 87.3737 22.858 86.8676 22.9083C86.3616 22.9586 85.8622 22.8569 85.4327 22.616C84.8568 22.293 84.4473 21.7429 84.2943 21.0868C84.1413 20.4307 84.2573 19.7223 84.6169 19.1174Z" fill="#483D8B"/>
</g>
</g>
<g style="mix-blend-mode:multiply">
<g style="mix-blend-mode:multiply">
<path d="M76.856 14.7501C77.1242 14.299 77.5136 13.9296 77.9751 13.6884C78.4367 13.4472 78.9496 13.3451 79.449 13.395C79.9484 13.445 80.4119 13.6448 80.7808 13.969C81.1497 14.2933 81.4076 14.7275 81.5217 15.2168C81.6358 15.7061 81.601 16.2285 81.4219 16.7179C81.2427 17.2073 80.9271 17.6417 80.5151 17.9662C80.103 18.2908 79.6129 18.4908 79.1069 18.5411C78.6008 18.5914 78.1015 18.4897 77.672 18.2487C77.096 17.9257 76.6865 17.3756 76.5335 16.7195C76.3805 16.0634 76.4965 15.3549 76.856 14.7501Z" fill="#483D8B"/>
</g>
</g>
</g>
</g>
</g>
</svg>
