<svg width="200" height="204" viewBox="0 0 200 204" fill="none" xmlns="http://www.w3.org/2000/svg">
<mask id="mask0" mask-type="alpha" maskUnits="userSpaceOnUse" x="19" y="18" width="161" height="167">
<ellipse rx="80.2065" ry="82.8308" transform="matrix(-0.963438 0.267931 -0.249974 -0.968253 99.9794 101.933)" fill="#C4C4C4"/>
</mask>
<g mask="url(#mask0)">
<g style="mix-blend-mode:multiply">
<g style="mix-blend-mode:multiply">
<g style="mix-blend-mode:multiply">
<g style="mix-blend-mode:multiply">
<path d="M175.992 183.36C175.748 182.43 175.781 181.439 176.088 180.513C176.395 179.586 176.962 178.766 177.717 178.155C178.472 177.544 179.381 177.171 180.329 177.082C181.277 176.993 182.221 177.193 183.043 177.656C183.864 178.119 184.525 178.825 184.942 179.683C185.36 180.542 185.515 181.515 185.387 182.479C185.26 183.444 184.856 184.357 184.228 185.102C183.599 185.847 182.773 186.391 181.854 186.665C180.625 187.032 179.317 186.89 178.218 186.27C177.119 185.65 176.319 184.604 175.992 183.36Z" fill="#FF2727"/>
</g>
</g>
<g style="mix-blend-mode:multiply">
<g style="mix-blend-mode:multiply">
<path d="M159.554 187.93C159.31 187 159.343 186.009 159.65 185.083C159.957 184.156 160.524 183.336 161.279 182.725C162.034 182.115 162.943 181.741 163.891 181.652C164.839 181.564 165.783 181.763 166.605 182.226C167.426 182.689 168.087 183.395 168.504 184.253C168.922 185.112 169.077 186.085 168.949 187.05C168.822 188.014 168.418 188.927 167.789 189.672C167.161 190.417 166.335 190.961 165.416 191.235C164.187 191.602 162.88 191.46 161.781 190.84C160.682 190.221 159.881 189.174 159.554 187.93Z" fill="#FF2727"/>
</g>
</g>
<g style="mix-blend-mode:multiply">
<g style="mix-blend-mode:multiply">
<path d="M143.083 192.512C142.839 191.582 142.873 190.591 143.18 189.665C143.487 188.738 144.054 187.918 144.809 187.307C145.564 186.697 146.472 186.323 147.42 186.234C148.368 186.146 149.313 186.345 150.134 186.808C150.955 187.271 151.616 187.977 152.034 188.835C152.451 189.694 152.606 190.667 152.479 191.632C152.351 192.596 151.948 193.509 151.319 194.254C150.69 194.999 149.864 195.543 148.945 195.817C148.337 196 147.702 196.06 147.078 195.993C146.454 195.926 145.852 195.734 145.308 195.427C144.763 195.12 144.286 194.704 143.905 194.204C143.523 193.704 143.244 193.129 143.083 192.512Z" fill="#FF2727"/>
</g>
</g>
<g style="mix-blend-mode:multiply">
<g style="mix-blend-mode:multiply">
<path d="M170.708 162.899C170.466 161.969 170.502 160.979 170.811 160.053C171.119 159.128 171.688 158.309 172.443 157.7C173.199 157.091 174.108 156.719 175.055 156.632C176.003 156.544 176.946 156.745 177.767 157.209C178.587 157.673 179.247 158.379 179.663 159.237C180.08 160.096 180.234 161.069 180.106 162.033C179.978 162.997 179.575 163.909 178.946 164.653C178.317 165.398 177.491 165.942 176.573 166.216C175.342 166.583 174.033 166.44 172.933 165.818C171.833 165.196 171.033 164.146 170.708 162.899Z" fill="#FF2727"/>
</g>
</g>
<g style="mix-blend-mode:multiply">
<g style="mix-blend-mode:multiply">
<path d="M154.27 167.469C154.028 166.539 154.064 165.549 154.373 164.624C154.682 163.698 155.25 162.879 156.005 162.27C156.761 161.661 157.67 161.289 158.617 161.202C159.565 161.115 160.508 161.316 161.329 161.78C162.149 162.243 162.809 162.949 163.225 163.808C163.642 164.666 163.796 165.639 163.668 166.603C163.54 167.567 163.137 168.479 162.508 169.224C161.879 169.968 161.053 170.512 160.135 170.786C158.904 171.153 157.595 171.01 156.495 170.388C155.395 169.766 154.595 168.716 154.27 167.469Z" fill="#FF2727"/>
</g>
</g>
<g style="mix-blend-mode:multiply">
<g style="mix-blend-mode:multiply">
<path d="M137.8 172.049C137.558 171.12 137.594 170.129 137.902 169.204C138.211 168.278 138.779 167.459 139.535 166.85C140.29 166.241 141.199 165.869 142.147 165.782C143.095 165.695 144.038 165.896 144.858 166.36C145.679 166.823 146.339 167.529 146.755 168.388C147.172 169.246 147.326 170.219 147.198 171.183C147.07 172.147 146.666 173.059 146.038 173.804C145.409 174.548 144.583 175.092 143.665 175.366C143.056 175.549 142.42 175.609 141.795 175.542C141.17 175.474 140.567 175.281 140.022 174.973C139.477 174.664 139 174.248 138.619 173.746C138.238 173.244 137.959 172.668 137.8 172.049Z" fill="#FF2727"/>
</g>
</g>
<g style="mix-blend-mode:multiply">
<g style="mix-blend-mode:multiply">
<path d="M121.383 176.616C121.141 175.686 121.177 174.696 121.485 173.77C121.794 172.845 122.362 172.026 123.118 171.417C123.873 170.808 124.782 170.436 125.73 170.349C126.678 170.261 127.621 170.462 128.441 170.926C129.262 171.39 129.922 172.096 130.338 172.954C130.755 173.813 130.909 174.786 130.781 175.75C130.653 176.714 130.249 177.626 129.621 178.37C128.992 179.115 128.166 179.658 127.248 179.932C126.017 180.3 124.708 180.157 123.608 179.535C122.508 178.913 121.708 177.863 121.383 176.616Z" fill="#FF2727"/>
</g>
</g>
<g style="mix-blend-mode:multiply">
<g style="mix-blend-mode:multiply">
<path d="M104.944 181.188C104.702 180.258 104.738 179.268 105.046 178.342C105.355 177.417 105.923 176.598 106.679 175.989C107.434 175.38 108.343 175.008 109.291 174.921C110.239 174.834 111.182 175.034 112.002 175.498C112.823 175.962 113.483 176.668 113.899 177.527C114.316 178.385 114.47 179.358 114.342 180.322C114.214 181.286 113.81 182.198 113.182 182.942C112.553 183.687 111.727 184.231 110.809 184.505C109.578 184.872 108.269 184.729 107.169 184.107C106.069 183.485 105.269 182.435 104.944 181.188Z" fill="#FF2727"/>
</g>
</g>
<g style="mix-blend-mode:multiply">
<g style="mix-blend-mode:multiply">
<path d="M88.5061 185.758C88.2641 184.828 88.2997 183.838 88.6085 182.913C88.9173 181.987 89.4854 181.168 90.2409 180.559C90.9964 179.95 91.9055 179.578 92.853 179.491C93.8006 179.404 94.7442 179.605 95.5644 180.068C96.3847 180.532 97.0447 181.238 97.4612 182.097C97.8776 182.955 98.0318 183.928 97.9041 184.892C97.7763 185.856 97.3725 186.768 96.7437 187.513C96.1148 188.257 95.2892 188.801 94.3712 189.075C93.7616 189.258 93.126 189.318 92.5009 189.251C91.8758 189.183 91.2734 188.99 90.7284 188.682C90.1834 188.373 89.7066 187.957 89.3252 187.455C88.9438 186.953 88.6654 186.377 88.5061 185.758Z" fill="#FF2727"/>
</g>
</g>
<g style="mix-blend-mode:multiply">
<g style="mix-blend-mode:multiply">
<path d="M72.0676 190.331C71.8255 189.4 71.8613 188.409 72.1705 187.484C72.4798 186.558 73.0485 185.739 73.8047 185.13C74.5609 184.521 75.4706 184.15 76.4187 184.063C77.3668 183.976 78.3107 184.179 79.1308 184.644C79.9509 185.109 80.6104 185.816 81.0258 186.675C81.4412 187.535 81.5938 188.509 81.4644 189.473C81.335 190.437 80.9293 191.349 80.2987 192.093C79.6681 192.836 78.8409 193.378 77.9219 193.65C77.3128 193.832 76.6781 193.891 76.054 193.822C75.43 193.753 74.8289 193.559 74.2851 193.251C73.7413 192.943 73.2655 192.526 72.885 192.025C72.5045 191.524 72.2267 190.948 72.0676 190.331Z" fill="#FF2727"/>
</g>
</g>
<g style="mix-blend-mode:multiply">
<g style="mix-blend-mode:multiply">
<path d="M165.435 142.474C165.193 141.544 165.229 140.553 165.538 139.628C165.847 138.703 166.415 137.884 167.17 137.275C167.926 136.666 168.835 136.294 169.782 136.206C170.73 136.119 171.674 136.32 172.494 136.784C173.314 137.248 173.974 137.953 174.391 138.812C174.807 139.671 174.961 140.643 174.833 141.607C174.706 142.571 174.302 143.483 173.673 144.228C173.044 144.972 172.218 145.516 171.3 145.79C170.069 146.157 168.76 146.014 167.66 145.392C166.56 144.77 165.76 143.721 165.435 142.474Z" fill="#FF2727"/>
</g>
</g>
<g style="mix-blend-mode:multiply">
<g style="mix-blend-mode:multiply">
<path d="M148.997 147.046C148.755 146.116 148.791 145.126 149.099 144.2C149.408 143.275 149.976 142.456 150.732 141.847C151.487 141.238 152.396 140.866 153.344 140.779C154.291 140.691 155.235 140.892 156.055 141.356C156.875 141.82 157.536 142.526 157.952 143.384C158.368 144.243 158.523 145.216 158.395 146.18C158.267 147.144 157.863 148.055 157.234 148.8C156.606 149.544 155.78 150.088 154.862 150.362C153.631 150.73 152.321 150.587 151.222 149.965C150.122 149.343 149.321 148.293 148.997 147.046Z" fill="#FF2727"/>
</g>
</g>
<g style="mix-blend-mode:multiply">
<g style="mix-blend-mode:multiply">
<path d="M132.527 151.626C132.285 150.696 132.321 149.706 132.63 148.78C132.939 147.855 133.507 147.036 134.262 146.427C135.018 145.818 135.927 145.446 136.874 145.359C137.822 145.272 138.765 145.472 139.586 145.936C140.406 146.4 141.066 147.106 141.482 147.964C141.899 148.823 142.053 149.796 141.925 150.76C141.797 151.724 141.394 152.636 140.765 153.38C140.136 154.124 139.31 154.668 138.392 154.942C137.161 155.31 135.852 155.167 134.752 154.545C133.652 153.923 132.852 152.873 132.527 151.626Z" fill="#FF2727"/>
</g>
</g>
<g style="mix-blend-mode:multiply">
<g style="mix-blend-mode:multiply">
<path d="M116.11 156.192C115.868 155.262 115.903 154.272 116.212 153.347C116.521 152.421 117.089 151.602 117.845 150.993C118.6 150.384 119.509 150.013 120.457 149.925C121.404 149.838 122.348 150.039 123.168 150.503C123.988 150.966 124.648 151.672 125.065 152.531C125.481 153.389 125.635 154.362 125.508 155.326C125.38 156.29 124.976 157.202 124.347 157.946C123.718 158.691 122.893 159.234 121.975 159.508C120.744 159.876 119.434 159.733 118.334 159.111C117.234 158.489 116.434 157.439 116.11 156.192Z" fill="#FF2727"/>
</g>
</g>
<g style="mix-blend-mode:multiply">
<g style="mix-blend-mode:multiply">
<path d="M99.671 160.763C99.429 159.833 99.4647 158.842 99.7735 157.917C100.082 156.992 100.65 156.173 101.406 155.564C102.162 154.955 103.071 154.583 104.018 154.496C104.966 154.408 105.909 154.609 106.73 155.073C107.55 155.537 108.21 156.242 108.626 157.101C109.043 157.96 109.197 158.932 109.069 159.896C108.941 160.86 108.538 161.772 107.909 162.517C107.28 163.261 106.454 163.805 105.536 164.079C104.305 164.446 102.996 164.303 101.896 163.681C100.796 163.06 99.9955 162.01 99.671 160.763Z" fill="#FF2727"/>
</g>
</g>
<g style="mix-blend-mode:multiply">
<g style="mix-blend-mode:multiply">
<path d="M83.2332 165.335C82.9912 164.405 83.0269 163.415 83.3357 162.489C83.6445 161.564 84.2125 160.745 84.9681 160.136C85.7236 159.527 86.6326 159.155 87.5802 159.068C88.5278 158.98 89.4714 159.181 90.2916 159.645C91.1118 160.109 91.7719 160.815 92.1883 161.673C92.6048 162.532 92.7589 163.505 92.6311 164.469C92.5034 165.433 92.0996 166.345 91.4707 167.089C90.8419 167.833 90.0162 168.377 89.0982 168.651C87.8672 169.019 86.5577 168.876 85.4578 168.254C84.3578 167.632 83.5577 166.582 83.2332 165.335Z" fill="#FF2727"/>
</g>
</g>
<g style="mix-blend-mode:multiply">
<g style="mix-blend-mode:multiply">
<path d="M66.7947 169.905C66.5526 168.975 66.5884 167.984 66.8977 167.058C67.2069 166.132 67.7756 165.313 68.5319 164.704C69.2881 164.096 70.1978 163.724 71.1459 163.638C72.094 163.551 73.0378 163.753 73.8579 164.218C74.678 164.683 75.3375 165.39 75.7529 166.25C76.1683 167.11 76.3209 168.083 76.1915 169.048C76.062 170.012 75.6563 170.923 75.0257 171.667C74.3951 172.411 73.5679 172.953 72.6489 173.225C71.419 173.589 70.112 173.444 69.0145 172.821C67.917 172.199 67.1187 171.15 66.7947 169.905Z" fill="#FF2727"/>
</g>
</g>
<g style="mix-blend-mode:multiply">
<g style="mix-blend-mode:multiply">
<path d="M50.3888 174.468C50.1468 173.538 50.1825 172.548 50.4913 171.622C50.8001 170.697 51.3682 169.878 52.1237 169.269C52.8792 168.66 53.7883 168.288 54.7359 168.201C55.6835 168.113 56.627 168.314 57.4473 168.778C58.2675 169.242 58.9277 169.948 59.3441 170.806C59.7605 171.665 59.9146 172.638 59.7869 173.601C59.6591 174.565 59.2553 175.477 58.6264 176.222C57.9976 176.966 57.172 177.51 56.254 177.784C55.0229 178.151 53.7134 178.008 52.6135 177.386C51.5136 176.765 50.7133 175.715 50.3888 174.468Z" fill="#FF2727"/>
</g>
</g>
<g style="mix-blend-mode:multiply">
<g style="mix-blend-mode:multiply">
<path d="M33.9066 179.052C33.6646 178.122 33.7003 177.131 34.0091 176.206C34.3179 175.281 34.886 174.462 35.6415 173.853C36.397 173.244 37.306 172.872 38.2536 172.784C39.2012 172.697 40.1447 172.898 40.9649 173.362C41.7852 173.826 42.4453 174.531 42.8617 175.39C43.2781 176.249 43.4322 177.221 43.3044 178.185C43.1767 179.149 42.7729 180.061 42.1441 180.806C41.5152 181.55 40.6896 182.094 39.7716 182.368C38.5406 182.735 37.2311 182.592 36.1312 181.971C35.0314 181.349 34.2311 180.299 33.9066 179.052Z" fill="#FF2727"/>
</g>
</g>
<g style="mix-blend-mode:multiply">
<g style="mix-blend-mode:multiply">
<path d="M17.4686 183.624C17.2266 182.694 17.2623 181.704 17.5711 180.778C17.8799 179.853 18.448 179.034 19.2035 178.425C19.9591 177.816 20.868 177.444 21.8156 177.357C22.7632 177.27 23.7068 177.471 24.527 177.934C25.3472 178.398 26.0073 179.104 26.4237 179.962C26.8401 180.821 26.9943 181.794 26.8665 182.758C26.7388 183.722 26.3349 184.634 25.7061 185.378C25.0772 186.123 24.2516 186.666 23.3336 186.94C22.1026 187.308 20.7931 187.165 19.6932 186.543C18.5933 185.921 17.7931 184.871 17.4686 183.624Z" fill="#FF2727"/>
</g>
</g>
<g style="mix-blend-mode:multiply">
<g style="mix-blend-mode:multiply">
<path d="M176.598 117.466C176.356 116.536 176.392 115.546 176.7 114.62C177.009 113.695 177.577 112.876 178.333 112.267C179.088 111.658 179.997 111.286 180.945 111.199C181.892 111.111 182.836 111.312 183.656 111.776C184.477 112.24 185.137 112.946 185.553 113.804C185.969 114.663 186.124 115.636 185.996 116.599C185.868 117.563 185.464 118.475 184.835 119.22C184.207 119.964 183.381 120.508 182.463 120.782C181.232 121.149 179.922 121.006 178.823 120.384C177.723 119.763 176.922 118.713 176.598 117.466Z" fill="#FF2727"/>
</g>
</g>
<g style="mix-blend-mode:multiply">
<g style="mix-blend-mode:multiply">
<path d="M160.16 122.038C159.918 121.108 159.953 120.118 160.262 119.192C160.571 118.267 161.139 117.448 161.894 116.839C162.65 116.23 163.559 115.858 164.507 115.771C165.454 115.683 166.398 115.884 167.218 116.348C168.038 116.812 168.698 117.518 169.115 118.376C169.531 119.235 169.685 120.208 169.557 121.172C169.43 122.136 169.026 123.048 168.397 123.792C167.768 124.537 166.943 125.08 166.025 125.354C164.794 125.722 163.484 125.579 162.384 124.957C161.284 124.335 160.484 123.285 160.16 122.038Z" fill="#FF2727"/>
</g>
</g>
<g style="mix-blend-mode:multiply">
<g style="mix-blend-mode:multiply">
<path d="M143.721 126.61C143.479 125.68 143.515 124.69 143.824 123.765C144.133 122.839 144.701 122.02 145.456 121.411C146.212 120.802 147.121 120.43 148.068 120.343C149.016 120.256 149.96 120.457 150.78 120.92C151.6 121.384 152.26 122.09 152.677 122.949C153.093 123.807 153.247 124.78 153.119 125.744C152.992 126.708 152.588 127.62 151.959 128.364C151.33 129.109 150.505 129.652 149.587 129.926C148.356 130.294 147.046 130.151 145.946 129.529C144.846 128.907 144.046 127.857 143.721 126.61Z" fill="#FF2727"/>
</g>
</g>
<g style="mix-blend-mode:multiply">
<g style="mix-blend-mode:multiply">
<path d="M127.251 131.19C127.009 130.26 127.045 129.27 127.354 128.345C127.663 127.419 128.231 126.6 128.986 125.991C129.742 125.382 130.651 125.01 131.598 124.923C132.546 124.836 133.489 125.037 134.31 125.5C135.13 125.964 135.79 126.67 136.206 127.529C136.623 128.387 136.777 129.36 136.649 130.324C136.521 131.288 136.118 132.2 135.489 132.944C134.86 133.689 134.034 134.233 133.116 134.507C131.885 134.874 130.576 134.731 129.476 134.109C128.376 133.487 127.576 132.437 127.251 131.19Z" fill="#FF2727"/>
</g>
</g>
<g style="mix-blend-mode:multiply">
<g style="mix-blend-mode:multiply">
<path d="M110.834 135.755C110.592 134.825 110.627 133.835 110.936 132.909C111.245 131.984 111.813 131.165 112.569 130.556C113.324 129.947 114.233 129.575 115.181 129.488C116.128 129.4 117.072 129.601 117.892 130.065C118.712 130.529 119.372 131.235 119.789 132.093C120.205 132.952 120.359 133.925 120.232 134.889C120.104 135.853 119.7 136.764 119.071 137.509C118.442 138.253 117.617 138.797 116.699 139.071C115.468 139.438 114.158 139.295 113.058 138.674C111.959 138.052 111.158 137.002 110.834 135.755Z" fill="#FF2727"/>
</g>
</g>
<g style="mix-blend-mode:multiply">
<g style="mix-blend-mode:multiply">
<path d="M94.3952 140.327C94.1532 139.397 94.1888 138.407 94.4977 137.481C94.8065 136.556 95.3746 135.737 96.1301 135.128C96.8856 134.519 97.7946 134.147 98.7422 134.06C99.6898 133.972 100.633 134.173 101.454 134.637C102.274 135.101 102.934 135.807 103.35 136.665C103.767 137.524 103.921 138.497 103.793 139.461C103.666 140.425 103.262 141.337 102.633 142.081C102.004 142.826 101.178 143.369 100.26 143.643C99.0293 144.011 97.7198 143.868 96.6198 143.246C95.5199 142.624 94.7197 141.574 94.3952 140.327Z" fill="#FF2727"/>
</g>
</g>
<g style="mix-blend-mode:multiply">
<g style="mix-blend-mode:multiply">
<path d="M77.9573 144.899C77.7153 143.969 77.751 142.979 78.0598 142.054C78.3686 141.128 78.9366 140.309 79.6922 139.7C80.4477 139.091 81.3567 138.72 82.3043 138.632C83.2519 138.545 84.1954 138.746 85.0157 139.21C85.8359 139.673 86.496 140.379 86.9124 141.238C87.3289 142.096 87.483 143.069 87.3553 144.033C87.2275 144.997 86.8237 145.909 86.1949 146.653C85.566 147.398 84.7404 147.941 83.8223 148.215C82.5913 148.583 81.2818 148.44 80.1819 147.818C79.082 147.196 78.2818 146.146 77.9573 144.899Z" fill="#FF2727"/>
</g>
</g>
<g style="mix-blend-mode:multiply">
<g style="mix-blend-mode:multiply">
<path d="M61.5188 149.47C61.2767 148.539 61.3126 147.548 61.6218 146.623C61.931 145.697 62.4997 144.878 63.256 144.269C64.0122 143.66 64.9219 143.289 65.87 143.202C66.8181 143.115 67.7619 143.318 68.582 143.783C69.4021 144.248 70.0616 144.955 70.477 145.814C70.8924 146.674 71.045 147.648 70.9156 148.612C70.7861 149.576 70.3805 150.488 69.7498 151.231C69.1192 151.975 68.2921 152.517 67.373 152.789C66.1432 153.153 64.8361 153.008 63.7386 152.386C62.6412 151.763 61.8428 150.715 61.5188 149.47Z" fill="#FF2727"/>
</g>
</g>
<g style="mix-blend-mode:multiply">
<g style="mix-blend-mode:multiply">
<path d="M45.113 154.032C44.8711 153.102 44.9067 152.112 45.2155 151.187C45.5243 150.261 46.0924 149.442 46.8479 148.833C47.6034 148.224 48.5125 147.852 49.4601 147.765C50.4077 147.678 51.3512 147.879 52.1714 148.342C52.9917 148.806 53.6518 149.512 54.0682 150.371C54.4847 151.229 54.6387 152.202 54.511 153.166C54.3832 154.13 53.9794 155.042 53.3506 155.786C52.7217 156.531 51.8961 157.074 50.9781 157.348C49.7471 157.716 48.4376 157.573 47.3377 156.951C46.2378 156.329 45.4375 155.279 45.113 154.032Z" fill="#FF2727"/>
</g>
</g>
<g style="mix-blend-mode:multiply">
<g style="mix-blend-mode:multiply">
<path d="M28.6306 158.616C28.3886 157.686 28.4243 156.696 28.7331 155.77C29.0419 154.845 29.61 154.026 30.3655 153.417C31.121 152.808 32.0301 152.436 32.9776 152.349C33.9252 152.262 34.8687 152.462 35.689 152.926C36.5092 153.39 37.1694 154.096 37.5858 154.954C38.0022 155.813 38.1563 156.786 38.0286 157.75C37.9008 158.714 37.497 159.626 36.8682 160.37C36.2393 161.115 35.4137 161.658 34.4957 161.932C33.2647 162.3 31.9552 162.157 30.8553 161.535C29.7554 160.913 28.9551 159.863 28.6306 158.616Z" fill="#FF2727"/>
</g>
</g>
<g style="mix-blend-mode:multiply">
<g style="mix-blend-mode:multiply">
<path d="M12.1932 163.188C11.9512 162.258 11.9868 161.268 12.2956 160.343C12.6044 159.417 13.1725 158.598 13.928 157.989C14.6836 157.38 15.5925 157.008 16.5401 156.921C17.4877 156.834 18.4313 157.035 19.2515 157.499C20.0718 157.962 20.7318 158.668 21.1483 159.527C21.5647 160.385 21.7188 161.358 21.5911 162.322C21.4634 163.286 21.0595 164.198 20.4307 164.942C19.8018 165.687 18.9762 166.231 18.0582 166.505C16.8272 166.872 15.5177 166.729 14.4178 166.107C13.3179 165.485 12.5177 164.435 12.1932 163.188Z" fill="#FF2727"/>
</g>
</g>
<g style="mix-blend-mode:multiply">
<g style="mix-blend-mode:multiply">
<path d="M174.736 90.9272C172.172 91.6924 170.642 94.4178 171.318 97.0145C171.993 99.6112 174.619 101.096 177.183 100.331C179.746 99.5656 181.276 96.8403 180.601 94.2435C179.925 91.6468 177.299 90.162 174.736 90.9272Z" fill="#FF2727"/>
</g>
</g>
<g style="mix-blend-mode:multiply">
<g style="mix-blend-mode:multiply">
<path d="M154.883 101.6C154.641 100.67 154.677 99.6802 154.986 98.7547C155.294 97.8293 155.862 97.0103 156.618 96.4012C157.373 95.7922 158.283 95.4205 159.23 95.3332C160.178 95.2458 161.121 95.4468 161.941 95.9106C162.762 96.3744 163.422 97.0802 163.838 97.9388C164.255 98.7974 164.409 99.7702 164.281 100.734C164.153 101.698 163.749 102.61 163.121 103.355C162.492 104.099 161.666 104.643 160.748 104.917C159.517 105.284 158.208 105.141 157.108 104.519C156.008 103.897 155.208 102.847 154.883 101.6Z" fill="#FF2727"/>
</g>
</g>
<g style="mix-blend-mode:multiply">
<g style="mix-blend-mode:multiply">
<path d="M138.445 106.173C138.203 105.243 138.239 104.252 138.548 103.327C138.856 102.402 139.424 101.583 140.18 100.974C140.936 100.365 141.845 99.9929 142.792 99.9055C143.74 99.8182 144.683 100.019 145.503 100.483C146.324 100.947 146.984 101.653 147.4 102.511C147.817 103.37 147.971 104.343 147.843 105.307C147.715 106.271 147.311 107.182 146.683 107.927C146.054 108.671 145.228 109.215 144.31 109.489C143.079 109.856 141.77 109.713 140.67 109.092C139.57 108.47 138.77 107.42 138.445 106.173Z" fill="#FF2727"/>
</g>
</g>
<g style="mix-blend-mode:multiply">
<g style="mix-blend-mode:multiply">
<path d="M121.975 110.753C121.733 109.823 121.769 108.833 122.077 107.907C122.386 106.982 122.954 106.163 123.71 105.554C124.465 104.945 125.374 104.573 126.322 104.486C127.269 104.398 128.213 104.599 129.033 105.063C129.853 105.527 130.514 106.233 130.93 107.091C131.346 107.95 131.501 108.923 131.373 109.887C131.245 110.851 130.841 111.762 130.212 112.507C129.584 113.251 128.758 113.795 127.84 114.069C126.609 114.437 125.299 114.294 124.2 113.672C123.1 113.05 122.299 112 121.975 110.753Z" fill="#FF2727"/>
</g>
</g>
<g style="mix-blend-mode:multiply">
<g style="mix-blend-mode:multiply">
<path d="M105.558 115.319C105.316 114.389 105.352 113.399 105.66 112.473C105.969 111.548 106.537 110.729 107.293 110.12C108.048 109.511 108.957 109.139 109.905 109.052C110.852 108.965 111.796 109.166 112.616 109.629C113.436 110.093 114.097 110.799 114.513 111.658C114.929 112.516 115.084 113.489 114.956 114.453C114.828 115.417 114.424 116.329 113.795 117.073C113.167 117.818 112.341 118.361 111.423 118.635C110.192 119.003 108.882 118.86 107.783 118.238C106.683 117.616 105.882 116.566 105.558 115.319Z" fill="#FF2727"/>
</g>
</g>
<g style="mix-blend-mode:multiply">
<g style="mix-blend-mode:multiply">
<path d="M92.5334 113.789C89.9699 114.554 88.4396 117.279 89.1154 119.876C89.7911 122.473 92.417 123.957 94.9805 123.192C97.544 122.427 99.0743 119.702 98.3985 117.105C97.7228 114.508 95.0969 113.024 92.5334 113.789Z" fill="#FF2727"/>
</g>
</g>
<g style="mix-blend-mode:multiply">
<g style="mix-blend-mode:multiply">
<path d="M76.0852 118.363C73.5218 119.128 71.9915 121.853 72.6673 124.45C73.343 127.047 75.9689 128.531 78.5323 127.766C81.0958 127.001 82.626 124.276 81.9503 121.679C81.2745 119.082 78.6487 117.598 76.0852 118.363Z" fill="#FF2727"/>
</g>
</g>
<g style="mix-blend-mode:multiply">
<g style="mix-blend-mode:multiply">
<path d="M56.2425 129.032C56.0004 128.102 56.0362 127.111 56.3454 126.185C56.6547 125.259 57.2234 124.44 57.9796 123.831C58.7358 123.222 59.6455 122.851 60.5936 122.764C61.5417 122.678 62.4856 122.88 63.3056 123.345C64.1257 123.81 64.7853 124.517 65.2007 125.377C65.6161 126.236 65.7687 127.21 65.6392 128.174C65.5098 129.139 65.1041 130.05 64.4735 130.794C63.8429 131.537 63.0157 132.08 62.0967 132.352C60.8668 132.716 59.5598 132.57 58.4623 131.948C57.3648 131.326 56.5665 130.277 56.2425 129.032Z" fill="#FF2727"/>
</g>
</g>
<g style="mix-blend-mode:multiply">
<g style="mix-blend-mode:multiply">
<path d="M39.8371 133.595C39.5951 132.665 39.6307 131.674 39.9396 130.749C40.2484 129.823 40.8164 129.004 41.5719 128.395C42.3275 127.786 43.2365 127.415 44.1841 127.327C45.1317 127.24 46.0752 127.441 46.8955 127.905C47.7157 128.369 48.3759 129.074 48.7923 129.933C49.2088 130.792 49.3628 131.764 49.2351 132.728C49.1073 133.692 48.7035 134.604 48.0747 135.349C47.4458 136.093 46.6202 136.637 45.7022 136.911C44.4712 137.278 43.1617 137.135 42.0617 136.513C40.9618 135.892 40.1616 134.842 39.8371 133.595Z" fill="#FF2727"/>
</g>
</g>
<g style="mix-blend-mode:multiply">
<g style="mix-blend-mode:multiply">
<path d="M23.3543 138.179C23.1123 137.249 23.1479 136.258 23.4568 135.333C23.7656 134.407 24.3336 133.588 25.0891 132.979C25.8446 132.37 26.7537 131.999 27.7013 131.911C28.6488 131.824 29.5924 132.025 30.4126 132.489C31.2329 132.953 31.893 133.658 32.3094 134.517C32.7259 135.376 32.8799 136.348 32.7522 137.312C32.6245 138.276 32.2206 139.188 31.5918 139.933C30.9629 140.677 30.1374 141.221 29.2194 141.495C27.9883 141.862 26.6788 141.719 25.5789 141.097C24.479 140.475 23.6788 139.426 23.3543 138.179Z" fill="#FF2727"/>
</g>
</g>
<g style="mix-blend-mode:multiply">
<g style="mix-blend-mode:multiply">
<path d="M169.459 70.4898C166.896 71.2549 165.366 73.9803 166.041 76.577C166.717 79.1737 169.343 80.6584 171.906 79.8933C174.47 79.1281 176 76.4028 175.324 73.8061C174.649 71.2093 172.023 69.7246 169.459 70.4898Z" fill="#FF2727"/>
</g>
</g>
<g style="mix-blend-mode:multiply">
<g style="mix-blend-mode:multiply">
<path d="M149.606 81.1602C149.361 80.2305 149.395 79.2397 149.702 78.3132C150.009 77.3867 150.576 76.5661 151.331 75.9555C152.086 75.3448 152.995 74.9715 153.943 74.8827C154.891 74.7939 155.835 74.9936 156.656 75.4567C157.478 75.9197 158.139 76.6252 158.556 77.4838C158.973 78.3425 159.128 79.3156 159.001 80.2802C158.874 81.2447 158.47 82.1573 157.841 82.9023C157.212 83.6474 156.386 84.1914 155.468 84.4656C154.239 84.8325 152.931 84.6905 151.832 84.0709C150.733 83.4512 149.933 82.4045 149.606 81.1602Z" fill="#FF2727"/>
</g>
</g>
<g style="mix-blend-mode:multiply">
<g style="mix-blend-mode:multiply">
<path d="M133.168 85.7325C132.923 84.8027 132.957 83.8119 133.264 82.8854C133.571 81.9589 134.138 81.1383 134.893 80.5277C135.648 79.917 136.557 79.5436 137.505 79.4549C138.453 79.3661 139.397 79.5658 140.218 80.0289C141.039 80.4919 141.701 81.1974 142.118 82.056C142.535 82.9147 142.69 83.8879 142.563 84.8524C142.436 85.817 142.032 86.7295 141.403 87.4746C140.774 88.2196 139.948 88.7637 139.03 89.0378C137.801 89.4047 136.493 89.2628 135.394 88.6431C134.295 88.0235 133.494 86.9767 133.168 85.7325Z" fill="#FF2727"/>
</g>
</g>
<g style="mix-blend-mode:multiply">
<g style="mix-blend-mode:multiply">
<path d="M116.698 90.3125C116.454 89.3827 116.487 88.3919 116.794 87.4654C117.102 86.5389 117.668 85.7183 118.423 85.1077C119.178 84.497 120.087 84.1237 121.035 84.0349C121.983 83.9461 122.927 84.1459 123.749 84.6089C124.57 85.072 125.231 85.7775 125.648 86.6361C126.066 87.4947 126.221 88.4679 126.093 89.4325C125.966 90.397 125.563 91.3096 124.934 92.0546C124.305 92.7997 123.479 93.3437 122.56 93.6179C121.952 93.8011 121.317 93.861 120.693 93.7939C120.068 93.7269 119.467 93.5344 118.922 93.2273C118.378 92.9203 117.901 92.5048 117.519 92.0046C117.138 91.5044 116.859 90.9294 116.698 90.3125Z" fill="#FF2727"/>
</g>
</g>
<g style="mix-blend-mode:multiply">
<g style="mix-blend-mode:multiply">
<path d="M100.28 94.877C100.036 93.9473 100.07 92.9565 100.377 92.03C100.684 91.1035 101.251 90.283 102.006 89.6723C102.761 89.0617 103.67 88.6883 104.618 88.5995C105.566 88.5107 106.51 88.7105 107.331 89.1735C108.152 89.6366 108.813 90.3421 109.231 91.2007C109.648 92.0593 109.803 93.0324 109.676 93.997C109.549 94.9615 109.145 95.8741 108.516 96.6191C107.887 97.3641 107.061 97.9082 106.143 98.1823C104.914 98.5492 103.606 98.4073 102.507 97.7876C101.408 97.168 100.607 96.1213 100.28 94.877Z" fill="#FF2727"/>
</g>
</g>
<g style="mix-blend-mode:multiply">
<g style="mix-blend-mode:multiply">
<path d="M87.257 93.351C84.6935 94.1162 83.1632 96.8416 83.8389 99.4383C84.5147 102.035 87.1406 103.52 89.7041 102.755C92.2676 101.989 93.7979 99.2641 93.1221 96.6673C92.4464 94.0706 89.8205 92.5859 87.257 93.351Z" fill="#FF2727"/>
</g>
</g>
<g style="mix-blend-mode:multiply">
<g style="mix-blend-mode:multiply">
<path d="M70.8089 97.9252C68.2454 98.6903 66.7152 101.416 67.3909 104.013C68.0667 106.609 70.6925 108.094 73.256 107.329C75.8194 106.564 77.3497 103.838 76.6739 101.242C75.9982 98.6448 73.3723 97.16 70.8089 97.9252Z" fill="#FF2727"/>
</g>
</g>
<g style="mix-blend-mode:multiply">
<g style="mix-blend-mode:multiply">
<path d="M50.9655 108.592C50.7212 107.662 50.7549 106.67 51.0624 105.743C51.37 104.817 51.9375 103.996 52.6931 103.385C53.4487 102.775 54.3584 102.402 55.3069 102.314C56.2554 102.226 57.2 102.427 58.021 102.891C58.8421 103.355 59.5027 104.062 59.919 104.922C60.3354 105.782 60.4888 106.756 60.3598 107.72C60.2309 108.685 59.8254 109.598 59.1946 110.342C58.5639 111.086 57.7364 111.628 56.8169 111.9C55.5888 112.267 54.2823 112.124 53.185 111.504C52.0877 110.883 51.2893 109.836 50.9655 108.592Z" fill="#FF2727"/>
</g>
</g>
<g style="mix-blend-mode:multiply">
<g style="mix-blend-mode:multiply">
<path d="M34.5597 113.154C34.3154 112.225 34.349 111.234 34.6561 110.307C34.9632 109.381 35.5301 108.56 36.285 107.95C37.0399 107.339 37.9489 106.966 38.8968 106.877C39.8448 106.788 40.7892 106.988 41.6104 107.451C42.4316 107.914 43.0928 108.619 43.5102 109.478C43.9276 110.337 44.0825 111.31 43.9552 112.274C43.828 113.239 43.4243 114.151 42.7954 114.896C42.1664 115.642 41.3404 116.186 40.422 116.46C39.1928 116.827 37.8854 116.685 36.7864 116.065C35.6874 115.445 34.8866 114.399 34.5597 113.154Z" fill="#FF2727"/>
</g>
</g>
<g style="mix-blend-mode:multiply">
<g style="mix-blend-mode:multiply">
<path d="M18.0773 117.738C17.8327 116.807 17.8668 115.815 18.1752 114.887C18.4836 113.959 19.0524 113.138 19.8094 112.528C20.5664 111.918 21.4776 111.546 22.4271 111.46C23.3767 111.373 24.3218 111.576 25.1426 112.043C25.9633 112.51 26.6227 113.219 27.037 114.081C27.4512 114.943 27.6018 115.919 27.4694 116.884C27.337 117.849 26.9277 118.761 26.2934 119.503C25.6592 120.246 24.8285 120.785 23.907 121.053C22.6813 121.41 21.3811 121.262 20.2894 120.641C19.1977 120.02 18.4027 118.977 18.0773 117.738Z" fill="#FF2727"/>
</g>
</g>
<g style="mix-blend-mode:multiply">
<g style="mix-blend-mode:multiply">
<path d="M180.622 45.484C178.059 46.2492 176.529 48.9745 177.204 51.5712C177.88 54.1679 180.506 55.6526 183.069 54.8874C185.633 54.1222 187.163 51.3969 186.487 48.8003C185.812 46.2036 183.186 44.7189 180.622 45.484Z" fill="#FF2727"/>
</g>
</g>
<g style="mix-blend-mode:multiply">
<g style="mix-blend-mode:multiply">
<path d="M164.184 50.0543C161.62 50.8194 160.09 53.5448 160.766 56.1415C161.442 58.7382 164.068 60.2229 166.631 59.4577C169.194 58.6926 170.725 55.9672 170.049 53.3705C169.373 50.7738 166.747 49.2891 164.184 50.0543Z" fill="#FF2727"/>
</g>
</g>
<g style="mix-blend-mode:multiply">
<g style="mix-blend-mode:multiply">
<path d="M144.327 60.7137C144.085 59.7838 144.121 58.7935 144.43 57.8681C144.739 56.9427 145.307 56.1237 146.062 55.5147C146.818 54.9056 147.727 54.5339 148.674 54.4466C149.622 54.3593 150.566 54.5602 151.386 55.024C152.206 55.4878 152.866 56.1936 153.283 57.0522C153.699 57.9108 153.853 58.8835 153.725 59.8475C153.598 60.8115 153.194 61.7234 152.565 62.4679C151.936 63.2123 151.11 63.756 150.192 64.03C148.961 64.3974 147.652 64.2545 146.552 63.6325C145.452 63.0106 144.652 61.9607 144.327 60.7137Z" fill="#FF2727"/>
</g>
</g>
<g style="mix-blend-mode:multiply">
<g style="mix-blend-mode:multiply">
<path d="M127.889 65.286C127.647 64.3561 127.683 63.3658 127.991 62.4404C128.3 61.5149 128.868 60.6959 129.624 60.0869C130.379 59.4779 131.288 59.1062 132.236 59.0188C133.184 58.9315 134.127 59.1325 134.947 59.5962C135.768 60.06 136.428 60.7658 136.844 61.6244C137.261 62.483 137.415 63.4558 137.287 64.4198C137.159 65.3838 136.755 66.2957 136.126 67.0402C135.498 67.7846 134.672 68.3282 133.754 68.6023C132.523 68.9697 131.214 68.8268 130.114 68.2048C129.014 67.5829 128.213 66.533 127.889 65.286Z" fill="#FF2727"/>
</g>
</g>
<g style="mix-blend-mode:multiply">
<g style="mix-blend-mode:multiply">
<path d="M111.419 69.8661C111.177 68.9361 111.213 67.9458 111.522 67.0204C111.831 66.095 112.399 65.2759 113.154 64.6669C113.91 64.0579 114.819 63.6862 115.766 63.5988C116.714 63.5115 117.657 63.7125 118.478 64.1762C119.298 64.64 119.958 65.3458 120.374 66.2044C120.791 67.063 120.945 68.0358 120.817 68.9998C120.689 69.9638 120.286 70.8757 119.657 71.6202C119.028 72.3647 118.202 72.9083 117.284 73.1823C116.675 73.3659 116.039 73.4256 115.414 73.3581C114.789 73.2906 114.187 73.0972 113.642 72.7891C113.097 72.4809 112.62 72.0641 112.238 71.5625C111.857 71.0609 111.579 70.4843 111.419 69.8661Z" fill="#FF2727"/>
</g>
</g>
<g style="mix-blend-mode:multiply">
<g style="mix-blend-mode:multiply">
<path d="M95.0017 74.4306C94.7597 73.5006 94.7954 72.5104 95.1042 71.5849C95.413 70.6595 95.9811 69.8405 96.7366 69.2315C97.4921 68.6225 98.4012 68.2508 99.3487 68.1634C100.296 68.0761 101.24 68.2771 102.06 68.7408C102.88 69.2046 103.54 69.9104 103.957 70.769C104.373 71.6276 104.527 72.6004 104.4 73.5644C104.272 74.5283 103.868 75.4402 103.239 76.1847C102.61 76.9292 101.785 77.4728 100.867 77.7468C99.6358 78.1142 98.3263 77.9713 97.2264 77.3494C96.1265 76.7275 95.3262 75.6775 95.0017 74.4306Z" fill="#FF2727"/>
</g>
</g>
<g style="mix-blend-mode:multiply">
<g style="mix-blend-mode:multiply">
<path d="M81.9812 72.9157C79.4177 73.6808 77.8874 76.4062 78.5631 79.0029C79.2389 81.5996 81.8648 83.0843 84.4282 82.3191C86.9917 81.5539 88.522 78.8286 87.8463 76.2319C87.1706 73.6352 84.5447 72.1505 81.9812 72.9157Z" fill="#FF2727"/>
</g>
</g>
<g style="mix-blend-mode:multiply">
<g style="mix-blend-mode:multiply">
<path d="M65.5335 77.4897C62.97 78.2549 61.4398 80.9803 62.1155 83.577C62.7913 86.1737 65.4171 87.6585 67.9806 86.8933C70.544 86.1281 72.0743 83.4027 71.3985 80.806C70.7228 78.2093 68.0969 76.7245 65.5335 77.4897Z" fill="#FF2727"/>
</g>
</g>
<g style="mix-blend-mode:multiply">
<g style="mix-blend-mode:multiply">
<path d="M45.6869 88.1454C45.4448 87.215 45.4807 86.2242 45.7899 85.2984C46.0991 84.3726 46.6678 83.5534 47.4241 82.9445C48.1803 82.3357 49.0899 81.9644 50.038 81.8779C50.9861 81.7914 51.93 81.9934 52.75 82.4584C53.5701 82.9234 54.2296 83.6305 54.645 84.4902C55.0604 85.3499 55.213 86.3235 55.0836 87.2878C54.9541 88.2521 54.5485 89.1637 53.9178 89.9072C53.2872 90.6508 52.4601 91.1929 51.5411 91.4649C50.932 91.6466 50.2973 91.705 49.6733 91.6365C49.0492 91.568 48.4481 91.374 47.9044 91.0656C47.3606 90.7573 46.8848 90.3407 46.5043 89.8396C46.1238 89.3385 45.846 88.7627 45.6869 88.1454Z" fill="#FF2727"/>
</g>
</g>
<g style="mix-blend-mode:multiply">
<g style="mix-blend-mode:multiply">
<path d="M29.2809 92.7079C29.0389 91.778 29.0746 90.7877 29.3834 89.8623C29.6922 88.9369 30.2603 88.1179 31.0158 87.5089C31.7713 86.8999 32.6804 86.5282 33.628 86.4408C34.5756 86.3535 35.5191 86.5544 36.3394 87.0182C37.1596 87.482 37.8197 88.1878 38.2362 89.0463C38.6526 89.9049 38.8067 90.8777 38.6789 91.8417C38.5512 92.8057 38.1474 93.7176 37.5185 94.462C36.8897 95.2065 36.0641 95.7501 35.146 96.0241C33.915 96.3916 32.6055 96.2486 31.5056 95.6267C30.4057 95.0048 29.6054 93.9549 29.2809 92.7079Z" fill="#FF2727"/>
</g>
</g>
<g style="mix-blend-mode:multiply">
<g style="mix-blend-mode:multiply">
<path d="M12.7986 97.2919C12.5566 96.362 12.5923 95.3717 12.9011 94.4463C13.2099 93.5208 13.7779 92.7018 14.5335 92.0928C15.289 91.4838 16.198 91.1121 17.1456 91.0248C18.0932 90.9374 19.0367 91.1384 19.857 91.6022C20.6772 92.066 21.3373 92.7717 21.7538 93.6303C22.1702 94.4889 22.3243 95.4617 22.1965 96.4257C22.0688 97.3897 21.665 98.3016 21.0361 99.046C20.4073 99.7905 19.5817 100.334 18.6637 100.608C17.4327 100.976 16.1232 100.833 15.0233 100.211C13.9234 99.5888 13.1231 98.5388 12.7986 97.2919Z" fill="#FF2727"/>
</g>
</g>
<g style="mix-blend-mode:multiply">
<g style="mix-blend-mode:multiply">
<path d="M175.345 25.0424C172.782 25.8076 171.251 28.5329 171.927 31.1297C172.603 33.7264 175.229 35.2112 177.792 34.446C180.356 33.6808 181.886 30.9555 181.21 28.3587C180.534 25.762 177.908 24.2772 175.345 25.0424Z" fill="#FF2727"/>
</g>
</g>
<g style="mix-blend-mode:multiply">
<g style="mix-blend-mode:multiply">
<path d="M158.907 29.6146C156.343 30.3798 154.813 33.1052 155.489 35.702C156.164 38.2987 158.79 39.7835 161.354 39.0183C163.917 38.2531 165.447 35.5277 164.772 32.931C164.096 30.3342 161.47 28.8494 158.907 29.6146Z" fill="#FF2727"/>
</g>
</g>
<g style="mix-blend-mode:multiply">
<g style="mix-blend-mode:multiply">
<path d="M139.05 40.2723C138.808 39.3424 138.844 38.3521 139.153 37.4266C139.461 36.5012 140.029 35.6822 140.785 35.0731C141.54 34.4641 142.45 34.0924 143.397 34.0051C144.345 33.9177 145.288 34.1187 146.108 34.5825C146.929 35.0463 147.589 35.7521 148.005 36.6107C148.422 37.4693 148.576 38.4421 148.448 39.4061C148.32 40.3701 147.916 41.282 147.288 42.0265C146.659 42.7709 145.833 43.3146 144.915 43.5886C143.684 43.9561 142.375 43.8131 141.275 43.1912C140.175 42.5692 139.375 41.5193 139.05 40.2723Z" fill="#FF2727"/>
</g>
</g>
<g style="mix-blend-mode:multiply">
<g style="mix-blend-mode:multiply">
<path d="M122.612 44.8445C122.37 43.9146 122.406 42.9243 122.715 41.9989C123.023 41.0734 123.591 40.2544 124.347 39.6454C125.103 39.0364 126.011 38.6647 126.959 38.5774C127.907 38.49 128.85 38.691 129.67 39.1548C130.491 39.6186 131.151 40.3244 131.567 41.183C131.984 42.0416 132.138 43.0144 132.01 43.9784C131.882 44.9424 131.478 45.8543 130.85 46.5987C130.221 47.3432 129.395 47.8868 128.477 48.1608C127.246 48.5283 125.937 48.3853 124.837 47.7634C123.737 47.1415 122.937 46.0915 122.612 44.8445Z" fill="#FF2727"/>
</g>
</g>
<g style="mix-blend-mode:multiply">
<g style="mix-blend-mode:multiply">
<path d="M106.142 49.4246C105.9 48.4947 105.936 47.5044 106.244 46.579C106.553 45.6535 107.121 44.8345 107.877 44.2255C108.632 43.6164 109.541 43.2447 110.489 43.1574C111.436 43.0701 112.38 43.271 113.2 43.7348C114.02 44.1986 114.681 44.9044 115.097 45.763C115.513 46.6216 115.668 47.5944 115.54 48.5584C115.412 49.5224 115.008 50.4343 114.379 51.1788C113.751 51.9233 112.925 52.4669 112.007 52.7409C110.776 53.1084 109.466 52.9654 108.367 52.3435C107.267 51.7216 106.466 50.6716 106.142 49.4246Z" fill="#FF2727"/>
</g>
</g>
<g style="mix-blend-mode:multiply">
<g style="mix-blend-mode:multiply">
<path d="M89.7244 53.991C89.4824 53.0611 89.5181 52.0708 89.8269 51.1453C90.1357 50.2199 90.7037 49.4008 91.4592 48.7918C92.2148 48.1828 93.1238 47.8111 94.0714 47.7237C95.0189 47.6364 95.9625 47.8373 96.7827 48.3012C97.603 48.765 98.2631 49.4707 98.6795 50.3294C99.096 51.188 99.25 52.1608 99.1223 53.1248C98.9946 54.0888 98.5908 55.0007 97.9619 55.7452C97.3331 56.4897 96.5075 57.0333 95.5895 57.3074C94.3585 57.6748 93.049 57.5319 91.9491 56.9099C90.8492 56.288 90.0489 55.238 89.7244 53.991Z" fill="#FF2727"/>
</g>
</g>
<g style="mix-blend-mode:multiply">
<g style="mix-blend-mode:multiply">
<path d="M76.7038 52.4741C74.1404 53.2393 72.6101 55.9647 73.2858 58.5614C73.9616 61.1581 76.5875 62.6429 79.1509 61.8777C81.7144 61.1125 83.2447 58.3871 82.5689 55.7904C81.8932 53.1937 79.2673 51.7089 76.7038 52.4741Z" fill="#FF2727"/>
</g>
</g>
<g style="mix-blend-mode:multiply">
<g style="mix-blend-mode:multiply">
<path d="M60.2561 57.0484C57.6927 57.8135 56.1624 60.5389 56.8382 63.1356C57.5139 65.7323 60.1398 67.217 62.7032 66.4519C65.2667 65.6867 66.7969 62.9614 66.1212 60.3646C65.4454 57.7679 62.8196 56.2832 60.2561 57.0484Z" fill="#FF2727"/>
</g>
</g>
<g style="mix-blend-mode:multiply">
<g style="mix-blend-mode:multiply">
<path d="M40.4095 67.7039C40.1673 66.7735 40.2032 65.7827 40.5124 64.8568C40.8216 63.931 41.3904 63.1118 42.1466 62.5029C42.9028 61.894 43.8125 61.5228 44.7606 61.4362C45.7087 61.3497 46.6525 61.5518 47.4726 62.0168C48.2927 62.4818 48.9523 63.1889 49.3677 64.0486C49.7831 64.9083 49.9357 65.882 49.8062 66.8463C49.6768 67.8106 49.2711 68.7222 48.6405 69.4658C48.0099 70.2094 47.1827 70.7515 46.2637 71.0235C45.0338 71.3875 43.7268 71.2424 42.6293 70.6201C41.5318 69.9977 40.7335 68.949 40.4095 67.7039Z" fill="#FF2727"/>
</g>
</g>
<g style="mix-blend-mode:multiply">
<g style="mix-blend-mode:multiply">
<path d="M24.004 72.2664C23.762 71.3365 23.7976 70.3462 24.1064 69.4207C24.4152 68.4953 24.9833 67.6763 25.7388 67.0673C26.4944 66.4582 27.4034 66.0865 28.351 65.9992C29.2986 65.9119 30.2422 66.1128 31.0625 66.5766C31.8827 67.0404 32.5428 67.7462 32.9593 68.6048C33.3757 69.4634 33.5298 70.4362 33.4021 71.4002C33.2743 72.3642 32.8705 73.2761 32.2416 74.0206C31.6128 74.7651 30.7872 75.3087 29.8692 75.5827C28.6381 75.9502 27.3286 75.8072 26.2287 75.1853C25.1287 74.5634 24.3285 73.5134 24.004 72.2664Z" fill="#FF2727"/>
</g>
</g>
<g style="mix-blend-mode:multiply">
<g style="mix-blend-mode:multiply">
<path d="M150.212 15.2645C149.97 14.3346 150.006 13.3443 150.315 12.4188C150.623 11.4934 151.192 10.6744 151.947 10.0653C152.703 9.45632 153.612 9.08468 154.559 8.99734C155.507 8.91001 156.45 9.11091 157.271 9.5747C158.091 10.0385 158.751 10.7443 159.167 11.6029C159.584 12.4615 159.738 13.4343 159.61 14.3983C159.482 15.3623 159.079 16.2742 158.45 17.0186C157.821 17.7631 156.995 18.3068 156.077 18.5808C154.846 18.9482 153.537 18.8052 152.437 18.1833C151.337 17.5614 150.537 16.5115 150.212 15.2645Z" fill="#FF2727"/>
</g>
</g>
<g style="mix-blend-mode:multiply">
<g style="mix-blend-mode:multiply">
<path d="M133.774 19.8368C133.532 18.9069 133.567 17.9166 133.876 16.9912C134.185 16.0657 134.753 15.2467 135.509 14.6377C136.264 14.0287 137.173 13.657 138.121 13.5697C139.068 13.4823 140.012 13.6832 140.832 14.147C141.652 14.6108 142.312 15.3166 142.729 16.1752C143.145 17.0338 143.299 18.0066 143.172 18.9706C143.044 19.9346 142.64 20.8465 142.011 21.5909C141.382 22.3354 140.557 22.879 139.639 23.1531C138.408 23.5205 137.098 23.3775 135.998 22.7556C134.898 22.1337 134.098 21.0838 133.774 19.8368Z" fill="#FF2727"/>
</g>
</g>
<g style="mix-blend-mode:multiply">
<g style="mix-blend-mode:multiply">
<path d="M117.336 24.4071C117.094 23.4772 117.13 22.4869 117.438 21.5615C117.747 20.636 118.315 19.817 119.071 19.208C119.826 18.599 120.735 18.2273 121.683 18.14C122.63 18.0527 123.574 18.2536 124.394 18.7174C125.214 19.1812 125.874 19.8869 126.291 20.7455C126.707 21.6041 126.861 22.5769 126.734 23.5409C126.606 24.5049 126.202 25.4168 125.573 26.1612C124.944 26.9057 124.119 27.4493 123.201 27.7233C121.97 28.0908 120.66 27.9478 119.56 27.3259C118.461 26.704 117.66 25.6541 117.336 24.4071Z" fill="#FF2727"/>
</g>
</g>
<g style="mix-blend-mode:multiply">
<g style="mix-blend-mode:multiply">
<path d="M100.866 28.9872C100.624 28.0573 100.659 27.067 100.968 26.1416C101.277 25.2161 101.845 24.3971 102.6 23.7881C103.356 23.1791 104.265 22.8074 105.213 22.7201C106.16 22.6327 107.104 22.8336 107.924 23.2974C108.744 23.7612 109.404 24.467 109.821 25.3256C110.237 26.1842 110.391 27.157 110.263 28.121C110.136 29.085 109.732 29.9969 109.103 30.7413C108.474 31.4858 107.649 32.0294 106.731 32.3035C105.5 32.6709 104.19 32.5279 103.09 31.906C101.99 31.2841 101.19 30.2342 100.866 28.9872Z" fill="#FF2727"/>
</g>
</g>
<g style="mix-blend-mode:multiply">
<g style="mix-blend-mode:multiply">
<path d="M84.4485 33.5536C84.2065 32.6237 84.2422 31.6334 84.551 30.7079C84.8598 29.7825 85.4278 28.9635 86.1834 28.3545C86.9389 27.7454 87.8479 27.3738 88.7955 27.2864C89.7431 27.1991 90.6866 27.4 91.5069 27.8638C92.3271 28.3276 92.9872 29.0334 93.4037 29.892C93.8201 30.7506 93.9742 31.7234 93.8464 32.6874C93.7187 33.6514 93.3149 34.5633 92.686 35.3077C92.0572 36.0522 91.2316 36.5958 90.3136 36.8698C89.0826 37.2373 87.7731 37.0943 86.6732 36.4724C85.5732 35.8505 84.773 34.8006 84.4485 33.5536Z" fill="#FF2727"/>
</g>
</g>
<g style="mix-blend-mode:multiply">
<g style="mix-blend-mode:multiply">
<path d="M68.0099 38.124C67.7679 37.1941 67.8036 36.2038 68.1124 35.2784C68.4212 34.3529 68.9893 33.5339 69.7449 32.9249C70.5004 32.3159 71.4094 31.9442 72.357 31.8569C73.3046 31.7696 74.2482 31.9704 75.0684 32.4342C75.8887 32.898 76.5487 33.6038 76.9652 34.4624C77.3816 35.3209 77.5357 36.2938 77.408 37.2577C77.2803 38.2217 76.8764 39.1336 76.2475 39.8781C75.6187 40.6225 74.793 41.1661 73.875 41.4402C72.644 41.8076 71.3345 41.6647 70.2346 41.0427C69.1346 40.4208 68.3344 39.371 68.0099 38.124Z" fill="#FF2727"/>
</g>
</g>
<g style="mix-blend-mode:multiply">
<g style="mix-blend-mode:multiply">
<path d="M51.5716 42.6962C51.3296 41.7663 51.3652 40.776 51.674 39.8505C51.9828 38.9251 52.5509 38.1061 53.3064 37.4971C54.0619 36.8881 54.971 36.5164 55.9186 36.4291C56.8662 36.3417 57.8097 36.5427 58.63 37.0064C59.4502 37.4702 60.1103 38.176 60.5267 39.0346C60.9431 39.8932 61.0973 40.866 60.9695 41.83C60.8418 42.794 60.438 43.7058 59.8091 44.4503C59.1803 45.1948 58.3546 45.7384 57.4366 46.0124C56.2056 46.3799 54.8961 46.2369 53.7961 45.615C52.6962 44.9931 51.8961 43.9432 51.5716 42.6962Z" fill="#FF2727"/>
</g>
</g>
<g style="mix-blend-mode:multiply">
<g style="mix-blend-mode:multiply">
<path d="M35.1331 47.2665C34.891 46.3361 34.9268 45.3452 35.2361 44.4194C35.5453 43.4936 36.114 42.6743 36.8702 42.0654C37.6265 41.4565 38.5362 41.0854 39.4843 40.9989C40.4324 40.9123 41.3762 41.1143 42.1963 41.5794C43.0164 42.0444 43.6759 42.7515 44.0913 43.6112C44.5067 44.4709 44.6593 45.4445 44.5299 46.4088C44.4004 47.3731 43.9947 48.2847 43.3641 49.0283C42.7335 49.7719 41.9063 50.314 40.9873 50.586C39.7574 50.95 38.4504 50.8049 37.3529 50.1826C36.2554 49.5603 35.4571 48.5116 35.1331 47.2665Z" fill="#FF2727"/>
</g>
</g>
<g style="mix-blend-mode:multiply">
<g style="mix-blend-mode:multiply">
<path d="M18.7277 51.8291C18.4857 50.8992 18.5214 49.9088 18.8302 48.9834C19.139 48.058 19.707 47.239 20.4626 46.6299C21.2181 46.0209 22.1272 45.6492 23.0748 45.5619C24.0224 45.4745 24.9659 45.6755 25.7862 46.1392C26.6064 46.603 27.2665 47.3088 27.683 48.1674C28.0994 49.026 28.2535 49.9988 28.1257 50.9628C27.998 51.9268 27.5942 52.8387 26.9653 53.5831C26.3364 54.3276 25.5108 54.8712 24.5928 55.1453C23.3618 55.5127 22.0523 55.3697 20.9523 54.7478C19.8524 54.1259 19.0522 53.076 18.7277 51.8291Z" fill="#FF2727"/>
</g>
</g>
<g style="mix-blend-mode:multiply">
<g style="mix-blend-mode:multiply">
<path d="M62.7345 17.6903C62.4925 16.7604 62.5282 15.7701 62.837 14.8447C63.1458 13.9193 63.7139 13.1002 64.4695 12.4911C65.225 11.8821 66.134 11.5105 67.0816 11.4231C68.0292 11.3358 68.9728 11.5367 69.793 12.0004C70.6133 12.4642 71.2733 13.1701 71.6898 14.0287C72.1062 14.8873 72.2603 15.86 72.1326 16.824C72.0049 17.788 71.601 18.7 70.9721 19.4445C70.3433 20.189 69.5177 20.7326 68.5997 21.0066C67.3686 21.3741 66.0591 21.2311 64.9592 20.6092C63.8593 19.9872 63.059 18.9373 62.7345 17.6903Z" fill="#FF2727"/>
</g>
</g>
<g style="mix-blend-mode:multiply">
<g style="mix-blend-mode:multiply">
<path d="M46.2962 22.2626C46.0542 21.3327 46.0898 20.3424 46.3987 19.417C46.7075 18.4916 47.2755 17.6725 48.031 17.0635C48.7866 16.4544 49.6956 16.0828 50.6432 15.9954C51.5908 15.9081 52.5343 16.109 53.3546 16.5728C54.1748 17.0366 54.8349 17.7424 55.2513 18.601C55.6678 19.4596 55.8219 20.4323 55.6941 21.3963C55.5664 22.3603 55.1626 23.2722 54.5337 24.0167C53.9049 24.7612 53.0792 25.3048 52.1612 25.5789C50.9302 25.9463 49.6207 25.8033 48.5208 25.1814C47.4208 24.5595 46.6207 23.5096 46.2962 22.2626Z" fill="#FF2727"/>
</g>
</g>
<g style="mix-blend-mode:multiply">
<g style="mix-blend-mode:multiply">
<path d="M29.8577 26.8328C29.6156 25.9024 29.6515 24.9117 29.9607 23.9858C30.2699 23.06 30.8386 22.2408 31.5948 21.6319C32.3511 21.023 33.2608 20.6518 34.2089 20.5653C35.157 20.4788 36.1008 20.6809 36.9209 21.1459C37.741 21.6109 38.4005 22.3179 38.8159 23.1776C39.2313 24.0373 39.3839 25.0109 39.2545 25.9752C39.125 26.9395 38.7193 27.8511 38.0887 28.5947C37.4581 29.3382 36.6309 29.8804 35.7119 30.1524C34.482 30.5163 33.175 30.3712 32.0775 29.7489C30.98 29.1266 30.1817 28.0779 29.8577 26.8328Z" fill="#FF2727"/>
</g>
</g>
<g style="mix-blend-mode:multiply">
<g style="mix-blend-mode:multiply">
<path d="M13.4523 31.3954C13.2103 30.4655 13.246 29.4752 13.5548 28.5498C13.8636 27.6243 14.4316 26.8053 15.1872 26.1963C15.9427 25.5872 16.8518 25.2156 17.7994 25.1282C18.7469 25.0409 19.6905 25.2418 20.5107 25.7056C21.331 26.1694 21.9911 26.8752 22.4076 27.7338C22.824 28.5924 22.9781 29.5652 22.8503 30.5292C22.7226 31.4931 22.3188 32.4051 21.6899 33.1495C21.0611 33.894 20.2355 34.4376 19.3174 34.7116C18.0864 35.0791 16.7769 34.9361 15.677 34.3142C14.5771 33.6923 13.7768 32.6423 13.4523 31.3954Z" fill="#FF2727"/>
</g>
</g>
</g>
</g>
</g>
</svg>
