<svg width="127" height="175" viewBox="0 0 127 175" fill="none" xmlns="http://www.w3.org/2000/svg">
<mask id="mask0" mask-type="alpha" maskUnits="userSpaceOnUse" x="23" y="23" width="131" height="128">
<ellipse cx="88.358" cy="87.2528" rx="62.9679" ry="65.3532" transform="rotate(-59.8968 88.358 87.2528)" fill="#C4C4C4"/>
</mask>
<g mask="url(#mask0)">
<g style="mix-blend-mode:multiply">
<g style="mix-blend-mode:multiply">
<g style="mix-blend-mode:multiply">
<g style="mix-blend-mode:multiply">
<path d="M20.136 49.6038C20.8065 49.9905 21.3515 50.5603 21.7019 51.2409C22.0523 51.9216 22.1923 52.6826 22.1043 53.4275C22.0163 54.1724 21.7042 54.8678 21.2075 55.4256C20.7108 55.9835 20.0519 56.3787 19.314 56.5613C18.5762 56.7439 17.7927 56.7056 17.0627 56.4513C16.3327 56.197 15.689 55.7382 15.213 55.1328C14.7371 54.5274 14.4504 53.8028 14.3892 53.0505C14.3279 52.2983 14.4949 51.5524 14.869 50.9071C15.3696 50.0436 16.2053 49.4215 17.1927 49.1771C18.1801 48.9328 19.2386 49.0862 20.136 49.6038Z" fill="#5642CF"/>
</g>
</g>
<g style="mix-blend-mode:multiply">
<g style="mix-blend-mode:multiply">
<path d="M26.8548 38.0158C27.5253 38.4025 28.0703 38.9723 28.4207 39.653C28.7711 40.3337 28.9111 41.0946 28.8231 41.8395C28.7351 42.5844 28.423 43.2799 27.9263 43.8377C27.4296 44.3956 26.7706 44.7908 26.0328 44.9734C25.295 45.156 24.5115 45.1177 23.7814 44.8634C23.0514 44.6091 22.4077 44.1503 21.9318 43.5449C21.4559 42.9395 21.1692 42.2148 21.1079 41.4626C21.0467 40.7104 21.2137 39.9645 21.5878 39.3192C22.0884 38.4557 22.9241 37.8335 23.9115 37.5891C24.8989 37.3448 25.9574 37.4982 26.8548 38.0158Z" fill="#5642CF"/>
</g>
</g>
<g style="mix-blend-mode:multiply">
<g style="mix-blend-mode:multiply">
<path d="M33.573 26.428C34.2436 26.8148 34.7885 27.3845 35.1389 28.0652C35.4893 28.7458 35.6294 29.5067 35.5414 30.2517C35.4534 30.9966 35.1413 31.692 34.6445 32.2499C34.1478 32.8077 33.4889 33.203 32.7511 33.3856C32.0132 33.5681 31.2297 33.5298 30.4997 33.2756C29.7697 33.0213 29.126 32.5624 28.6501 31.957C28.1742 31.3516 27.8874 30.627 27.8262 29.8748C27.7649 29.1226 27.9319 28.3766 28.306 27.7313C28.5531 27.3029 28.8853 26.9292 29.2839 26.6318C29.6825 26.3343 30.1395 26.1188 30.6287 25.9977C31.118 25.8767 31.6298 25.8524 32.135 25.9262C32.6403 26 33.1289 26.1706 33.573 26.428Z" fill="#5642CF"/>
</g>
</g>
<g style="mix-blend-mode:multiply">
<g style="mix-blend-mode:multiply">
<path d="M21.1197 81.1514C21.7891 81.5395 22.3326 82.1101 22.6814 82.7911C23.0303 83.4721 23.1688 84.2329 23.0795 84.9773C22.9903 85.7216 22.6772 86.4161 22.1799 86.973C21.6826 87.5298 21.0234 87.9239 20.2857 88.1055C19.5479 88.2872 18.7648 88.2481 18.0353 87.9933C17.3058 87.7385 16.6627 87.2794 16.1874 86.674C15.712 86.0687 15.4257 85.3443 15.3647 84.5924C15.3037 83.8405 15.4707 83.095 15.8446 82.4501C16.346 81.5853 17.1834 80.9626 18.1727 80.719C19.162 80.4755 20.222 80.631 21.1197 81.1514Z" fill="#5642CF"/>
</g>
</g>
<g style="mix-blend-mode:multiply">
<g style="mix-blend-mode:multiply">
<path d="M27.8511 69.5401C28.5205 69.9282 29.064 70.4988 29.4129 71.1798C29.7617 71.8608 29.9003 72.6216 29.811 73.3659C29.7217 74.1103 29.4086 74.8048 28.9113 75.3616C28.414 75.9185 27.7548 76.3126 27.0171 76.4942C26.2794 76.6758 25.4962 76.6368 24.7667 76.382C24.0373 76.1272 23.3942 75.668 22.9188 75.0627C22.4435 74.4573 22.1572 73.7329 22.0962 72.9811C22.0352 72.2292 22.2021 71.4837 22.576 70.8388C22.8234 70.4097 23.1564 70.0355 23.5557 69.7378C23.9551 69.4401 24.413 69.2248 24.9031 69.1041C25.3933 68.9835 25.906 68.9599 26.412 69.0347C26.9179 69.1095 27.4069 69.2813 27.8511 69.5401Z" fill="#5642CF"/>
</g>
</g>
<g style="mix-blend-mode:multiply">
<g style="mix-blend-mode:multiply">
<path d="M34.5611 57.9659C35.2305 58.354 35.774 58.9246 36.1228 59.6056C36.4717 60.2866 36.6103 61.0473 36.521 61.7917C36.4317 62.536 36.1186 63.2306 35.6213 63.7874C35.124 64.3442 34.4648 64.7384 33.7271 64.92C32.9893 65.1016 32.2062 65.0626 31.4767 64.8078C30.7472 64.553 30.1041 64.0938 29.6288 63.4885C29.1534 62.8831 28.8671 62.1587 28.8061 61.4068C28.7451 60.655 28.9121 59.9095 29.286 59.2645C29.7874 58.3997 30.6248 57.777 31.6141 57.5335C32.6034 57.2899 33.6634 57.4455 34.5611 57.9659Z" fill="#5642CF"/>
</g>
</g>
<g style="mix-blend-mode:multiply">
<g style="mix-blend-mode:multiply">
<path d="M41.2794 46.3779C41.9488 46.766 42.4923 47.3366 42.8411 48.0176C43.19 48.6986 43.3285 49.4594 43.2392 50.2038C43.15 50.9481 42.8369 51.6426 42.3396 52.1995C41.8423 52.7563 41.183 53.1505 40.4453 53.3321C39.7076 53.5138 38.9244 53.4747 38.195 53.2199C37.4655 52.9651 36.8224 52.506 36.347 51.9006C35.8717 51.2952 35.5854 50.5708 35.5244 49.8189C35.4634 49.0671 35.6304 48.3215 36.0043 47.6766C36.5057 46.8118 37.3431 46.1891 38.3324 45.9455C39.3217 45.702 40.3818 45.8575 41.2794 46.3779Z" fill="#5642CF"/>
</g>
</g>
<g style="mix-blend-mode:multiply">
<g style="mix-blend-mode:multiply">
<path d="M47.9981 34.7901C48.6675 35.1782 49.211 35.7488 49.5598 36.4298C49.9087 37.1108 50.0473 37.8716 49.958 38.6159C49.8687 39.3603 49.5556 40.0548 49.0583 40.6117C48.561 41.1685 47.9018 41.5626 47.1641 41.7443C46.4263 41.9259 45.6432 41.8868 44.9137 41.632C44.1842 41.3772 43.5411 40.9181 43.0658 40.3127C42.5904 39.7074 42.3041 38.983 42.2431 38.2311C42.1821 37.4792 42.3491 36.7337 42.723 36.0887C42.9704 35.6596 43.3033 35.2855 43.7027 34.9878C44.102 34.6902 44.56 34.4748 45.0501 34.3541C45.5403 34.2334 46.053 34.2099 46.5589 34.2847C47.0648 34.3595 47.5539 34.5313 47.9981 34.7901Z" fill="#5642CF"/>
</g>
</g>
<g style="mix-blend-mode:multiply">
<g style="mix-blend-mode:multiply">
<path d="M54.7159 23.2022C55.3856 23.5905 55.9293 24.1615 56.2781 24.843C56.6269 25.5244 56.7652 26.2856 56.6755 27.0303C56.5857 27.7749 56.2719 28.4695 55.7739 29.0262C55.2758 29.5829 54.6158 29.9765 53.8775 30.1574C53.1391 30.3382 52.3556 30.2982 51.6261 30.0422C50.8966 29.7862 50.2539 29.3259 49.7793 28.7194C49.3048 28.113 49.0197 27.3877 48.9603 26.6354C48.9008 25.8831 49.0696 25.1376 49.4452 24.4933C49.6933 24.0654 50.0265 23.6925 50.4258 23.396C50.8251 23.0994 51.2826 22.8851 51.7722 22.7652C52.2618 22.6452 52.7739 22.6221 53.279 22.6971C53.7841 22.7721 54.2724 22.9438 54.7159 23.2022Z" fill="#5642CF"/>
</g>
</g>
<g style="mix-blend-mode:multiply">
<g style="mix-blend-mode:multiply">
<path d="M22.0824 112.677C22.7518 113.065 23.2952 113.635 23.6441 114.316C23.9929 114.997 24.1314 115.758 24.0421 116.502C23.9528 117.247 23.6398 117.941 23.1425 118.498C22.6452 119.055 21.9859 119.449 21.2482 119.631C20.5105 119.812 19.7274 119.773 18.998 119.519C18.2685 119.264 17.6255 118.805 17.1501 118.199C16.6748 117.594 16.3885 116.87 16.3275 116.118C16.2666 115.366 16.4336 114.62 16.8075 113.975C17.3089 113.111 18.1463 112.488 19.1356 112.244C20.1248 112.001 21.1848 112.156 22.0824 112.677Z" fill="#5642CF"/>
</g>
</g>
<g style="mix-blend-mode:multiply">
<g style="mix-blend-mode:multiply">
<path d="M28.8007 101.087C29.47 101.475 30.0135 102.046 30.3623 102.727C30.7111 103.408 30.8497 104.168 30.7604 104.913C30.6711 105.657 30.358 106.352 29.8607 106.908C29.3634 107.465 28.7042 107.859 27.9665 108.041C27.2288 108.223 26.4457 108.184 25.7162 107.929C24.9868 107.674 24.3437 107.215 23.8684 106.61C23.3931 106.004 23.1068 105.28 23.0458 104.528C22.9848 103.776 23.1519 103.031 23.5258 102.386C24.0272 101.521 24.8646 100.898 25.8538 100.655C26.8431 100.411 27.9031 100.566 28.8007 101.087Z" fill="#5642CF"/>
</g>
</g>
<g style="mix-blend-mode:multiply">
<g style="mix-blend-mode:multiply">
<path d="M35.5189 89.499C36.1883 89.8871 36.7317 90.4577 37.0806 91.1386C37.4294 91.8196 37.5679 92.5804 37.4787 93.3248C37.3894 94.0691 37.0763 94.7636 36.579 95.3204C36.0817 95.8773 35.4225 96.2714 34.6848 96.453C33.9471 96.6347 33.164 96.5956 32.4345 96.3409C31.705 96.0861 31.062 95.6269 30.5867 95.0216C30.1114 94.4163 29.8251 93.6919 29.7641 92.94C29.7031 92.1882 29.8701 91.4427 30.244 90.7977C30.7454 89.9329 31.5828 89.3102 32.5721 89.0667C33.5613 88.8231 34.6213 88.9786 35.5189 89.499Z" fill="#5642CF"/>
</g>
</g>
<g style="mix-blend-mode:multiply">
<g style="mix-blend-mode:multiply">
<path d="M42.2504 77.8877C42.9197 78.2757 43.4632 78.8463 43.812 79.5273C44.1608 80.2083 44.2994 80.969 44.2101 81.7134C44.1208 82.4577 43.8077 83.1523 43.3104 83.7091C42.8131 84.2659 42.1539 84.6601 41.4162 84.8417C40.6785 85.0233 39.8954 84.9843 39.1659 84.7295C38.4365 84.4747 37.7935 84.0156 37.3181 83.4103C36.8428 82.8049 36.5565 82.0806 36.4955 81.3287C36.4345 80.5769 36.6015 79.8314 36.9755 79.1864C37.4768 78.3216 38.3143 77.6989 39.3035 77.4553C40.2928 77.2118 41.3528 77.3673 42.2504 77.8877Z" fill="#5642CF"/>
</g>
</g>
<g style="mix-blend-mode:multiply">
<g style="mix-blend-mode:multiply">
<path d="M48.9603 66.3154C49.6297 66.7034 50.1732 67.2741 50.522 67.955C50.8708 68.636 51.0094 69.3968 50.9201 70.1411C50.8308 70.8855 50.5177 71.58 50.0204 72.1368C49.5231 72.6937 48.8639 73.0878 48.1262 73.2694C47.3885 73.4511 46.6054 73.4121 45.8759 73.1573C45.1465 72.9025 44.5034 72.4434 44.0281 71.838C43.5528 71.2327 43.2665 70.5083 43.2055 69.7564C43.1445 69.0046 43.3115 68.2591 43.6854 67.6141C44.1868 66.7493 45.0243 66.1266 46.0135 65.8831C47.0027 65.6395 48.0627 65.795 48.9603 66.3154Z" fill="#5642CF"/>
</g>
</g>
<g style="mix-blend-mode:multiply">
<g style="mix-blend-mode:multiply">
<path d="M55.6786 54.7255C56.348 55.1135 56.8915 55.6841 57.2403 56.3651C57.5891 57.0461 57.7276 57.8069 57.6384 58.5513C57.5491 59.2956 57.236 59.9901 56.7387 60.547C56.2414 61.1038 55.5821 61.498 54.8444 61.6796C54.1067 61.8613 53.3236 61.8222 52.5942 61.5674C51.8647 61.3126 51.2217 60.8535 50.7463 60.2482C50.271 59.6429 49.9848 58.9184 49.9238 58.1666C49.8628 57.4147 50.0298 56.6692 50.4037 56.0243C50.9051 55.1594 51.7426 54.5367 52.7318 54.2931C53.721 54.0496 54.781 54.2051 55.6786 54.7255Z" fill="#5642CF"/>
</g>
</g>
<g style="mix-blend-mode:multiply">
<g style="mix-blend-mode:multiply">
<path d="M62.3973 43.1377C63.0667 43.5257 63.6102 44.0963 63.959 44.7773C64.3078 45.4583 64.4464 46.219 64.3571 46.9634C64.2678 47.7078 63.9547 48.4023 63.4574 48.9591C62.9601 49.516 62.3009 49.9101 61.5632 50.0917C60.8255 50.2734 60.0424 50.2343 59.3129 49.9795C58.5835 49.7247 57.9404 49.2657 57.4651 48.6603C56.9898 48.055 56.7035 47.3306 56.6425 46.5787C56.5815 45.8269 56.7485 45.0813 57.1224 44.4364C57.6238 43.5716 58.4613 42.9489 59.4505 42.7053C60.4398 42.4617 61.4997 42.6173 62.3973 43.1377Z" fill="#5642CF"/>
</g>
</g>
<g style="mix-blend-mode:multiply">
<g style="mix-blend-mode:multiply">
<path d="M69.1151 31.5498C69.7848 31.938 70.3285 32.509 70.6773 33.1905C71.0261 33.8719 71.1644 34.6331 71.0746 35.3778C70.9848 36.1224 70.671 36.817 70.173 37.3737C69.6749 37.9303 69.0149 38.324 68.2766 38.5049C67.5383 38.6858 66.7548 38.6457 66.0253 38.3898C65.2958 38.1338 64.6532 37.6735 64.1787 37.067C63.7042 36.4606 63.4191 35.7354 63.3597 34.9831C63.3002 34.2308 63.469 33.4853 63.8446 32.8409C64.3474 31.9786 65.1846 31.3584 66.1726 31.1164C67.1607 30.8743 68.2189 31.0302 69.1151 31.5498Z" fill="#5642CF"/>
</g>
</g>
<g style="mix-blend-mode:multiply">
<g style="mix-blend-mode:multiply">
<path d="M75.8207 19.9852C76.4901 20.3733 77.0336 20.9439 77.3824 21.6249C77.7312 22.3059 77.8698 23.0666 77.7805 23.811C77.6912 24.5553 77.3781 25.2499 76.8808 25.8067C76.3834 26.3636 75.7243 26.7577 74.9865 26.9394C74.2488 27.121 73.4657 27.082 72.7363 26.8272C72.0068 26.5724 71.3638 26.1133 70.8884 25.5079C70.4131 24.9026 70.1269 24.1782 70.0659 23.4263C70.0049 22.6745 70.1719 21.929 70.5458 21.284C71.0472 20.4192 71.8846 19.7965 72.8739 19.5529C73.8631 19.3093 74.9231 19.4648 75.8207 19.9852Z" fill="#5642CF"/>
</g>
</g>
<g style="mix-blend-mode:multiply">
<g style="mix-blend-mode:multiply">
<path d="M29.7664 132.624C30.4358 133.012 30.9792 133.583 31.3281 134.264C31.6769 134.945 31.8154 135.705 31.7262 136.45C31.6369 137.194 31.3237 137.889 30.8264 138.445C30.3291 139.002 29.67 139.396 28.9323 139.578C28.1946 139.76 27.4114 139.721 26.682 139.466C25.9526 139.211 25.3095 138.752 24.8342 138.147C24.3589 137.541 24.0726 136.817 24.0116 136.065C23.9507 135.313 24.1177 134.568 24.4916 133.923C24.993 133.058 25.8304 132.435 26.8196 132.192C27.8089 131.948 28.8688 132.104 29.7664 132.624Z" fill="#5642CF"/>
</g>
</g>
<g style="mix-blend-mode:multiply">
<g style="mix-blend-mode:multiply">
<path d="M36.4896 121.028C37.1589 121.416 37.7024 121.987 38.0512 122.668C38.4 123.349 38.5386 124.11 38.4493 124.854C38.36 125.598 38.0469 126.293 37.5496 126.85C37.0523 127.406 36.3931 127.801 35.6554 127.982C34.9177 128.164 34.1346 128.125 33.4052 127.87C32.6757 127.615 32.0327 127.156 31.5573 126.551C31.082 125.946 30.7958 125.221 30.7348 124.469C30.6738 123.718 30.8408 122.972 31.2147 122.327C31.7161 121.462 32.5535 120.84 33.5428 120.596C34.532 120.352 35.592 120.508 36.4896 121.028Z" fill="#5642CF"/>
</g>
</g>
<g style="mix-blend-mode:multiply">
<g style="mix-blend-mode:multiply">
<path d="M43.2078 109.44C43.8772 109.828 44.4206 110.399 44.7695 111.08C45.1183 111.761 45.2568 112.522 45.1676 113.266C45.0783 114.01 44.7651 114.705 44.2678 115.262C43.7705 115.819 43.1114 116.213 42.3736 116.394C41.6359 116.576 40.8529 116.537 40.1234 116.282C39.394 116.027 38.7509 115.568 38.2756 114.963C37.8003 114.358 37.514 113.633 37.453 112.881C37.3921 112.13 37.5591 111.384 37.933 110.739C38.4344 109.874 39.2718 109.252 40.261 109.008C41.2503 108.764 42.3103 108.92 43.2078 109.44Z" fill="#5642CF"/>
</g>
</g>
<g style="mix-blend-mode:multiply">
<g style="mix-blend-mode:multiply">
<path d="M49.9261 97.8525C50.5955 98.2405 51.1389 98.8111 51.4877 99.4921C51.8366 100.173 51.9751 100.934 51.8858 101.678C51.7965 102.423 51.4834 103.117 50.9861 103.674C50.4888 104.231 49.8296 104.625 49.0919 104.807C48.3542 104.988 47.5711 104.949 46.8417 104.694C46.1122 104.44 45.4692 103.98 44.9939 103.375C44.5186 102.77 44.2323 102.045 44.1713 101.294C44.1103 100.542 44.2773 99.7962 44.6512 99.1513C45.1526 98.2864 45.9901 97.6637 46.9793 97.4202C47.9685 97.1766 49.0285 97.3321 49.9261 97.8525Z" fill="#5642CF"/>
</g>
</g>
<g style="mix-blend-mode:multiply">
<g style="mix-blend-mode:multiply">
<path d="M56.6575 86.2411C57.3269 86.6292 57.8704 87.1998 58.2192 87.8808C58.568 88.5618 58.7066 89.3225 58.6173 90.0669C58.528 90.8112 58.2148 91.5057 57.7175 92.0626C57.2202 92.6194 56.5611 93.0135 55.8234 93.1952C55.0857 93.3768 54.3026 93.3378 53.5731 93.083C52.8437 92.8282 52.2006 92.3691 51.7253 91.7638C51.25 91.1584 50.9637 90.4341 50.9028 89.6822C50.8418 88.9304 51.0088 88.1849 51.3827 87.5399C51.8841 86.6751 52.7215 86.0524 53.7107 85.8088C54.7 85.5653 55.76 85.7208 56.6575 86.2411Z" fill="#5642CF"/>
</g>
</g>
<g style="mix-blend-mode:multiply">
<g style="mix-blend-mode:multiply">
<path d="M63.3675 74.6669C64.0369 75.055 64.5803 75.6256 64.9291 76.3066C65.278 76.9875 65.4165 77.7483 65.3272 78.4926C65.2379 79.237 64.9248 79.9315 64.4275 80.4883C63.9302 81.0452 63.271 81.4393 62.5333 81.621C61.7956 81.8026 61.0125 81.7636 60.2831 81.5088C59.5536 81.254 58.9106 80.7949 58.4353 80.1896C57.96 79.5842 57.6737 78.8598 57.6127 78.108C57.5517 77.3562 57.7187 76.6106 58.0926 75.9657C58.594 75.1009 59.4315 74.4782 60.4207 74.2346C61.4099 73.991 62.4699 74.1465 63.3675 74.6669Z" fill="#5642CF"/>
</g>
</g>
<g style="mix-blend-mode:multiply">
<g style="mix-blend-mode:multiply">
<path d="M70.0858 63.0789C70.7552 63.467 71.2986 64.0376 71.6475 64.7186C71.9963 65.3996 72.1348 66.1604 72.0455 66.9047C71.9562 67.6491 71.6431 68.3436 71.1458 68.9004C70.6485 69.4573 69.9893 69.8515 69.2516 70.0331C68.5139 70.2147 67.7308 70.1757 67.0013 69.9209C66.2719 69.6661 65.6288 69.207 65.1535 68.6017C64.6782 67.9964 64.392 67.2719 64.331 66.5201C64.27 65.7682 64.437 65.0227 64.8109 64.3778C65.3123 63.5129 66.1498 62.8902 67.139 62.6467C68.1282 62.4031 69.1882 62.5586 70.0858 63.0789Z" fill="#5642CF"/>
</g>
</g>
<g style="mix-blend-mode:multiply">
<g style="mix-blend-mode:multiply">
<path d="M76.8045 51.4911C77.4739 51.8792 78.0173 52.4498 78.3661 53.1308C78.715 53.8118 78.8535 54.5725 78.7642 55.3169C78.6749 56.0612 78.3618 56.7557 77.8645 57.3126C77.3672 57.8694 76.708 58.2636 75.9703 58.4452C75.2326 58.6268 74.4495 58.5878 73.7201 58.333C72.9907 58.0782 72.3476 57.6191 71.8723 57.0138C71.397 56.4085 71.1107 55.6841 71.0497 54.9322C70.9887 54.1804 71.1558 53.4348 71.5297 52.7899C72.0311 51.9251 72.8685 51.3024 73.8577 51.0588C74.847 50.8152 75.9069 50.9708 76.8045 51.4911Z" fill="#5642CF"/>
</g>
</g>
<g style="mix-blend-mode:multiply">
<g style="mix-blend-mode:multiply">
<path d="M83.5223 39.9033C84.192 40.2915 84.7356 40.8625 85.0844 41.5439C85.4332 42.2253 85.5715 42.9866 85.4817 43.7312C85.3919 44.4759 85.0782 45.1705 84.5801 45.7271C84.082 46.2838 83.4221 46.6775 82.6837 46.8583C81.9454 47.0392 81.1619 46.9992 80.4325 46.7432C79.703 46.4873 79.0604 46.0269 78.5859 45.4205C78.1114 44.8141 77.8263 44.0889 77.7669 43.3366C77.7074 42.5843 77.8762 41.8388 78.2519 41.1944C78.7546 40.3321 79.5918 39.7119 80.5798 39.4699C81.5679 39.2278 82.6261 39.3837 83.5223 39.9033Z" fill="#5642CF"/>
</g>
</g>
<g style="mix-blend-mode:multiply">
<g style="mix-blend-mode:multiply">
<path d="M90.2279 28.3368C90.8973 28.7248 91.4407 29.2954 91.7895 29.9764C92.1384 30.6574 92.2769 31.4181 92.1876 32.1625C92.0983 32.9069 91.7852 33.6014 91.2879 34.1582C90.7906 34.7151 90.1314 35.1092 89.3937 35.2909C88.656 35.4725 87.8729 35.4335 87.1434 35.1787C86.414 34.9239 85.771 34.4648 85.2956 33.8595C84.8203 33.2541 84.5341 32.5298 84.4731 31.7779C84.4121 31.0261 84.5791 30.2805 84.953 29.6356C85.4544 28.7707 86.2919 28.148 87.2811 27.9045C88.2703 27.6609 89.3303 27.8164 90.2279 28.3368Z" fill="#5642CF"/>
</g>
</g>
<g style="mix-blend-mode:multiply">
<g style="mix-blend-mode:multiply">
<path d="M96.9637 16.7177C97.6331 17.1058 98.1765 17.6764 98.5253 18.3573C98.8742 19.0383 99.0127 19.7991 98.9234 20.5434C98.8341 21.2878 98.521 21.9823 98.0237 22.5391C97.5264 23.096 96.8672 23.4901 96.1295 23.6717C95.3918 23.8534 94.6087 23.8144 93.8793 23.5596C93.1498 23.3048 92.5068 22.8457 92.0315 22.2403C91.5562 21.635 91.2699 20.9106 91.2089 20.1588C91.1479 19.4069 91.3149 18.6614 91.6888 18.0165C92.1902 17.1517 93.0277 16.529 94.0169 16.2854C95.0061 16.0418 96.0661 16.1973 96.9637 16.7177Z" fill="#5642CF"/>
</g>
</g>
<g style="mix-blend-mode:multiply">
<g style="mix-blend-mode:multiply">
<path d="M45.6817 146.198C46.7258 144.398 46.0569 142.059 44.1878 140.976C42.3187 139.892 39.9571 140.473 38.913 142.274C37.8689 144.075 38.5377 146.414 40.4068 147.497C42.2759 148.581 44.6376 147.999 45.6817 146.198Z" fill="#5642CF"/>
</g>
</g>
<g style="mix-blend-mode:multiply">
<g style="mix-blend-mode:multiply">
<path d="M52.4004 134.609C53.4445 132.808 52.7757 130.469 50.9066 129.386C49.0374 128.302 46.6758 128.884 45.6317 130.684C44.5876 132.485 45.2564 134.824 47.1256 135.907C48.9947 136.991 51.3563 136.41 52.4004 134.609Z" fill="#5642CF"/>
</g>
</g>
<g style="mix-blend-mode:multiply">
<g style="mix-blend-mode:multiply">
<path d="M57.6146 117.792C58.284 118.18 58.8275 118.751 59.1763 119.432C59.5251 120.113 59.6637 120.873 59.5744 121.618C59.4851 122.362 59.172 123.057 58.6747 123.613C58.1774 124.17 57.5182 124.564 56.7805 124.746C56.0428 124.928 55.2597 124.889 54.5302 124.634C53.8008 124.379 53.1577 123.92 52.6824 123.315C52.207 122.709 51.9208 121.985 51.8598 121.233C51.7988 120.481 51.9658 119.736 52.3397 119.091C52.8411 118.226 53.6785 117.603 54.6678 117.36C55.657 117.116 56.717 117.272 57.6146 117.792Z" fill="#5642CF"/>
</g>
</g>
<g style="mix-blend-mode:multiply">
<g style="mix-blend-mode:multiply">
<path d="M64.3329 106.204C65.0023 106.592 65.5457 107.163 65.8946 107.844C66.2434 108.525 66.3819 109.286 66.2926 110.03C66.2033 110.774 65.8902 111.469 65.3929 112.026C64.8956 112.582 64.2365 112.976 63.4988 113.158C62.761 113.34 61.9779 113.301 61.2485 113.046C60.519 112.791 59.876 112.332 59.4007 111.727C58.9253 111.121 58.6391 110.397 58.5781 109.645C58.5171 108.893 58.6841 108.148 59.058 107.503C59.5594 106.638 60.3968 106.015 61.386 105.772C62.3753 105.528 63.4353 105.684 64.3329 106.204Z" fill="#5642CF"/>
</g>
</g>
<g style="mix-blend-mode:multiply">
<g style="mix-blend-mode:multiply">
<path d="M71.0643 94.5927C71.7337 94.9808 72.2772 95.5514 72.626 96.2324C72.9748 96.9134 73.1134 97.6741 73.0241 98.4185C72.9348 99.1628 72.6217 99.8573 72.1244 100.414C71.6271 100.971 70.9679 101.365 70.2302 101.547C69.4925 101.728 68.7094 101.689 67.9799 101.435C67.2505 101.18 66.6074 100.721 66.1321 100.115C65.6568 99.51 65.3705 98.7856 65.3095 98.0338C65.2485 97.2819 65.4155 96.5364 65.7894 95.8915C66.2908 95.0267 67.1283 94.404 68.1175 94.1604C69.1067 93.9169 70.1667 94.0724 71.0643 94.5927Z" fill="#5642CF"/>
</g>
</g>
<g style="mix-blend-mode:multiply">
<g style="mix-blend-mode:multiply">
<path d="M77.7743 83.0205C78.4437 83.4085 78.9871 83.9791 79.336 84.6601C79.6848 85.3411 79.8234 86.1019 79.7341 86.8462C79.6448 87.5906 79.3317 88.2851 78.8343 88.8419C78.337 89.3988 77.6779 89.7929 76.9402 89.9745C76.2025 90.1562 75.4193 90.1171 74.6899 89.8623C73.9604 89.6076 73.3174 89.1484 72.8421 88.5431C72.3667 87.9378 72.0805 87.2134 72.0195 86.4615C71.9585 85.7097 72.1255 84.9642 72.4994 84.3192C73.0008 83.4544 73.8382 82.8317 74.8275 82.5881C75.8167 82.3446 76.8767 82.5001 77.7743 83.0205Z" fill="#5642CF"/>
</g>
</g>
<g style="mix-blend-mode:multiply">
<g style="mix-blend-mode:multiply">
<path d="M85.9966 76.6594C87.0408 74.8584 86.3719 72.52 84.5028 71.4364C82.6337 70.3527 80.2721 70.9342 79.2279 72.7352C78.1838 74.5361 78.8526 76.8746 80.7218 77.9582C82.5909 79.0418 84.9525 78.4603 85.9966 76.6594Z" fill="#5642CF"/>
</g>
</g>
<g style="mix-blend-mode:multiply">
<g style="mix-blend-mode:multiply">
<path d="M92.7193 65.0657C93.7634 63.2647 93.0945 60.9263 91.2254 59.8427C89.3563 58.7591 86.9947 59.3406 85.9506 61.1415C84.9065 62.9424 85.5753 65.2808 87.4444 66.3644C89.3135 67.4481 91.6752 66.8666 92.7193 65.0657Z" fill="#5642CF"/>
</g>
</g>
<g style="mix-blend-mode:multiply">
<g style="mix-blend-mode:multiply">
<path d="M97.9291 48.2549C98.5988 48.6431 99.1424 49.2141 99.4912 49.8955C99.8401 50.577 99.9783 51.3382 99.8885 52.0828C99.7988 52.8275 99.485 53.5221 98.9869 54.0787C98.4889 54.6354 97.8289 55.0291 97.0906 55.21C96.3522 55.3908 95.5688 55.3508 94.8393 55.0948C94.1098 54.8389 93.4672 54.3785 92.9926 53.7721C92.5181 53.1657 92.2331 52.4404 92.1736 51.6881C92.1142 50.9358 92.2829 50.1903 92.6586 49.546C93.1613 48.6837 93.9985 48.0635 94.9866 47.8214C95.9746 47.5794 97.0329 47.7353 97.9291 48.2549Z" fill="#5642CF"/>
</g>
</g>
<g style="mix-blend-mode:multiply">
<g style="mix-blend-mode:multiply">
<path d="M104.634 36.6903C105.304 37.0784 105.847 37.649 106.196 38.33C106.545 39.0109 106.683 39.7717 106.594 40.5161C106.505 41.2604 106.192 41.955 105.694 42.5118C105.197 43.0686 104.538 43.4628 103.8 43.6444C103.062 43.8261 102.279 43.7871 101.55 43.5323C100.82 43.2775 100.177 42.8184 99.7019 42.213C99.2266 41.6077 98.9403 40.8833 98.8793 40.1314C98.8184 39.3796 98.9854 38.6341 99.3593 37.9891C99.8607 37.1243 100.698 36.5016 101.687 36.258C102.677 36.0144 103.737 36.1699 104.634 36.6903Z" fill="#5642CF"/>
</g>
</g>
<g style="mix-blend-mode:multiply">
<g style="mix-blend-mode:multiply">
<path d="M111.37 25.0712C112.04 25.4593 112.583 26.0299 112.932 26.7109C113.281 27.3919 113.42 28.1526 113.33 28.897C113.241 29.6413 112.928 30.3359 112.431 30.8927C111.933 31.4495 111.274 31.8437 110.536 32.0253C109.799 32.2069 109.016 32.1679 108.286 31.9131C107.557 31.6583 106.914 31.1992 106.438 30.5939C105.963 29.9885 105.677 29.2641 105.616 28.5123C105.555 27.7605 105.722 27.0149 106.096 26.37C106.597 25.5052 107.434 24.8825 108.424 24.6389C109.413 24.3954 110.473 24.5509 111.37 25.0712Z" fill="#5642CF"/>
</g>
</g>
<g style="mix-blend-mode:multiply">
<g style="mix-blend-mode:multiply">
<path d="M60.0896 154.55C61.1337 152.749 60.4648 150.411 58.5956 149.327C56.7265 148.243 54.3648 148.825 53.3207 150.626C52.2766 152.427 52.9454 154.765 54.8146 155.849C56.6838 156.933 59.0455 156.351 60.0896 154.55Z" fill="#5642CF"/>
</g>
</g>
<g style="mix-blend-mode:multiply">
<g style="mix-blend-mode:multiply">
<path d="M66.8079 142.962C67.8519 141.161 67.1831 138.823 65.3139 137.739C63.4447 136.656 61.083 137.237 60.0389 139.038C58.9948 140.839 59.6637 143.177 61.5329 144.261C63.4021 145.345 65.7638 144.763 66.8079 142.962Z" fill="#5642CF"/>
</g>
</g>
<g style="mix-blend-mode:multiply">
<g style="mix-blend-mode:multiply">
<path d="M72.0242 126.147C72.6948 126.534 73.2398 127.103 73.5902 127.784C73.9406 128.465 74.0807 129.226 73.9928 129.971C73.9048 130.715 73.5926 131.411 73.0959 131.969C72.5992 132.527 71.9402 132.922 71.2024 133.104C70.4645 133.287 69.681 133.249 68.951 132.994C68.2209 132.74 67.5772 132.281 67.1013 131.676C66.6254 131.07 66.3386 130.346 66.2774 129.594C66.2161 128.841 66.3831 128.095 66.7572 127.45C67.2578 126.587 68.0935 125.964 69.0809 125.72C70.0683 125.476 71.1268 125.629 72.0242 126.147Z" fill="#5642CF"/>
</g>
</g>
<g style="mix-blend-mode:multiply">
<g style="mix-blend-mode:multiply">
<path d="M78.7425 114.559C79.4131 114.946 79.9581 115.515 80.3085 116.196C80.6589 116.877 80.799 117.638 80.711 118.383C80.623 119.128 80.3109 119.823 79.8142 120.381C79.3175 120.939 78.6585 121.334 77.9207 121.516C77.1828 121.699 76.3993 121.661 75.6692 121.406C74.9392 121.152 74.2955 120.693 73.8196 120.088C73.3436 119.483 73.0569 118.758 72.9956 118.006C72.9344 117.253 73.1014 116.507 73.4755 115.862C73.9761 114.999 74.8117 114.377 75.7992 114.132C76.7866 113.888 77.8451 114.041 78.7425 114.559Z" fill="#5642CF"/>
</g>
</g>
<g style="mix-blend-mode:multiply">
<g style="mix-blend-mode:multiply">
<path d="M85.474 102.948C86.1445 103.334 86.6895 103.904 87.0399 104.585C87.3904 105.265 87.5304 106.026 87.4424 106.771C87.3544 107.516 87.0424 108.212 86.5456 108.77C86.0489 109.327 85.3899 109.723 84.6521 109.905C83.9143 110.088 83.1307 110.049 82.4007 109.795C81.6707 109.541 81.0269 109.082 80.551 108.477C80.0751 107.871 79.7883 107.147 79.7271 106.394C79.6658 105.642 79.8328 104.896 80.2069 104.251C80.4539 103.822 80.7862 103.449 81.1848 103.151C81.5833 102.854 82.0403 102.638 82.5296 102.517C83.0188 102.396 83.5308 102.372 84.036 102.446C84.5412 102.52 85.0299 102.69 85.474 102.948Z" fill="#5642CF"/>
</g>
</g>
<g style="mix-blend-mode:multiply">
<g style="mix-blend-mode:multiply">
<path d="M92.1839 91.3733C92.8545 91.7601 93.3995 92.3299 93.7499 93.0105C94.1003 93.6912 94.2404 94.4522 94.1524 95.1971C94.0644 95.9421 93.7523 96.6374 93.2556 97.1953C92.7589 97.7531 92.0999 98.1484 91.3621 98.3309C90.6242 98.5135 89.8407 98.4752 89.1107 98.2209C88.3806 97.9666 87.7369 97.5078 87.261 96.9024C86.785 96.297 86.4983 95.5723 86.437 94.8201C86.3758 94.0679 86.5428 93.3219 86.9168 92.6767C87.4175 91.8132 88.2531 91.191 89.2406 90.9467C90.228 90.7023 91.2865 90.8558 92.1839 91.3733Z" fill="#5642CF"/>
</g>
</g>
<g style="mix-blend-mode:multiply">
<g style="mix-blend-mode:multiply">
<path d="M100.404 85.013C101.448 83.212 100.779 80.8736 98.9102 79.7899C97.041 78.7063 94.6793 79.2877 93.6352 81.0887C92.5911 82.8896 93.2599 85.2281 95.1291 86.3118C96.9983 87.3954 99.36 86.814 100.404 85.013Z" fill="#5642CF"/>
</g>
</g>
<g style="mix-blend-mode:multiply">
<g style="mix-blend-mode:multiply">
<path d="M107.127 73.4174C108.171 71.6164 107.502 69.278 105.633 68.1943C103.764 67.1107 101.402 67.6921 100.358 69.493C99.3137 71.294 99.9826 73.6324 101.852 74.7161C103.721 75.7997 106.083 75.2183 107.127 73.4174Z" fill="#5642CF"/>
</g>
</g>
<g style="mix-blend-mode:multiply">
<g style="mix-blend-mode:multiply">
<path d="M112.339 56.6097C113.01 56.9966 113.555 57.5668 113.905 58.2479C114.256 58.929 114.395 59.6904 114.307 60.4356C114.218 61.1809 113.906 61.8764 113.408 62.4341C112.911 62.9918 112.251 63.3865 111.513 63.5683C110.774 63.7501 109.99 63.7108 109.26 63.4554C108.53 63.1999 107.887 62.7398 107.412 62.1333C106.936 61.5268 106.651 60.8013 106.591 60.0486C106.531 59.2959 106.7 58.55 107.076 57.9054C107.576 57.0425 108.412 56.4213 109.399 56.1783C110.386 55.9353 111.443 56.0905 112.339 56.6097Z" fill="#5642CF"/>
</g>
</g>
<g style="mix-blend-mode:multiply">
<g style="mix-blend-mode:multiply">
<path d="M119.044 45.0432C119.715 45.4299 120.26 45.9997 120.61 46.6804C120.961 47.361 121.101 48.122 121.013 48.867C120.925 49.6119 120.613 50.3073 120.116 50.8652C119.619 51.423 118.96 51.8183 118.222 52.0009C117.485 52.1834 116.701 52.1451 115.971 51.8908C115.241 51.6365 114.597 51.1777 114.121 50.5723C113.645 49.9669 113.359 49.2422 113.297 48.49C113.236 47.7378 113.403 46.9918 113.777 46.3465C114.278 45.483 115.114 44.8608 116.101 44.6165C117.088 44.3721 118.147 44.5256 119.044 45.0432Z" fill="#5642CF"/>
</g>
</g>
<g style="mix-blend-mode:multiply">
<g style="mix-blend-mode:multiply">
<path d="M125.78 33.4242C126.452 33.8116 126.997 34.3825 127.348 35.0644C127.698 35.7464 127.837 36.5087 127.748 37.2546C127.658 38.0004 127.344 38.6962 126.845 39.2535C126.346 39.8109 125.685 40.2047 124.945 40.3849C124.205 40.5652 123.421 40.5238 122.691 40.266C121.961 40.0082 121.318 39.5457 120.845 38.937C120.371 38.3284 120.088 37.6011 120.031 36.8475C119.975 36.094 120.147 35.3481 120.526 34.7046C121.031 33.8487 121.866 33.234 122.85 32.9942C123.834 32.7544 124.887 32.909 125.78 33.4242Z" fill="#5642CF"/>
</g>
</g>
<g style="mix-blend-mode:multiply">
<g style="mix-blend-mode:multiply">
<path d="M134.005 27.056C135.049 25.2551 134.38 22.9167 132.511 21.833C130.641 20.7494 128.28 21.3308 127.236 23.1317C126.192 24.9326 126.86 27.2711 128.73 28.3547C130.599 29.4384 132.961 28.857 134.005 27.056Z" fill="#5642CF"/>
</g>
</g>
<g style="mix-blend-mode:multiply">
<g style="mix-blend-mode:multiply">
<path d="M81.2135 151.314C82.2576 149.513 81.5888 147.174 79.7196 146.091C77.8505 145.007 75.4888 145.589 74.4447 147.39C73.4006 149.19 74.0694 151.529 75.9386 152.613C77.8078 153.696 80.1694 153.115 81.2135 151.314Z" fill="#5642CF"/>
</g>
</g>
<g style="mix-blend-mode:multiply">
<g style="mix-blend-mode:multiply">
<path d="M86.4379 134.503C87.1072 134.891 87.6507 135.462 87.9995 136.143C88.3484 136.824 88.4869 137.584 88.3976 138.329C88.3083 139.073 87.9952 139.768 87.4979 140.324C87.0006 140.881 86.3414 141.275 85.6037 141.457C84.866 141.639 84.0829 141.6 83.3535 141.345C82.624 141.09 81.9809 140.631 81.5056 140.026C81.0303 139.42 80.744 138.696 80.683 137.944C80.622 137.192 80.7891 136.447 81.163 135.802C81.6644 134.937 82.5018 134.314 83.491 134.071C84.4802 133.827 85.5403 133.983 86.4379 134.503Z" fill="#5642CF"/>
</g>
</g>
<g style="mix-blend-mode:multiply">
<g style="mix-blend-mode:multiply">
<path d="M93.1561 122.915C93.8255 123.303 94.369 123.874 94.7178 124.555C95.0666 125.236 95.2051 125.996 95.1159 126.741C95.0266 127.485 94.7135 128.18 94.2162 128.736C93.7189 129.293 93.0597 129.687 92.322 129.869C91.5843 130.051 90.8012 130.012 90.0717 129.757C89.3423 129.502 88.6992 129.043 88.2239 128.438C87.7486 127.832 87.4623 127.108 87.4013 126.356C87.3403 125.604 87.5073 124.859 87.8812 124.214C88.3826 123.349 89.22 122.726 90.2093 122.483C91.1985 122.239 92.2585 122.395 93.1561 122.915Z" fill="#5642CF"/>
</g>
</g>
<g style="mix-blend-mode:multiply">
<g style="mix-blend-mode:multiply">
<path d="M99.8876 111.304C100.557 111.692 101.1 112.262 101.449 112.943C101.798 113.624 101.937 114.385 101.847 115.129C101.758 115.874 101.445 116.568 100.948 117.125C100.45 117.682 99.7911 118.076 99.0534 118.258C98.3157 118.439 97.5326 118.4 96.8032 118.146C96.0737 117.891 95.4307 117.432 94.9553 116.826C94.48 116.221 94.1937 115.497 94.1328 114.745C94.0718 113.993 94.2388 113.247 94.6127 112.602C94.8601 112.173 95.193 111.799 95.5923 111.501C95.9917 111.204 96.4495 110.988 96.9397 110.868C97.4298 110.747 97.9426 110.723 98.4485 110.798C98.9543 110.873 99.4434 111.045 99.8876 111.304Z" fill="#5642CF"/>
</g>
</g>
<g style="mix-blend-mode:multiply">
<g style="mix-blend-mode:multiply">
<path d="M106.598 99.7294C107.267 100.118 107.81 100.688 108.159 101.369C108.508 102.05 108.647 102.811 108.557 103.555C108.468 104.3 108.155 104.994 107.658 105.551C107.16 106.108 106.501 106.502 105.763 106.684C105.026 106.865 104.243 106.826 103.513 106.571C102.784 106.317 102.141 105.857 101.665 105.252C101.19 104.647 100.904 103.922 100.843 103.171C100.782 102.419 100.949 101.673 101.323 101.028C101.824 100.163 102.661 99.5407 103.651 99.2971C104.64 99.0535 105.7 99.2091 106.598 99.7294Z" fill="#5642CF"/>
</g>
</g>
<g style="mix-blend-mode:multiply">
<g style="mix-blend-mode:multiply">
<path d="M114.81 93.3645C115.854 91.5636 115.185 89.2251 113.316 88.1415C111.447 87.0578 109.085 87.6393 108.041 89.4403C106.997 91.2412 107.666 93.5796 109.535 94.6633C111.404 95.747 113.766 95.1655 114.81 93.3645Z" fill="#5642CF"/>
</g>
</g>
<g style="mix-blend-mode:multiply">
<g style="mix-blend-mode:multiply">
<path d="M121.532 81.7689C122.576 79.9679 121.908 77.6295 120.038 76.5459C118.169 75.4622 115.808 76.0437 114.764 77.8446C113.719 79.6455 114.388 81.9839 116.257 83.0676C118.127 84.1512 120.488 83.5698 121.532 81.7689Z" fill="#5642CF"/>
</g>
</g>
<g style="mix-blend-mode:multiply">
<g style="mix-blend-mode:multiply">
<path d="M126.752 64.9658C127.422 65.3541 127.966 65.9251 128.314 66.6065C128.663 67.2879 128.802 68.0491 128.712 68.7938C128.622 69.5384 128.308 70.233 127.81 70.7897C127.312 71.3464 126.652 71.74 125.914 71.9209C125.175 72.1018 124.392 72.0617 123.663 71.8058C122.933 71.5498 122.29 71.0895 121.816 70.483C121.341 69.8766 121.056 69.1514 120.997 68.3991C120.937 67.6468 121.106 66.9013 121.482 66.2569C121.73 65.8291 122.063 65.4562 122.462 65.1596C122.862 64.8631 123.319 64.6487 123.809 64.5288C124.298 64.4089 124.81 64.3857 125.315 64.4607C125.821 64.5357 126.309 64.7073 126.752 64.9658Z" fill="#5642CF"/>
</g>
</g>
<g style="mix-blend-mode:multiply">
<g style="mix-blend-mode:multiply">
<path d="M133.458 53.3993C134.127 53.7874 134.671 54.358 135.02 55.039C135.368 55.7199 135.507 56.4807 135.418 57.225C135.328 57.9694 135.015 58.6639 134.518 59.2208C134.021 59.7776 133.361 60.1718 132.624 60.3534C131.886 60.535 131.103 60.496 130.373 60.2413C129.644 59.9865 129.001 59.5273 128.526 58.922C128.05 58.3167 127.764 57.5923 127.703 56.8404C127.642 56.0886 127.809 55.343 128.183 54.6981C128.684 53.8332 129.522 53.2105 130.511 52.967C131.5 52.7234 132.56 52.8789 133.458 53.3993Z" fill="#5642CF"/>
</g>
</g>
<g style="mix-blend-mode:multiply">
<g style="mix-blend-mode:multiply">
<path d="M100.847 142.856C101.516 143.245 102.059 143.815 102.408 144.496C102.757 145.177 102.896 145.938 102.806 146.682C102.717 147.427 102.404 148.121 101.907 148.678C101.409 149.235 100.75 149.629 100.012 149.811C99.2748 149.992 98.4917 149.953 97.7622 149.698C97.0328 149.444 96.3897 148.984 95.9143 148.379C95.439 147.774 95.1527 147.049 95.0917 146.297C95.0307 145.546 95.1978 144.8 95.5717 144.155C96.0731 143.29 96.9105 142.668 97.8997 142.424C98.889 142.181 99.949 142.336 100.847 142.856Z" fill="#5642CF"/>
</g>
</g>
<g style="mix-blend-mode:multiply">
<g style="mix-blend-mode:multiply">
<path d="M107.565 131.269C108.234 131.657 108.778 132.227 109.127 132.908C109.475 133.589 109.614 134.35 109.525 135.094C109.435 135.839 109.122 136.533 108.625 137.09C108.128 137.647 107.468 138.041 106.731 138.223C105.993 138.404 105.21 138.365 104.48 138.11C103.751 137.856 103.108 137.397 102.633 136.791C102.157 136.186 101.871 135.461 101.81 134.71C101.749 133.958 101.916 133.212 102.29 132.567C102.791 131.702 103.629 131.08 104.618 130.836C105.607 130.593 106.667 130.748 107.565 131.269Z" fill="#5642CF"/>
</g>
</g>
<g style="mix-blend-mode:multiply">
<g style="mix-blend-mode:multiply">
<path d="M114.297 119.657C114.966 120.045 115.51 120.616 115.859 121.297C116.207 121.978 116.346 122.739 116.257 123.483C116.167 124.227 115.854 124.922 115.357 125.479C114.86 126.036 114.2 126.43 113.463 126.611C112.725 126.793 111.942 126.754 111.212 126.499C110.483 126.244 109.84 125.785 109.365 125.18C108.889 124.574 108.603 123.85 108.542 123.098C108.481 122.346 108.648 121.601 109.022 120.956C109.523 120.091 110.361 119.468 111.35 119.225C112.339 118.981 113.399 119.137 114.297 119.657Z" fill="#5642CF"/>
</g>
</g>
<g style="mix-blend-mode:multiply">
<g style="mix-blend-mode:multiply">
<path d="M121.006 108.083C121.676 108.471 122.219 109.042 122.568 109.723C122.917 110.404 123.055 111.164 122.966 111.909C122.877 112.653 122.564 113.348 122.066 113.904C121.569 114.461 120.91 114.855 120.172 115.037C119.434 115.219 118.651 115.18 117.922 114.925C117.192 114.67 116.549 114.211 116.074 113.606C115.599 113 115.312 112.276 115.251 111.524C115.19 110.772 115.357 110.027 115.731 109.382C116.233 108.517 117.07 107.894 118.059 107.651C119.049 107.407 120.109 107.563 121.006 108.083Z" fill="#5642CF"/>
</g>
</g>
<g style="mix-blend-mode:multiply">
<g style="mix-blend-mode:multiply">
<path d="M129.219 101.718C130.263 99.9171 129.594 97.5787 127.725 96.495C125.855 95.4114 123.494 95.9928 122.45 97.7938C121.406 99.5947 122.074 101.933 123.944 103.017C125.813 104.101 128.174 103.519 129.219 101.718Z" fill="#5642CF"/>
</g>
</g>
<g style="mix-blend-mode:multiply">
<g style="mix-blend-mode:multiply">
<path d="M115.254 151.21C115.923 151.598 116.467 152.169 116.815 152.85C117.164 153.531 117.303 154.291 117.214 155.036C117.124 155.78 116.811 156.475 116.314 157.031C115.817 157.588 115.157 157.982 114.42 158.164C113.682 158.346 112.899 158.307 112.169 158.052C111.44 157.797 110.797 157.338 110.322 156.733C109.846 156.127 109.56 155.403 109.499 154.651C109.438 153.899 109.605 153.154 109.979 152.509C110.48 151.644 111.318 151.021 112.307 150.778C113.296 150.534 114.356 150.69 115.254 151.21Z" fill="#5642CF"/>
</g>
</g>
<g style="mix-blend-mode:multiply">
<g style="mix-blend-mode:multiply">
<path d="M121.972 139.622C122.641 140.01 123.185 140.581 123.534 141.262C123.883 141.943 124.021 142.703 123.932 143.448C123.843 144.192 123.529 144.887 123.032 145.443C122.535 146 121.876 146.394 121.138 146.576C120.4 146.758 119.617 146.719 118.888 146.464C118.158 146.209 117.515 145.75 117.04 145.145C116.564 144.539 116.278 143.815 116.217 143.063C116.156 142.311 116.323 141.566 116.697 140.921C117.199 140.056 118.036 139.433 119.025 139.19C120.014 138.946 121.074 139.102 121.972 139.622Z" fill="#5642CF"/>
</g>
</g>
<g style="mix-blend-mode:multiply">
<g style="mix-blend-mode:multiply">
<path d="M128.703 128.011C129.373 128.399 129.916 128.969 130.265 129.65C130.614 130.331 130.753 131.092 130.663 131.836C130.574 132.581 130.261 133.275 129.764 133.832C129.266 134.389 128.607 134.783 127.869 134.965C127.132 135.146 126.349 135.107 125.619 134.853C124.89 134.598 124.247 134.139 123.771 133.533C123.296 132.928 123.01 132.204 122.949 131.452C122.888 130.7 123.055 129.954 123.429 129.309C123.93 128.445 124.767 127.822 125.757 127.578C126.746 127.335 127.806 127.49 128.703 128.011Z" fill="#5642CF"/>
</g>
</g>
</g>
</g>
</g>
</svg>
