<svg width="136" height="139" viewBox="0 0 136 139" fill="none" xmlns="http://www.w3.org/2000/svg">
<mask id="mask0" mask-type="alpha" maskUnits="userSpaceOnUse" x="13" y="12" width="110" height="114">
<ellipse rx="54.459" ry="56.2408" transform="matrix(-0.963438 0.267931 -0.249974 -0.968253 67.7869 69.1203)" fill="#C4C4C4"/>
</mask>
<g mask="url(#mask0)">
<g style="mix-blend-mode:multiply">
<g style="mix-blend-mode:multiply">
<g style="mix-blend-mode:multiply">
<g style="mix-blend-mode:multiply">
<path d="M119.398 124.407C119.233 123.776 119.255 123.103 119.464 122.474C119.672 121.845 120.057 121.288 120.57 120.874C121.082 120.459 121.7 120.205 122.343 120.145C122.987 120.085 123.628 120.221 124.186 120.535C124.743 120.849 125.192 121.328 125.476 121.911C125.759 122.494 125.864 123.155 125.778 123.81C125.691 124.465 125.417 125.084 124.99 125.59C124.563 126.096 124.002 126.466 123.379 126.652C122.544 126.901 121.656 126.804 120.91 126.384C120.164 125.963 119.62 125.252 119.398 124.407Z" fill="#FF2727"/>
</g>
</g>
<g style="mix-blend-mode:multiply">
<g style="mix-blend-mode:multiply">
<path d="M108.236 127.511C108.07 126.88 108.093 126.207 108.302 125.578C108.51 124.949 108.895 124.392 109.408 123.977C109.92 123.562 110.537 123.309 111.181 123.249C111.825 123.188 112.466 123.324 113.024 123.638C113.581 123.953 114.03 124.432 114.314 125.015C114.597 125.598 114.702 126.259 114.616 126.913C114.529 127.568 114.255 128.188 113.828 128.694C113.401 129.2 112.84 129.569 112.217 129.755C111.382 130.004 110.494 129.908 109.748 129.487C109.002 129.066 108.458 128.356 108.236 127.511Z" fill="#FF2727"/>
</g>
</g>
<g style="mix-blend-mode:multiply">
<g style="mix-blend-mode:multiply">
<path d="M97.0533 130.62C96.8874 129.989 96.9102 129.316 97.1187 128.687C97.3273 128.058 97.7122 127.501 98.2248 127.086C98.7373 126.672 99.3545 126.418 99.9981 126.358C100.642 126.298 101.283 126.433 101.841 126.748C102.398 127.062 102.847 127.541 103.13 128.124C103.414 128.707 103.519 129.368 103.433 130.023C103.346 130.678 103.072 131.297 102.645 131.803C102.218 132.309 101.657 132.678 101.034 132.865C100.62 132.989 100.189 133.03 99.7656 132.984C99.3417 132.939 98.9332 132.808 98.5635 132.599C98.1938 132.391 97.8701 132.109 97.6109 131.769C97.3518 131.43 97.1623 131.039 97.0533 130.62Z" fill="#FF2727"/>
</g>
</g>
<g style="mix-blend-mode:multiply">
<g style="mix-blend-mode:multiply">
<path d="M115.811 110.515C115.646 109.884 115.67 109.211 115.88 108.583C116.09 107.954 116.475 107.398 116.988 106.985C117.501 106.571 118.119 106.319 118.762 106.26C119.405 106.2 120.046 106.337 120.603 106.652C121.16 106.967 121.608 107.446 121.891 108.029C122.174 108.612 122.278 109.272 122.192 109.927C122.105 110.582 121.831 111.201 121.404 111.706C120.977 112.212 120.416 112.581 119.793 112.767C118.957 113.016 118.068 112.919 117.321 112.497C116.574 112.075 116.031 111.362 115.811 110.515Z" fill="#FF2727"/>
</g>
</g>
<g style="mix-blend-mode:multiply">
<g style="mix-blend-mode:multiply">
<path d="M104.648 113.619C104.484 112.987 104.508 112.315 104.718 111.686C104.928 111.058 105.313 110.502 105.826 110.088C106.339 109.675 106.957 109.422 107.6 109.363C108.243 109.304 108.884 109.44 109.441 109.755C109.998 110.07 110.446 110.549 110.729 111.132C111.012 111.715 111.116 112.376 111.029 113.03C110.943 113.685 110.669 114.304 110.242 114.81C109.815 115.315 109.254 115.684 108.631 115.87C107.795 116.12 106.906 116.023 106.159 115.601C105.412 115.178 104.869 114.465 104.648 113.619Z" fill="#FF2727"/>
</g>
</g>
<g style="mix-blend-mode:multiply">
<g style="mix-blend-mode:multiply">
<path d="M93.4663 116.728C93.302 116.097 93.3262 115.424 93.5358 114.796C93.7455 114.167 94.1312 113.611 94.6442 113.198C95.1572 112.784 95.7744 112.532 96.4178 112.473C97.0612 112.413 97.7018 112.55 98.2588 112.865C98.8157 113.18 99.2639 113.659 99.5467 114.242C99.8294 114.825 99.934 115.485 99.8473 116.14C99.7606 116.794 99.4864 117.414 99.0594 117.919C98.6325 118.425 98.0719 118.794 97.4486 118.98C97.0347 119.104 96.6031 119.145 96.1787 119.099C95.7542 119.053 95.3453 118.922 94.9752 118.713C94.6052 118.503 94.2814 118.22 94.0224 117.88C93.7635 117.539 93.5745 117.148 93.4663 116.728Z" fill="#FF2727"/>
</g>
</g>
<g style="mix-blend-mode:multiply">
<g style="mix-blend-mode:multiply">
<path d="M82.3198 119.828C82.1555 119.196 82.1797 118.524 82.3893 117.895C82.599 117.267 82.9847 116.711 83.4977 116.297C84.0107 115.884 84.6279 115.631 85.2713 115.572C85.9147 115.513 86.5553 115.649 87.1123 115.964C87.6692 116.279 88.1174 116.758 88.4002 117.341C88.6829 117.924 88.7876 118.585 88.7008 119.239C88.6141 119.894 88.3399 120.513 87.913 121.019C87.486 121.524 86.9254 121.893 86.3021 122.079C85.4663 122.329 84.5771 122.232 83.8303 121.809C83.0835 121.387 82.5401 120.674 82.3198 119.828Z" fill="#FF2727"/>
</g>
</g>
<g style="mix-blend-mode:multiply">
<g style="mix-blend-mode:multiply">
<path d="M71.1582 122.933C70.9938 122.302 71.018 121.629 71.2277 121.001C71.4374 120.372 71.8231 119.816 72.3361 119.403C72.8491 118.989 73.4663 118.737 74.1097 118.678C74.7531 118.618 75.3938 118.755 75.9507 119.07C76.5076 119.385 76.9558 119.864 77.2386 120.447C77.5213 121.03 77.626 121.69 77.5392 122.345C77.4525 122.999 77.1783 123.619 76.7513 124.124C76.3244 124.63 75.7638 124.999 75.1405 125.185C74.3046 125.434 73.4155 125.337 72.6687 124.915C71.9219 124.493 71.3785 123.78 71.1582 122.933Z" fill="#FF2727"/>
</g>
</g>
<g style="mix-blend-mode:multiply">
<g style="mix-blend-mode:multiply">
<path d="M59.9961 126.037C59.8317 125.405 59.8559 124.733 60.0656 124.104C60.2753 123.476 60.661 122.92 61.174 122.506C61.687 122.093 62.3042 121.84 62.9476 121.781C63.591 121.722 64.2316 121.858 64.7886 122.173C65.3455 122.488 65.7937 122.967 66.0764 123.55C66.3592 124.133 66.4639 124.794 66.3771 125.448C66.2904 126.103 66.0162 126.722 65.5893 127.228C65.1623 127.733 64.6017 128.102 63.9784 128.288C63.5645 128.413 63.1329 128.454 62.7085 128.408C62.284 128.362 61.875 128.231 61.505 128.021C61.1349 127.812 60.8112 127.529 60.5522 127.188C60.2933 126.848 60.1043 126.456 59.9961 126.037Z" fill="#FF2727"/>
</g>
</g>
<g style="mix-blend-mode:multiply">
<g style="mix-blend-mode:multiply">
<path d="M48.8354 129.14C48.671 128.508 48.6954 127.836 48.9053 127.207C49.1153 126.578 49.5014 126.022 50.0149 125.609C50.5283 125.195 51.146 124.943 51.7898 124.884C52.4335 124.826 53.0744 124.963 53.6312 125.279C54.188 125.594 54.6358 126.074 54.9179 126.658C55.2 127.242 55.3036 127.903 55.2157 128.558C55.1278 129.213 54.8524 129.832 54.4242 130.336C53.996 130.841 53.4344 131.209 52.8104 131.394C52.3969 131.518 51.9659 131.557 51.5421 131.511C51.1184 131.464 50.7103 131.332 50.3411 131.123C49.9718 130.914 49.6488 130.631 49.3904 130.29C49.132 129.95 48.9435 129.559 48.8354 129.14Z" fill="#FF2727"/>
</g>
</g>
<g style="mix-blend-mode:multiply">
<g style="mix-blend-mode:multiply">
<path d="M112.23 96.6461C112.066 96.0147 112.09 95.3424 112.3 94.714C112.509 94.0857 112.895 93.5296 113.408 93.1161C113.921 92.7025 114.538 92.4502 115.182 92.3908C115.825 92.3315 116.466 92.468 117.023 92.7829C117.579 93.0978 118.028 93.577 118.31 94.16C118.593 94.7429 118.698 95.4034 118.611 96.0579C118.524 96.7125 118.25 97.3316 117.823 97.8371C117.396 98.3426 116.836 98.7117 116.212 98.8978C115.376 99.1473 114.487 99.0502 113.741 98.6279C112.994 98.2057 112.45 97.4928 112.23 96.6461Z" fill="#FF2727"/>
</g>
</g>
<g style="mix-blend-mode:multiply">
<g style="mix-blend-mode:multiply">
<path d="M101.069 99.7496C100.905 99.1182 100.929 98.4458 101.139 97.8175C101.348 97.1891 101.734 96.633 102.247 96.2195C102.76 95.806 103.377 95.5536 104.02 95.4943C104.664 95.435 105.304 95.5714 105.861 95.8863C106.418 96.2012 106.867 96.6805 107.149 97.2634C107.432 97.8464 107.537 98.5069 107.45 99.1614C107.363 99.816 107.089 100.435 106.662 100.941C106.235 101.446 105.674 101.815 105.051 102.001C104.215 102.251 103.326 102.154 102.579 101.731C101.833 101.309 101.289 100.596 101.069 99.7496Z" fill="#FF2727"/>
</g>
</g>
<g style="mix-blend-mode:multiply">
<g style="mix-blend-mode:multiply">
<path d="M89.8858 102.859C89.7215 102.228 89.7457 101.555 89.9554 100.927C90.1651 100.299 90.5508 99.7425 91.0637 99.329C91.5767 98.9155 92.194 98.6631 92.8373 98.6038C93.4807 98.5445 94.1214 98.6809 94.6783 98.9958C95.2352 99.3107 95.6834 99.7899 95.9662 100.373C96.2489 100.956 96.3535 101.616 96.2668 102.271C96.1801 102.925 95.9059 103.545 95.4789 104.05C95.0519 104.555 94.4914 104.925 93.8681 105.111C93.0322 105.36 92.1431 105.263 91.3963 104.841C90.6495 104.419 90.1061 103.706 89.8858 102.859Z" fill="#FF2727"/>
</g>
</g>
<g style="mix-blend-mode:multiply">
<g style="mix-blend-mode:multiply">
<path d="M78.7388 105.961C78.5745 105.329 78.5987 104.657 78.8084 104.028C79.018 103.4 79.4037 102.844 79.9167 102.431C80.4297 102.017 81.0469 101.765 81.6903 101.705C82.3337 101.646 82.9744 101.782 83.5313 102.097C84.0882 102.412 84.5364 102.891 84.8192 103.474C85.1019 104.057 85.2065 104.718 85.1198 105.372C85.0331 106.027 84.7589 106.646 84.3319 107.152C83.9049 107.657 83.3444 108.026 82.7211 108.212C81.8852 108.462 80.9961 108.365 80.2493 107.942C79.5024 107.52 78.9591 106.807 78.7388 105.961Z" fill="#FF2727"/>
</g>
</g>
<g style="mix-blend-mode:multiply">
<g style="mix-blend-mode:multiply">
<path d="M67.5771 109.064C67.4128 108.433 67.437 107.76 67.6467 107.132C67.8563 106.504 68.2421 105.948 68.7551 105.534C69.2681 105.12 69.8853 104.868 70.5287 104.809C71.1721 104.75 71.8128 104.886 72.3697 105.201C72.9266 105.516 73.3748 105.995 73.6576 106.578C73.9403 107.161 74.0449 107.821 73.9582 108.476C73.8715 109.13 73.5972 109.75 73.1703 110.255C72.7433 110.761 72.1827 111.13 71.5594 111.316C70.7235 111.565 69.8344 111.468 69.0876 111.046C68.3407 110.624 67.7974 109.911 67.5771 109.064Z" fill="#FF2727"/>
</g>
</g>
<g style="mix-blend-mode:multiply">
<g style="mix-blend-mode:multiply">
<path d="M56.4165 112.168C56.2522 111.536 56.2764 110.864 56.4861 110.235C56.6958 109.607 57.0815 109.051 57.5945 108.637C58.1074 108.224 58.7247 107.972 59.3681 107.912C60.0115 107.853 60.6521 107.989 61.2091 108.304C61.766 108.619 62.2142 109.098 62.4969 109.681C62.7797 110.264 62.8843 110.925 62.7976 111.579C62.7108 112.234 62.4367 112.853 62.0097 113.359C61.5827 113.864 61.0221 114.233 60.3988 114.419C59.5629 114.669 58.6738 114.572 57.927 114.149C57.1801 113.727 56.6368 113.014 56.4165 112.168Z" fill="#FF2727"/>
</g>
</g>
<g style="mix-blend-mode:multiply">
<g style="mix-blend-mode:multiply">
<path d="M45.2554 115.271C45.091 114.639 45.1153 113.967 45.3253 113.338C45.5352 112.709 45.9214 112.153 46.4349 111.74C46.9483 111.326 47.566 111.074 48.2098 111.016C48.8535 110.957 49.4944 111.094 50.0512 111.41C50.608 111.726 51.0558 112.206 51.3379 112.789C51.6199 113.373 51.7235 114.034 51.6356 114.689C51.5477 115.343 51.2723 115.962 50.8441 116.467C50.4159 116.972 49.8543 117.34 49.2303 117.525C48.3952 117.772 47.5077 117.674 46.7626 117.251C46.0174 116.829 45.4754 116.116 45.2554 115.271Z" fill="#FF2727"/>
</g>
</g>
<g style="mix-blend-mode:multiply">
<g style="mix-blend-mode:multiply">
<path d="M34.1152 118.369C33.9508 117.737 33.9751 117.065 34.1847 116.437C34.3944 115.808 34.7801 115.252 35.2931 114.839C35.8061 114.425 36.4233 114.173 37.0667 114.113C37.7101 114.054 38.3508 114.191 38.9077 114.506C39.4647 114.82 39.9129 115.3 40.1956 115.883C40.4784 116.466 40.583 117.126 40.4963 117.781C40.4095 118.435 40.1353 119.054 39.7084 119.56C39.2814 120.065 38.7208 120.434 38.0975 120.62C37.2616 120.87 36.3725 120.773 35.6257 120.351C34.8788 119.928 34.3355 119.215 34.1152 118.369Z" fill="#FF2727"/>
</g>
</g>
<g style="mix-blend-mode:multiply">
<g style="mix-blend-mode:multiply">
<path d="M22.9239 121.482C22.7596 120.851 22.7838 120.178 22.9935 119.55C23.2032 118.922 23.5888 118.365 24.1018 117.952C24.6148 117.538 25.232 117.286 25.8754 117.227C26.5188 117.167 27.1594 117.304 27.7164 117.619C28.2733 117.934 28.7215 118.413 29.0042 118.996C29.287 119.579 29.3916 120.239 29.3049 120.894C29.2181 121.548 28.944 122.168 28.517 122.673C28.09 123.179 27.5295 123.548 26.9061 123.734C26.0703 123.983 25.1812 123.886 24.4344 123.464C23.6876 123.042 23.1442 122.329 22.9239 121.482Z" fill="#FF2727"/>
</g>
</g>
<g style="mix-blend-mode:multiply">
<g style="mix-blend-mode:multiply">
<path d="M11.7632 124.586C11.5989 123.954 11.6232 123.282 11.8328 122.654C12.0425 122.025 12.4282 121.469 12.9412 121.056C13.4542 120.642 14.0714 120.39 14.7148 120.33C15.3582 120.271 15.9988 120.407 16.5558 120.722C17.1127 121.037 17.5609 121.517 17.8436 122.099C18.1264 122.682 18.231 123.343 18.1443 123.997C18.0575 124.652 17.7833 125.271 17.3563 125.777C16.9294 126.282 16.3688 126.651 15.7455 126.837C14.9097 127.087 14.0205 126.99 13.2737 126.567C12.5269 126.145 11.9836 125.432 11.7632 124.586Z" fill="#FF2727"/>
</g>
</g>
<g style="mix-blend-mode:multiply">
<g style="mix-blend-mode:multiply">
<path d="M119.81 79.6656C119.645 79.0342 119.669 78.3618 119.879 77.7335C120.089 77.1051 120.475 76.549 120.988 76.1355C121.501 75.722 122.118 75.4696 122.761 75.4103C123.404 75.351 124.045 75.4874 124.602 75.8024C125.159 76.1173 125.607 76.5965 125.89 77.1795C126.173 77.7624 126.277 78.4229 126.191 79.0775C126.104 79.732 125.83 80.3511 125.403 80.8566C124.976 81.3621 124.415 81.7312 123.792 81.9173C122.956 82.1668 122.067 82.0697 121.32 81.6474C120.573 81.2251 120.03 80.5123 119.81 79.6656Z" fill="#FF2727"/>
</g>
</g>
<g style="mix-blend-mode:multiply">
<g style="mix-blend-mode:multiply">
<path d="M108.648 82.7691C108.484 82.1377 108.508 81.4653 108.718 80.837C108.927 80.2086 109.313 79.6525 109.826 79.239C110.339 78.8255 110.956 78.5731 111.6 78.5138C112.243 78.4545 112.884 78.5909 113.441 78.9058C113.997 79.2207 114.446 79.7 114.728 80.2829C115.011 80.8659 115.116 81.5264 115.029 82.181C114.942 82.8355 114.668 83.4547 114.241 83.9601C113.814 84.4656 113.254 84.8347 112.63 85.0208C111.794 85.2703 110.905 85.1732 110.159 84.7509C109.412 84.3287 108.868 83.6158 108.648 82.7691Z" fill="#FF2727"/>
</g>
</g>
<g style="mix-blend-mode:multiply">
<g style="mix-blend-mode:multiply">
<path d="M97.4868 85.8746C97.3225 85.2432 97.3467 84.5708 97.5564 83.9425C97.7661 83.3141 98.1518 82.758 98.6648 82.3445C99.1778 81.9309 99.795 81.6786 100.438 81.6193C101.082 81.56 101.722 81.6964 102.279 82.0113C102.836 82.3262 103.284 82.8054 103.567 83.3884C103.85 83.9714 103.955 84.6319 103.868 85.2864C103.781 85.941 103.507 86.5601 103.08 87.0656C102.653 87.5711 102.092 87.9402 101.469 88.1263C100.633 88.3758 99.7441 88.2787 98.9973 87.8564C98.2505 87.4341 97.7071 86.7213 97.4868 85.8746Z" fill="#FF2727"/>
</g>
</g>
<g style="mix-blend-mode:multiply">
<g style="mix-blend-mode:multiply">
<path d="M86.3042 88.9839C86.1399 88.3525 86.1641 87.6801 86.3738 87.0518C86.5835 86.4234 86.9691 85.8673 87.4821 85.4538C87.9951 85.0403 88.6123 84.7879 89.2557 84.7286C89.8991 84.6693 90.5398 84.8058 91.0967 85.1207C91.6536 85.4356 92.1018 85.9148 92.3846 86.4978C92.6674 87.0807 92.772 87.7413 92.6852 88.3958C92.5985 89.0503 92.3243 89.6695 91.8973 90.175C91.4704 90.6805 90.9098 91.0496 90.2865 91.2356C89.4507 91.4851 88.5615 91.388 87.8147 90.9658C87.0679 90.5435 86.5245 89.8306 86.3042 88.9839Z" fill="#FF2727"/>
</g>
</g>
<g style="mix-blend-mode:multiply">
<g style="mix-blend-mode:multiply">
<path d="M75.1567 92.0836C74.9924 91.4522 75.0166 90.7798 75.2263 90.1514C75.436 89.5231 75.8217 88.967 76.3347 88.5535C76.8477 88.14 77.4649 87.8876 78.1083 87.8283C78.7517 87.769 79.3923 87.9054 79.9492 88.2203C80.5062 88.5352 80.9544 89.0145 81.2371 89.5974C81.5199 90.1804 81.6245 90.8409 81.5378 91.4954C81.451 92.15 81.1769 92.7691 80.7499 93.2746C80.3229 93.7801 79.7623 94.1492 79.139 94.3352C78.3032 94.5847 77.4141 94.4876 76.6672 94.0654C75.9204 93.6431 75.3771 92.9302 75.1567 92.0836Z" fill="#FF2727"/>
</g>
</g>
<g style="mix-blend-mode:multiply">
<g style="mix-blend-mode:multiply">
<path d="M63.9955 95.1871C63.8312 94.5557 63.8554 93.8833 64.0651 93.2549C64.2748 92.6266 64.6605 92.0704 65.1735 91.6569C65.6865 91.2434 66.3037 90.9911 66.9471 90.9317C67.5905 90.8724 68.2312 91.0088 68.7881 91.3238C69.3451 91.6387 69.7932 92.1179 70.076 92.7009C70.3588 93.2839 70.4634 93.9444 70.3767 94.5989C70.2899 95.2535 70.0157 95.8726 69.5887 96.3781C69.1617 96.8836 68.6012 97.2527 67.9779 97.4388C67.142 97.6883 66.2529 97.5912 65.506 97.1689C64.7592 96.7467 64.2159 96.0338 63.9955 95.1871Z" fill="#FF2727"/>
</g>
</g>
<g style="mix-blend-mode:multiply">
<g style="mix-blend-mode:multiply">
<path d="M52.834 98.2925C52.6697 97.6611 52.6939 96.9888 52.9036 96.3604C53.1132 95.7321 53.4989 95.176 54.0119 94.7625C54.5249 94.349 55.1421 94.0967 55.7855 94.0374C56.4289 93.9781 57.0696 94.1145 57.6265 94.4294C58.1834 94.7443 58.6316 95.2235 58.9144 95.8065C59.1971 96.3894 59.3018 97.0499 59.215 97.7044C59.1283 98.359 58.8541 98.9781 58.4272 99.4836C58.0002 99.989 57.4396 100.358 56.8163 100.544C55.9804 100.794 55.0913 100.697 54.3445 100.274C53.5976 99.8521 53.0543 99.1392 52.834 98.2925Z" fill="#FF2727"/>
</g>
</g>
<g style="mix-blend-mode:multiply">
<g style="mix-blend-mode:multiply">
<path d="M41.6724 101.396C41.508 100.764 41.5323 100.092 41.7423 99.463C41.9522 98.8343 42.3384 98.2781 42.8519 97.8647C43.3653 97.4512 43.983 97.1992 44.6267 97.1405C45.2705 97.0817 45.9113 97.2189 46.4682 97.5346C47.025 97.8504 47.4728 98.3304 47.7548 98.9142C48.0369 99.4979 48.1405 100.159 48.0526 100.814C47.9647 101.468 47.6893 102.087 47.2611 102.592C46.8329 103.097 46.2713 103.465 45.6473 103.65C44.8122 103.897 43.9248 103.799 43.1796 103.376C42.4344 102.954 41.8924 102.241 41.6724 101.396Z" fill="#FF2727"/>
</g>
</g>
<g style="mix-blend-mode:multiply">
<g style="mix-blend-mode:multiply">
<path d="M30.5332 104.494C30.3689 103.862 30.3931 103.19 30.6028 102.562C30.8125 101.933 31.1982 101.377 31.7111 100.964C32.2241 100.55 32.8414 100.298 33.4848 100.238C34.1282 100.179 34.7688 100.316 35.3257 100.63C35.8827 100.945 36.3309 101.425 36.6136 102.008C36.8964 102.591 37.001 103.251 36.9142 103.906C36.8275 104.56 36.5533 105.179 36.1263 105.685C35.6994 106.19 35.1388 106.559 34.5155 106.745C33.6796 106.995 32.7905 106.898 32.0437 106.476C31.2969 106.053 30.7535 105.34 30.5332 104.494Z" fill="#FF2727"/>
</g>
</g>
<g style="mix-blend-mode:multiply">
<g style="mix-blend-mode:multiply">
<path d="M19.3423 107.607C19.178 106.976 19.2022 106.303 19.4119 105.675C19.6215 105.046 20.0072 104.49 20.5202 104.077C21.0332 103.663 21.6504 103.411 22.2938 103.352C22.9372 103.292 23.5779 103.429 24.1348 103.744C24.6917 104.059 25.1399 104.538 25.4227 105.121C25.7054 105.704 25.81 106.364 25.7233 107.019C25.6366 107.673 25.3624 108.293 24.9354 108.798C24.5084 109.304 23.9479 109.673 23.3246 109.859C22.4887 110.108 21.5996 110.011 20.8528 109.589C20.106 109.167 19.5626 108.454 19.3423 107.607Z" fill="#FF2727"/>
</g>
</g>
<g style="mix-blend-mode:multiply">
<g style="mix-blend-mode:multiply">
<path d="M8.18116 110.71C8.01685 110.079 8.04107 109.407 8.25074 108.778C8.46041 108.15 8.84614 107.594 9.35912 107.18C9.8721 106.767 10.4893 106.514 11.1327 106.455C11.7761 106.396 12.4167 106.532 12.9737 106.847C13.5306 107.162 13.9788 107.641 14.2615 108.224C14.5443 108.807 14.6489 109.468 14.5622 110.122C14.4755 110.777 14.2013 111.396 13.7743 111.902C13.3473 112.407 12.7868 112.776 12.1634 112.962C11.3276 113.212 10.4385 113.115 9.69167 112.692C8.94485 112.27 8.4015 111.557 8.18116 110.71Z" fill="#FF2727"/>
</g>
</g>
<g style="mix-blend-mode:multiply">
<g style="mix-blend-mode:multiply">
<path d="M118.545 61.6477C116.804 62.1672 115.765 64.0177 116.224 65.7808C116.683 67.544 118.466 68.5521 120.206 68.0325C121.947 67.513 122.986 65.6625 122.527 63.8994C122.068 62.1362 120.285 61.1281 118.545 61.6477Z" fill="#FF2727"/>
</g>
</g>
<g style="mix-blend-mode:multiply">
<g style="mix-blend-mode:multiply">
<path d="M105.066 68.8941C104.902 68.2627 104.926 67.5903 105.136 66.9619C105.345 66.3335 105.731 65.7774 106.244 65.3639C106.757 64.9504 107.374 64.698 108.017 64.6387C108.661 64.5794 109.302 64.7158 109.858 65.0308C110.415 65.3457 110.864 65.8249 111.146 66.4079C111.429 66.9909 111.534 67.6514 111.447 68.3059C111.36 68.9605 111.086 69.5796 110.659 70.0851C110.232 70.5906 109.672 70.9597 109.048 71.1458C108.212 71.3953 107.323 71.2982 106.576 70.8759C105.83 70.4536 105.286 69.7408 105.066 68.8941Z" fill="#FF2727"/>
</g>
</g>
<g style="mix-blend-mode:multiply">
<g style="mix-blend-mode:multiply">
<path d="M93.9038 71.9976C93.7395 71.3662 93.7637 70.6938 93.9734 70.0654C94.1831 69.4371 94.5688 68.881 95.0818 68.4674C95.5948 68.0539 96.212 67.8016 96.8553 67.7423C97.4987 67.683 98.1394 67.8194 98.6963 68.1343C99.2532 68.4492 99.7014 68.9285 99.9842 69.5114C100.267 70.0944 100.372 70.7549 100.285 71.4095C100.198 72.064 99.9239 72.6832 99.497 73.1887C99.07 73.6941 98.5094 74.0632 97.8861 74.2493C97.0503 74.4988 96.1611 74.4017 95.4143 73.9794C94.6675 73.5571 94.1241 72.8443 93.9038 71.9976Z" fill="#FF2727"/>
</g>
</g>
<g style="mix-blend-mode:multiply">
<g style="mix-blend-mode:multiply">
<path d="M82.7207 75.1089C82.5564 74.4775 82.5806 73.8051 82.7903 73.1767C83 72.5484 83.3856 71.9923 83.8986 71.5788C84.4116 71.1652 85.0288 70.9129 85.6722 70.8536C86.3156 70.7943 86.9563 70.9307 87.5132 71.2456C88.0701 71.5605 88.5183 72.0398 88.8011 72.6227C89.0839 73.2057 89.1885 73.8662 89.1017 74.5208C89.015 75.1753 88.7408 75.7945 88.3138 76.3C87.8869 76.8055 87.3263 77.1746 86.703 77.3606C85.8672 77.6101 84.978 77.513 84.2312 77.0908C83.4844 76.6685 82.941 75.9556 82.7207 75.1089Z" fill="#FF2727"/>
</g>
</g>
<g style="mix-blend-mode:multiply">
<g style="mix-blend-mode:multiply">
<path d="M71.5747 78.2085C71.4104 77.5771 71.4346 76.9047 71.6443 76.2764C71.854 75.648 72.2397 75.0919 72.7526 74.6784C73.2656 74.2648 73.8829 74.0125 74.5262 73.9532C75.1696 73.8939 75.8103 74.0303 76.3672 74.3452C76.9241 74.6601 77.3723 75.1394 77.6551 75.7223C77.9379 76.3053 78.0425 76.9658 77.9557 77.6204C77.869 78.2749 77.5948 78.8941 77.1679 79.3996C76.7409 79.9051 76.1803 80.2742 75.557 80.4602C74.7212 80.7097 73.832 80.6127 73.0852 80.1904C72.3384 79.7681 71.795 79.0552 71.5747 78.2085Z" fill="#FF2727"/>
</g>
</g>
<g style="mix-blend-mode:multiply">
<g style="mix-blend-mode:multiply">
<path d="M62.7314 77.1693C60.9908 77.6888 59.9517 79.5392 60.4106 81.3023C60.8694 83.0654 62.6523 84.0735 64.3929 83.554C66.1334 83.0345 67.1725 81.184 66.7137 79.4209C66.2549 77.6578 64.4719 76.6497 62.7314 77.1693Z" fill="#FF2727"/>
</g>
</g>
<g style="mix-blend-mode:multiply">
<g style="mix-blend-mode:multiply">
<path d="M51.5629 80.2746C49.8224 80.7942 48.7834 82.6446 49.2422 84.4078C49.701 86.1709 51.4839 87.179 53.2245 86.6595C54.965 86.1399 56.004 84.2895 55.5452 82.5263C55.0864 80.7632 53.3035 79.7551 51.5629 80.2746Z" fill="#FF2727"/>
</g>
</g>
<g style="mix-blend-mode:multiply">
<g style="mix-blend-mode:multiply">
<path d="M38.0903 87.5191C37.9259 86.8873 37.9503 86.2146 38.1603 85.586C38.3702 84.9573 38.7564 84.4011 39.2698 83.9877C39.7833 83.5742 40.401 83.3222 41.0447 83.2635C41.6884 83.2047 42.3293 83.3419 42.8861 83.6576C43.443 83.9734 43.8908 84.4535 44.1728 85.0372C44.4549 85.6209 44.5585 86.282 44.4706 86.9367C44.3827 87.5915 44.1072 88.2105 43.6791 88.7153C43.2509 89.2202 42.6893 89.5883 42.0653 89.773C41.2302 90.0201 40.3427 89.9216 39.5976 89.4991C38.8524 89.0765 38.3103 88.3645 38.0903 87.5191Z" fill="#FF2727"/>
</g>
</g>
<g style="mix-blend-mode:multiply">
<g style="mix-blend-mode:multiply">
<path d="M26.9511 90.6168C26.7868 89.9853 26.811 89.313 27.0207 88.6846C27.2304 88.0562 27.6161 87.5001 28.129 87.0866C28.642 86.6731 29.2593 86.4207 29.9027 86.3614C30.5461 86.3021 31.1867 86.4385 31.7437 86.7534C32.3006 87.0683 32.7488 87.5476 33.0316 88.1306C33.3143 88.7135 33.4189 89.3741 33.3322 90.0286C33.2455 90.6831 32.9713 91.3023 32.5443 91.8078C32.1173 92.3133 31.5567 92.6824 30.9334 92.8685C30.0976 93.118 29.2084 93.0209 28.4616 92.5986C27.7148 92.1763 27.1714 91.4634 26.9511 90.6168Z" fill="#FF2727"/>
</g>
</g>
<g style="mix-blend-mode:multiply">
<g style="mix-blend-mode:multiply">
<path d="M15.7603 93.73C15.5959 93.0986 15.6202 92.4262 15.8298 91.7979C16.0395 91.1695 16.4252 90.6134 16.9382 90.1999C17.4512 89.7863 18.0684 89.534 18.7118 89.4747C19.3552 89.4154 19.9958 89.5518 20.5528 89.8667C21.1097 90.1816 21.5579 90.6609 21.8407 91.2438C22.1234 91.8268 22.228 92.4873 22.1413 93.1419C22.0546 93.7964 21.7804 94.4156 21.3534 94.9211C20.9264 95.4266 20.3659 95.7957 19.7425 95.9817C18.9067 96.2312 18.0176 96.1342 17.2708 95.7119C16.5239 95.2896 15.9806 94.5767 15.7603 93.73Z" fill="#FF2727"/>
</g>
</g>
<g style="mix-blend-mode:multiply">
<g style="mix-blend-mode:multiply">
<path d="M114.963 47.7707C113.222 48.2903 112.183 50.1407 112.642 51.9038C113.101 53.667 114.884 54.6751 116.624 54.1556C118.365 53.636 119.404 51.7856 118.945 50.0224C118.486 48.2593 116.703 47.2512 114.963 47.7707Z" fill="#FF2727"/>
</g>
</g>
<g style="mix-blend-mode:multiply">
<g style="mix-blend-mode:multiply">
<path d="M101.482 55.0148C101.316 54.3835 101.339 53.7108 101.547 53.0817C101.756 52.4526 102.141 51.8955 102.653 51.4809C103.166 51.0662 103.783 50.8127 104.427 50.7524C105.07 50.6922 105.712 50.8278 106.269 51.1422C106.827 51.4566 107.276 51.9356 107.559 52.5186C107.843 53.1016 107.948 53.7624 107.861 54.4173C107.775 55.0722 107.501 55.6918 107.074 56.1977C106.647 56.7035 106.086 57.0729 105.462 57.2591C104.628 57.5082 103.74 57.4118 102.994 56.9911C102.248 56.5704 101.704 55.8596 101.482 55.0148Z" fill="#FF2727"/>
</g>
</g>
<g style="mix-blend-mode:multiply">
<g style="mix-blend-mode:multiply">
<path d="M90.3217 58.1203C90.1559 57.489 90.1786 56.8162 90.3872 56.1871C90.5957 55.558 90.9806 55.0009 91.4932 54.5863C92.0057 54.1716 92.6229 53.9182 93.2665 53.8579C93.9102 53.7976 94.5514 53.9332 95.109 54.2476C95.6666 54.562 96.1155 55.041 96.399 55.624C96.6824 56.207 96.7875 56.8678 96.7011 57.5227C96.6147 58.1776 96.3406 58.7973 95.9136 59.3031C95.4865 59.809 94.9257 60.1784 94.3021 60.3646C93.4675 60.6137 92.5798 60.5173 91.8336 60.0966C91.0874 59.6758 90.5437 58.9651 90.3217 58.1203Z" fill="#FF2727"/>
</g>
</g>
<g style="mix-blend-mode:multiply">
<g style="mix-blend-mode:multiply">
<path d="M79.1377 61.2296C78.9719 60.5983 78.9946 59.9255 79.2032 59.2965C79.4117 58.6674 79.7966 58.1102 80.3092 57.6956C80.8217 57.281 81.4389 57.0275 82.0825 56.9672C82.7262 56.9069 83.3674 57.0426 83.925 57.357C84.4825 57.6714 84.9314 58.1504 85.2149 58.7334C85.4983 59.3164 85.6034 59.9772 85.5171 60.6321C85.4307 61.287 85.1566 61.9066 84.7295 62.4125C84.3025 62.9184 83.7417 63.2877 83.1181 63.4739C82.7048 63.5983 82.2739 63.6389 81.8501 63.5934C81.4262 63.5479 81.0177 63.4172 80.648 63.2087C80.2783 63.0003 79.9545 62.7181 79.6954 62.3785C79.4362 62.0389 79.2467 61.6485 79.1377 61.2296Z" fill="#FF2727"/>
</g>
</g>
<g style="mix-blend-mode:multiply">
<g style="mix-blend-mode:multiply">
<path d="M67.9912 64.3293C67.8254 63.698 67.8481 63.0252 68.0567 62.3962C68.2652 61.7671 68.6501 61.21 69.1627 60.7954C69.6752 60.3807 70.2924 60.1272 70.936 60.0669C71.5797 60.0067 72.2209 60.1423 72.7785 60.4567C73.3361 60.7711 73.785 61.2501 74.0684 61.8331C74.3518 62.4161 74.457 63.0768 74.3706 63.7317C74.2842 64.3866 74.0101 65.0062 73.5831 65.5121C73.156 66.018 72.5952 66.3874 71.9716 66.5735C71.137 66.8226 70.2493 66.7263 69.5031 66.3055C68.7569 65.8848 68.2132 65.1741 67.9912 64.3293Z" fill="#FF2727"/>
</g>
</g>
<g style="mix-blend-mode:multiply">
<g style="mix-blend-mode:multiply">
<path d="M59.1478 63.2922C57.4072 63.8117 56.3682 65.6622 56.827 67.4253C57.2858 69.1885 59.0688 70.1966 60.8094 69.6771C62.5499 69.1575 63.589 67.307 63.1302 65.5439C62.6713 63.7807 60.8884 62.7726 59.1478 63.2922Z" fill="#FF2727"/>
</g>
</g>
<g style="mix-blend-mode:multiply">
<g style="mix-blend-mode:multiply">
<path d="M47.9799 66.3976C46.2394 66.9171 45.2004 68.7676 45.6592 70.5308C46.118 72.2939 47.9009 73.3021 49.6415 72.7825C51.382 72.263 52.421 70.4125 51.9622 68.6493C51.5034 66.8862 49.7205 65.878 47.9799 66.3976Z" fill="#FF2727"/>
</g>
</g>
<g style="mix-blend-mode:multiply">
<g style="mix-blend-mode:multiply">
<path d="M34.5068 73.6398C34.3409 73.0082 34.3638 72.3351 34.5726 71.7058C34.7814 71.0764 35.1668 70.5192 35.6798 70.1047C36.1929 69.6901 36.8105 69.4369 37.4545 69.3772C38.0985 69.3174 38.7399 69.4538 39.2974 69.7691C39.8549 70.0843 40.3034 70.5642 40.5861 71.1479C40.8688 71.7316 40.973 72.393 40.8854 73.0481C40.7979 73.7032 40.5225 74.3226 40.0942 74.8279C39.666 75.3332 39.1041 75.7015 38.4798 75.8863C37.6459 76.1352 36.7589 76.0384 36.0138 75.6171C35.2687 75.1958 34.7267 74.4845 34.5068 73.6398Z" fill="#FF2727"/>
</g>
</g>
<g style="mix-blend-mode:multiply">
<g style="mix-blend-mode:multiply">
<path d="M23.3681 76.7375C23.2022 76.1062 23.225 75.4334 23.4336 74.8043C23.6421 74.1752 24.027 73.6181 24.5396 73.2035C25.0521 72.7888 25.6693 72.5353 26.313 72.475C26.9566 72.4147 27.5978 72.5504 28.1554 72.8648C28.713 73.1792 29.1619 73.6582 29.4453 74.2412C29.7287 74.8242 29.8339 75.485 29.7475 76.1399C29.6611 76.7948 29.387 77.4144 28.96 77.9203C28.5329 78.4262 27.9721 78.7956 27.3485 78.9818C26.5139 79.2309 25.6262 79.1345 24.88 78.7138C24.1338 78.2931 23.59 77.5823 23.3681 76.7375Z" fill="#FF2727"/>
</g>
</g>
<g style="mix-blend-mode:multiply">
<g style="mix-blend-mode:multiply">
<path d="M12.1763 79.8507C12.0102 79.2184 12.0333 78.5446 12.2427 77.9148C12.4521 77.2849 12.8383 76.7274 13.3523 76.3131C13.8663 75.8988 14.485 75.6462 15.1297 75.5876C15.7744 75.529 16.4161 75.6668 16.9734 75.9837C17.5307 76.3006 17.9784 76.7823 18.2597 77.3675C18.541 77.9527 18.6432 78.6151 18.5533 79.2706C18.4634 79.9261 18.1855 80.5452 17.7548 81.0493C17.3242 81.5533 16.7602 81.9195 16.1345 82.1015C15.3022 82.3436 14.4195 82.2429 13.6782 81.8214C12.9369 81.3999 12.3972 80.6916 12.1763 79.8507Z" fill="#FF2727"/>
</g>
</g>
<g style="mix-blend-mode:multiply">
<g style="mix-blend-mode:multiply">
<path d="M122.541 30.7923C120.801 31.3118 119.762 33.1623 120.221 34.9254C120.68 36.6885 122.462 37.6966 124.203 37.177C125.944 36.6575 126.983 34.8071 126.524 33.044C126.065 31.2809 124.282 30.2727 122.541 30.7923Z" fill="#FF2727"/>
</g>
</g>
<g style="mix-blend-mode:multiply">
<g style="mix-blend-mode:multiply">
<path d="M111.381 33.8938C109.641 34.4133 108.602 36.2638 109.061 38.0269C109.519 39.79 111.302 40.7981 113.043 40.2786C114.783 39.7591 115.822 37.9086 115.364 36.1455C114.905 34.3824 113.122 33.3742 111.381 33.8938Z" fill="#FF2727"/>
</g>
</g>
<g style="mix-blend-mode:multiply">
<g style="mix-blend-mode:multiply">
<path d="M97.8984 41.1324C97.7341 40.501 97.7583 39.8286 97.968 39.2002C98.1777 38.5719 98.5634 38.0158 99.0764 37.6023C99.5894 37.1888 100.207 36.9364 100.85 36.8771C101.493 36.8178 102.134 36.9542 102.691 37.2691C103.248 37.5841 103.696 38.0633 103.979 38.6462C104.262 39.2292 104.366 39.8897 104.279 40.5442C104.193 41.1988 103.919 41.8179 103.492 42.3234C103.065 42.8289 102.504 43.198 101.881 43.3841C101.045 43.6335 100.156 43.5365 99.409 43.1142C98.6621 42.6919 98.1188 41.979 97.8984 41.1324Z" fill="#FF2727"/>
</g>
</g>
<g style="mix-blend-mode:multiply">
<g style="mix-blend-mode:multiply">
<path d="M86.7368 44.2359C86.5725 43.6045 86.5967 42.9321 86.8064 42.3037C87.0161 41.6754 87.4018 41.1193 87.9148 40.7058C88.4278 40.2923 89.045 40.0399 89.6884 39.9806C90.3317 39.9213 90.9724 40.0577 91.5293 40.3726C92.0863 40.6875 92.5345 41.1668 92.8172 41.7497C93.1 42.3327 93.2046 42.9932 93.1178 43.6478C93.0311 44.3023 92.7569 44.9215 92.33 45.4269C91.903 45.9324 91.3424 46.3015 90.7191 46.4876C89.8833 46.7371 88.9941 46.64 88.2473 46.2177C87.5005 45.7955 86.9571 45.0826 86.7368 44.2359Z" fill="#FF2727"/>
</g>
</g>
<g style="mix-blend-mode:multiply">
<g style="mix-blend-mode:multiply">
<path d="M75.5542 47.3453C75.3899 46.7139 75.4141 46.0415 75.6238 45.4131C75.8335 44.7847 76.2192 44.2286 76.7321 43.8151C77.2451 43.4016 77.8624 43.1492 78.5057 43.0899C79.1491 43.0306 79.7898 43.1671 80.3467 43.482C80.9036 43.7969 81.3518 44.2761 81.6346 44.8591C81.9174 45.442 82.022 46.1026 81.9352 46.7571C81.8485 47.4117 81.5743 48.0308 81.1473 48.5363C80.7204 49.0418 80.1598 49.4109 79.5365 49.597C79.1226 49.7216 78.691 49.7621 78.2666 49.7163C77.8421 49.6705 77.4332 49.5392 77.0631 49.33C76.6931 49.1207 76.3693 48.8377 76.1104 48.4971C75.8514 48.1565 75.6624 47.7651 75.5542 47.3453Z" fill="#FF2727"/>
</g>
</g>
<g style="mix-blend-mode:multiply">
<g style="mix-blend-mode:multiply">
<path d="M64.4077 50.4449C64.2434 49.8135 64.2676 49.1411 64.4773 48.5128C64.687 47.8844 65.0727 47.3283 65.5857 46.9148C66.0986 46.5013 66.7159 46.2489 67.3593 46.1896C68.0026 46.1303 68.6433 46.2668 69.2002 46.5817C69.7572 46.8966 70.2054 47.3758 70.4881 47.9587C70.7709 48.5417 70.8755 49.2022 70.7887 49.8568C70.702 50.5113 70.4278 51.1304 70.0009 51.6359C69.5739 52.1414 69.0133 52.5105 68.39 52.6966C67.5542 52.9461 66.665 52.849 65.9182 52.4267C65.1714 52.0045 64.628 51.2916 64.4077 50.4449Z" fill="#FF2727"/>
</g>
</g>
<g style="mix-blend-mode:multiply">
<g style="mix-blend-mode:multiply">
<path d="M55.5663 49.4173C53.8258 49.9368 52.7867 51.7873 53.2455 53.5504C53.7043 55.3135 55.4873 56.3216 57.2278 55.8021C58.9684 55.2825 60.0075 53.432 59.5486 51.6689C59.0898 49.9058 57.3069 48.8977 55.5663 49.4173Z" fill="#FF2727"/>
</g>
</g>
<g style="mix-blend-mode:multiply">
<g style="mix-blend-mode:multiply">
<path d="M44.3984 52.5226C42.6579 53.0422 41.6188 54.8927 42.0776 56.6558C42.5365 58.4189 44.3194 59.4271 46.0599 58.9075C47.8004 58.388 48.8395 56.5375 48.3807 54.7744C47.9218 53.0112 46.1389 52.0031 44.3984 52.5226Z" fill="#FF2727"/>
</g>
</g>
<g style="mix-blend-mode:multiply">
<g style="mix-blend-mode:multiply">
<path d="M30.9229 59.7574C30.7585 59.1257 30.7829 58.4529 30.9928 57.8243C31.2028 57.1957 31.589 56.6395 32.1024 56.2261C32.6159 55.8127 33.2335 55.5606 33.8773 55.5019C34.521 55.4431 35.1619 55.5803 35.7187 55.896C36.2755 56.2118 36.7233 56.6919 37.0054 57.2756C37.2874 57.8593 37.391 58.5203 37.3031 59.1751C37.2152 59.8298 36.9398 60.4488 36.5116 60.9537C36.0834 61.4585 35.5218 61.8266 34.8978 62.0113C34.4843 62.1347 34.0533 62.1743 33.6296 62.1278C33.2059 62.0813 32.7978 61.9495 32.4285 61.7402C32.0593 61.5308 31.7363 61.2479 31.4779 60.9077C31.2196 60.5675 31.031 60.1766 30.9229 59.7574Z" fill="#FF2727"/>
</g>
</g>
<g style="mix-blend-mode:multiply">
<g style="mix-blend-mode:multiply">
<path d="M19.7836 62.8551C19.6193 62.2237 19.6435 61.5513 19.8532 60.9229C20.0629 60.2946 20.4486 59.7385 20.9616 59.325C21.4746 58.9115 22.0918 58.6591 22.7352 58.5998C23.3786 58.5405 24.0193 58.6769 24.5762 58.9918C25.1331 59.3067 25.5813 59.786 25.8641 60.3689C26.1468 60.9519 26.2514 61.6124 26.1647 62.2669C26.078 62.9215 25.8038 63.5406 25.3768 64.0461C24.9498 64.5516 24.3893 64.9207 23.7659 65.1067C22.9301 65.3562 22.041 65.2592 21.2941 64.8369C20.5473 64.4146 20.0039 63.7017 19.7836 62.8551Z" fill="#FF2727"/>
</g>
</g>
<g style="mix-blend-mode:multiply">
<g style="mix-blend-mode:multiply">
<path d="M8.59228 65.9683C8.42797 65.3369 8.45219 64.6646 8.66187 64.0362C8.87154 63.4079 9.25724 62.8518 9.77022 62.4383C10.2832 62.0247 10.9004 61.7724 11.5438 61.7131C12.1872 61.6538 12.8279 61.7902 13.3848 62.1051C13.9417 62.42 14.3899 62.8992 14.6727 63.4822C14.9554 64.0652 15.06 64.7257 14.9733 65.3802C14.8866 66.0347 14.6124 66.6539 14.1854 67.1594C13.7584 67.6648 13.1979 68.0339 12.5746 68.22C11.7387 68.4695 10.8496 68.3724 10.1028 67.9502C9.35597 67.5279 8.81262 66.815 8.59228 65.9683Z" fill="#FF2727"/>
</g>
</g>
<g style="mix-blend-mode:multiply">
<g style="mix-blend-mode:multiply">
<path d="M118.959 16.9113C117.218 17.4308 116.179 19.2813 116.638 21.0444C117.097 22.8076 118.88 23.8157 120.62 23.2962C122.361 22.7766 123.4 20.9262 122.941 19.163C122.482 17.3999 120.699 16.3917 118.959 16.9113Z" fill="#FF2727"/>
</g>
</g>
<g style="mix-blend-mode:multiply">
<g style="mix-blend-mode:multiply">
<path d="M107.797 20.0167C106.057 20.5363 105.018 22.3868 105.477 24.1499C105.935 25.9131 107.718 26.9212 109.459 26.4017C111.199 25.8821 112.238 24.0316 111.78 22.2685C111.321 20.5053 109.538 19.4972 107.797 20.0167Z" fill="#FF2727"/>
</g>
</g>
<g style="mix-blend-mode:multiply">
<g style="mix-blend-mode:multiply">
<path d="M94.3149 27.2534C94.1506 26.622 94.1749 25.9496 94.3845 25.3213C94.5942 24.6929 94.9799 24.1368 95.4929 23.7233C96.0059 23.3098 96.6231 23.0574 97.2665 22.9981C97.9099 22.9388 98.5505 23.0752 99.1075 23.3901C99.6644 23.7051 100.113 24.1843 100.395 24.7673C100.678 25.3502 100.783 26.0108 100.696 26.6653C100.609 27.3198 100.335 27.939 99.9081 28.4445C99.4811 28.95 98.9205 29.3191 98.2972 29.5052C97.4614 29.7547 96.5723 29.6576 95.8255 29.2353C95.0786 28.813 94.5353 28.1001 94.3149 27.2534Z" fill="#FF2727"/>
</g>
</g>
<g style="mix-blend-mode:multiply">
<g style="mix-blend-mode:multiply">
<path d="M83.1538 30.3569C82.9895 29.7255 83.0137 29.0531 83.2234 28.4248C83.4331 27.7964 83.8188 27.2403 84.3318 26.8268C84.8448 26.4133 85.4619 26.1609 86.1053 26.1016C86.7487 26.0423 87.3894 26.1788 87.9463 26.4937C88.5032 26.8086 88.9514 27.2878 89.2342 27.8708C89.517 28.4538 89.6216 29.1143 89.5348 29.7688C89.4481 30.4234 89.1739 31.0425 88.747 31.548C88.32 32.0535 87.7594 32.4226 87.1361 32.6087C86.3003 32.8581 85.4112 32.7611 84.6643 32.3388C83.9175 31.9165 83.3742 31.2036 83.1538 30.3569Z" fill="#FF2727"/>
</g>
</g>
<g style="mix-blend-mode:multiply">
<g style="mix-blend-mode:multiply">
<path d="M71.9707 33.4663C71.8064 32.8349 71.8306 32.1625 72.0403 31.5342C72.25 30.9058 72.6357 30.3497 73.1486 29.9362C73.6616 29.5227 74.2788 29.2703 74.9222 29.211C75.5656 29.1517 76.2063 29.2881 76.7632 29.603C77.3201 29.918 77.7683 30.3972 78.0511 30.9802C78.3339 31.5631 78.4385 32.2237 78.3517 32.8782C78.265 33.5327 77.9908 34.1519 77.5638 34.6574C77.1369 35.1629 76.5763 35.532 75.953 35.7181C75.1172 35.9676 74.228 35.8705 73.4812 35.4482C72.7344 35.0259 72.191 34.313 71.9707 33.4663Z" fill="#FF2727"/>
</g>
</g>
<g style="mix-blend-mode:multiply">
<g style="mix-blend-mode:multiply">
<path d="M60.8237 36.5679C60.6594 35.9365 60.6836 35.2641 60.8933 34.6357C61.103 34.0073 61.4887 33.4512 62.0017 33.0377C62.5146 32.6242 63.1319 32.3718 63.7753 32.3125C64.4186 32.2532 65.0593 32.3896 65.6162 32.7046C66.1732 33.0195 66.6214 33.4987 66.9041 34.0817C67.1869 34.6647 67.2915 35.3252 67.2048 35.9797C67.118 36.6343 66.8438 37.2535 66.4169 37.759C65.9899 38.2645 65.4293 38.6336 64.806 38.8196C63.9702 39.0691 63.0811 38.9721 62.3343 38.5498C61.5874 38.1275 61.0441 37.4146 60.8237 36.5679Z" fill="#FF2727"/>
</g>
</g>
<g style="mix-blend-mode:multiply">
<g style="mix-blend-mode:multiply">
<path d="M51.9833 35.5383C50.2427 36.0578 49.2037 37.9083 49.6625 39.6714C50.1213 41.4346 51.9043 42.4427 53.6448 41.9232C55.3854 41.4036 56.4244 39.5531 55.9656 37.79C55.5068 36.0268 53.7238 35.0187 51.9833 35.5383Z" fill="#FF2727"/>
</g>
</g>
<g style="mix-blend-mode:multiply">
<g style="mix-blend-mode:multiply">
<path d="M40.8154 38.6438C39.0748 39.1633 38.0358 41.0138 38.4946 42.7769C38.9535 44.54 40.7364 45.5481 42.4769 45.0286C44.2174 44.5091 45.2565 42.6586 44.7976 40.8955C44.3388 39.1323 42.5559 38.1242 40.8154 38.6438Z" fill="#FF2727"/>
</g>
</g>
<g style="mix-blend-mode:multiply">
<g style="mix-blend-mode:multiply">
<path d="M27.3394 45.8784C27.175 45.2467 27.1993 44.5739 27.4093 43.9453C27.6192 43.3167 28.0054 42.7605 28.5189 42.347C29.0323 41.9336 29.65 41.6815 30.2937 41.6228C30.9375 41.564 31.5783 41.7012 32.1351 42.017C32.692 42.3327 33.1398 42.8128 33.4218 43.3965C33.7039 43.9803 33.8075 44.6414 33.7196 45.2961C33.6317 45.9509 33.3563 46.5699 32.9281 47.0747C32.4999 47.5796 31.9383 47.9477 31.3143 48.1324C30.4792 48.3795 29.5918 48.281 28.8466 47.8585C28.1014 47.4359 27.5594 46.7238 27.3394 45.8784Z" fill="#FF2727"/>
</g>
</g>
<g style="mix-blend-mode:multiply">
<g style="mix-blend-mode:multiply">
<path d="M16.2001 48.9761C16.0357 48.3447 16.06 47.6723 16.2696 47.0439C16.4793 46.4156 16.865 45.8595 17.378 45.4459C17.891 45.0324 18.5082 44.78 19.1516 44.7207C19.795 44.6614 20.4357 44.7979 20.9927 45.1128C21.5496 45.4277 21.9978 45.9069 22.2806 46.4899C22.5633 47.0729 22.6679 47.7334 22.5812 48.388C22.4945 49.0425 22.2203 49.6617 21.7933 50.1672C21.3663 50.6727 20.8057 51.0418 20.1824 51.2278C19.3466 51.4773 18.4574 51.3803 17.7106 50.958C16.9638 50.5357 16.4204 49.8228 16.2001 48.9761Z" fill="#FF2727"/>
</g>
</g>
<g style="mix-blend-mode:multiply">
<g style="mix-blend-mode:multiply">
<path d="M101.894 10.273C101.729 9.6416 101.753 8.96918 101.963 8.34082C102.173 7.71247 102.559 7.15637 103.072 6.74285C103.585 6.32933 104.202 6.07699 104.845 6.01769C105.488 5.95839 106.129 6.0948 106.686 6.40971C107.243 6.72462 107.691 7.20385 107.974 7.78682C108.257 8.36979 108.361 9.03033 108.275 9.68487C108.188 10.3394 107.914 10.9585 107.487 11.464C107.06 11.9695 106.499 12.3386 105.876 12.5247C105.04 12.7742 104.151 12.6771 103.404 12.2548C102.657 11.8325 102.114 11.1197 101.894 10.273Z" fill="#FF2727"/>
</g>
</g>
<g style="mix-blend-mode:multiply">
<g style="mix-blend-mode:multiply">
<path d="M90.7329 13.3766C90.5686 12.7452 90.5928 12.0727 90.8025 11.4444C91.0122 10.816 91.3979 10.2599 91.9109 9.84642C92.4238 9.4329 93.0411 9.18055 93.6845 9.12124C94.3279 9.06194 94.9685 9.19836 95.5255 9.51326C96.0824 9.82816 96.5305 10.3074 96.8133 10.8904C97.0961 11.4733 97.2007 12.1339 97.114 12.7884C97.0272 13.4429 96.7531 14.0621 96.3261 14.5676C95.8991 15.073 95.3385 15.4422 94.7152 15.6282C93.8793 15.8777 92.9902 15.7806 92.2434 15.3584C91.4966 14.9361 90.9532 14.2232 90.7329 13.3766Z" fill="#FF2727"/>
</g>
</g>
<g style="mix-blend-mode:multiply">
<g style="mix-blend-mode:multiply">
<path d="M79.5709 16.48C79.4066 15.8487 79.4308 15.1762 79.6405 14.5479C79.8501 13.9195 80.2359 13.3634 80.7488 12.9499C81.2618 12.5364 81.879 12.2841 82.5224 12.2248C83.1658 12.1655 83.8064 12.3019 84.3633 12.6168C84.9203 12.9317 85.3685 13.4109 85.6512 13.9939C85.934 14.5769 86.0386 15.2374 85.9518 15.8919C85.8651 16.5465 85.5909 17.1656 85.164 17.6711C84.737 18.1766 84.1764 18.5457 83.5531 18.7317C82.7173 18.9812 81.8282 18.8841 81.0814 18.4618C80.3346 18.0396 79.7912 17.3267 79.5709 16.48Z" fill="#FF2727"/>
</g>
</g>
<g style="mix-blend-mode:multiply">
<g style="mix-blend-mode:multiply">
<path d="M68.3887 19.5895C68.2244 18.9581 68.2486 18.2856 68.4582 17.6573C68.6679 17.0289 69.0536 16.4728 69.5666 16.0593C70.0796 15.6458 70.6968 15.3934 71.3402 15.3341C71.9836 15.2748 72.6243 15.4113 73.1812 15.7262C73.7381 16.0411 74.1863 16.5203 74.4691 17.1032C74.7518 17.6862 74.8564 18.3468 74.7697 19.0013C74.683 19.6558 74.4088 20.275 73.9818 20.7805C73.5548 21.2859 72.9943 21.6551 72.371 21.8411C71.5351 22.0906 70.646 21.9935 69.8992 21.5713C69.1523 21.149 68.609 20.4361 68.3887 19.5895Z" fill="#FF2727"/>
</g>
</g>
<g style="mix-blend-mode:multiply">
<g style="mix-blend-mode:multiply">
<path d="M57.2417 22.691C57.0774 22.0596 57.1016 21.3872 57.3113 20.7588C57.5209 20.1305 57.9066 19.5744 58.4196 19.1608C58.9326 18.7473 59.5499 18.495 60.1932 18.4357C60.8366 18.3764 61.4773 18.5128 62.0342 18.8277C62.5911 19.1426 63.0393 19.6218 63.3221 20.2048C63.6049 20.7878 63.7095 21.4483 63.6227 22.1029C63.536 22.7574 63.2618 23.3765 62.8348 23.882C62.4079 24.3875 61.8473 24.7566 61.224 24.9427C60.3882 25.1922 59.499 25.0951 58.7522 24.6728C58.0054 24.2505 57.462 23.5377 57.2417 22.691Z" fill="#FF2727"/>
</g>
</g>
<g style="mix-blend-mode:multiply">
<g style="mix-blend-mode:multiply">
<path d="M46.08 25.7946C45.9157 25.1632 45.9399 24.4908 46.1496 23.8624C46.3593 23.2341 46.745 22.678 47.258 22.2645C47.771 21.8509 48.3882 21.5986 49.0316 21.5393C49.675 21.48 50.3157 21.6164 50.8726 21.9313C51.4296 22.2462 51.8777 22.7254 52.1605 23.3084C52.4432 23.8913 52.5479 24.5519 52.4611 25.2064C52.3744 25.8609 52.1002 26.4801 51.6732 26.9855C51.2462 27.491 50.6856 27.8601 50.0623 28.0462C49.2265 28.2957 48.3373 28.1986 47.5905 27.7763C46.8437 27.3541 46.3003 26.6412 46.08 25.7946Z" fill="#FF2727"/>
</g>
</g>
<g style="mix-blend-mode:multiply">
<g style="mix-blend-mode:multiply">
<path d="M34.9185 28.898C34.7541 28.2666 34.7784 27.5942 34.988 26.9659C35.1977 26.3375 35.5834 25.7814 36.0964 25.3679C36.6094 24.9544 37.2266 24.7021 37.87 24.6428C38.5134 24.5835 39.1541 24.7199 39.711 25.0348C40.2679 25.3497 40.7161 25.8289 40.9988 26.4119C41.2816 26.9948 41.3863 27.6554 41.2995 28.3099C41.2128 28.9644 40.9386 29.5836 40.5116 30.089C40.0846 30.5945 39.524 30.9636 38.9007 31.1497C38.0649 31.3992 37.1757 31.3021 36.4289 30.8798C35.6821 30.4576 35.1388 29.7447 34.9185 28.898Z" fill="#FF2727"/>
</g>
</g>
<g style="mix-blend-mode:multiply">
<g style="mix-blend-mode:multiply">
<path d="M23.7573 32.0015C23.5929 31.3698 23.6173 30.697 23.8272 30.0684C24.0372 29.4398 24.4233 28.8835 24.9368 28.4701C25.4503 28.0567 26.068 27.8047 26.7117 27.7459C27.3554 27.6872 27.9963 27.8243 28.5531 28.1401C29.1099 28.4558 29.5578 28.9359 29.8398 29.5196C30.1219 30.1033 30.2255 30.7644 30.1376 31.4192C30.0497 32.0739 29.7742 32.6929 29.3461 33.1978C28.9179 33.7027 28.3562 34.0707 27.7322 34.2554C26.8972 34.5026 26.0097 34.4041 25.2645 33.9815C24.5194 33.559 23.9773 32.8469 23.7573 32.0015Z" fill="#FF2727"/>
</g>
</g>
<g style="mix-blend-mode:multiply">
<g style="mix-blend-mode:multiply">
<path d="M12.6181 35.0992C12.4538 34.4678 12.478 33.7954 12.6877 33.1671C12.8973 32.5387 13.283 31.9826 13.796 31.5691C14.309 31.1556 14.9263 30.9032 15.5697 30.8439C16.2131 30.7846 16.8537 30.921 17.4107 31.2359C17.9676 31.5508 18.4158 32.0301 18.6986 32.613C18.9813 33.196 19.0859 33.8565 18.9992 34.5111C18.9125 35.1656 18.6383 35.7847 18.2113 36.2902C17.7843 36.7957 17.2237 37.1648 16.6004 37.3509C15.7646 37.6004 14.8754 37.5033 14.1286 37.081C13.3818 36.6588 12.8384 35.9459 12.6181 35.0992Z" fill="#FF2727"/>
</g>
</g>
<g style="mix-blend-mode:multiply">
<g style="mix-blend-mode:multiply">
<path d="M42.498 11.9195C42.3337 11.2881 42.3579 10.6157 42.5676 9.98737C42.7772 9.35901 43.163 8.80286 43.676 8.38934C44.189 7.97582 44.8062 7.72347 45.4495 7.66417C46.0929 7.60487 46.7336 7.74127 47.2906 8.05617C47.8475 8.37108 48.2957 8.85035 48.5784 9.43332C48.8612 10.0163 48.9658 10.6768 48.8791 11.3313C48.7924 11.9859 48.5181 12.6051 48.0912 13.1105C47.6642 13.616 47.1036 13.9851 46.4803 14.1712C45.6445 14.4207 44.7553 14.3236 44.0085 13.9014C43.2617 13.4791 42.7183 12.7662 42.498 11.9195Z" fill="#FF2727"/>
</g>
</g>
<g style="mix-blend-mode:multiply">
<g style="mix-blend-mode:multiply">
<path d="M31.3369 15.025C31.1726 14.3936 31.1968 13.7212 31.4065 13.0929C31.6162 12.4645 32.0019 11.9084 32.5149 11.4949C33.0278 11.0813 33.6451 10.829 34.2885 10.7697C34.9319 10.7104 35.5725 10.8468 36.1295 11.1617C36.6864 11.4766 37.1346 11.9559 37.4173 12.5388C37.7001 13.1218 37.8047 13.7823 37.718 14.4368C37.6312 15.0913 37.3571 15.7105 36.9301 16.216C36.5031 16.7215 35.9425 17.0906 35.3192 17.2767C34.4833 17.5262 33.5942 17.4291 32.8474 17.0068C32.1005 16.5846 31.5572 15.8717 31.3369 15.025Z" fill="#FF2727"/>
</g>
</g>
<g style="mix-blend-mode:multiply">
<g style="mix-blend-mode:multiply">
<path d="M20.1748 18.1284C20.0104 17.4967 20.0348 16.824 20.2447 16.1954C20.4547 15.5668 20.8408 15.0105 21.3543 14.5971C21.8678 14.1837 22.4854 13.9316 23.1292 13.8729C23.7729 13.8141 24.4138 13.9513 24.9706 14.2671C25.5274 14.5828 25.9752 15.0629 26.2573 15.6466C26.5393 16.2303 26.643 16.8914 26.5551 17.5461C26.4672 18.2009 26.1917 18.8198 25.7635 19.3247C25.3354 19.8296 24.7737 20.1977 24.1497 20.3823C23.3147 20.6295 22.4272 20.531 21.682 20.1084C20.9368 19.6859 20.3948 18.9738 20.1748 18.1284Z" fill="#FF2727"/>
</g>
</g>
<g style="mix-blend-mode:multiply">
<g style="mix-blend-mode:multiply">
<path d="M9.03654 21.2261C8.87223 20.5947 8.89646 19.9224 9.10613 19.294C9.31581 18.6657 9.7015 18.1095 10.2145 17.696C10.7275 17.2825 11.3447 17.0301 11.9881 16.9708C12.6315 16.9115 13.2722 17.048 13.8291 17.3629C14.386 17.6778 14.8343 18.157 15.117 18.74C15.3998 19.3229 15.5044 19.9834 15.4176 20.638C15.3309 21.2925 15.0567 21.9117 14.6297 22.4172C14.2028 22.9227 13.6422 23.2918 13.0189 23.4778C12.183 23.7273 11.2939 23.6302 10.5471 23.208C9.80023 22.7857 9.25687 22.0728 9.03654 21.2261Z" fill="#FF2727"/>
</g>
</g>
</g>
</g>
</g>
</svg>
