<svg width="40" height="40" viewBox="0 0 40 40" fill="none" xmlns="http://www.w3.org/2000/svg">
<g clip-path="url(#clip0)">
<path d="M38.6662 27.175C42.6373 16.8678 37.5008 5.29303 27.1936 1.32201C16.8864 -2.64901 5.31158 2.48748 1.34056 12.7947C-2.63046 23.1019 2.50603 34.6767 12.8132 38.6477C23.1204 42.6187 34.6952 37.4822 38.6662 27.175Z" fill="white" fill-opacity="0.21"/>
<path d="M32.3003 12.3666C31.3795 12.778 30.4017 13.0477 29.4003 13.1666C30.4495 12.5275 31.2356 11.5344 31.6169 10.3666C30.6292 10.9589 29.5467 11.3761 28.4169 11.5999C27.7332 10.8309 26.8288 10.2917 25.8272 10.0556C24.8256 9.81964 23.7756 9.89841 22.8204 10.2812C21.8653 10.664 21.0515 11.3322 20.4901 12.1946C19.9287 13.057 19.6471 14.0716 19.6836 15.0999C19.6795 15.4864 19.7186 15.8721 19.8003 16.2499C17.7911 16.1414 15.8271 15.6121 14.0356 14.6962C12.244 13.7803 10.6648 12.4983 9.40026 10.9332C8.76411 12.0352 8.57201 13.3382 8.86309 14.5769C9.15418 15.8156 9.90655 16.8966 10.9669 17.5999C10.161 17.5736 9.37274 17.3566 8.66693 16.9666C8.64552 18.1434 9.03995 19.29 9.78078 20.2046C10.5216 21.1192 11.5613 21.7431 12.7169 21.9666C12.2882 22.086 11.8454 22.1477 11.4003 22.1499C11.0809 22.1514 10.7623 22.1179 10.4503 22.0499C10.7638 23.0594 11.3892 23.9436 12.2366 24.5754C13.0841 25.2072 14.1099 25.5542 15.1669 25.5666C13.371 26.9641 11.1592 27.7209 8.88359 27.7166C8.48398 27.7415 8.08321 27.7415 7.68359 27.7166C9.85347 29.1067 12.3573 29.8876 14.9327 29.9775C17.5081 30.0673 20.0603 29.4628 22.3218 28.2272C24.5832 26.9917 26.4707 25.1706 27.7865 22.9549C29.1022 20.7391 29.7978 18.2102 29.8003 15.6332C29.8003 15.4166 29.8003 15.1999 29.8003 14.9833C30.7856 14.2648 31.6374 13.3792 32.3169 12.3666" fill="#3A3748"/>
</g>
<defs>
<clipPath id="clip0">
<rect width="40" height="40" fill="white"/>
</clipPath>
</defs>
</svg>
