<svg width="40" height="40" viewBox="0 0 40 40" fill="none" xmlns="http://www.w3.org/2000/svg">
<g clip-path="url(#clip0)">
<path d="M39.4689 24.5777C42.0062 13.8274 35.3482 3.05563 24.5979 0.518325C13.8476 -2.01898 3.07584 4.63898 0.538536 15.3893C-1.99877 26.1396 4.65919 36.9114 15.4095 39.4487C26.1598 41.986 36.9316 35.328 39.4689 24.5777Z" fill="white" fill-opacity="0.21"/>
<path d="M32.2499 15.0001C32.1318 14.104 31.794 13.2509 31.2665 12.5168C30.6039 11.8513 29.7056 11.474 28.7665 11.4668C25.2665 11.2168 20.0165 11.2168 20.0165 11.2168C20.0165 11.2168 14.7665 11.2168 11.2665 11.4668C10.3275 11.474 9.42914 11.8513 8.76654 12.5168C8.23535 13.2488 7.89716 14.1029 7.7832 15.0001C7.62796 16.3447 7.54451 17.6966 7.5332 19.0501V20.9501C7.54451 22.3036 7.62796 23.6555 7.7832 25.0001C7.89564 25.8927 8.23411 26.7417 8.76654 27.4668C9.53151 28.1439 10.5118 28.5278 11.5332 28.5501C13.5332 28.7335 20.0332 28.8001 20.0332 28.8001C20.0332 28.8001 25.2832 28.8001 28.7832 28.5335C29.2497 28.5295 29.7108 28.4332 30.1399 28.2501C30.569 28.0671 30.9575 27.8008 31.2832 27.4668C31.8184 26.7416 32.1623 25.8933 32.2832 25.0001C32.4384 23.6555 32.5219 22.3036 32.5332 20.9501V19.0501C32.5219 17.6966 32.4384 16.3447 32.2832 15.0001H32.2499ZM17.0999 23.5668V15.9001L24.4832 19.7501L17.0999 23.5668Z" fill="#3A3748"/>
</g>
<defs>
<clipPath id="clip0">
<rect width="40" height="40" fill="white"/>
</clipPath>
</defs>
</svg>
