<svg id="Layer_1" data-name="Layer 1" xmlns="http://www.w3.org/2000/svg" xmlns:xlink="http://www.w3.org/1999/xlink" viewBox="0 0 200.39 195.06"><defs><style>.cls-1{fill:none;stroke-width:9px;stroke:url(#linear-gradient);}.cls-2{fill:#ed2224;}.cls-3{fill:#483e8c;}.cls-4{fill:#faa51a;}.cls-5{fill:#3cc1c8;}.cls-6{fill:#0f8140;}</style><linearGradient id="linear-gradient" x1="14.16" y1="97.1" x2="188.05" y2="97.1" gradientUnits="userSpaceOnUse"><stop offset="0" stop-color="#010101"/><stop offset="1"/></linearGradient></defs><circle class="cls-1" cx="101.11" cy="97.1" r="80.87"/><path id="path3775-8" class="cls-2" d="M60.14,62.75A20.23,20.23,0,1,1,39.91,42.52,20.22,20.22,0,0,1,60.14,62.75Z" transform="translate(-6.89 -10.9)"/><path id="path2985-8" class="cls-3" d="M47.38,107.37A20.25,20.25,0,1,1,27.13,87.13,20.24,20.24,0,0,1,47.38,107.37Z" transform="translate(-6.89 -10.9)"/><path id="path3777-2" class="cls-4" d="M96.53,33.68A20.23,20.23,0,1,1,76.3,13.44,20.24,20.24,0,0,1,96.53,33.68Z" transform="translate(-6.89 -10.9)"/><path id="path3779-4" class="cls-5" d="M145.48,31.14A20.24,20.24,0,1,1,125.24,10.9,20.24,20.24,0,0,1,145.48,31.14Z" transform="translate(-6.89 -10.9)"/><path id="path3781-5" class="cls-6" d="M187,53.91a20.24,20.24,0,1,1-20.22-20.24A20.22,20.22,0,0,1,187,53.91Z" transform="translate(-6.89 -10.9)"/><path id="path2985-8-2" data-name="path2985-8" class="cls-3" d="M207.28,101A20.24,20.24,0,1,1,187,80.76,20.23,20.23,0,0,1,207.28,101Z" transform="translate(-6.89 -10.9)"/><path id="path3775-8-2" data-name="path3775-8" class="cls-2" d="M194.81,147.26A20.23,20.23,0,1,1,174.58,127,20.22,20.22,0,0,1,194.81,147.26Z" transform="translate(-6.89 -10.9)"/><path id="path3777-2-2" data-name="path3777-2" class="cls-4" d="M158.7,179.82a20.23,20.23,0,1,1-20.23-20.24A20.24,20.24,0,0,1,158.7,179.82Z" transform="translate(-6.89 -10.9)"/><path id="path3779-4-2" data-name="path3779-4" class="cls-5" d="M106.8,185.73a20.24,20.24,0,1,1-20.24-20.24A20.24,20.24,0,0,1,106.8,185.73Z" transform="translate(-6.89 -10.9)"/><path id="path3781-5-2" data-name="path3781-5" class="cls-6" d="M64.21,157.36A20.24,20.24,0,1,1,44,137.12,20.23,20.23,0,0,1,64.21,157.36Z" transform="translate(-6.89 -10.9)"/></svg>